<svg width="354" height="603" viewBox="0 0 354 603" fill="none" xmlns="http://www.w3.org/2000/svg">
    <path d="M353.97 102.19V602.69H0V102.19C0 99.48 1.79 96.78 5.37 94.71L164.03 3.1C166.71 1.55 170.01 0.59 173.46 0.2C173.62 0.18 173.78 0.16 173.94 0.15C174.17 0.13 174.41 0.1 174.64 0.09C175.08 0.06 175.52 0.03 175.97 0.02C176.3 0.01 176.64 0 176.97 0C177.3 0 177.64 0 177.97 0.02C178.41 0.02 178.86 0.06 179.3 0.09C179.53 0.1 179.75 0.12 179.97 0.15C183.61 0.49 187.11 1.47 189.92 3.1L348.59 94.71C352.17 96.77 353.96 99.48 353.96 102.19H353.97Z" fill="url(#paint0_linear_7_4)"/>
    <path d="M176.98 203.04C172.2 203.04 167.72 201.97 164.36 200.03L5.69998 108.42C2.44998 106.55 0.669983 104.1 0.669983 101.52C0.669983 98.94 2.45998 96.49 5.69998 94.62L164.37 3.01C167.73 1.07 172.21 0 176.98 0C181.76 0 186.24 1.07 189.6 3.01L348.27 94.62C351.51 96.49 353.3 98.94 353.3 101.52C353.3 104.1 351.51 106.55 348.27 108.42L189.6 200.03C186.24 201.97 181.76 203.04 176.98 203.04Z" fill="white"/>
    <defs>
        <linearGradient id="paint0_linear_7_4" x1="0" y1="0" x2="353.97" y2="0" gradientUnits="userSpaceOnUse">
            <stop stop-color="#ADBEDB"/>
            <stop offset="0.17" stop-color="#A2ADC1"/>
            <stop offset="0.34" stop-color="#9BA1B0"/>
            <stop offset="0.46" stop-color="#999EAA"/>
            <stop offset="0.54" stop-color="#D3DDEB"/>
            <stop offset="1" stop-color="#D3DAE6"/>
        </linearGradient>
    </defs>
</svg>
