<svg width="256" height="256" viewBox="0 0 256 256" fill="none" xmlns="http://www.w3.org/2000/svg">
<path d="M178.03 186.741C178.75 187.161 179.34 188.171 179.33 189.001V193.571C179.32 193.981 179.17 194.271 178.94 194.411L145.1 213.941C145.34 213.801 145.48 213.511 145.48 213.101V208.531C145.5 207.701 144.91 206.681 144.19 206.271L119.79 192.191L153.63 172.651L178.02 186.731L178.03 186.741Z" fill="#8E58A2"/>
<path d="M145.17 214.051L145.04 213.821C145.24 213.701 145.35 213.441 145.35 213.091V208.521C145.37 207.731 144.81 206.761 144.13 206.371L119.54 192.171L119.73 192.061L153.64 172.491L153.7 172.531L178.1 186.611C178.86 187.051 179.47 188.111 179.47 188.991V193.561C179.46 194.011 179.3 194.341 179.01 194.511L145.17 214.051ZM120.06 192.181L144.26 206.151C145.02 206.591 145.64 207.661 145.63 208.531V213.091C145.62 213.251 145.6 213.391 145.56 213.521L178.88 194.291C179.08 194.171 179.2 193.911 179.2 193.561V188.991C179.22 188.201 178.66 187.241 177.98 186.841L153.65 172.791L120.07 192.171L120.06 192.181Z" fill="#131A2D"/>
<path d="M120.51 198.871L121.93 196.431L120.5 193.141L119.79 192.731V192.191L144.19 206.271C144.91 206.691 145.5 207.701 145.49 208.531V213.101C145.47 213.931 144.89 214.271 144.16 213.851L119.77 199.771V199.311L120.51 198.881V198.871Z" fill="#131A2D"/>
<path d="M122.09 196.821L120.5 193.141L143.97 206.661C144.25 206.821 144.53 207.121 144.73 207.471C144.94 207.831 145.05 208.221 145.05 208.541V213.111C145.04 213.341 144.97 213.511 144.87 213.571C144.76 213.631 144.58 213.601 144.38 213.481L119.77 199.311L120.48 198.901L122.09 196.821Z" fill="#8E58A2"/>
<path d="M144.76 213.722C144.63 213.722 144.49 213.672 144.33 213.582L119.52 199.302L120.4 198.792L121.94 196.802L120.22 192.832L144.03 206.542C144.33 206.712 144.63 207.032 144.84 207.402C145.06 207.782 145.18 208.192 145.18 208.542V213.112C145.16 213.392 145.08 213.602 144.94 213.692C144.89 213.722 144.82 213.742 144.75 213.742L144.76 213.722ZM120.04 199.302L144.46 213.362C144.64 213.462 144.78 213.482 144.82 213.452C144.86 213.432 144.92 213.312 144.92 213.102V208.532C144.93 208.232 144.82 207.862 144.63 207.522C144.44 207.182 144.18 206.912 143.92 206.762L120.79 193.442L122.25 196.832L120.56 199.002L120.05 199.302H120.04Z" fill="#131A2D"/>
<path d="M143.97 206.651C144.25 206.811 144.53 207.111 144.73 207.461C144.94 207.821 145.05 208.211 145.05 208.531V213.031L120.47 198.891L120.49 193.131L143.96 206.641L143.97 206.651Z" fill="white"/>
<path d="M145.18 213.261L144.99 213.151L120.36 198.971L120.38 192.911L120.58 193.021L144.05 206.531C144.35 206.701 144.65 207.021 144.86 207.391C145.08 207.771 145.2 208.181 145.2 208.531V213.261H145.18ZM120.62 198.821L144.92 212.811V208.531C144.93 208.231 144.82 207.861 144.63 207.521C144.44 207.181 144.18 206.911 143.92 206.761L120.64 193.361L120.62 198.821Z" fill="#131A2D"/>
<path d="M123.81 193.011C123.73 193.051 123.73 193.121 123.81 193.171C132.64 198.271 133.81 198.951 142.38 203.891C142.45 203.931 142.57 203.931 142.65 203.891C143.44 203.431 144.72 203.431 145.52 203.891C145.6 203.931 145.71 203.931 145.79 203.891C156.49 197.671 152.31 200.111 173.79 187.621C173.87 187.581 173.86 187.511 173.79 187.461C173 187.001 172.99 186.261 173.79 185.801C173.86 185.761 173.87 185.691 173.79 185.641C165.23 180.701 164.06 180.021 155.22 174.921C155.14 174.881 155.03 174.881 154.95 174.921C154.16 175.381 152.87 175.381 152.08 174.921C152 174.881 151.89 174.881 151.81 174.921C148.77 176.691 126.06 189.871 123.81 191.191C123.74 191.231 123.74 191.301 123.81 191.351C124.6 191.811 124.61 192.551 123.81 193.011ZM124.2 191.271C126.54 189.911 149.01 176.861 151.95 175.151C152.85 175.591 154.18 175.591 155.07 175.151C156.82 176.161 170.84 184.251 173.38 185.721C172.62 186.241 172.63 187.011 173.39 187.531C170.31 189.321 148.72 201.861 145.64 203.651C144.74 203.211 143.41 203.211 142.52 203.651C139.97 202.181 125.96 194.091 124.21 193.081C124.97 192.561 124.97 191.791 124.2 191.271Z" fill="#131A2D"/>
<path d="M146.17 182.262L150.88 179.622C151.18 179.452 151.54 179.462 151.84 179.622L164.33 186.832C164.98 187.202 164.97 188.142 164.32 188.512L159.6 191.152C159.3 191.322 158.94 191.312 158.64 191.152L146.15 183.942C145.5 183.562 145.51 182.622 146.16 182.262H146.17Z" fill="white"/>
<path d="M159.13 191.411C158.94 191.411 158.75 191.361 158.58 191.261L146.09 184.051C145.74 183.851 145.54 183.491 145.54 183.091C145.54 182.691 145.75 182.331 146.1 182.141L150.81 179.501C151.15 179.311 151.56 179.321 151.9 179.501L164.39 186.711C164.74 186.911 164.94 187.271 164.94 187.671C164.94 188.071 164.73 188.421 164.38 188.621L159.66 191.261C159.5 191.351 159.31 191.401 159.12 191.401L159.13 191.411ZM151.36 179.631C151.22 179.631 151.08 179.671 150.95 179.741L146.24 182.381C145.97 182.531 145.81 182.801 145.81 183.101C145.81 183.401 145.96 183.681 146.23 183.831L158.72 191.041C158.97 191.191 159.29 191.191 159.55 191.041L164.27 188.401C164.54 188.251 164.7 187.981 164.7 187.681C164.7 187.381 164.55 187.101 164.28 186.951L151.8 179.741C151.67 179.671 151.53 179.631 151.38 179.631H151.36Z" fill="#131A2D"/>
<g style="mix-blend-mode:multiply">
<path d="M137.14 156.902C128.21 152.192 113.86 152.422 105.11 157.422C96.35 162.422 96.49 170.292 105.43 175.002C114.36 179.712 128.7 179.482 137.46 174.482C146.22 169.482 146.08 161.612 137.14 156.902Z" fill="#C1C2C7"/>
</g>
<path d="M105.04 151.191C114.01 146.011 128.55 146.011 137.52 151.191C141.9 153.721 144.14 157.011 144.24 160.321C144.3 162.201 144.3 164.091 144.24 165.971C144.14 169.281 141.9 172.581 137.52 175.101C128.55 180.281 114.01 180.281 105.04 175.101C100.66 172.571 98.42 169.281 98.32 165.971C98.26 164.091 98.26 162.201 98.32 160.321C98.42 157.011 100.66 153.711 105.04 151.191Z" fill="#140035"/>
<path d="M105.04 151.191C96.07 156.371 96.07 164.761 105.04 169.941C114.01 175.121 128.55 175.121 137.52 169.941C146.49 164.761 146.49 156.361 137.52 151.191C128.55 146.011 114.01 146.011 105.04 151.191Z" fill="#8E58A2"/>
<path d="M121.28 174.071C115.35 174.071 109.43 172.771 104.92 170.161C100.5 167.611 98.07 164.201 98.07 160.571C98.07 156.941 100.5 153.531 104.92 150.981C113.94 145.771 128.62 145.771 137.65 150.981C142.07 153.531 144.5 156.941 144.5 160.571C144.5 164.201 142.07 167.611 137.65 170.161C133.14 172.761 127.21 174.071 121.29 174.071H121.28ZM105.16 151.411C100.9 153.871 98.56 157.121 98.56 160.571C98.56 164.021 100.9 167.271 105.16 169.731C114.05 174.861 128.5 174.861 137.39 169.731C141.65 167.271 143.99 164.021 143.99 160.571C143.99 157.121 141.64 153.871 137.39 151.411C128.5 146.281 114.05 146.281 105.16 151.411Z" fill="#140035"/>
<path d="M193.42 59.0214C193.42 46.9014 184.91 32.1714 174.42 26.1114C168.5 22.6914 163.21 22.7714 159.73 25.6614C159.63 25.6614 159.57 25.6614 159.57 25.6614C159.57 25.6614 155.87 27.6714 154.38 29.9114C153.58 31.1114 153.06 32.5514 152.5 34.1414C148.9 44.3514 141.1 52.5514 132.59 59.2614C130.84 60.4014 129.86 62.7014 130.07 65.8814C130.48 72.1814 135.41 79.5614 141.07 82.3514C143.64 83.6214 145.93 83.7213 147.61 82.8713L147.65 82.8514C147.66 82.8514 167.71 72.9213 178.45 73.5813C181.7 73.7813 186.4 73.0614 189.04 70.5914C189.04 70.5914 189.06 70.5514 189.08 70.4914C191.8 68.2614 193.43 64.3414 193.43 59.0314L193.42 59.0214Z" fill="#8E58A2"/>
<path d="M145.15 83.6715C143.86 83.6715 142.43 83.3015 140.95 82.5715C135.22 79.7415 130.22 72.2615 129.81 65.8915C129.6 62.7215 130.54 60.2915 132.45 59.0515C142.69 50.9715 149.18 42.8015 152.26 34.0615C152.78 32.5715 153.32 31.0415 154.17 29.7715C155.68 27.5015 159.3 25.5215 159.45 25.4415L159.51 25.4115H159.65C163.36 22.4015 168.78 22.5815 174.55 25.9015C185.1 31.9915 193.68 46.8515 193.68 59.0215C193.68 64.1615 192.12 68.2815 189.29 70.6315L189.21 70.7615C186.45 73.3415 181.69 74.0215 178.44 73.8215C167.79 73.1715 147.97 82.9715 147.77 83.0715L147.55 83.1815C146.83 83.5015 146.03 83.6615 145.17 83.6615L145.15 83.6715ZM159.62 25.9115C159.14 26.1815 155.91 28.0415 154.58 30.0515C153.77 31.2715 153.24 32.7715 152.73 34.2315C149.62 43.0615 143.08 51.3115 132.74 59.4615C130.97 60.6115 130.12 62.8815 130.31 65.8715C130.72 72.0815 135.59 79.3815 141.17 82.1415C143.57 83.3215 145.81 83.5115 147.49 82.6615L147.71 82.5515C150.01 81.4315 168.39 72.7315 178.45 73.3515C181.83 73.5615 186.33 72.7515 188.81 70.4615L188.86 70.3515L188.91 70.3115C191.65 68.0615 193.17 64.0615 193.17 59.0415C193.17 47.0215 184.7 32.3615 174.29 26.3515C168.68 23.1115 163.42 22.9315 159.88 25.8715L159.81 25.9315H159.62V25.9115Z" fill="#140035"/>
<path d="M112.15 86.4915C113.51 87.4915 115.52 87.5515 117.83 86.4115C122.29 84.2115 126.17 78.4015 126.5 73.4315C126.66 70.9915 125.93 69.2215 124.62 68.2915L102.81 53.8115L89.43 71.3215L112.15 86.5015V86.4915Z" fill="#322C8D"/>
<path d="M53.45 58.0014C53.45 45.7014 62.08 30.7514 72.73 24.6014C78.74 21.1314 84.11 21.2114 87.64 24.1414C87.74 24.1414 87.81 24.1414 87.81 24.1414C87.81 24.1414 91.57 26.1814 93.08 28.4614C93.89 29.6814 94.42 31.1414 94.99 32.7614C98.64 43.1214 106.56 51.4414 115.19 58.2514C116.97 59.4114 117.96 61.7414 117.75 64.9714C117.33 71.3714 112.33 78.8514 106.58 81.6914C103.97 82.9814 101.65 83.0814 99.94 82.2214L99.9 82.2014C99.89 82.2014 79.54 72.1214 68.64 72.7914C65.34 72.9914 60.57 72.2614 57.89 69.7514C57.89 69.7514 57.87 69.7114 57.85 69.6514C55.09 67.3914 53.44 63.4114 53.44 58.0214L53.45 58.0014Z" fill="#8E58A2"/>
<path d="M102.44 83.0115C101.57 83.0115 100.77 82.8515 100.05 82.5215V82.5415L99.82 82.4215C99.6 82.3015 79.47 72.3515 68.67 73.0215C65.37 73.2215 60.53 72.5315 57.74 69.9215L57.66 69.7915C54.79 67.4015 53.2 63.2215 53.2 58.0115C53.2 45.6515 61.91 30.5715 72.61 24.3915C78.46 21.0115 83.97 20.8315 87.73 23.9015H87.87L87.93 23.9315C88.09 24.0115 91.76 26.0315 93.29 28.3315C94.15 29.6215 94.7 31.1815 95.23 32.6815C98.35 41.5515 104.94 49.8515 115.35 58.0615C117.27 59.3115 118.22 61.7715 118.01 64.9915C117.59 71.4615 112.52 79.0515 106.7 81.9115C105.2 82.6515 103.75 83.0215 102.44 83.0215V83.0115ZM99.91 81.9115L100.06 81.9815C101.76 82.8415 104.04 82.6615 106.48 81.4515C112.15 78.6515 117.1 71.2515 117.51 64.9415C117.71 61.9115 116.84 59.6115 115.06 58.4515C104.55 50.1715 97.91 41.7915 94.76 32.8315C94.24 31.3515 93.7 29.8215 92.88 28.5915C91.52 26.5415 88.24 24.6615 87.76 24.3915H87.57L87.5 24.3415C83.9 21.3615 78.57 21.5315 72.87 24.8215C62.31 30.9215 53.71 45.8115 53.71 58.0115C53.71 63.1015 55.24 67.1615 58.03 69.4515L58.12 69.6015C60.64 71.9215 65.21 72.7415 68.64 72.5315C79.02 71.9015 98.17 81.0515 99.91 81.9115Z" fill="#140035"/>
<path d="M137.75 52.4114H105.64V155.441C105.61 156.651 105.61 157.851 105.64 159.061C105.71 161.371 107.28 163.671 110.33 165.441C116.59 169.061 126.75 169.061 133.02 165.441C136.08 163.681 137.64 161.371 137.71 159.061C137.73 158.371 137.74 157.691 137.74 157.001V52.4114H137.75Z" fill="white"/>
<path d="M121.69 168.391C117.54 168.391 113.38 167.481 110.22 165.651C107.19 163.901 105.48 161.561 105.4 159.061C105.36 157.901 105.36 156.681 105.4 155.431V52.1514H138.02V157.251C138.02 157.851 138.01 158.461 137.99 159.061C137.91 161.561 136.2 163.901 133.17 165.651C130.01 167.481 125.85 168.391 121.7 168.391H121.69ZM105.91 52.6614V155.431C105.88 156.681 105.88 157.891 105.91 159.041C105.98 161.361 107.6 163.541 110.48 165.201C116.66 168.771 126.73 168.771 132.91 165.201C135.78 163.541 137.4 161.351 137.48 159.041C137.5 158.361 137.51 157.671 137.51 156.991V156.731V52.6614H105.91Z" fill="#140035"/>
<path d="M110.34 45.8615C104.08 49.4815 104.08 55.3415 110.34 58.9615C116.6 62.5815 126.76 62.5815 133.03 58.9615C139.29 55.3415 139.29 49.4815 133.03 45.8615C126.76 42.2415 116.61 42.2415 110.34 45.8615Z" fill="#8E58A2"/>
<path d="M121.69 61.9116C117.54 61.9116 113.38 61.0016 110.22 59.1716C107.11 57.3716 105.4 54.9716 105.4 52.4116C105.4 49.8516 107.11 47.4416 110.22 45.6516C116.54 42.0016 126.83 42.0016 133.15 45.6516C136.26 47.4416 137.97 49.8516 137.97 52.4116C137.97 54.9716 136.26 57.3816 133.15 59.1716C129.99 61.0016 125.84 61.9116 121.68 61.9116H121.69ZM121.69 43.4016C117.63 43.4016 113.56 44.2916 110.47 46.0816C107.52 47.7816 105.9 50.0316 105.9 52.4116C105.9 54.7916 107.52 57.0416 110.47 58.7416C116.66 62.3116 126.72 62.3116 132.91 58.7416C135.86 57.0416 137.48 54.7916 137.48 52.4116C137.48 50.0316 135.85 47.7816 132.91 46.0816C129.82 44.3016 125.75 43.4016 121.69 43.4016Z" fill="#140035"/>
<path d="M111.63 46.1014C106.08 49.3114 106.08 54.5014 111.63 57.7114C117.18 60.9214 126.18 60.9214 131.73 57.7114C137.28 54.5014 137.28 49.3114 131.73 46.1014C126.18 42.9014 117.18 42.9014 111.63 46.1014Z" fill="#140035"/>
<path d="M105.31 79.1115C106.79 78.1615 108.87 78.2415 111.18 79.5815C115.65 82.1615 119.27 88.4415 119.27 93.6015C119.27 96.1315 118.39 97.9215 116.98 98.7915L93.42 112.302L80.76 93.2815L105.3 79.1115H105.31Z" fill="#140035"/>
<path d="M59.37 90.3714C70.6 91.8014 92.34 82.7514 92.36 82.7414L92.4 82.7214C94.23 81.9414 96.62 82.2114 99.24 83.7214C105 87.0514 109.67 95.1314 109.67 101.781C109.67 105.141 108.48 107.481 106.56 108.561C97.16 115.021 88.4 123.101 83.93 133.581C83.23 135.221 82.59 136.691 81.66 137.901C79.94 140.151 75.91 142.011 75.91 142.011C75.91 142.011 69.14 141.331 64.81 138.831C53.76 132.451 44.81 116.941 44.81 104.191C44.81 99.2014 48.05 92.7914 48.05 92.7914C50.99 90.3814 55.98 89.9414 59.38 90.3714H59.37Z" fill="#8E58A2"/>
<path d="M75.95 142.251H75.88C75.81 142.241 69.01 141.541 64.68 139.031C53.58 132.621 44.56 116.991 44.56 104.171C44.56 99.1814 47.69 92.9314 47.83 92.6614L47.89 92.5814C50.96 90.0614 56.01 89.6814 59.41 90.1114C70.57 91.5314 92.05 82.5914 92.27 82.5014L92.48 82.4114C94.42 81.6714 96.86 82.0514 99.36 83.4914C105.18 86.8514 109.91 95.0514 109.91 101.761C109.91 105.101 108.76 107.581 106.68 108.751C95.36 116.531 87.99 124.681 84.15 133.651C83.5 135.181 82.82 136.761 81.85 138.021C80.11 140.301 76.18 142.131 76.01 142.201L75.95 142.231V142.251ZM48.24 92.9414C47.95 93.5314 45.05 99.5214 45.05 104.181C45.05 116.841 53.97 132.281 64.93 138.611C68.94 140.931 75.15 141.671 75.87 141.751C76.38 141.511 79.91 139.771 81.46 137.741C82.39 136.521 83.06 134.971 83.7 133.471C87.57 124.411 95 116.201 106.42 108.351C108.36 107.261 109.42 104.931 109.42 101.781C109.42 95.2214 104.8 87.2214 99.12 83.9414C96.68 82.5314 94.33 82.1814 92.5 82.9614L92.28 83.0514C89.93 84.0214 70.07 91.9814 59.34 90.6214C55.8 90.1714 51.01 90.7214 48.24 92.9514V92.9414Z" fill="#140035"/>
<path d="M61.8 94.3916C50.75 88.0116 41.8 93.1816 41.8 105.942C41.8 118.702 50.75 134.202 61.8 140.582C72.85 146.962 81.8 141.792 81.8 129.032C81.8 116.272 72.85 100.772 61.8 94.3916Z" fill="white"/>
<path d="M70.73 143.442C67.97 143.442 64.91 142.522 61.74 140.682C50.68 134.292 41.68 118.712 41.68 105.932C41.68 99.7216 43.78 95.0815 47.6 92.8715C51.42 90.6715 56.49 91.1715 61.87 94.2715C72.93 100.662 81.93 116.252 81.93 129.022C81.93 135.232 79.83 139.872 76.01 142.082C74.44 142.992 72.66 143.432 70.74 143.432L70.73 143.442ZM52.87 91.7715C50.99 91.7715 49.25 92.2115 47.72 93.0915C43.98 95.2515 41.92 99.8116 41.92 105.932C41.92 118.622 50.86 134.122 61.86 140.462C67.16 143.522 72.14 144.022 75.88 141.862C79.62 139.702 81.68 135.142 81.68 129.022C81.68 116.322 72.73 100.832 61.74 94.4916C58.61 92.6816 55.59 91.7715 52.87 91.7715Z" fill="#140035"/>
<path d="M54.46 95.3813C56.54 95.3813 58.93 96.1314 61.38 97.5414C64.48 99.3314 67.39 101.971 69.89 105.101C72.42 108.261 74.53 111.921 76.01 115.701C77.47 119.431 78.31 123.281 78.31 126.861C78.31 133.491 75.44 137.461 70.62 137.461C68.54 137.461 66.15 136.711 63.7 135.301C54.37 129.911 46.78 116.761 46.78 105.981C46.78 99.3513 49.65 95.3813 54.47 95.3813H54.46Z" fill="#8E58A2"/>
<path d="M70.62 137.711C68.51 137.711 66.07 136.951 63.57 135.521C54.17 130.091 46.52 116.851 46.52 105.991C46.52 99.2014 49.49 95.1514 54.46 95.1514C56.58 95.1514 59.01 95.9114 61.5 97.3414C64.52 99.0814 67.48 101.721 70.08 104.971C72.63 108.161 74.76 111.851 76.24 115.631C77.76 119.501 78.56 123.391 78.56 126.881C78.56 133.671 75.59 137.721 70.62 137.721V137.711ZM54.47 95.6414C49.81 95.6414 47.03 99.5114 47.03 105.991C47.03 116.691 54.57 129.741 63.83 135.091C66.25 136.481 68.6 137.221 70.63 137.221C75.29 137.221 78.07 133.351 78.07 126.871C78.07 123.441 77.28 119.611 75.79 115.811C74.33 112.071 72.23 108.431 69.71 105.281C67.15 102.081 64.24 99.4914 61.27 97.7814C58.86 96.3914 56.51 95.6514 54.48 95.6514L54.47 95.6414Z" fill="#140035"/>
<path d="M57.39 97.6814C59.19 97.6814 61.25 98.3314 63.37 99.5514C66.05 101.101 68.56 103.381 70.72 106.091C72.9 108.831 74.73 111.991 76.01 115.251C77.27 118.481 78 121.801 78 124.891C78 130.631 75.52 134.051 71.35 134.051C69.55 134.051 67.49 133.401 65.37 132.181C57.31 127.531 50.74 116.161 50.74 106.841C50.74 101.111 53.22 97.6814 57.39 97.6814Z" fill="white"/>
<path d="M71.35 134.182C69.54 134.182 67.45 133.532 65.3 132.292C57.2 127.622 50.61 116.202 50.61 106.852C50.61 101.042 53.14 97.5715 57.38 97.5715C59.19 97.5715 61.28 98.2215 63.42 99.4615C66.02 100.962 68.57 103.232 70.81 106.032C73.01 108.782 74.84 111.962 76.12 115.222C77.43 118.552 78.12 121.902 78.12 124.902C78.12 130.712 75.59 134.182 71.35 134.182ZM57.39 97.8115C53.31 97.8115 50.87 101.192 50.87 106.842C50.87 116.122 57.4 127.432 65.43 132.072C67.54 133.282 69.58 133.922 71.35 133.922C75.43 133.922 77.87 130.542 77.87 124.892C77.87 121.922 77.18 118.602 75.89 115.302C74.62 112.062 72.8 108.902 70.62 106.172C68.4 103.392 65.87 101.142 63.3 99.6615C61.2 98.4515 59.15 97.8115 57.38 97.8115H57.39Z" fill="#140035"/>
<path d="M60.14 99.8616C61.63 99.8616 63.35 100.402 65.1 101.412C67.32 102.692 69.41 104.592 71.2 106.832C73.01 109.102 74.53 111.722 75.59 114.422C76.64 117.092 77.24 119.852 77.24 122.422C77.24 127.172 75.18 130.012 71.73 130.012C70.24 130.012 68.53 129.472 66.77 128.462C60.08 124.602 54.64 115.182 54.64 107.452C54.64 102.702 56.7 99.8616 60.15 99.8616H60.14Z" fill="#8E58A2"/>
<path d="M71.72 130.262C70.19 130.262 68.43 129.712 66.63 128.682C59.87 124.782 54.38 115.262 54.38 107.452C54.38 102.542 56.53 99.6116 60.14 99.6116C61.67 99.6116 63.43 100.162 65.22 101.192C67.39 102.442 69.52 104.342 71.39 106.672C73.22 108.962 74.75 111.612 75.81 114.332C76.9 117.112 77.48 119.912 77.48 122.422C77.48 127.332 75.33 130.262 71.72 130.262ZM60.14 100.112C56.84 100.112 54.88 102.852 54.88 107.452C54.88 115.102 60.26 124.432 66.88 128.252C68.6 129.242 70.28 129.772 71.72 129.772C75.02 129.772 76.98 127.022 76.98 122.422C76.98 119.972 76.41 117.242 75.35 114.522C74.3 111.852 72.8 109.242 71 106.992C69.17 104.702 67.09 102.852 64.97 101.632C63.25 100.642 61.58 100.112 60.14 100.112Z" fill="#140035"/>
<path d="M63.27 102.421C64.44 102.421 65.79 102.841 67.16 103.641C68.91 104.651 70.54 106.141 71.95 107.901C73.37 109.681 74.56 111.741 75.39 113.861C76.21 115.961 76.69 118.121 76.69 120.141C76.69 123.871 75.07 126.111 72.36 126.111C71.19 126.111 69.84 125.691 68.46 124.891C63.21 121.861 58.93 114.461 58.93 108.381C58.93 104.651 60.55 102.421 63.26 102.421H63.27Z" fill="white"/>
<path d="M72.36 126.232C71.17 126.232 69.8 125.801 68.4 125.001C63.11 121.951 58.81 114.492 58.81 108.382C58.81 104.572 60.47 102.292 63.26 102.292C64.45 102.292 65.81 102.722 67.22 103.532C68.92 104.512 70.59 105.992 72.04 107.822C73.47 109.612 74.67 111.692 75.5 113.822C76.35 115.992 76.8 118.182 76.8 120.142C76.8 123.952 75.14 126.232 72.34 126.232H72.36ZM63.27 102.542C60.64 102.542 59.06 104.722 59.06 108.382C59.06 114.412 63.31 121.771 68.53 124.781C69.9 125.561 71.22 125.982 72.37 125.982C75 125.982 76.58 123.802 76.58 120.142C76.58 118.212 76.13 116.052 75.29 113.902C74.47 111.802 73.28 109.742 71.86 107.972C70.42 106.172 68.78 104.702 67.11 103.742C65.75 102.952 64.42 102.542 63.28 102.542H63.27Z" fill="#140035"/>
<path d="M66.62 105.201C67.42 105.201 68.34 105.491 69.28 106.031C70.47 106.721 71.59 107.741 72.56 108.941C73.53 110.161 74.35 111.571 74.92 113.021C75.49 114.461 75.81 115.941 75.81 117.321C75.81 119.871 74.7 121.401 72.85 121.401C72.05 121.401 71.13 121.111 70.18 120.571C66.59 118.501 63.66 113.431 63.66 109.281C63.66 106.731 64.77 105.201 66.62 105.201Z" fill="#8E58A2"/>
<path d="M72.84 121.651C72 121.651 71.03 121.351 70.05 120.781C66.39 118.671 63.41 113.511 63.41 109.271C63.41 106.561 64.61 104.941 66.62 104.941C67.46 104.941 68.43 105.241 69.41 105.811C70.59 106.491 71.75 107.521 72.76 108.781C73.75 110.021 74.58 111.451 75.15 112.931C75.74 114.441 76.05 115.951 76.05 117.321C76.05 120.031 74.85 121.651 72.84 121.651ZM66.62 105.441C64.92 105.441 63.91 106.871 63.91 109.271C63.91 113.351 66.78 118.311 70.3 120.351C71.21 120.871 72.09 121.151 72.84 121.151C74.54 121.151 75.55 119.721 75.55 117.321C75.55 116.021 75.25 114.561 74.68 113.111C74.12 111.681 73.32 110.291 72.36 109.091C71.39 107.871 70.28 106.881 69.15 106.241C68.24 105.721 67.37 105.441 66.61 105.441H66.62Z" fill="#140035"/>
<path d="M71.67 115.191L62.18 107.941C61.94 107.761 61.66 107.751 61.43 107.851L61.4 107.861C61.4 107.861 61.38 107.871 61.37 107.881L60.16 108.581L60.73 123.291L62.11 122.511C62.11 122.511 62.11 122.511 62.12 122.511L71.61 116.421C72.05 116.141 72.07 115.511 71.66 115.191H71.67Z" fill="#140035"/>
<path d="M59.62 109.311V122.651C59.62 123.241 60.28 123.601 60.77 123.281L70.26 117.191C70.7 116.911 70.72 116.281 70.31 115.961L60.82 108.711C60.33 108.331 59.62 108.681 59.62 109.311Z" fill="white"/>
<path d="M60.37 123.521C60.23 123.521 60.08 123.481 59.95 123.411C59.67 123.251 59.5 122.971 59.5 122.641V109.301C59.5 108.971 59.69 108.661 59.99 108.511C60.29 108.361 60.64 108.401 60.91 108.601L70.4 115.851C70.63 116.031 70.75 116.291 70.74 116.581C70.73 116.871 70.58 117.131 70.34 117.281L60.85 123.371C60.7 123.461 60.54 123.511 60.38 123.511L60.37 123.521ZM60.37 108.681C60.28 108.681 60.18 108.701 60.09 108.751C59.87 108.861 59.74 109.071 59.74 109.311V122.651C59.74 122.881 59.86 123.091 60.06 123.201C60.26 123.311 60.5 123.301 60.7 123.181L70.19 117.091C70.36 116.981 70.47 116.801 70.48 116.591C70.48 116.381 70.4 116.191 70.24 116.071L60.75 108.821C60.64 108.731 60.5 108.691 60.37 108.691V108.681Z" fill="#140035"/>
<path d="M138.09 79.1115C136.61 78.1615 134.53 78.2415 132.22 79.5815C127.75 82.1615 124.13 88.4415 124.13 93.6015C124.13 96.1315 125.01 97.9215 126.42 98.7915L149.98 112.302L162.64 93.2815L138.1 79.1115H138.09Z" fill="#140035"/>
<path d="M184.03 90.3714C172.8 91.8014 151.06 82.7514 151.04 82.7414L151 82.7214C149.17 81.9414 146.78 82.2114 144.16 83.7214C138.4 87.0514 133.73 95.1314 133.73 101.781C133.73 105.141 134.92 107.481 136.84 108.561C146.24 115.021 154.99 123.101 159.47 133.581C160.17 135.221 160.81 136.691 161.74 137.901C163.46 140.151 167.49 142.011 167.49 142.011C167.49 142.011 174.26 141.331 178.59 138.831C189.64 132.451 198.59 116.941 198.59 104.191C198.59 99.2014 195.35 92.7914 195.35 92.7914C192.41 90.3814 187.42 89.9414 184.02 90.3714H184.03Z" fill="#8E58A2"/>
<path d="M167.45 142.251L167.39 142.221C167.22 142.141 163.29 140.311 161.55 138.041C160.58 136.771 159.91 135.191 159.25 133.671C155.42 124.701 148.04 116.561 136.7 108.761C134.63 107.601 133.49 105.121 133.49 101.781C133.49 95.0614 138.22 86.8714 144.04 83.5114C146.53 82.0814 148.95 81.6914 150.88 82.4214V82.4014L151.11 82.5014C151.35 82.6014 172.84 91.5414 183.99 90.1214C187.38 89.6914 192.44 90.0814 195.51 92.5914L195.57 92.6714C195.7 92.9414 198.84 99.1914 198.84 104.181C198.84 116.991 189.81 132.631 178.71 139.041C174.38 141.541 167.58 142.241 167.51 142.251H167.44H167.45ZM148.82 82.5414C147.43 82.5414 145.88 83.0114 144.29 83.9314C138.61 87.2114 133.99 95.2114 133.99 101.771C133.99 104.921 135.05 107.251 136.97 108.331C148.41 116.191 155.84 124.411 159.71 133.461C160.35 134.961 161.01 136.511 161.95 137.731C163.5 139.761 167.03 141.491 167.54 141.741C168.26 141.661 174.47 140.921 178.48 138.601C189.44 132.271 198.36 116.831 198.36 104.171C198.36 99.5114 195.46 93.5214 195.17 92.9314C192.41 90.7014 187.61 90.1514 184.07 90.6014C173.12 91.9914 152.67 83.6814 151.04 82.9914L150.91 82.9414C150.27 82.6714 149.57 82.5314 148.83 82.5314L148.82 82.5414Z" fill="#140035"/>
<path d="M181.6 94.3915C170.55 100.771 161.6 116.281 161.6 129.031C161.6 141.781 170.55 146.961 181.6 140.581C192.65 134.201 201.6 118.691 201.6 105.941C201.6 93.1915 192.65 88.0115 181.6 94.3915Z" fill="white"/>
<path d="M172.67 143.441C170.74 143.441 168.97 142.991 167.4 142.091C163.58 139.891 161.48 135.251 161.48 129.031C161.48 116.261 170.48 100.671 181.54 94.2814C186.92 91.1714 191.99 90.6814 195.81 92.8814C199.63 95.0914 201.73 99.7214 201.73 105.941C201.73 118.711 192.73 134.301 181.67 140.691C178.5 142.521 175.44 143.451 172.67 143.451V143.441ZM190.53 91.7714C187.81 91.7714 184.79 92.6814 181.66 94.4914C170.67 100.841 161.72 116.331 161.72 129.021C161.72 135.141 163.78 139.701 167.51 141.861C171.25 144.021 176.23 143.521 181.53 140.461C192.52 134.111 201.47 118.621 201.47 105.931C201.47 99.8114 199.41 95.2514 195.67 93.0914C194.14 92.2114 192.4 91.7714 190.52 91.7714H190.53Z" fill="#140035"/>
<path d="M188.93 95.3813C186.85 95.3813 184.46 96.1314 182.01 97.5414C178.91 99.3314 176 101.971 173.5 105.101C170.97 108.261 168.86 111.921 167.38 115.701C165.92 119.431 165.08 123.281 165.08 126.861C165.08 133.491 167.95 137.461 172.77 137.461C174.85 137.461 177.24 136.711 179.69 135.301C189.02 129.911 196.61 116.761 196.61 105.981C196.61 99.3513 193.74 95.3813 188.92 95.3813H188.93Z" fill="#8E58A2"/>
<path d="M172.78 137.711C167.81 137.711 164.84 133.661 164.84 126.871C164.84 123.381 165.64 119.491 167.16 115.621C168.64 111.841 170.77 108.151 173.32 104.961C175.92 101.711 178.88 99.0714 181.9 97.3314C184.39 95.8914 186.82 95.1414 188.94 95.1414C193.91 95.1414 196.88 99.1914 196.88 105.981C196.88 116.841 189.23 130.081 179.83 135.511C177.33 136.951 174.9 137.701 172.78 137.701V137.711ZM188.93 95.6414C186.9 95.6414 184.55 96.3814 182.14 97.7714C179.18 99.4814 176.26 102.071 173.7 105.271C171.18 108.421 169.08 112.061 167.62 115.801C166.12 119.611 165.33 123.441 165.33 126.871C165.33 133.351 168.11 137.221 172.77 137.221C174.79 137.221 177.15 136.481 179.57 135.091C188.83 129.741 196.37 116.691 196.37 105.991C196.37 99.5114 193.59 95.6414 188.93 95.6414Z" fill="#140035"/>
<path d="M186.01 97.6814C184.21 97.6814 182.15 98.3314 180.03 99.5514C177.35 101.101 174.84 103.381 172.68 106.091C170.5 108.831 168.67 111.991 167.39 115.251C166.13 118.481 165.4 121.801 165.4 124.891C165.4 130.631 167.88 134.051 172.05 134.051C173.85 134.051 175.91 133.401 178.03 132.181C186.09 127.531 192.66 116.161 192.66 106.841C192.66 101.111 190.17 97.6814 186.01 97.6814Z" fill="white"/>
<path d="M172.05 134.182C167.81 134.182 165.28 130.712 165.28 124.902C165.28 121.902 165.97 118.552 167.28 115.222C168.56 111.962 170.39 108.782 172.59 106.032C174.83 103.232 177.38 100.962 179.98 99.4615C182.12 98.2315 184.21 97.5715 186.02 97.5715C190.26 97.5715 192.79 101.042 192.79 106.852C192.79 116.212 186.2 127.622 178.1 132.292C175.96 133.532 173.87 134.182 172.05 134.182ZM186.01 97.8115C184.24 97.8115 182.2 98.4515 180.1 99.6615C177.53 101.142 175 103.392 172.78 106.172C170.6 108.902 168.78 112.062 167.51 115.302C166.21 118.612 165.53 121.922 165.53 124.892C165.53 130.552 167.97 133.922 172.05 133.922C173.82 133.922 175.87 133.282 177.97 132.072C186 127.432 192.53 116.122 192.53 106.842C192.53 101.182 190.09 97.8115 186.01 97.8115Z" fill="#140035"/>
<path d="M183.26 99.8616C181.77 99.8616 180.06 100.402 178.3 101.412C176.08 102.692 173.99 104.592 172.2 106.832C170.39 109.102 168.87 111.722 167.81 114.422C166.76 117.092 166.16 119.852 166.16 122.422C166.16 127.172 168.22 130.012 171.67 130.012C173.16 130.012 174.87 129.472 176.63 128.462C183.31 124.602 188.76 115.182 188.76 107.452C188.76 102.702 186.7 99.8616 183.25 99.8616H183.26Z" fill="#8E58A2"/>
<path d="M171.68 130.262C168.07 130.262 165.92 127.332 165.92 122.422C165.92 119.912 166.5 117.122 167.59 114.332C168.65 111.612 170.18 108.962 172.01 106.672C173.88 104.332 176.01 102.442 178.18 101.192C179.98 100.152 181.73 99.6116 183.26 99.6116C186.87 99.6116 189.02 102.542 189.02 107.452C189.02 115.252 183.52 124.782 176.77 128.682C174.97 129.722 173.21 130.262 171.68 130.262ZM183.26 100.112C181.82 100.112 180.15 100.632 178.43 101.632C176.31 102.852 174.23 104.702 172.4 106.992C170.6 109.242 169.1 111.842 168.05 114.522C166.98 117.252 166.42 119.982 166.42 122.432C166.42 127.032 168.39 129.782 171.68 129.782C173.12 129.782 174.79 129.252 176.52 128.262C183.14 124.442 188.52 115.112 188.52 107.462C188.52 102.862 186.55 100.122 183.26 100.122V100.112Z" fill="#140035"/>
<path d="M180.13 102.421C178.96 102.421 177.61 102.841 176.24 103.641C174.49 104.651 172.86 106.141 171.45 107.901C170.03 109.681 168.84 111.741 168.01 113.861C167.19 115.961 166.71 118.121 166.71 120.141C166.71 123.871 168.33 126.111 171.04 126.111C172.21 126.111 173.56 125.691 174.94 124.891C180.19 121.861 184.47 114.461 184.47 108.381C184.47 104.651 182.85 102.421 180.14 102.421H180.13Z" fill="white"/>
<path d="M171.04 126.232C168.25 126.232 166.58 123.952 166.58 120.142C166.58 118.182 167.03 115.992 167.89 113.822C168.72 111.692 169.92 109.622 171.35 107.822C172.81 105.992 174.48 104.512 176.17 103.532C177.57 102.722 178.94 102.292 180.13 102.292C182.92 102.292 184.59 104.572 184.59 108.382C184.59 114.492 180.29 121.941 175 125.001C173.6 125.801 172.23 126.232 171.04 126.232ZM180.13 102.542C178.99 102.542 177.66 102.952 176.3 103.742C174.63 104.702 172.98 106.172 171.55 107.972C170.13 109.742 168.95 111.802 168.12 113.902C167.28 116.052 166.83 118.212 166.83 120.142C166.83 123.802 168.4 125.982 171.04 125.982C172.18 125.982 173.51 125.561 174.88 124.781C180.1 121.761 184.35 114.412 184.35 108.382C184.35 104.722 182.78 102.542 180.14 102.542H180.13Z" fill="#140035"/>
<path d="M176.78 105.201C175.98 105.201 175.06 105.491 174.12 106.031C172.93 106.721 171.81 107.741 170.84 108.941C169.87 110.161 169.05 111.571 168.48 113.021C167.91 114.461 167.59 115.941 167.59 117.321C167.59 119.871 168.7 121.401 170.55 121.401C171.35 121.401 172.27 121.111 173.22 120.571C176.81 118.501 179.74 113.431 179.74 109.281C179.74 106.731 178.63 105.201 176.78 105.201Z" fill="#8E58A2"/>
<path d="M170.55 121.651C168.54 121.651 167.34 120.031 167.34 117.321C167.34 115.951 167.65 114.441 168.24 112.931C168.82 111.461 169.64 110.021 170.63 108.781C171.64 107.511 172.8 106.481 173.98 105.811C174.96 105.241 175.93 104.941 176.77 104.941C178.78 104.941 179.98 106.561 179.98 109.271C179.98 113.501 177 118.661 173.34 120.781C172.35 121.351 171.39 121.651 170.55 121.651ZM176.77 105.441C176.01 105.441 175.14 105.721 174.23 106.241C173.11 106.891 172 107.871 171.02 109.091C170.06 110.291 169.26 111.681 168.7 113.111C168.13 114.561 167.83 116.011 167.83 117.321C167.83 119.721 168.84 121.151 170.54 121.151C171.29 121.151 172.17 120.871 173.08 120.351C176.61 118.321 179.47 113.351 179.47 109.271C179.47 106.871 178.46 105.441 176.76 105.441H176.77Z" fill="#140035"/>
<path d="M171.72 115.191L181.21 107.941C181.45 107.761 181.73 107.751 181.96 107.851L181.99 107.861C181.99 107.861 182.01 107.871 182.02 107.881L183.23 108.581L182.65 123.291L181.27 122.511C181.27 122.511 181.27 122.511 181.26 122.511L171.77 116.421C171.33 116.141 171.31 115.511 171.72 115.191Z" fill="#140035"/>
<path d="M183.78 109.311V122.651C183.78 123.241 183.12 123.601 182.63 123.281L173.14 117.191C172.7 116.911 172.68 116.281 173.09 115.961L182.58 108.711C183.07 108.331 183.78 108.681 183.78 109.311Z" fill="white"/>
<path d="M183.03 123.521C182.87 123.521 182.7 123.471 182.56 123.381L173.07 117.291C172.82 117.131 172.68 116.881 172.67 116.591C172.66 116.301 172.78 116.041 173.01 115.861L182.5 108.611C182.77 108.411 183.12 108.371 183.42 108.521C183.72 108.671 183.91 108.971 183.91 109.311V122.651C183.91 122.971 183.74 123.261 183.45 123.421C183.32 123.491 183.17 123.531 183.03 123.531V123.521ZM183.03 108.681C182.9 108.681 182.77 108.721 182.65 108.811L173.16 116.061C173 116.191 172.91 116.381 172.91 116.581C172.91 116.791 173.02 116.971 173.2 117.081L182.69 123.171C182.88 123.301 183.12 123.301 183.33 123.191C183.53 123.081 183.66 122.871 183.66 122.641V109.301C183.66 109.061 183.53 108.851 183.31 108.741C183.22 108.701 183.12 108.671 183.03 108.671V108.681Z" fill="#140035"/>
<path d="M122.91 28.0815C120.66 26.9015 118.82 27.0515 117.48 28.1515L116.01 28.9415L117.19 32.0815L118.19 31.5815L119.09 33.3615C119.28 33.7315 119.6 33.8815 119.86 33.6815C120.77 32.9715 122.03 32.9015 123.54 33.7415C124.76 34.4115 125.96 35.5715 127.04 37.0115L126.79 37.4515L126.6 39.8115L128.71 38.5815C128.71 38.5815 128.77 38.5515 128.8 38.5315H128.83V38.5115C128.9 38.4615 128.96 38.4015 129.02 38.3115L129.91 37.0015C130.19 36.5915 130.22 35.9615 129.98 35.5515C127.93 32.1615 125.45 29.4215 122.92 28.0815H122.91Z" fill="#140035"/>
<path d="M137.25 24.6815C132.53 16.3215 126.57 9.78151 120.58 7.16151C117.03 5.60151 114.01 5.68151 111.63 6.99151L109.7 8.11151C109.7 8.11151 109.7 8.24151 109.72 8.45151C109.23 8.95151 108.76 9.51151 108.35 10.1415C108.05 10.6015 108.07 11.5515 108.36 12.1215L109.24 13.8615L108.52 14.1315L108.89 17.7715L111.02 16.5315C111.1 16.4915 111.17 16.4315 111.24 16.3415C113.44 13.3415 116.94 12.4015 121.39 14.4915C125.31 16.3415 129.2 20.1615 132.57 25.1115L132.18 25.8315L133.31 29.8515L135.42 28.6215C135.49 28.5915 135.56 28.5515 135.62 28.5015H135.64C135.73 28.4115 135.82 28.3315 135.89 28.2115L137.07 26.4815C137.44 25.9415 137.52 25.1515 137.24 24.6615L137.25 24.6815Z" fill="#140035"/>
<path d="M121.81 18.2114C118.91 16.8014 116.46 16.8314 114.57 17.9714L112.88 18.9614L112.99 19.3214C112.99 19.3214 112.97 19.3414 112.97 19.3514C112.65 19.7214 112.64 20.6014 112.91 21.1314L114.64 24.5514L113.54 24.7014L112.89 25.2614L113.42 26.5814L115.56 25.3414C115.61 25.3014 115.67 25.2714 115.71 25.2214C117.3 23.5514 119.63 23.1514 122.53 24.6414C124.99 25.9014 127.42 28.3014 129.56 31.3214C129.47 31.4914 129.39 31.6414 129.39 31.6814C129.39 31.7714 129.33 33.1014 129.35 33.1814C129.38 33.2614 129.76 35.1514 129.76 35.1514L131.89 33.9114C132.02 33.8414 132.14 33.7414 132.25 33.5914L133.31 32.0414C133.63 31.5714 133.68 30.8714 133.42 30.4314C130.1 24.7514 125.99 20.2514 121.82 18.2314L121.81 18.2114Z" fill="#140035"/>
<path d="M122.54 35.8616C122.22 35.8616 121.93 35.9416 121.66 36.1016L119.76 37.2316L120.18 38.4216C120.06 39.0016 120.03 39.6116 120.14 40.2016C120.35 41.3816 121 42.4316 121.83 43.1016L122.48 44.9516L124.77 43.6416C124.87 43.5916 124.97 43.5416 125.06 43.4716L125.1 43.4516C125.96 42.8416 126.41 41.6116 126.16 40.1916C125.8 38.1716 124.21 35.8516 122.55 35.8516L122.54 35.8616Z" fill="#140035"/>
<path d="M120.75 29.3215C123.28 30.6615 125.76 33.4115 127.81 36.7915C128.06 37.2015 128.02 37.8315 127.74 38.2415L126.85 39.5515C126.54 40.0015 126.05 39.9815 125.77 39.5515C124.47 37.5115 122.94 35.8515 121.37 34.9815C119.86 34.1515 118.6 34.2115 117.69 34.9215C117.43 35.1215 117.11 34.9715 116.92 34.6015L115.13 31.0615C114.86 30.5215 114.95 29.7015 115.31 29.3915C116.64 28.2915 118.49 28.1315 120.74 29.3215H120.75Z" fill="white"/>
<path d="M126.31 40.1415H126.3C126.01 40.1415 125.74 39.9715 125.56 39.6815C124.21 37.5515 122.72 36.0115 121.26 35.2015C119.92 34.4615 118.74 34.4315 117.86 35.1215C117.7 35.2515 117.5 35.2915 117.31 35.2515C117.06 35.2015 116.85 35.0115 116.7 34.7215L114.91 31.1815C114.58 30.5315 114.7 29.5815 115.16 29.2015C116.21 28.3315 118.05 27.6115 120.87 29.1015C123.32 30.3915 125.86 33.0815 128.03 36.6715C128.33 37.1615 128.29 37.9015 127.96 38.4015L127.07 39.7115C126.88 39.9915 126.6 40.1515 126.32 40.1515L126.31 40.1415ZM119.31 34.1215C119.99 34.1215 120.73 34.3315 121.5 34.7615C123.04 35.6115 124.59 37.2215 125.99 39.4115C126.08 39.5515 126.19 39.6315 126.31 39.6315C126.41 39.6215 126.55 39.5515 126.64 39.4115L127.53 38.1015C127.75 37.7715 127.78 37.2515 127.59 36.9315C125.47 33.4215 123 30.8015 120.63 29.5515C118.59 28.4815 116.82 28.4915 115.48 29.5915C115.23 29.8015 115.13 30.4815 115.36 30.9515L117.15 34.4915C117.24 34.6615 117.34 34.7415 117.41 34.7615C117.44 34.7615 117.48 34.7615 117.53 34.7315C118.04 34.3315 118.64 34.1315 119.3 34.1315L119.31 34.1215Z" fill="#140035"/>
<path d="M118.43 8.40135C124.42 11.0314 130.38 17.5714 135.1 25.9214C135.37 26.4014 135.3 27.2013 134.93 27.7414L133.75 29.4713C133.35 30.0513 132.76 30.0914 132.45 29.5714C128.67 23.0914 123.98 17.9813 119.25 15.7514C114.8 13.6514 111.3 14.6014 109.1 17.6014C108.84 17.9514 108.49 17.8914 108.26 17.4314L106.22 13.3713C105.93 12.8013 105.91 11.8413 106.21 11.3913C108.77 7.46135 112.97 6.01135 118.44 8.41135L118.43 8.40135Z" fill="white"/>
<path d="M133.01 30.1914H132.98C132.67 30.1814 132.4 30.0014 132.22 29.7014C128.3 22.9814 123.65 18.1114 119.13 15.9814C115.04 14.0614 111.55 14.6814 109.3 17.7514C109.13 17.9814 108.91 18.1014 108.67 18.0814C108.41 18.0614 108.18 17.8714 108.02 17.5414L105.98 13.4814C105.64 12.8114 105.64 11.7714 105.98 11.2414C108.79 6.93137 113.24 5.84137 118.53 8.16137C124.39 10.7314 130.35 16.9914 135.32 25.7914C135.64 26.3614 135.56 27.2514 135.14 27.8814L133.96 29.6114C133.71 29.9814 133.37 30.1914 133.02 30.1914H133.01ZM114.74 14.3614C116.16 14.3614 117.71 14.7414 119.35 15.5114C123.96 17.6814 128.69 22.6214 132.66 29.4314C132.72 29.5414 132.83 29.6614 132.99 29.6714C133.16 29.6714 133.36 29.5414 133.52 29.3214L134.7 27.5914C135.01 27.1314 135.08 26.4414 134.86 26.0514C130.02 17.4714 123.99 11.1214 118.31 8.63137C113.28 6.42137 109.05 7.45137 106.39 11.5214C106.15 11.8914 106.16 12.7514 106.42 13.2514L108.47 17.3114C108.56 17.4914 108.66 17.5614 108.71 17.5714C108.76 17.5714 108.82 17.5314 108.88 17.4514C110.38 15.4114 112.39 14.3714 114.73 14.3714L114.74 14.3614Z" fill="#140035"/>
<path d="M119.65 19.4515C123.82 21.4715 127.93 25.9815 131.25 31.6515C131.51 32.0915 131.46 32.8015 131.14 33.2715L130.08 34.8215C129.73 35.3315 129.19 35.3415 128.9 34.8615C126.43 30.7715 123.43 27.4515 120.36 25.8815C117.46 24.3915 115.13 24.7915 113.54 26.4615C113.27 26.7515 112.91 26.6815 112.69 26.2415L110.74 22.3715C110.47 21.8315 110.48 20.9615 110.8 20.5915C112.81 18.2315 115.84 17.6115 119.64 19.4615L119.65 19.4515Z" fill="white"/>
<path d="M129.46 35.4614H129.44C129.14 35.4614 128.87 35.2814 128.69 34.9814C126.12 30.7214 123.12 27.5714 120.26 26.1014C117.62 24.7414 115.36 24.9314 113.74 26.6314C113.56 26.8214 113.34 26.9014 113.11 26.8814C112.86 26.8414 112.63 26.6614 112.48 26.3514L110.53 22.4814C110.24 21.9014 110.21 20.9114 110.63 20.4214C112.82 17.8414 116.07 17.4214 119.78 19.2214C123.84 21.1914 128 25.5614 131.49 31.5214C131.8 32.0414 131.75 32.8514 131.37 33.4114L130.31 34.9614C130.09 35.2814 129.79 35.4614 129.47 35.4614H129.46ZM117 24.7014C118.08 24.7014 119.25 25.0114 120.48 25.6514C123.43 27.1714 126.5 30.3914 129.12 34.7314C129.21 34.8714 129.32 34.9614 129.44 34.9614C129.56 34.9614 129.74 34.8614 129.86 34.6814L130.91 33.1314C131.18 32.7414 131.22 32.1414 131.01 31.7914C127.57 25.9114 123.49 21.6114 119.52 19.6914C115.99 17.9714 113.04 18.3414 110.99 20.7614C110.75 21.0414 110.73 21.8014 110.96 22.2614L112.91 26.1214C112.98 26.2714 113.08 26.3614 113.16 26.3714C113.24 26.3914 113.3 26.3314 113.34 26.2814C114.34 25.2314 115.58 24.7014 116.98 24.7014H117Z" fill="#140035"/>
<path d="M124 41.4516C124.36 43.4716 123.3 45.1116 121.64 45.1116C119.98 45.1116 118.34 43.4716 117.99 41.4516C117.63 39.4316 118.74 37.1116 120.4 37.1116C122.06 37.1116 123.65 39.4316 124.01 41.4516H124Z" fill="white"/>
<path d="M121.63 45.3716C119.85 45.3716 118.1 43.6316 117.72 41.5016C117.48 40.1616 117.84 38.6916 118.63 37.7616C119.12 37.1716 119.73 36.8616 120.38 36.8616C122.18 36.8616 123.86 39.2616 124.24 41.4116C124.45 42.5916 124.2 43.7116 123.57 44.4716C123.08 45.0516 122.39 45.3816 121.63 45.3816V45.3716ZM120.38 37.3716C119.75 37.3716 119.29 37.7616 119.02 38.0816C118.34 38.8916 118.02 40.2316 118.23 41.4116C118.57 43.3116 120.09 44.8616 121.63 44.8616C122.25 44.8616 122.79 44.6116 123.18 44.1416C123.72 43.5016 123.92 42.5416 123.74 41.5016C123.4 39.5516 121.89 37.3716 120.38 37.3716Z" fill="#140035"/>
<path d="M164.87 153.461C158.84 154.731 159.95 158.981 161.33 160.371C162.67 161.711 164.72 161.631 165.64 160.961C168.43 158.941 166.49 153.681 169.28 150.761C166.45 151.091 167.33 152.951 164.86 153.471L164.87 153.461Z" fill="#131A2D"/>
<path d="M152.43 151.121C155.12 152.571 154.84 155.001 154.82 155.881C154.78 157.731 155.85 160.451 158.12 161.171C164.13 163.081 161.65 151.751 152.43 151.121Z" fill="#131A2D"/>
<path d="M166.53 159.671C164.03 158.171 159.89 158.121 157.28 159.571C154.67 161.031 154.59 163.421 157.09 164.931C159.59 166.431 163.73 166.481 166.34 165.021C168.95 163.571 169.03 161.171 166.53 159.661V159.671Z" fill="#131A2D"/>
<path d="M166.19 160.241C165.07 159.571 163.48 159.181 161.83 159.181C160.18 159.181 158.74 159.531 157.6 160.161C156.55 160.751 155.94 161.521 155.93 162.291C155.92 163.041 156.45 163.781 157.43 164.371C158.55 165.051 160.14 165.431 161.79 165.431C163.44 165.431 164.88 165.081 166.01 164.451C167.06 163.861 167.67 163.091 167.68 162.321C167.69 161.571 167.16 160.831 166.18 160.241H166.19Z" fill="#8E58A2"/>
<path d="M161.79 165.522C160.13 165.522 158.52 165.132 157.38 164.442C156.37 163.832 155.82 163.062 155.83 162.282C155.84 161.482 156.47 160.672 157.55 160.062C158.7 159.422 160.21 159.072 161.82 159.072C163.43 159.072 165.09 159.462 166.23 160.152C167.24 160.762 167.79 161.522 167.78 162.312C167.77 163.122 167.14 163.922 166.06 164.532C164.91 165.172 163.4 165.522 161.79 165.522ZM161.83 159.272C160.25 159.272 158.77 159.612 157.65 160.242C156.63 160.812 156.04 161.562 156.03 162.292C156.02 163.002 156.54 163.712 157.48 164.282C158.59 164.952 160.16 165.332 161.79 165.332C163.42 165.332 164.85 164.992 165.97 164.362C166.99 163.792 167.58 163.052 167.59 162.312C167.6 161.602 167.09 160.892 166.14 160.322C165.03 159.662 163.46 159.272 161.83 159.272Z" fill="#131A2D"/>
<path d="M166.34 165.032C163.73 166.482 159.59 166.442 157.09 164.942C156.12 164.352 155.54 163.632 155.34 162.892C155.93 165.152 158.17 184.762 158.57 186.312C158.67 186.692 158.96 187.052 159.45 187.342C160.71 188.102 162.79 188.122 164.1 187.392C164.65 187.092 164.97 186.702 165.08 186.292L168.28 162.852C168.07 163.652 167.42 164.432 166.34 165.032Z" fill="white"/>
<path d="M161.83 188.111C160.93 188.111 160.03 187.911 159.36 187.501C158.84 187.191 158.5 186.792 158.39 186.352C158.2 185.632 157.66 181.332 157.02 176.342C156.3 170.632 155.47 164.152 155.15 162.932L155.54 162.831C155.73 163.551 156.3 164.222 157.2 164.762C159.64 166.232 163.7 166.272 166.25 164.852C167.26 164.292 167.9 163.582 168.1 162.792L168.49 162.872L165.29 186.312C165.16 186.812 164.79 187.231 164.21 187.551C163.54 187.921 162.68 188.111 161.83 188.111ZM155.79 164.102C156.19 166.562 156.84 171.671 157.42 176.301C158.03 181.061 158.6 185.562 158.78 186.262C158.87 186.602 159.14 186.921 159.57 187.171C160.77 187.891 162.77 187.912 164.02 187.212C164.5 186.942 164.81 186.602 164.9 186.242L167.93 163.992C167.57 164.442 167.07 164.862 166.44 165.212C163.78 166.692 159.55 166.651 156.99 165.111C156.49 164.811 156.09 164.471 155.78 164.111L155.79 164.102Z" fill="#131A2D"/>
<path d="M159.08 154.252C156.6 157.772 159.52 162.062 161.57 162.062C164.21 162.062 165.72 153.402 161.57 149.062C161.57 152.402 159.9 153.102 159.08 154.262V154.252Z" fill="#8E58A2"/>
<path d="M161.57 162.162C160.59 162.162 159.4 161.202 158.69 159.832C157.72 157.962 157.84 155.852 159 154.202C159.2 153.922 159.44 153.672 159.69 153.412C160.52 152.552 161.47 151.582 161.47 149.062V148.822L161.64 149.002C164.67 152.182 164.68 157.632 163.52 160.342C163.02 161.522 162.32 162.172 161.57 162.172V162.162ZM161.66 149.302C161.6 151.722 160.62 152.732 159.83 153.542C159.58 153.802 159.34 154.042 159.16 154.312C158.04 155.902 157.93 157.932 158.86 159.742C159.54 161.052 160.65 161.962 161.57 161.962C162.24 161.962 162.87 161.352 163.34 160.252C164.46 157.632 164.47 152.432 161.66 149.302Z" fill="#131A2D"/>
<path d="M169.02 156.562C163.59 155.282 160.26 156.422 161.24 160.222C161.72 162.092 164.27 162.622 165.59 162.552C166.91 162.492 172.17 161.072 173.85 155.822C173.26 155.992 171.14 157.062 169.02 156.562Z" fill="#8E58A2"/>
<path d="M165.36 162.651C163.88 162.651 161.61 162.031 161.15 160.241C160.79 158.861 160.98 157.791 161.7 157.051C162.89 155.841 165.49 155.631 169.04 156.461C170.78 156.871 172.55 156.201 173.4 155.871C173.58 155.801 173.72 155.751 173.83 155.721L174 155.671L173.94 155.841C172.24 161.181 166.84 162.581 165.59 162.641C165.51 162.641 165.43 162.641 165.35 162.641L165.36 162.651ZM165.23 156.151C163.67 156.151 162.51 156.501 161.84 157.181C161.17 157.871 161 158.881 161.34 160.191C161.82 162.031 164.42 162.511 165.59 162.451C166.79 162.391 171.97 161.051 173.7 155.971C173.63 155.991 173.56 156.021 173.47 156.061C172.6 156.391 170.79 157.081 169 156.651C167.58 156.311 166.31 156.151 165.23 156.151Z" fill="#131A2D"/>
<path d="M157.18 157.912C152.24 156.572 147.75 159.262 147.15 159.012C147.74 159.162 151.27 161.482 152.59 161.982C155.2 162.972 160.04 163.272 160.82 161.532C161.35 160.352 158.46 158.262 157.18 157.922V157.912Z" fill="#8E58A2"/>
<path d="M157.22 162.882C155.63 162.882 153.85 162.572 152.55 162.072C151.83 161.792 150.46 160.992 149.25 160.282C148.33 159.742 147.45 159.222 147.15 159.122C147.13 159.122 147.12 159.122 147.1 159.102L147.16 158.922C147.16 158.922 147.19 158.922 147.2 158.932C147.37 158.962 147.87 158.792 148.45 158.592C150.25 157.982 153.61 156.842 157.19 157.812C158.23 158.092 160.26 159.472 160.82 160.642C160.99 160.992 161.01 161.302 160.89 161.562C160.47 162.502 158.95 162.872 157.21 162.872L157.22 162.882ZM147.54 159.082C147.96 159.292 148.62 159.682 149.34 160.112C150.54 160.822 151.9 161.622 152.61 161.892C155.28 162.912 159.98 163.132 160.72 161.492C160.81 161.282 160.79 161.032 160.65 160.742C160.13 159.642 158.13 158.282 157.15 158.012C153.62 157.052 150.3 158.182 148.52 158.782C148.08 158.932 147.77 159.032 147.55 159.082H147.54Z" fill="#131A2D"/>
<path d="M156.44 150.951C156.8 152.261 156.22 154.111 156.29 155.421C156.35 156.531 156.9 157.961 157.66 158.761C158.61 159.751 161.3 162.091 161.76 161.901C162.25 161.691 162.63 154.551 156.44 150.951Z" fill="#8E58A2"/>
<path d="M161.72 162.001C160.97 162.001 158.26 159.521 157.6 158.821C156.85 158.031 156.26 156.601 156.2 155.421C156.17 154.881 156.25 154.271 156.33 153.631C156.45 152.701 156.57 151.731 156.35 150.971L156.29 150.741L156.5 150.861C161.23 153.611 162.25 158.491 162.11 160.941C162.09 161.291 162.02 161.891 161.82 161.981C161.79 161.991 161.76 162.001 161.73 162.001H161.72ZM156.59 151.151C156.74 151.901 156.63 152.801 156.52 153.661C156.44 154.291 156.37 154.901 156.39 155.411C156.45 156.551 157.02 157.931 157.74 158.691C158.88 159.891 161.38 161.951 161.73 161.801C161.8 161.751 161.96 161.161 161.9 160.051C161.83 158.661 161.22 153.961 156.59 151.141V151.151Z" fill="#131A2D"/>
<path d="M163.8 161.391C160.86 161.391 159.51 164.131 162.22 165.401C164.96 166.681 163.61 168.571 165.59 169.721C165.59 167.861 166.6 166.991 167.31 165.691C168.1 164.251 166.68 161.391 163.8 161.391Z" fill="#131A2D"/>
<path d="M169.74 163.112C168.95 162.392 163.54 156.352 161.42 162.002C160.5 164.472 163.45 165.582 168.03 165.432C170.51 165.352 170.91 166.392 172.02 166.372C171.77 165.372 170.46 163.772 169.73 163.102L169.74 163.112Z" fill="#8E58A2"/>
<path d="M172.01 166.472C171.56 166.472 171.22 166.302 170.83 166.122C170.24 165.842 169.52 165.492 168.04 165.532C164.65 165.642 162.32 165.072 161.5 163.912C161.11 163.372 161.06 162.722 161.34 161.972C161.86 160.592 162.61 159.792 163.59 159.572C165.81 159.082 168.52 161.772 169.54 162.772C169.66 162.892 169.75 162.982 169.81 163.032C170.6 163.752 171.88 165.352 172.13 166.342L172.16 166.462H172.04C172.04 166.462 172.03 166.462 172.02 166.462L172.01 166.472ZM168.31 165.332C169.65 165.332 170.35 165.672 170.92 165.942C171.27 166.112 171.55 166.252 171.91 166.272C171.59 165.272 170.33 163.772 169.68 163.182C169.62 163.122 169.52 163.032 169.4 162.912C168.4 161.922 165.75 159.302 163.63 159.762C162.72 159.962 162.01 160.722 161.52 162.042C161.26 162.722 161.31 163.322 161.66 163.802C162.45 164.902 164.71 165.442 168.04 165.342C168.13 165.342 168.22 165.342 168.31 165.342V165.332Z" fill="#131A2D"/>
<path d="M158.05 161.911C157.34 162.361 156.61 162.781 155.99 163.221C154.44 164.331 154.45 167.471 154.41 169.211C155.59 168.671 156.64 167.921 157.73 167.231C159 166.431 160.27 165.701 161.15 164.441C161.29 164.231 161.57 163.651 161.81 162.961C161.51 162.821 161.21 162.661 160.92 162.541C159.92 162.141 159.02 161.961 158.04 161.911H158.05Z" fill="#131A2D"/>
<path d="M161.2 161.082C160.56 161.172 159.92 161.342 159.31 161.482C157.76 161.842 156.15 161.912 154.73 162.672C152.74 163.732 151.67 165.062 151.55 167.292C153.93 165.842 157.21 166.852 159.5 165.332C160.19 164.872 160.97 164.092 161.38 163.272C161.33 162.942 161.41 162.692 161.52 162.322C161.6 162.042 161.75 161.632 161.49 161.372C161.39 161.272 161.29 161.182 161.19 161.092L161.2 161.082Z" fill="#8E58A2"/>
<path d="M151.45 167.461V167.281C151.58 165.141 152.54 163.731 154.69 162.581C155.71 162.041 156.84 161.831 157.94 161.641C158.39 161.561 158.85 161.481 159.29 161.381C159.43 161.351 159.57 161.311 159.72 161.281C160.2 161.161 160.7 161.051 161.19 160.981H161.24L161.38 161.111C161.45 161.171 161.51 161.231 161.57 161.291C161.85 161.561 161.73 161.971 161.64 162.271L161.6 162.411C161.51 162.741 161.44 162.961 161.49 163.241V163.271V163.301C161.04 164.211 160.2 164.981 159.57 165.401C158.39 166.181 156.93 166.311 155.52 166.431C154.17 166.551 152.77 166.661 151.62 167.361L151.46 167.461H151.45ZM161.17 161.181C160.7 161.251 160.22 161.361 159.76 161.471C159.62 161.511 159.47 161.541 159.33 161.571C158.88 161.681 158.42 161.761 157.97 161.831C156.89 162.021 155.77 162.221 154.78 162.751C152.76 163.831 151.82 165.141 151.67 167.101C152.83 166.461 154.18 166.341 155.5 166.231C156.95 166.111 158.32 165.991 159.46 165.231C160.21 164.731 160.93 163.951 161.29 163.231C161.25 162.921 161.32 162.681 161.41 162.351L161.45 162.211C161.53 161.941 161.63 161.621 161.43 161.421C161.37 161.361 161.3 161.301 161.24 161.241L161.17 161.171V161.181Z" fill="#131A2D"/>
<path d="M157.33 159.891C155.9 160.621 154.01 161.991 152.97 163.271C154.93 163.981 155.45 163.071 156.21 163.481C159.8 165.461 163.31 164.171 162.69 160.901C162.46 159.681 159.23 158.911 157.33 159.891Z" fill="#8E58A2"/>
<path d="M159.54 164.531C158.49 164.531 157.31 164.211 156.17 163.581C155.88 163.421 155.63 163.471 155.29 163.551C154.79 163.661 154.11 163.801 152.94 163.371L152.81 163.321L152.9 163.211C153.99 161.861 155.94 160.501 157.29 159.801C158.64 159.111 160.63 159.281 161.79 159.851C162.37 160.131 162.71 160.491 162.79 160.881C163.03 162.161 162.67 163.221 161.77 163.871C161.18 164.301 160.41 164.511 159.55 164.511L159.54 164.531ZM155.77 163.281C155.93 163.281 156.09 163.311 156.26 163.411C158.27 164.521 160.39 164.641 161.65 163.731C162.49 163.121 162.82 162.131 162.6 160.931C162.54 160.601 162.22 160.291 161.71 160.031C160.6 159.491 158.67 159.321 157.38 159.981C156.08 160.641 154.23 161.931 153.14 163.231C154.18 163.581 154.77 163.451 155.25 163.351C155.43 163.311 155.6 163.281 155.77 163.281Z" fill="#131A2D"/>
<path d="M99.22 152.302L102.47 152.842C101.52 150.212 102.87 149.852 102.87 149.852L101.52 147.582L99.22 152.302Z" fill="white"/>
<path d="M102.87 153.171L98.83 152.491L101.5 147.011L103.28 150.001L102.94 150.091C102.94 150.091 102.7 150.171 102.54 150.481C102.37 150.821 102.27 151.481 102.72 152.731L102.87 153.151V153.171ZM99.61 152.091L102.07 152.501C101.79 151.541 101.79 150.781 102.07 150.231C102.2 149.991 102.36 149.831 102.49 149.741L101.53 148.131L99.6 152.091H99.61Z" fill="#140035"/>
<path d="M118.61 141.721C118.42 141.461 117.15 142.291 116.3 142.771C115.24 143.371 115.33 142.541 114.94 142.501C114.55 142.451 112.97 143.271 112.75 143.561C112.5 143.891 112.91 145.591 112.02 147.141C110.85 148.581 107.69 150.711 104.09 152.811C102.43 153.781 103.33 156.781 105.53 156.431C107.54 156.111 112.95 149.831 113.88 148.751C114.03 148.641 116.15 146.941 116.56 146.331C116.98 145.711 118.16 145.421 117.79 145.231C117.42 145.041 116.46 145.381 115.94 145.591C115.42 145.801 115.54 144.891 116.16 144.001C116.78 143.111 118.9 142.131 118.61 141.731V141.721Z" fill="white"/>
<path d="M105.18 156.711C104.07 156.711 103.39 155.931 103.13 155.201C102.76 154.161 103.1 153.081 103.97 152.571C108.09 150.171 110.8 148.231 111.83 146.971C112.35 146.061 112.37 145.021 112.39 144.341C112.4 143.891 112.41 143.581 112.55 143.401C112.81 143.061 114.51 142.161 114.98 142.241C115.22 142.271 115.35 142.431 115.44 142.561C115.58 142.731 115.66 142.841 116.17 142.551C116.32 142.461 116.49 142.371 116.66 142.271C117.89 141.551 118.55 141.191 118.83 141.581C118.89 141.671 118.92 141.781 118.9 141.891C118.85 142.211 118.47 142.491 117.76 142.991C117.23 143.361 116.64 143.781 116.38 144.161C116.01 144.701 115.89 145.151 115.88 145.341C117.39 144.741 117.78 144.941 117.91 145.011C118.09 145.101 118.12 145.241 118.12 145.321C118.12 145.561 117.91 145.681 117.58 145.871C117.3 146.031 116.94 146.231 116.77 146.491C116.34 147.121 114.27 148.781 114.04 148.961C112.6 150.671 107.61 156.371 105.57 156.701C105.43 156.721 105.29 156.731 105.17 156.731L105.18 156.711ZM114.9 142.761C114.56 142.761 113.14 143.491 112.97 143.721C112.93 143.791 112.93 144.101 112.92 144.351C112.9 145.091 112.87 146.201 112.26 147.271C110.9 148.961 107.15 151.331 104.24 153.031C103.49 153.471 103.4 154.371 103.63 155.031C103.85 155.661 104.48 156.331 105.51 156.161C106.99 155.921 110.84 151.921 113.7 148.571C114.51 147.921 116.05 146.641 116.36 146.181C116.57 145.871 116.93 145.641 117.23 145.461C116.96 145.511 116.57 145.621 116.06 145.831C115.73 145.971 115.54 145.781 115.49 145.721C115.19 145.351 115.53 144.491 115.97 143.851C116.28 143.401 116.92 142.951 117.48 142.551C117.68 142.411 117.93 142.231 118.12 142.081C117.76 142.251 117.27 142.541 116.95 142.721C116.78 142.821 116.61 142.921 116.46 143.011C115.61 143.491 115.29 143.201 115.05 142.891C115.01 142.841 114.95 142.771 114.92 142.771L114.9 142.761Z" fill="#140035"/>
<path d="M94.22 184.521C94.22 184.521 96.36 189.911 94.65 193.741C91.87 199.961 92.82 213.341 92.59 214.911C92.36 216.481 95.18 218.171 95.87 215.031C96.56 211.891 99.86 198.071 101.32 194.761C102.78 191.451 102.21 185.251 102.21 185.251L94.21 184.521H94.22Z" fill="white"/>
<path d="M94.28 217.061C94.16 217.061 94.06 217.051 94 217.031C92.99 216.851 92.19 215.821 92.33 214.871C92.38 214.531 92.37 213.521 92.36 212.241C92.32 207.441 92.24 198.491 94.41 193.631C96.05 189.951 94 184.671 93.98 184.621L93.82 184.221L102.47 185.001L102.49 185.221C102.51 185.481 103.04 191.521 101.57 194.861C100.13 198.121 96.85 211.861 96.13 215.081C95.75 216.791 94.82 217.051 94.28 217.051V217.061ZM94.61 184.831C95.07 186.171 96.37 190.531 94.89 193.851C92.77 198.611 92.85 207.811 92.89 212.241C92.9 213.651 92.91 214.581 92.86 214.951C92.76 215.611 93.38 216.381 94.1 216.521C94.83 216.651 95.38 216.091 95.63 214.981C96.34 211.751 99.64 197.961 101.1 194.661C102.37 191.791 102.07 186.631 101.99 185.501L94.63 184.831H94.61Z" fill="#140035"/>
<path d="M100.12 188.741C101.45 191.491 102.85 199.611 102.16 204.681C101.47 209.751 103.05 219.681 103.09 221.281C103.13 222.871 105.93 224.261 106.08 221.041C106.23 217.811 107.76 204.981 108.64 201.431C109.52 197.881 108.02 187.071 108.02 187.071C108.02 187.071 98.79 186.001 100.13 188.751L100.12 188.741Z" fill="white"/>
<path d="M104.78 223.252C104.78 223.252 104.78 223.252 104.77 223.252C103.79 223.252 102.85 222.292 102.82 221.282C102.81 220.892 102.7 219.932 102.56 218.722C102.11 214.882 101.37 208.472 101.89 204.642C102.57 199.632 101.16 191.502 99.88 188.852C99.6 188.282 99.75 187.872 99.91 187.632C101.05 186.032 107.32 186.712 108.04 186.792L108.24 186.812L108.27 187.012C108.33 187.462 109.77 197.912 108.89 201.472C107.99 205.112 106.48 217.912 106.34 221.032C106.25 223.072 105.14 223.242 104.78 223.242V223.252ZM104.37 187.122C102.57 187.122 100.8 187.302 100.34 187.952C100.26 188.062 100.17 188.262 100.35 188.632C101.66 191.332 103.13 199.452 102.41 204.722C101.9 208.482 102.66 215.102 103.08 218.672C103.23 219.952 103.34 220.872 103.35 221.282C103.37 222.052 104.15 222.732 104.78 222.732C105.38 222.732 105.76 222.112 105.81 221.032C105.96 217.892 107.47 205.032 108.38 201.362C109.17 198.162 107.97 188.812 107.77 187.302C106.94 187.212 105.65 187.122 104.37 187.122Z" fill="#140035"/>
<path d="M108.12 225.272C106.21 224.122 106.44 220.722 106.44 220.722C103.98 220.822 102.84 220.342 102.84 220.342C102.84 221.382 101.66 223.152 101.52 224.712C101.39 226.102 102.55 226.922 102.55 228.132H103.56L103.05 225.292C104.7 225.292 106.81 228.162 108.87 228.142C111.04 228.112 111.65 227.462 111.81 226.782C111.97 226.102 110.02 226.432 108.12 225.272Z" fill="#140035"/>
<path d="M97.81 219.732C95.9 218.582 96.13 215.182 96.13 215.182C93.67 215.282 92.54 214.802 92.54 214.802C92.54 215.842 91.36 217.612 91.22 219.162C91.09 220.552 92.24 221.372 92.24 222.582H93.25L92.74 219.752C94.39 219.752 96.5 222.622 98.56 222.592C100.72 222.572 101.34 221.912 101.5 221.232C101.66 220.552 99.71 220.882 97.81 219.732Z" fill="#140035"/>
<path d="M95.84 166.871C95.84 166.871 95.22 169.131 93.58 171.901C91.94 174.661 90.41 178.761 90.97 181.921C91.52 185.041 90.33 197.391 89.19 203.701C89.19 203.701 94.81 204.791 96.94 206.291C104.38 211.531 112.43 206.631 112.43 206.631C112.43 193.181 106.82 175.761 105.67 168.051L95.84 166.871Z" fill="#140035"/>
<path d="M107.36 159.482C106.88 158.242 106.61 156.992 106.08 155.012C105.55 153.032 102.29 151.792 99.21 152.302C95.84 152.862 95.27 157.692 95.26 160.732C95.26 163.552 95.55 166.752 93.92 171.302C97.49 174.492 103.35 176.032 107.02 174.062C106.57 170.992 105.06 165.822 105.73 163.502C105.84 163.112 108.29 161.902 107.34 159.492L107.36 159.482Z" fill="#8E58A2"/>
<path d="M103.16 175.222C99.81 175.222 96.16 173.651 93.76 171.501L93.63 171.382L93.69 171.212C95.08 167.312 95.05 164.431 95.02 161.891C95.02 161.491 95.02 161.102 95.02 160.732C95.02 157.742 95.58 152.642 99.19 152.042C102.43 151.492 105.79 152.852 106.35 154.942C106.48 155.432 106.59 155.871 106.7 156.281C107.03 157.551 107.26 158.462 107.62 159.382C108.41 161.412 106.99 162.671 106.31 163.281C106.19 163.391 106.03 163.532 106 163.582C105.55 165.162 106.18 168.252 106.74 170.972C106.97 172.082 107.18 173.132 107.31 174.012L107.33 174.202L107.17 174.281C105.97 174.921 104.6 175.212 103.17 175.212L103.16 175.222ZM94.24 171.222C97.88 174.382 103.4 175.572 106.75 173.912C106.62 173.082 106.42 172.112 106.21 171.092C105.64 168.312 104.99 165.152 105.49 163.432C105.54 163.272 105.69 163.132 105.95 162.902C106.63 162.292 107.78 161.272 107.12 159.582C106.75 158.632 106.51 157.711 106.18 156.421C106.07 156.011 105.96 155.572 105.83 155.082C105.35 153.272 102.22 152.072 99.26 152.562C96.04 153.102 95.54 157.912 95.53 160.732C95.53 161.112 95.53 161.492 95.53 161.882C95.56 164.432 95.59 167.322 94.23 171.222H94.24Z" fill="#140035"/>
<path d="M105.02 143.851C105.1 143.461 105.03 142.751 104.99 142.401C104.62 139.351 100.29 142.171 98.79 144.651C97.3 147.131 103.43 151.531 104.69 149.361C106.17 146.811 105.48 144.871 105.4 144.761C105.1 144.351 104.95 144.201 105.02 143.851Z" fill="white"/>
<path d="M103.55 150.211H103.53C101.96 150.201 99.67 148.651 98.72 146.961C98.2 146.051 98.15 145.201 98.56 144.521C99.73 142.581 102.5 140.511 104.07 140.851C104.53 140.951 105.11 141.291 105.24 142.381C105.32 143.101 105.33 143.611 105.27 143.921C105.23 144.111 105.27 144.181 105.5 144.491L105.6 144.631C105.75 144.851 106.43 146.891 104.91 149.511C104.64 149.981 104.17 150.221 103.54 150.221L103.55 150.211ZM103.7 141.331C102.33 141.331 100 143.161 99.02 144.791C98.63 145.431 98.89 146.181 99.18 146.701C100.03 148.221 102.15 149.671 103.53 149.681H103.54C103.98 149.681 104.28 149.531 104.46 149.231C105.9 146.741 105.18 144.921 105.17 144.901L105.08 144.791C104.84 144.461 104.67 144.231 104.76 143.801C104.79 143.631 104.82 143.251 104.72 142.431C104.64 141.801 104.4 141.451 103.96 141.361C103.88 141.341 103.79 141.331 103.69 141.331H103.7Z" fill="#140035"/>
<path d="M100.66 139.192C97.35 140.052 96.28 138.102 94.52 141.972C93.07 145.162 90.55 142.132 89.06 145.832C87.57 149.532 89.24 148.452 87.06 151.922C85.21 154.882 87.2 157.652 87.98 159.572C88.75 161.492 90.14 162.452 88.45 165.232C88.45 165.232 95.35 165.142 94.81 160.562C94.26 155.982 98.63 158.172 98.24 154.942C97.93 152.352 101.26 153.422 101.16 151.782C101.07 150.142 104.17 149.422 102.09 146.472C100.86 144.722 105.6 143.622 105.37 141.722C105.22 140.452 103.96 138.332 100.66 139.192Z" fill="#140035"/>
<path d="M101.62 144.901C101.38 145.441 101.59 146.251 101.93 146.741C102.27 147.231 102.57 147.061 102.52 146.811C102.45 146.491 102.81 145.901 102.63 145.071C102.58 144.831 101.87 144.361 101.63 144.911L101.62 144.901Z" fill="white"/>
<path d="M102.35 147.321C102.19 147.321 101.96 147.241 101.71 146.891C101.33 146.341 101.09 145.441 101.38 144.791C101.51 144.501 101.76 144.351 102.06 144.391C102.42 144.431 102.82 144.731 102.88 145.011C103 145.581 102.9 146.051 102.83 146.381C102.79 146.531 102.76 146.691 102.77 146.751C102.82 146.981 102.72 147.191 102.52 147.281C102.49 147.301 102.43 147.321 102.35 147.321ZM101.98 144.911C101.98 144.911 101.9 144.911 101.86 145.011C101.67 145.461 101.86 146.161 102.15 146.591C102.19 146.651 102.23 146.701 102.26 146.721C102.24 146.601 102.28 146.441 102.31 146.261C102.38 145.951 102.46 145.571 102.36 145.111C102.34 145.061 102.13 144.901 101.98 144.901V144.911Z" fill="#140035"/>
<path d="M124.02 170.381C123.49 169.971 122.29 168.821 121.22 168.671C120.15 168.521 118.47 168.801 118.86 168.401C119.25 168.001 119.73 167.441 119.69 167.021C119.65 166.601 119.26 167.571 118.54 167.731C118.03 167.841 117 168.511 116.41 168.911C114.58 169.011 109.77 167.301 107.69 166.921C107.5 165.911 106.63 162.701 106.49 159.311C106.32 155.311 105.02 153.771 104.09 153.731C101.72 153.631 100.38 155.901 100.88 159.211C101.35 162.371 102.36 166.901 104.92 170.291C104.96 170.341 105.01 170.341 105.05 170.381C105.1 170.431 105.11 170.491 105.18 170.541C106.94 171.901 116.67 171.391 116.72 171.391C117.17 171.471 117.83 171.621 118.38 171.711C119.14 171.841 120.66 172.971 120.89 172.681C121.12 172.391 122.33 171.291 122.43 170.911C122.54 170.531 121.31 169.171 122.27 169.921C123.25 170.681 124.39 170.661 124.05 170.391L124.02 170.381Z" fill="white"/>
<path d="M120.75 172.991C120.46 172.991 120.06 172.781 119.53 172.501C119.1 172.271 118.61 172.011 118.31 171.971C118.01 171.921 117.67 171.852 117.35 171.792C117.09 171.742 116.85 171.692 116.64 171.652C116.6 171.652 106.85 172.201 104.98 170.751C104.91 170.691 104.87 170.632 104.84 170.592C104.81 170.572 104.73 170.542 104.67 170.452C102.67 167.802 101.29 164.041 100.58 159.251C100.28 157.221 100.63 155.522 101.57 154.482C102.21 153.772 103.1 153.421 104.07 153.471C105.27 153.531 106.56 155.352 106.72 159.312C106.83 162.002 107.42 164.621 107.73 166.021C107.79 166.291 107.84 166.522 107.88 166.702C108.65 166.852 109.71 167.151 110.84 167.471C112.82 168.021 115.05 168.652 116.21 168.652C116.24 168.652 116.26 168.652 116.29 168.652C117.01 168.162 117.94 167.591 118.45 167.471C118.76 167.401 119.02 167.122 119.19 166.932C119.35 166.752 119.5 166.601 119.7 166.671C119.79 166.701 119.9 166.781 119.92 167.001C119.96 167.451 119.62 167.932 119.22 168.372C119.4 168.372 119.63 168.372 119.81 168.372C120.26 168.372 120.79 168.351 121.23 168.421C122.2 168.561 123.23 169.422 123.84 169.932C123.96 170.032 124.07 170.122 124.15 170.182C124.31 170.312 124.32 170.451 124.31 170.521C124.29 170.641 124.22 170.731 124.1 170.781C123.84 170.891 123.19 170.801 122.53 170.441C122.63 170.651 122.67 170.832 122.63 170.982C122.55 171.282 122.1 171.761 121.47 172.391C121.27 172.591 121.11 172.752 121.04 172.842C120.96 172.952 120.85 172.991 120.72 172.991H120.75ZM116.68 171.122C116.95 171.162 117.2 171.212 117.46 171.262C117.77 171.322 118.1 171.391 118.4 171.441C118.78 171.501 119.29 171.771 119.78 172.031C120.08 172.191 120.53 172.422 120.7 172.452C120.79 172.352 120.94 172.192 121.12 172.012C121.43 171.692 122.09 171.032 122.14 170.842C122.14 170.742 121.93 170.391 121.82 170.221C121.62 169.891 121.49 169.671 121.69 169.501C121.89 169.321 122.13 169.502 122.39 169.702C122.74 169.972 123.09 170.132 123.38 170.212C122.8 169.732 121.93 169.042 121.17 168.932C120.77 168.872 120.27 168.881 119.83 168.891C119.06 168.901 118.67 168.911 118.55 168.631C118.51 168.551 118.48 168.391 118.65 168.211C118.8 168.061 118.93 167.911 119.03 167.781C118.89 167.871 118.74 167.942 118.57 167.982C118.23 168.062 117.49 168.472 116.53 169.122L116.47 169.161H116.39C115.18 169.221 112.8 168.561 110.7 167.971C109.5 167.631 108.36 167.312 107.61 167.182L107.43 167.152L107.4 166.971C107.36 166.771 107.3 166.481 107.22 166.131C106.9 164.711 106.31 162.062 106.19 159.322C106.03 155.472 104.82 154.031 104.05 153.991C103.2 153.951 102.49 154.241 101.97 154.831C101.15 155.741 100.84 157.321 101.11 159.171C101.81 163.871 103.15 167.561 105.1 170.131C105.1 170.121 105.15 170.131 105.19 170.171C105.25 170.231 105.27 170.271 105.29 170.301C106.71 171.411 114.17 171.262 116.67 171.122H116.68Z" fill="#140035"/>
</svg>
