<svg width="262" height="117" viewBox="0 0 262 117" fill="none" xmlns="http://www.w3.org/2000/svg">
<g filter="url(#filter0_d_109_6678)">
<path fill-rule="evenodd" clip-rule="evenodd" d="M52.4014 0L209.442 0C236.173 0 257.843 21.6673 257.843 48.3952C257.843 75.1231 236.173 96.7904 209.442 96.7904L142.885 96.7904L142.888 96.794L130.931 108.751L118.974 96.794L118.978 96.7904L52.4014 96.7904C25.6701 96.7904 4.00006 75.1231 4.00006 48.3952C4.00006 21.6673 25.6701 0 52.4014 0Z" fill="#FF8B00"/>
<path d="M107.595 36.62V34.24C109.275 33.58 110.635 30.98 110.635 27.52V22.6H107.795V20.32H116.075V22.6H113.375V27.52C113.375 30.98 114.455 33.08 116.395 34.06V36.44C114.595 35.84 112.875 34.48 112.035 32.64C111.115 34.5 109.455 36 107.595 36.62ZM117.675 37.28V28.54H114.895V26.1H117.675V19.92H120.235V37.28H117.675ZM121.735 37.68V19.82H124.295V37.68H121.735ZM126.999 36.12V32.84C126.999 30.62 129.019 29.12 131.119 28.06C133.039 27.1 134.279 25.94 134.279 24.92V24.38C134.279 23.26 133.579 22.3 131.999 22.3C130.419 22.3 129.719 23.26 129.719 24.38V25.22H126.999V24.38C126.999 21.68 129.199 20.1 131.999 20.1C134.799 20.1 136.999 21.68 136.999 24.38V24.92C136.999 26.8 135.459 28.46 132.679 29.98C130.519 31.18 129.719 31.9 129.719 32.84V33.92H136.999V36.12H126.999ZM139.701 37.6V32H142.421V35.36H155.101V37.6H139.701ZM151.981 33.3V19.82H154.701V24.7H157.101V27.14H154.701V33.3H151.981ZM138.901 22.22V19.98H149.501V27.72H146.781V22.22H138.901ZM138.401 30.74V28.6H141.681V24.82H144.521V28.6H151.181V30.74H138.401ZM26.7009 67.988V45.392H30.2849V53.4H34.3169V45.392H37.9009V67.988H26.7009ZM39.9729 69.192V44.888H43.5569V53.96H45.7969V44.748H49.3809V69.752H45.7969V57.376H43.5569V69.192H39.9729ZM30.2849 64.796H34.3169V56.592H30.2849V64.796ZM68.3423 57.6H61.2023C56.6103 57.6 53.8663 55.164 53.8663 51.384C53.8663 47.604 56.6103 45.168 61.2023 45.168H68.3423C72.9343 45.168 75.7063 47.604 75.7063 51.384C75.7063 55.164 72.9343 57.6 68.3423 57.6ZM52.3263 63.06V59.84H77.2463V63.06H66.7743V69.752H62.7983V63.06H52.3263ZM61.0623 54.408H68.5103C70.5543 54.408 71.8983 53.148 71.8983 51.384C71.8983 49.62 70.5543 48.36 68.5103 48.36H61.0623C59.0183 48.36 57.6743 49.62 57.6743 51.384C57.6743 53.148 59.0183 54.408 61.0623 54.408ZM98.2238 69.752V44.748H102.032V69.752H98.2238ZM80.3318 67.568V45.448H84.1398V64.376H96.5438V67.568H80.3318ZM112.811 58.776V55.78H137.731V58.776H127.259V60.68H130.619C134.259 60.68 136.471 62.444 136.471 65.216C136.471 67.988 134.259 69.752 130.619 69.752H119.923C116.283 69.752 114.071 67.988 114.071 65.216C114.071 62.444 116.283 60.68 119.923 60.68H123.283V58.776H112.811ZM114.211 54.352V51.328H117.851V47.884H114.491V44.86H136.051V47.884H132.691V51.328H136.331V54.352H114.211ZM120.175 66.728H130.367C131.795 66.728 132.663 66.084 132.663 65.216C132.663 64.348 131.795 63.704 130.367 63.704H120.175C118.747 63.704 117.879 64.348 117.879 65.216C117.879 66.084 118.747 66.728 120.175 66.728ZM121.659 51.328H128.883V47.884H121.659V51.328ZM158.708 63.06V54.464H151.036V51.552H158.708V49.704H151.036V46.792H158.708V44.748H162.516V63.06H158.708ZM140.536 58.888V45.028H144.344V55.864H156.468V58.888H140.536ZM141.796 69.64V60.96H145.604V66.504H163.076V69.64H141.796ZM185.314 69.752V44.748H189.122V69.752H185.314ZM167.002 61.324V51.972C167.002 47.492 169.97 44.888 174.478 44.888C178.986 44.888 181.954 47.492 181.954 51.972V61.324C181.954 65.804 178.986 68.408 174.478 68.408C169.97 68.408 167.002 65.804 167.002 61.324ZM178.146 61.436V51.86C178.146 49.564 176.718 48.052 174.478 48.052C172.238 48.052 170.81 49.564 170.81 51.86V61.436C170.81 63.732 172.238 65.244 174.478 65.244C176.718 65.244 178.146 63.732 178.146 61.436ZM192.627 68.8V65.58H203.099V60.792H202.791C197.415 60.792 194.167 57.74 194.167 52.98C194.167 48.22 197.415 45.168 202.791 45.168H207.383C212.731 45.168 216.007 48.22 216.007 52.98C216.007 57.74 212.731 60.792 207.383 60.792H207.075V65.58H217.547V68.8H192.627ZM202.651 57.6H207.523C210.379 57.6 212.199 55.696 212.199 52.98C212.199 50.264 210.379 48.36 207.523 48.36H202.651C199.795 48.36 197.975 50.264 197.975 52.98C197.975 55.696 199.795 57.6 202.651 57.6ZM223.153 59.672L220.577 57.88C221.501 55.388 224.021 53.876 225.841 53.876C228.277 53.876 229.705 56.2 231.609 56.2C232.561 56.2 233.709 55.332 234.297 53.736L236.873 55.528C235.949 58.02 233.429 59.532 231.609 59.532C229.173 59.532 227.745 57.208 225.841 57.208C224.889 57.208 223.741 58.076 223.153 59.672Z" fill="white"/>
</g>
<defs>
<filter id="filter0_d_109_6678" x="6.10352e-05" y="0" width="261.843" height="116.751" filterUnits="userSpaceOnUse" color-interpolation-filters="sRGB">
<feFlood flood-opacity="0" result="BackgroundImageFix"/>
<feColorMatrix in="SourceAlpha" type="matrix" values="0 0 0 0 0 0 0 0 0 0 0 0 0 0 0 0 0 0 127 0" result="hardAlpha"/>
<feOffset dy="4"/>
<feGaussianBlur stdDeviation="2"/>
<feComposite in2="hardAlpha" operator="out"/>
<feColorMatrix type="matrix" values="0 0 0 0 0 0 0 0 0 0 0 0 0 0 0 0 0 0 0.25 0"/>
<feBlend mode="normal" in2="BackgroundImageFix" result="effect1_dropShadow_109_6678"/>
<feBlend mode="normal" in="SourceGraphic" in2="effect1_dropShadow_109_6678" result="shape"/>
</filter>
</defs>
</svg>
