<svg width="262" height="117" viewBox="0 0 262 117" fill="none" xmlns="http://www.w3.org/2000/svg">
<g filter="url(#filter0_d_109_7419)">
<path fill-rule="evenodd" clip-rule="evenodd" d="M52.4014 0L209.442 0C236.173 0 257.843 21.6673 257.843 48.3952C257.843 75.1231 236.173 96.7904 209.442 96.7904L142.885 96.7904L142.888 96.794L130.931 108.751L118.974 96.794L118.978 96.7904L52.4014 96.7904C25.6701 96.7904 4.00006 75.1231 4.00006 48.3952C4.00006 21.6673 25.6701 0 52.4014 0Z" fill="#00CEA6"/>
<path d="M110.038 39.62V37.24C111.718 36.58 113.078 33.98 113.078 30.52V25.6H110.238V23.32H118.518V25.6H115.818V30.52C115.818 33.98 116.898 36.08 118.838 37.06V39.44C117.038 38.84 115.318 37.48 114.478 35.64C113.558 37.5 111.898 39 110.038 39.62ZM120.118 40.28V31.54H117.338V29.1H120.118V22.92H122.678V40.28H120.118ZM124.178 40.68V22.82H126.738V40.68H124.178ZM128.842 36.52V34.12L135.302 23.6H138.762V34.32H140.842V36.52H138.762V39.12H136.042V36.52H128.842ZM131.562 34.32H136.042V27.02L131.562 34.32ZM142.945 40.6V35H145.665V38.36H158.345V40.6H142.945ZM155.225 36.3V22.82H157.945V27.7H160.345V30.14H157.945V36.3H155.225ZM142.145 25.22V22.98H152.745V30.72H150.025V25.22H142.145ZM141.645 33.74V31.6H144.925V27.82H147.765V31.6H154.425V33.74H141.645ZM31.7634 72.192V47.888H35.3474V56.96H38.4274V47.748H42.0114V72.752H38.4274V60.376H35.3474V72.192H31.7634ZM19.6114 70.848V48.448H23.3074V67.656H30.3634V70.848H19.6114ZM53.0703 64.716V54.58C53.0703 50.324 55.3943 47.888 58.8103 47.888C62.2263 47.888 64.5503 50.324 64.5503 54.58V64.716C64.5503 68.972 62.2263 71.408 58.8103 71.408C55.3943 71.408 53.0703 68.972 53.0703 64.716ZM66.2583 72.192V47.888H69.8423V52.536H72.3063V47.748H75.8903V72.752H72.3063V64.8H69.8423V72.192H66.2583ZM60.9663 64.772V54.524C60.9663 52.396 60.1543 51.08 58.8103 51.08C57.4663 51.08 56.6543 52.396 56.6543 54.524V64.772C56.6543 66.9 57.4663 68.216 58.8103 68.216C60.1543 68.216 60.9663 66.9 60.9663 64.772ZM69.8423 61.496H72.3063V55.84H69.8423V61.496ZM98.1277 72.752V47.748H101.936V72.752H98.1277ZM79.3957 70.848V67.404C85.4997 66.06 90.0637 59.62 90.0637 51.696H79.5357V48.448H93.9277V51.024C93.9277 61.188 87.8237 69.448 79.3957 70.848ZM114.535 72.64V63.68H135.815V72.64H114.535ZM114.115 57.66V54.832C118.595 54.524 122.263 52.9 122.963 50.828H114.535V47.86H135.815V50.828H127.387C128.059 52.9 131.755 54.524 136.235 54.832V57.66C131.643 57.352 127.583 56.092 125.175 53.908C122.767 56.092 118.707 57.352 114.115 57.66ZM112.715 62.056V59.06H123.187V56.428H127.163V59.06H137.635V62.056H112.715ZM118.343 69.616H132.007V66.704H118.343V69.616ZM146.594 60.544V57.548H171.514V60.544H146.594ZM148.414 72.64V65.892H165.83V64.828H148.414V62H169.694V68.608H152.278V69.812H170.254V72.64H148.414ZM148.414 56.148V47.86H169.834V50.884H152.222V53.124H170.254V56.148H148.414ZM174.179 64.38V54.916C174.179 50.436 177.147 47.888 181.599 47.888C186.051 47.888 189.019 50.436 189.019 54.916V57.66H192.491V47.748H196.299V72.752H192.491V61.076H189.019V64.38C189.019 68.86 186.051 71.408 181.599 71.408C177.147 71.408 174.179 68.86 174.179 64.38ZM185.211 64.464V54.832C185.211 52.536 183.839 51.08 181.599 51.08C179.359 51.08 177.987 52.536 177.987 54.832V64.464C177.987 66.76 179.359 68.216 181.599 68.216C183.839 68.216 185.211 66.76 185.211 64.464ZM199.244 71.24V68.02H205.796V63.988H200.224V48.336H204.032V52.928H211.536V48.336H215.344V63.988H209.772V68.02H217.136V71.24H199.244ZM218.256 72.752V47.748H222.064V56.792H225.424V60.208H222.064V72.752H218.256ZM204.032 60.796H211.536V56.12H204.032V60.796ZM242.426 60.6H235.286C230.694 60.6 227.95 58.164 227.95 54.384C227.95 50.604 230.694 48.168 235.286 48.168H242.426C247.018 48.168 249.79 50.604 249.79 54.384C249.79 58.164 247.018 60.6 242.426 60.6ZM231.562 72.752V66.004H226.41V62.784H251.33V66.004H246.178V72.752H242.202V66.004H235.538V72.752H231.562ZM235.146 57.408H242.594C244.638 57.408 245.982 56.148 245.982 54.384C245.982 52.62 244.638 51.36 242.594 51.36H235.146C233.102 51.36 231.758 52.62 231.758 54.384C231.758 56.148 233.102 57.408 235.146 57.408Z" fill="white"/>
</g>
<defs>
<filter id="filter0_d_109_7419" x="6.10352e-05" y="0" width="261.843" height="116.751" filterUnits="userSpaceOnUse" color-interpolation-filters="sRGB">
<feFlood flood-opacity="0" result="BackgroundImageFix"/>
<feColorMatrix in="SourceAlpha" type="matrix" values="0 0 0 0 0 0 0 0 0 0 0 0 0 0 0 0 0 0 127 0" result="hardAlpha"/>
<feOffset dy="4"/>
<feGaussianBlur stdDeviation="2"/>
<feComposite in2="hardAlpha" operator="out"/>
<feColorMatrix type="matrix" values="0 0 0 0 0 0 0 0 0 0 0 0 0 0 0 0 0 0 0.25 0"/>
<feBlend mode="normal" in2="BackgroundImageFix" result="effect1_dropShadow_109_7419"/>
<feBlend mode="normal" in="SourceGraphic" in2="effect1_dropShadow_109_7419" result="shape"/>
</filter>
</defs>
</svg>
