<svg width="262" height="117" viewBox="0 0 262 117" fill="none" xmlns="http://www.w3.org/2000/svg">
<g filter="url(#filter0_d_109_452)">
<path fill-rule="evenodd" clip-rule="evenodd" d="M52.4013 0L209.442 0C236.173 0 257.843 21.6673 257.843 48.3952C257.843 75.1231 236.173 96.7904 209.442 96.7904L142.884 96.7904L142.888 96.794L130.931 108.751L118.974 96.794L118.978 96.7904L52.4013 96.7904C25.67 96.7904 4 75.1231 4 48.3952C4 21.6673 25.67 0 52.4013 0Z" fill="#F06673"/>
<path d="M109.136 38.62V36.24C110.816 35.58 112.176 32.98 112.176 29.52V24.6H109.336V22.32H117.616V24.6H114.916V29.52C114.916 32.98 115.996 35.08 117.936 36.06V38.44C116.136 37.84 114.416 36.48 113.576 34.64C112.656 36.5 110.996 38 109.136 38.62ZM119.216 39.28V30.54H116.436V28.1H119.216V21.92H121.776V39.28H119.216ZM123.276 39.68V21.82H125.836V39.68H123.276ZM130.74 38.12V25H128.34V22.6H133.46V38.12H130.74ZM137.844 39.6V34H140.564V37.36H153.244V39.6H137.844ZM150.124 35.3V21.82H152.844V26.7H155.244V29.14H152.844V35.3H150.124ZM137.044 24.22V21.98H147.644V29.72H144.924V24.22H137.044ZM136.544 32.74V30.6H139.824V26.82H142.664V30.6H149.324V32.74H136.544ZM39.0654 71.64V64.304H55.9214V62.764H39.0654V59.88H59.7854V67.076H42.9294V68.756H60.3454V71.64H39.0654ZM37.5254 58.928V55.876C40.9974 55.344 43.4614 52.88 43.5454 50.052H37.6654V47.028H53.0654V50.052H47.4934C47.5494 52.824 49.7334 54.952 53.2054 55.652V58.704C50.0974 58.144 47.2974 56.688 45.5054 54.728C43.6574 56.968 40.9134 58.34 37.5254 58.928ZM55.9774 58.9V46.748H59.7854V51.06H63.1454V54.476H59.7854V58.9H55.9774ZM66.2309 71.92V68.728C68.9469 68.224 70.4309 65.816 70.4309 63.38V62.26H74.3509V63.38C74.3509 65.816 75.5829 68.112 77.4309 68.728C79.2509 68.112 80.5109 65.816 80.5109 63.38V62.26H84.4309V63.38C84.4309 65.816 85.9149 68.224 88.6309 68.728V71.92C86.1389 71.668 83.7589 70.184 82.5829 68.252C81.5189 69.96 79.5589 71.416 77.4309 71.92C75.2469 71.416 73.3429 69.96 72.2789 68.252C71.1029 70.184 68.7229 71.668 66.2309 71.92ZM78.2429 61.42V46.888H81.8269V52.432H84.2069V46.748H87.7909V61.42H84.2069V55.848H81.8269V61.42H78.2429ZM71.5789 60.804H69.8429C66.3709 60.804 64.2709 58.9 64.2709 56.212C64.2709 53.524 66.3709 51.62 69.8429 51.62H71.5789C75.0509 51.62 77.1509 53.524 77.1509 56.212C77.1509 58.9 75.0509 60.804 71.5789 60.804ZM64.1309 50.752V47.868H68.6949V45.964H72.7269V47.868H77.2909V50.752H64.1309ZM70.1509 57.78H71.2709C72.6709 57.78 73.5669 57.108 73.5669 56.212C73.5669 55.316 72.6709 54.644 71.2709 54.644H70.1509C68.7509 54.644 67.8549 55.316 67.8549 56.212C67.8549 57.108 68.7509 57.78 70.1509 57.78ZM90.7364 60.328V57.332H110.028V49.996H92.2764V46.86H113.836V57.332H115.656V60.328H105.744V65.9H101.768V60.328H90.7364ZM92.5564 71.64V62.96H96.3644V68.504H114.116V71.64H92.5564ZM119.862 68.504C119.862 67.048 120.926 65.984 122.382 65.984C123.838 65.984 124.902 67.048 124.902 68.504C124.902 69.96 123.838 71.024 122.382 71.024C120.926 71.024 119.862 69.96 119.862 68.504ZM120.618 63.408L120.226 47.84H124.538L124.146 63.408H120.618ZM137.858 71.64V64.304H154.714V62.764H137.858V59.88H158.578V67.076H141.722V68.756H159.138V71.64H137.858ZM136.318 58.928V55.876C139.79 55.344 142.254 52.88 142.338 50.052H136.458V47.028H151.858V50.052H146.286C146.342 52.824 148.526 54.952 151.998 55.652V58.704C148.89 58.144 146.09 56.688 144.298 54.728C142.45 56.968 139.706 58.34 136.318 58.928ZM154.77 58.9V46.748H158.578V51.06H161.938V54.476H158.578V58.9H154.77ZM165.024 71.92V68.728C167.74 68.224 169.224 65.816 169.224 63.38V62.26H173.144V63.38C173.144 65.816 174.376 68.112 176.224 68.728C178.044 68.112 179.304 65.816 179.304 63.38V62.26H183.224V63.38C183.224 65.816 184.708 68.224 187.424 68.728V71.92C184.932 71.668 182.552 70.184 181.376 68.252C180.312 69.96 178.352 71.416 176.224 71.92C174.04 71.416 172.136 69.96 171.072 68.252C169.896 70.184 167.516 71.668 165.024 71.92ZM177.036 61.42V46.888H180.62V52.432H183V46.748H186.584V61.42H183V55.848H180.62V61.42H177.036ZM170.372 60.804H168.636C165.164 60.804 163.064 58.9 163.064 56.212C163.064 53.524 165.164 51.62 168.636 51.62H170.372C173.844 51.62 175.944 53.524 175.944 56.212C175.944 58.9 173.844 60.804 170.372 60.804ZM162.924 50.752V47.868H167.488V45.964H171.52V47.868H176.084V50.752H162.924ZM168.944 57.78H170.064C171.464 57.78 172.36 57.108 172.36 56.212C172.36 55.316 171.464 54.644 170.064 54.644H168.944C167.544 54.644 166.648 55.316 166.648 56.212C166.648 57.108 167.544 57.78 168.944 57.78ZM190.509 63.38V53.916C190.509 49.436 193.477 46.888 197.929 46.888C202.381 46.888 205.349 49.436 205.349 53.916V56.66H208.821V46.748H212.629V71.752H208.821V60.076H205.349V63.38C205.349 67.86 202.381 70.408 197.929 70.408C193.477 70.408 190.509 67.86 190.509 63.38ZM201.541 63.464V53.832C201.541 51.536 200.169 50.08 197.929 50.08C195.689 50.08 194.317 51.536 194.317 53.832V63.464C194.317 65.76 195.689 67.216 197.929 67.216C200.169 67.216 201.541 65.76 201.541 63.464ZM218.655 68.504C218.655 67.048 219.719 65.984 221.175 65.984C222.631 65.984 223.695 67.048 223.695 68.504C223.695 69.96 222.631 71.024 221.175 71.024C219.719 71.024 218.655 69.96 218.655 68.504ZM219.411 63.408L219.019 47.84H223.331L222.939 63.408H219.411Z" fill="white"/>
</g>
<defs>
<filter id="filter0_d_109_452" x="0" y="0" width="261.843" height="116.751" filterUnits="userSpaceOnUse" color-interpolation-filters="sRGB">
<feFlood flood-opacity="0" result="BackgroundImageFix"/>
<feColorMatrix in="SourceAlpha" type="matrix" values="0 0 0 0 0 0 0 0 0 0 0 0 0 0 0 0 0 0 127 0" result="hardAlpha"/>
<feOffset dy="4"/>
<feGaussianBlur stdDeviation="2"/>
<feComposite in2="hardAlpha" operator="out"/>
<feColorMatrix type="matrix" values="0 0 0 0 0 0 0 0 0 0 0 0 0 0 0 0 0 0 0.25 0"/>
<feBlend mode="normal" in2="BackgroundImageFix" result="effect1_dropShadow_109_452"/>
<feBlend mode="normal" in="SourceGraphic" in2="effect1_dropShadow_109_452" result="shape"/>
</filter>
</defs>
</svg>
