<svg width="264" height="108" viewBox="0 0 264 108" fill="none" xmlns="http://www.w3.org/2000/svg">
<g filter="url(#filter0_d_22_2135)">
<path fill-rule="evenodd" clip-rule="evenodd" d="M215 0H49C24.15 0 4 20.15 4 45C4 69.85 24.15 90 49 90H122L132 100L142 90H215C239.85 90 260 69.85 260 45C260 20.15 239.85 0 215 0Z" fill="white"/>
</g>
<path d="M112.941 53.216H105.261C101.877 53.216 99.7408 51.536 99.7408 48.848C99.7408 46.16 101.877 44.48 105.261 44.48H112.941C116.325 44.48 118.461 46.16 118.461 48.848C118.461 51.536 116.325 53.216 112.941 53.216ZM99.2608 43.064V31.976H102.525V34.88H108.957V31.976H112.221V43.064H99.2608ZM114.717 43.952V31.784H117.981V35.96H120.861V38.888H117.981V43.952H114.717ZM105.453 50.624H112.749C114.213 50.624 115.197 49.952 115.197 48.848C115.197 47.744 114.213 47.072 112.749 47.072H105.453C103.989 47.072 103.005 47.744 103.005 48.848C103.005 49.952 103.989 50.624 105.453 50.624ZM102.525 40.472H108.957V37.472H102.525V40.472ZM122.305 42.584V32.024H135.265V33.704H138.241V31.784H141.505V43.736H138.241V40.904H135.265V42.584H122.305ZM136.393 53.216H128.857C125.401 53.216 123.265 51.488 123.265 48.728C123.265 45.968 125.401 44.24 128.857 44.24H136.393C139.849 44.24 141.985 45.968 141.985 48.728C141.985 51.488 139.849 53.216 136.393 53.216ZM129.073 50.624H136.177C137.737 50.624 138.721 49.88 138.721 48.728C138.721 47.576 137.737 46.832 136.177 46.832H129.073C127.513 46.832 126.529 47.576 126.529 48.728C126.529 49.88 127.513 50.624 129.073 50.624ZM125.569 39.992H132.001V34.616H125.569V39.992ZM135.265 38.264H138.241V36.344H135.265V38.264ZM144.51 45.608V43.04H153.726V41.624H146.07V35.504H160.998V34.352H146.07V31.88H164.31V37.88H149.382V39.152H164.79V41.624H157.134V43.04H165.87V45.608H144.51ZM145.83 49.328V46.64H164.31V53.216H161.046V49.328H145.83Z" fill="#4D4D4D"/>
<defs>
<filter id="filter0_d_22_2135" x="0" y="0" width="264" height="108" filterUnits="userSpaceOnUse" color-interpolation-filters="sRGB">
<feFlood flood-opacity="0" result="BackgroundImageFix"/>
<feColorMatrix in="SourceAlpha" type="matrix" values="0 0 0 0 0 0 0 0 0 0 0 0 0 0 0 0 0 0 127 0" result="hardAlpha"/>
<feOffset dy="4"/>
<feGaussianBlur stdDeviation="2"/>
<feComposite in2="hardAlpha" operator="out"/>
<feColorMatrix type="matrix" values="0 0 0 0 0 0 0 0 0 0 0 0 0 0 0 0 0 0 0.25 0"/>
<feBlend mode="normal" in2="BackgroundImageFix" result="effect1_dropShadow_22_2135"/>
<feBlend mode="normal" in="SourceGraphic" in2="effect1_dropShadow_22_2135" result="shape"/>
</filter>
</defs>
</svg>
