<svg width="256" height="256" viewBox="0 0 256 256" fill="none" xmlns="http://www.w3.org/2000/svg">
<path d="M100.61 145.88L96.71 143.91L94.89 61.3401H100.73L100.61 145.88Z" fill="#140035"/>
<path d="M103.81 144.39L100.61 145.88L100.73 61.3401H105.54L103.81 144.39Z" fill="white"/>
<path d="M100.37 61.34V60.98H105.91L104.17 144.4V144.63L100.25 146.45L100.37 61.35V61.34ZM105.17 61.7H101.1L100.98 145.3L103.45 144.16L105.16 61.71L105.17 61.7Z" fill="black"/>
<path d="M87.68 21.6501C91.15 19.6401 94.28 19.5301 96.5 20.9501L133.36 42.2301L114.34 70.8001L78.96 50.5001C76.83 49.2001 75.51 46.5101 75.51 42.7101C75.51 34.9601 80.95 25.5301 87.67 21.6501H87.68Z" fill="#140035"/>
<path d="M105.62 27.88C109.55 25.61 113.14 25.21 115.89 26.39L115.95 26.41C115.97 26.42 148.62 40.02 165.49 37.87C170.6 37.22 178.08 37.87 182.5 41.5L144 116.8C144 116.8 137.04 116.3 132.02 109.24C130.7 107.38 129.67 105.21 128.62 102.75C121.89 87.01 108.74 74.88 94.62 65.18C91.74 63.56 89.96 60.04 89.96 55C89.96 45.01 96.97 32.87 105.62 27.88Z" fill="#3DD3B6"/>
<path d="M143.99 117.12C143.92 117.12 136.82 116.52 131.77 109.42C130.36 107.44 129.29 105.11 128.33 102.87C122.57 89.3901 111.49 77.1501 94.48 65.4501C91.36 63.7001 89.65 59.9901 89.65 54.9901C89.65 44.9201 96.75 32.6201 105.47 27.5801C109.22 25.4201 112.86 24.8501 115.76 25.9601L116.08 26.0901C116.4 26.2301 148.82 39.6401 165.45 37.5201C170.54 36.8701 178.11 37.4501 182.71 41.2201L182.91 41.3901L144.29 116.93L144.19 117.12H143.97H143.99ZM165.54 38.1801C149.56 40.2201 119.58 28.2601 116.09 26.8101L115.77 26.6801C113.02 25.5001 109.48 26.0201 105.79 28.1501C97.24 33.0901 90.29 45.1201 90.29 54.9901C90.29 59.7401 91.89 63.2501 94.81 64.9001C111.95 76.6801 123.11 89.0201 128.92 102.61C129.86 104.81 130.92 107.11 132.29 109.04C136.67 115.2 142.63 116.28 143.82 116.44L182.1 41.5701C177.92 38.3001 170.8 37.5001 165.54 38.1801Z" fill="#140035"/>
<path d="M161.85 43.8999C178.44 34.3199 191.89 42.0899 191.89 61.2399C191.89 80.3999 178.44 103.69 161.85 113.27C145.26 122.85 131.81 115.09 131.81 95.9299C131.81 76.7699 145.26 53.4799 161.85 43.8999Z" fill="#140035"/>
<path d="M149.64 59.7999C153.79 54.5999 158.62 50.1999 163.77 47.2299C167.84 44.8799 171.8 43.6399 175.26 43.6399C183.26 43.6399 188.04 50.2199 188.04 61.2399C188.04 79.1499 175.43 101 159.93 109.94C155.85 112.29 151.89 113.53 148.43 113.53C140.43 113.53 135.65 106.95 135.65 95.9299C135.65 89.9799 137.04 83.5899 139.47 77.3899C141.92 71.1299 145.44 65.0499 149.64 59.7899V59.7999Z" fill="white"/>
<path d="M135.49 95.94C135.49 90.17 136.82 83.75 139.33 77.35C141.78 71.09 145.3 64.99 149.52 59.71C153.81 54.34 158.71 49.98 163.7 47.1C167.8 44.73 171.8 43.48 175.27 43.48C183.37 43.48 188.21 50.12 188.21 61.25C188.21 79.21 175.56 101.12 160.01 110.09C155.9 112.46 151.9 113.71 148.43 113.71C140.33 113.71 135.49 107.07 135.49 95.94ZM163.86 47.38C158.91 50.23 154.04 54.57 149.77 59.91C145.57 65.16 142.07 71.23 139.63 77.47C137.14 83.83 135.82 90.22 135.82 95.94C135.82 106.86 140.53 113.38 148.43 113.38C151.84 113.38 155.79 112.14 159.85 109.81C175.31 100.89 187.88 79.11 187.88 61.25C187.88 50.33 183.17 43.81 175.27 43.81C171.85 43.81 167.91 45.04 163.86 47.38Z" fill="#140035"/>
<path d="M148.43 114.56C139.79 114.56 134.63 107.6 134.63 95.9401C134.63 90.0701 135.98 83.5301 138.52 77.0301C141 70.6901 144.57 64.5101 148.84 59.1701C153.2 53.7101 158.18 49.2801 163.26 46.3501C167.49 43.9101 171.64 42.6201 175.26 42.6201C183.9 42.6201 189.06 49.5801 189.06 61.2401C189.06 79.4701 176.22 101.71 160.44 110.83C156.2 113.27 152.05 114.56 148.43 114.56ZM175.27 44.6601C172.01 44.6601 168.21 45.8601 164.29 48.1101C159.43 50.9101 154.64 55.1701 150.44 60.4301C146.3 65.6201 142.83 71.6101 140.43 77.7701C137.98 84.0301 136.68 90.3101 136.68 95.9301C136.68 106.31 141.07 112.51 148.44 112.51C151.7 112.51 155.5 111.31 159.43 109.05C174.65 100.27 187.03 78.8101 187.03 61.2301C187.03 50.8501 182.63 44.6501 175.27 44.6501V44.6601Z" fill="#3DD3B6"/>
<path d="M134.31 95.9401C134.31 90.0301 135.66 83.4501 138.22 76.9201C140.71 70.5501 144.3 64.3401 148.59 58.9701C152.97 53.4801 157.99 49.0201 163.1 46.0801C167.38 43.6101 171.58 42.3101 175.26 42.3101C184.1 42.3101 189.38 49.3901 189.38 61.2501C189.38 79.5801 176.47 101.95 160.6 111.12C156.31 113.59 152.1 114.89 148.43 114.89C139.59 114.89 134.31 107.81 134.31 95.9501V95.9401ZM160.28 110.55C175.97 101.49 188.74 79.3701 188.74 61.2501C188.74 49.7901 183.71 42.9601 175.27 42.9601C171.71 42.9601 167.61 44.2301 163.43 46.6501C158.39 49.5501 153.43 53.9601 149.1 59.3801C144.85 64.7001 141.3 70.8501 138.83 77.1601C136.3 83.6201 134.96 90.1101 134.96 95.9501C134.96 107.4 140 114.24 148.43 114.24C151.99 114.24 156.09 112.97 160.28 110.56V110.55ZM136.35 95.9401C136.35 90.2801 137.65 83.9601 140.12 77.6601C142.54 71.4801 146.02 65.4501 150.18 60.2401C154.41 54.9501 159.23 50.6601 164.12 47.8401C168.09 45.5501 171.95 44.3401 175.27 44.3401C182.84 44.3401 187.36 50.6601 187.36 61.2501C187.36 78.9401 174.9 100.52 159.59 109.36C155.61 111.65 151.76 112.86 148.44 112.86C140.87 112.86 136.35 106.54 136.35 95.9501V95.9401ZM164.45 48.4001C159.62 51.1801 154.87 55.4101 150.69 60.6401C146.57 65.8001 143.12 71.7701 140.73 77.8901C138.29 84.1101 137 90.3601 137 95.9301C137 106.11 141.27 112.19 148.44 112.19C151.64 112.19 155.39 111.01 159.27 108.78C174.4 100.05 186.71 78.7201 186.71 61.2401C186.71 51.0601 182.44 44.9801 175.27 44.9801C172.06 44.9801 168.32 46.1601 164.45 48.3901V48.4001Z" fill="#140035"/>
<path d="M173.65 65.1601C173.65 65.1601 170.62 62.9001 170.17 62.6801C169.07 62.1301 167.67 62.1301 166.14 62.8301C163.79 63.9001 161.73 66.3201 160.61 69.0401L158.56 67.7301C157.5 67.2901 156.19 67.3401 154.77 67.9901C151.22 69.6001 148.34 74.2701 148.33 78.4301C148.33 81.1601 149.88 83.4101 151.88 85.1701L156.59 88.6701L173.65 65.1701V65.1601Z" fill="#140035"/>
<path d="M168.96 64.88C166.49 66 164.34 68.61 163.26 71.5C162.19 69.59 160.05 68.92 157.58 70.04C154.03 71.65 151.15 76.32 151.14 80.48C151.14 88.08 163.22 91.98 163.22 91.98C163.22 91.98 175.34 77.1 175.36 69.5C175.36 65.34 172.5 63.27 168.95 64.88H168.96Z" fill="#3DD3B6"/>
<path d="M163.13 92.2899C162.63 92.1299 150.81 88.2299 150.82 80.4799C150.82 76.2099 153.8 71.3999 157.45 69.7499C159.78 68.6899 161.92 69.1099 163.19 70.7999C164.39 67.9799 166.51 65.6399 168.82 64.5899C170.56 63.7999 172.23 63.8299 173.52 64.6599C174.9 65.5499 175.7 67.3199 175.69 69.5099C175.68 77.1399 163.98 91.5899 163.48 92.1999L163.34 92.3699L163.13 92.2999V92.2899ZM169.09 65.1799C166.77 66.2299 164.66 68.6899 163.57 71.6199L163.33 72.2799L162.99 71.6599C161.97 69.8299 159.95 69.3299 157.73 70.3299C154.3 71.8899 151.49 76.4399 151.48 80.4699C151.48 87.1999 161.54 91.0299 163.13 91.5899C164.48 89.8899 175.04 76.4499 175.05 69.4899C175.05 67.5299 174.37 65.9599 173.17 65.1899C172.62 64.8299 171.97 64.6499 171.28 64.6499C170.59 64.6499 169.86 64.8199 169.1 65.1699L169.09 65.1799Z" fill="#140035"/>
<g style="mix-blend-mode:multiply">
<path d="M121.97 178.29L70.6 148.55C69.24 147.75 67.02 147.75 65.65 148.55L30.5 168.8C29.12 169.59 29.11 170.88 30.48 171.66L81.85 201.4C83.21 202.2 85.43 202.2 86.8 201.4L121.95 181.15C123.33 180.36 123.33 179.07 121.97 178.28V178.29Z" fill="#C1C2C7"/>
</g>
<path d="M122.98 177.9C122.98 178.42 122.64 178.94 121.95 179.34L86.8 199.59C85.43 200.38 83.21 200.38 81.85 199.59L30.48 169.86C29.8 169.47 29.47 168.95 29.46 168.44V170.25C29.46 170.76 29.8 171.28 30.48 171.67L81.85 201.4C83.21 202.19 85.43 202.19 86.8 201.4L121.95 181.15C122.64 180.75 122.98 180.23 122.98 179.71V177.9Z" fill="#131A2D"/>
<path d="M121.97 176.48L70.6 146.74C69.24 145.94 67.02 145.94 65.65 146.74L30.5 166.99C29.12 167.78 29.11 169.06 30.48 169.85L81.85 199.59C83.21 200.39 85.43 200.39 86.8 199.59L121.95 179.34C123.33 178.55 123.33 177.26 121.97 176.48Z" fill="white"/>
<path d="M81.81 199.64L30.44 169.9C29.76 169.51 29.39 168.98 29.39 168.42C29.39 167.85 29.77 167.32 30.46 166.92L65.61 146.67C67 145.87 69.25 145.87 70.62 146.67L121.99 176.41C122.67 176.8 123.04 177.33 123.04 177.89C123.04 178.46 122.66 178.99 121.97 179.39L86.82 199.64C86.13 200.04 85.22 200.24 84.32 200.24C83.42 200.24 82.5 200.04 81.81 199.63V199.64ZM65.68 146.79L30.53 167.04C29.88 167.41 29.53 167.9 29.53 168.42C29.53 168.93 29.88 169.42 30.51 169.79L81.88 199.53C83.22 200.31 85.41 200.32 86.76 199.53L121.91 179.28C122.56 178.91 122.91 178.42 122.91 177.9C122.91 177.39 122.56 176.9 121.93 176.53L70.56 146.79C69.89 146.4 69 146.2 68.12 146.2C67.24 146.2 66.36 146.39 65.68 146.78V146.79Z" fill="#131A2D"/>
<path d="M119.67 175.88L80.76 198.3L30.32 169.05L69.23 146.63L119.67 175.88Z" fill="white"/>
<path d="M30.28 169.1L30.18 169.04L69.19 146.57L69.22 146.55L119.7 175.82L119.8 175.88L80.79 198.35L80.76 198.37L30.28 169.1ZM69.22 146.7L30.44 169.04L80.75 198.21L119.53 175.87L69.22 146.7Z" fill="#131A2D"/>
<path d="M37.27 174.69L34.24 172.94C34.1 172.86 33.98 172.92 33.98 173.09V173.17C33.98 173.34 34.09 173.54 34.24 173.62L37.27 175.37C37.41 175.45 37.53 175.38 37.53 175.22V175.14C37.53 174.97 37.41 174.77 37.27 174.69Z" fill="white"/>
<path d="M37.24 175.43L34.21 173.68C34.05 173.59 33.92 173.36 33.92 173.17V173.09C33.92 172.98 33.96 172.9 34.03 172.86C34.1 172.82 34.19 172.83 34.28 172.88L37.31 174.63C37.47 174.72 37.6 174.95 37.6 175.14V175.22C37.6 175.32 37.56 175.41 37.49 175.45C37.46 175.47 37.43 175.48 37.39 175.48C37.34 175.48 37.29 175.47 37.24 175.44V175.43ZM34.1 172.98C34.1 172.98 34.06 173.04 34.06 173.09V173.17C34.06 173.31 34.16 173.49 34.29 173.56L37.32 175.31C37.32 175.31 37.41 175.34 37.44 175.33C37.47 175.31 37.48 175.27 37.48 175.22V175.14C37.48 175 37.38 174.82 37.25 174.75L34.22 173C34.22 173 34.16 172.97 34.14 172.97C34.13 172.97 34.12 172.97 34.11 172.97L34.1 172.98Z" fill="#131A2D"/>
<path d="M37.7 174.89C37.68 174.83 37.65 174.77 37.61 174.72C37.57 174.66 37.52 174.61 37.46 174.58L34.43 172.83C34.36 172.79 34.3 172.78 34.25 172.81L34.06 172.92C34.06 172.92 34.17 172.9 34.24 172.94L37.27 174.69C37.32 174.72 37.38 174.77 37.42 174.83C37.46 174.88 37.49 174.94 37.51 175C37.53 175.05 37.54 175.1 37.54 175.15V175.23C37.54 175.31 37.51 175.37 37.46 175.4L37.65 175.29C37.65 175.29 37.73 175.2 37.73 175.12V175.04C37.73 175.04 37.73 174.94 37.7 174.89Z" fill="#EFEFF4"/>
<path d="M40.65 176.47C40.61 176.41 40.56 176.37 40.5 176.33L39.07 175.5C39 175.46 38.93 175.45 38.89 175.48L38.7 175.59C38.7 175.59 38.81 175.57 38.88 175.61L40.31 176.44C40.36 176.47 40.42 176.52 40.46 176.58C40.5 176.63 40.53 176.69 40.55 176.75C40.57 176.8 40.58 176.85 40.58 176.9V176.98C40.58 177.06 40.55 177.12 40.5 177.15L40.69 177.04C40.69 177.04 40.77 176.95 40.77 176.87V176.79C40.77 176.79 40.77 176.69 40.74 176.64C40.72 176.58 40.69 176.52 40.65 176.47Z" fill="#EFEFF4"/>
<path d="M40.31 176.44L38.88 175.61C38.74 175.53 38.62 175.59 38.62 175.76V175.84C38.62 176.01 38.73 176.21 38.88 176.29L40.31 177.12C40.45 177.2 40.57 177.13 40.57 176.97V176.89C40.57 176.72 40.45 176.52 40.31 176.44Z" fill="white"/>
<path d="M40.28 177.18L38.85 176.35C38.69 176.26 38.56 176.03 38.56 175.84V175.76C38.56 175.65 38.6 175.57 38.67 175.53C38.74 175.49 38.83 175.5 38.92 175.55L40.35 176.38C40.51 176.47 40.64 176.7 40.64 176.89V176.97C40.64 177.07 40.6 177.16 40.53 177.2C40.5 177.22 40.47 177.23 40.43 177.23C40.38 177.23 40.33 177.22 40.28 177.19V177.18ZM38.73 175.65C38.73 175.65 38.69 175.71 38.69 175.76V175.84C38.69 175.98 38.79 176.16 38.92 176.23L40.35 177.06C40.35 177.06 40.44 177.09 40.47 177.08C40.5 177.06 40.51 177.02 40.51 176.97V176.89C40.51 176.75 40.41 176.57 40.29 176.5L38.86 175.67C38.86 175.67 38.8 175.64 38.78 175.64C38.77 175.64 38.76 175.64 38.75 175.64L38.73 175.65Z" fill="#131A2D"/>
<path d="M51.99 155.4L47.39 158.06C47.25 158.14 47.23 158.27 47.36 158.34C47.48 158.41 47.7 158.4 47.84 158.32L52.44 155.66C52.58 155.58 52.6 155.45 52.47 155.38C52.35 155.31 52.13 155.32 51.99 155.4Z" fill="#131A2D"/>
<mask id="mask0_109_7142" style="mask-type:luminance" maskUnits="userSpaceOnUse" x="30" y="146" width="90" height="53">
<path d="M119.67 175.88L80.76 198.3L30.32 169.05L69.23 146.63L119.67 175.88Z" fill="white"/>
</mask>
<g mask="url(#mask0_109_7142)">
<path d="M82.57 173.97C83.96 173.42 87.33 173.13 88.48 172.13C89.64 171.13 88.7 170.47 87.31 170.2C85.87 169.92 84.64 170.08 84.05 170.26C83.46 170.44 81.7 170.76 79.74 170.38C78.16 170.07 77.84 171.41 77.79 171.97C77.74 172.61 77.68 176.32 77.68 176.32L82.03 175.61C82.03 175.61 81.98 174.19 82.57 173.96V173.97Z" fill="black"/>
<path d="M80.76 197.67C81.56 193.21 82.94 177.78 82.87 175.56C82.84 174.39 77.27 172.27 76.8 174.88C75.2 183.8 73.89 194.55 73.9 195.72C73.9 199.29 80.26 200.48 80.76 197.67Z" fill="#131A2D"/>
<path d="M63.45 180.84C63.55 181.63 63.87 182.24 63.87 182.24L67.66 181.51C67.66 181.51 67.79 180.99 67.76 180.75C67.73 180.51 67.94 178.26 68.17 177.25C68.4 176.24 68.41 174.28 67.03 173.81C65.64 173.34 65.11 173.8 64.09 174.95C63.06 176.11 63.09 177.33 63.15 177.83C63.2 178.33 63.35 180.04 63.45 180.83V180.84Z" fill="black"/>
<path d="M70.73 204.18C70.73 199.64 69.37 184.2 68.92 182.04C68.68 180.89 62.84 179.99 62.84 182.65C62.84 191.74 63.44 202.56 63.65 203.71C64.28 207.21 70.73 207.04 70.73 204.18Z" fill="black"/>
<path d="M79.84 219.67C81.44 210.75 81.13 196.41 81.12 195.24C81.12 191.67 74.94 190.75 74.1 193.45C73.45 195.53 72.22 202.78 71.73 204.88C71.24 206.98 70.35 210.11 70.42 212.33C70.45 213.5 79.37 222.27 79.84 219.66V219.67Z" fill="#131A2D"/>
<path d="M73.19 226.01C73.19 216.92 70.86 202.87 70.65 201.72C70.01 198.22 63.8 198.61 63.44 201.44C63.17 203.61 62.04 219.02 62.83 221.97C63.13 223.1 73.19 228.67 73.19 226.01Z" fill="#433BB4"/>
</g>
<g opacity="0.6">
<path d="M30.32 169.05L31.1 169.5L80.77 198.3L119.67 175.88L103.96 166.77L90.54 158.98L85.71 156.19L79.01 152.3L69.23 146.63L58.02 153.09L50.34 157.51L44.81 160.7L30.32 169.05Z" fill="#3DD3B6"/>
<path d="M31.06 169.55L30.18 169.04L69.19 146.57L69.22 146.55L119.7 175.82L119.8 175.88L80.79 198.36L80.76 198.38L31.06 169.56V169.55ZM69.22 146.7L30.44 169.04L80.76 198.22L119.54 175.88L69.22 146.71V146.7Z" fill="#131A2D"/>
</g>
<g style="mix-blend-mode:screen" opacity="0.16">
<path d="M30.32 169.05L31.1 169.5L103.96 166.77L90.54 158.98L44.81 160.7L30.32 169.05Z" fill="white"/>
</g>
<g style="mix-blend-mode:screen" opacity="0.16">
<path d="M50.34 157.51L85.71 156.19L79.01 152.3L58.02 153.09L50.34 157.51Z" fill="white"/>
</g>
<path d="M97.11 111.35C96.66 111.64 95.21 111.61 94.99 111.62C94.77 111.62 94.71 114.25 94.71 114.25C94.71 114.25 96.94 114.33 97.44 114.51C97.95 114.7 98.14 114.67 99.25 114.69C100.52 114.71 99.99 113.91 101.09 113.68C101.24 113.65 101.5 113.04 101.37 112.68C101.23 112.31 100.1 112.76 99.59 112.15C99.41 111.93 99.8 111.92 99.96 111.9C100.35 111.82 101.16 111.74 101.23 111.2C101.32 110.51 100.2 111.18 99.12 110.94C98.8 110.87 97.56 111.08 97.11 111.37V111.35Z" fill="white"/>
<path d="M99.26 114.76C99.09 114.76 98.93 114.76 98.8 114.76C98.08 114.76 97.86 114.75 97.43 114.59C96.94 114.41 94.74 114.33 94.72 114.33H94.65V114.26C94.71 111.57 94.93 111.56 95 111.56C95.03 111.56 95.07 111.56 95.12 111.56C95.51 111.56 96.69 111.55 97.08 111.3C97.56 111 98.81 110.79 99.14 110.86C99.59 110.96 100.06 110.9 100.44 110.85C100.82 110.8 101.09 110.76 101.23 110.9C101.3 110.97 101.32 111.07 101.31 111.2C101.24 111.74 100.54 111.86 100.12 111.94C100.08 111.94 100.03 111.95 100 111.96C99.97 111.96 99.94 111.96 99.91 111.97C99.84 111.97 99.66 112 99.64 112.04C99.64 112.04 99.64 112.06 99.67 112.1C99.94 112.42 100.41 112.43 100.78 112.44C101.1 112.44 101.38 112.45 101.46 112.65C101.56 112.91 101.47 113.3 101.34 113.54C101.27 113.66 101.2 113.73 101.14 113.74C100.66 113.84 100.5 114.05 100.36 114.26C100.18 114.51 100.01 114.75 99.34 114.75C99.32 114.75 99.3 114.75 99.29 114.75L99.26 114.76ZM100.45 110.98C100.06 111.03 99.58 111.1 99.11 110.99C98.8 110.92 97.59 111.13 97.15 111.41C96.73 111.67 95.56 111.68 95.12 111.69C95.08 111.69 95.04 111.69 95.02 111.69C94.91 111.83 94.82 113.05 94.79 114.19C95.17 114.2 97.01 114.28 97.48 114.45C97.9 114.6 98.09 114.61 98.81 114.61C98.94 114.61 99.1 114.61 99.27 114.61C99.92 114.61 100.06 114.41 100.23 114.17C100.38 113.95 100.56 113.71 101.09 113.6C101.1 113.6 101.15 113.57 101.2 113.46C101.32 113.25 101.4 112.91 101.31 112.68C101.27 112.56 101.03 112.56 100.76 112.55C100.36 112.55 99.85 112.53 99.55 112.16C99.49 112.09 99.47 112.02 99.5 111.97C99.55 111.86 99.72 111.83 99.88 111.81C99.91 111.81 99.94 111.81 99.96 111.8C100 111.8 100.04 111.79 100.09 111.78C100.5 111.71 101.12 111.6 101.18 111.16C101.19 111.07 101.18 111.01 101.14 110.97C101.1 110.93 101.02 110.91 100.92 110.91C100.8 110.91 100.64 110.93 100.46 110.96L100.45 110.98Z" fill="black"/>
<path d="M73.03 100.05C75.72 100.39 78.09 101 81.18 107.15C84.26 113.3 85.12 114.65 84.54 116.13C83.97 117.61 81.82 119.37 78.69 114.6C75.57 109.83 72.08 106.61 71.65 105.82C69.6 102.09 71.3 99.8299 73.03 100.05Z" fill="black"/>
<path d="M83.45 117.81C88.5 118.26 96.52 115.16 96.52 115.16C97.53 112.22 95.15 111.16 95.15 111.16C95.15 111.16 89.87 112.49 83.62 112.49C80.44 112.49 78.4 117.36 83.45 117.81Z" fill="black"/>
<path d="M82.5 167.83C83.89 168.38 87.26 168.67 88.41 169.67C89.57 170.67 88.63 171.33 87.24 171.6C85.8 171.88 84.57 171.72 83.98 171.54C83.39 171.36 81.63 171.04 79.67 171.42C78.09 171.73 77.77 170.4 77.72 169.83C77.67 169.19 77.61 165.48 77.61 165.48L81.96 166.19C81.96 166.19 81.91 167.61 82.5 167.84V167.83Z" fill="black"/>
<path d="M80.7 144.13C81.5 148.59 82.88 164.02 82.81 166.24C82.78 167.41 77.21 169.53 76.74 166.92C75.14 158 73.83 147.25 73.84 146.08C73.84 142.51 80.2 141.32 80.7 144.13Z" fill="#131A2D"/>
<path d="M63.39 171.69C63.49 170.9 63.81 170.29 63.81 170.29L67.6 171.02C67.6 171.02 67.73 171.54 67.7 171.78C67.67 172.02 67.88 174.27 68.11 175.28C68.34 176.28 68.35 178.24 66.97 178.72C65.58 179.19 65.05 178.74 64.03 177.58C63 176.42 63.03 175.2 63.09 174.7C63.14 174.2 63.29 172.49 63.39 171.7V171.69Z" fill="black"/>
<path d="M70.66 148.35C70.66 152.89 69.3 168.33 68.85 170.49C68.61 171.64 62.77 172.54 62.77 169.88C62.77 160.79 63.37 149.97 63.58 148.82C64.21 145.32 70.66 145.49 70.66 148.35Z" fill="black"/>
<path d="M79.77 122.13C81.37 131.05 81.06 145.39 81.05 146.56C81.05 150.13 74.87 151.05 74.03 148.35C73.38 146.27 72.15 139.02 71.66 136.92C71.17 134.82 70.28 131.69 70.35 129.47C70.38 128.3 79.3 119.53 79.77 122.14V122.13Z" fill="#131A2D"/>
<path d="M73.13 126.52C73.13 135.61 70.8 149.66 70.59 150.81C69.95 154.31 63.74 153.92 63.38 151.09C63.11 148.91 61.98 133.51 62.77 130.56C63.07 129.43 73.13 123.86 73.13 126.52Z" fill="black"/>
<path d="M65 100.41C65.2 99.8999 65.51 99.2699 65.97 98.8099C66.24 98.5399 67.26 98.4099 67.26 98.4099L72.64 99.7699C72.64 99.7699 75.68 100.47 76.43 101.07C79.75 103.66 81.44 132.61 81.28 132.81C81.12 133.02 77.42 135.73 75.86 136.18L74.46 133.88L73.54 137.24C69.02 138.41 61.98 138.57 61.98 138.57L59.74 105.51L63.84 102.05C64.36 101.61 64.75 101.04 65 100.4V100.41Z" fill="#131A2D"/>
<path d="M72.92 100.39C73.37 100.74 73.7 101.22 73.89 101.76L75.61 104.61L74.35 105.5L75.51 106.64L73.13 113.44C73.13 113.44 72.19 107.92 72.33 106.18C72.45 104.66 72.33 103.31 72.42 102.49C72.65 100.42 71.24 99.89 71.24 99.89C71.85 99.71 72.47 100.04 72.92 100.4V100.39Z" fill="#130000"/>
<path d="M66.28 98.4201C68.28 96.8601 71.92 99.2801 72.75 102.34C73.1 103.62 73.11 108.93 73.1 109.35C73.05 111.22 73.01 112.37 73.01 112.37C72.6 111.11 69.77 106.42 69.24 105.53C68.29 103.95 67.39 102.61 66.76 101.84C65.18 99.8801 65.64 98.9301 66.28 98.4301V98.4201Z" fill="white"/>
<path d="M72.95 112.38C72.69 111.57 71.35 109.16 69.19 105.56C68.25 104 67.35 102.66 66.71 101.87C65.92 100.89 65.56 100.05 65.63 99.39C65.68 98.99 65.88 98.65 66.24 98.37C66.93 97.83 67.87 97.72 68.89 98.06C70.66 98.65 72.31 100.44 72.82 102.32C73.17 103.62 73.18 109.01 73.17 109.35C73.12 111.19 73.08 112.35 73.08 112.37V112.75L72.95 112.39V112.38ZM66.33 98.47C66 98.73 65.81 99.04 65.77 99.4C65.7 100.03 66.05 100.83 66.82 101.78C67.46 102.57 68.37 103.92 69.31 105.49C70.46 107.41 72.38 110.65 72.96 112.02C72.98 111.55 73.01 110.61 73.04 109.33C73.04 108.99 73.04 103.62 72.69 102.34C72.19 100.5 70.58 98.75 68.85 98.18C68.53 98.07 68.15 97.99 67.76 97.99C67.29 97.99 66.78 98.11 66.33 98.46V98.47Z" fill="black"/>
<path d="M72.95 103.83C73.06 104.93 73.17 106.46 73.13 107.99C73.12 108.47 73.11 108.93 73.1 109.35L72.55 111C72.55 111 70.93 108.54 70.83 108.34C70.32 107.37 69.77 106.41 69.24 105.53L70.93 103.43L72.94 103.84L72.95 103.83Z" fill="white"/>
<path d="M72.5 111.03C72.43 110.93 70.88 108.56 70.77 108.36C70.27 107.42 69.74 106.48 69.18 105.56L69.16 105.52L70.91 103.35L73.01 103.77V103.82C73.12 104.85 73.24 106.4 73.2 107.99V108.52C73.18 108.81 73.17 109.08 73.17 109.34L72.58 111.14L72.5 111.03ZM73.06 108.52V107.99C73.11 106.44 73 104.91 72.9 103.89L70.97 103.5L69.33 105.53C69.88 106.44 70.4 107.37 70.9 108.3C70.99 108.47 72.22 110.35 72.54 110.84L73.04 109.33C73.04 109.07 73.05 108.8 73.06 108.52Z" fill="black"/>
<path d="M66.94 96.77C66.94 96.77 71.4 99.19 71.4 100.3C71.4 101.41 70.21 102.34 70.21 102.34C68.58 102.34 66.99 100.58 66.41 99.86C66.26 99.68 66.23 99.43 66.31 99.21C66.87 97.67 66.94 96.78 66.94 96.78V96.77Z" fill="white"/>
<path d="M66.36 99.8999C66.2 99.6999 66.16 99.4299 66.25 99.1799C66.8 97.6699 66.88 96.7699 66.88 96.7599V96.6599L66.98 96.7099C67.16 96.8099 71.47 99.1699 71.47 100.3C71.47 101.43 70.31 102.35 70.26 102.39H70.24L70.22 102.4C68.57 102.4 66.98 100.65 66.37 99.8999H66.36ZM66.37 99.2299C66.3 99.4299 66.33 99.6599 66.46 99.8199C67.05 100.55 68.6 102.26 70.18 102.27C70.33 102.15 71.33 101.29 71.33 100.3C71.33 99.3299 67.61 97.2199 66.99 96.8799C66.96 97.1599 66.82 97.9699 66.37 99.2299Z" fill="black"/>
<path d="M65.9 94.2299C65.9 94.2299 64.47 88.5199 69.62 88.3799C74.77 88.2399 74.12 94.0499 73.86 94.6199C73.6 95.1899 73.98 95.1099 73.95 96.1099C73.91 97.4399 72.79 99.1599 72.63 99.7499C72.47 100.34 71.7 100.56 71.11 100.36C67.75 99.2099 66.97 97.2299 66.97 97.2299C66.45 97.3399 66.19 96.6599 66.09 96.2999C65.99 95.9399 65.94 95.8599 65.73 95.1199C65.52 94.3899 65.91 94.2199 65.91 94.2199L65.9 94.2299Z" fill="white"/>
<path d="M71.08 100.44C68.02 99.3999 67.07 97.6399 66.92 97.3199C66.53 97.3599 66.21 97.0199 66.02 96.3299C65.98 96.1899 65.95 96.0899 65.91 95.9799C65.85 95.8099 65.79 95.5999 65.66 95.1599C65.48 94.5299 65.72 94.2799 65.83 94.2099C65.75 93.8299 65.25 91.3199 66.47 89.7099C67.14 88.8299 68.2 88.3599 69.62 88.3299C71.28 88.2799 72.51 88.8499 73.27 89.9999C74.39 91.6899 74.12 94.2399 73.92 94.6699C73.79 94.9399 73.83 95.0499 73.89 95.2299C73.95 95.4099 74.03 95.6499 74.01 96.1399C73.98 97.0699 73.45 98.1599 73.05 98.9599C72.88 99.3099 72.73 99.6199 72.68 99.7999C72.61 100.04 72.45 100.24 72.2 100.37C72.01 100.47 71.77 100.53 71.54 100.53C71.38 100.53 71.22 100.5 71.07 100.45L71.08 100.44ZM69.62 88.4599C68.24 88.4999 67.21 88.9499 66.57 89.7899C65.29 91.4699 65.95 94.1899 65.96 94.2199V94.2699L65.92 94.2899C65.91 94.2899 65.6 94.4499 65.78 95.1099C65.9 95.5499 65.97 95.7499 66.03 95.9299C66.07 96.0399 66.1 96.1399 66.14 96.2899C66.25 96.6599 66.49 97.2699 66.94 97.1799H67L67.02 97.2199C67.02 97.2399 67.83 99.1899 71.12 100.31C71.45 100.42 71.85 100.4 72.14 100.24C72.35 100.13 72.49 99.9599 72.55 99.7499C72.6 99.5599 72.75 99.2599 72.93 98.8899C73.32 98.0999 73.84 97.0199 73.87 96.1199C73.88 95.6499 73.81 95.4199 73.75 95.2599C73.69 95.0599 73.64 94.9199 73.78 94.5999C73.92 94.2999 74.29 91.7899 73.14 90.0599C72.43 88.9899 71.31 88.4499 69.79 88.4499C69.73 88.4499 69.67 88.4499 69.61 88.4499L69.62 88.4599Z" fill="black"/>
<path d="M69.94 88.0101C74.76 88.2201 75.13 93.5401 73.35 93.5401C71.36 93.5401 69.34 91.4501 68.33 91.9301C67.14 92.5001 68.01 93.1201 68.01 95.5101C68.01 95.5101 67.94 96.3501 67.71 96.3501C67.39 96.3501 67.2 95.4901 67.14 95.2801C67.04 94.9001 66.32 93.7801 65.69 94.7301C63.96 90.8401 66.44 87.8601 69.94 88.0101Z" fill="#131A2D"/>
<path d="M70.94 103.43L72.28 103.7V105.51C72.77 106.21 72.95 106.52 73.15 107.84L73.12 113.44C73.12 113.44 71.24 109.2 70.83 108.34C70.72 106.94 70.83 106.17 71.01 105.85C70.32 105.09 70.06 104.53 70.06 104.53L70.93 103.44L70.94 103.43Z" fill="#3DD3B6"/>
<path d="M73.06 113.46C73.06 113.46 71.17 109.21 70.77 108.36V108.34C70.64 106.79 70.81 106.12 70.94 105.85C70.27 105.11 70.02 104.57 70.01 104.54L69.99 104.5L70.91 103.35L72.34 103.64V105.48C72.83 106.18 73.01 106.49 73.21 107.83L73.18 113.73L73.06 113.45V113.46ZM70.96 103.5L70.14 104.53C70.21 104.66 70.48 105.17 71.06 105.8L71.09 105.83L71.07 105.87C70.97 106.05 70.76 106.66 70.89 108.31C71.24 109.05 72.63 112.18 73.06 113.13L73.09 107.85C72.89 106.54 72.71 106.23 72.22 105.54V105.52V103.74L70.97 103.49L70.96 103.5Z" fill="#131A2D"/>
<path d="M58.58 116.11C59.65 122.27 59.75 123.72 61.08 124.49C62.06 125.06 63.82 125.28 64.59 123.28C64.86 122.57 65.01 121.58 64.95 120.22C64.86 118.16 64.78 116.06 64.71 114.23C64.61 111.46 64.53 109.3 64.47 108.82C63.97 104.99 61.45 103.95 59.94 105.31C57.61 107.42 57.51 109.96 58.59 116.11H58.58Z" fill="#131A2D"/>
<path d="M66.28 98.4299C66.28 98.4299 65.19 99.8799 66.76 101.84C67.38 102.61 68.13 104.07 69.23 105.54C70.5 107.23 73.12 113.45 73.12 113.45L66.44 107.28L66.74 106.17L65.7 106.28L64.8 102.07C64.66 101.4 64.68 100.7 64.9 100.05C65.13 99.3899 65.55 98.6599 66.28 98.4399V98.4299Z" fill="black"/>
<path d="M101.01 110.78C101.01 111.59 100.63 112.36 99.99 112.86C98.08 114.33 94.98 116.26 91.72 116.36C88.62 116.71 85.38 115.15 83 113.6C82.26 113.12 81.82 112.29 81.82 111.41V104.35H101V110.78H101.01Z" fill="#3DD3B6"/>
<path d="M82.97 113.65C82.21 113.16 81.76 112.32 81.76 111.4V104.27H101.07V110.77C101.07 111.61 100.69 112.39 100.02 112.9C98.02 114.45 94.95 116.31 91.72 116.41C91.42 116.44 91.13 116.46 90.83 116.46C87.92 116.46 84.99 114.97 82.96 113.64L82.97 113.65ZM81.89 104.41V111.41C81.89 112.28 82.32 113.08 83.04 113.55C85.26 115 88.56 116.65 91.72 116.3C94.92 116.2 97.96 114.35 99.95 112.81C100.58 112.32 100.95 111.58 100.95 110.78V104.41H81.9H81.89Z" fill="#131A2D"/>
<path d="M90.83 110.89L90.8 111.56L77.48 103.12L77.5 102.45L90.83 110.89Z" fill="#131A2D"/>
<path d="M104.8 103.57L90.83 110.89L77.5 102.45L91.47 95.1299L104.8 103.57Z" fill="#3DD3B6"/>
<path d="M77.37 102.44L91.44 95.07L91.47 95.05L104.92 103.57L90.85 110.94L90.82 110.96L77.37 102.44ZM91.47 95.2L77.63 102.45L90.83 110.81L104.67 103.56L91.47 95.2Z" fill="#131A2D"/>
<path d="M104.8 103.57L104.77 104.24L90.8 111.56L90.83 110.89L104.8 103.57Z" fill="#131A2D"/>
<path d="M91.2 102.14C91.89 102.17 92.44 102.51 92.42 102.9C92.4 103.29 91.83 103.58 91.14 103.56C90.45 103.53 89.9 103.19 89.92 102.8C89.94 102.41 90.51 102.12 91.2 102.14Z" fill="#131A2D"/>
<path d="M63.85 123.96C64.09 123.78 64.34 123.55 64.58 123.28C64.85 122.57 65 121.58 64.94 120.22C64.85 118.16 64.77 116.06 64.7 114.23C63.68 115.99 62.23 118.17 60.58 119.77C58.93 121.37 60.95 126.15 63.85 123.96Z" fill="black"/>
<path d="M69.39 114.06C69.52 113.89 70.36 112.71 70.86 112.51C71.36 112.31 72.26 111.45 72.4 111.14C72.84 110.13 74.04 109.62 73.44 109.28C72.96 109.01 72.42 109.61 72.13 109.89C72.02 110 71.78 110.32 71.71 110.04C71.51 109.27 73.66 107.48 73.44 107.15C73.22 106.82 72.75 106.61 72.59 106.63C71.15 106.75 70.43 106.31 69.7 107.35C69.06 108.26 68.67 109.85 68.52 110.37C68.37 110.89 67.12 112.73 67.12 112.73C67.12 112.73 69.28 114.23 69.41 114.06H69.39Z" fill="white"/>
<path d="M67.06 112.79L67.01 112.75L67.05 112.7C67.05 112.7 68.3 110.86 68.45 110.36C68.47 110.3 68.49 110.22 68.52 110.13C68.7 109.48 69.07 108.13 69.64 107.32C70.19 106.55 70.75 106.57 71.52 106.59C71.83 106.6 72.17 106.61 72.58 106.58C72.76 106.56 73.26 106.78 73.49 107.13C73.61 107.31 73.34 107.63 72.82 108.25C72.3 108.86 71.66 109.63 71.77 110.03C71.78 110.08 71.8 110.09 71.8 110.09C71.84 110.09 71.97 109.97 72.01 109.92C72.03 109.89 72.06 109.87 72.08 109.85C72.11 109.82 72.14 109.79 72.17 109.76C72.48 109.46 73 108.97 73.47 109.23C73.59 109.3 73.65 109.38 73.67 109.47C73.7 109.66 73.51 109.86 73.24 110.13C72.98 110.4 72.65 110.74 72.46 111.17C72.33 111.48 71.41 112.37 70.89 112.57C70.47 112.74 69.76 113.68 69.53 113.99C69.49 114.04 69.47 114.07 69.45 114.09C69.45 114.09 69.42 114.12 69.37 114.12C69.21 114.12 68.73 113.93 67.06 112.77V112.79ZM69.42 113.92C69.68 113.57 70.38 112.63 70.84 112.45C71.33 112.26 72.21 111.41 72.34 111.12C72.54 110.67 72.87 110.32 73.14 110.04C73.36 109.81 73.55 109.62 73.53 109.49C73.53 109.44 73.48 109.39 73.4 109.35C73.01 109.13 72.56 109.57 72.26 109.86C72.23 109.89 72.19 109.92 72.17 109.95C72.15 109.97 72.13 109.99 72.11 110.01C72 110.12 71.89 110.25 71.77 110.22C71.71 110.2 71.67 110.15 71.64 110.06C71.52 109.59 72.16 108.83 72.72 108.16C73.03 107.8 73.44 107.3 73.38 107.2C73.18 106.89 72.72 106.69 72.59 106.71C72.18 106.74 71.83 106.73 71.52 106.72C70.73 106.7 70.25 106.68 69.75 107.39C69.19 108.18 68.83 109.51 68.65 110.16C68.62 110.25 68.6 110.33 68.58 110.4C68.44 110.88 67.42 112.41 67.2 112.72C68.14 113.37 69.17 114.02 69.35 114.02C69.35 114.02 69.39 113.97 69.42 113.93V113.92Z" fill="black"/>
<path d="M60.87 120.74C64.11 117.6 66.56 112.21 66.56 112.21C66.56 112.21 69.09 111.11 70.42 113.89C70.42 113.89 67.04 122.74 64.14 124.93C61.24 127.12 59.22 122.34 60.87 120.74Z" fill="#131A2D"/>
<path d="M91.26 103.19L83.97 107.22L83.91 113.48L83.4 113.68L83.39 106.77L91 102.7L91.26 103.19Z" fill="#131A2D"/>
<path d="M83.31 113.34C83.31 113.2 83.48 113.1 83.68 113.1C83.88 113.1 84.05 113.21 84.04 113.35L84.27 114.68C84.27 114.91 83.99 115.08 83.65 115.08C83.31 115.08 83.04 114.89 83.04 114.66C83.04 114.63 83.04 114.6 83.06 114.57L83.31 113.34Z" fill="white"/>
<path d="M83.65 115.14C83.47 115.14 83.31 115.09 83.18 115C83.05 114.91 82.97 114.79 82.98 114.65C82.98 114.61 82.98 114.58 83 114.55L83.25 113.32C83.25 113.15 83.44 113.02 83.68 113.02C83.92 113.02 84.11 113.16 84.11 113.32L84.34 114.67C84.34 114.93 84.04 115.13 83.67 115.13C83.67 115.13 83.66 115.13 83.65 115.13V115.14ZM83.37 113.34L83.12 114.59C83.12 114.59 83.11 114.64 83.11 114.66C83.11 114.75 83.16 114.83 83.26 114.9C83.36 114.97 83.51 115.01 83.66 115.01H83.67C83.96 115.01 84.21 114.86 84.22 114.69L83.98 113.35C83.98 113.25 83.84 113.17 83.68 113.17C83.52 113.17 83.38 113.25 83.38 113.35L83.37 113.34Z" fill="#131A2D"/>
<path d="M72.18 140.97L86.55 132.76L86.94 127.63L69.13 137.66C69.13 141.23 71.1 141.3 72.18 140.97Z" fill="white"/>
<path d="M70.11 140.84C69.37 140.3 69 139.23 69 137.66V137.58L87.09 127.39L86.67 132.84L72.24 141.08H72.21C72.03 141.15 71.72 141.23 71.35 141.23C70.96 141.23 70.51 141.14 70.1 140.84H70.11ZM86.42 132.68L86.79 127.87L69.27 137.74C69.28 139.18 69.62 140.15 70.27 140.63C70.95 141.13 71.78 140.95 72.12 140.85L86.42 132.68Z" fill="#131A2D"/>
<path d="M72.73 135.64C73.62 137.91 73.82 140 72.22 140.95C72.34 140.88 72.73 140.66 73.31 140.33C76.12 138.72 83.38 134.55 85.92 133.09C86.19 132.94 86.4 132.82 86.56 132.73C86.71 132.64 86.8 132.59 86.82 132.58C87.15 132.41 87.45 132.19 87.71 131.93C89.33 130.37 89.69 127.48 88.32 125.39C85.95 121.73 78.3 112.56 78.3 104.29L74.05 106.72L73.6 106.98L73.42 107.08L72.69 107.5L71.25 108.32L70.34 108.84L62.73 113.19C62.73 122.41 66.64 125.63 67.79 127.37C68.39 128.28 71.37 132.17 72.73 135.64Z" fill="white"/>
<path d="M72.15 140.83C73.48 140.04 73.63 138.31 72.6 135.68C71.47 132.8 69.22 129.64 68.15 128.12C67.94 127.82 67.77 127.59 67.67 127.44C67.5 127.18 67.25 126.87 66.97 126.52C65.44 124.6 62.58 121.03 62.58 113.18V113.1L78.42 104.04V104.27C78.42 111.16 83.73 118.64 86.9 123.11C87.51 123.97 88.03 124.71 88.42 125.3C89.79 127.4 89.51 130.35 87.79 132.01C87.52 132.28 87.21 132.5 86.87 132.68C86.86 132.68 86.81 132.71 86.74 132.75L86.47 132.9C86.34 132.98 86.17 133.07 85.98 133.18L81.12 135.97C78.24 137.62 75.03 139.46 73.37 140.42C73.05 140.6 72.79 140.75 72.6 140.86C72.45 140.95 72.34 141.01 72.29 141.04L72.15 140.81V140.83ZM62.85 113.26C62.87 120.96 65.67 124.47 67.18 126.36C67.46 126.72 67.71 127.02 67.89 127.3C67.99 127.45 68.15 127.68 68.36 127.97C69.44 129.5 71.7 132.68 72.84 135.59C73.67 137.7 73.75 139.28 73.09 140.29C73.13 140.26 73.18 140.24 73.23 140.21C74.89 139.26 78.1 137.41 80.98 135.76L85.84 132.97C86.03 132.86 86.2 132.76 86.33 132.69L86.59 132.54C86.67 132.49 86.72 132.46 86.73 132.46C87.04 132.29 87.33 132.08 87.59 131.83C89.2 130.28 89.47 127.42 88.18 125.46C87.8 124.87 87.27 124.13 86.67 123.28C83.52 118.83 78.26 111.42 78.15 104.51L62.84 113.26H62.85Z" fill="#131A2D"/>
<path d="M75.6 109.89L66.32 115.19C66.18 115.79 66.16 116.8 66.69 117.12L76.47 111.53C76.05 111.2 75.87 110.86 75.6 109.88V109.89Z" fill="#3DD3B6"/>
<path d="M66.65 117.18C66.06 116.81 66.13 115.71 66.25 115.18V115.15L75.56 109.83L75.63 109.79L75.65 109.87C75.93 110.84 76.09 111.16 76.5 111.48L76.58 111.54L66.71 117.18L66.68 117.2L66.65 117.18ZM75.56 109.98L66.38 115.23C66.25 115.8 66.24 116.73 66.69 117.05L76.36 111.52C75.99 111.21 75.81 110.86 75.56 109.98Z" fill="#131A2D"/>
<path d="M82.13 127.1C82.36 126.52 82.82 126.07 83.41 125.83C83.72 125.7 84.04 125.64 84.38 125.64C85.37 125.64 86.31 126.19 86.77 127.05C87.11 127.67 87.15 128.39 86.9 129.02C86.81 129.24 86.68 129.44 86.52 129.63C88.18 132.02 88.14 134.35 88.14 134.35C88 133.94 87.03 133.55 87.03 133.55C87.03 134.34 86.15 135.61 86.15 135.61C86.42 133.36 85.11 131.11 84.7 130.48C84.68 130.48 84.66 130.48 84.64 130.48C83.65 130.48 82.71 129.93 82.25 129.07C81.91 128.45 81.87 127.73 82.12 127.1H82.13Z" fill="#3DD3B6"/>
<path d="M86.1 135.59C86.37 133.41 85.11 131.21 84.68 130.54C84.68 130.54 84.66 130.54 84.65 130.54C83.64 130.54 82.68 129.97 82.2 129.1C81.86 128.46 81.81 127.72 82.07 127.07C82.31 126.48 82.78 126.01 83.39 125.76C83.7 125.63 84.04 125.57 84.38 125.57C85.39 125.57 86.36 126.14 86.83 127.01C87.18 127.65 87.22 128.39 86.96 129.04C86.88 129.24 86.76 129.43 86.6 129.63C88.22 131.99 88.21 134.33 88.21 134.35V134.73L88.08 134.37C87.99 134.09 87.4 133.78 87.09 133.64C87.03 134.44 86.24 135.59 86.2 135.64L86.05 135.86L86.08 135.6L86.1 135.59ZM87.07 133.48C87.07 133.48 87.77 133.77 88.08 134.11C88.04 133.46 87.8 131.57 86.48 129.66L86.45 129.62L86.48 129.58C86.65 129.38 86.77 129.19 86.85 128.99C87.1 128.38 87.05 127.68 86.72 127.07C86.27 126.23 85.35 125.7 84.39 125.7C84.06 125.7 83.74 125.76 83.45 125.88C82.87 126.12 82.43 126.56 82.2 127.12C81.95 127.73 82 128.43 82.33 129.04C82.78 129.88 83.7 130.41 84.66 130.41H84.68C84.69 130.41 84.71 130.41 84.72 130.41H84.76L84.78 130.44C85.18 131.06 86.41 133.17 86.26 135.35C86.51 134.96 86.98 134.12 86.98 133.55V133.45L87.07 133.49V133.48Z" fill="#131A2D"/>
<path d="M83.59 126.33C82.61 126.73 82.24 127.83 82.75 128.78C83.27 129.74 84.48 130.19 85.46 129.79C86.44 129.39 86.81 128.29 86.3 127.33C85.78 126.37 84.57 125.92 83.59 126.32V126.33Z" fill="#131A2D"/>
<path d="M69.28 125.25L69.49 125.53L73.48 123.23L73.32 122.91L69.28 125.25Z" fill="#131A2D"/>
<path d="M69.74 125.88L69.94 126.15L71.81 125.08L71.63 124.79L69.74 125.88Z" fill="#131A2D"/>
<path d="M72.12 124.51L72.29 124.8L76.61 122.34L76.49 122.01L72.12 124.51Z" fill="#131A2D"/>
<path d="M74.85 125.43L74.98 125.69L80.5 122.64L80.43 122.33L74.85 125.43Z" fill="#131A2D"/>
<path d="M70.99 127.58L71.15 127.81L73.91 126.28L73.77 126.03L70.99 127.58Z" fill="#131A2D"/>
<path d="M70.59 127.04L70.77 127.28L77.81 123.33L77.71 123.03L70.59 127.04Z" fill="#131A2D"/>
<path d="M73.63 124.52L73.78 124.81L82.39 119.95L82.34 119.59L73.63 124.52Z" fill="#131A2D"/>
<path d="M70.18 126.47L70.36 126.73L73.47 124.98L73.32 124.69L70.18 126.47Z" fill="#131A2D"/>
<path d="M74.85 133.36L74.99 133.65L79 131.35L78.9 131.02L74.85 133.36Z" fill="#131A2D"/>
<path d="M75.15 133.99L75.29 134.26L77.16 133.19L77.05 132.91L75.15 133.99Z" fill="#131A2D"/>
<path d="M77.54 132.63L77.64 132.92L81.98 130.45L81.93 130.12L77.54 132.63Z" fill="#131A2D"/>
<path d="M75.44 134.59L75.57 134.84L78.69 133.09L78.6 132.81L75.44 134.59Z" fill="#131A2D"/>
<path d="M71.24 108.32C71.36 108.43 71.5 108.54 71.65 108.66C71.98 108.92 72.14 109.2 72.17 109.72C72.2 110.38 73.27 110.62 73.39 110.51C73.91 110.03 73.43 108.41 73.39 108.27C73.54 108.45 73.6 108.49 73.69 108.82C73.84 109.37 73.73 109.86 73.93 110.01C74.25 110.25 74.26 109.5 74.31 108.81C74.33 108.42 73.78 107.6 73.41 107.07L72.68 107.49L71.24 108.31V108.32Z" fill="white"/>
<path d="M72.77 110.49C72.36 110.32 72.12 110.04 72.11 109.73C72.09 109.25 71.95 108.98 71.62 108.72C71.46 108.6 71.33 108.48 71.2 108.38L71.13 108.32L73.44 107L73.47 107.05C73.93 107.72 74.4 108.45 74.38 108.83V109.03C74.33 109.65 74.3 110.03 74.12 110.12C74.05 110.15 73.98 110.14 73.9 110.08C73.76 109.98 73.75 109.77 73.73 109.5C73.72 109.3 73.7 109.08 73.64 108.85C73.61 108.75 73.59 108.68 73.57 108.62C73.71 109.19 73.87 110.18 73.46 110.56C73.43 110.59 73.36 110.61 73.29 110.61C73.15 110.61 72.95 110.56 72.79 110.49H72.77ZM73.49 108.28C73.62 108.43 73.67 108.49 73.76 108.81C73.83 109.06 73.85 109.3 73.86 109.49C73.88 109.72 73.89 109.9 73.98 109.97C74.01 109.99 74.04 110.01 74.07 110C74.19 109.94 74.22 109.41 74.24 109.02V108.82C74.28 108.45 73.67 107.56 73.4 107.17L71.36 108.33C71.46 108.42 71.58 108.51 71.7 108.61C72.07 108.89 72.22 109.21 72.24 109.72C72.26 110.04 72.55 110.24 72.72 110.32C73.02 110.47 73.31 110.49 73.35 110.46C73.83 110.02 73.38 108.47 73.33 108.29L73.24 107.99L73.49 108.28Z" fill="black"/>
<path d="M98.57 114.13C98.54 113.92 98.52 113.7 98.49 113.46C98.44 112.93 98.26 112.57 97.72 112.18C97.04 111.69 97.51 110.4 97.72 110.34C98.59 110.12 99.97 111.74 100.09 111.88C100.01 111.59 100 111.51 99.71 111.18C99.23 110.64 98.63 110.42 98.61 110.11C98.58 109.61 99.38 110.11 100.14 110.53C100.57 110.77 101.06 111.92 101.37 112.67L100.42 113.16L98.56 114.13H98.57Z" fill="white"/>
<path d="M98.51 114.14C98.48 113.94 98.46 113.72 98.43 113.46C98.38 112.92 98.18 112.59 97.69 112.23C97.37 112 97.24 111.56 97.34 111.02C97.4 110.69 97.56 110.31 97.71 110.27C98.44 110.08 99.46 111.07 99.93 111.59C99.88 111.49 99.81 111.39 99.66 111.22C99.45 110.99 99.23 110.82 99.03 110.67C98.77 110.47 98.56 110.32 98.54 110.11C98.54 109.99 98.57 109.91 98.64 109.86C98.86 109.72 99.36 110.01 99.95 110.34L100.18 110.47C100.6 110.7 101.05 111.7 101.44 112.64L101.46 112.7L98.52 114.23V114.14H98.51ZM100.12 110.59L99.89 110.46C99.43 110.2 98.86 109.88 98.72 109.98C98.69 110 98.68 110.04 98.68 110.1C98.69 110.25 98.88 110.39 99.12 110.57C99.31 110.72 99.56 110.9 99.77 111.14C100.05 111.45 100.08 111.55 100.14 111.78L100.25 112.16L100.05 111.92C99.9 111.74 98.56 110.19 97.75 110.41C97.7 110.43 97.54 110.68 97.47 111.08C97.42 111.36 97.4 111.86 97.77 112.13C98.3 112.51 98.52 112.88 98.57 113.45C98.59 113.66 98.61 113.85 98.63 114.03L101.3 112.64C101.06 112.05 100.54 110.82 100.12 110.59Z" fill="black"/>
<path d="M73.08 106.91C73.08 106.91 73.38 107.11 73.51 107.35C73.64 107.6 72.67 107.85 72.67 107.85L71.36 108.34C71.36 108.34 71.22 108.34 71.1 108.4C70.98 108.47 70.65 108.4 70.65 108.4L70.94 107.78L71.73 107.29L72.61 107.14L73.07 106.91H73.08Z" fill="white"/>
<path d="M98.61 113.86C98.61 113.86 98.49 114.04 98.25 114.13C98.02 114.22 98.19 114.42 98.19 114.42L98.84 114.36L100.84 113.34L101.3 112.94C101.3 112.94 101.43 112.78 101.2 112.43C100.97 112.08 100.29 112.75 100.29 112.75L98.61 113.86Z" fill="white"/>
<path d="M212.81 182.59V183.82L165.97 210.87L131.9 191.2V189.97L178.74 164.38L212.81 182.59Z" fill="#131A2D"/>
<path d="M212.81 182.59L165.97 209.63L131.9 189.97L178.74 162.92L212.81 182.59Z" fill="#3DD3B6"/>
<path d="M165.97 209.84L131.55 189.97L131.82 189.82L178.75 162.72L178.84 162.77L213.17 182.59L212.91 182.74L165.98 209.84H165.97ZM132.25 189.97L165.97 209.44L212.46 182.6L178.74 163.13L132.25 189.97Z" fill="#131A2D"/>
<path d="M165.57 198.55V207.32L133.7 188.92V180.15L165.57 198.55Z" fill="white"/>
<path d="M165.75 207.63L165.48 207.48L133.52 189.03V179.85L165.74 198.45V207.63H165.75ZM133.88 188.83L165.39 207.03V198.67L133.88 180.47V188.83Z" fill="#131A2D"/>
<path d="M208.37 182.61L165.57 207.32V198.55L208.37 173.84V182.61Z" fill="white"/>
<path d="M165.4 207.63V198.45L165.49 198.4L208.56 173.53V182.71L208.47 182.76L165.41 207.63H165.4ZM165.75 198.66V207.02L208.2 182.51V174.15L165.75 198.66Z" fill="#131A2D"/>
<path d="M178.49 151.53L178.76 151.69L131.9 178.74L130.04 178.39L176.81 151.4C177.26 151.14 177.82 151.15 178.49 151.54V151.53Z" fill="#3DD3B6"/>
<path d="M131.93 178.93L129.54 178.48L176.72 151.25C177.26 150.94 177.88 150.99 178.58 151.39L179.12 151.7L178.85 151.85L131.93 178.93ZM130.54 178.31L131.87 178.56L178.41 151.7C177.83 151.36 177.33 151.31 176.9 151.56L130.54 178.32V178.31Z" fill="#131A2D"/>
<path d="M131.62 179.2L131.89 179.36V190.59L131.62 190.43C128.15 188.43 128.12 177.18 131.62 179.2Z" fill="#131A2D"/>
<path d="M131.62 178.58L131.89 178.74V179.97L131.62 179.81C130.27 179.03 129.54 181.18 129.54 183.59C129.54 186 130.27 189.03 131.62 189.81L131.89 189.97V191.2L131.62 191.04C129.46 189.79 128.48 185.99 128.48 182.98C128.48 179.97 129.46 177.34 131.62 178.58Z" fill="#3DD3B6"/>
<path d="M132.07 191.5L131.53 191.19C129.31 189.91 128.3 186.04 128.3 182.98C128.3 180.61 128.88 178.85 129.85 178.29C130.39 177.98 131.02 178.03 131.71 178.43L132.07 178.64V180.28L131.53 179.97C131.24 179.8 130.99 179.79 130.76 179.92C130.13 180.28 129.71 181.76 129.71 183.6C129.71 186.02 130.45 188.94 131.7 189.66L132.06 189.87V191.51L132.07 191.5ZM130.6 178.44C130.4 178.44 130.2 178.49 130.03 178.59C129.18 179.08 128.65 180.76 128.65 182.97C128.65 185.93 129.61 189.67 131.71 190.88H131.72V190.06L131.53 189.95C130.12 189.14 129.36 186.06 129.36 183.58C129.36 181.99 129.68 180.11 130.59 179.59C130.82 179.45 131.21 179.35 131.71 179.64H131.72V178.83L131.53 178.72C131.19 178.53 130.88 178.43 130.6 178.43V178.44Z" fill="#131A2D"/>
<path d="M212.81 171.36V172.6L165.97 199.64L131.9 179.97V178.74L178.74 153.15L212.81 171.36Z" fill="#131A2D"/>
<path d="M212.81 171.36L165.97 198.41L131.9 178.74L178.74 151.69L212.81 171.36Z" fill="#3DD3B6"/>
<path d="M165.97 198.61L165.88 198.56L131.55 178.74L131.82 178.59L178.75 151.49L178.84 151.54L213.17 171.36L212.9 171.51L165.97 198.61ZM132.25 178.74L165.97 198.21L212.46 171.37L178.74 151.9L132.25 178.74Z" fill="#131A2D"/>
<path d="M144.57 176.34L174.59 159C176.88 160.33 180.6 160.33 182.89 159L200.14 168.96C197.85 170.28 197.85 172.43 200.14 173.75L170.11 191.08C167.82 189.76 164.1 189.76 161.81 191.08L144.56 181.12C146.85 179.79 146.85 177.65 144.56 176.33L144.57 176.34Z" fill="#131A2D"/>
<path d="M159.83 176.94C163.21 174.99 168.02 174.6 170.58 176.08C173.14 177.56 172.47 180.34 169.09 182.29C165.71 184.24 160.9 184.63 158.34 183.15C155.78 181.67 156.45 178.89 159.83 176.94Z" fill="#3DD3B6"/>
<path d="M162.36 184.21C160.78 184.21 159.32 183.91 158.25 183.29C157.17 182.67 156.61 181.81 156.61 180.81C156.61 179.39 157.75 177.92 159.74 176.77C163.17 174.79 168.07 174.41 170.67 175.91C171.75 176.53 172.31 177.39 172.31 178.39C172.31 179.81 171.17 181.28 169.17 182.43C167.15 183.59 164.62 184.21 162.36 184.21ZM166.55 175.35C164.35 175.35 161.88 175.95 159.91 177.08C158.06 178.15 156.95 179.54 156.95 180.81C156.95 181.68 157.46 182.43 158.42 182.98C160.92 184.42 165.67 184.04 169 182.12C170.85 181.05 171.96 179.66 171.96 178.39C171.96 177.52 171.45 176.77 170.49 176.22C169.47 175.63 168.07 175.35 166.55 175.35Z" fill="#131A2D"/>
<path d="M185.63 176.57L183.36 177.88L167.46 168.7L169.73 167.39L185.63 176.57Z" fill="#3DD3B6"/>
<path d="M183.36 178.08L183.27 178.03L167.1 168.7L169.73 167.19L185.98 176.57L183.36 178.09V178.08ZM167.81 168.7L183.36 177.68L185.28 176.57L169.73 167.59L167.81 168.7Z" fill="#131A2D"/>
<path d="M185.98 172.84L183.71 174.15L173.92 168.49L176.19 167.18L185.98 172.84Z" fill="#3DD3B6"/>
<path d="M183.71 174.35L183.62 174.3L173.56 168.49L176.18 166.97L176.27 167.02L186.33 172.83L183.71 174.35ZM174.27 168.49L183.71 173.94L185.63 172.83L176.19 167.38L174.27 168.49Z" fill="#131A2D"/>
<path d="M191.59 166.57L190.31 167.31L185.77 164.68L187.05 163.95L191.59 166.57Z" fill="#3DD3B6"/>
<path d="M190.31 167.51L190.22 167.46L185.41 164.69L187.04 163.75L187.13 163.8L191.94 166.57L190.31 167.51ZM186.12 164.68L190.31 167.1L191.24 166.57L187.05 164.15L186.12 164.69V164.68Z" fill="#131A2D"/>
<path d="M133.7 188.92L131.9 189.97V179.97L133.7 181.01V188.92Z" fill="#3DD3B6"/>
<path d="M131.72 190.27V179.67L133.88 180.92V189.03L131.72 190.27ZM132.07 180.28V189.66L133.52 188.82V181.11L132.07 180.27V180.28Z" fill="#131A2D"/>
<path d="M210.9 166.31V167.54L164.06 194.59L129.99 174.92V173.69L176.83 148.1L210.9 166.31Z" fill="#4258A7"/>
<path d="M210.9 166.31L164.06 193.36L129.99 173.69L176.83 146.64L210.9 166.31Z" fill="#30407A"/>
<path d="M166.57 193.19L133.02 173.82V168.26L166.57 187.63V193.19Z" fill="url(#paint0_linear_109_7142)"/>
<path d="M210.87 158.58V159.81L164.03 186.85L129.96 167.18V165.95L176.81 140.37L210.87 158.58Z" fill="#131A2D"/>
<path d="M210.87 158.58L164.03 185.62L129.96 165.95L176.81 138.9L210.87 158.58Z" fill="url(#paint1_linear_109_7142)"/>
<path d="M186.62 163.85L183.49 165.65L161.6 153.02L164.73 151.21L186.62 163.85Z" fill="#10417C"/>
<path d="M177.72 164.13L174.6 165.93L161.11 158.15L164.24 156.34L177.72 164.13Z" fill="#10417C"/>
<path d="M157.01 172.63L155.73 173.37L151.18 170.75L152.46 170.01L157.01 172.63Z" fill="#10417C"/>
<path d="M211.16 158.73C213.32 159.98 214.3 162.04 214.3 164.37C214.3 166.3 213.89 167.03 213.02 167.72L212.67 167.92L166.04 194.88L165.74 193.48C166 193.19 166.22 192.86 166.37 192.49C166.75 191.57 166.92 190.63 167.02 189.65C167.06 189.26 167.04 188.94 166.84 188.59C166.66 188.28 166.33 188.08 165.99 187.98C165.98 187.98 165.96 187.98 165.95 187.98C165.81 187.8 165.67 187.64 165.52 187.48C165.15 187.07 164.7 186.72 164.23 186.42L164.06 185.64L210.87 158.59L211.15 158.75L211.16 158.73Z" fill="#131A2D"/>
<path d="M166.38 190.89C166.45 189.69 165.69 187.79 164.06 186.85V185.62C166.49 187.02 167.47 189.08 167.47 190.94C167.47 193.24 166.5 195.99 164.34 194.75L164.07 194.59V193.36L164.35 193.52C165.7 194.3 166.28 192.83 166.4 190.9L166.38 190.89Z" fill="#4258A7"/>
<path d="M147.84 183.06L123.4 159.91L123.39 159.09L147.84 182.24V183.06Z" fill="#131A2D"/>
<path d="M210.17 160.07L147.84 182.24L123.39 159.09L185.73 136.93L210.17 160.07Z" fill="#3DD3B6"/>
<path d="M147.79 182.44L147.71 182.37L123.06 159.03L123.33 158.93L185.77 136.73L185.85 136.8L210.49 160.14L210.22 160.24L147.79 182.44ZM123.72 159.16L147.88 182.03L209.84 160L185.69 137.13L123.72 159.16Z" fill="#131A2D"/>
<path d="M160.03 171.78L156.04 173.19L141.08 159.03L145.06 157.62L160.03 171.78Z" fill="#566B70"/>
<path d="M191.27 158.54L189.41 159.2L177.72 148.13L179.58 147.47L191.27 158.54Z" fill="#566B70"/>
<path d="M194.43 155.44L192.58 156.09L183.93 147.9L185.79 147.25L194.43 155.44Z" fill="#566B70"/>
<path d="M149.11 181.69L126.11 159.91V151.03L149.11 172.81V181.69Z" fill="white"/>
<path d="M149.28 182.1L148.98 181.82L125.93 159.99V150.63L126.23 150.91L149.28 172.74V182.1ZM126.29 159.84L148.93 181.28V172.89L126.28 151.45V159.84H126.29Z" fill="#131A2D"/>
<path d="M210.14 152.02C211.1 155.14 211.14 158.45 210.14 160.9L147.81 183.06C148.48 180.11 148.66 177.01 147.81 174.18L210.14 152.02Z" fill="#131A2D"/>
<path d="M208.35 159.31L152.06 179.32C152.06 178.49 152.03 177.68 151.94 176.9L208.49 156.8C208.55 157.7 208.49 158.55 208.35 159.31Z" fill="white"/>
<path d="M151.88 179.58V179.33C151.9 178.51 151.86 177.71 151.77 176.93L151.75 176.79L151.88 176.74L208.65 156.56L208.67 156.79C208.73 157.71 208.67 158.57 208.53 159.35L208.51 159.45L208.41 159.48L151.88 179.58ZM152.13 177.02C152.2 177.69 152.24 178.38 152.24 179.07L208.2 159.18C208.32 158.52 208.36 157.81 208.33 157.04L152.14 177.02H152.13Z" fill="#131A2D"/>
<path d="M147.84 175L123.4 151.86L123.39 151.03L147.84 174.18V175Z" fill="#131A2D"/>
<path d="M210.17 152.02L147.84 174.18L123.39 151.03L185.73 128.88L210.17 152.02Z" fill="#3DD3B6"/>
<path d="M147.79 174.38L147.71 174.31L123.06 150.97L123.33 150.87L185.77 128.67L185.85 128.75L210.49 152.09L210.22 152.19L147.79 174.39V174.38ZM123.72 151.11L147.88 173.98L209.84 151.95L185.69 129.08L123.72 151.11Z" fill="#131A2D"/>
<path d="M194.14 152.11L190.16 153.53L175.2 139.36L179.18 137.95L194.14 152.11Z" fill="white"/>
<path d="M190.11 153.73L174.86 139.3L179.22 137.75L194.46 152.18L190.11 153.73ZM175.52 139.44L190.19 153.33L193.8 152.04L179.13 138.15L175.51 139.43L175.52 139.44Z" fill="#131A2D"/>
<path d="M157.5 163.01L155.64 163.67L143.95 152.6L145.8 151.94L157.5 163.01Z" fill="white"/>
<path d="M155.6 163.87L143.62 152.53L145.84 151.74L157.82 163.08L155.6 163.87ZM144.28 152.67L155.69 163.47L157.17 162.94L145.77 152.14L144.29 152.67H144.28Z" fill="#131A2D"/>
<path d="M151.28 163.23L149.43 163.89L140.79 155.7L142.64 155.04L151.28 163.23Z" fill="white"/>
<path d="M149.39 164.1L140.46 155.64L142.68 154.85L151.61 163.31L149.39 164.1ZM141.12 155.78L149.48 163.7L150.96 163.17L142.6 155.25L141.12 155.78Z" fill="#131A2D"/>
<path d="M227.05 142.28L175.24 178.23L142.19 159.03L194 123.07L227.05 142.28Z" fill="#992323"/>
<path d="M176.09 176.92L144.19 158.96V149.35L175.78 167.58L176.09 176.92Z" fill="white"/>
<path d="M176.27 177.22L176 177.07L144.01 159.06V149.05L175.94 167.48V167.58L176.26 177.23L176.27 177.22ZM144.37 158.85L175.9 176.61L175.6 167.68L144.36 149.65V158.85H144.37Z" fill="#131A2D"/>
<path d="M210.74 139.38L207.42 141.29L187.19 129.54L190.51 127.62L210.74 139.38Z" fill="#566B70"/>
<path d="M179.43 154.9L177.89 155.79L162.07 146.6L163.61 145.7L179.43 154.9Z" fill="#566B70"/>
<path d="M173.48 155.95L171.93 156.84L160.24 150.04L161.78 149.15L173.48 155.95Z" fill="#566B70"/>
<path d="M210.74 139.38L207.42 141.29L187.19 129.54L190.51 127.62L210.74 139.38Z" fill="#566B70"/>
<path d="M179.43 154.9L177.89 155.79L162.07 146.6L163.61 145.7L179.43 154.9Z" fill="#566B70"/>
<path d="M173.48 155.95L171.93 156.84L160.24 150.04L161.78 149.15L173.48 155.95Z" fill="#566B70"/>
<path d="M210.74 139.38L207.42 141.29L187.19 129.54L190.51 127.62L210.74 139.38Z" fill="#566B70"/>
<path d="M179.43 154.9L177.89 155.79L162.07 146.6L163.61 145.7L179.43 154.9Z" fill="#566B70"/>
<path d="M173.48 155.95L171.93 156.84L160.24 150.04L161.78 149.15L173.48 155.95Z" fill="#566B70"/>
<path d="M210.74 139.38L207.42 141.29L187.19 129.54L190.51 127.62L210.74 139.38Z" fill="#566B70"/>
<path d="M179.43 154.9L177.89 155.79L162.07 146.6L163.61 145.7L179.43 154.9Z" fill="#566B70"/>
<path d="M173.48 155.95L171.93 156.84L160.24 150.04L161.78 149.15L173.48 155.95Z" fill="#566B70"/>
<path d="M210.74 139.38L207.42 141.29L187.19 129.54L190.51 127.62L210.74 139.38Z" fill="#566B70"/>
<path d="M179.43 154.9L177.89 155.79L162.07 146.6L163.61 145.7L179.43 154.9Z" fill="#566B70"/>
<path d="M173.48 155.95L171.93 156.84L160.24 150.04L161.78 149.15L173.48 155.95Z" fill="#566B70"/>
<path d="M210.74 139.38L207.42 141.29L187.19 129.54L190.51 127.62L210.74 139.38Z" fill="#566B70"/>
<path d="M179.43 154.9L177.89 155.79L162.07 146.6L163.61 145.7L179.43 154.9Z" fill="#566B70"/>
<path d="M173.48 155.95L171.93 156.84L160.24 150.04L161.78 149.15L173.48 155.95Z" fill="#566B70"/>
<path d="M210.74 139.38L207.42 141.29L187.19 129.54L190.51 127.62L210.74 139.38Z" fill="#566B70"/>
<path d="M179.43 154.9L177.89 155.79L162.07 146.6L163.61 145.7L179.43 154.9Z" fill="#566B70"/>
<path d="M173.48 155.95L171.93 156.84L160.24 150.04L161.78 149.15L173.48 155.95Z" fill="#566B70"/>
<path d="M210.74 139.38L207.42 141.29L187.19 129.54L190.51 127.62L210.74 139.38Z" fill="#566B70"/>
<path d="M179.43 154.9L177.89 155.79L162.07 146.6L163.61 145.7L179.43 154.9Z" fill="#566B70"/>
<path d="M173.48 155.95L171.93 156.84L160.24 150.04L161.78 149.15L173.48 155.95Z" fill="#566B70"/>
<path d="M210.74 139.38L207.42 141.29L187.19 129.54L190.51 127.62L210.74 139.38Z" fill="#566B70"/>
<path d="M179.43 154.9L177.89 155.79L162.07 146.6L163.61 145.7L179.43 154.9Z" fill="#566B70"/>
<path d="M173.48 155.95L171.93 156.84L160.24 150.04L161.78 149.15L173.48 155.95Z" fill="#566B70"/>
<path d="M210.74 139.38L207.42 141.29L187.19 129.54L190.51 127.62L210.74 139.38Z" fill="#566B70"/>
<path d="M179.43 154.9L177.89 155.79L162.07 146.6L163.61 145.7L179.43 154.9Z" fill="#566B70"/>
<path d="M173.48 155.95L171.93 156.84L160.24 150.04L161.78 149.15L173.48 155.95Z" fill="#566B70"/>
<path d="M210.74 139.38L207.42 141.29L187.19 129.54L190.51 127.62L210.74 139.38Z" fill="#566B70"/>
<path d="M179.43 154.9L177.89 155.79L162.07 146.6L163.61 145.7L179.43 154.9Z" fill="#566B70"/>
<path d="M173.48 155.95L171.93 156.84L160.24 150.04L161.78 149.15L173.48 155.95Z" fill="#566B70"/>
<path d="M227.05 137.71L175.24 167.62L142.19 148.41L194 118.5L227.05 137.71Z" fill="#3DD3B6"/>
<path d="M175.24 167.82L175.15 167.77L141.83 148.41L193.99 118.3L194.08 118.35L227.39 137.71L175.23 167.82H175.24ZM142.54 148.41L175.24 167.41L226.7 137.7L194 118.7L142.54 148.41Z" fill="#131A2D"/>
<path d="M210.74 139.38L207.42 141.29L187.19 129.54L190.51 127.62L210.74 139.38Z" fill="white"/>
<path d="M207.42 141.5L207.33 141.45L186.83 129.54L190.49 127.42L190.58 127.47L211.08 139.38L207.42 141.49V141.5ZM187.54 129.54L207.42 141.09L210.38 139.38L190.5 127.83L187.54 129.54Z" fill="#131A2D"/>
<path d="M179.43 154.9L177.89 155.79L162.07 146.6L163.61 145.7L179.43 154.9Z" fill="white"/>
<path d="M177.89 155.99L177.8 155.94L161.72 146.6L163.61 145.51L163.7 145.56L179.78 154.9L177.89 155.99ZM162.43 146.6L177.89 155.59L179.08 154.9L163.62 145.91L162.43 146.6Z" fill="#131A2D"/>
<path d="M173.48 155.95L171.93 156.84L160.24 150.04L161.78 149.15L173.48 155.95Z" fill="white"/>
<path d="M171.93 157.04L171.84 156.99L159.88 150.04L161.77 148.95L161.86 149L173.82 155.95L171.93 157.04ZM160.59 150.04L171.93 156.63L173.12 155.94L161.78 149.35L160.59 150.04Z" fill="#131A2D"/>
<path d="M175.24 168.44L142.19 149.23V148.41L175.24 167.62C175.24 167.62 177.92 169 177.92 169.79L177.26 178.74C177.26 179.53 176.7 179.86 176.02 179.47L142.19 159.85V159.03L175.24 178.24V168.44Z" fill="#322C8D"/>
<path d="M227.82 138.15C228.51 138.54 229.06 139.51 229.06 140.3V148.82C229.06 149.22 228.92 149.5 228.69 149.63L176.89 179.54C177.12 179.41 177.26 179.13 177.26 178.73V170.21C177.26 169.42 176.7 168.45 176.02 168.06L175.24 167.62L227.05 137.71L227.82 138.15Z" fill="#131A2D"/>
<path d="M176.66 141.11C176.66 142.35 177.67 143.36 178.91 143.36C179.02 143.36 179.13 143.34 179.23 143.33L180.52 146.1C180.06 146.51 179.77 147.1 179.77 147.76C179.77 149 180.78 150.01 182.02 150.01C183.26 150.01 184.27 149 184.27 147.76C184.27 147.57 184.24 147.4 184.2 147.23L188.82 144.56C189.22 144.93 189.75 145.16 190.34 145.16C191.58 145.16 192.59 144.15 192.59 142.91C192.59 141.67 191.58 140.67 190.34 140.67C190.17 140.67 190.02 140.69 189.86 140.72L186.13 136.09C186.38 135.73 186.53 135.29 186.53 134.82C186.53 133.58 185.52 132.57 184.28 132.57C183.04 132.57 182.03 133.57 182.03 134.82C182.03 135.18 182.12 135.52 182.27 135.82L179.65 138.99C179.42 138.91 179.17 138.86 178.92 138.86C177.68 138.86 176.67 139.86 176.67 141.11H176.66ZM188.32 141.92L183.83 141.23L184.59 137.04C184.78 137.01 184.95 136.97 185.12 136.9L188.71 141.35C188.55 141.52 188.42 141.71 188.31 141.92H188.32ZM183.01 145.75L183.61 142.48L188.12 143.18C188.13 143.28 188.14 143.37 188.17 143.47L183.56 146.13C183.4 145.98 183.21 145.86 183.02 145.76L183.01 145.75ZM182.57 141.03L181.13 140.81C181.07 140.41 180.92 140.05 180.68 139.74L183.14 136.76C183.2 136.8 183.26 136.83 183.33 136.86L182.57 141.03ZM180.39 142.78C180.62 142.58 180.8 142.34 180.93 142.06L182.34 142.28L181.75 145.53C181.75 145.53 181.69 145.53 181.67 145.53L180.39 142.77V142.78Z" fill="white"/>
<path d="M182.02 150.18C180.68 150.18 179.6 149.09 179.6 147.76C179.6 147.13 179.86 146.51 180.31 146.06L179.13 143.52C179.05 143.53 178.98 143.54 178.91 143.54C177.57 143.54 176.49 142.45 176.49 141.12C176.49 139.79 177.58 138.7 178.91 138.7C179.13 138.7 179.35 138.73 179.58 138.8L182.06 135.81C181.92 135.49 181.85 135.17 181.85 134.84C181.85 133.51 182.94 132.42 184.27 132.42C185.6 132.42 186.69 133.51 186.69 134.84C186.69 135.28 186.57 135.72 186.34 136.1L189.93 140.55C191.45 140.29 192.76 141.46 192.76 142.93C192.76 144.27 191.67 145.35 190.34 145.35C189.78 145.35 189.24 145.15 188.81 144.79L184.41 147.33C184.44 147.49 184.46 147.64 184.46 147.78C184.46 149.11 183.37 150.2 182.04 150.2L182.02 150.18ZM179.3 143.13L179.4 143.24L180.74 146.13L180.64 146.22C180.2 146.62 179.95 147.17 179.95 147.75C179.95 148.89 180.88 149.82 182.02 149.82C183.16 149.82 184.09 148.89 184.09 147.75C184.09 147.6 184.07 147.44 184.03 147.26L184 147.13L188.85 144.33L188.95 144.42C189.34 144.77 189.83 144.97 190.34 144.97C191.48 144.97 192.41 144.04 192.41 142.9C192.41 141.76 191.48 140.83 190.34 140.83C190.2 140.83 190.05 140.85 189.9 140.88L189.79 140.9L189.72 140.81L185.91 136.08L185.98 135.97C186.22 135.62 186.34 135.22 186.34 134.8C186.34 133.66 185.41 132.73 184.27 132.73C183.13 132.73 182.2 133.66 182.2 134.8C182.2 135.11 182.28 135.42 182.43 135.72L182.48 135.82L179.71 139.18L179.6 139.14C179.36 139.06 179.14 139.02 178.93 139.02C177.79 139.02 176.86 139.95 176.86 141.09C176.86 142.23 177.79 143.16 178.93 143.16C179.02 143.16 179.1 143.15 179.19 143.14L179.32 143.12L179.3 143.13ZM183.53 146.34L183.44 146.25C183.29 146.11 183.13 146 182.94 145.91L182.82 145.85L183.47 142.28L188.28 143.03L188.3 143.16C188.3 143.25 188.32 143.34 188.34 143.42L188.37 143.55L183.53 146.34ZM183.21 145.65C183.34 145.72 183.46 145.81 183.58 145.9L187.97 143.37C187.97 143.37 187.97 143.34 187.97 143.33L183.76 142.68L183.22 145.66L183.21 145.65ZM181.61 145.72L181.51 145.61L180.17 142.73L180.27 142.64C180.48 142.45 180.65 142.23 180.77 141.98L180.83 141.86L182.55 142.13L181.9 145.69L181.61 145.72ZM180.61 142.82L181.66 145.08L182.14 142.42L181.03 142.25C180.92 142.46 180.77 142.65 180.6 142.82H180.61ZM188.43 142.11L183.63 141.37L184.44 136.88L184.57 136.86C184.76 136.83 184.92 136.79 185.06 136.73L185.18 136.68L185.26 136.78L188.95 141.36L188.84 141.47C188.7 141.62 188.58 141.79 188.48 141.99L188.42 142.11H188.43ZM184.04 141.08L188.23 141.73C188.3 141.59 188.39 141.46 188.49 141.35L185.07 137.11C184.97 137.14 184.86 137.17 184.75 137.19L184.04 141.08ZM182.72 141.23L180.98 140.96L180.96 140.83C180.91 140.47 180.77 140.13 180.55 139.85L180.46 139.74L183.11 136.54L183.24 136.61C183.31 136.65 183.36 136.68 183.42 136.71L183.54 136.77L182.73 141.24L182.72 141.23ZM181.28 140.65L182.43 140.83L183.12 137.07L180.91 139.75C181.1 140.02 181.22 140.33 181.29 140.65H181.28Z" fill="#131A2D"/>
<path d="M161.98 158.3L162.46 157.32L167.78 159.94L167.3 160.91L186.77 169.31L186.84 170.57L161.68 221.86L142.68 212.49C140.87 213.46 139.09 212.91 137.36 209.87L118.36 200.5L118.29 199.24L143.52 149.21L161.96 158.31L161.98 158.3Z" fill="#131A2D"/>
<path d="M186.78 169.32L161.62 220.61L141.8 210.83L166.96 159.54L186.78 169.32Z" fill="#3DD3B6"/>
<path d="M161.7 220.84L161.54 220.76L141.57 210.9L141.65 210.74L166.89 159.29L167.05 159.37L187.02 169.23L186.94 169.39L161.7 220.84ZM142.04 210.74L161.54 220.36L186.55 169.39L167.05 159.77L142.04 210.74Z" fill="#131A2D"/>
<path d="M163.28 157.72L138.12 209.01L118.3 199.23L143.46 147.95L163.28 157.72Z" fill="#3DD3B6"/>
<path d="M138.2 209.25L138.04 209.17L118.07 199.31L118.15 199.15L143.39 147.7L143.55 147.78L163.53 157.64L163.45 157.8L138.21 209.25H138.2ZM118.53 199.15L138.03 208.77L163.03 157.8L143.53 148.18L118.52 199.15H118.53Z" fill="#131A2D"/>
<path d="M160.79 152.17C162.33 152.73 163.79 156.16 163.99 159.69L140.67 207.3L120.64 193.77L143.97 146.22L160.8 152.17H160.79Z" fill="white"/>
<path d="M140.73 207.56L140.56 207.45L120.4 193.84L143.86 146.01L144.01 146.06L160.84 152.01C162.46 152.6 163.94 156.04 164.15 159.68C164.15 159.72 156.37 175.62 140.81 207.38L140.72 207.56H140.73ZM120.86 193.71L140.6 207.04C142.15 203.88 163.08 161.15 163.81 159.65C163.6 156.21 162.2 152.87 160.73 152.33L144.05 146.44L120.86 193.71Z" fill="#131A2D"/>
<path d="M166.49 154.98L183.59 165.78L184.79 170.02C184.79 170.02 183.75 169.51 182.15 168.72L160.27 213.33L141.2 203.3L164.53 155.75C164.99 154.82 165.68 154.48 166.5 154.99L166.49 154.98Z" fill="white"/>
<path d="M160.35 213.57L140.97 203.37L141.04 203.22L164.37 155.67C164.65 155.1 165.02 154.74 165.44 154.62C165.8 154.52 166.19 154.59 166.58 154.83L183.74 165.67L183.76 165.73L185.07 170.35L182.23 168.95L160.34 213.57H160.35ZM141.43 203.22L160.19 213.09L182.07 168.48L184.51 169.69L183.44 165.9L166.39 155.14C166.08 154.95 165.79 154.89 165.53 154.96C165.21 155.05 164.91 155.35 164.68 155.83L141.43 203.22Z" fill="#131A2D"/>
<path d="M184.8 170.02L161.47 217.57L160.27 213.33L183.6 165.78L184.8 170.02Z" fill="#131A2D"/>
<path d="M137.46 199.71C139 200.27 140.46 203.71 140.66 207.23C140.66 207.3 119.85 197.03 119.85 197.03L120.63 193.77L137.46 199.71Z" fill="white"/>
<path d="M140.72 207.39C140.5 207.39 138.95 206.64 119.78 197.19L119.65 197.13L120.51 193.54L120.69 193.61L137.52 199.55C139.14 200.13 140.63 203.58 140.83 207.22V207.32L140.75 207.38C140.75 207.38 140.73 207.39 140.71 207.39H140.72ZM120.06 196.93C126.64 200.17 138.58 206.06 140.47 206.95C140.22 203.6 138.84 200.4 137.41 199.88L120.76 194L120.06 196.93Z" fill="#131A2D"/>
<path d="M141.2 203.29C141.66 202.36 142.35 202.02 143.17 202.53L160.27 213.33L161.47 217.57C161.47 217.57 140.66 207.3 140.65 207.24C140.55 205.55 140.77 204.17 141.2 203.3V203.29Z" fill="white"/>
<path d="M161.75 217.9L161.4 217.72C147.46 210.847 140.49 207.353 140.49 207.24C140.4 205.58 140.59 204.15 141.05 203.22C141.33 202.65 141.7 202.29 142.12 202.17C142.48 202.07 142.87 202.14 143.26 202.39L160.42 213.22L160.44 213.28L161.75 217.9ZM140.83 207.13C141.91 207.71 154.3 213.83 161.2 217.24L160.13 213.45L143.08 202.69C142.77 202.5 142.48 202.44 142.22 202.52C141.9 202.61 141.6 202.91 141.37 203.39C140.95 204.25 140.76 205.58 140.84 207.15L140.83 207.13Z" fill="#131A2D"/>
<defs>
<linearGradient id="paint0_linear_109_7142" x1="166.57" y1="180.72" x2="133.02" y2="180.72" gradientUnits="userSpaceOnUse">
<stop stop-color="#C6CAE6"/>
<stop offset="1" stop-color="white"/>
</linearGradient>
<linearGradient id="paint1_linear_109_7142" x1="129.97" y1="162.26" x2="210.88" y2="162.26" gradientUnits="userSpaceOnUse">
<stop stop-color="#42B1FF"/>
<stop offset="1" stop-color="#4A83E7"/>
</linearGradient>
</defs>
</svg>
