<svg width="220" height="101" viewBox="0 0 220 101" fill="none" xmlns="http://www.w3.org/2000/svg">
<g filter="url(#filter0_d_38_68925)">
<path d="M170.87 3H42.71C20.8948 3 3.21002 20.6825 3.21002 42.495C3.21002 64.3075 20.8948 81.99 42.71 81.99H170.87C192.685 81.99 210.37 64.3075 210.37 42.495C210.37 20.6825 192.685 3 170.87 3Z" fill="white"/>
<path d="M116.556 81.9929L106.798 72.2349L97.0396 81.9929L106.798 91.751L116.556 81.9929Z" fill="white"/>
<path d="M23 33.7131H25.8645V40.1185H29.0882V33.7131H31.9526V51.7864H23V33.7131ZM29.0928 49.2345V42.6704H25.8691V49.2345H29.0928ZM33.6135 33.3119H36.478V40.5664H38.2694V33.2H41.1339V53.2H38.2694V43.3003H36.478V52.7521H33.6135V33.3119Z" fill="#FF8B00"/>
<path d="M43.4899 45.269H63.4199V47.8443H55.0457V53.1953H51.864V47.8443H43.4899V45.269ZM50.5904 43.4776C46.9188 43.4776 44.7215 41.5275 44.7215 38.5044C44.7215 35.4813 46.9142 33.5359 50.5904 33.5359H56.3007C59.9723 33.5359 62.1883 35.486 62.1883 38.5091C62.1883 41.5322 59.9723 43.4822 56.3007 43.4822H50.5904V43.4776ZM56.436 40.9257C58.0688 40.9257 59.1465 39.918 59.1465 38.5091C59.1465 37.1002 58.0735 36.0925 56.436 36.0925H50.4784C48.8456 36.0925 47.7679 37.1002 47.7679 38.5091C47.7679 39.918 48.8409 40.9257 50.4784 40.9257H56.436Z" fill="#FF8B00"/>
<path d="M65.8831 33.7598H68.9295V48.8986H78.8526V51.4505H65.8878V33.7598H65.8831ZM80.1915 33.2H83.2379V53.2H80.1915V33.2Z" fill="#FF8B00"/>
<path d="M91.8593 42.022H111.789V44.4199H103.415V45.9408H106.102C109.014 45.9408 110.782 47.3497 110.782 49.5704C110.782 51.791 109.014 53.1999 106.102 53.1999H97.5463C94.6352 53.1999 92.867 51.7864 92.867 49.5704C92.867 47.3544 94.6352 45.9408 97.5463 45.9408H100.233V44.4199H91.8593V42.022ZM92.979 38.4624H95.8901V35.7098H93.2029V33.2886H110.446V35.7052H107.759V38.4577H110.67V40.879H92.979V38.4577V38.4624ZM105.902 50.7787C107.045 50.7787 107.74 50.2655 107.74 49.5704C107.74 48.8752 107.045 48.3621 105.902 48.3621H97.7516C96.6086 48.3621 95.9135 48.8752 95.9135 49.5704C95.9135 50.2655 96.6086 50.7787 97.7516 50.7787H105.902ZM104.717 38.4624V35.7098H98.9366V38.4624H104.717Z" fill="#FF8B00"/>
<path d="M114.029 33.4239H117.075V42.092H126.774V44.5086H114.033V33.4239H114.029ZM115.036 46.1647H118.083V50.6014H132.055V53.1113H115.036V46.1694V46.1647ZM128.561 40.9676H122.426V38.6397H128.561V37.1608H122.426V34.8328H128.561V33.2H131.607V47.8442H128.561V40.9676Z" fill="#FF8B00"/>
<path d="M135.19 38.9756C135.19 35.3926 137.565 33.3073 141.171 33.3073C144.777 33.3073 147.152 35.388 147.152 38.9756V46.454C147.152 50.0369 144.777 52.1176 141.171 52.1176C137.565 52.1176 135.19 50.0369 135.19 46.454V38.9756ZM144.106 38.8869C144.106 37.0488 142.963 35.8405 141.171 35.8405C139.38 35.8405 138.237 37.0488 138.237 38.8869V46.5473C138.237 48.3854 139.38 49.5937 141.171 49.5937C142.963 49.5937 144.106 48.3854 144.106 46.5473V38.8869ZM149.839 33.2H152.886V53.2H149.839V33.2Z" fill="#FF8B00"/>
<path d="M155.68 49.8597H164.054V46.0295H163.807C159.506 46.0295 156.907 43.5895 156.907 39.7827C156.907 35.9758 159.506 33.5359 163.807 33.5359H167.479C171.757 33.5359 174.379 35.9758 174.379 39.7827C174.379 43.5895 171.757 46.0295 167.479 46.0295H167.231V49.8597H175.606V52.4349H155.676V49.8597H155.68ZM167.595 43.4776C169.881 43.4776 171.337 41.9567 171.337 39.7827C171.337 37.6087 169.881 36.0878 167.595 36.0878H163.7C161.414 36.0878 159.958 37.6087 159.958 39.7827C159.958 41.9567 161.414 43.4776 163.7 43.4776H167.595Z" fill="#FF8B00"/>
<path d="M178.027 43.7015C178.764 41.7094 180.779 40.5011 182.235 40.5011C184.185 40.5011 185.323 42.3579 186.849 42.3579C187.609 42.3579 188.528 41.6628 189 40.3892L191.062 41.8214C190.324 43.8135 188.309 45.0264 186.854 45.0264C184.903 45.0264 183.765 43.1697 182.24 43.1697C181.479 43.1697 180.56 43.8648 180.089 45.1384L178.027 43.7062V43.7015Z" fill="#FF8B00"/>
</g>
<defs>
<filter id="filter0_d_38_68925" x="0.210022" y="0" width="219.16" height="100.751" filterUnits="userSpaceOnUse" color-interpolation-filters="sRGB">
<feFlood flood-opacity="0" result="BackgroundImageFix"/>
<feColorMatrix in="SourceAlpha" type="matrix" values="0 0 0 0 0 0 0 0 0 0 0 0 0 0 0 0 0 0 127 0" result="hardAlpha"/>
<feOffset dx="3" dy="3"/>
<feGaussianBlur stdDeviation="3"/>
<feColorMatrix type="matrix" values="0 0 0 0 0 0 0 0 0 0 0 0 0 0 0 0 0 0 0.4 0"/>
<feBlend mode="normal" in2="BackgroundImageFix" result="effect1_dropShadow_38_68925"/>
<feBlend mode="normal" in="SourceGraphic" in2="effect1_dropShadow_38_68925" result="shape"/>
</filter>
</defs>
</svg>
