<svg width="262" height="117" viewBox="0 0 262 117" fill="none" xmlns="http://www.w3.org/2000/svg">
<g filter="url(#filter0_d_109_7423)">
<path fill-rule="evenodd" clip-rule="evenodd" d="M52.4013 0L209.442 0C236.173 0 257.843 21.6673 257.843 48.3952C257.843 75.1231 236.173 96.7904 209.442 96.7904L142.884 96.7904L142.888 96.794L130.931 108.751L118.974 96.794L118.978 96.7904L52.4013 96.7904C25.67 96.7904 4 75.1231 4 48.3952C4 21.6673 25.67 0 52.4013 0Z" fill="white"/>
<path d="M94.3318 52.408V49.356C99.2598 48.628 103.432 45.66 103.432 41.516V41.46H94.7518V38.268H103.348V35.328H107.436V38.268H116.032V41.46H107.352V41.516C107.352 45.66 111.524 48.628 116.452 49.356V52.408C112.168 51.904 107.912 50.028 105.392 47.004C102.844 50.028 98.6158 51.904 94.3318 52.408ZM92.9318 59.94V56.72H103.404V51.708H107.38V56.72H117.852V59.94H92.9318ZM133.229 60.192V35.888H136.813V45.044H139.613V35.748H143.197V60.752H139.613V48.46H136.813V60.192H133.229ZM120.657 58.848V36.448H131.157V39.64H124.353V55.656H131.829V58.848H120.657ZM147.963 60.64V53.164H165.379V51.484H147.963V48.6H169.243V55.936H151.827V57.756H169.803V60.64H147.963ZM146.143 46.808V43.812H165.435V38.996H147.683V35.86H169.243V43.812H171.063V46.808H146.143Z" fill="#333333"/>
</g>
<defs>
<filter id="filter0_d_109_7423" x="0" y="0" width="261.843" height="116.751" filterUnits="userSpaceOnUse" color-interpolation-filters="sRGB">
<feFlood flood-opacity="0" result="BackgroundImageFix"/>
<feColorMatrix in="SourceAlpha" type="matrix" values="0 0 0 0 0 0 0 0 0 0 0 0 0 0 0 0 0 0 127 0" result="hardAlpha"/>
<feOffset dy="4"/>
<feGaussianBlur stdDeviation="2"/>
<feComposite in2="hardAlpha" operator="out"/>
<feColorMatrix type="matrix" values="0 0 0 0 0 0 0 0 0 0 0 0 0 0 0 0 0 0 0.25 0"/>
<feBlend mode="normal" in2="BackgroundImageFix" result="effect1_dropShadow_109_7423"/>
<feBlend mode="normal" in="SourceGraphic" in2="effect1_dropShadow_109_7423" result="shape"/>
</filter>
</defs>
</svg>
