<svg width="220" height="102" viewBox="0 0 220 102" fill="none" xmlns="http://www.w3.org/2000/svg">
<g filter="url(#filter0_d_36_24527)">
<path d="M170.87 3.80005H42.71C20.8947 3.80005 3.20996 21.4826 3.20996 43.295C3.20996 65.1075 20.8947 82.79 42.71 82.79H170.87C192.685 82.79 210.37 65.1075 210.37 43.295C210.37 21.4826 192.685 3.80005 170.87 3.80005Z" fill="white"/>
<path d="M116.556 82.793L106.798 73.0349L97.0395 82.793L106.798 92.5511L116.556 82.793Z" fill="white"/>
<path d="M36.0058 38.6418C38.6512 38.234 40.5257 36.3309 40.59 34.156H36.111V31.8215H47.837V34.1501H43.5916C43.6324 36.2836 45.2967 37.9267 47.9421 38.4645V40.8167C45.577 40.3853 43.4456 39.2624 42.0791 37.7553C40.6717 39.481 38.5811 40.539 36 40.994V38.6418H36.0058ZM37.1796 45.1371H50.0152V43.9491H37.1796V41.7269H52.9584V47.2706H40.1228V48.565H53.3847V50.7872H37.1796V45.1312V45.1371ZM50.0561 31.6028H52.9584V34.9243H55.5161V37.5543H52.9584V40.9645H50.0561V31.6028Z" fill="#F06673"/>
<path d="M56.2638 32.4657H59.7384V31H62.8101V32.4657H66.2846V34.6879H56.2638V32.4657ZM60.6143 42.4362C57.969 42.4362 56.3689 40.9704 56.3689 38.896C56.3689 36.8215 57.969 35.3558 60.6143 35.3558H61.9341C64.5795 35.3558 66.1795 36.8215 66.1795 38.896C66.1795 40.9704 64.5795 42.4362 61.9341 42.4362H60.6143ZM57.8639 48.5414C59.9311 48.1513 61.064 46.2955 61.064 44.422V43.5591H64.0481V44.422C64.0481 46.3014 64.9882 48.0686 66.3956 48.5414C67.7796 48.0686 68.7431 46.2955 68.7431 44.422V43.5591H71.7272V44.422C71.7272 46.3014 72.8601 48.1572 74.9273 48.5414V51C73.0294 50.805 71.2192 49.6643 70.3198 48.1749C69.5081 49.4929 68.019 50.6158 66.3956 51C64.7313 50.6099 63.2831 49.487 62.4713 48.1749C61.5779 49.6643 59.7617 50.805 57.8639 51V48.5414ZM61.7005 40.1017C62.7692 40.1017 63.4466 39.5816 63.4466 38.896C63.4466 38.2104 62.7633 37.6903 61.7005 37.6903H60.8479C59.7793 37.6903 59.1019 38.2104 59.1019 38.896C59.1019 39.5816 59.7851 40.1017 60.8479 40.1017H61.7005ZM67.0146 31.7092H69.7417V35.9823H71.552V31.6028H74.2791V42.909H71.552V38.6123H69.7417V42.909H67.0146V31.7092Z" fill="#F06673"/>
<path d="M76.5274 39.7588H91.22V34.1087H77.7012V31.6914H94.1223V39.7647H95.5063V42.0756H87.9557V46.3723H84.9249V42.0756H76.5216V39.7647L76.5274 39.7588ZM77.9114 44.0968H80.8138V48.3699H94.3326V50.7872H77.9114V44.0968Z" fill="#F06673"/>
<path d="M100.628 46.4314C101.737 46.4314 102.549 47.253 102.549 48.3759C102.549 49.4988 101.737 50.3203 100.628 50.3203C99.5182 50.3203 98.7065 49.4988 98.7065 48.3759C98.7065 47.253 99.5182 46.4314 100.628 46.4314ZM98.9868 32.448H102.269L101.971 44.4456H99.2846L98.9868 32.448Z" fill="#F06673"/>
<path d="M111.25 38.6418C113.895 38.234 115.77 36.3309 115.834 34.156H111.355V31.8215H123.081V34.1501H118.836C118.877 36.2836 120.541 37.9267 123.186 38.4645V40.8167C120.821 40.3853 118.69 39.2624 117.323 37.7553C115.916 39.481 113.825 40.539 111.244 40.994V38.6418H111.25ZM112.424 45.1371H125.259V43.9491H112.424V41.7269H128.203V47.2706H115.367V48.565H128.629V50.7872H112.424V45.1312V45.1371ZM125.3 31.6028H128.203V34.9243H130.76V37.5543H128.203V40.9645H125.3V31.6028Z" fill="#F06673"/>
<path d="M131.508 32.4657H134.982V31H138.054V32.4657H141.529V34.6879H131.508V32.4657ZM135.858 42.4362C133.213 42.4362 131.613 40.9704 131.613 38.896C131.613 36.8215 133.213 35.3558 135.858 35.3558H137.178C139.823 35.3558 141.424 36.8215 141.424 38.896C141.424 40.9704 139.823 42.4362 137.178 42.4362H135.858ZM133.108 48.5414C135.175 48.1513 136.308 46.2955 136.308 44.422V43.5591H139.292V44.422C139.292 46.3014 140.232 48.0686 141.64 48.5414C143.024 48.0686 143.987 46.2955 143.987 44.422V43.5591H146.971V44.422C146.971 46.3014 148.104 48.1572 150.171 48.5414V51C148.273 50.805 146.463 49.6643 145.564 48.1749C144.752 49.4929 143.263 50.6158 141.64 51C139.975 50.6099 138.527 49.487 137.715 48.1749C136.822 49.6643 135.006 50.805 133.108 51V48.5414ZM136.945 40.1017C138.013 40.1017 138.691 39.5816 138.691 38.896C138.691 38.2104 138.007 37.6903 136.945 37.6903H136.092C135.023 37.6903 134.346 38.2104 134.346 38.896C134.346 39.5816 135.029 40.1017 136.092 40.1017H136.945ZM142.253 31.7092H144.98V35.9823H146.79V31.6028H149.517V42.909H146.79V38.6123H144.98V42.909H142.253V31.7092Z" fill="#F06673"/>
<path d="M152.513 37.1288C152.513 33.6773 154.773 31.7092 158.166 31.7092C161.559 31.7092 163.819 33.6713 163.819 37.1288V39.2446H166.464V31.6028H169.366V50.8758H166.464V41.8747H163.819V44.4219C163.819 47.8735 161.559 49.8416 158.166 49.8416C154.773 49.8416 152.513 47.8794 152.513 44.4219V37.1288ZM160.916 37.0638C160.916 35.2966 159.871 34.1737 158.166 34.1737C156.461 34.1737 155.415 35.2966 155.415 37.0638V44.4869C155.415 46.2541 156.461 47.377 158.166 47.377C159.871 47.377 160.916 46.2541 160.916 44.4869V37.0638Z" fill="#F06673"/>
<path d="M175.866 46.4314C176.975 46.4314 177.787 47.253 177.787 48.3759C177.787 49.4988 176.975 50.3203 175.866 50.3203C174.756 50.3203 173.945 49.4988 173.945 48.3759C173.945 47.253 174.756 46.4314 175.866 46.4314ZM174.225 32.448H177.507L177.209 44.4456H174.523L174.225 32.448Z" fill="#F06673"/>
</g>
<defs>
<filter id="filter0_d_36_24527" x="0.209961" y="0.800049" width="219.16" height="100.751" filterUnits="userSpaceOnUse" color-interpolation-filters="sRGB">
<feFlood flood-opacity="0" result="BackgroundImageFix"/>
<feColorMatrix in="SourceAlpha" type="matrix" values="0 0 0 0 0 0 0 0 0 0 0 0 0 0 0 0 0 0 127 0" result="hardAlpha"/>
<feOffset dx="3" dy="3"/>
<feGaussianBlur stdDeviation="3"/>
<feColorMatrix type="matrix" values="0 0 0 0 0 0 0 0 0 0 0 0 0 0 0 0 0 0 0.4 0"/>
<feBlend mode="normal" in2="BackgroundImageFix" result="effect1_dropShadow_36_24527"/>
<feBlend mode="normal" in="SourceGraphic" in2="effect1_dropShadow_36_24527" result="shape"/>
</filter>
</defs>
</svg>
