<svg width="256" height="257" viewBox="0 0 256 257" fill="none" xmlns="http://www.w3.org/2000/svg">
<path d="M127.51 120.524V121.624L97.16 139.144L55.43 115.054V113.954L85.78 97.7344L127.51 120.524Z" fill="#322C8D"/>
<path d="M127.51 120.524L97.16 138.044L55.43 113.954L85.78 96.4243L127.51 120.524Z" fill="white"/>
<path d="M97.16 138.244L97.08 138.194L55.1 113.954L55.36 113.804L85.79 96.2344L85.87 96.2844L127.85 120.524L127.6 120.674L97.16 138.244ZM55.77 113.954L97.16 137.854L127.17 120.524L85.78 96.6244L55.77 113.954Z" fill="#131A2D"/>
<path d="M124.81 120.394L96.42 136.784V132.084L124.81 115.694V120.394Z" fill="#131A2D"/>
<path d="M127.54 113.634V114.734L97.19 132.254L55.46 108.164V107.064L85.81 90.8442L127.54 113.634Z" fill="#131A2D"/>
<path d="M127.54 113.634L97.19 131.154L55.46 107.064L85.81 89.5442L127.54 113.634Z" fill="white"/>
<path d="M97.19 131.354L97.11 131.304L55.13 107.064L55.38 106.914L85.81 89.3442L85.89 89.3942L127.87 113.634L127.61 113.784L97.18 131.354H97.19ZM55.8 107.064L97.19 130.964L127.2 113.634L85.81 89.7342L55.8 107.064Z" fill="#131A2D"/>
<path d="M99.35 102.114L79.85 113.364L77.07 111.764L96.57 100.504L99.35 102.114Z" fill="white"/>
<path d="M79.85 113.564L76.73 111.764L96.57 100.314L99.69 102.114L79.85 113.564ZM77.4 111.764L79.85 113.174L99.01 102.114L96.56 100.704L77.4 111.764Z" fill="#131A2D"/>
<path d="M99.79 106.684L87.78 113.614L84.99 112.014L97 105.074L99.79 106.684Z" fill="white"/>
<path d="M87.78 113.814L84.66 112.004L97.01 104.874L100.13 106.674L87.78 113.804V113.814ZM85.33 112.004L87.78 113.414L99.45 106.674L97 105.264L85.33 112.004Z" fill="#131A2D"/>
<path d="M108.63 117.904L104.59 120.244L103.45 119.584L107.49 117.244L108.63 117.904Z" fill="white"/>
<path d="M104.59 120.434L103.11 119.584L107.5 117.054L108.98 117.904L104.6 120.434H104.59ZM103.79 119.584L104.59 120.044L108.29 117.904L107.49 117.444L103.78 119.584H103.79Z" fill="#131A2D"/>
<path d="M55.21 107.204L55.46 107.064L97.16 131.164L95.4 139.414L53.86 115.404L53.54 115.224C52.76 114.604 52.4 113.964 52.4 112.244C52.4 110.174 53.28 108.334 55.2 107.224L55.21 107.204Z" fill="#131A2D"/>
<path d="M97.16 131.154V132.244C95.71 133.084 95.03 134.774 95.09 135.844C95.2 137.574 95.71 138.874 96.92 138.184L97.16 138.044V139.134L96.92 139.274C95 140.384 94.13 137.934 94.13 135.884C94.13 134.224 95.01 132.394 97.16 131.144V131.154Z" fill="#322C8D"/>
<path d="M109.14 149.384C110.08 149.924 110.84 151.244 110.83 152.324L110.81 158.254C110.81 158.794 110.62 159.164 110.32 159.344L66.38 184.704C66.69 184.524 66.87 184.154 66.87 183.614L66.89 177.684C66.89 176.604 66.14 175.284 65.2 174.744L33.53 156.464L77.47 131.104L109.14 149.394V149.384Z" fill="#3DD3B6"/>
<path d="M66.48 184.854L66.31 184.564C66.57 184.414 66.72 184.074 66.72 183.624L66.74 177.694C66.74 176.674 66.02 175.414 65.13 174.904L33.2 156.474L33.45 156.324L77.47 130.914L77.55 130.964L109.22 149.244C110.2 149.814 111 151.194 111 152.334L110.98 158.264C110.98 158.844 110.77 159.284 110.4 159.504L66.46 184.864L66.48 184.854ZM33.88 156.464L65.3 174.604C66.28 175.174 67.09 176.554 67.08 177.694L67.06 183.624C67.06 183.824 67.04 184.014 66.99 184.174L110.25 159.204C110.51 159.054 110.66 158.714 110.66 158.264L110.68 152.334C110.68 151.314 109.96 150.054 109.07 149.544L77.48 131.304L33.88 156.474V156.464Z" fill="#131A2D"/>
<path d="M34.46 165.134L36.3 161.964L34.45 157.694L33.53 157.164V156.464L65.21 174.744C66.15 175.284 66.91 176.604 66.9 177.684L66.88 183.614C66.88 184.694 66.12 185.124 65.18 184.584L33.51 166.304V165.704L34.47 165.144L34.46 165.134Z" fill="#131A2D"/>
<path d="M36.52 162.474L34.45 157.694L64.93 175.244C65.29 175.454 65.65 175.834 65.92 176.294C66.19 176.764 66.34 177.264 66.34 177.684L66.32 183.614C66.32 183.914 66.24 184.144 66.11 184.214C65.97 184.294 65.74 184.244 65.47 184.094L33.52 165.694L34.44 165.164L36.53 162.464L36.52 162.474Z" fill="#3DD3B6"/>
<path d="M65.94 184.424C65.78 184.424 65.59 184.364 65.38 184.244L33.17 165.704L34.32 165.044L36.33 162.454L34.1 157.294L65.02 175.094C65.41 175.314 65.79 175.724 66.07 176.214C66.35 176.704 66.52 177.244 66.51 177.694V183.624C66.49 183.994 66.38 184.264 66.19 184.374C66.12 184.414 66.04 184.434 65.94 184.434V184.424ZM33.84 165.704L65.54 183.954C65.77 184.094 65.95 184.114 66.01 184.074C66.06 184.044 66.14 183.894 66.14 183.614L66.16 177.684C66.16 177.294 66.02 176.824 65.76 176.374C65.51 175.934 65.17 175.574 64.83 175.384L34.8 158.094L36.7 162.494L34.5 165.314L33.83 165.694L33.84 165.704Z" fill="#131A2D"/>
<path d="M64.92 175.244C65.28 175.454 65.64 175.834 65.91 176.294C66.18 176.764 66.33 177.264 66.33 177.684L66.31 183.524L34.42 165.164L34.44 157.694L64.92 175.244Z" fill="white"/>
<path d="M66.49 183.824L66.24 183.674L34.26 165.264L34.28 157.394L34.54 157.544L65.01 175.094C65.4 175.314 65.78 175.724 66.06 176.214C66.34 176.704 66.51 177.244 66.5 177.694L66.48 183.834L66.49 183.824ZM34.6 165.074L66.15 183.244L66.17 177.694C66.17 177.304 66.03 176.834 65.77 176.384C65.52 175.944 65.18 175.584 64.84 175.394L34.62 157.994L34.6 165.074Z" fill="#131A2D"/>
<path d="M38.75 157.534C38.65 157.594 38.65 157.684 38.75 157.734C50.22 164.354 51.74 165.234 62.86 171.654C62.96 171.714 63.11 171.704 63.21 171.654C64.23 171.064 65.9 171.064 66.93 171.654C67.03 171.714 67.18 171.714 67.28 171.654C81.18 163.574 75.75 166.744 103.64 150.534C103.74 150.474 103.74 150.384 103.64 150.334C102.61 149.734 102.6 148.774 103.63 148.174C103.73 148.114 103.73 148.024 103.63 147.974C92.51 141.554 90.99 140.674 79.52 134.054C79.42 133.994 79.27 133.994 79.17 134.054C78.15 134.644 76.47 134.644 75.45 134.054C75.35 133.994 75.2 133.994 75.1 134.054C71.15 136.354 41.67 153.474 38.74 155.174C38.64 155.234 38.65 155.324 38.74 155.374C39.77 155.964 39.77 156.934 38.74 157.534H38.75ZM39.25 155.284C42.29 153.514 71.46 136.584 75.28 134.354C76.45 134.934 78.17 134.934 79.33 134.354C81.6 135.664 99.8 146.174 103.1 148.074C102.11 148.744 102.12 149.744 103.12 150.424C99.12 152.744 71.1 169.024 67.09 171.354C65.92 170.784 64.2 170.774 63.04 171.354C59.73 169.444 41.54 158.944 39.27 157.624C40.26 156.954 40.25 155.954 39.26 155.274L39.25 155.284Z" fill="#131A2D"/>
<path d="M67.78 143.574L73.9 140.144C74.29 139.924 74.76 139.934 75.14 140.144L91.35 149.504C92.19 149.994 92.18 151.214 91.34 151.684L85.22 155.114C84.83 155.334 84.36 155.324 83.98 155.114L67.77 145.754C66.93 145.264 66.93 144.044 67.78 143.574Z" fill="white"/>
<path d="M84.61 155.454C84.36 155.454 84.12 155.394 83.9 155.264L67.69 145.904C67.24 145.644 66.97 145.184 66.98 144.664C66.98 144.144 67.25 143.684 67.71 143.434L73.83 140.004C74.27 139.764 74.81 139.764 75.24 140.014L91.45 149.374C91.9 149.634 92.17 150.094 92.16 150.614C92.16 151.134 91.89 151.594 91.43 151.844L85.31 155.274C85.1 155.394 84.85 155.454 84.61 155.454ZM74.52 140.154C74.34 140.154 74.15 140.204 73.99 140.294L67.87 143.724C67.52 143.914 67.32 144.264 67.31 144.664C67.3 145.064 67.51 145.414 67.85 145.614L84.06 154.974C84.39 155.164 84.8 155.164 85.13 154.974L91.25 151.544C91.59 151.354 91.8 151.004 91.81 150.604C91.81 150.204 91.61 149.854 91.27 149.654L75.06 140.294C74.89 140.194 74.7 140.154 74.52 140.154Z" fill="#131A2D"/>
<path d="M6.83001 130.414L41.4 110.454L89.36 138.144L54.79 158.104C53.77 158.694 52.94 160.134 52.94 161.314L52.96 167.784C52.96 168.364 53.17 168.784 53.5 168.974L5.54001 141.284C5.21001 141.094 5.00001 140.674 5.00001 140.094L4.98001 133.624C4.98001 132.444 5.80001 131.004 6.83001 130.414Z" fill="#3DD3B6"/>
<path d="M53.41 169.114L5.45 141.434C5.05 141.194 4.83 140.724 4.83 140.094L4.81 133.624C4.81 132.394 5.67 130.884 6.74 130.264L41.4 110.254L41.48 110.304L89.7 138.134L89.45 138.284L54.88 158.244C53.9 158.804 53.11 160.184 53.12 161.304L53.14 167.774C53.14 168.274 53.3 168.644 53.6 168.814L53.43 169.104L53.41 169.114ZM6.91 130.564C5.93 131.124 5.14 132.504 5.15 133.624V140.094C5.16 140.594 5.33 140.964 5.62 141.134L52.88 168.414C52.82 168.224 52.79 168.014 52.79 167.774L52.77 161.304C52.77 160.074 53.63 158.564 54.7 157.944L89.02 138.124L41.4 110.634L6.91 130.544V130.564Z" fill="#131A2D"/>
<path d="M54.79 158.104L89.36 138.144V138.914L88.36 139.494L86.34 144.154L88.35 147.614L89.39 148.224V148.884L54.82 168.844C53.8 169.434 52.96 168.964 52.96 167.784L52.94 161.314C52.94 160.134 53.76 158.694 54.79 158.104Z" fill="#131A2D"/>
<path d="M55.1 158.634L88.37 139.484L86.11 144.704L88.39 147.644L89.39 148.224L54.51 168.304C54.22 168.474 53.96 168.524 53.81 168.434C53.67 168.354 53.58 168.104 53.58 167.774L53.56 161.304C53.56 160.844 53.73 160.294 54.02 159.784C54.31 159.284 54.7 158.864 55.1 158.634Z" fill="white"/>
<path d="M53.99 168.814C53.86 168.814 53.74 168.784 53.64 168.724C53.38 168.574 53.24 168.244 53.24 167.774L53.22 161.304C53.22 160.784 53.4 160.174 53.73 159.614C54.05 159.064 54.49 158.594 54.93 158.344L89.09 138.674L86.5 144.644L88.62 147.374L90.07 148.214L54.68 168.594C54.43 168.734 54.2 168.814 53.99 168.814ZM55.27 158.924C54.92 159.124 54.57 159.494 54.31 159.954C54.05 160.414 53.89 160.904 53.9 161.304L53.92 167.774C53.92 168.014 53.98 168.124 54 168.144C54 168.144 54.13 168.134 54.35 168.004L88.72 148.214L88.13 147.844L85.73 144.744L87.66 140.274L55.28 158.914L55.27 158.924Z" fill="#131A2D"/>
<path d="M55.1 158.634L88.37 139.484L88.39 147.644L53.58 167.684L53.56 161.304C53.56 160.844 53.73 160.294 54.02 159.784C54.31 159.284 54.7 158.864 55.1 158.634Z" fill="#131A2D"/>
<path d="M7.41001 122.504L41.35 102.914L88.43 130.094L54.49 149.684C53.48 150.264 52.67 151.674 52.68 152.834L52.7 156.154C52.7 156.724 52.9 157.134 53.23 157.324L6.15001 130.144C5.82001 129.954 5.62001 129.554 5.62001 128.974L5.60001 125.654C5.60001 124.494 6.41001 123.084 7.41001 122.504Z" fill="#3DD3B6"/>
<path d="M53.14 157.464L6.06001 130.284C5.66001 130.054 5.45001 129.584 5.44001 128.974L5.42001 125.654C5.42001 124.444 6.27001 122.964 7.32001 122.354L41.34 102.714L41.43 102.764L88.76 130.084L88.5 130.234L54.56 149.834C53.6 150.384 52.83 151.734 52.83 152.834L52.85 156.154C52.85 156.644 53.01 157.014 53.29 157.174L53.12 157.464H53.14ZM7.41001 122.504L7.49001 122.654C6.53001 123.204 5.76001 124.554 5.76001 125.654L5.78001 128.974C5.78001 129.464 5.94001 129.834 6.23001 129.994L52.61 156.774C52.55 156.594 52.52 156.384 52.52 156.154L52.5 152.834C52.5 151.624 53.35 150.144 54.4 149.534L88.08 130.084L41.34 103.104L7.50001 122.654L7.42001 122.504H7.41001Z" fill="#131A2D"/>
<path d="M54.49 149.684L88.43 130.094V130.844L87.45 131.414L85.46 135.994L87.43 136.364L88.45 136.964V137.604L54.51 157.204C53.5 157.784 52.69 157.324 52.68 156.164L52.66 152.844C52.66 151.684 53.47 150.274 54.47 149.694L54.49 149.684Z" fill="#131A2D"/>
<path d="M54.79 150.204L87.45 131.404L85.23 136.524L87.47 136.384L88.45 136.954L54.21 156.664C53.92 156.834 53.67 156.874 53.52 156.794C53.38 156.714 53.29 156.474 53.29 156.144L53.27 152.824C53.27 152.374 53.44 151.824 53.72 151.334C54.01 150.844 54.39 150.424 54.78 150.204H54.79Z" fill="#3DD3B6"/>
<path d="M53.71 157.004C53.61 157.004 53.53 156.984 53.45 156.944C53.25 156.834 53.13 156.544 53.13 156.154L53.11 152.834C53.11 152.354 53.29 151.774 53.59 151.254C53.89 150.734 54.29 150.304 54.71 150.064L87.81 131.004L85.5 136.344L87.51 136.214L88.8 136.954L88.54 137.104L54.3 156.814C54.08 156.944 53.87 157.004 53.7 157.004H53.71ZM54.89 150.354C54.52 150.564 54.16 150.954 53.89 151.424C53.62 151.894 53.46 152.404 53.46 152.834L53.48 156.154C53.48 156.444 53.55 156.614 53.62 156.654C53.69 156.694 53.88 156.674 54.14 156.524L88.12 136.954L87.44 136.564L84.98 136.724L87.1 131.814L54.89 150.364V150.354Z" fill="#131A2D"/>
<path d="M54.79 150.204L87.45 131.404L87.47 136.384L53.3 156.054L53.28 152.824C53.28 152.374 53.45 151.824 53.73 151.334C54.02 150.844 54.4 150.424 54.79 150.204Z" fill="white"/>
<path d="M53.13 156.354L53.11 152.834C53.11 152.354 53.29 151.774 53.59 151.254C53.89 150.734 54.29 150.304 54.71 150.064L87.62 131.114L87.65 136.484L87.56 136.534L53.14 156.354H53.13ZM54.88 150.354C54.51 150.564 54.15 150.954 53.88 151.424C53.61 151.894 53.45 152.404 53.45 152.834V155.764L87.3 136.284L87.28 131.694L54.88 150.354Z" fill="#131A2D"/>
<path d="M9.25 111.164L40.92 92.8843L84.86 118.244L53.19 136.534C52.25 137.074 51.5 138.394 51.5 139.474V145.404C51.52 145.944 51.71 146.314 52.01 146.494L8.07 121.134C7.77 120.954 7.58 120.574 7.58 120.044L7.56 114.114C7.56 113.034 8.31 111.714 9.25 111.174V111.164Z" fill="#3DD3B6"/>
<path d="M51.92 146.634L7.99001 121.264C7.62001 121.044 7.41001 120.604 7.41001 120.024L7.39001 114.094C7.39001 112.964 8.18001 111.574 9.17001 111.004L40.93 92.6643L85.21 118.224L84.96 118.374L53.29 136.654C52.4 137.164 51.68 138.424 51.68 139.444V145.374C51.7 145.834 51.84 146.164 52.11 146.314L51.94 146.604L51.92 146.634ZM9.33001 111.314C8.44001 111.824 7.72001 113.084 7.72001 114.104L7.74001 120.034C7.74001 120.494 7.89001 120.824 8.15001 120.974L51.41 145.944C51.36 145.774 51.33 145.594 51.33 145.394V139.464C51.31 138.334 52.11 136.944 53.09 136.374L84.51 118.234L40.91 93.0643L9.32001 111.304L9.33001 111.314Z" fill="#131A2D"/>
<path d="M53.19 136.524L84.86 118.234V118.934L83.95 119.464L82.09 123.734L83.93 126.904L84.88 127.464V128.064L53.21 146.354C52.27 146.894 51.51 146.464 51.51 145.384V139.454C51.49 138.374 52.25 137.054 53.18 136.514L53.19 136.524Z" fill="#3DD3B6"/>
<path d="M52.45 146.764C52.26 146.764 52.08 146.724 51.92 146.624C51.55 146.404 51.34 145.964 51.34 145.384V139.454C51.32 138.324 52.12 136.934 53.1 136.364L85.02 117.934V119.024L84.07 119.574L82.27 123.714L84.04 126.774L85.04 127.364V128.164L84.96 128.214L53.29 146.494C53 146.664 52.71 146.754 52.44 146.754L52.45 146.764ZM53.27 136.674C52.38 137.184 51.66 138.444 51.66 139.464V145.394C51.67 145.854 51.82 146.184 52.09 146.334C52.36 146.484 52.72 146.444 53.13 146.214L84.72 127.974V127.564L83.81 127.024L81.9 123.734L83.81 119.334L84.69 118.834V118.514L53.26 136.654L53.27 136.674Z" fill="#131A2D"/>
<path d="M53.47 137.014L83.95 119.464L81.88 124.244L83.97 126.944L84.89 127.474L52.94 145.874C52.67 146.024 52.43 146.074 52.3 145.994C52.17 145.914 52.09 145.694 52.09 145.394L52.07 139.464C52.07 139.044 52.22 138.534 52.49 138.074C52.76 137.614 53.11 137.234 53.48 137.024L53.47 137.014Z" fill="#3DD3B6"/>
<path d="M52.45 146.204C52.36 146.204 52.27 146.184 52.2 146.144C52.01 146.034 51.9 145.764 51.9 145.394L51.88 139.464C51.88 139.014 52.04 138.484 52.32 137.984C52.6 137.504 52.99 137.094 53.37 136.864L84.29 119.064L82.06 124.224L84.07 126.814L85.21 127.474L53 146.024C52.79 146.144 52.6 146.204 52.44 146.204H52.45ZM53.55 137.164C53.21 137.364 52.87 137.724 52.62 138.154C52.37 138.594 52.22 139.074 52.22 139.464V145.394C52.24 145.674 52.31 145.824 52.36 145.854C52.41 145.874 52.56 145.894 52.83 145.734L84.53 127.484L83.82 127.054L81.67 124.284L81.71 124.194L83.57 119.884L53.54 137.174L53.55 137.164Z" fill="#131A2D"/>
<path d="M53.47 137.014L83.95 119.464L83.97 126.934L52.08 145.294L52.06 139.454C52.06 139.034 52.21 138.524 52.48 138.064C52.75 137.604 53.1 137.224 53.47 137.014Z" fill="#131A2D"/>
<path d="M14.76 112.104C14.66 112.164 14.66 112.254 14.76 112.304C42.65 128.514 37.22 125.344 51.12 133.424C51.22 133.484 51.37 133.484 51.47 133.424C52.5 132.834 54.17 132.834 55.19 133.424C55.29 133.484 55.44 133.484 55.54 133.424C66.66 127.004 68.18 126.124 79.65 119.504C79.75 119.444 79.75 119.354 79.65 119.304C78.63 118.704 78.63 117.744 79.65 117.144C79.75 117.084 79.75 116.994 79.65 116.944C76.72 115.244 47.24 98.1243 43.29 95.8243C43.19 95.7643 43.04 95.7643 42.94 95.8243C41.91 96.4143 40.24 96.4143 39.22 95.8243C39.12 95.7643 38.96 95.7643 38.87 95.8243C27.4 102.444 25.88 103.324 14.76 109.744C14.66 109.804 14.66 109.894 14.76 109.944C15.78 110.534 15.78 111.504 14.75 112.104H14.76ZM15.27 112.204C16.27 111.534 16.28 110.534 15.29 109.854C18.6 107.944 36.79 97.4443 39.06 96.1343C40.22 96.7043 41.95 96.7043 43.12 96.1343C46.94 98.3543 76.11 115.294 79.15 117.064C78.15 117.734 78.14 118.734 79.13 119.414C76.86 120.724 58.66 131.234 55.36 133.134C54.2 132.564 52.47 132.564 51.31 133.134C47.31 130.804 19.28 114.534 15.28 112.204H15.27Z" fill="#5E7EBF"/>
<path d="M27.04 111.294L43.25 101.934C43.63 101.714 44.1 101.714 44.49 101.934L50.61 105.364C51.46 105.844 51.47 107.064 50.62 107.544L34.41 116.904C34.03 117.124 33.55 117.124 33.17 116.904L27.05 113.474C26.2 112.994 26.19 111.774 27.04 111.294Z" fill="#5E7EBF"/>
<path d="M123.86 107.784V108.884L93.51 126.404L51.78 102.314V101.214L82.13 84.9941L123.86 107.784Z" fill="#131A2D"/>
<path d="M123.86 107.784L93.51 125.304L51.78 101.214L82.13 83.6943L123.86 107.784Z" fill="#3DD3B6"/>
<path d="M93.51 125.504L93.42 125.454L51.44 101.214L51.69 101.064L82.12 83.4941L82.21 83.5441L124.19 107.784L123.94 107.934L93.51 125.504ZM52.12 101.214L93.51 125.114L123.52 107.784L82.13 83.8841L52.12 101.214Z" fill="#131A2D"/>
<path d="M122.25 106.854L93.86 123.244V115.434L122.25 99.0442V106.854Z" fill="#131A2D"/>
<path d="M93.86 123.244L55.74 101.224V93.4143L93.86 115.434V123.244Z" fill="white"/>
<path d="M94.03 123.534L93.78 123.384L55.57 101.314V93.1143L55.82 93.2643L94.03 115.334V123.534ZM55.9 101.124L93.69 122.944V115.524L55.9 93.7043V101.124Z" fill="#131A2D"/>
<path d="M83.86 73.4243L125.53 97.4743L123.87 97.7843L82.12 73.6943L82.36 73.5543C82.96 73.2043 83.45 73.2043 83.86 73.4343V73.4243Z" fill="#3DD3B6"/>
<path d="M123.83 97.9643L123.78 97.9343L81.78 73.6943L82.28 73.4043C82.9 73.0443 83.46 73.0043 83.94 73.2843L126 97.5643L123.83 97.9643ZM82.45 73.6943L123.89 97.6143L125.04 97.4043L83.77 73.5843C83.4 73.3743 82.96 73.4143 82.45 73.7043V73.6943Z" fill="#131A2D"/>
<path d="M124.11 108.194L123.87 108.334V98.3342L124.11 98.1942C127.22 96.3942 127.2 106.414 124.11 108.194Z" fill="#131A2D"/>
<path d="M126.91 101.554C126.91 104.234 126.03 107.624 124.11 108.734L123.87 108.874V107.784L124.11 107.644C125.31 106.954 125.96 104.274 125.96 102.104C125.96 99.9342 125.31 98.0442 124.11 98.7342L123.87 98.8742V97.7842L124.11 97.6442C126.03 96.5342 126.91 98.8942 126.91 101.564V101.554Z" fill="#3DD3B6"/>
<path d="M123.69 109.174V107.684L124.02 107.494C125.12 106.854 125.78 104.254 125.78 102.104C125.78 100.474 125.41 99.1542 124.85 98.8342C124.65 98.7142 124.44 98.7342 124.18 98.8842L123.68 99.1742V97.6842L124.01 97.4942C124.63 97.1342 125.19 97.0942 125.68 97.3742C126.55 97.8742 127.07 99.4442 127.07 101.564C127.07 104.294 126.17 107.744 124.18 108.894L123.68 109.184L123.69 109.174ZM124.03 107.884V108.584C125.89 107.504 126.73 104.184 126.73 101.554C126.73 99.5842 126.27 98.0942 125.51 97.6642C125.14 97.4542 124.69 97.4942 124.18 97.7842L124.02 97.8742V98.5742C124.47 98.3242 124.81 98.4142 125.02 98.5342C125.83 99.0042 126.12 100.684 126.12 102.094C126.12 104.364 125.45 107.044 124.18 107.774L124.02 107.864L124.03 107.884Z" fill="#131A2D"/>
<path d="M123.86 97.7841V98.8841L93.51 116.404L51.78 92.3141V91.2141L82.13 74.9941L123.86 97.7841Z" fill="#131A2D"/>
<path d="M123.86 97.7843L93.51 115.304L51.78 91.2143L82.13 73.6943L123.86 97.7843Z" fill="#3DD3B6"/>
<path d="M93.51 115.504L93.42 115.454L51.44 91.2141L51.69 91.0641L82.12 73.4941L82.21 73.5441L124.19 97.7841L123.93 97.9341L93.5 115.504H93.51ZM52.12 91.2141L93.51 115.114L123.52 97.7841L82.13 73.8841L52.12 91.2141Z" fill="#131A2D"/>
<path d="M63.07 89.0743L78.43 80.2043C80.47 81.3843 83.79 81.3843 85.83 80.2043L112.58 95.6443C110.54 96.8243 110.54 98.7344 112.58 99.9144L97.22 108.784C95.18 107.604 91.86 107.604 89.82 108.784L63.08 93.3443C65.12 92.1643 65.12 90.2543 63.08 89.0743H63.07Z" fill="white"/>
<path d="M89.81 108.984L89.73 108.934L62.73 93.3441L62.99 93.1941C63.92 92.6541 64.44 91.9441 64.44 91.2041C64.44 90.4641 63.93 89.7541 62.99 89.2141L62.73 89.0641L78.43 79.9941L78.52 80.0441C80.51 81.1941 83.76 81.1941 85.75 80.0441L85.83 79.9941L85.92 80.0441L112.92 95.6341L112.66 95.7841C111.73 96.3241 111.21 97.0341 111.21 97.7741C111.21 98.5141 111.72 99.2241 112.66 99.7641L112.92 99.9141L97.22 108.984L97.13 108.934C95.14 107.784 91.89 107.784 89.9 108.934L89.81 108.984ZM93.51 107.734C94.84 107.734 96.18 108.024 97.21 108.594L112.24 99.9141C111.36 99.3341 110.87 98.5841 110.87 97.7841C110.87 96.9841 111.35 96.2341 112.24 95.6541L85.83 80.4041C83.77 81.5441 80.5 81.5441 78.43 80.4041L63.4 89.0841C64.29 89.6641 64.77 90.4141 64.77 91.2141C64.77 92.0141 64.29 92.7641 63.4 93.3441L89.82 108.594C90.85 108.024 92.19 107.734 93.52 107.734H93.51Z" fill="#131A2D"/>
<path d="M84.68 92.4842C87.8 90.6842 93.66 91.1542 97.78 93.5342C101.9 95.9142 102.71 99.2942 99.59 101.094C96.48 102.894 90.61 102.424 86.49 100.044C82.37 97.6642 81.56 94.2842 84.68 92.4842Z" fill="#3DD3B6"/>
<path d="M94.68 102.354C91.93 102.354 88.85 101.604 86.4 100.194C83.99 98.8042 82.61 97.0242 82.61 95.3242C82.61 94.1242 83.29 93.0942 84.59 92.3442C87.74 90.5242 93.69 90.9942 97.85 93.3942C100.26 94.7842 101.65 96.5642 101.65 98.2642C101.65 99.4642 100.97 100.494 99.67 101.244C98.37 101.994 96.6 102.354 94.68 102.354ZM89.57 91.5642C87.71 91.5642 86 91.9142 84.75 92.6342C83.57 93.3142 82.94 94.2442 82.94 95.3242C82.94 96.8842 84.3 98.5942 86.56 99.9042C90.63 102.254 96.43 102.724 99.49 100.954C100.67 100.274 101.3 99.3442 101.3 98.2742C101.3 96.7142 99.94 95.0042 97.68 93.6942C95.27 92.3042 92.26 91.5742 89.57 91.5742V91.5642Z" fill="#131A2D"/>
<path d="M85.9 84.5843L71.73 92.7643L69.71 91.5943L83.87 83.4143L85.9 84.5843Z" fill="#3DD3B6"/>
<path d="M71.73 92.9544L69.37 91.5944L83.87 83.2244L86.23 84.5944L71.73 92.9644V92.9544ZM70.05 91.5944L71.73 92.5644L85.55 84.5844L83.87 83.6144L70.05 91.5944Z" fill="#131A2D"/>
<path d="M80.14 84.4044L71.42 89.4344L69.4 88.2744L78.12 83.2344L80.14 84.4044Z" fill="#3DD3B6"/>
<path d="M71.42 89.6342L69.06 88.2742L78.12 83.0442L80.48 84.4042L71.42 89.6342ZM69.74 88.2742L71.42 89.2442L79.81 84.4042L78.12 83.4342L69.74 88.2742Z" fill="#131A2D"/>
<path d="M123.86 107.784L122.25 106.854V99.8043L123.86 98.8743V107.784Z" fill="#3DD3B6"/>
<path d="M124.03 108.074L122.08 106.954V99.7142L124.03 98.5842V108.074ZM122.42 106.754L123.69 107.484V99.1642L122.42 99.8942V106.744V106.754Z" fill="#131A2D"/>
<path d="M63.38 98.4742L64.12 98.0442L71.22 102.144L70.49 102.564L96.55 116.764V117.614L58.1 139.814L32.77 125.184C30.21 125.004 27.81 123.854 25.67 121.084L0.339996 106.474V105.624L38.79 84.2742L63.38 98.4742Z" fill="#131A2D"/>
<path d="M96.54 116.764L58.09 138.964L31.67 123.704L70.12 101.504L96.54 116.764Z" fill="#3DD3B6"/>
<path d="M58.09 139.164L58 139.114L31.32 123.714L31.57 123.564L70.1 101.314L70.19 101.364L96.87 116.764L96.62 116.914L58.09 139.164ZM32 123.714L58.09 138.774L96.2 116.774L70.11 101.714L32 123.714Z" fill="#131A2D"/>
<path d="M65.21 98.6743L26.76 120.874L0.339996 105.614L38.79 83.4143L65.21 98.6743Z" fill="#3DD3B6"/>
<path d="M26.76 121.074L26.67 121.024L0 105.614L0.25 105.464L38.78 83.2144L65.54 98.6644L65.29 98.8144L26.76 121.064V121.074ZM0.68 105.614L26.77 120.674L64.88 98.6744L38.79 83.6144L0.68 105.614Z" fill="#131A2D"/>
<path d="M62.22 93.9342C64.29 94.9842 66.03 97.8842 66.03 100.274L30.39 120.894L3.95001 103.094L39.59 82.5142L62.22 93.9342Z" fill="white"/>
<path d="M30.37 121.094L30.28 121.034L3.63 103.084L39.59 82.3242L39.67 82.3642L62.3 93.7842C64.41 94.8642 66.2 97.8342 66.2 100.274C66.2 100.341 64.3133 101.464 60.54 103.644L30.37 121.094ZM4.27 103.104L30.39 120.694C32.34 119.564 64.01 101.244 65.86 100.174C65.81 97.8642 64.13 95.0942 62.15 94.0842L39.6 82.7042L4.27 103.104Z" fill="#131A2D"/>
<path d="M69.83 98.3242L92.45 113.034L93.77 116.334C93.77 116.334 92.39 115.534 90.25 114.304L56.8 133.614L31.42 118.524L67.06 97.9442C67.76 97.5442 68.74 97.6342 69.81 98.3242H69.83Z" fill="white"/>
<path d="M56.81 133.804L56.72 133.754L31.09 118.514L66.98 97.7943C67.76 97.3443 68.83 97.4843 69.91 98.1843L92.58 112.924L92.6 112.974L94.1 116.734L90.24 114.504L56.79 133.814L56.81 133.804ZM31.77 118.524L56.81 133.414L90.25 114.104L93.43 115.944L92.31 113.144L69.73 98.4643C68.76 97.8343 67.82 97.7043 67.15 98.0843L31.76 118.514L31.77 118.524Z" fill="#131A2D"/>
<path d="M93.77 116.334L58.13 136.914L56.81 133.614L92.45 113.034L93.77 116.334Z" fill="#131A2D"/>
<path d="M26.58 114.514C28.64 115.564 30.38 118.464 30.38 120.854C30.38 120.894 2.63 104.874 2.63 104.874L3.95 103.094L26.58 114.514Z" fill="white"/>
<path d="M30.43 121.004C30.23 121.004 28.62 120.074 2.54 105.014L2.37 104.914L3.89 102.864L26.64 114.344C28.75 115.424 30.54 118.394 30.54 120.834V120.934L30.45 120.984C30.45 120.984 30.44 120.984 30.42 120.984L30.43 121.004ZM2.88 104.824C5.04 106.074 27.56 119.074 30.2 120.564C30.07 118.294 28.42 115.654 26.5 114.664L4 103.314L2.88 104.824Z" fill="#131A2D"/>
<path d="M31.43 118.524C32.13 118.124 33.11 118.214 34.18 118.904L56.8 133.614L58.12 136.914C58.12 136.914 30.37 120.894 30.37 120.844C30.37 119.694 30.77 118.894 31.42 118.514L31.43 118.524Z" fill="white"/>
<path d="M58.47 137.304L58.05 137.054C39.49 126.341 30.21 120.938 30.21 120.844C30.21 119.674 30.61 118.794 31.35 118.374C32.13 117.924 33.2 118.064 34.28 118.764L56.95 133.504L56.97 133.554L58.47 137.314V137.304ZM30.55 120.754C32.01 121.634 54.41 134.564 57.79 136.524L56.67 133.724L34.09 119.044C33.12 118.414 32.18 118.284 31.51 118.664C30.91 119.014 30.56 119.754 30.55 120.744V120.754Z" fill="#131A2D"/>
<path d="M190.8 125.884L194.7 123.914L196.52 41.3442H190.68L190.8 125.884Z" fill="#140035"/>
<path d="M187.6 124.394L190.8 125.884L190.68 41.3442H185.87L187.6 124.394Z" fill="white"/>
<path d="M191.16 126.454L187.24 124.634V124.404L185.5 40.9844H191.04V41.3444L191.16 126.444V126.454ZM187.96 124.174L190.43 125.314L190.31 41.7144H186.24L187.95 124.164L187.96 124.174Z" fill="black"/>
<path d="M203.73 1.65426C200.26 -0.35574 197.13 -0.46574 194.91 0.95426L158.05 22.2343L177.07 50.8043L212.45 30.5043C214.58 29.2043 215.9 26.5143 215.9 22.7143C215.9 14.9643 210.46 5.53426 203.74 1.65426H203.73Z" fill="#140035"/>
<path d="M185.79 7.88438C181.86 5.61438 178.27 5.21438 175.52 6.39438L175.46 6.41438C175.44 6.42438 142.79 20.0244 125.92 17.8744C120.81 17.2244 113.33 17.8744 108.91 21.5044L147.41 96.8044C147.41 96.8044 154.37 96.3044 159.39 89.2444C160.71 87.3844 161.74 85.2144 162.79 82.7544C169.52 67.0144 182.67 54.8844 196.79 45.1844C199.67 43.5644 201.45 40.0444 201.45 35.0044C201.45 25.0144 194.44 12.8744 185.79 7.88438Z" fill="#3DD3B6"/>
<path d="M147.21 97.1443L147.11 96.9543L108.49 21.4143L108.69 21.2443C113.29 17.4743 120.86 16.8943 125.95 17.5443C142.58 19.6643 175.01 6.24433 175.32 6.11433L175.64 5.97433C178.54 4.86433 182.18 5.44433 185.93 7.60433C194.65 12.6443 201.75 24.9343 201.75 35.0143C201.75 40.0143 200.03 43.7243 196.92 45.4743C179.91 57.1643 168.83 69.4143 163.07 82.8943C162.11 85.1243 161.04 87.4643 159.63 89.4443C154.58 96.5443 147.48 97.1343 147.41 97.1443H147.19H147.21ZM109.31 21.5843L147.59 96.4543C148.78 96.2943 154.74 95.2143 159.12 89.0543C160.49 87.1243 161.55 84.8243 162.49 82.6243C168.3 69.0343 179.46 56.6943 196.6 44.9143C199.53 43.2743 201.12 39.7543 201.12 35.0043C201.12 25.1343 194.17 13.0943 185.62 8.16433C181.94 6.03433 178.39 5.51433 175.64 6.69433L175.32 6.83433C171.83 8.27433 141.85 20.2443 125.87 18.1943C120.6 17.5243 113.49 18.3243 109.31 21.5843Z" fill="#140035"/>
<path d="M129.56 23.9043C112.97 14.3243 99.52 22.0943 99.52 41.2443C99.52 60.3943 112.97 83.6943 129.56 93.2743C146.15 102.854 159.6 95.0943 159.6 75.9343C159.6 56.7743 146.15 33.4843 129.56 23.9043Z" fill="#140035"/>
<path d="M141.77 39.8043C137.62 34.6043 132.79 30.2043 127.64 27.2343C123.57 24.8843 119.61 23.6443 116.15 23.6443C108.15 23.6443 103.37 30.2243 103.37 41.2443C103.37 59.1543 115.98 81.0043 131.48 89.9443C135.56 92.2943 139.52 93.5343 142.98 93.5343C150.98 93.5343 155.76 86.9543 155.76 75.9343C155.76 69.9843 154.37 63.5943 151.94 57.3943C149.49 51.1343 145.97 45.0543 141.77 39.7943V39.8043Z" fill="white"/>
<path d="M142.98 93.7044C139.51 93.7044 135.5 92.4544 131.4 90.0844C115.85 81.1144 103.2 59.2044 103.2 41.2444C103.2 30.1244 108.04 23.4744 116.14 23.4744C119.61 23.4744 123.62 24.7244 127.71 27.0944C132.69 29.9644 137.6 34.3244 141.89 39.7044C146.11 44.9844 149.63 51.0844 152.08 57.3444C154.59 63.7444 155.92 70.1744 155.92 75.9344C155.92 87.0544 151.08 93.7044 142.98 93.7044ZM116.14 23.8044C108.24 23.8044 103.53 30.3244 103.53 41.2444C103.53 59.1044 116.1 80.8844 131.56 89.8044C135.62 92.1444 139.57 93.3744 142.98 93.3744C150.88 93.3744 155.59 86.8544 155.59 75.9344C155.59 70.2044 154.27 63.8244 151.78 57.4644C149.34 51.2344 145.84 45.1644 141.64 39.9044C137.37 34.5644 132.5 30.2244 127.55 27.3744C123.5 25.0344 119.56 23.8044 116.14 23.8044Z" fill="#140035"/>
<path d="M130.97 90.8343C115.19 81.7243 102.35 59.4843 102.35 41.2443C102.35 29.5843 107.51 22.6243 116.15 22.6243C119.77 22.6243 123.92 23.9143 128.15 26.3543C133.23 29.2843 138.22 33.7143 142.57 39.1743C146.84 44.5243 150.4 50.6943 152.89 57.0343C155.44 63.5343 156.78 70.0643 156.78 75.9443C156.78 87.6043 151.62 94.5643 142.98 94.5643C139.36 94.5643 135.21 93.2743 130.97 90.8343ZM104.38 41.2443C104.38 58.8243 116.76 80.2843 131.98 89.0643C135.91 91.3243 139.71 92.5243 142.97 92.5243C150.34 92.5243 154.73 86.3243 154.73 75.9443C154.73 70.3243 153.43 64.0443 150.98 57.7843C148.57 51.6343 145.11 45.6343 140.97 40.4443C136.77 35.1843 131.98 30.9243 127.12 28.1243C123.2 25.8643 119.4 24.6743 116.14 24.6743C108.78 24.6743 104.38 30.8743 104.38 41.2543V41.2443Z" fill="#3DD3B6"/>
<path d="M142.98 94.8842C139.31 94.8842 135.1 93.5842 130.81 91.1142C114.94 81.9542 102.03 59.5842 102.03 41.2442C102.03 29.3842 107.31 22.3042 116.15 22.3042C119.83 22.3042 124.03 23.6042 128.31 26.0742C133.42 29.0242 138.44 33.4742 142.82 38.9642C147.11 44.3342 150.7 50.5442 153.19 56.9142C155.75 63.4442 157.1 70.0242 157.1 75.9342C157.1 87.7942 151.82 94.8742 142.98 94.8742V94.8842ZM131.13 90.5542C135.32 92.9642 139.42 94.2342 142.98 94.2342C151.42 94.2342 156.45 87.3942 156.45 75.9442C156.45 70.1142 155.11 63.6142 152.58 57.1542C150.11 50.8442 146.56 44.6942 142.31 39.3742C137.98 33.9442 133.02 29.5442 127.98 26.6442C123.8 24.2342 119.71 22.9542 116.14 22.9542C107.7 22.9542 102.67 29.7942 102.67 41.2442C102.67 59.3742 115.43 81.4842 131.13 90.5442V90.5542ZM142.98 92.8542C139.66 92.8542 135.8 91.6442 131.83 89.3542C116.52 80.5142 104.06 58.9342 104.06 41.2442C104.06 30.6542 108.58 24.3342 116.15 24.3342C119.47 24.3342 123.33 25.5442 127.3 27.8342C132.19 30.6542 137.01 34.9442 141.24 40.2342C145.4 45.4442 148.88 51.4742 151.3 57.6542C153.77 63.9542 155.07 70.2742 155.07 75.9342C155.07 86.5242 150.55 92.8442 142.98 92.8442V92.8542ZM116.14 24.9942C108.98 24.9942 104.7 31.0742 104.7 41.2542C104.7 58.7342 117.01 80.0642 132.14 88.7942C136.02 91.0242 139.77 92.2042 142.97 92.2042C150.13 92.2042 154.41 86.1242 154.41 75.9442C154.41 70.3642 153.12 64.1242 150.68 57.9042C148.29 51.7842 144.84 45.8142 140.72 40.6542C136.55 35.4242 131.79 31.1942 126.96 28.4142C123.09 26.1742 119.35 25.0042 116.14 25.0042V24.9942Z" fill="#140035"/>
<path d="M117.76 45.1643C117.76 45.1643 120.79 42.9043 121.24 42.6843C122.34 42.1343 123.74 42.1343 125.27 42.8343C127.62 43.9043 129.68 46.3243 130.8 49.0443L132.85 47.7343C133.91 47.2943 135.22 47.3443 136.64 47.9943C140.19 49.6043 143.07 54.2743 143.08 58.4343C143.08 61.1643 141.53 63.4143 139.53 65.1743L134.82 68.6743L117.76 45.1743V45.1643Z" fill="#140035"/>
<path d="M122.45 44.8844C124.92 46.0044 127.07 48.6144 128.15 51.5044C129.22 49.5944 131.36 48.9244 133.83 50.0444C137.38 51.6544 140.26 56.3244 140.27 60.4844C140.27 68.0844 128.19 71.9844 128.19 71.9844C128.19 71.9844 116.07 57.1044 116.05 49.5044C116.05 45.3444 118.91 43.2744 122.46 44.8844H122.45Z" fill="#3DD3B6"/>
<path d="M128.07 72.3644L127.93 72.1944C127.43 71.5844 115.74 57.1344 115.72 49.5044C115.72 47.3144 116.51 45.5544 117.89 44.6544C119.18 43.8244 120.85 43.8044 122.59 44.5844C124.9 45.6344 127.02 47.9744 128.22 50.7944C129.49 49.0944 131.63 48.6844 133.96 49.7444C137.61 51.3944 140.58 56.2144 140.59 60.4744C140.59 68.2244 128.79 72.1244 128.28 72.2844L128.07 72.3544V72.3644ZM120.14 44.6644C119.44 44.6644 118.8 44.8444 118.25 45.2044C117.06 45.9744 116.37 47.5444 116.37 49.5044C116.38 56.4644 126.94 69.9044 128.29 71.6044C129.88 71.0444 139.95 67.2144 139.94 60.4844C139.94 56.4444 137.13 51.8944 133.69 50.3444C131.47 49.3344 129.45 49.8444 128.43 51.6744L128.09 52.2944L127.85 51.6344C126.76 48.7144 124.64 46.2444 122.33 45.1944C121.57 44.8544 120.83 44.6744 120.15 44.6744L120.14 44.6644Z" fill="#140035"/>
<path d="M239.75 165.454V166.694L192.9 193.734L158.83 174.064V172.834L205.67 147.244L239.75 165.454Z" fill="#131A2D"/>
<path d="M239.75 165.454L192.9 192.504L158.83 172.834L205.67 145.784L239.75 165.454Z" fill="#3DD3B6"/>
<path d="M192.9 192.704L158.48 172.834L158.75 172.684L205.68 145.584L205.77 145.634L240.1 165.454L239.84 165.604L192.91 192.704H192.9ZM159.18 172.834L192.9 192.304L239.39 165.464L205.67 145.994L159.18 172.834Z" fill="#131A2D"/>
<path d="M192.51 181.424V190.194L160.64 171.794V163.024L192.51 181.424Z" fill="white"/>
<path d="M192.68 190.494L192.41 190.344L160.45 171.894V162.714L192.67 181.314V190.494H192.68ZM160.81 171.694L192.32 189.894V181.534L160.81 163.334V171.694Z" fill="#131A2D"/>
<path d="M235.3 165.474L192.51 190.194V181.424L235.3 156.704V165.474Z" fill="white"/>
<path d="M192.33 190.494V181.314L192.42 181.264L235.49 156.394V165.574L235.4 165.624L192.34 190.494H192.33ZM192.68 181.524V189.884L235.13 165.374V157.014L192.68 181.524Z" fill="#131A2D"/>
<path d="M205.42 134.404L205.69 134.564L158.83 161.614L156.97 161.264L203.74 134.274C204.19 134.014 204.75 134.024 205.42 134.414V134.404Z" fill="#3DD3B6"/>
<path d="M158.86 161.794L156.47 161.344L203.65 134.114C204.19 133.804 204.81 133.854 205.51 134.254L206.05 134.564L205.78 134.714L158.86 161.794ZM157.47 161.174L158.8 161.424L205.34 134.564C204.76 134.224 204.26 134.174 203.83 134.424L157.47 161.184V161.174Z" fill="#131A2D"/>
<path d="M158.56 162.064L158.83 162.224V173.454L158.56 173.294C155.09 171.294 155.06 160.044 158.56 162.064Z" fill="#131A2D"/>
<path d="M158.56 161.444L158.83 161.604V162.834L158.56 162.674C157.21 161.894 156.48 164.044 156.48 166.454C156.48 168.864 157.21 171.894 158.56 172.674L158.83 172.834V174.064L158.56 173.904C156.4 172.654 155.42 168.854 155.42 165.844C155.42 162.834 156.4 160.204 158.56 161.444Z" fill="#3DD3B6"/>
<path d="M159.01 174.374L158.47 174.064C156.25 172.784 155.24 168.914 155.24 165.854C155.24 163.484 155.82 161.724 156.79 161.164C157.33 160.854 157.96 160.904 158.65 161.304L159.01 161.514V163.154L158.47 162.844C158.18 162.674 157.93 162.664 157.7 162.794C157.07 163.154 156.65 164.634 156.65 166.474C156.65 168.894 157.39 171.814 158.64 172.534L159 172.744V174.384L159.01 174.374ZM157.54 161.314C157.34 161.314 157.14 161.364 156.97 161.464C156.12 161.954 155.59 163.634 155.59 165.844C155.59 168.804 156.55 172.544 158.65 173.754H158.66V172.934L158.47 172.824C157.06 172.014 156.3 168.934 156.3 166.454C156.3 164.864 156.62 162.984 157.53 162.464C157.76 162.324 158.15 162.224 158.65 162.514H158.66V161.704L158.47 161.594C158.13 161.404 157.82 161.304 157.54 161.304V161.314Z" fill="#131A2D"/>
<path d="M239.75 154.234V155.464L192.9 182.514L158.83 162.844V161.604L205.68 136.024L239.75 154.234Z" fill="#131A2D"/>
<path d="M239.75 154.234L192.9 181.274L158.83 161.604L205.68 134.564L239.75 154.234Z" fill="#3DD3B6"/>
<path d="M192.9 181.484L192.81 181.434L158.48 161.614L158.75 161.464L205.68 134.364L205.77 134.414L240.1 154.234L239.83 154.384L192.9 181.484ZM159.18 161.614L192.9 181.084L239.39 154.244L205.67 134.774L159.18 161.614Z" fill="#131A2D"/>
<path d="M171.5 159.214L201.52 141.874C203.81 143.204 207.53 143.204 209.82 141.874L227.07 151.834C224.78 153.154 224.78 155.304 227.07 156.624L197.04 173.954C194.75 172.634 191.03 172.634 188.74 173.954L171.49 163.994C173.78 162.664 173.78 160.524 171.49 159.204L171.5 159.214Z" fill="#131A2D"/>
<path d="M186.76 159.804C190.14 157.854 194.95 157.464 197.51 158.944C200.07 160.424 199.4 163.204 196.02 165.154C192.64 167.104 187.83 167.494 185.27 166.014C182.71 164.534 183.38 161.754 186.76 159.804Z" fill="#3DD3B6"/>
<path d="M189.3 167.084C187.72 167.084 186.26 166.784 185.19 166.164C184.11 165.544 183.55 164.684 183.55 163.684C183.55 162.264 184.69 160.794 186.68 159.644C190.11 157.664 195.01 157.284 197.61 158.784C198.69 159.404 199.25 160.264 199.25 161.264C199.25 162.684 198.11 164.154 196.11 165.304C194.09 166.464 191.56 167.084 189.3 167.084ZM193.49 158.224C191.29 158.224 188.82 158.824 186.85 159.954C185 161.024 183.89 162.414 183.89 163.684C183.89 164.554 184.4 165.304 185.36 165.854C187.86 167.294 192.61 166.914 195.94 164.994C197.79 163.924 198.9 162.534 198.9 161.264C198.9 160.394 198.39 159.644 197.43 159.094C196.41 158.504 195.01 158.224 193.49 158.224Z" fill="#131A2D"/>
<path d="M212.56 159.434L210.29 160.744L194.39 151.564L196.67 150.254L212.56 159.434Z" fill="#3DD3B6"/>
<path d="M210.29 160.954L210.2 160.904L194.03 151.574L196.66 150.064L212.91 159.444L210.29 160.964V160.954ZM194.74 151.574L210.29 160.554L212.21 159.444L196.66 150.464L194.74 151.574Z" fill="#131A2D"/>
<path d="M212.92 155.704L210.65 157.014L200.85 151.364L203.12 150.054L212.92 155.704Z" fill="#3DD3B6"/>
<path d="M210.65 157.224L210.56 157.174L200.5 151.364L203.12 149.844L203.21 149.894L213.27 155.704L210.65 157.224ZM201.21 151.364L210.65 156.814L212.57 155.704L203.13 150.254L201.21 151.364Z" fill="#131A2D"/>
<path d="M218.52 149.434L217.25 150.174L212.7 147.554L213.98 146.814L218.52 149.434Z" fill="#3DD3B6"/>
<path d="M217.25 150.374L217.16 150.324L212.35 147.554L213.98 146.614L214.07 146.664L218.88 149.434L217.25 150.374ZM213.06 147.544L217.25 149.964L218.18 149.434L213.99 147.014L213.06 147.554V147.544Z" fill="#131A2D"/>
<path d="M160.64 171.794L158.83 172.834V162.834L160.64 163.884V171.794Z" fill="#3DD3B6"/>
<path d="M158.66 173.134V162.534L160.82 163.784V171.894L158.66 173.134ZM159.01 163.144V172.524L160.46 171.684V163.974L159.01 163.134V163.144Z" fill="#131A2D"/>
<path d="M237.83 149.174V150.414L190.99 177.454L156.92 157.784V156.554L203.77 130.964L237.83 149.174Z" fill="#4258A7"/>
<path d="M237.83 149.174L190.99 176.224L156.92 156.554L203.77 129.504L237.83 149.174Z" fill="#30407A"/>
<path d="M193.51 176.054L159.96 156.684V151.134L193.51 170.494V176.054Z" fill="url(#paint0_linear_38_86365)"/>
<path d="M237.81 141.444V142.674L190.97 169.724L156.9 150.054V148.814L203.74 123.234L237.81 141.444Z" fill="#131A2D"/>
<path d="M237.81 141.444L190.97 168.494L156.9 148.814L203.74 121.774L237.81 141.444Z" fill="url(#paint1_linear_38_86365)"/>
<path d="M213.55 146.714L210.42 148.524L188.53 135.884L191.66 134.074L213.55 146.714Z" fill="#10417C"/>
<path d="M204.66 146.994L201.53 148.804L188.05 141.014L191.17 139.214L204.66 146.994Z" fill="#10417C"/>
<path d="M183.94 155.494L182.66 156.234L178.12 153.614L179.4 152.874L183.94 155.494Z" fill="#10417C"/>
<path d="M238.09 141.594C240.25 142.844 241.23 144.904 241.23 147.234C241.23 149.164 240.82 149.894 239.95 150.584L239.6 150.784L192.97 177.744L192.67 176.344C192.93 176.054 193.15 175.724 193.3 175.354C193.68 174.434 193.85 173.494 193.95 172.514C193.99 172.124 193.97 171.804 193.77 171.454C193.59 171.144 193.26 170.944 192.92 170.844C192.91 170.844 192.89 170.844 192.88 170.844C192.74 170.664 192.6 170.504 192.45 170.344C192.08 169.934 191.63 169.584 191.16 169.284L190.99 168.504L237.8 141.454L238.08 141.614L238.09 141.594Z" fill="#131A2D"/>
<path d="M193.31 173.764C193.38 172.564 192.62 170.664 190.99 169.724V168.494C193.42 169.894 194.4 171.954 194.4 173.814C194.4 176.114 193.43 178.864 191.27 177.624L191 177.464V176.234L191.28 176.394C192.63 177.174 193.21 175.704 193.33 173.774L193.31 173.764Z" fill="#4258A7"/>
<path d="M174.77 165.924L150.33 142.784V141.964L174.77 165.104V165.924Z" fill="#131A2D"/>
<path d="M237.1 142.944L174.77 165.104L150.33 141.964L212.66 119.804L237.1 142.944Z" fill="#3DD3B6"/>
<path d="M174.73 165.304L174.65 165.234L150 141.894L150.27 141.794L212.71 119.594L212.79 119.664L237.43 143.004L237.16 143.104L174.73 165.304ZM150.66 142.024L174.82 164.894L236.78 142.864L212.63 119.994L150.66 142.024Z" fill="#131A2D"/>
<path d="M186.96 154.644L182.97 156.064L168.02 141.904L172 140.484L186.96 154.644Z" fill="#566B70"/>
<path d="M218.2 141.414L216.35 142.064L204.66 130.994L206.51 130.344L218.2 141.414Z" fill="#566B70"/>
<path d="M221.36 138.304L219.51 138.964L210.86 130.774L212.72 130.114L221.36 138.304Z" fill="#566B70"/>
<path d="M176.04 164.554L153.05 142.784L153.04 133.904L176.04 155.684V164.554Z" fill="white"/>
<path d="M176.22 164.964L175.92 164.684L152.87 142.854V133.494L153.17 133.774L176.22 155.604V164.964ZM153.23 142.704L175.87 164.144V155.754L153.22 134.314V142.704H153.23Z" fill="#131A2D"/>
<path d="M237.07 134.884C238.03 138.004 238.07 141.314 237.07 143.764L174.74 165.924C175.41 162.974 175.59 159.874 174.74 157.044L237.07 134.884Z" fill="#131A2D"/>
<path d="M235.28 142.184L178.99 162.194C178.99 161.364 178.96 160.554 178.87 159.774L235.42 139.674C235.48 140.574 235.42 141.424 235.28 142.184Z" fill="white"/>
<path d="M178.82 162.444V162.194C178.84 161.374 178.8 160.574 178.71 159.794L178.69 159.654L178.82 159.604L235.59 139.424L235.61 139.654C235.67 140.574 235.61 141.434 235.47 142.214L235.45 142.314L235.35 142.344L178.82 162.444ZM179.07 159.884C179.14 160.554 179.18 161.244 179.18 161.934L235.14 142.044C235.26 141.384 235.3 140.674 235.27 139.904L179.08 159.884H179.07Z" fill="#131A2D"/>
<path d="M174.77 157.864L150.33 134.724V133.904L174.77 157.044V157.864Z" fill="#131A2D"/>
<path d="M237.1 134.884L174.77 157.044L150.33 133.904L212.66 111.744L237.1 134.884Z" fill="#3DD3B6"/>
<path d="M174.73 157.244L174.65 157.174L150 133.834L150.27 133.734L212.71 111.534L212.79 111.614L237.43 134.954L237.16 135.054L174.73 157.254V157.244ZM150.66 133.974L174.82 156.844L236.78 134.814L212.63 111.944L150.66 133.974Z" fill="#131A2D"/>
<path d="M221.07 134.974L217.09 136.394L202.13 122.234L206.12 120.814L221.07 134.974Z" fill="white"/>
<path d="M217.05 136.594L201.8 122.164L206.16 120.614L221.4 135.044L217.05 136.594ZM202.46 122.304L217.13 136.194L220.74 134.904L206.07 121.014L202.45 122.294L202.46 122.304Z" fill="#131A2D"/>
<path d="M184.43 145.874L182.58 146.534L170.89 135.464L172.74 134.804L184.43 145.874Z" fill="white"/>
<path d="M182.54 146.734L170.56 135.394L172.78 134.604L184.76 145.944L182.54 146.734ZM171.22 135.534L182.63 146.334L184.11 145.804L172.71 135.004L171.23 135.534H171.22Z" fill="#131A2D"/>
<path d="M178.22 146.104L176.37 146.764L167.72 138.574L169.57 137.914L178.22 146.104Z" fill="white"/>
<path d="M176.32 146.964L167.39 138.504L169.61 137.714L178.54 146.174L176.32 146.964ZM168.05 138.644L176.41 146.564L177.89 146.034L169.53 138.114L168.05 138.644Z" fill="#131A2D"/>
<path d="M253.98 125.144L202.17 161.104L169.12 141.894L220.93 105.944L253.98 125.144Z" fill="#992323"/>
<path d="M203.02 159.784L171.13 141.824V132.214L202.71 150.444L203.02 159.784Z" fill="white"/>
<path d="M203.21 160.094L202.94 159.944L170.95 141.934V131.924L202.88 150.354V150.454L203.2 160.104L203.21 160.094ZM171.31 141.724L202.84 159.484L202.54 150.554L171.3 132.524V141.724H171.31Z" fill="#131A2D"/>
<path d="M237.67 122.254L234.36 124.164L214.12 112.404L217.44 110.494L237.67 122.254Z" fill="#566B70"/>
<path d="M206.36 137.764L204.82 138.654L189 129.464L190.55 128.574L206.36 137.764Z" fill="#566B70"/>
<path d="M200.41 138.824L198.87 139.704L187.17 132.914L188.71 132.024L200.41 138.824Z" fill="#566B70"/>
<path d="M237.67 122.254L234.36 124.164L214.12 112.404L217.44 110.494L237.67 122.254Z" fill="#566B70"/>
<path d="M206.36 137.764L204.82 138.654L189 129.464L190.55 128.574L206.36 137.764Z" fill="#566B70"/>
<path d="M200.41 138.824L198.87 139.704L187.17 132.914L188.71 132.024L200.41 138.824Z" fill="#566B70"/>
<path d="M237.67 122.254L234.36 124.164L214.12 112.404L217.44 110.494L237.67 122.254Z" fill="#566B70"/>
<path d="M206.36 137.764L204.82 138.654L189 129.464L190.55 128.574L206.36 137.764Z" fill="#566B70"/>
<path d="M200.41 138.824L198.87 139.704L187.17 132.914L188.71 132.024L200.41 138.824Z" fill="#566B70"/>
<path d="M237.67 122.254L234.36 124.164L214.12 112.404L217.44 110.494L237.67 122.254Z" fill="#566B70"/>
<path d="M206.36 137.764L204.82 138.654L189 129.464L190.55 128.574L206.36 137.764Z" fill="#566B70"/>
<path d="M200.41 138.824L198.87 139.704L187.17 132.914L188.71 132.024L200.41 138.824Z" fill="#566B70"/>
<path d="M237.67 122.254L234.36 124.164L214.12 112.404L217.44 110.494L237.67 122.254Z" fill="#566B70"/>
<path d="M206.36 137.764L204.82 138.654L189 129.464L190.55 128.574L206.36 137.764Z" fill="#566B70"/>
<path d="M200.41 138.824L198.87 139.704L187.17 132.914L188.71 132.024L200.41 138.824Z" fill="#566B70"/>
<path d="M237.67 122.254L234.36 124.164L214.12 112.404L217.44 110.494L237.67 122.254Z" fill="#566B70"/>
<path d="M206.36 137.764L204.82 138.654L189 129.464L190.55 128.574L206.36 137.764Z" fill="#566B70"/>
<path d="M200.41 138.824L198.87 139.704L187.17 132.914L188.71 132.024L200.41 138.824Z" fill="#566B70"/>
<path d="M237.67 122.254L234.36 124.164L214.12 112.404L217.44 110.494L237.67 122.254Z" fill="#566B70"/>
<path d="M206.36 137.764L204.82 138.654L189 129.464L190.55 128.574L206.36 137.764Z" fill="#566B70"/>
<path d="M200.41 138.824L198.87 139.704L187.17 132.914L188.71 132.024L200.41 138.824Z" fill="#566B70"/>
<path d="M237.67 122.254L234.36 124.164L214.12 112.404L217.44 110.494L237.67 122.254Z" fill="#566B70"/>
<path d="M206.36 137.764L204.82 138.654L189 129.464L190.55 128.574L206.36 137.764Z" fill="#566B70"/>
<path d="M200.41 138.824L198.87 139.704L187.17 132.914L188.71 132.024L200.41 138.824Z" fill="#566B70"/>
<path d="M237.67 122.254L234.36 124.164L214.12 112.404L217.44 110.494L237.67 122.254Z" fill="#566B70"/>
<path d="M206.36 137.764L204.82 138.654L189 129.464L190.55 128.574L206.36 137.764Z" fill="#566B70"/>
<path d="M200.41 138.824L198.87 139.704L187.17 132.914L188.71 132.024L200.41 138.824Z" fill="#566B70"/>
<path d="M237.67 122.254L234.36 124.164L214.12 112.404L217.44 110.494L237.67 122.254Z" fill="#566B70"/>
<path d="M206.36 137.764L204.82 138.654L189 129.464L190.55 128.574L206.36 137.764Z" fill="#566B70"/>
<path d="M200.41 138.824L198.87 139.704L187.17 132.914L188.71 132.024L200.41 138.824Z" fill="#566B70"/>
<path d="M237.67 122.254L234.36 124.164L214.12 112.404L217.44 110.494L237.67 122.254Z" fill="#566B70"/>
<path d="M206.36 137.764L204.82 138.654L189 129.464L190.55 128.574L206.36 137.764Z" fill="#566B70"/>
<path d="M200.41 138.824L198.87 139.704L187.17 132.914L188.71 132.024L200.41 138.824Z" fill="#566B70"/>
<path d="M253.98 120.574L202.17 150.484L169.12 131.274L220.93 101.364L253.98 120.574Z" fill="#3DD3B6"/>
<path d="M202.17 150.684L202.08 150.634L168.76 131.274L220.92 101.164L221.01 101.214L254.32 120.574L202.16 150.684H202.17ZM169.47 131.274L202.17 150.274L253.63 120.564L220.93 101.564L169.47 131.274Z" fill="#131A2D"/>
<path d="M237.67 122.254L234.36 124.164L214.12 112.404L217.44 110.494L237.67 122.254Z" fill="white"/>
<path d="M234.36 124.364L234.27 124.314L213.77 112.404L217.43 110.284L217.52 110.334L238.02 122.244L234.36 124.354V124.364ZM214.48 112.404L234.36 123.954L237.32 122.244L217.44 110.694L214.48 112.404Z" fill="#131A2D"/>
<path d="M206.36 137.764L204.82 138.654L189 129.464L190.55 128.574L206.36 137.764Z" fill="white"/>
<path d="M204.82 138.854L204.73 138.804L188.65 129.464L190.54 128.374L190.63 128.424L206.71 137.764L204.82 138.854ZM189.36 129.464L204.82 138.454L206.01 137.764L190.55 128.774L189.36 129.464Z" fill="#131A2D"/>
<path d="M200.41 138.824L198.87 139.704L187.17 132.914L188.71 132.024L200.41 138.824Z" fill="white"/>
<path d="M198.87 139.914L198.78 139.864L186.82 132.914L188.71 131.824L188.8 131.874L200.76 138.824L198.87 139.914ZM187.53 132.914L198.87 139.504L200.06 138.814L188.72 132.224L187.53 132.914Z" fill="#131A2D"/>
<path d="M202.17 151.304L169.12 132.094V131.274L202.17 150.484C202.17 150.484 204.85 151.864 204.85 152.654L204.19 161.604C204.19 162.394 203.63 162.724 202.95 162.334L169.12 142.714V141.894L202.17 161.104V151.304Z" fill="#322C8D"/>
<path d="M254.76 121.024C255.45 121.414 256 122.384 256 123.174V131.694C256 132.094 255.86 132.374 255.63 132.504L203.83 162.414C204.06 162.284 204.2 162.004 204.2 161.604V153.084C204.2 152.294 203.64 151.324 202.96 150.934L202.18 150.494L253.99 120.584L254.76 121.024Z" fill="#131A2D"/>
<path d="M203.6 123.984C203.6 125.224 204.61 126.234 205.85 126.234C205.96 126.234 206.07 126.214 206.17 126.204L207.46 128.974C207 129.384 206.71 129.974 206.71 130.634C206.71 131.874 207.72 132.884 208.96 132.884C210.2 132.884 211.21 131.874 211.21 130.634C211.21 130.444 211.18 130.274 211.14 130.104L215.76 127.434C216.16 127.804 216.69 128.034 217.28 128.034C218.52 128.034 219.53 127.024 219.53 125.784C219.53 124.544 218.52 123.544 217.28 123.544C217.11 123.544 216.96 123.564 216.8 123.594L213.07 118.964C213.32 118.604 213.47 118.164 213.47 117.694C213.47 116.454 212.46 115.444 211.22 115.444C209.98 115.444 208.97 116.444 208.97 117.694C208.97 118.054 209.06 118.394 209.21 118.694L206.59 121.864C206.36 121.784 206.11 121.734 205.86 121.734C204.62 121.734 203.61 122.734 203.61 123.984H203.6ZM215.26 124.794L210.77 124.104L211.53 119.914C211.72 119.884 211.89 119.844 212.06 119.774L215.65 124.224C215.49 124.394 215.36 124.584 215.25 124.794H215.26ZM209.95 128.624L210.55 125.354L215.06 126.054C215.07 126.154 215.08 126.244 215.11 126.344L210.5 129.004C210.34 128.854 210.15 128.734 209.96 128.634L209.95 128.624ZM209.51 123.904L208.07 123.684C208.01 123.284 207.86 122.924 207.62 122.614L210.08 119.634C210.14 119.674 210.2 119.704 210.27 119.734L209.51 123.904ZM207.33 125.654C207.56 125.454 207.74 125.214 207.87 124.934L209.28 125.154L208.69 128.404C208.69 128.404 208.63 128.404 208.61 128.404L207.33 125.644V125.654Z" fill="white"/>
<path d="M208.95 133.054C207.61 133.054 206.53 131.964 206.53 130.634C206.53 130.004 206.79 129.384 207.24 128.934L206.06 126.394C205.98 126.404 205.91 126.414 205.84 126.414C204.5 126.414 203.42 125.324 203.42 123.994C203.42 122.664 204.51 121.574 205.84 121.574C206.06 121.574 206.28 121.604 206.51 121.674L208.99 118.684C208.85 118.364 208.78 118.044 208.78 117.714C208.78 116.384 209.87 115.294 211.2 115.294C212.53 115.294 213.62 116.384 213.62 117.714C213.62 118.154 213.5 118.594 213.27 118.974L216.86 123.424C218.38 123.164 219.69 124.334 219.69 125.804C219.69 127.144 218.6 128.224 217.27 128.224C216.71 128.224 216.17 128.024 215.74 127.664L211.34 130.204C211.37 130.364 211.39 130.514 211.39 130.654C211.39 131.984 210.3 133.074 208.97 133.074L208.95 133.054ZM206.23 126.004L206.33 126.114L207.67 129.004L207.57 129.094C207.13 129.494 206.88 130.044 206.88 130.624C206.88 131.764 207.81 132.694 208.95 132.694C210.09 132.694 211.02 131.764 211.02 130.624C211.02 130.474 211 130.314 210.96 130.134L210.93 130.004L215.78 127.204L215.88 127.294C216.27 127.644 216.76 127.844 217.27 127.844C218.41 127.844 219.34 126.914 219.34 125.774C219.34 124.634 218.41 123.704 217.27 123.704C217.13 123.704 216.98 123.724 216.83 123.754L216.72 123.774L216.65 123.684L212.84 118.954L212.91 118.844C213.15 118.494 213.27 118.094 213.27 117.674C213.27 116.534 212.34 115.604 211.2 115.604C210.06 115.604 209.13 116.534 209.13 117.674C209.13 117.984 209.21 118.294 209.36 118.594L209.41 118.694L206.64 122.054L206.53 122.014C206.29 121.934 206.07 121.894 205.86 121.894C204.72 121.894 203.79 122.824 203.79 123.964C203.79 125.104 204.72 126.034 205.86 126.034C205.95 126.034 206.03 126.024 206.12 126.014L206.25 125.994L206.23 126.004ZM210.46 129.214L210.37 129.124C210.22 128.984 210.06 128.874 209.87 128.784L209.75 128.724L210.4 125.154L215.21 125.904L215.23 126.034C215.23 126.124 215.25 126.214 215.27 126.294L215.3 126.424L210.46 129.214ZM210.14 128.524C210.27 128.594 210.39 128.684 210.51 128.774L214.9 126.244C214.9 126.244 214.9 126.214 214.9 126.204L210.69 125.554L210.15 128.534L210.14 128.524ZM208.54 128.594L208.44 128.484L207.1 125.604L207.2 125.514C207.41 125.324 207.58 125.104 207.7 124.854L207.76 124.734L209.48 125.004L208.83 128.564L208.54 128.594ZM207.54 125.694L208.59 127.954L209.07 125.294L207.96 125.124C207.85 125.334 207.7 125.524 207.53 125.694H207.54ZM215.36 124.984L210.56 124.244L211.37 119.754L211.5 119.734C211.69 119.704 211.85 119.664 211.99 119.604L212.11 119.554L212.19 119.654L215.88 124.234L215.77 124.344C215.63 124.494 215.51 124.664 215.41 124.864L215.35 124.984H215.36ZM210.97 123.954L215.16 124.604C215.23 124.464 215.32 124.334 215.42 124.224L212 119.984C211.9 120.014 211.79 120.044 211.68 120.064L210.97 123.954ZM209.65 124.104L207.91 123.834L207.89 123.704C207.84 123.344 207.7 123.004 207.48 122.724L207.39 122.614L210.04 119.414L210.17 119.484C210.24 119.524 210.29 119.554 210.35 119.584L210.47 119.644L209.66 124.114L209.65 124.104ZM208.21 123.524L209.36 123.704L210.05 119.944L207.84 122.624C208.03 122.894 208.15 123.204 208.22 123.524H208.21Z" fill="#131A2D"/>
<path d="M188.91 141.174L189.39 140.194L194.71 142.814L194.23 143.784L213.7 152.184L213.77 153.444L188.61 204.734L169.61 195.364C167.8 196.334 166.02 195.784 164.29 192.744L145.29 183.374L145.22 182.114L170.45 132.084L188.89 141.184L188.91 141.174Z" fill="#131A2D"/>
<path d="M213.71 152.184L188.55 203.474L168.73 193.694L193.89 142.404L213.71 152.184Z" fill="#3DD3B6"/>
<path d="M188.63 203.714L188.47 203.634L168.5 193.774L168.58 193.614L193.82 142.164L193.98 142.244L213.95 152.104L213.87 152.264L188.63 203.714ZM168.97 193.614L188.47 203.234L213.48 152.264L193.98 142.644L168.97 193.614Z" fill="#131A2D"/>
<path d="M190.22 140.594L165.05 191.884L145.23 182.104L170.4 130.814L190.22 140.594Z" fill="#3DD3B6"/>
<path d="M165.13 192.114L164.97 192.034L145 182.174L145.08 182.014L170.32 130.564L170.48 130.644L190.46 140.504L190.38 140.664L165.14 192.114H165.13ZM145.46 182.014L164.96 191.634L189.96 140.664L170.46 131.044L145.45 182.014H145.46Z" fill="#131A2D"/>
<path d="M187.72 135.034C189.26 135.594 190.72 139.024 190.92 142.554L167.6 190.164L147.57 176.634L170.9 129.084L187.73 135.034H187.72Z" fill="white"/>
<path d="M167.66 190.424L167.49 190.314L147.33 176.704L170.79 128.874L170.94 128.924L187.77 134.874C189.39 135.464 190.87 138.904 191.08 142.544C191.08 142.584 183.3 158.484 167.74 190.244L167.65 190.424H167.66ZM147.79 176.574L167.53 189.904C169.08 186.744 190.01 144.014 190.74 142.514C190.53 139.074 189.13 135.734 187.66 135.194L170.98 129.304L147.79 176.574Z" fill="#131A2D"/>
<path d="M193.43 137.854L210.53 148.654L211.73 152.894C211.73 152.894 210.69 152.384 209.09 151.594L187.21 196.204L168.14 186.174L191.47 138.624C191.93 137.694 192.62 137.354 193.44 137.864L193.43 137.854Z" fill="white"/>
<path d="M187.28 196.434L167.9 186.234L167.97 186.084L191.3 138.534C191.58 137.964 191.95 137.604 192.37 137.484C192.73 137.384 193.12 137.454 193.51 137.694L210.67 148.534L210.69 148.594L212 153.214L209.16 151.814L187.27 196.434H187.28ZM168.36 186.084L187.12 195.954L209 151.344L211.44 152.554L210.37 148.764L193.32 138.004C193.01 137.814 192.72 137.754 192.46 137.824C192.14 137.914 191.84 138.214 191.61 138.694L168.36 186.084Z" fill="#131A2D"/>
<path d="M211.73 152.884L188.41 200.434L187.21 196.194L210.53 148.644L211.73 152.884Z" fill="#131A2D"/>
<path d="M164.39 182.584C165.93 183.144 167.39 186.584 167.59 190.104C167.59 190.174 146.78 179.904 146.78 179.904L147.56 176.644L164.39 182.584Z" fill="white"/>
<path d="M167.65 190.264C167.43 190.264 165.88 189.514 146.71 180.064L146.58 180.004L147.44 176.414L147.62 176.484L164.45 182.424C166.07 183.004 167.56 186.454 167.76 190.094V190.194L167.68 190.254C167.68 190.254 167.66 190.264 167.64 190.264H167.65ZM146.99 179.804C153.57 183.044 165.51 188.934 167.4 189.824C167.15 186.474 165.77 183.274 164.34 182.754L147.69 176.874L146.99 179.804Z" fill="#131A2D"/>
<path d="M168.14 186.164C168.6 185.234 169.29 184.894 170.11 185.404L187.21 196.204L188.41 200.444C188.41 200.444 167.6 190.174 167.59 190.114C167.49 188.424 167.71 187.044 168.14 186.174V186.164Z" fill="white"/>
<path d="M188.68 200.764L188.33 200.584C174.39 193.711 167.42 190.218 167.42 190.104C167.33 188.444 167.52 187.014 167.98 186.084C168.26 185.514 168.63 185.154 169.05 185.034C169.41 184.934 169.8 185.004 170.19 185.254L187.35 196.084L187.37 196.144L188.68 200.764ZM167.76 189.994C168.84 190.574 181.23 196.694 188.13 200.104L187.06 196.314L170.01 185.554C169.7 185.364 169.41 185.304 169.15 185.384C168.83 185.474 168.53 185.774 168.3 186.254C167.88 187.114 167.69 188.444 167.77 190.014L167.76 189.994Z" fill="#131A2D"/>
<g style="mix-blend-mode:multiply">
<path d="M164.97 232.294L113.6 202.554C112.24 201.754 110.02 201.754 108.65 202.554L73.5 222.804C72.12 223.594 72.11 224.884 73.48 225.664L124.85 255.404C126.21 256.204 128.43 256.204 129.8 255.404L164.95 235.154C166.33 234.364 166.33 233.074 164.97 232.284V232.294Z" fill="#C1C2C7"/>
</g>
<path d="M165.98 231.904C165.98 232.424 165.64 232.944 164.95 233.344L129.8 253.594C128.43 254.384 126.21 254.384 124.85 253.594L73.48 223.864C72.8 223.474 72.47 222.954 72.46 222.444V224.254C72.46 224.764 72.8 225.284 73.48 225.674L124.85 255.404C126.21 256.194 128.43 256.194 129.8 255.404L164.95 235.154C165.64 234.754 165.98 234.234 165.98 233.714V231.904Z" fill="#131A2D"/>
<path d="M164.97 230.484L113.6 200.744C112.24 199.944 110.02 199.944 108.65 200.744L73.5 220.994C72.12 221.784 72.11 223.064 73.48 223.854L124.85 253.594C126.21 254.394 128.43 254.394 129.8 253.594L164.95 233.344C166.33 232.554 166.33 231.264 164.97 230.484Z" fill="white"/>
<path d="M124.81 253.644L73.44 223.904C72.76 223.514 72.39 222.984 72.39 222.424C72.39 221.854 72.77 221.324 73.46 220.924L108.61 200.674C110 199.874 112.25 199.874 113.62 200.674L164.99 230.414C165.67 230.804 166.04 231.334 166.04 231.894C166.04 232.464 165.66 232.994 164.97 233.394L129.82 253.644C129.13 254.044 128.22 254.244 127.32 254.244C126.42 254.244 125.5 254.044 124.81 253.634V253.644ZM108.68 200.794L73.53 221.044C72.88 221.414 72.53 221.904 72.53 222.424C72.53 222.934 72.88 223.424 73.51 223.794L124.88 253.534C126.22 254.314 128.41 254.324 129.76 253.534L164.91 233.284C165.56 232.914 165.91 232.424 165.91 231.904C165.91 231.394 165.56 230.904 164.93 230.534L113.56 200.794C112.89 200.404 112 200.204 111.12 200.204C110.24 200.204 109.36 200.394 108.68 200.784V200.794Z" fill="#131A2D"/>
<path d="M162.67 229.884L123.76 252.304L73.32 223.054L112.23 200.634L162.67 229.884Z" fill="white"/>
<path d="M73.28 223.104L73.18 223.044L112.19 200.574L112.22 200.554L162.7 229.824L162.8 229.884L123.79 252.354L123.76 252.374L73.28 223.104ZM112.22 200.704L73.44 223.044L123.75 252.214L162.53 229.874L112.22 200.704Z" fill="#131A2D"/>
<path d="M80.27 228.694L77.24 226.944C77.1 226.864 76.98 226.924 76.98 227.094V227.174C76.98 227.344 77.09 227.544 77.24 227.624L80.27 229.374C80.41 229.454 80.53 229.384 80.53 229.224V229.144C80.53 228.974 80.41 228.774 80.27 228.694Z" fill="white"/>
<path d="M80.24 229.434L77.21 227.684C77.05 227.594 76.92 227.364 76.92 227.174V227.094C76.92 226.984 76.96 226.904 77.03 226.864C77.1 226.824 77.19 226.834 77.28 226.884L80.31 228.634C80.47 228.724 80.6 228.954 80.6 229.144V229.224C80.6 229.324 80.56 229.414 80.49 229.454C80.46 229.474 80.43 229.484 80.39 229.484C80.34 229.484 80.29 229.474 80.24 229.444V229.434ZM77.1 226.984C77.1 226.984 77.06 227.044 77.06 227.094V227.174C77.06 227.314 77.16 227.494 77.29 227.564L80.32 229.314C80.32 229.314 80.41 229.344 80.44 229.334C80.47 229.314 80.48 229.274 80.48 229.224V229.144C80.48 229.004 80.38 228.824 80.25 228.754L77.22 227.004C77.22 227.004 77.16 226.974 77.14 226.974C77.13 226.974 77.12 226.974 77.11 226.974L77.1 226.984Z" fill="#131A2D"/>
<path d="M80.7 228.894C80.68 228.834 80.65 228.774 80.61 228.724C80.57 228.664 80.52 228.614 80.46 228.584L77.43 226.834C77.36 226.794 77.3 226.784 77.25 226.814L77.06 226.924C77.06 226.924 77.17 226.904 77.24 226.944L80.27 228.694C80.32 228.724 80.38 228.774 80.42 228.834C80.46 228.884 80.49 228.944 80.51 229.004C80.53 229.054 80.54 229.104 80.54 229.154V229.234C80.54 229.314 80.51 229.374 80.46 229.404L80.65 229.294C80.65 229.294 80.73 229.204 80.73 229.124V229.044C80.73 229.044 80.73 228.944 80.7 228.894Z" fill="#EFEFF4"/>
<path d="M83.65 230.474C83.61 230.414 83.56 230.374 83.5 230.334L82.07 229.504C82 229.464 81.93 229.454 81.89 229.484L81.7 229.594C81.7 229.594 81.81 229.574 81.88 229.614L83.31 230.444C83.36 230.474 83.42 230.524 83.46 230.584C83.5 230.634 83.53 230.694 83.55 230.754C83.57 230.804 83.58 230.854 83.58 230.904V230.984C83.58 231.064 83.55 231.124 83.5 231.154L83.69 231.044C83.69 231.044 83.77 230.954 83.77 230.874V230.794C83.77 230.794 83.77 230.694 83.74 230.644C83.72 230.584 83.69 230.524 83.65 230.474Z" fill="#EFEFF4"/>
<path d="M83.31 230.444L81.88 229.614C81.74 229.534 81.62 229.594 81.62 229.764V229.844C81.62 230.014 81.73 230.214 81.88 230.294L83.31 231.124C83.45 231.204 83.57 231.134 83.57 230.974V230.894C83.57 230.724 83.45 230.524 83.31 230.444Z" fill="white"/>
<path d="M83.28 231.184L81.85 230.354C81.69 230.264 81.56 230.034 81.56 229.844V229.764C81.56 229.654 81.6 229.574 81.67 229.534C81.74 229.494 81.83 229.504 81.92 229.554L83.35 230.384C83.51 230.474 83.64 230.704 83.64 230.894V230.974C83.64 231.074 83.6 231.164 83.53 231.204C83.5 231.224 83.47 231.234 83.43 231.234C83.38 231.234 83.33 231.224 83.28 231.194V231.184ZM81.73 229.654C81.73 229.654 81.69 229.714 81.69 229.764V229.844C81.69 229.984 81.79 230.164 81.92 230.234L83.35 231.064C83.35 231.064 83.44 231.094 83.47 231.084C83.5 231.064 83.51 231.024 83.51 230.974V230.894C83.51 230.754 83.41 230.574 83.29 230.504L81.86 229.674C81.86 229.674 81.8 229.644 81.78 229.644C81.77 229.644 81.76 229.644 81.75 229.644L81.73 229.654Z" fill="#131A2D"/>
<path d="M94.99 209.404L90.39 212.064C90.25 212.144 90.23 212.274 90.36 212.344C90.48 212.414 90.7 212.404 90.84 212.324L95.44 209.664C95.58 209.584 95.6 209.454 95.47 209.384C95.35 209.314 95.13 209.324 94.99 209.404Z" fill="#131A2D"/>
<mask id="mask0_38_86365" style="mask-type:luminance" maskUnits="userSpaceOnUse" x="73" y="200" width="90" height="53">
<path d="M162.67 229.884L123.76 252.304L73.32 223.054L112.23 200.634L162.67 229.884Z" fill="white"/>
</mask>
<g mask="url(#mask0_38_86365)">
<path d="M125.57 227.974C126.96 227.424 130.33 227.134 131.48 226.134C132.64 225.134 131.7 224.474 130.31 224.204C128.87 223.924 127.64 224.084 127.05 224.264C126.46 224.444 124.7 224.764 122.74 224.384C121.16 224.074 120.84 225.414 120.79 225.974C120.74 226.614 120.68 230.324 120.68 230.324L125.03 229.614C125.03 229.614 124.98 228.194 125.57 227.964V227.974Z" fill="black"/>
<path d="M123.76 251.674C124.56 247.214 125.94 231.784 125.87 229.564C125.84 228.394 120.27 226.274 119.8 228.884C118.2 237.804 116.89 248.554 116.9 249.724C116.9 253.294 123.26 254.484 123.76 251.674Z" fill="#131A2D"/>
<path d="M106.45 234.844C106.55 235.634 106.87 236.244 106.87 236.244L110.66 235.514C110.66 235.514 110.79 234.994 110.76 234.754C110.73 234.514 110.94 232.264 111.17 231.254C111.4 230.244 111.41 228.284 110.03 227.814C108.64 227.344 108.11 227.804 107.09 228.954C106.06 230.114 106.09 231.334 106.15 231.834C106.2 232.334 106.35 234.044 106.45 234.834V234.844Z" fill="black"/>
<path d="M113.73 258.184C113.73 253.644 112.37 238.204 111.92 236.044C111.68 234.894 105.84 233.994 105.84 236.654C105.84 245.744 106.44 256.564 106.65 257.714C107.28 261.214 113.73 261.044 113.73 258.184Z" fill="black"/>
<path d="M122.84 273.674C124.44 264.754 124.13 250.414 124.12 249.244C124.12 245.674 117.94 244.754 117.1 247.454C116.45 249.534 115.22 256.784 114.73 258.884C114.24 260.984 113.35 264.114 113.42 266.334C113.45 267.504 122.37 276.274 122.84 273.664V273.674Z" fill="#131A2D"/>
<path d="M116.19 280.014C116.19 270.924 113.86 256.874 113.65 255.724C113.01 252.224 106.8 252.614 106.44 255.444C106.17 257.614 105.04 273.024 105.83 275.974C106.13 277.104 116.19 282.674 116.19 280.014Z" fill="#433BB4"/>
</g>
<g opacity="0.6">
<path d="M73.32 223.054L74.1 223.504L123.77 252.304L162.67 229.884L146.96 220.774L133.54 212.984L128.71 210.194L122.01 206.304L112.23 200.634L101.02 207.094L93.34 211.514L87.81 214.704L73.32 223.054Z" fill="#3DD3B6"/>
<path d="M74.06 223.554L73.18 223.044L112.19 200.574L112.22 200.554L162.7 229.824L162.8 229.884L123.79 252.364L123.76 252.384L74.06 223.564V223.554ZM112.22 200.704L73.44 223.044L123.76 252.224L162.54 229.884L112.22 200.714V200.704Z" fill="#131A2D"/>
</g>
<g style="mix-blend-mode:screen" opacity="0.16">
<path d="M73.32 223.054L74.1 223.504L146.96 220.774L133.54 212.984L87.81 214.704L73.32 223.054Z" fill="white"/>
</g>
<g style="mix-blend-mode:screen" opacity="0.16">
<path d="M93.34 211.514L128.71 210.194L122.01 206.304L101.02 207.094L93.34 211.514Z" fill="white"/>
</g>
<path d="M140.11 165.354C139.66 165.644 138.21 165.614 137.99 165.624C137.77 165.624 137.71 168.254 137.71 168.254C137.71 168.254 139.94 168.334 140.44 168.514C140.95 168.704 141.14 168.674 142.25 168.694C143.52 168.714 142.99 167.914 144.09 167.684C144.24 167.654 144.5 167.044 144.37 166.684C144.23 166.314 143.1 166.764 142.59 166.154C142.41 165.934 142.8 165.924 142.96 165.904C143.35 165.824 144.16 165.744 144.23 165.204C144.32 164.514 143.2 165.184 142.12 164.944C141.8 164.874 140.56 165.084 140.11 165.374V165.354Z" fill="white"/>
<path d="M142.26 168.764C142.09 168.764 141.93 168.764 141.8 168.764C141.08 168.764 140.86 168.754 140.43 168.594C139.94 168.414 137.74 168.334 137.72 168.334H137.65V168.264C137.71 165.574 137.93 165.564 138 165.564C138.03 165.564 138.07 165.564 138.12 165.564C138.51 165.564 139.69 165.554 140.08 165.304C140.56 165.004 141.81 164.794 142.14 164.864C142.59 164.964 143.06 164.904 143.44 164.854C143.82 164.804 144.09 164.764 144.23 164.904C144.3 164.974 144.32 165.074 144.31 165.204C144.24 165.744 143.54 165.864 143.12 165.944C143.08 165.944 143.03 165.954 143 165.964C142.97 165.964 142.94 165.964 142.91 165.974C142.84 165.974 142.66 166.004 142.64 166.044C142.64 166.044 142.64 166.064 142.67 166.104C142.94 166.424 143.41 166.434 143.78 166.444C144.1 166.444 144.38 166.454 144.46 166.654C144.56 166.914 144.47 167.304 144.34 167.544C144.27 167.664 144.2 167.734 144.14 167.744C143.66 167.844 143.5 168.054 143.36 168.264C143.18 168.514 143.01 168.754 142.34 168.754C142.32 168.754 142.3 168.754 142.29 168.754L142.26 168.764ZM143.45 164.984C143.06 165.034 142.58 165.104 142.11 164.994C141.8 164.924 140.59 165.134 140.15 165.414C139.73 165.674 138.56 165.684 138.12 165.694C138.08 165.694 138.04 165.694 138.02 165.694C137.91 165.834 137.82 167.054 137.79 168.194C138.17 168.204 140.01 168.284 140.48 168.454C140.9 168.604 141.09 168.614 141.81 168.614C141.94 168.614 142.1 168.614 142.27 168.614C142.92 168.614 143.06 168.414 143.23 168.174C143.38 167.954 143.56 167.714 144.09 167.604C144.1 167.604 144.15 167.574 144.2 167.464C144.32 167.254 144.4 166.914 144.31 166.684C144.27 166.564 144.03 166.564 143.76 166.554C143.36 166.554 142.85 166.534 142.55 166.164C142.49 166.094 142.47 166.024 142.5 165.974C142.55 165.864 142.72 165.834 142.88 165.814C142.91 165.814 142.94 165.814 142.96 165.804C143 165.804 143.04 165.794 143.09 165.784C143.5 165.714 144.12 165.604 144.18 165.164C144.19 165.074 144.18 165.014 144.14 164.974C144.1 164.934 144.02 164.914 143.92 164.914C143.8 164.914 143.64 164.934 143.46 164.964L143.45 164.984Z" fill="black"/>
<path d="M116.03 154.054C118.72 154.394 121.09 155.004 124.18 161.154C127.26 167.304 128.12 168.654 127.54 170.134C126.97 171.614 124.82 173.374 121.69 168.604C118.57 163.834 115.08 160.614 114.65 159.824C112.6 156.094 114.3 153.834 116.03 154.054Z" fill="black"/>
<path d="M126.45 171.814C131.5 172.264 139.52 169.164 139.52 169.164C140.53 166.224 138.15 165.164 138.15 165.164C138.15 165.164 132.87 166.494 126.62 166.494C123.44 166.494 121.4 171.364 126.45 171.814Z" fill="black"/>
<path d="M125.5 221.834C126.89 222.384 130.26 222.674 131.41 223.674C132.57 224.674 131.63 225.334 130.24 225.604C128.8 225.884 127.57 225.724 126.98 225.544C126.39 225.364 124.63 225.044 122.67 225.424C121.09 225.734 120.77 224.404 120.72 223.834C120.67 223.194 120.61 219.484 120.61 219.484L124.96 220.194C124.96 220.194 124.91 221.614 125.5 221.844V221.834Z" fill="black"/>
<path d="M123.7 198.134C124.5 202.594 125.88 218.024 125.81 220.244C125.78 221.414 120.21 223.534 119.74 220.924C118.14 212.004 116.83 201.254 116.84 200.084C116.84 196.514 123.2 195.324 123.7 198.134Z" fill="#131A2D"/>
<path d="M106.39 225.694C106.49 224.904 106.81 224.294 106.81 224.294L110.6 225.024C110.6 225.024 110.73 225.544 110.7 225.784C110.67 226.024 110.88 228.274 111.11 229.284C111.34 230.284 111.35 232.244 109.97 232.724C108.58 233.194 108.05 232.744 107.03 231.584C106 230.424 106.03 229.204 106.09 228.704C106.14 228.204 106.29 226.494 106.39 225.704V225.694Z" fill="black"/>
<path d="M113.66 202.354C113.66 206.894 112.3 222.334 111.85 224.494C111.61 225.644 105.77 226.544 105.77 223.884C105.77 214.794 106.37 203.974 106.58 202.824C107.21 199.324 113.66 199.494 113.66 202.354Z" fill="black"/>
<path d="M122.77 176.134C124.37 185.054 124.06 199.394 124.05 200.564C124.05 204.134 117.87 205.054 117.03 202.354C116.38 200.274 115.15 193.024 114.66 190.924C114.17 188.824 113.28 185.694 113.35 183.474C113.38 182.304 122.3 173.534 122.77 176.144V176.134Z" fill="#131A2D"/>
<path d="M116.13 180.524C116.13 189.614 113.8 203.664 113.59 204.814C112.95 208.314 106.74 207.924 106.38 205.094C106.11 202.914 104.98 187.514 105.77 184.564C106.07 183.434 116.13 177.864 116.13 180.524Z" fill="black"/>
<path d="M108 154.414C108.2 153.904 108.51 153.274 108.97 152.814C109.24 152.544 110.26 152.414 110.26 152.414L115.64 153.774C115.64 153.774 118.68 154.474 119.43 155.074C122.75 157.664 124.44 186.614 124.28 186.814C124.12 187.024 120.42 189.734 118.86 190.184L117.46 187.884L116.54 191.244C112.02 192.414 104.98 192.574 104.98 192.574L102.74 159.514L106.84 156.054C107.36 155.614 107.75 155.044 108 154.404V154.414Z" fill="#131A2D"/>
<path d="M115.92 154.394C116.37 154.744 116.7 155.224 116.89 155.764L118.61 158.614L117.35 159.504L118.51 160.644L116.13 167.444C116.13 167.444 115.19 161.924 115.33 160.184C115.45 158.664 115.33 157.314 115.42 156.494C115.65 154.424 114.24 153.894 114.24 153.894C114.85 153.714 115.47 154.044 115.92 154.404V154.394Z" fill="#130000"/>
<path d="M109.28 152.424C111.28 150.864 114.92 153.284 115.75 156.344C116.1 157.624 116.11 162.934 116.1 163.354C116.05 165.224 116.01 166.374 116.01 166.374C115.6 165.114 112.77 160.424 112.24 159.534C111.29 157.954 110.39 156.614 109.76 155.844C108.18 153.884 108.64 152.934 109.28 152.434V152.424Z" fill="white"/>
<path d="M115.95 166.384C115.69 165.574 114.35 163.164 112.19 159.564C111.25 158.004 110.35 156.664 109.71 155.874C108.92 154.894 108.56 154.054 108.63 153.394C108.68 152.994 108.88 152.654 109.24 152.374C109.93 151.834 110.87 151.724 111.89 152.064C113.66 152.654 115.31 154.444 115.82 156.324C116.17 157.624 116.18 163.014 116.17 163.354C116.12 165.194 116.08 166.354 116.08 166.374V166.754L115.95 166.394V166.384ZM109.33 152.474C109 152.734 108.81 153.044 108.77 153.404C108.7 154.034 109.05 154.834 109.82 155.784C110.46 156.574 111.37 157.924 112.31 159.494C113.46 161.414 115.38 164.654 115.96 166.024C115.98 165.554 116.01 164.614 116.04 163.334C116.04 162.994 116.04 157.624 115.69 156.344C115.19 154.504 113.58 152.754 111.85 152.184C111.53 152.074 111.15 151.994 110.76 151.994C110.29 151.994 109.78 152.114 109.33 152.464V152.474Z" fill="black"/>
<path d="M115.95 157.834C116.06 158.934 116.17 160.464 116.13 161.994C116.12 162.474 116.11 162.934 116.1 163.354L115.55 165.004C115.55 165.004 113.93 162.544 113.83 162.344C113.32 161.374 112.77 160.414 112.24 159.534L113.93 157.434L115.94 157.844L115.95 157.834Z" fill="white"/>
<path d="M115.5 165.034C115.43 164.934 113.88 162.564 113.77 162.364C113.27 161.424 112.74 160.484 112.18 159.564L112.16 159.524L113.91 157.354L116.01 157.774V157.824C116.12 158.854 116.24 160.404 116.2 161.994V162.524C116.18 162.814 116.17 163.084 116.17 163.344L115.58 165.144L115.5 165.034ZM116.06 162.524V161.994C116.11 160.444 116 158.914 115.9 157.894L113.97 157.504L112.33 159.534C112.88 160.444 113.4 161.374 113.9 162.304C113.99 162.474 115.22 164.354 115.54 164.844L116.04 163.334C116.04 163.074 116.05 162.804 116.06 162.524Z" fill="black"/>
<path d="M109.94 150.774C109.94 150.774 114.4 153.194 114.4 154.304C114.4 155.414 113.21 156.344 113.21 156.344C111.58 156.344 109.99 154.584 109.41 153.864C109.26 153.684 109.23 153.434 109.31 153.214C109.87 151.674 109.94 150.784 109.94 150.784V150.774Z" fill="white"/>
<path d="M109.36 153.904C109.2 153.704 109.16 153.434 109.25 153.184C109.8 151.674 109.88 150.774 109.88 150.764V150.664L109.98 150.714C110.16 150.814 114.47 153.174 114.47 154.304C114.47 155.424 113.31 156.354 113.26 156.394H113.24L113.22 156.404C111.57 156.404 109.98 154.654 109.37 153.904H109.36ZM109.37 153.234C109.3 153.434 109.33 153.664 109.46 153.824C110.05 154.554 111.6 156.264 113.18 156.274C113.33 156.154 114.33 155.294 114.33 154.304C114.33 153.314 110.61 151.224 109.99 150.884C109.96 151.164 109.82 151.974 109.37 153.234Z" fill="black"/>
<path d="M108.9 148.234C108.9 148.234 107.47 142.524 112.62 142.384C117.77 142.244 117.12 148.054 116.86 148.624C116.6 149.194 116.98 149.114 116.95 150.114C116.91 151.444 115.79 153.164 115.63 153.754C115.47 154.344 114.7 154.564 114.11 154.364C110.75 153.214 109.97 151.234 109.97 151.234C109.45 151.344 109.19 150.664 109.09 150.304C108.99 149.944 108.94 149.864 108.73 149.124C108.52 148.394 108.91 148.224 108.91 148.224L108.9 148.234Z" fill="white"/>
<path d="M114.08 154.444C111.02 153.404 110.07 151.644 109.92 151.324C109.53 151.364 109.21 151.024 109.02 150.334C108.98 150.194 108.95 150.094 108.91 149.984C108.85 149.814 108.79 149.604 108.66 149.164C108.48 148.534 108.72 148.284 108.83 148.214C108.75 147.834 108.25 145.324 109.47 143.714C110.14 142.834 111.2 142.364 112.62 142.334C114.28 142.284 115.51 142.854 116.27 144.004C117.39 145.694 117.12 148.244 116.92 148.674C116.79 148.944 116.83 149.054 116.89 149.234C116.95 149.414 117.03 149.654 117.01 150.144C116.98 151.074 116.45 152.164 116.05 152.964C115.88 153.314 115.73 153.624 115.68 153.804C115.61 154.044 115.45 154.244 115.2 154.374C115.01 154.474 114.77 154.534 114.54 154.534C114.38 154.534 114.22 154.504 114.07 154.454L114.08 154.444ZM112.62 142.464C111.24 142.504 110.21 142.954 109.57 143.794C108.29 145.474 108.95 148.194 108.96 148.224V148.274L108.92 148.294C108.91 148.294 108.6 148.454 108.78 149.114C108.9 149.554 108.97 149.754 109.03 149.934C109.07 150.044 109.1 150.144 109.14 150.294C109.25 150.664 109.49 151.274 109.94 151.184H110L110.02 151.224C110.02 151.244 110.83 153.194 114.12 154.314C114.45 154.424 114.85 154.404 115.14 154.244C115.35 154.134 115.49 153.964 115.55 153.754C115.6 153.564 115.75 153.264 115.93 152.894C116.32 152.104 116.84 151.024 116.87 150.124C116.88 149.654 116.81 149.424 116.75 149.264C116.69 149.064 116.64 148.924 116.78 148.604C116.92 148.304 117.29 145.794 116.14 144.064C115.43 142.994 114.31 142.454 112.79 142.454C112.73 142.454 112.67 142.454 112.61 142.454L112.62 142.464Z" fill="black"/>
<path d="M112.94 142.014C117.76 142.224 118.13 147.544 116.35 147.544C114.36 147.544 112.34 145.454 111.33 145.934C110.14 146.504 111.01 147.124 111.01 149.514C111.01 149.514 110.94 150.354 110.71 150.354C110.39 150.354 110.2 149.494 110.14 149.284C110.04 148.904 109.32 147.784 108.69 148.734C106.96 144.844 109.44 141.864 112.94 142.014Z" fill="#131A2D"/>
<path d="M113.94 157.434L115.28 157.704V159.514C115.77 160.214 115.95 160.524 116.15 161.844L116.12 167.444C116.12 167.444 114.24 163.204 113.83 162.344C113.72 160.944 113.83 160.174 114.01 159.854C113.32 159.094 113.06 158.534 113.06 158.534L113.93 157.444L113.94 157.434Z" fill="#3DD3B6"/>
<path d="M116.06 167.464C116.06 167.464 114.17 163.214 113.77 162.364V162.344C113.64 160.794 113.81 160.124 113.94 159.854C113.27 159.114 113.02 158.574 113.01 158.544L112.99 158.504L113.91 157.354L115.34 157.644V159.484C115.83 160.184 116.01 160.494 116.21 161.834L116.18 167.734L116.06 167.454V167.464ZM113.96 157.504L113.14 158.534C113.21 158.664 113.48 159.174 114.06 159.804L114.09 159.834L114.07 159.874C113.97 160.054 113.76 160.664 113.89 162.314C114.24 163.054 115.63 166.184 116.06 167.134L116.09 161.854C115.89 160.544 115.71 160.234 115.22 159.544V159.524V157.744L113.97 157.494L113.96 157.504Z" fill="#131A2D"/>
<path d="M101.58 170.114C102.65 176.274 102.75 177.724 104.08 178.494C105.06 179.064 106.82 179.284 107.59 177.284C107.86 176.574 108.01 175.584 107.95 174.224C107.86 172.164 107.78 170.064 107.71 168.234C107.61 165.464 107.53 163.304 107.47 162.824C106.97 158.994 104.45 157.954 102.94 159.314C100.61 161.424 100.51 163.964 101.59 170.114H101.58Z" fill="#131A2D"/>
<path d="M109.28 152.434C109.28 152.434 108.19 153.884 109.76 155.844C110.38 156.614 111.13 158.074 112.23 159.544C113.5 161.234 116.12 167.454 116.12 167.454L109.44 161.284L109.74 160.174L108.7 160.284L107.8 156.074C107.66 155.404 107.68 154.704 107.9 154.054C108.13 153.394 108.55 152.664 109.28 152.444V152.434Z" fill="black"/>
<path d="M144.01 164.784C144.01 165.594 143.63 166.364 142.99 166.864C141.08 168.334 137.98 170.264 134.72 170.364C131.62 170.714 128.38 169.154 126 167.604C125.26 167.124 124.82 166.294 124.82 165.414V158.354H144V164.784H144.01Z" fill="#3DD3B6"/>
<path d="M125.97 167.654C125.21 167.164 124.76 166.324 124.76 165.404V158.274H144.07V164.774C144.07 165.614 143.69 166.394 143.02 166.904C141.02 168.454 137.95 170.314 134.72 170.414C134.42 170.444 134.13 170.464 133.83 170.464C130.92 170.464 127.99 168.974 125.96 167.644L125.97 167.654ZM124.89 158.414V165.414C124.89 166.284 125.32 167.084 126.04 167.554C128.26 169.004 131.56 170.654 134.72 170.304C137.92 170.204 140.96 168.354 142.95 166.814C143.58 166.324 143.95 165.584 143.95 164.784V158.414H124.9H124.89Z" fill="#131A2D"/>
<path d="M133.83 164.894L133.8 165.564L120.48 157.124L120.5 156.454L133.83 164.894Z" fill="#131A2D"/>
<path d="M147.8 157.574L133.83 164.894L120.5 156.454L134.47 149.134L147.8 157.574Z" fill="#3DD3B6"/>
<path d="M120.37 156.444L134.44 149.074L134.47 149.054L147.92 157.574L133.85 164.944L133.82 164.964L120.37 156.444ZM134.47 149.204L120.63 156.454L133.83 164.814L147.67 157.564L134.47 149.204Z" fill="#131A2D"/>
<path d="M147.8 157.574L147.77 158.244L133.8 165.564L133.83 164.894L147.8 157.574Z" fill="#131A2D"/>
<path d="M134.2 156.144C134.89 156.174 135.44 156.514 135.42 156.904C135.4 157.294 134.83 157.584 134.14 157.564C133.45 157.534 132.9 157.194 132.92 156.804C132.94 156.414 133.51 156.124 134.2 156.144Z" fill="#131A2D"/>
<path d="M106.85 177.964C107.09 177.784 107.34 177.554 107.58 177.284C107.85 176.574 108 175.584 107.94 174.224C107.85 172.164 107.77 170.064 107.7 168.234C106.68 169.994 105.23 172.174 103.58 173.774C101.93 175.374 103.95 180.154 106.85 177.964Z" fill="black"/>
<path d="M112.39 168.064C112.52 167.894 113.36 166.714 113.86 166.514C114.36 166.314 115.26 165.454 115.4 165.144C115.84 164.134 117.04 163.624 116.44 163.284C115.96 163.014 115.42 163.614 115.13 163.894C115.02 164.004 114.78 164.324 114.71 164.044C114.51 163.274 116.66 161.484 116.44 161.154C116.22 160.824 115.75 160.614 115.59 160.634C114.15 160.754 113.43 160.314 112.7 161.354C112.06 162.264 111.67 163.854 111.52 164.374C111.37 164.894 110.12 166.734 110.12 166.734C110.12 166.734 112.28 168.234 112.41 168.064H112.39Z" fill="white"/>
<path d="M110.06 166.794L110.01 166.754L110.05 166.704C110.05 166.704 111.3 164.864 111.45 164.364C111.47 164.304 111.49 164.224 111.52 164.134C111.7 163.484 112.07 162.134 112.64 161.324C113.19 160.554 113.75 160.574 114.52 160.594C114.83 160.604 115.17 160.614 115.58 160.584C115.76 160.564 116.26 160.784 116.49 161.134C116.61 161.314 116.34 161.634 115.82 162.254C115.3 162.864 114.66 163.634 114.77 164.034C114.78 164.084 114.8 164.094 114.8 164.094C114.84 164.094 114.97 163.974 115.01 163.924C115.03 163.894 115.06 163.874 115.08 163.854C115.11 163.824 115.14 163.794 115.17 163.764C115.48 163.464 116 162.974 116.47 163.234C116.59 163.304 116.65 163.384 116.67 163.474C116.7 163.664 116.51 163.864 116.24 164.134C115.98 164.404 115.65 164.744 115.46 165.174C115.33 165.484 114.41 166.374 113.89 166.574C113.47 166.744 112.76 167.684 112.53 167.994C112.49 168.044 112.47 168.074 112.45 168.094C112.45 168.094 112.42 168.124 112.37 168.124C112.21 168.124 111.73 167.934 110.06 166.774V166.794ZM112.42 167.924C112.68 167.574 113.38 166.634 113.84 166.454C114.33 166.264 115.21 165.414 115.34 165.124C115.54 164.674 115.87 164.324 116.14 164.044C116.36 163.814 116.55 163.624 116.53 163.494C116.53 163.444 116.48 163.394 116.4 163.354C116.01 163.134 115.56 163.574 115.26 163.864C115.23 163.894 115.19 163.924 115.17 163.954C115.15 163.974 115.13 163.994 115.11 164.014C115 164.124 114.89 164.254 114.77 164.224C114.71 164.204 114.67 164.154 114.64 164.064C114.52 163.594 115.16 162.834 115.72 162.164C116.03 161.804 116.44 161.304 116.38 161.204C116.18 160.894 115.72 160.694 115.59 160.714C115.18 160.744 114.83 160.734 114.52 160.724C113.73 160.704 113.25 160.684 112.75 161.394C112.19 162.184 111.83 163.514 111.65 164.164C111.62 164.254 111.6 164.334 111.58 164.404C111.44 164.884 110.42 166.414 110.2 166.724C111.14 167.374 112.17 168.024 112.35 168.024C112.35 168.024 112.39 167.974 112.42 167.934V167.924Z" fill="black"/>
<path d="M103.87 174.744C107.11 171.604 109.56 166.214 109.56 166.214C109.56 166.214 112.09 165.114 113.42 167.894C113.42 167.894 110.04 176.744 107.14 178.934C104.24 181.124 102.22 176.344 103.87 174.744Z" fill="#131A2D"/>
<path d="M134.26 157.194L126.97 161.224L126.91 167.484L126.4 167.684L126.39 160.774L134 156.704L134.26 157.194Z" fill="#131A2D"/>
<path d="M126.31 167.344C126.31 167.204 126.48 167.104 126.68 167.104C126.88 167.104 127.05 167.214 127.04 167.354L127.27 168.684C127.27 168.914 126.99 169.084 126.65 169.084C126.31 169.084 126.04 168.894 126.04 168.664C126.04 168.634 126.04 168.604 126.06 168.574L126.31 167.344Z" fill="white"/>
<path d="M126.65 169.144C126.47 169.144 126.31 169.094 126.18 169.004C126.05 168.914 125.97 168.794 125.98 168.654C125.98 168.614 125.98 168.584 126 168.554L126.25 167.324C126.25 167.154 126.44 167.024 126.68 167.024C126.92 167.024 127.11 167.164 127.11 167.324L127.34 168.674C127.34 168.934 127.04 169.134 126.67 169.134C126.67 169.134 126.66 169.134 126.65 169.134V169.144ZM126.37 167.344L126.12 168.594C126.12 168.594 126.11 168.644 126.11 168.664C126.11 168.754 126.16 168.834 126.26 168.904C126.36 168.974 126.51 169.014 126.66 169.014H126.67C126.96 169.014 127.21 168.864 127.22 168.694L126.98 167.354C126.98 167.254 126.84 167.174 126.68 167.174C126.52 167.174 126.38 167.254 126.38 167.354L126.37 167.344Z" fill="#131A2D"/>
<path d="M115.18 194.974L129.55 186.764L129.94 181.634L112.13 191.664C112.13 195.234 114.1 195.304 115.18 194.974Z" fill="white"/>
<path d="M113.11 194.844C112.37 194.304 112 193.234 112 191.664V191.584L130.09 181.394L129.67 186.844L115.24 195.084H115.21C115.03 195.154 114.72 195.234 114.35 195.234C113.96 195.234 113.51 195.144 113.1 194.844H113.11ZM129.42 186.684L129.79 181.874L112.27 191.744C112.28 193.184 112.62 194.154 113.27 194.634C113.95 195.134 114.78 194.954 115.12 194.854L129.42 186.684Z" fill="#131A2D"/>
<path d="M115.73 189.644C116.62 191.914 116.82 194.004 115.22 194.954C115.34 194.884 115.73 194.664 116.31 194.334C119.12 192.724 126.38 188.554 128.92 187.094C129.19 186.944 129.4 186.824 129.56 186.734C129.71 186.644 129.8 186.594 129.82 186.584C130.15 186.414 130.45 186.194 130.71 185.934C132.33 184.374 132.69 181.484 131.32 179.394C128.95 175.734 121.3 166.564 121.3 158.294L117.05 160.724L116.6 160.984L116.42 161.084L115.69 161.504L114.25 162.324L113.34 162.844L105.73 167.194C105.73 176.414 109.64 179.634 110.79 181.374C111.39 182.284 114.37 186.174 115.73 189.644Z" fill="white"/>
<path d="M115.15 194.834C116.48 194.044 116.63 192.314 115.6 189.684C114.47 186.804 112.22 183.644 111.15 182.124C110.94 181.824 110.77 181.594 110.67 181.444C110.5 181.184 110.25 180.874 109.97 180.524C108.44 178.604 105.58 175.034 105.58 167.184V167.104L121.42 158.044V158.274C121.42 165.164 126.73 172.644 129.9 177.114C130.51 177.974 131.03 178.714 131.42 179.304C132.79 181.404 132.51 184.354 130.79 186.014C130.52 186.284 130.21 186.504 129.87 186.684C129.86 186.684 129.81 186.714 129.74 186.754L129.47 186.904C129.34 186.984 129.17 187.074 128.98 187.184L124.12 189.974C121.24 191.624 118.03 193.464 116.37 194.424C116.05 194.604 115.79 194.754 115.6 194.864C115.45 194.954 115.34 195.014 115.29 195.044L115.15 194.814V194.834ZM105.85 167.264C105.87 174.964 108.67 178.474 110.18 180.364C110.46 180.724 110.71 181.024 110.89 181.304C110.99 181.454 111.15 181.684 111.36 181.974C112.44 183.504 114.7 186.684 115.84 189.594C116.67 191.704 116.75 193.284 116.09 194.294C116.13 194.264 116.18 194.244 116.23 194.214C117.89 193.264 121.1 191.414 123.98 189.764L128.84 186.974C129.03 186.864 129.2 186.764 129.33 186.694L129.59 186.544C129.67 186.494 129.72 186.464 129.73 186.464C130.04 186.294 130.33 186.084 130.59 185.834C132.2 184.284 132.47 181.424 131.18 179.464C130.8 178.874 130.27 178.134 129.67 177.284C126.52 172.834 121.26 165.424 121.15 158.514L105.84 167.264H105.85Z" fill="#131A2D"/>
<path d="M118.6 163.894L109.32 169.194C109.18 169.794 109.16 170.804 109.69 171.124L119.47 165.534C119.05 165.204 118.87 164.864 118.6 163.884V163.894Z" fill="#3DD3B6"/>
<path d="M109.65 171.184C109.06 170.814 109.13 169.714 109.25 169.184V169.154L118.56 163.834L118.63 163.794L118.65 163.874C118.93 164.844 119.09 165.164 119.5 165.484L119.58 165.544L109.71 171.184L109.68 171.204L109.65 171.184ZM118.56 163.984L109.38 169.234C109.25 169.804 109.24 170.734 109.69 171.054L119.36 165.524C118.99 165.214 118.81 164.864 118.56 163.984Z" fill="#131A2D"/>
<path d="M125.13 181.104C125.36 180.524 125.82 180.074 126.41 179.834C126.72 179.704 127.04 179.644 127.38 179.644C128.37 179.644 129.31 180.194 129.77 181.054C130.11 181.674 130.15 182.394 129.9 183.024C129.81 183.244 129.68 183.444 129.52 183.634C131.18 186.024 131.14 188.354 131.14 188.354C131 187.944 130.03 187.554 130.03 187.554C130.03 188.344 129.15 189.614 129.15 189.614C129.42 187.364 128.11 185.114 127.7 184.484C127.68 184.484 127.66 184.484 127.64 184.484C126.65 184.484 125.71 183.934 125.25 183.074C124.91 182.454 124.87 181.734 125.12 181.104H125.13Z" fill="#3DD3B6"/>
<path d="M129.1 189.594C129.37 187.414 128.11 185.214 127.68 184.544C127.68 184.544 127.66 184.544 127.65 184.544C126.64 184.544 125.68 183.974 125.2 183.104C124.86 182.464 124.81 181.724 125.07 181.074C125.31 180.484 125.78 180.014 126.39 179.764C126.7 179.634 127.04 179.574 127.38 179.574C128.39 179.574 129.36 180.144 129.83 181.014C130.18 181.654 130.22 182.394 129.96 183.044C129.88 183.244 129.76 183.434 129.6 183.634C131.22 185.994 131.21 188.334 131.21 188.354V188.734L131.08 188.374C130.99 188.094 130.4 187.784 130.09 187.644C130.03 188.444 129.24 189.594 129.2 189.644L129.05 189.864L129.08 189.604L129.1 189.594ZM130.07 187.484C130.07 187.484 130.77 187.774 131.08 188.114C131.04 187.464 130.8 185.574 129.48 183.664L129.45 183.624L129.48 183.584C129.65 183.384 129.77 183.194 129.85 182.994C130.1 182.384 130.05 181.684 129.72 181.074C129.27 180.234 128.35 179.704 127.39 179.704C127.06 179.704 126.74 179.764 126.45 179.884C125.87 180.124 125.43 180.564 125.2 181.124C124.95 181.734 125 182.434 125.33 183.044C125.78 183.884 126.7 184.414 127.66 184.414H127.68C127.69 184.414 127.71 184.414 127.72 184.414H127.76L127.78 184.444C128.18 185.064 129.41 187.174 129.26 189.354C129.51 188.964 129.98 188.124 129.98 187.554V187.454L130.07 187.494V187.484Z" fill="#131A2D"/>
<path d="M126.59 180.334C125.61 180.734 125.24 181.834 125.75 182.784C126.27 183.744 127.48 184.194 128.46 183.794C129.44 183.394 129.81 182.294 129.3 181.334C128.78 180.374 127.57 179.924 126.59 180.324V180.334Z" fill="#131A2D"/>
<path d="M112.28 179.254L112.49 179.534L116.48 177.234L116.32 176.914L112.28 179.254Z" fill="#131A2D"/>
<path d="M112.74 179.884L112.94 180.154L114.81 179.084L114.63 178.794L112.74 179.884Z" fill="#131A2D"/>
<path d="M115.12 178.514L115.29 178.804L119.61 176.344L119.49 176.014L115.12 178.514Z" fill="#131A2D"/>
<path d="M117.85 179.434L117.98 179.694L123.5 176.644L123.43 176.334L117.85 179.434Z" fill="#131A2D"/>
<path d="M113.99 181.584L114.15 181.814L116.91 180.284L116.77 180.034L113.99 181.584Z" fill="#131A2D"/>
<path d="M113.59 181.044L113.77 181.284L120.81 177.334L120.71 177.034L113.59 181.044Z" fill="#131A2D"/>
<path d="M116.63 178.524L116.78 178.814L125.39 173.954L125.34 173.594L116.63 178.524Z" fill="#131A2D"/>
<path d="M113.18 180.474L113.36 180.734L116.47 178.984L116.32 178.694L113.18 180.474Z" fill="#131A2D"/>
<path d="M117.85 187.364L117.99 187.654L122 185.354L121.9 185.024L117.85 187.364Z" fill="#131A2D"/>
<path d="M118.15 187.994L118.29 188.264L120.16 187.194L120.05 186.914L118.15 187.994Z" fill="#131A2D"/>
<path d="M120.54 186.634L120.64 186.924L124.98 184.454L124.93 184.124L120.54 186.634Z" fill="#131A2D"/>
<path d="M118.44 188.594L118.57 188.844L121.69 187.094L121.6 186.814L118.44 188.594Z" fill="#131A2D"/>
<path d="M114.24 162.324C114.36 162.434 114.5 162.544 114.65 162.664C114.98 162.924 115.14 163.204 115.17 163.724C115.2 164.384 116.27 164.624 116.39 164.514C116.91 164.034 116.43 162.414 116.39 162.274C116.54 162.454 116.6 162.494 116.69 162.824C116.84 163.374 116.73 163.864 116.93 164.014C117.25 164.254 117.26 163.504 117.31 162.814C117.33 162.424 116.78 161.604 116.41 161.074L115.68 161.494L114.24 162.314V162.324Z" fill="white"/>
<path d="M115.77 164.494C115.36 164.324 115.12 164.044 115.11 163.734C115.09 163.254 114.95 162.984 114.62 162.724C114.46 162.604 114.33 162.484 114.2 162.384L114.13 162.324L116.44 161.004L116.47 161.054C116.93 161.724 117.4 162.454 117.38 162.834V163.034C117.33 163.654 117.3 164.034 117.12 164.124C117.05 164.154 116.98 164.144 116.9 164.084C116.76 163.984 116.75 163.774 116.73 163.504C116.72 163.304 116.7 163.084 116.64 162.854C116.61 162.754 116.59 162.684 116.57 162.624C116.71 163.194 116.87 164.184 116.46 164.564C116.43 164.594 116.36 164.614 116.29 164.614C116.15 164.614 115.95 164.564 115.79 164.494H115.77ZM116.49 162.284C116.62 162.434 116.67 162.494 116.76 162.814C116.83 163.064 116.85 163.304 116.86 163.494C116.88 163.724 116.89 163.904 116.98 163.974C117.01 163.994 117.04 164.014 117.07 164.004C117.19 163.944 117.22 163.414 117.24 163.024V162.824C117.28 162.454 116.67 161.564 116.4 161.174L114.36 162.334C114.46 162.424 114.58 162.514 114.7 162.614C115.07 162.894 115.22 163.214 115.24 163.724C115.26 164.044 115.55 164.244 115.72 164.324C116.02 164.474 116.31 164.494 116.35 164.464C116.83 164.024 116.38 162.474 116.33 162.294L116.24 161.994L116.49 162.284Z" fill="black"/>
<path d="M141.57 168.134C141.54 167.924 141.52 167.704 141.49 167.464C141.44 166.934 141.26 166.574 140.72 166.184C140.04 165.694 140.51 164.404 140.72 164.344C141.59 164.124 142.97 165.744 143.09 165.884C143.01 165.594 143 165.514 142.71 165.184C142.23 164.644 141.63 164.424 141.61 164.114C141.58 163.614 142.38 164.114 143.14 164.534C143.57 164.774 144.06 165.924 144.37 166.674L143.42 167.164L141.56 168.134H141.57Z" fill="white"/>
<path d="M141.51 168.144C141.48 167.944 141.46 167.724 141.43 167.464C141.38 166.924 141.18 166.594 140.69 166.234C140.37 166.004 140.24 165.564 140.34 165.024C140.4 164.694 140.56 164.314 140.71 164.274C141.44 164.084 142.46 165.074 142.93 165.594C142.88 165.494 142.81 165.394 142.66 165.224C142.45 164.994 142.23 164.824 142.03 164.674C141.77 164.474 141.56 164.324 141.54 164.114C141.54 163.994 141.57 163.914 141.64 163.864C141.86 163.724 142.36 164.014 142.95 164.344L143.18 164.474C143.6 164.704 144.05 165.704 144.44 166.644L144.46 166.704L141.52 168.234V168.144H141.51ZM143.12 164.594L142.89 164.464C142.43 164.204 141.86 163.884 141.72 163.984C141.69 164.004 141.68 164.044 141.68 164.104C141.69 164.254 141.88 164.394 142.12 164.574C142.31 164.724 142.56 164.904 142.77 165.144C143.05 165.454 143.08 165.554 143.14 165.784L143.25 166.164L143.05 165.924C142.9 165.744 141.56 164.194 140.75 164.414C140.7 164.434 140.54 164.684 140.47 165.084C140.42 165.364 140.4 165.864 140.77 166.134C141.3 166.514 141.52 166.884 141.57 167.454C141.59 167.664 141.61 167.854 141.63 168.034L144.3 166.644C144.06 166.054 143.54 164.824 143.12 164.594Z" fill="black"/>
<path d="M116.08 160.914C116.08 160.914 116.38 161.114 116.51 161.354C116.64 161.604 115.67 161.854 115.67 161.854L114.36 162.344C114.36 162.344 114.22 162.344 114.1 162.404C113.98 162.474 113.65 162.404 113.65 162.404L113.94 161.784L114.73 161.294L115.61 161.144L116.07 160.914H116.08Z" fill="white"/>
<path d="M141.61 167.864C141.61 167.864 141.49 168.044 141.25 168.134C141.02 168.224 141.19 168.424 141.19 168.424L141.84 168.364L143.84 167.344L144.3 166.944C144.3 166.944 144.43 166.784 144.2 166.434C143.97 166.084 143.29 166.754 143.29 166.754L141.61 167.864Z" fill="white"/>
<defs>
<linearGradient id="paint0_linear_38_86365" x1="193.51" y1="163.594" x2="159.96" y2="163.594" gradientUnits="userSpaceOnUse">
<stop stop-color="#C6CAE6"/>
<stop offset="1" stop-color="white"/>
</linearGradient>
<linearGradient id="paint1_linear_38_86365" x1="156.9" y1="145.134" x2="237.81" y2="145.134" gradientUnits="userSpaceOnUse">
<stop stop-color="#42B1FF"/>
<stop offset="1" stop-color="#4A83E7"/>
</linearGradient>
</defs>
</svg>
