<svg width="220" height="102" viewBox="0 0 220 102" fill="none" xmlns="http://www.w3.org/2000/svg">
<g filter="url(#filter0_d_54_9838)">
<path d="M170.87 3.80005H42.71C20.8947 3.80005 3.20996 21.4826 3.20996 43.295C3.20996 65.1075 20.8947 82.79 42.71 82.79H170.87C192.685 82.79 210.37 65.1075 210.37 43.295C210.37 21.4826 192.685 3.80005 170.87 3.80005Z" fill="white"/>
<path d="M116.556 82.793L106.798 73.0349L97.0395 82.793L106.798 92.5511L116.556 82.793Z" fill="white"/>
<g clip-path="url(#clip0_54_9838)">
<path d="M47 42.3823H66.3262V44.7049H47V42.3823ZM52.9929 41.0806C49.8637 41.0806 47.975 39.6258 47.975 37.344C47.975 35.0622 49.8688 33.6074 52.9929 33.6074H60.3333C63.4625 33.6074 65.3512 35.0622 65.3512 37.344C65.3512 39.6258 63.4625 41.0806 60.3333 41.0806H52.9929ZM60.8132 45.9658C63.636 45.9658 65.3512 47.3338 65.3512 49.4829C65.3512 51.6319 63.636 53 60.8132 53H52.5181C49.6953 53 47.9801 51.6319 47.9801 49.4829C47.9801 47.3338 49.6953 45.9658 52.5181 45.9658H60.8132ZM60.2057 38.7325C61.5278 38.7325 62.4007 38.2118 62.4007 37.344C62.4007 36.4762 61.5329 35.9556 60.2057 35.9556H53.1256C51.7984 35.9556 50.9306 36.4762 50.9306 37.344C50.9306 38.2118 51.7984 38.7325 53.1256 38.7325H60.2057ZM60.6192 50.6569C61.7269 50.6569 62.4007 50.1567 62.4007 49.4829C62.4007 48.8091 61.7269 48.3088 60.6192 48.3088H52.7121C51.6044 48.3088 50.9306 48.8091 50.9306 49.4829C50.9306 50.1567 51.6044 50.6569 52.7121 50.6569H60.6192Z" fill="#23ABE8"/>
<path d="M67.6279 42.4028H81.7218V44.7254H75.3614V47.2675H72.2782V44.7254H67.633V42.4028H67.6279ZM73.4472 41.6422C70.1445 41.6422 68.169 39.9679 68.169 37.6044C68.169 35.241 70.1445 33.5667 73.4472 33.5667H75.489C78.7917 33.5667 80.7672 35.241 80.7672 37.6044C80.7672 39.9679 78.7917 41.6422 75.489 41.6422H73.4472ZM69.2562 47.7014H72.2118V50.4834H85.9791V52.9133H69.2562V47.7014ZM75.4227 39.2992C76.8571 39.2992 77.8116 38.6049 77.8116 37.6044C77.8116 36.6039 76.8571 35.9097 75.4227 35.9097H73.5135C72.0791 35.9097 71.1246 36.6039 71.1246 37.6044C71.1246 38.6049 72.0791 39.2992 73.5135 39.2992H75.4227ZM77.9393 45.5524H82.5845V33.6075H85.5401V48.656H82.5845V47.9413H77.9393V45.5524Z" fill="#23ABE8"/>
<path d="M88.2557 49.1153H102.35V51.6115H88.2557V49.1153ZM94.5957 45.9658C90.7315 45.9658 88.5824 43.536 88.5824 39.927C88.5824 36.318 90.7315 33.8882 94.5957 33.8882H95.1623C99.0265 33.8882 101.176 36.318 101.176 39.927C101.176 43.536 99.0265 45.9658 95.1623 45.9658H94.5957ZM95.3359 43.49C97.0715 43.49 98.2251 42.0556 98.2251 39.927C98.2251 37.7983 97.0766 36.3639 95.3359 36.3639H94.4221C92.6866 36.3639 91.5329 37.7983 91.5329 39.927C91.5329 42.0556 92.6815 43.49 94.4221 43.49H95.3359ZM103.217 33.6074H106.173V53H103.217V33.6074Z" fill="#23ABE8"/>
<path d="M114.417 34.5875H119.261V33H122.385V34.5875H127.23V36.8234H114.417V34.5875ZM119.649 45.5319C116.867 45.5319 114.851 44.2098 114.851 41.5145C114.851 38.8193 116.872 37.4972 119.649 37.4972H121.992C124.774 37.4972 126.791 38.8193 126.791 41.5145C126.791 44.2098 124.769 45.5319 121.992 45.5319H119.649ZM115.719 46.6192H118.674V50.4834H132.227V52.9132H115.724V46.6141L115.719 46.6192ZM121.584 43.1889C123.018 43.1889 123.84 42.5814 123.84 41.5145C123.84 40.4477 123.013 39.8402 121.584 39.8402H120.063C118.674 39.8402 117.807 40.4477 117.807 41.5145C117.807 42.5814 118.674 43.1889 120.063 43.1889H121.584ZM128.838 33.6126H131.793V38.9112H134.402V41.5605H131.793V47.8137H128.838V33.6075V33.6126Z" fill="#23ABE8"/>
<path d="M135.698 34.1485H147.209V51.5196H135.698V34.1485ZM144.254 49.0438V36.6242H138.649V49.0438H144.254ZM149.466 33.6023H152.421V40.5293H155.03V43.1786H152.421V52.9948H149.466V33.6074V33.6023Z" fill="#23ABE8"/>
<path d="M156.76 34.1485H168.052V36.6243H159.711V49.0439H169.44V51.5196H156.76V34.1485ZM170.747 33.6074H173.702V53H170.747V33.6074Z" fill="#23ABE8"/>
</g>
</g>
<defs>
<filter id="filter0_d_54_9838" x="0.209961" y="0.800049" width="219.16" height="100.751" filterUnits="userSpaceOnUse" color-interpolation-filters="sRGB">
<feFlood flood-opacity="0" result="BackgroundImageFix"/>
<feColorMatrix in="SourceAlpha" type="matrix" values="0 0 0 0 0 0 0 0 0 0 0 0 0 0 0 0 0 0 127 0" result="hardAlpha"/>
<feOffset dx="3" dy="3"/>
<feGaussianBlur stdDeviation="3"/>
<feColorMatrix type="matrix" values="0 0 0 0 0 0 0 0 0 0 0 0 0 0 0 0 0 0 0.4 0"/>
<feBlend mode="normal" in2="BackgroundImageFix" result="effect1_dropShadow_54_9838"/>
<feBlend mode="normal" in="SourceGraphic" in2="effect1_dropShadow_54_9838" result="shape"/>
</filter>
<clipPath id="clip0_54_9838">
<rect width="126.697" height="20" fill="white" transform="translate(47 33)"/>
</clipPath>
</defs>
</svg>
