<svg width="262" height="117" viewBox="0 0 262 117" fill="none" xmlns="http://www.w3.org/2000/svg">
<g filter="url(#filter0_d_109_7137)">
<path fill-rule="evenodd" clip-rule="evenodd" d="M52.4013 0L209.442 0C236.173 0 257.843 21.6673 257.843 48.3952C257.843 75.1231 236.173 96.7904 209.442 96.7904L142.884 96.7904L142.888 96.794L130.931 108.751L118.974 96.794L118.978 96.7904L52.4013 96.7904C25.67 96.7904 4 75.1231 4 48.3952C4 21.6673 25.67 0 52.4013 0Z" fill="#93D600"/>
<path d="M107.595 39.62V37.24C109.275 36.58 110.635 33.98 110.635 30.52V25.6H107.795V23.32H116.075V25.6H113.375V30.52C113.375 33.98 114.455 36.08 116.395 37.06V39.44C114.595 38.84 112.875 37.48 112.035 35.64C111.115 37.5 109.455 39 107.595 39.62ZM117.675 40.28V31.54H114.895V29.1H117.675V22.92H120.235V40.28H117.675ZM121.735 40.68V22.82H124.295V40.68H121.735ZM126.799 35.34V34.7H129.519V35.34C129.519 36.46 130.179 37.42 131.999 37.42C133.819 37.42 134.479 36.46 134.479 35.34V34.16C134.479 33 133.339 32.26 131.999 32.26H130.659V30.06H131.999C133.339 30.06 134.279 29.32 134.279 28.16V27.38C134.279 26.26 133.599 25.3 131.999 25.3C130.399 25.3 129.719 26.26 129.719 27.38V28.02H126.999V27.38C126.999 24.68 129.199 23.1 131.999 23.1C134.799 23.1 136.999 24.68 136.999 27.38V28.14C136.999 29.56 136.339 30.64 135.159 31.14C136.339 31.64 137.199 32.72 137.199 34.14V35.34C137.199 38.04 135.019 39.62 131.999 39.62C128.979 39.62 126.799 38.04 126.799 35.34ZM139.701 40.6V35H142.421V38.36H155.101V40.6H139.701ZM151.981 36.3V22.82H154.701V27.7H157.101V30.14H154.701V36.3H151.981ZM138.901 25.22V22.98H149.501V30.72H146.781V25.22H138.901ZM138.401 33.74V31.6H141.681V27.82H144.521V31.6H151.181V33.74H138.401ZM32.7274 71.268V67.824C36.4234 66.676 38.8874 62.672 38.8874 57.268V53.684H33.1474V50.492H38.8594V47.468H42.8634V50.492H48.2674V53.684H42.8354V57.268C42.8354 62.112 44.8514 66.172 48.5474 67.74V71.184C45.5794 70.288 42.3314 67.6 40.9314 64.716C39.2234 68.104 36.0874 70.372 32.7274 71.268ZM51.7394 72.752V60.908H46.4474V57.604H51.7394V47.748H55.5474V72.752H51.7394ZM59.0529 61.888V58.892H83.9729V61.888H59.0529ZM60.8729 72.64V63.68H82.1529V72.64H60.8729ZM64.6809 69.616H78.3449V66.704H64.6809V69.616ZM76.2449 57.38H66.7809C62.7489 57.38 60.3129 55.504 60.3129 52.564C60.3129 49.624 62.7489 47.748 66.7809 47.748H76.2449C80.2769 47.748 82.7129 49.624 82.7129 52.564C82.7129 55.504 80.2769 57.38 76.2449 57.38ZM66.9489 54.356H76.0769C77.7849 54.356 78.9049 53.684 78.9049 52.564C78.9049 51.444 77.7849 50.772 76.0769 50.772H66.9489C65.2409 50.772 64.1209 51.444 64.1209 52.564C64.1209 53.684 65.2409 54.356 66.9489 54.356ZM85.6584 71.52V68.3H110.578V71.52H85.6584ZM100.414 63.792H95.8224C90.4464 63.792 87.1984 60.74 87.1984 55.98C87.1984 51.22 90.4464 48.168 95.8224 48.168H100.414C105.762 48.168 109.038 51.22 109.038 55.98C109.038 60.74 105.762 63.792 100.414 63.792ZM95.6824 60.6H100.554C103.41 60.6 105.23 58.696 105.23 55.98C105.23 53.264 103.41 51.36 100.554 51.36H95.6824C92.8264 51.36 91.0064 53.264 91.0064 55.98C91.0064 58.696 92.8264 60.6 95.6824 60.6ZM112.264 72.08V68.86H123.016V64.828H114.364V54.832H131.276V51.472H114.364V48.28H135.084V57.968H118.172V61.636H135.644V64.828H126.992V68.86H137.184V72.08H112.264ZM146.143 63.596V60.6H171.063V63.596H146.143ZM147.963 72.64V65.36H151.771V69.504H169.523V72.64H147.963ZM147.291 58.92V55.728C149.951 55.224 151.491 53.068 151.491 50.24V47.804H155.411V50.24C155.411 53.068 156.755 55.112 158.603 55.728V58.92C156.419 58.416 154.459 57.016 153.339 55.308C152.107 57.24 149.727 58.668 147.291 58.92ZM158.603 58.92V55.728C160.423 55.112 161.795 53.068 161.795 50.24V47.804H165.715V50.24C165.715 53.068 167.255 55.224 169.915 55.728V58.92C167.479 58.668 165.099 57.24 163.867 55.308C162.747 57.016 160.731 58.416 158.603 58.92ZM179.63 62.56V59.536H182.29V51.052H179.91V48.028H196.738V51.052H194.33V59.536H197.018V62.56H179.63ZM199.314 66.06V58.948H195.702V55.868H199.314V54.44H195.702V51.36H199.314V47.748H203.122V66.06H199.314ZM182.402 72.64V64.24H186.21V69.504H203.682V72.64H182.402ZM186.098 59.536H190.522V51.052H186.098V59.536ZM207.047 71.268V67.824C210.743 66.676 213.123 62.672 213.123 57.268V51.64H207.327V48.448H222.559V51.64H217.071V57.268C217.071 62.112 219.143 66.172 222.839 67.74V71.184C219.871 70.288 216.567 67.6 215.167 64.716C213.459 68.104 210.407 70.372 207.047 71.268ZM225.919 72.752V47.748H229.727V72.752H225.919Z" fill="white"/>
</g>
<defs>
<filter id="filter0_d_109_7137" x="0" y="0" width="261.843" height="116.751" filterUnits="userSpaceOnUse" color-interpolation-filters="sRGB">
<feFlood flood-opacity="0" result="BackgroundImageFix"/>
<feColorMatrix in="SourceAlpha" type="matrix" values="0 0 0 0 0 0 0 0 0 0 0 0 0 0 0 0 0 0 127 0" result="hardAlpha"/>
<feOffset dy="4"/>
<feGaussianBlur stdDeviation="2"/>
<feComposite in2="hardAlpha" operator="out"/>
<feColorMatrix type="matrix" values="0 0 0 0 0 0 0 0 0 0 0 0 0 0 0 0 0 0 0.25 0"/>
<feBlend mode="normal" in2="BackgroundImageFix" result="effect1_dropShadow_109_7137"/>
<feBlend mode="normal" in="SourceGraphic" in2="effect1_dropShadow_109_7137" result="shape"/>
</filter>
</defs>
</svg>
