<svg width="264" height="108" viewBox="0 0 264 108" fill="none" xmlns="http://www.w3.org/2000/svg">
<g filter="url(#filter0_d_22_2115)">
<path fill-rule="evenodd" clip-rule="evenodd" d="M215 0H49C24.15 0 4 20.15 4 45C4 69.85 24.15 90 49 90H122L132 100L142 90H215C239.85 90 260 69.85 260 45C260 20.15 239.85 0 215 0Z" fill="#B471DC"/>
</g>
<path d="M107.983 35.62V33.24C109.663 32.58 111.023 29.98 111.023 26.52V21.6H108.183V19.32H116.463V21.6H113.763V26.52C113.763 29.98 114.843 32.08 116.783 33.06V35.44C114.983 34.84 113.263 33.48 112.423 31.64C111.503 33.5 109.843 35 107.983 35.62ZM118.063 36.28V27.54H115.283V25.1H118.063V18.92H120.623V36.28H118.063ZM122.123 36.68V18.82H124.683V36.68H122.123ZM127.187 31.34V30.7H129.907V31.34C129.907 32.46 130.567 33.42 132.387 33.42C134.207 33.42 134.867 32.46 134.867 31.34V30.16C134.867 29 133.727 28.26 132.387 28.26H131.047V26.06H132.387C133.727 26.06 134.667 25.32 134.667 24.16V23.38C134.667 22.26 133.987 21.3 132.387 21.3C130.787 21.3 130.107 22.26 130.107 23.38V24.02H127.387V23.38C127.387 20.68 129.587 19.1 132.387 19.1C135.187 19.1 137.387 20.68 137.387 23.38V24.14C137.387 25.56 136.727 26.64 135.547 27.14C136.727 27.64 137.587 28.72 137.587 30.14V31.34C137.587 34.04 135.407 35.62 132.387 35.62C129.367 35.62 127.187 34.04 127.187 31.34ZM140.089 36.6V31H142.809V34.36H155.489V36.6H140.089ZM152.369 32.3V18.82H155.089V23.7H157.489V26.14H155.089V32.3H152.369ZM139.289 21.22V18.98H149.889V26.72H147.169V21.22H139.289ZM138.789 29.74V27.6H142.069V23.82H144.909V27.6H151.569V29.74H138.789ZM47.4442 60H44.3242C41.1562 60 39.2842 58.392 39.2842 55.992C39.2842 53.64 41.1562 51.96 44.3242 51.96H47.4442C50.6122 51.96 52.4842 53.64 52.4842 55.992C52.4842 58.392 50.6122 60 47.4442 60ZM40.0042 64.128L39.8842 61.44H58.0042V69.216H54.7402V64.128H40.0042ZM54.7402 60.6V47.784H58.0042V53.16H60.8842V56.088H58.0042V60.6H54.7402ZM38.8042 51.216V48.744H44.1562V47.112H47.6122V48.744H52.9642V51.216H38.8042ZM44.6362 57.504H47.1082C48.3082 57.504 49.2202 56.976 49.2202 55.992C49.2202 55.056 48.3082 54.504 47.1082 54.504H44.6362C43.4362 54.504 42.5482 55.056 42.5482 55.992C42.5482 56.976 43.4362 57.504 44.6362 57.504ZM76.8969 69.216H69.1209C65.6649 69.216 63.5289 67.488 63.5289 64.728C63.5289 61.968 65.6649 60.24 69.1209 60.24H76.8969C80.3529 60.24 82.4889 61.968 82.4889 64.728C82.4889 67.488 80.3529 69.216 76.8969 69.216ZM73.4649 59.4V47.904H76.5369V51.96H78.9369V47.784H82.0089V59.64H78.9369V54.888H76.5369V59.4H73.4649ZM61.1289 59.16V56.544C63.5769 55.896 65.3529 53.64 65.3529 50.616V47.904H68.6889V50.616C68.6889 53.64 70.3449 55.608 72.6729 56.304V58.92C70.4169 58.488 68.3529 57.216 67.0569 55.464C65.7129 57.336 63.5769 58.704 61.1289 59.16ZM69.3369 66.624H76.6809C78.2409 66.624 79.2249 65.88 79.2249 64.728C79.2249 63.576 78.2409 62.832 76.6809 62.832H69.3369C67.7769 62.832 66.7929 63.576 66.7929 64.728C66.7929 65.88 67.7769 66.624 69.3369 66.624ZM86.6936 66.432C86.6936 65.184 87.6056 64.272 88.8536 64.272C90.1016 64.272 91.0136 65.184 91.0136 66.432C91.0136 67.68 90.1016 68.592 88.8536 68.592C87.6056 68.592 86.6936 67.68 86.6936 66.432ZM87.3416 62.064L87.0056 48.72H90.7016L90.3656 62.064H87.3416ZM107.711 60.96H116.447C119.663 60.96 121.559 62.568 121.559 65.088C121.559 67.608 119.663 69.216 116.447 69.216H107.711C104.495 69.216 102.599 67.608 102.599 65.088C102.599 62.568 104.495 60.96 107.711 60.96ZM112.895 60.12V47.904H115.967V52.608H118.007V47.784H121.079V60.36H118.007V55.536H115.967V60.12H112.895ZM107.183 59.832H105.695C102.719 59.832 100.919 58.2 100.919 55.896C100.919 53.592 102.719 51.96 105.695 51.96H107.183C110.159 51.96 111.959 53.592 111.959 55.896C111.959 58.2 110.159 59.832 107.183 59.832ZM107.927 66.624H116.231C117.479 66.624 118.295 65.952 118.295 65.088C118.295 64.224 117.479 63.552 116.231 63.552H107.927C106.679 63.552 105.863 64.224 105.863 65.088C105.863 65.952 106.679 66.624 107.927 66.624ZM100.799 51.216V48.744H104.711V47.112H108.167V48.744H112.079V51.216H100.799ZM105.959 57.24H106.919C108.119 57.24 108.887 56.664 108.887 55.896C108.887 55.128 108.119 54.552 106.919 54.552H105.959C104.759 54.552 103.991 55.128 103.991 55.896C103.991 56.664 104.759 57.24 105.959 57.24ZM123.604 61.008V58.44H132.58V56.904H125.164V47.832H128.428V49.8H140.14V47.832H143.404V56.904H135.988V58.44H144.964V61.008H123.604ZM124.924 64.848V62.16H143.404V69.216H140.14V64.848H124.924ZM128.428 54.36H140.14V52.344H128.428V54.36ZM154.665 60.96H152.073C149.001 60.96 146.769 59.496 146.769 56.52C146.769 53.544 149.001 52.08 152.073 52.08H154.665C157.737 52.08 159.969 53.544 159.969 56.52C159.969 59.496 157.737 60.96 154.665 60.96ZM147.729 69.12V62.16H150.993V66.432H165.969V69.12H147.729ZM162.225 63.48V47.784H165.489V53.64H168.369V56.568H165.489V63.48H162.225ZM146.289 51.336V48.864H151.641V47.112H155.097V48.864H160.449V51.336H146.289ZM152.529 58.368H154.209C155.793 58.368 156.705 57.696 156.705 56.52C156.705 55.344 155.793 54.672 154.209 54.672H152.529C150.993 54.672 150.033 55.344 150.033 56.52C150.033 57.696 150.993 58.368 152.529 58.368ZM191.984 69.216V47.784H195.248V69.216H191.984ZM176.288 61.992V53.976C176.288 50.136 178.832 47.904 182.696 47.904C186.56 47.904 189.104 50.136 189.104 53.976V61.992C189.104 65.832 186.56 68.064 182.696 68.064C178.832 68.064 176.288 65.832 176.288 61.992ZM185.84 62.088V53.88C185.84 51.912 184.616 50.616 182.696 50.616C180.776 50.616 179.552 51.912 179.552 53.88V62.088C179.552 64.056 180.776 65.352 182.696 65.352C184.616 65.352 185.84 64.056 185.84 62.088ZM199.812 69.12V62.16H218.052V69.12H199.812ZM203.076 66.528H214.788V64.752H203.076V66.528ZM198.252 61.008V58.536H219.612V61.008H198.252ZM199.812 57.384V51.384H214.74V50.352H199.812V47.88H218.052V53.76H203.124V54.912H218.532V57.384H199.812Z" fill="white"/>
<defs>
<filter id="filter0_d_22_2115" x="0" y="0" width="264" height="108" filterUnits="userSpaceOnUse" color-interpolation-filters="sRGB">
<feFlood flood-opacity="0" result="BackgroundImageFix"/>
<feColorMatrix in="SourceAlpha" type="matrix" values="0 0 0 0 0 0 0 0 0 0 0 0 0 0 0 0 0 0 127 0" result="hardAlpha"/>
<feOffset dy="4"/>
<feGaussianBlur stdDeviation="2"/>
<feComposite in2="hardAlpha" operator="out"/>
<feColorMatrix type="matrix" values="0 0 0 0 0 0 0 0 0 0 0 0 0 0 0 0 0 0 0.25 0"/>
<feBlend mode="normal" in2="BackgroundImageFix" result="effect1_dropShadow_22_2115"/>
<feBlend mode="normal" in="SourceGraphic" in2="effect1_dropShadow_22_2115" result="shape"/>
</filter>
</defs>
</svg>
