<svg width="264" height="108" viewBox="0 0 264 108" fill="none" xmlns="http://www.w3.org/2000/svg">
<g filter="url(#filter0_d_22_2131)">
<path fill-rule="evenodd" clip-rule="evenodd" d="M215 0H49C24.15 0 4 20.15 4 45C4 69.85 24.15 90 49 90H122L132 100L142 90H215C239.85 90 260 69.85 260 45C260 20.15 239.85 0 215 0Z" fill="white"/>
</g>
<path d="M100.101 46.064V43.448C104.325 42.824 107.901 40.28 107.901 36.728V36.68H100.461V33.944H107.829V31.424H111.333V33.944H118.701V36.68H111.261V36.728C111.261 40.28 114.837 42.824 119.061 43.448V46.064C115.389 45.632 111.741 44.024 109.581 41.432C107.397 44.024 103.773 45.632 100.101 46.064ZM98.9008 52.52V49.76H107.877V45.464H111.285V49.76H120.261V52.52H98.9008ZM133.441 52.736V31.904H136.513V39.752H138.913V31.784H141.985V53.216H138.913V42.68H136.513V52.736H133.441ZM122.665 51.584V32.384H131.665V35.12H125.833V48.848H132.241V51.584H122.665ZM146.07 53.12V46.712H160.998V45.272H146.07V42.8H164.31V49.088H149.382V50.648H164.79V53.12H146.07ZM144.51 41.264V38.696H161.046V34.568H145.83V31.88H164.31V38.696H165.87V41.264H144.51Z" fill="#4D4D4D"/>
<defs>
<filter id="filter0_d_22_2131" x="0" y="0" width="264" height="108" filterUnits="userSpaceOnUse" color-interpolation-filters="sRGB">
<feFlood flood-opacity="0" result="BackgroundImageFix"/>
<feColorMatrix in="SourceAlpha" type="matrix" values="0 0 0 0 0 0 0 0 0 0 0 0 0 0 0 0 0 0 127 0" result="hardAlpha"/>
<feOffset dy="4"/>
<feGaussianBlur stdDeviation="2"/>
<feComposite in2="hardAlpha" operator="out"/>
<feColorMatrix type="matrix" values="0 0 0 0 0 0 0 0 0 0 0 0 0 0 0 0 0 0 0.25 0"/>
<feBlend mode="normal" in2="BackgroundImageFix" result="effect1_dropShadow_22_2131"/>
<feBlend mode="normal" in="SourceGraphic" in2="effect1_dropShadow_22_2131" result="shape"/>
</filter>
</defs>
</svg>
