<svg width="262" height="117" viewBox="0 0 262 117" fill="none" xmlns="http://www.w3.org/2000/svg">
<g filter="url(#filter0_d_109_7547)">
<path d="M209.442 0L52.4013 0C25.67 0 4 21.6673 4 48.3952C4 75.1231 25.67 96.7904 52.4013 96.7904L209.442 96.7904C236.173 96.7904 257.843 75.1231 257.843 48.3952C257.843 21.6673 236.173 0 209.442 0Z" fill="white"/>
<path d="M142.888 96.794L130.931 84.8369L118.974 96.794L130.931 108.751L142.888 96.794Z" fill="white"/>
<path d="M109.312 60.752H100.352C96.4038 60.752 93.9118 58.792 93.9118 55.656C93.9118 52.52 96.4038 50.56 100.352 50.56H109.312C113.26 50.56 115.752 52.52 115.752 55.656C115.752 58.792 113.26 60.752 109.312 60.752ZM93.3518 48.908V35.972H97.1598V39.36H104.664V35.972H108.472V48.908H93.3518ZM111.384 49.944V35.748H115.192V40.62H118.552V44.036H115.192V49.944H111.384ZM100.576 57.728H109.088C110.796 57.728 111.944 56.944 111.944 55.656C111.944 54.368 110.796 53.584 109.088 53.584H100.576C98.8678 53.584 97.7198 54.368 97.7198 55.656C97.7198 56.944 98.8678 57.728 100.576 57.728ZM97.1598 45.884H104.664V42.384H97.1598V45.884ZM120.237 48.348V36.028H135.357V37.988H138.829V35.748H142.637V49.692H138.829V46.388H135.357V48.348H120.237ZM136.673 60.752H127.881C123.849 60.752 121.357 58.736 121.357 55.516C121.357 52.296 123.849 50.28 127.881 50.28H136.673C140.705 50.28 143.197 52.296 143.197 55.516C143.197 58.736 140.705 60.752 136.673 60.752ZM128.133 57.728H136.421C138.241 57.728 139.389 56.86 139.389 55.516C139.389 54.172 138.241 53.304 136.421 53.304H128.133C126.313 53.304 125.165 54.172 125.165 55.516C125.165 56.86 126.313 57.728 128.133 57.728ZM124.045 45.324H131.549V39.052H124.045V45.324ZM135.357 43.308H138.829V41.068H135.357V43.308ZM146.143 51.876V48.88H156.895V47.228H147.963V40.088H165.379V38.744H147.963V35.86H169.243V42.86H151.827V44.344H169.803V47.228H160.871V48.88H171.063V51.876H146.143ZM147.683 56.216V53.08H169.243V60.752H165.435V56.216H147.683Z" fill="#333333"/>
</g>
<defs>
<filter id="filter0_d_109_7547" x="0" y="0" width="261.843" height="116.751" filterUnits="userSpaceOnUse" color-interpolation-filters="sRGB">
<feFlood flood-opacity="0" result="BackgroundImageFix"/>
<feColorMatrix in="SourceAlpha" type="matrix" values="0 0 0 0 0 0 0 0 0 0 0 0 0 0 0 0 0 0 127 0" result="hardAlpha"/>
<feOffset dy="4"/>
<feGaussianBlur stdDeviation="2"/>
<feComposite in2="hardAlpha" operator="out"/>
<feColorMatrix type="matrix" values="0 0 0 0 0 0 0 0 0 0 0 0 0 0 0 0 0 0 0.25 0"/>
<feBlend mode="normal" in2="BackgroundImageFix" result="effect1_dropShadow_109_7547"/>
<feBlend mode="normal" in="SourceGraphic" in2="effect1_dropShadow_109_7547" result="shape"/>
</filter>
</defs>
</svg>
