<svg width="220" height="101" viewBox="0 0 220 101" fill="none" xmlns="http://www.w3.org/2000/svg">
<g filter="url(#filter0_d_38_86352)">
<path d="M170.665 3H42.5045C20.6893 3 3.00452 20.6825 3.00452 42.495C3.00452 64.3075 20.6893 81.99 42.5045 81.99H170.665C192.48 81.99 210.165 64.3075 210.165 42.495C210.165 20.6825 192.48 3 170.665 3Z" fill="white"/>
<path d="M116.35 81.9929L106.592 72.2349L96.8341 81.9929L106.592 91.751L116.35 81.9929Z" fill="white"/>
<path d="M11 34.5598H13.9578V49.9226H19.6028V52.4745H11V34.5598ZM20.7178 34.112H23.5822V41.3665H26.0455V34H28.91V54H26.0455V44.1003H23.5822V53.5521H20.7178V34.112Z" fill="#00CEA6"/>
<path d="M37.7599 39.463C37.7599 36.0574 39.6167 34.112 42.3505 34.112C45.0844 34.112 46.9411 36.062 46.9411 39.463V47.5713C46.9411 50.9769 45.0844 52.9223 42.3505 52.9223C39.6167 52.9223 37.7599 50.9722 37.7599 47.5713V39.463ZM44.0767 39.4164C44.0767 37.7136 43.4282 36.6639 42.3505 36.6639C41.2728 36.6639 40.6244 37.7182 40.6244 39.4164V47.6132C40.6244 49.3161 41.2728 50.3658 42.3505 50.3658C43.4282 50.3658 44.0767 49.3114 44.0767 47.6132V39.421V39.4164ZM48.3081 34.112H51.1725V37.8302H53.1413V34H56.0057V54H53.1413V47.6412H51.1725V53.5521H48.3081V34.112ZM53.1459 44.996V40.4707H51.1772V44.996H53.1459Z" fill="#00CEA6"/>
<path d="M58.8099 49.722C63.6897 48.6489 67.3426 43.4985 67.3426 37.1584H58.9218V34.5598H70.4311V36.6219C70.4311 44.7534 65.5512 51.3595 58.8099 52.4791V49.722ZM73.79 34H76.8365V54H73.79V34Z" fill="#00CEA6"/>
<path d="M85.4575 43.0459H93.8317V40.9419H97.0134V43.0459H105.388V45.4439H85.4575V43.0459ZM86.5772 39.6636C90.1601 39.4164 93.0946 38.1194 93.6544 36.4586H86.9131V34.0886H103.932V36.4632H97.1907C97.7272 38.1194 100.685 39.421 104.268 39.6683V41.9309C100.596 41.6837 97.3493 40.676 95.4225 38.9312C93.4958 40.676 90.2487 41.6837 86.5772 41.9309V39.6683V39.6636ZM86.9131 46.7408H103.932V53.9067H86.9131V46.7408ZM100.886 51.4901V49.1621H89.9548V51.4901H100.886Z" fill="#00CEA6"/>
<path d="M112.553 41.8376H132.483V44.2356H112.553V41.8376ZM114.009 34.0886H131.14V36.5052H117.055V38.2967H131.476V40.7133H114.009V34.0886ZM114.009 48.509H127.939V47.6599H114.009V45.3972H131.028V50.683H117.097V51.644H131.476V53.9067H114.009V48.509Z" fill="#00CEA6"/>
<path d="M134.611 39.7336C134.611 36.1507 136.986 34.112 140.545 34.112C144.105 34.112 146.479 36.1507 146.479 39.7336V41.9263H149.255V34H152.302V54H149.255V44.6601H146.479V47.3007C146.479 50.8836 144.105 52.9223 140.545 52.9223C136.986 52.9223 134.611 50.8836 134.611 47.3007V39.7336ZM143.433 39.6683C143.433 37.8302 142.337 36.6685 140.545 36.6685C138.754 36.6685 137.657 37.8348 137.657 39.6683V47.3707C137.657 49.2088 138.754 50.3704 140.545 50.3704C142.337 50.3704 143.433 49.2041 143.433 47.3707V39.6683Z" fill="#00CEA6"/>
<path d="M154.653 50.2118H159.892V46.9881H155.437V34.4712H158.483V38.1428H164.483V34.4712H167.529V46.9881H163.074V50.2118H168.961V52.787H154.653V50.2118ZM164.483 44.4362V40.6947H158.483V44.4362H164.483ZM169.857 34H172.903V41.2312H175.591V43.965H172.903V54H169.857V34Z" fill="#00CEA6"/>
<path d="M180.494 48.6023H176.375V46.0271H196.305V48.6023H192.185V54H189.004V48.6023H183.671V54H180.489V48.6023H180.494ZM183.471 44.2823C179.799 44.2823 177.602 42.3322 177.602 39.3091C177.602 36.286 179.794 34.3359 183.471 34.3359H189.181C192.852 34.3359 195.068 36.286 195.068 39.3091C195.068 42.3322 192.852 44.2823 189.181 44.2823H183.471ZM189.316 41.7304C190.949 41.7304 192.027 40.7227 192.027 39.3138C192.027 37.9049 190.954 36.8972 189.316 36.8972H183.359C181.726 36.8972 180.648 37.9049 180.648 39.3138C180.648 40.7227 181.721 41.7304 183.359 41.7304H189.316Z" fill="#00CEA6"/>
</g>
<defs>
<filter id="filter0_d_38_86352" x="0.0045166" y="0" width="219.16" height="100.751" filterUnits="userSpaceOnUse" color-interpolation-filters="sRGB">
<feFlood flood-opacity="0" result="BackgroundImageFix"/>
<feColorMatrix in="SourceAlpha" type="matrix" values="0 0 0 0 0 0 0 0 0 0 0 0 0 0 0 0 0 0 127 0" result="hardAlpha"/>
<feOffset dx="3" dy="3"/>
<feGaussianBlur stdDeviation="3"/>
<feColorMatrix type="matrix" values="0 0 0 0 0 0 0 0 0 0 0 0 0 0 0 0 0 0 0.4 0"/>
<feBlend mode="normal" in2="BackgroundImageFix" result="effect1_dropShadow_38_86352"/>
<feBlend mode="normal" in="SourceGraphic" in2="effect1_dropShadow_38_86352" result="shape"/>
</filter>
</defs>
</svg>
