<svg width="264" height="108" viewBox="0 0 264 108" fill="none" xmlns="http://www.w3.org/2000/svg">
<g filter="url(#filter0_d_22_2111)">
<path fill-rule="evenodd" clip-rule="evenodd" d="M215 0H49C24.15 0 4 20.15 4 45C4 69.85 24.15 90 49 90H122L132 100L142 90H215C239.85 90 260 69.85 260 45C260 20.15 239.85 0 215 0Z" fill="#E87A91"/>
</g>
<path d="M109.682 35.62V33.24C111.362 32.58 112.722 29.98 112.722 26.52V21.6H109.882V19.32H118.162V21.6H115.462V26.52C115.462 29.98 116.542 32.08 118.482 33.06V35.44C116.682 34.84 114.962 33.48 114.122 31.64C113.202 33.5 111.542 35 109.682 35.62ZM119.762 36.28V27.54H116.982V25.1H119.762V18.92H122.322V36.28H119.762ZM123.822 36.68V18.82H126.382V36.68H123.822ZM131.286 35.12V22H128.886V19.6H134.006V35.12H131.286ZM138.39 36.6V31H141.11V34.36H153.79V36.6H138.39ZM150.67 32.3V18.82H153.39V23.7H155.79V26.14H153.39V32.3H150.67ZM137.59 21.22V18.98H148.19V26.72H145.47V21.22H137.59ZM137.09 29.74V27.6H140.37V23.82H143.21V27.6H149.87V29.74H137.09ZM51.0142 67.704V48.336H54.0862V55.2H57.5422V48.336H60.6142V67.704H51.0142ZM62.3902 68.736V47.904H65.4622V55.68H67.3822V47.784H70.4542V69.216H67.3822V58.608H65.4622V68.736H62.3902ZM54.0862 64.968H57.5422V57.936H54.0862V64.968ZM74.5389 69.12V61.44H81.9549V59.784H72.9789V57.216H94.3389V59.784H85.3629V61.44H92.7789V69.12H74.5389ZM87.7149 56.04H79.6029C76.1469 56.04 74.0589 54.432 74.0589 51.912C74.0589 49.392 76.1469 47.784 79.6029 47.784H87.7149C91.1709 47.784 93.2589 49.392 93.2589 51.912C93.2589 54.432 91.1709 56.04 87.7149 56.04ZM79.7469 53.448H87.5709C89.0349 53.448 89.9949 52.872 89.9949 51.912C89.9949 50.952 89.0349 50.376 87.5709 50.376H79.7469C78.2829 50.376 77.3229 50.952 77.3229 51.912C77.3229 52.872 78.2829 53.448 79.7469 53.448ZM77.8029 66.528H89.5149V64.032H77.8029V66.528ZM95.7836 61.584V59.016H117.144V61.584H95.7836ZM97.3436 69.12V62.88H100.608V66.432H115.824V69.12H97.3436ZM110.184 57.24H102.744C99.0716 57.24 96.8636 55.344 96.8636 52.512C96.8636 49.68 99.0716 47.784 102.744 47.784H110.184C113.856 47.784 116.064 49.68 116.064 52.512C116.064 55.344 113.856 57.24 110.184 57.24ZM102.84 54.648H110.088C111.744 54.648 112.8 53.76 112.8 52.512C112.8 51.264 111.744 50.376 110.088 50.376H102.84C101.184 50.376 100.128 51.264 100.128 52.512C100.128 53.76 101.184 54.648 102.84 54.648ZM126.863 69.12V62.832H141.311V61.512H126.863V59.04H144.623V65.208H130.175V66.648H145.103V69.12H126.863ZM132.383 57.864V48.024H139.319V50.616H135.647V55.272H139.919V57.864H132.383ZM125.183 57.864V48.024H131.663V50.616H128.447V55.272H131.783V57.864H125.183ZM141.359 58.2V54.24H137.663V51.552H141.359V47.784H144.623V58.2H141.359ZM164.163 60.12V47.784H167.427V60.12H164.163ZM149.667 69.12V60.96H167.427V69.12H149.667ZM152.931 66.528H164.163V63.552H152.931V66.528ZM148.107 59.4V52.368H157.539V50.568H148.107V48.024H160.803V54.84H151.371V56.856H162.723V59.4H148.107ZM186.968 69.216V47.784H190.232V69.216H186.968ZM171.272 61.992V53.976C171.272 50.136 173.816 47.904 177.68 47.904C181.544 47.904 184.088 50.136 184.088 53.976V61.992C184.088 65.832 181.544 68.064 177.68 68.064C173.816 68.064 171.272 65.832 171.272 61.992ZM180.824 62.088V53.88C180.824 51.912 179.6 50.616 177.68 50.616C175.76 50.616 174.536 51.912 174.536 53.88V62.088C174.536 64.056 175.76 65.352 177.68 65.352C179.6 65.352 180.824 64.056 180.824 62.088ZM193.597 67.944V64.992C196.765 64.008 198.805 60.576 198.805 55.944V51.12H193.837V48.384H206.893V51.12H202.189V55.944C202.189 60.096 203.965 63.576 207.133 64.92V67.872C204.589 67.104 201.757 64.8 200.557 62.328C199.093 65.232 196.477 67.176 193.597 67.944ZM209.773 69.216V47.784H213.037V69.216H209.773Z" fill="white"/>
<defs>
<filter id="filter0_d_22_2111" x="0" y="0" width="264" height="108" filterUnits="userSpaceOnUse" color-interpolation-filters="sRGB">
<feFlood flood-opacity="0" result="BackgroundImageFix"/>
<feColorMatrix in="SourceAlpha" type="matrix" values="0 0 0 0 0 0 0 0 0 0 0 0 0 0 0 0 0 0 127 0" result="hardAlpha"/>
<feOffset dy="4"/>
<feGaussianBlur stdDeviation="2"/>
<feComposite in2="hardAlpha" operator="out"/>
<feColorMatrix type="matrix" values="0 0 0 0 0 0 0 0 0 0 0 0 0 0 0 0 0 0 0.25 0"/>
<feBlend mode="normal" in2="BackgroundImageFix" result="effect1_dropShadow_22_2111"/>
<feBlend mode="normal" in="SourceGraphic" in2="effect1_dropShadow_22_2111" result="shape"/>
</filter>
</defs>
</svg>
