<svg width="264" height="108" viewBox="0 0 264 108" fill="none" xmlns="http://www.w3.org/2000/svg">
<g filter="url(#filter0_d_22_2119)">
<path fill-rule="evenodd" clip-rule="evenodd" d="M215 0H49C24.15 0 4 20.15 4 45C4 69.85 24.15 90 49 90H122L132 100L142 90H215C239.85 90 260 69.85 260 45C260 20.15 239.85 0 215 0Z" fill="#5ACCDA"/>
</g>
<path d="M107.983 35.62V33.24C109.663 32.58 111.023 29.98 111.023 26.52V21.6H108.183V19.32H116.463V21.6H113.763V26.52C113.763 29.98 114.843 32.08 116.783 33.06V35.44C114.983 34.84 113.263 33.48 112.423 31.64C111.503 33.5 109.843 35 107.983 35.62ZM118.063 36.28V27.54H115.283V25.1H118.063V18.92H120.623V36.28H118.063ZM122.123 36.68V18.82H124.683V36.68H122.123ZM127.387 35.12V31.84C127.387 29.62 129.407 28.12 131.507 27.06C133.427 26.1 134.667 24.94 134.667 23.92V23.38C134.667 22.26 133.967 21.3 132.387 21.3C130.807 21.3 130.107 22.26 130.107 23.38V24.22H127.387V23.38C127.387 20.68 129.587 19.1 132.387 19.1C135.187 19.1 137.387 20.68 137.387 23.38V23.92C137.387 25.8 135.847 27.46 133.067 28.98C130.907 30.18 130.107 30.9 130.107 31.84V32.92H137.387V35.12H127.387ZM140.089 36.6V31H142.809V34.36H155.489V36.6H140.089ZM152.369 32.3V18.82H155.089V23.7H157.489V26.14H155.089V32.3H152.369ZM139.289 21.22V18.98H149.889V26.72H147.169V21.22H139.289ZM138.789 29.74V27.6H142.069V23.82H144.909V27.6H151.569V29.74H138.789ZM35.6547 68.4V65.64H40.0467V60.528C38.0787 59.4 36.9747 57.408 36.9747 54.84C36.9747 50.76 39.7587 48.144 44.3667 48.144H48.3027C52.8867 48.144 55.6947 50.76 55.6947 54.84C55.6947 57.36 54.6147 59.328 52.7187 60.456V65.64H57.0147V68.4H35.6547ZM44.2467 58.8H48.4227C50.8707 58.8 52.4307 57.168 52.4307 54.84C52.4307 52.512 50.8707 50.88 48.4227 50.88H44.2467C41.7987 50.88 40.2387 52.512 40.2387 54.84C40.2387 57.168 41.7987 58.8 44.2467 58.8ZM43.4547 65.64H49.3107V61.488C48.9747 61.512 48.6387 61.536 48.3027 61.536H44.3667C44.0547 61.536 43.7427 61.536 43.4547 61.512V65.64ZM58.4594 68.64V65.88H67.6754V62.424H60.2594V53.856H74.7554V50.976H60.2594V48.24H78.0194V56.544H63.5234V59.688H78.4994V62.424H71.0834V65.88H79.8194V68.64H58.4594ZM82.8241 58.488V55.8H97.5601V51.096H82.8241V48.36H100.824V63.624H97.5601V58.488H82.8241ZM81.2641 68.28V65.52H88.6801V60.264H92.0881V65.52H102.624V68.28H81.2641ZM104.069 61.2V58.728H113.285V57.384H105.629V51.384H120.557V50.352H105.629V47.88H123.869V53.76H108.941V54.912H124.349V57.384H116.693V58.728H125.429V61.2H104.069ZM105.629 69.12V62.16H123.869V69.12H105.629ZM108.893 66.528H120.605V64.752H108.893V66.528ZM138.796 63.384H148.78C151.516 63.384 153.028 64.44 153.028 66.432C153.028 68.424 151.516 69.48 148.78 69.48H138.796C136.06 69.48 134.548 68.424 134.548 66.432C134.548 64.44 136.06 63.384 138.796 63.384ZM134.308 55.32V52.896C138.076 52.68 141.148 51.816 141.844 50.424H134.668V47.88H152.908V50.424H145.708C146.38 51.816 149.5 52.68 153.268 52.896V55.32C149.332 55.104 145.852 54.408 143.788 52.776C141.724 54.408 138.244 55.104 134.308 55.32ZM133.108 58.728V56.208H142.084V54.264H145.492V56.208H154.468V58.728H133.108ZM134.308 62.712V60.336H142.084V59.184H145.492V60.336H153.268V62.712H134.308ZM138.964 67.056H148.612C149.356 67.056 149.764 66.84 149.764 66.432C149.764 66.024 149.356 65.808 148.612 65.808H138.964C138.22 65.808 137.812 66.024 137.812 66.432C137.812 66.84 138.22 67.056 138.964 67.056ZM155.913 61.584V59.016H177.273V61.584H155.913ZM157.473 69.12V62.88H160.737V66.432H175.953V69.12H157.473ZM170.313 57.24H162.873C159.201 57.24 156.993 55.344 156.993 52.512C156.993 49.68 159.201 47.784 162.873 47.784H170.313C173.985 47.784 176.193 49.68 176.193 52.512C176.193 55.344 173.985 57.24 170.313 57.24ZM162.969 54.648H170.217C171.873 54.648 172.929 53.76 172.929 52.512C172.929 51.264 171.873 50.376 170.217 50.376H162.969C161.313 50.376 160.257 51.264 160.257 52.512C160.257 53.76 161.313 54.648 162.969 54.648ZM183.992 67.824V64.968C186.464 63.96 188.336 61.032 188.336 56.64V48.144H191.672V56.64C191.672 60.84 193.4 63.528 195.776 64.704V67.56C193.472 66.888 191.216 64.944 190.04 62.76C188.96 65.064 186.608 67.176 183.992 67.824ZM197.168 68.736V57.576H193.712V54.648H197.168V47.904H200.24V68.736H197.168ZM202.16 69.216V47.784H205.232V69.216H202.16ZM221.724 69.216H214.188C210.732 69.216 208.596 67.488 208.596 64.728C208.596 61.968 210.732 60.24 214.188 60.24H221.724C225.18 60.24 227.316 61.968 227.316 64.728C227.316 67.488 225.18 69.216 221.724 69.216ZM207.156 59.064V56.448C210.372 55.968 212.796 53.208 212.796 50.04V47.904H216.18V50.04C216.18 53.136 218.388 55.632 221.58 56.256V58.872C218.748 58.392 216.036 56.784 214.476 54.792C212.892 57.072 210.252 58.56 207.156 59.064ZM223.572 59.736V47.784H226.836V51.96H229.716V54.888H226.836V59.736H223.572ZM214.404 66.624H221.508C223.068 66.624 224.052 65.88 224.052 64.728C224.052 63.576 223.068 62.832 221.508 62.832H214.404C212.844 62.832 211.86 63.576 211.86 64.728C211.86 65.88 212.844 66.624 214.404 66.624Z" fill="white"/>
<defs>
<filter id="filter0_d_22_2119" x="0" y="0" width="264" height="108" filterUnits="userSpaceOnUse" color-interpolation-filters="sRGB">
<feFlood flood-opacity="0" result="BackgroundImageFix"/>
<feColorMatrix in="SourceAlpha" type="matrix" values="0 0 0 0 0 0 0 0 0 0 0 0 0 0 0 0 0 0 127 0" result="hardAlpha"/>
<feOffset dy="4"/>
<feGaussianBlur stdDeviation="2"/>
<feComposite in2="hardAlpha" operator="out"/>
<feColorMatrix type="matrix" values="0 0 0 0 0 0 0 0 0 0 0 0 0 0 0 0 0 0 0.25 0"/>
<feBlend mode="normal" in2="BackgroundImageFix" result="effect1_dropShadow_22_2119"/>
<feBlend mode="normal" in="SourceGraphic" in2="effect1_dropShadow_22_2119" result="shape"/>
</filter>
</defs>
</svg>
