<svg width="262" height="117" viewBox="0 0 262 117" fill="none" xmlns="http://www.w3.org/2000/svg">
<g filter="url(#filter0_d_109_7943)">
<path fill-rule="evenodd" clip-rule="evenodd" d="M52.4013 0L209.442 0C236.173 0 257.843 21.6673 257.843 48.3952C257.843 75.1231 236.173 96.7904 209.442 96.7904L142.884 96.7904L142.888 96.794L130.931 108.751L118.974 96.794L118.978 96.7904L52.4013 96.7904C25.67 96.7904 4 75.1231 4 48.3952C4 21.6673 25.67 0 52.4013 0Z" fill="white"/>
<path d="M112.224 60.752V35.748H116.032V60.752H112.224ZM93.9118 52.324V42.972C93.9118 38.492 96.8798 35.888 101.388 35.888C105.896 35.888 108.864 38.492 108.864 42.972V52.324C108.864 56.804 105.896 59.408 101.388 59.408C96.8798 59.408 93.9118 56.804 93.9118 52.324ZM105.056 52.436V42.86C105.056 40.564 103.628 39.052 101.388 39.052C99.1478 39.052 97.7198 40.564 97.7198 42.86V52.436C97.7198 54.732 99.1478 56.244 101.388 56.244C103.628 56.244 105.056 54.732 105.056 52.436ZM120.237 50.028V35.972H123.821V39.92H128.133V35.972H131.717V41.32H134.349V35.888H137.933V53.78H134.349V44.736H131.717V50.028H120.237ZM122.197 60.64V52.24H126.005V57.504H143.757V60.64H122.197ZM139.613 54.06V35.748H143.197V54.06H139.613ZM123.821 47.004H128.133V42.944H123.821V47.004ZM146.143 59.8V56.58H171.063V59.8H146.143ZM148.243 52.828V36.28H169.103V39.472H152.051V42.86H168.879V45.996H152.051V49.636H169.523V52.828H148.243Z" fill="#333333"/>
</g>
<defs>
<filter id="filter0_d_109_7943" x="0" y="0" width="261.843" height="116.751" filterUnits="userSpaceOnUse" color-interpolation-filters="sRGB">
<feFlood flood-opacity="0" result="BackgroundImageFix"/>
<feColorMatrix in="SourceAlpha" type="matrix" values="0 0 0 0 0 0 0 0 0 0 0 0 0 0 0 0 0 0 127 0" result="hardAlpha"/>
<feOffset dy="4"/>
<feGaussianBlur stdDeviation="2"/>
<feComposite in2="hardAlpha" operator="out"/>
<feColorMatrix type="matrix" values="0 0 0 0 0 0 0 0 0 0 0 0 0 0 0 0 0 0 0.25 0"/>
<feBlend mode="normal" in2="BackgroundImageFix" result="effect1_dropShadow_109_7943"/>
<feBlend mode="normal" in="SourceGraphic" in2="effect1_dropShadow_109_7943" result="shape"/>
</filter>
</defs>
</svg>
