<svg width="220" height="101" viewBox="0 0 220 101" fill="none" xmlns="http://www.w3.org/2000/svg">
<g filter="url(#filter0_d_38_77820)">
<path d="M170.66 3H42.5C20.6848 3 3 20.6825 3 42.495C3 64.3075 20.6848 81.99 42.5 81.99H170.66C192.475 81.99 210.16 64.3075 210.16 42.495C210.16 20.6825 192.475 3 170.66 3Z" fill="white"/>
<path d="M116.346 81.9929L106.588 72.2349L96.8296 81.9929L106.588 91.751L116.346 81.9929Z" fill="white"/>
<path d="M20 39.7756C20 36.1927 22.3746 34.112 25.9809 34.112C29.5871 34.112 31.9617 36.1927 31.9617 39.7803V47.2587C31.9617 50.8416 29.5871 52.9223 25.9809 52.9223C22.3746 52.9223 20 50.8416 20 47.2587V39.7756ZM28.9153 39.687C28.9153 37.8488 27.7723 36.6405 25.9809 36.6405C24.1894 36.6405 23.0464 37.8488 23.0464 39.687V47.3473C23.0464 49.1854 24.1894 50.3937 25.9809 50.3937C27.7723 50.3937 28.9153 49.1854 28.9153 47.3473V39.687ZM34.6489 34H37.6954V54H34.6489V34Z" fill="#93D600"/>
<path d="M40.7138 50.1465C42.5939 49.4094 44.1194 46.4983 44.1194 42.6214V37.1117H40.9377V34.5598H50.2076V37.1117H47.1845V42.6214C47.1845 46.4936 48.3928 48.8495 50.5668 49.9459V52.6098C48.5514 51.938 46.6247 50.4124 45.687 48.355C44.6559 50.4357 42.7992 52.1152 40.7138 52.8104V50.1465ZM51.9991 43.7644H48.8873V41.0306H51.9991V34.112H54.8635V53.5521H51.9991V43.7644ZM56.5477 34H59.4122V54H56.5477V34Z" fill="#93D600"/>
<path d="M68.1456 34.2239H80.014V36.6452H71.192V41.2125H81.003V43.6291H68.1502V34.2239H68.1456ZM68.8174 45.0613H71.8638V47.0114H82.3466V45.0613H85.393V53.9067H68.822V45.0613H68.8174ZM82.342 51.4901V49.428H71.8591V51.4901H82.342ZM82.342 34H85.3884V37.4476H88.0756V40.1815H85.3884V44.3942H82.342V34Z" fill="#93D600"/>
<path d="M88.8593 42.1969C91.6818 41.749 93.6739 39.7569 93.6739 37.4476V36.6405H88.9713V34.2239H101.288V36.6452H96.8323V37.4523C96.8323 39.715 98.6004 41.4364 101.4 42.0196V44.4595C98.913 44.0117 96.6737 42.8453 95.2414 41.2778C93.7625 43.0693 91.5699 44.1656 88.8593 44.6368V42.1969ZM94.8635 54C91.6398 54 89.6431 52.3858 89.6431 49.8106C89.6431 47.2354 91.6352 45.6212 94.8635 45.6212H101.894C105.118 45.6212 107.115 47.2354 107.115 49.8106C107.115 52.3858 105.122 54 101.894 54H94.8635ZM101.693 51.5787C103.149 51.5787 104.068 50.8836 104.068 49.8106C104.068 48.7376 103.149 48.0425 101.693 48.0425H95.0641C93.6086 48.0425 92.6895 48.7376 92.6895 49.8106C92.6895 50.8836 93.6086 51.5787 95.0641 51.5787H101.693ZM103.616 34H106.662V37.8955H109.349V40.6293H106.662V45.178H103.616V34Z" fill="#93D600"/>
<path d="M115.955 50.7765H124.329V47.2169H117.635V34.4014H120.681V38.2082H131.164V34.4014H134.21V47.2122H127.516V50.7718H135.89V53.347H115.96V50.7718L115.955 50.7765ZM131.164 44.665V40.7695H120.681V44.665H131.164Z" fill="#93D600"/>
<path d="M138.237 34.5598H141.194V49.9226H146.839V52.4745H138.241V34.5598H138.237ZM147.954 34.112H150.819V41.3665H153.282V34H156.146V54H153.282V44.1003H150.819V53.5521H147.954V34.112Z" fill="#93D600"/>
<path d="M158.502 50.6597H162.603V45.8918C160.765 44.8375 159.739 42.9807 159.739 40.5827C159.739 36.7759 162.337 34.3359 166.639 34.3359H170.31C174.588 34.3359 177.21 36.7759 177.21 40.5827C177.21 42.934 176.202 44.7721 174.434 45.8218V50.6597H178.442V53.2349H158.512V50.6597H158.502ZM170.418 44.2776C172.704 44.2776 174.159 42.7567 174.159 40.5827C174.159 38.4087 172.704 36.8878 170.418 36.8878H166.522C164.236 36.8878 162.78 38.4087 162.78 40.5827C162.78 42.7567 164.236 44.2776 166.522 44.2776H170.418ZM171.248 50.6597V46.7875C170.935 46.8109 170.623 46.8342 170.306 46.8342H166.634C166.345 46.8342 166.051 46.8342 165.785 46.8109V50.6644H171.248V50.6597Z" fill="#93D600"/>
<path d="M180.849 44.5015C181.586 42.5095 183.602 41.3012 185.057 41.3012C187.007 41.3012 188.146 43.158 189.671 43.158C190.432 43.158 191.351 42.4628 191.822 41.1892L193.884 42.6214C193.147 44.6135 191.131 45.8265 189.676 45.8265C187.726 45.8265 186.587 43.9697 185.062 43.9697C184.301 43.9697 183.382 44.6648 182.911 45.9385L180.849 44.5062V44.5015Z" fill="#93D600"/>
</g>
<defs>
<filter id="filter0_d_38_77820" x="0" y="0" width="219.16" height="100.751" filterUnits="userSpaceOnUse" color-interpolation-filters="sRGB">
<feFlood flood-opacity="0" result="BackgroundImageFix"/>
<feColorMatrix in="SourceAlpha" type="matrix" values="0 0 0 0 0 0 0 0 0 0 0 0 0 0 0 0 0 0 127 0" result="hardAlpha"/>
<feOffset dx="3" dy="3"/>
<feGaussianBlur stdDeviation="3"/>
<feColorMatrix type="matrix" values="0 0 0 0 0 0 0 0 0 0 0 0 0 0 0 0 0 0 0.4 0"/>
<feBlend mode="normal" in2="BackgroundImageFix" result="effect1_dropShadow_38_77820"/>
<feBlend mode="normal" in="SourceGraphic" in2="effect1_dropShadow_38_77820" result="shape"/>
</filter>
</defs>
</svg>
