<svg width="256" height="256" viewBox="0 0 256 256" fill="none" xmlns="http://www.w3.org/2000/svg">
<path opacity="0.5" fill-rule="evenodd" clip-rule="evenodd" d="M169.12 166.73L103.03 206.16L36.9301 166.73L103.03 127.3L169.12 166.73Z" fill="#838383"/>
<path fill-rule="evenodd" clip-rule="evenodd" d="M168.47 168.23L109.43 202.32L50.39 168.23L109.43 134.14L168.47 168.23Z" fill="#933535"/>
<path fill-rule="evenodd" clip-rule="evenodd" d="M168.47 100.06V168.23L109.43 134.14C101.16 113.67 102.11 90.69 109.43 65.97L168.47 100.06Z" fill="#140033"/>
<path fill-rule="evenodd" clip-rule="evenodd" d="M168.47 100.06V168.23L141.41 183.85C139.39 182.46 137.78 183.58 136.49 186.69L109.43 202.31C104.97 179.42 103.91 156.66 109.43 134.14L168.47 100.05V100.06Z" fill="#6687C7"/>
<path d="M109.17 202.37C104.18 176.79 104.18 154.45 109.17 134.08L109.3 133.91L168.34 99.8201L168.74 100.05V168.22L168.61 168.45L141.55 184.07H141.27C140.55 183.56 139.91 183.41 139.3 183.59C138.37 183.86 137.52 184.94 136.75 186.78L136.64 186.91L109.58 202.53L109.18 202.35L109.17 202.37ZM139.14 183.09C139.86 182.88 140.63 183.03 141.43 183.54L168.21 168.08V100.52L109.67 134.32C104.75 154.49 104.74 176.6 109.63 201.9L136.29 186.51C137.12 184.53 138.06 183.42 139.15 183.09H139.14Z" fill="#140033"/>
<path fill-rule="evenodd" clip-rule="evenodd" d="M109.43 65.97V134.14L50.39 168.23V100.06L109.43 65.97Z" fill="#6687C7"/>
<path fill-rule="evenodd" clip-rule="evenodd" d="M109.43 202.32L82.37 186.7C81.1 184.58 79.55 183.35 77.45 183.86L50.39 168.24V100.07L109.43 134.16V202.33V202.32Z" fill="#140033"/>
<path fill-rule="evenodd" clip-rule="evenodd" d="M109.43 65.97V71.65L60.23 100.06L109.43 128.47C111.83 129.95 111.47 131.91 109.43 134.15L50.39 100.06L109.43 65.97Z" fill="#859BCD"/>
<path fill-rule="evenodd" clip-rule="evenodd" d="M109.43 65.97V71.65L158.63 100.06L109.43 128.46V134.14L168.47 100.06L109.43 65.97Z" fill="#859BCD"/>
<path d="M50.26 100.29V99.83L109.3 65.74H109.57L168.61 99.83V100.29L109.57 134.38H109.3L50.26 100.29ZM109.43 66.28L50.92 100.06L109.43 133.84L167.94 100.06L109.43 66.28ZM60.1 100.29V99.83L109.3 71.42H109.57L158.77 99.83V100.29L109.57 128.7H109.3L60.1 100.29ZM109.43 71.96L60.76 100.06L109.43 128.16L158.1 100.06L109.43 71.96Z" fill="#140033"/>
<path fill-rule="evenodd" clip-rule="evenodd" d="M141.41 183.85L136.49 186.69V118.52L141.41 115.68V183.85Z" fill="white"/>
<path fill-rule="evenodd" clip-rule="evenodd" d="M77.45 183.85L82.37 186.69V118.52L77.45 115.68V183.85Z" fill="white"/>
<path d="M156.14 64.7001C154.29 64.7001 154.29 61.8301 156.14 61.8301C157.99 61.8301 157.99 64.7001 156.14 64.7001Z" fill="#FFDE49"/>
<path d="M180.63 79.83C178.78 79.83 178.78 76.96 180.63 76.96C182.48 76.96 182.48 79.83 180.63 79.83Z" fill="#3355A6"/>
<path d="M113.27 69.83C111.95 69.83 111.95 67.78 113.27 67.78C114.59 67.78 114.59 69.83 113.27 69.83Z" fill="#589FDA"/>
<path d="M91.72 90.84C89.87 90.84 89.87 87.97 91.72 87.97C93.57 87.97 93.57 90.84 91.72 90.84Z" fill="#589FDA"/>
<path d="M87.1399 81.7499C85.2899 81.7499 85.2899 78.8799 87.1399 78.8799C88.9899 78.8799 88.9899 81.7499 87.1399 81.7499Z" fill="#3355A6"/>
<path d="M57.43 67.07C55.58 67.07 55.58 64.2 57.43 64.2C59.28 64.2 59.28 67.07 57.43 67.07Z" fill="#3355A6"/>
<path d="M40.8801 88.9999C39.0301 88.9999 39.0301 86.1299 40.8801 86.1299C42.7301 86.1299 42.7301 88.9999 40.8801 88.9999Z" fill="#589FDA"/>
<path d="M118.56 86.5101C116.71 86.5101 116.71 83.6401 118.56 83.6401C120.41 83.6401 120.41 86.5101 118.56 86.5101Z" fill="#589FDA"/>
<path d="M71.5 59.2299C69.65 59.2299 69.65 56.3599 71.5 56.3599C73.35 56.3599 73.35 59.2299 71.5 59.2299Z" fill="#589FDA"/>
<path d="M72.8899 92.2799C71.0399 92.2799 71.0399 89.4099 72.8899 89.4099C74.7399 89.4099 74.7399 92.2799 72.8899 92.2799Z" fill="#FFDE49"/>
<path d="M130.85 102.59C129 102.59 129 99.72 130.85 99.72C132.7 99.72 132.7 102.59 130.85 102.59Z" fill="#FFDE49"/>
<path d="M165.61 89.5301L166.21 90.1301C166.74 90.6601 166.78 91.6401 166.21 92.1601C165.64 92.6901 164.75 92.7301 164.18 92.1601L163.58 91.5601C163.05 91.0301 163.01 90.0501 163.58 89.5301C164.15 89.0001 165.04 88.9601 165.61 89.5301Z" fill="#FFDE49"/>
<path d="M171.03 63.07V62.47C171.03 61.72 171.69 61 172.47 61.03C173.25 61.06 173.91 61.66 173.91 62.47V63.07C173.91 63.82 173.25 64.54 172.47 64.51C171.69 64.48 171.03 63.88 171.03 63.07Z" fill="#589FDA"/>
<path d="M146.38 57.4901C145.15 57.8001 144.25 58.6101 143.74 59.7701C143.5 60.3201 142.69 60.4501 142.21 60.1701C141.64 59.8401 141.56 59.2001 141.81 58.6401C142.54 56.9901 144.05 55.7801 145.78 55.3401C147.17 54.9901 147.77 57.1401 146.37 57.4901H146.38Z" fill="#589FDA"/>
<path d="M167.45 49.94C165.89 51.39 164.99 53.18 164.68 55.28C164.41 57.1 161.64 56.33 161.91 54.52C162.29 51.98 163.54 49.66 165.42 47.91C166.77 46.65 168.8 48.67 167.45 49.94Z" fill="#3355A6"/>
<path d="M168.3 80.0799C165.97 81.3399 163.27 80.9999 161.27 79.2999C159.86 78.0999 161.9 76.0799 163.3 77.2699C164.29 78.1099 165.73 78.2099 166.86 77.5999C168.49 76.7199 169.94 79.1999 168.31 80.0799H168.3Z" fill="#589FDA"/>
<path d="M145.34 92.09C145.14 89.96 145.54 87.87 146.39 85.91C147.13 84.21 149.65 85.59 148.92 87.27C148.26 88.78 148.06 90.4 148.21 92.03C148.38 93.87 145.51 93.92 145.34 92.09Z" fill="#FFDE49"/>
<path d="M137.12 86.49C134.96 87.38 132.8 88.28 130.63 89.17C128.93 89.87 127.78 87.24 129.49 86.53C131.65 85.64 133.81 84.74 135.98 83.85C137.68 83.15 138.83 85.78 137.12 86.49Z" fill="#3355A6"/>
<path d="M121.94 98.41C121.32 100.83 119.55 102.67 117.23 103.53C116.5 103.8 115.66 103.23 115.46 102.53C115.24 101.73 115.73 101.04 116.46 100.76C117.84 100.25 118.81 99.0399 119.17 97.6399C119.63 95.8499 122.4 96.61 121.94 98.4V98.41Z" fill="#589FDA"/>
<path d="M63.1 80.87C61.74 81.63 60.74 82.81 60.27 84.3C59.72 86.05 56.94 85.31 57.5 83.54C58.19 81.35 59.64 79.52 61.65 78.39C63.26 77.49 64.71 79.96 63.1 80.87Z" fill="#3355A6"/>
<path d="M95.04 69.7499C94.81 67.9299 94.02 66.3499 92.75 65.0199C92.32 64.5599 92.54 63.7399 93 63.3999C93.55 62.9899 94.19 63.1999 94.62 63.6499C96.14 65.2399 97.0699 67.2899 97.3399 69.4699C97.5299 70.9499 95.23 71.2299 95.04 69.7499Z" fill="#3355A6"/>
<path d="M79.59 70.11C77.46 71.23 75.24 71.89 72.86 72.2C71.03 72.43 71.05 69.56 72.86 69.33C74.71 69.09 76.49 68.5 78.14 67.63C79.77 66.77 81.23 69.25 79.59 70.11Z" fill="#FFDE49"/>
<path d="M54.36 53.35C53.51 52.18 52.67 51 51.82 49.83C50.74 48.34 52.99 46.54 54.07 48.05C54.92 49.22 55.76 50.4 56.61 51.57C57.69 53.06 55.44 54.86 54.36 53.35Z" fill="#589FDA"/>
<path d="M39.46 56.1901C38.66 54.7901 37.86 53.3801 37.05 51.9801C36.13 50.3701 38.61 48.9301 39.53 50.5301L41.94 54.7401C42.86 56.3501 40.38 57.7901 39.46 56.1901Z" fill="#3355A6"/>
<path d="M107.27 95.11C106.47 93.71 105.67 92.3 104.86 90.9C103.94 89.29 106.42 87.85 107.34 89.45L109.75 93.66C110.67 95.27 108.19 96.71 107.27 95.11Z" fill="#3355A6"/>
<path d="M46.84 69.27C44.93 69.25 43.14 69.57 41.37 70.27C39.65 70.95 38.67 68.26 40.39 67.57C42.37 66.78 44.46 66.38 46.59 66.41C48.42 66.43 48.7 69.29 46.84 69.27Z" fill="#589FDA"/>
<path d="M101.51 82.2001C100.07 81.0401 98.63 79.8801 97.19 78.7201C96.59 78.2301 96.68 77.2001 97.19 76.6901C97.79 76.0901 98.61 76.2001 99.22 76.6901C100.66 77.8501 102.1 79.0101 103.54 80.1701C104.14 80.6601 104.05 81.6901 103.54 82.2001C102.94 82.8001 102.12 82.6901 101.51 82.2001Z" fill="#589FDA"/>
<path d="M128.11 66.33C127.78 67.82 127.45 69.3 127.13 70.79C126.82 72.18 124.74 71.44 125.04 70.07C125.37 68.58 125.7 67.1 126.02 65.61C126.33 64.22 128.41 64.96 128.11 66.33Z" fill="#FFDE49"/>
<path d="M84 98.22C86.65 98.56 88.73 100.22 89.91 102.56C90.26 103.26 89.7 104.15 89.04 104.39C88.24 104.69 87.55 104.21 87.21 103.52C86.48 102.07 85.03 101.23 83.47 101.03C81.64 100.79 82.17 97.97 84 98.21V98.22Z" fill="#3355A6"/>
<path d="M145.03 72.2101C143.18 72.2101 143.18 69.3401 145.03 69.3401C146.88 69.3401 146.88 72.2101 145.03 72.2101Z" fill="#3355A6"/>
<path d="M48.1 78.35C46.25 78.35 46.25 75.48 48.1 75.48C49.95 75.48 49.95 78.35 48.1 78.35Z" fill="#3355A6"/>
<path d="M97.22 102.78V102.18C97.22 101.43 97.88 100.71 98.66 100.74C99.44 100.77 100.1 101.37 100.1 102.18V102.78C100.1 103.53 99.44 104.25 98.66 104.22C97.88 104.19 97.22 103.59 97.22 102.78Z" fill="#FFDE49"/>
<path d="M110.1 111.84C108.25 111.84 108.25 108.97 110.1 108.97C111.95 108.97 111.95 111.84 110.1 111.84Z" fill="#3355A6"/>
<path fill-rule="evenodd" clip-rule="evenodd" d="M173.39 37.16C153.6 51.89 132.62 64.74 109.43 74.09C85.6 65.3 65.05 51.91 45.47 37.16L109.43 0.22998L173.39 37.16Z" fill="#859BCD"/>
<path fill-rule="evenodd" clip-rule="evenodd" d="M173.39 42.8399V37.1599L109.43 74.0899C106.53 75.3999 106.66 77.3199 109.43 79.7699L138.95 62.7299C140.38 61.0799 141.77 59.3099 143.87 59.8899L173.39 42.8499V42.8399Z" fill="#6687C7"/>
<path fill-rule="evenodd" clip-rule="evenodd" d="M109.43 74.0899V79.7699L79.91 62.7299C78.69 59.6599 76.98 59.0399 74.99 59.8899L45.47 42.8499V37.1699L109.43 74.0999V74.0899Z" fill="#140033"/>
<path fill-rule="evenodd" clip-rule="evenodd" d="M74.99 59.88L79.91 62.72V57.04C79.85 55.3 78.93 54 74.99 54.2V59.88Z" fill="white"/>
<path fill-rule="evenodd" clip-rule="evenodd" d="M143.87 59.8799L138.95 62.7199V57.0399C139.01 54.7799 140.48 53.6899 143.87 54.1999V59.8799Z" fill="white"/>
<path fill-rule="evenodd" clip-rule="evenodd" d="M74.99 54.2L79.91 57.04L143.87 20.12L138.95 17.27L74.99 54.2Z" fill="white"/>
<path fill-rule="evenodd" clip-rule="evenodd" d="M143.87 54.2L138.95 57.04L74.99 20.12L79.91 17.27L143.87 54.2Z" fill="white"/>
<path d="M74.86 60.1101L74.73 59.8801V54.2001L74.86 53.9701L103.98 37.16L74.86 20.35V19.89L79.78 17.05H80.05L109.44 34.0201L138.83 17.05H139.1L144.02 19.89V20.35L114.9 37.16L144.02 53.9701L144.15 54.2001V59.8801L144.02 60.1101L139.1 62.9501L138.7 62.7201V57.19L109.45 40.3L80.2 57.19V62.7201L79.8 62.9501L74.88 60.1101H74.86ZM143.61 54.35L114.22 37.3801V36.92L143.34 20.1101L138.95 17.58L109.56 34.55H109.29L79.9 17.58L75.51 20.1101L104.63 36.92V37.3801L75.24 54.35V59.7201L79.63 62.25V57.03L79.76 56.8L109.28 39.76H109.55L139.07 56.8L139.2 57.03V62.25L143.59 59.7201V54.35H143.61Z" fill="#140033"/>
<path d="M45.34 43.07L45.21 42.84V37.16L45.34 36.93L109.3 0H109.57L173.53 36.93L173.66 37.16V42.84L173.53 43.07L109.57 80H109.3L45.34 43.07ZM173.13 37.31L109.43 0.54L45.74 37.31V42.68L109.43 79.45L173.12 42.68V37.31H173.13Z" fill="#140033"/>
<path d="M112.33 34.78L107.03 37.87L96.2401 31.63L101.54 28.54L112.33 34.78Z" fill="white"/>
<path d="M90.95 25.8901L96.25 22.8101C96.76 24.1801 97.52 25.5601 98.51 26.8001L101.54 28.5501L96.24 31.6301L93.21 29.8801C92.22 28.6401 91.47 27.2701 90.95 25.8901Z" fill="white"/>
<path d="M90.88 19.21C91.18 18.74 91.54 18.36 91.99 18.12L97.29 15.04C96.84 15.28 96.46 15.66 96.18 16.15C95.2 17.75 95.3 20.27 96.25 22.81L90.95 25.89C90 23.35 89.9 20.83 90.88 19.21Z" fill="white"/>
<path d="M93.07 30.1101L93 30.0501C92.04 28.8601 91.25 27.4501 90.7 25.9901C89.69 23.2801 89.67 20.7001 90.65 19.0801C91 18.5301 91.39 18.1501 91.85 17.9001L97.01 14.9001C97.01 14.9001 97.11 14.8401 97.16 14.8201L97.42 15.2901L97.29 15.3701C96.94 15.5901 96.64 15.9101 96.41 16.3101C95.51 17.7801 95.55 20.1801 96.51 22.7301C97.03 24.1201 97.79 25.4601 98.7 26.6001L112.48 34.5601V35.0201L107.18 38.1001H106.91L93.09 30.1101H93.07ZM98.37 27.0301L98.3 26.9701C97.34 25.7701 96.55 24.3701 96 22.9101C95.02 20.3001 94.97 17.8001 95.85 16.1901L92.11 18.3601C91.73 18.5701 91.4 18.8901 91.1 19.3601C90.2 20.8401 90.24 23.2501 91.2 25.8001C91.72 27.1901 92.48 28.5301 93.39 29.6701L107.03 37.5601L111.8 34.7901L98.38 27.0301H98.37Z" fill="#140033"/>
<path d="M107.72 38.2602L113.01 35.1802L116.34 37.1002L111.05 40.1802L107.72 38.2602Z" fill="white"/>
<path d="M123.67 41.33C124.03 41.29 124.37 41.2 124.65 41.03L119.35 44.11C119.07 44.26 118.75 44.37 118.37 44.41L114.3 42.06L119.59 38.97L123.67 41.32V41.33Z" fill="white"/>
<path d="M116.34 37.1001L119.59 38.9701L114.3 42.0601L111.05 40.1801L116.34 37.1001Z" fill="white"/>
<path d="M118.23 44.6399L107.59 38.49V38.0299L112.87 34.95H113.14L123.72 41.0499C124.01 41.0099 124.26 40.93 124.47 40.82L124.51 40.7999L124.78 41.2599C124.78 41.2599 124.75 41.28 124.74 41.29L119.47 44.3499C119.12 44.5399 118.77 44.64 118.39 44.68L118.23 44.65V44.6399ZM113.01 35.4799L108.26 38.25L118.43 44.1199C118.7 44.0799 118.96 44 119.22 43.86L123.38 41.4399L113.02 35.47L113.01 35.4799Z" fill="#140033"/>
<path d="M96.37 18.1001C95.7 17.7101 95.03 17.4401 94.37 17.3001C93.35 17.0801 92.45 17.2001 91.71 17.6301L97.01 14.5501C97.74 14.1201 98.65 14.0101 99.67 14.2201C100.33 14.3601 101 14.6301 101.67 15.0201C102.32 15.4001 102.97 15.9001 103.59 16.4801L98.29 19.5601C97.66 18.9701 97.02 18.4701 96.37 18.1001Z" fill="white"/>
<path d="M112.85 35.2001L107.55 38.2801C107.5 38.1501 107.44 37.9901 107.37 37.8101C106.69 36.0001 105.04 31.6701 103.25 27.7001L108.55 24.6201C110.03 27.8801 111.64 31.9101 112.85 35.2001Z" fill="white"/>
<path d="M98.29 19.56L103.59 16.48C103.95 16.82 104.3 17.18 104.65 17.58C105.8 18.93 107.21 21.68 108.55 24.63L103.25 27.71C101.91 24.76 100.5 22.01 99.35 20.66C99.01 20.26 98.65 19.9 98.29 19.56Z" fill="white"/>
<path d="M107.3 38.3801L107.12 37.9101C106.48 36.2001 104.8 31.7901 103 27.8201C101.43 24.3401 100.13 21.9901 99.14 20.8301C98.84 20.4801 98.5 20.1301 98.1 19.7501C97.47 19.1601 96.84 18.6701 96.23 18.3201C95.58 17.9501 94.93 17.6901 94.31 17.5501C93.36 17.3501 92.53 17.4501 91.85 17.8401L91.58 17.3801L96.88 14.3001C97.67 13.8401 98.66 13.7101 99.73 13.9401C100.41 14.0901 101.11 14.3601 101.81 14.7601C102.46 15.1301 103.12 15.6401 103.78 16.2601C104.2 16.6601 104.55 17.0101 104.86 17.3801C105.88 18.5801 107.21 20.9701 108.8 24.4901C110.13 27.4201 111.74 31.3901 113.11 35.0901L112.99 35.4101L107.69 38.4901L107.31 38.3501L107.3 38.3801ZM108.31 24.7401C106.74 21.2701 105.44 18.9201 104.45 17.7601C104.15 17.4101 103.82 17.0701 103.41 16.6801C102.78 16.0801 102.15 15.6001 101.54 15.2501C100.89 14.8801 100.25 14.6201 99.62 14.4801C98.67 14.2801 97.84 14.3801 97.15 14.7801L93.45 16.9301C93.77 16.9301 94.09 16.9701 94.43 17.0401C95.11 17.1901 95.81 17.4601 96.51 17.8601C97.16 18.2301 97.82 18.7401 98.48 19.3601C98.89 19.7501 99.24 20.1101 99.56 20.4801C100.58 21.6801 101.91 24.0701 103.5 27.5901C105.24 31.4301 106.83 35.5801 107.63 37.7101L107.69 37.8801L112.52 35.0701C111.17 31.4401 109.6 27.5901 108.31 24.7201V24.7401Z" fill="#140033"/>
<path d="M94.37 17.3001C95.03 17.4401 95.7 17.7101 96.37 18.1001C97.4 18.6901 98.41 19.5601 99.35 20.6601C102.05 23.8201 106.19 34.6501 107.37 37.8101C107.44 37.9901 107.5 38.1501 107.55 38.2801L107.71 38.7101L107.37 38.5201L93.1 30.2801L93.06 30.2201C90.02 26.4601 88.9 21.4501 90.53 18.8101C91.34 17.4801 92.7 16.9401 94.37 17.3001ZM93.2 29.8801L107.03 37.8601C106.05 35.2201 101.78 24.0201 99.17 20.9701C98.28 19.9301 97.32 19.1001 96.34 18.5401C95.72 18.1801 95.09 17.9301 94.48 17.8001C92.92 17.4801 91.63 17.9801 90.87 19.2201C89.36 21.6901 90.38 26.3601 93.2 29.8801Z" fill="#140033"/>
<path d="M118.06 29.55L112.76 32.6301C111.46 33.3801 109.73 35.32 107.72 38.26L113.02 35.18C115.03 32.24 116.77 30.31 118.06 29.55Z" fill="#140033"/>
<path d="M113.64 31.76C114.38 31.76 115.18 32 115.97 32.46C117.83 33.54 119.64 35.75 120.55 38.31C121.8 41.84 120.92 44.75 118.52 44.93H118.47L107.7 38.73L107.54 38.3C107.49 38.17 107.43 38.01 107.36 37.83C109.28 35.03 111.86 31.8 113.63 31.77L113.64 31.76ZM118.37 44.41C120.55 44.22 121.35 41.54 120.19 38.3C119.35 35.94 117.69 33.91 115.97 32.92C115.24 32.5 114.51 32.27 113.82 32.28C112.5 32.3 110.34 34.43 107.72 38.26L118.37 44.41Z" fill="#140033"/>
<path d="M118.94 28.68C118.58 28.68 118.19 28.83 117.77 29.07L112.47 32.15C112.89 31.91 113.28 31.77 113.64 31.76C114.38 31.76 115.18 32 115.97 32.46C117.83 33.54 119.64 35.75 120.55 38.31C121.58 41.22 121.16 43.71 119.64 44.6L124.94 41.52C126.46 40.64 126.88 38.14 125.85 35.23C124.94 32.67 123.13 30.46 121.27 29.38C120.48 28.93 119.69 28.67 118.94 28.68Z" fill="#F25A5A"/>
<path d="M115.96 32.4502C115.18 32.0002 114.38 31.7402 113.63 31.7502C113.27 31.7502 112.88 31.9002 112.46 32.1402L117.76 29.0602C118.18 28.8202 118.57 28.6802 118.93 28.6702C119.67 28.6702 120.47 28.9102 121.26 29.3702C121.75 29.6502 122.24 30.0202 122.71 30.4502L117.41 33.5302C116.94 33.1002 116.45 32.7302 115.96 32.4502Z" fill="white"/>
<path d="M117.41 33.54L122.71 30.46C123.92 31.57 125 33.11 125.68 34.84L120.38 37.92C119.69 36.2 118.62 34.65 117.41 33.54Z" fill="white"/>
<path d="M120.39 37.9101L125.69 34.8301C125.74 34.9601 125.8 35.0901 125.85 35.2201C126.88 38.1301 126.46 40.6201 124.94 41.5101L119.64 44.5901C121.16 43.7101 121.58 41.2101 120.55 38.3001C120.5 38.1701 120.44 38.0401 120.39 37.9101Z" fill="white"/>
<path d="M119.5 44.3601C120.94 43.5201 121.26 41.1201 120.29 38.3901C120.26 38.3101 120.23 38.2401 120.2 38.1601L120.14 38.0001C119.49 36.3601 118.45 34.8401 117.23 33.7201C116.76 33.2901 116.29 32.9401 115.83 32.6701C115.07 32.2301 114.29 32.0101 113.64 32.0101C113.34 32.0101 112.99 32.1301 112.6 32.3601L112.33 31.9001L117.63 28.8201C118.1 28.5501 118.54 28.4001 118.93 28.4001C119.71 28.4001 120.54 28.6401 121.39 29.1301C121.89 29.4201 122.39 29.7901 122.89 30.2501C124.17 31.4201 125.25 33.0101 125.93 34.7201L125.99 34.8601C126.03 34.9401 126.06 35.0301 126.09 35.1201C127.15 38.1001 126.73 40.7601 125.06 41.7301L119.76 44.8101L119.49 44.3501L119.5 44.3601ZM118.94 28.9401C118.64 28.9401 118.29 29.0601 117.9 29.2901L114.08 31.5101C114.72 31.5801 115.4 31.8201 116.09 32.2201C116.58 32.5101 117.09 32.8801 117.59 33.3401C118.87 34.5101 119.95 36.1001 120.63 37.8101L120.69 37.9501C120.73 38.0301 120.76 38.1201 120.79 38.2001C121.53 40.2901 121.55 42.2101 120.92 43.5201L124.79 41.2701C126.23 40.4301 126.55 38.0301 125.58 35.3001C125.55 35.2201 125.52 35.1501 125.49 35.0701L125.43 34.9201C124.78 33.2801 123.74 31.7601 122.52 30.6401C122.05 30.2101 121.58 29.8601 121.12 29.5901C120.37 29.1601 119.63 28.9301 118.96 28.9301H118.93L118.94 28.9401Z" fill="#140033"/>
<path d="M118.34 45.17L92.96 30.52L92.86 30.42V30.39C89.73 26.54 88.61 21.4 90.3 18.67C90.63 18.13 91.06 17.7 91.58 17.4L96.88 14.32C97.67 13.86 98.66 13.74 99.73 13.96C100.41 14.11 101.11 14.38 101.81 14.78C102.46 15.15 103.12 15.66 103.78 16.28C104.2 16.68 104.55 17.03 104.86 17.4C105.88 18.6 107.21 20.99 108.8 24.51C109.77 26.65 110.9 29.35 111.98 32.14C112.1 32.06 112.22 31.98 112.34 31.91L117.64 28.83C117.95 28.65 118.27 28.53 118.61 28.47L118.69 28.45C118.76 28.43 118.85 28.41 118.94 28.41C119.14 28.41 119.35 28.42 119.55 28.45C120.15 28.54 120.77 28.77 121.4 29.14C121.64 29.28 121.89 29.44 122.17 29.66C122.7 30.06 123.23 30.55 123.74 31.13L123.85 31.26C124.71 32.28 125.44 33.48 125.94 34.73L126 34.87C126.04 34.95 126.07 35.04 126.1 35.13C126.49 36.23 126.69 37.28 126.68 38.26C126.68 39.88 126.09 41.15 125.07 41.74L119.77 44.82C119.4 45.03 118.99 45.16 118.55 45.2L118.34 45.17ZM119.52 44.35L119.97 44.09L119.92 44.03L120 43.95L120.08 44.02L120.64 43.7L120.33 43.51L120.35 43.47L120.7 43.66L124.8 41.28C125.65 40.78 126.14 39.68 126.15 38.26C126.15 37.36 125.96 36.34 125.6 35.32C125.57 35.24 125.54 35.17 125.51 35.1L125.44 34.94C124.96 33.74 124.27 32.59 123.42 31.59L123.34 31.49C122.86 30.94 122.36 30.47 121.84 30.08C121.59 29.89 121.36 29.74 121.13 29.61C120.56 29.28 120 29.07 119.46 28.99C119.3 28.96 119.13 28.95 118.97 28.95C118.93 28.95 118.87 28.95 118.81 28.97L118.71 28.99C118.43 29.04 118.17 29.14 117.91 29.29L113.17 32.04V32.11L113.12 32.13L113.1 32.08L112.63 32.35C112.43 32.47 112.22 32.61 112.01 32.77L111.6 32.65C110.48 29.76 109.31 26.94 108.31 24.72C106.74 21.25 105.44 18.9 104.45 17.74C104.15 17.39 103.82 17.05 103.41 16.66C102.78 16.06 102.15 15.58 101.54 15.23C100.89 14.86 100.25 14.6 99.62 14.46C98.67 14.26 97.84 14.36 97.15 14.76L93.04 17.15L93.07 17.47C93.07 17.47 93.01 17.47 92.97 17.48C92.94 17.48 92.9 17.49 92.87 17.5L92.83 17.28L92.45 17.5V17.59C92.45 17.59 92.37 17.62 92.33 17.63L92.31 17.58L91.95 17.79C91.56 18.01 91.23 18.29 90.95 18.66C91.01 18.59 91.07 18.52 91.14 18.45L91.53 18.82C91.39 18.96 91.26 19.13 91.14 19.31L90.71 19.03C90.53 19.33 90.39 19.67 90.29 20.03L90.75 20.18C90.73 20.24 90.71 20.3 90.69 20.36C90.69 20.39 90.67 20.42 90.66 20.46L90.2 20.34C90.13 20.63 90.09 20.94 90.06 21.25L90.5 21.3C90.5 21.35 90.5 21.41 90.49 21.46C90.49 21.54 90.49 21.62 90.48 21.7V21.8L90.05 21.78C90.05 21.98 90.05 22.18 90.07 22.39L90.48 22.37C90.48 22.5 90.49 22.63 90.5 22.76C90.5 22.84 90.51 22.92 90.52 23L90.13 23.04C90.14 23.14 90.16 23.24 90.17 23.34L90.56 23.28C90.61 23.61 90.67 23.93 90.74 24.26C90.78 24.41 90.82 24.56 90.86 24.72L90.5 24.82C90.52 24.89 90.54 24.97 90.57 25.04L90.92 24.93C90.92 24.93 90.95 25.02 90.96 25.06C91.14 25.65 91.38 26.25 91.66 26.84C91.76 27.06 91.87 27.28 91.99 27.5L91.69 27.66C91.78 27.82 91.86 27.97 91.96 28.13L92.25 27.96C92.31 28.07 92.38 28.17 92.44 28.28C92.5 28.38 92.57 28.49 92.64 28.59L92.36 28.78C92.53 29.04 92.71 29.3 92.9 29.55L93.18 29.34C93.18 29.34 93.22 29.39 93.23 29.41L93.28 29.48C93.32 29.53 93.35 29.58 93.39 29.64L100.57 33.79L100.37 34.14L107.5 38.26L107.54 38.29L107.49 38.08L107.58 38.15V38.02V38.01L111.23 35.89L111.5 36.35L108.26 38.24L110.4 39.47L110.2 39.82L118.53 44.63C118.9 44.6 119.23 44.49 119.53 44.32L119.52 44.35ZM118.94 43.99C118.94 43.99 119.02 43.96 119.06 43.94L119.28 44.43C119.23 44.45 119.18 44.47 119.13 44.49L118.94 43.99ZM112.87 35.41V35.08L112.79 35.02C113.47 34.02 114.15 33.11 114.8 32.31L115.09 32.23C115.44 32.35 115.78 32.5 116.09 32.68C117.93 33.74 119.59 35.86 120.43 38.21C120.56 38.56 120.66 38.92 120.75 39.28L121.09 39.19L121.14 39.37L120.79 39.45L120.4 39.74L112.88 35.4L112.87 35.41ZM113.39 35.09L120.11 38.97C120.05 38.77 119.99 38.58 119.92 38.39C119.13 36.16 117.56 34.15 115.82 33.15C115.59 33.02 115.34 32.9 115.08 32.8C114.53 33.49 113.96 34.26 113.38 35.1L113.39 35.09ZM111.92 33.18L111.81 33.23L111.84 33.14L111.79 33.11H111.85L111.92 32.88L112.09 33.08L112.29 32.98L112.32 33.1H112.11L112.26 33.28L112.23 33.31H112.21L111.92 33.16V33.18ZM112.41 32.53L112.47 32.49C112.47 32.49 112.53 32.45 112.56 32.43L112.84 32.89L112.69 32.99L112.41 32.54V32.53ZM98.37 27.02L98.3 26.96C97.34 25.76 96.55 24.36 96 22.9C95.36 21.2 95.11 19.55 95.28 18.12L95.65 17.91C95.88 18.01 96.17 18.14 96.47 18.31C96.73 18.46 96.98 18.62 97.24 18.81L97.46 18.52L97.56 18.6L97.34 18.89C97.82 19.24 98.28 19.65 98.73 20.11L98.98 19.87C99.17 20.06 99.35 20.26 99.54 20.48L99.28 20.7C99.28 20.7 99.3 20.72 99.31 20.73L99.57 20.51C99.73 20.7 99.89 20.91 100.06 21.15L99.79 21.34C99.85 21.42 99.91 21.51 99.97 21.6L100.24 21.42C100.35 21.58 100.46 21.75 100.58 21.93L100.31 22.1C100.38 22.22 100.46 22.34 100.53 22.46L100.8 22.3C100.9 22.47 101 22.64 101.1 22.82L100.82 22.98C100.9 23.12 100.99 23.27 101.07 23.43L101.35 23.27C101.4 23.36 101.44 23.44 101.49 23.53C101.54 23.62 101.58 23.7 101.63 23.79L101.35 23.94C101.44 24.11 101.53 24.29 101.63 24.47L101.92 24.32L102.16 24.79L101.87 24.93C101.97 25.14 102.08 25.35 102.19 25.58L102.5 25.48L102.2 25.61C102.78 26.81 103.41 28.2 104.09 29.78L103.71 30.12L98.38 27.04L98.37 27.02ZM96.5 22.71C97.02 24.1 97.78 25.44 98.69 26.58L103.28 29.23C101.47 25.09 100.03 22.37 98.97 21.13C98.12 20.13 97.16 19.31 96.21 18.76C96.06 18.68 95.92 18.6 95.78 18.54C95.71 19.79 95.96 21.25 96.5 22.71ZM91.23 18.36C91.42 18.18 91.61 18.03 91.79 17.93C91.84 17.9 91.89 17.87 91.95 17.84L92.21 18.31L92.11 18.37C92.11 18.37 92.08 18.39 92.06 18.4C91.9 18.5 91.75 18.62 91.6 18.75L91.23 18.36ZM93.47 17.47V17.04L93.43 16.97L93.46 17.02V16.94H93.57L93.67 17.44L93.53 17.47H93.45H93.47Z" fill="#140033"/>
<path d="M136.22 186.69V118.52L136.35 118.29L141.27 115.45L141.67 115.68V183.85L141.54 184.08L136.62 186.92L136.22 186.69ZM141.14 116.14L136.75 118.67V186.23L141.14 183.7V116.14Z" fill="#140033"/>
<path d="M77.3199 184.08L77.1899 183.85V115.68L77.5899 115.45L82.5099 118.29L82.6399 118.52V186.69L82.2399 186.92L77.3199 184.08ZM77.7199 116.14V183.7L82.1099 186.23V118.67L77.7199 116.14Z" fill="#140033"/>
<path d="M109.16 79.7699H109.7V74.2399L173.53 37.3899L173.26 36.9299L109.3 73.8599L109.16 74.0899V79.7699Z" fill="#140033"/>
<path d="M154.3 133.37C154.3 133.37 151.96 132.83 150.24 132.09C149.49 131.77 148.75 131.78 148.55 131.17C148.23 130.18 149.35 129.6 150.54 129.72C151.79 129.84 153.1 130.7 153.1 130.7L152.22 129.88C152.22 129.88 152.14 129.79 152.11 129.74C152.01 129.57 152.14 129.34 152.34 129.34C152.55 129.34 152.7 129.45 152.86 129.55C153.03 129.65 153.21 129.75 153.38 129.86C153.78 130.11 154.16 130.4 154.46 130.78C155.17 131.7 156.01 132.53 154.3 133.38V133.37Z" fill="white"/>
<path d="M173.87 143.09L170.69 142.28C169.68 142.02 168.7 141.68 167.75 141.25L163.47 139.32C162.55 139.01 161.55 139.52 161.23 140.46C160.94 141.31 161.3 142.21 162.04 142.61L167.59 145.81L171.45 148.01C171.92 148.26 172.43 148.43 172.96 148.49C174.53 148.67 175.69 147.57 176.27 146.48C176.97 145.16 175.55 143.96 174.26 143.27C174.14 143.21 174 143.15 173.87 143.1V143.09Z" fill="white"/>
<path d="M163.77 139.47L155.18 131.88C154.74 131.49 154.37 131.76 153.97 132.21C153.6 132.62 153.65 132.87 154 133.26L161.2 142.01C161.84 142.75 162.96 142.81 163.72 142.15C164.47 141.49 164.57 140.36 163.93 139.63C163.88 139.58 163.83 139.52 163.77 139.47Z" fill="white"/>
<path d="M173.29 148.67C173.18 148.67 173.06 148.67 172.94 148.65C172.4 148.59 171.87 148.42 171.36 148.15L167.5 145.95L161.95 142.75C161.9 142.72 161.86 142.69 161.83 142.66C161.82 142.65 161.8 142.63 161.78 142.62C161.5 142.52 161.25 142.35 161.07 142.13L153.94 133.46C153.22 133.28 151.53 132.83 150.18 132.25C149.97 132.16 149.76 132.1 149.55 132.04C149.04 131.89 148.56 131.75 148.39 131.22C148.26 130.83 148.32 130.46 148.57 130.16C148.95 129.69 149.73 129.44 150.58 129.53C151.09 129.58 151.61 129.75 152.05 129.93C152.02 129.9 152 129.86 151.97 129.81C151.89 129.67 151.89 129.5 151.97 129.36C152.05 129.22 152.19 129.13 152.35 129.13H152.36C152.58 129.13 152.75 129.23 152.9 129.32L152.97 129.36C153.16 129.47 153.33 129.57 153.49 129.67C153.84 129.89 154.28 130.2 154.61 130.63L154.74 130.79C155.01 131.13 155.26 131.46 155.39 131.8L163.82 139.25L167.82 141.06C168.75 141.48 169.73 141.82 170.73 142.08L173.91 142.89C174.07 142.94 174.21 143.01 174.34 143.07C176.25 144.09 177.03 145.38 176.42 146.52C175.86 147.58 174.75 148.65 173.28 148.65L173.29 148.67ZM150.25 129.88C149.65 129.88 149.11 130.07 148.85 130.39C148.69 130.59 148.65 130.83 148.74 131.11C148.85 131.43 149.14 131.54 149.66 131.69C149.86 131.75 150.1 131.82 150.33 131.92C151.69 132.5 153.41 132.96 154.09 133.12L154.19 133.18L161.36 141.89C161.51 142.06 161.7 142.19 161.96 142.29C162.03 142.33 162.06 142.36 162.08 142.38C162.1 142.4 162.12 142.42 162.14 142.43L171.55 147.83C172.01 148.07 172.5 148.23 172.99 148.28C174.46 148.44 175.57 147.4 176.11 146.37C176.83 145.01 175 143.85 174.18 143.41C174.07 143.35 173.94 143.3 173.82 143.25L170.65 142.44C169.63 142.18 168.63 141.83 167.68 141.4L163.61 139.55L155.07 131.98C154.96 131.68 154.71 131.36 154.45 131.03L154.32 130.87C154.03 130.49 153.62 130.2 153.29 129.99C153.13 129.89 152.96 129.79 152.8 129.69L152.71 129.64C152.58 129.56 152.48 129.5 152.36 129.5C152.32 129.5 152.3 129.53 152.29 129.54C152.29 129.55 152.27 129.59 152.29 129.62C152.31 129.66 152.34 129.69 152.36 129.72L153.24 130.54L153.01 130.83C153.01 130.83 151.71 130 150.53 129.88C150.43 129.88 150.34 129.87 150.24 129.87L150.25 129.88Z" fill="#140033"/>
<path d="M185.13 157.2C184.94 156.55 184.87 155.9 184.79 155.22C184.65 154.07 185.11 147.35 185.29 144.84C185.31 144.74 185.31 144.65 185.33 144.55C186.19 143.1 187.3 141.61 187.3 141.61C187.26 141.54 187.2 141.46 187.15 141.38C186.32 140.04 184.1 138.48 183.98 138.4L183.96 138.38C183.44 138.81 182.33 139.53 181.41 140.1C181.11 140.14 180.6 140.26 179.96 140.43C178.81 140.75 177.24 141.28 175.75 141.9C175.66 141.94 175.57 141.98 175.48 142.02C174.26 142.25 171.35 142.58 168.37 141.41C168.37 141.41 168.96 145.21 167.78 146.63C167.78 146.63 170.27 147.64 171.78 149.29L173.21 152.74L173.3 152.95C173.3 152.95 173.3 152.97 173.31 152.98C174.06 154.8 173.93 155.65 173.82 157.62C173.79 158.12 171.59 163.99 172.14 164.08C172.15 164.08 172.18 164.08 172.19 164.08C172.3 164.08 172.5 164.08 172.69 164.08C172.83 164.08 172.97 164.08 173.02 164.08C173.85 164.06 174.62 163.99 175.37 163.91C176.53 163.78 177.58 163.57 178.54 163.32C178.76 163.26 179 163.21 179.21 163.14C182.91 162.04 185.73 161.43 186.52 161.27C186.58 161.26 186.62 161.25 186.66 161.24C186.71 161.24 186.76 161.22 186.76 161.22C186.9 161.07 185.76 158.89 185.69 158.71C185.5 158.22 185.28 157.7 185.13 157.2Z" fill="#6687C7"/>
<path d="M172.14 164.28C172.03 164.26 171.97 164.22 171.93 164.15C171.71 163.79 172.14 162.32 173.11 159.37C173.37 158.58 173.64 157.76 173.65 157.62L173.68 157.15C173.78 155.52 173.83 154.7 173.16 153.06L171.65 149.4C170.18 147.82 167.76 146.82 167.73 146.81L167.66 146.52C168.78 145.17 168.22 141.48 168.21 141.44L168.46 141.24C171.42 142.41 174.34 142.05 175.45 141.84C177.8 140.82 180.46 140.04 181.36 139.92C182.61 139.15 183.45 138.58 183.85 138.23H184.07C184.18 138.29 186.74 140.07 187.47 141.51L187.45 141.7C187.45 141.7 186.37 143.16 185.53 144.56V144.6C185.51 144.69 185.5 144.78 185.47 144.87C185.32 146.97 184.84 154.03 184.98 155.18L185 155.31C185.07 155.94 185.14 156.53 185.32 157.13C185.43 157.49 185.58 157.88 185.73 158.25L185.88 158.63C185.88 158.63 185.97 158.81 186.07 159.01C187.03 160.95 187.06 161.19 186.92 161.34L186.82 161.39C186.82 161.39 183.6 162.03 179.29 163.31C177.34 163.89 175.24 164.2 173.05 164.26C172.96 164.26 172.61 164.26 172.37 164.26H172.16L172.14 164.28ZM168.07 146.57C168.72 146.86 170.64 147.79 171.92 149.18L171.95 149.23L173.46 152.89C174.18 154.63 174.12 155.53 174.02 157.17L173.99 157.64C173.99 157.82 173.79 158.39 173.44 159.48C173.02 160.77 172.16 163.4 172.22 163.91H172.34C172.58 163.91 172.92 163.91 173.01 163.91C175.17 163.86 177.24 163.55 179.16 162.98C182.95 161.86 185.88 161.23 186.57 161.09C186.46 160.71 185.93 159.64 185.72 159.2C185.61 158.99 185.54 158.83 185.52 158.79L185.37 158.42C185.22 158.04 185.06 157.65 184.95 157.27C184.77 156.65 184.69 156.04 184.62 155.39L184.6 155.26C184.46 154.11 184.9 147.6 185.1 144.85C185.12 144.74 185.14 144.66 185.15 144.58L185.19 144.44C185.92 143.21 186.83 141.95 187.08 141.61C186.42 140.43 184.46 138.98 183.97 138.63C183.51 138.99 182.69 139.55 181.51 140.28L181.44 140.31C180.59 140.41 177.94 141.19 175.55 142.22C174.4 142.44 171.55 142.79 168.61 141.72C168.72 142.62 168.95 145.26 168.08 146.58L168.07 146.57Z" fill="#140033"/>
<path d="M195.96 202.23C195.26 201.4 194.42 200.66 193.8 199.76C193.55 199.39 193.3 198.98 192.99 198.65C192.83 198.47 192.63 198.34 192.43 198.22C192.29 198.15 192.16 198.07 192 198.04C191.26 197.87 190.69 198.24 190.5 198.97C190.42 199.28 190.41 199.64 190.42 200.01C190.45 200.81 190.69 201.65 191.17 202.17C191.49 202.52 191.76 202.92 191.94 203.36L192.27 204.18C192.56 205.06 193.17 205.8 193.98 206.22C194.83 206.67 196.26 207.06 196.62 206.02C196.96 205.02 196.61 202.99 195.97 202.23H195.96Z" fill="#140033"/>
<path d="M176.12 205.48C176.04 205.5 174.49 205.92 172.95 206.02C171.44 206.11 169.44 205.75 168.46 204.75C168.46 204.75 169.53 204.76 170.91 204.37C170.91 204.37 170.86 204.37 170.79 204.37C170.32 204.41 168.59 204.54 168.15 204.64C167.63 204.76 165.75 205.23 167.87 206.62C168.24 206.86 168.59 207.05 168.93 207.21C168.97 207.23 169.01 207.25 169.05 207.27C170.36 207.86 171.43 207.88 172.3 207.76C173.42 207.61 175.82 208.34 176.16 207.8C176.99 206.47 176.16 205.47 176.16 205.47H176.15L176.12 205.48Z" fill="#140033"/>
<path d="M191.93 196.86C191.19 197.25 190.19 197.66 189.36 197.8L190.42 200.02C190.4 199.65 190.42 199.29 190.5 198.98C190.69 198.24 191.26 197.88 192 198.05C192.16 198.09 192.3 198.16 192.43 198.23L191.93 196.86Z" fill="white"/>
<path d="M175.96 202.97C175.2 203.09 174.23 203.08 173.43 202.95L173.31 203.81L172.16 204.19L170.78 204.37C170.86 204.37 170.9 204.37 170.9 204.37C169.53 204.76 168.45 204.75 168.45 204.75C169.43 205.76 171.42 206.12 172.94 206.02C174.48 205.92 176.04 205.5 176.11 205.48L175.79 204.31C175.79 204.31 175.86 203.55 175.95 202.97H175.96Z" fill="white"/>
<path d="M168.93 207.28L169.03 207.26C169.03 207.26 168.95 207.22 168.91 207.2L168.93 207.27V207.28Z" fill="white"/>
<path d="M180.66 133.83C181.08 133.57 181.35 133.71 181.5 134.03C181.59 134.03 181.67 134.06 181.76 134.07C182.7 134.1 183.57 133.76 184.24 133.17C184.24 132.89 184.2 132.62 184.18 132.35C183.6 132.8 182.88 133.06 182.11 133.03C180.27 132.96 178.84 131.33 178.91 129.38C178.93 128.8 179.1 128.26 179.35 127.79C179.24 127.79 179.13 127.76 179.03 127.76C178.56 128.39 178.27 129.17 178.24 130.03C178.18 131.77 179.21 133.27 180.67 133.82L180.66 133.83Z" fill="white"/>
<path d="M180.66 133.83C180.93 133.93 181.21 134 181.5 134.03C181.35 133.7 181.08 133.57 180.66 133.83Z" fill="#100F16"/>
<path d="M181.5 134.03C181.21 134 180.93 133.93 180.66 133.83C179.19 133.28 178.16 131.78 178.23 130.04C178.26 129.18 178.55 128.4 179.02 127.77C175.6 127.8 171.98 131.21 173.56 132.62C173.56 132.62 173.58 132.64 173.6 132.67C173.79 132.92 174.62 134.11 175.05 135.94C175.05 135.94 176.38 134.28 176.71 135.61C176.8 135.98 176.75 136.3 176.63 136.57C176.44 136.99 176.09 137.29 175.83 137.45C175.67 137.55 175.55 137.61 175.55 137.61C175.55 137.61 175.55 138.25 175.66 138.8C175.71 139.05 175.78 139.28 175.88 139.43C175.93 139.51 176.02 139.57 176.11 139.62C176.84 140 178.59 139.51 178.82 139.43C179.16 139.31 179.51 139.18 179.86 139.03C180.92 138.58 181.97 137.98 182.72 137.17C183.64 136.18 184.19 134.66 184.23 133.17C183.56 133.76 182.69 134.1 181.75 134.07C181.66 134.07 181.58 134.04 181.49 134.03H181.5Z" fill="#140033"/>
<path d="M182.37 125.98C181.08 125.93 179.94 126.68 179.35 127.79C179.1 128.27 178.93 128.8 178.91 129.38C178.84 131.33 180.27 132.97 182.11 133.03C182.88 133.06 183.6 132.79 184.18 132.35C184.98 131.73 185.53 130.76 185.57 129.63C185.64 127.68 184.21 126.04 182.37 125.98Z" fill="#140033"/>
<path d="M187.8 182.24L187.42 165.72C187.38 164.2 187.29 162.39 186.67 161.25C186.63 161.25 186.59 161.27 186.53 161.28C185.74 161.44 182.92 162.06 179.22 163.15C179.01 163.21 178.77 163.27 178.55 163.33C177.59 163.58 176.54 163.78 175.38 163.92C174.63 164.01 173.86 164.07 173.03 164.09C172.98 164.09 172.85 164.09 172.7 164.09C172.51 164.09 172.3 164.09 172.2 164.09C172.1 164.78 172.07 165.49 172.01 166.18C171.93 167.11 171.86 168.02 171.83 168.94C171.81 169.44 171.81 169.95 171.81 170.46C171.82 171.2 171.83 171.95 171.84 172.69C171.87 174.65 171.9 176.62 171.92 178.58C171.95 180.43 171.97 182.29 172 184.14C172.01 184.99 172.02 185.85 172.04 186.71C172.04 186.81 172.05 186.9 172.07 186.99C172.07 187 172.07 187.01 172.07 187.03C172.07 187.14 172.07 187.26 172.08 187.37C172.12 188.13 172.29 189.34 172.33 190.1C172.39 191.2 172.44 192.3 172.5 193.39C172.56 194.59 172.63 195.79 172.69 196.99C172.75 198.07 172.8 199.14 172.86 200.21C172.9 200.93 172.94 201.64 172.97 202.36C172.97 202.53 172.99 202.69 173 202.86C173.13 202.89 173.28 202.91 173.43 202.93C174.23 203.06 175.2 203.07 175.96 202.95C176.01 202.95 176.06 202.95 176.11 202.93C176.17 202.92 176.24 202.91 176.3 202.89L176.48 202.85L177.3 187C177.3 186.93 177.3 186.86 177.3 186.8L179.76 170.35L179.71 170.16C179.71 170.16 179.75 170.13 179.76 170.12C179.76 170.12 179.78 170.1 179.79 170.09C180.38 169.61 181.31 168.79 181.86 168.44L184.17 180.65L185.11 185.55L186.38 192.19C187.84 195.42 188.89 197.84 188.89 197.84C189.02 197.84 189.19 197.8 189.34 197.77C190.18 197.64 191.18 197.22 191.91 196.83C192 196.78 192.12 196.73 192.2 196.68L187.78 182.21L187.8 182.24Z" fill="#140033"/>
<path d="M179.78 170.21L179.76 170.37L182.93 183.93L179.96 170.99L179.78 170.21Z" fill="#140033"/>
<path d="M179.76 170.14C179.76 170.14 179.72 170.17 179.71 170.18L179.76 170.37L179.78 170.21L179.76 170.14Z" fill="#140033"/>
<path d="M184.18 180.67L181.87 168.46C181.31 168.81 180.38 169.63 179.8 170.11L179.78 170.21L179.96 170.99L182.93 183.93C182.96 184.04 182.99 184.15 183.03 184.25C182.65 182.72 182.75 181.29 184.17 180.67H184.18Z" fill="#140033"/>
<path d="M179.78 170.21L179.8 170.11C179.8 170.11 179.78 170.13 179.77 170.14L179.79 170.21H179.78Z" fill="#140033"/>
<path d="M183.03 184.25C183.45 185.95 184.44 187.77 184.87 188.79C185.31 189.82 185.84 191.02 186.38 192.22L185.11 185.58C184.19 185.58 183.37 185.14 183.03 184.26V184.25Z" fill="#140033"/>
<path d="M185.12 185.57L184.18 180.67C182.76 181.3 182.66 182.72 183.04 184.25C183.39 185.13 184.2 185.57 185.12 185.57Z" fill="#140033"/>
<path d="M179.95 140.44H179.96C179.92 139.97 179.88 139.49 179.86 139.03C179.51 139.18 179.16 139.31 178.82 139.43C178.59 139.51 176.84 140 176.11 139.62C176.02 139.57 175.93 139.51 175.88 139.43C175.78 139.28 175.71 139.04 175.66 138.8C175.55 138.24 175.55 137.61 175.55 137.61C175.55 137.61 175.67 137.55 175.83 137.45C176.08 137.29 176.44 136.99 176.63 136.57C176.75 136.3 176.81 135.99 176.71 135.61C176.38 134.28 175.05 135.94 175.05 135.94C174.61 134.11 173.78 132.93 173.6 132.67C173.49 133.25 173.39 133.85 173.39 133.97C173.32 135.02 173.5 136.8 173.94 137.83C174.38 138.86 174.7 139.22 175.69 139.51C175.72 139.99 175.74 140.48 175.74 140.96C175.74 141.24 175.73 141.55 175.75 141.85C175.75 141.85 175.75 141.87 175.75 141.88C175.75 141.89 175.75 141.9 175.75 141.91H175.76C175.87 142.09 176.55 143.02 178.2 142.42C180.01 141.76 180.16 141.11 179.94 140.45L179.95 140.44Z" fill="white"/>
<path d="M195.5 119.13C194.44 119.79 193.63 121.14 193.63 121.14L194.06 120.01C194.08 119.96 194.09 119.9 194.09 119.84C194.1 119.64 193.89 119.5 193.71 119.58C193.52 119.67 193.44 119.84 193.33 120C193.22 120.17 193.11 120.34 193 120.51C192.76 120.91 192.54 121.34 192.44 121.81C192.34 122.31 192.22 122.8 192.27 123.2L187.98 133.68L185.18 137.09C184.8 137.55 184.4 137.98 183.98 138.4C184.1 138.48 186.32 140.04 187.15 141.38L187.34 141.1L190.9 135.78C190.94 135.72 190.95 135.66 190.99 135.59C191.17 135.39 191.32 135.16 191.4 134.88L193.97 123.9C194.48 123.47 195.85 122.28 196.83 121.14C197.36 120.52 198.03 120.2 197.94 119.56C197.79 118.53 196.52 118.51 195.51 119.14L195.5 119.13Z" fill="white"/>
<path d="M187.3 141.48H186.99C186.17 140.14 183.9 138.56 183.87 138.55L183.84 138.27C184.3 137.81 184.69 137.39 185.03 136.98L187.82 133.59L192.08 123.18C192.05 122.82 192.13 122.41 192.22 121.98L192.26 121.78C192.37 121.25 192.63 120.77 192.84 120.42C192.94 120.26 193.04 120.1 193.15 119.94L193.22 119.83C193.31 119.68 193.42 119.52 193.63 119.42C193.77 119.36 193.93 119.37 194.07 119.46C194.21 119.55 194.28 119.7 194.27 119.86C194.27 119.91 194.27 119.96 194.25 120C194.56 119.64 194.96 119.26 195.39 118.98C196.11 118.53 196.93 118.41 197.47 118.66C197.82 118.82 198.04 119.12 198.1 119.53C198.18 120.08 197.81 120.42 197.42 120.78C197.26 120.92 197.1 121.07 196.95 121.25C196 122.35 194.69 123.51 194.12 124L191.57 134.92C191.5 135.2 191.35 135.46 191.12 135.71C191.13 135.7 191.12 135.71 191.12 135.73C191.1 135.77 191.08 135.83 191.04 135.88L187.29 141.48H187.3ZM184.26 138.37C184.79 138.75 186.35 139.92 187.15 141.04L187.19 140.98L190.75 135.66C190.75 135.66 190.77 135.62 190.78 135.59C190.79 135.56 190.81 135.52 190.82 135.49C191.03 135.25 191.15 135.04 191.21 134.82L193.77 123.84L193.83 123.74C194.36 123.29 195.71 122.11 196.67 121C196.83 120.81 197.01 120.64 197.17 120.5C197.56 120.13 197.79 119.91 197.74 119.57C197.7 119.29 197.56 119.09 197.32 118.98C196.89 118.78 196.19 118.9 195.59 119.28C194.58 119.91 193.79 121.22 193.78 121.23L193.45 121.07L193.88 119.94C193.88 119.94 193.9 119.87 193.9 119.82C193.9 119.78 193.87 119.76 193.86 119.75C193.86 119.75 193.82 119.72 193.78 119.75C193.67 119.8 193.61 119.9 193.53 120.03L193.48 120.1C193.35 120.29 193.25 120.44 193.16 120.6C192.96 120.93 192.72 121.37 192.63 121.84L192.59 122.04C192.5 122.46 192.42 122.85 192.46 123.17V123.26L188.13 133.79L185.33 137.21C185.02 137.58 184.68 137.97 184.27 138.38L184.26 138.37Z" fill="#140033"/>
<path d="M177.19 142.8C176.18 142.8 175.72 142.16 175.62 142L175.66 141.98L175.63 141.96H175.61V141.95H175.59L175.61 141.93V141.87H175.59C175.57 141.61 175.57 141.36 175.57 141.11V140.96C175.57 140.52 175.55 140.08 175.53 139.65C174.55 139.33 174.21 138.9 173.79 137.9C173.34 136.85 173.16 135.07 173.23 133.95C173.23 133.81 173.33 133.2 173.45 132.63L173.78 132.56C174 132.86 174.73 133.92 175.18 135.56C175.47 135.26 175.98 134.83 176.4 134.92C176.66 134.98 176.83 135.19 176.93 135.56C177.02 135.93 176.99 136.29 176.84 136.64C176.63 137.11 176.25 137.42 175.97 137.6C175.9 137.65 175.83 137.69 175.78 137.71C175.78 137.91 175.81 138.36 175.89 138.76C175.94 139.02 176.01 139.22 176.08 139.33C176.11 139.38 176.16 139.42 176.24 139.46C176.85 139.78 178.43 139.4 178.8 139.26C179.17 139.13 179.51 139 179.83 138.86L180.09 139.02C180.11 139.5 180.15 139.98 180.19 140.42C180.48 141.36 179.92 142.01 178.32 142.59C177.9 142.74 177.54 142.8 177.23 142.8H177.19ZM175.94 141.82C176.07 142.02 176.68 142.78 178.16 142.24C180.14 141.52 179.91 140.86 179.79 140.5L179.82 140.45H179.8C179.77 140.08 179.73 139.69 179.71 139.29C179.46 139.39 179.19 139.49 178.9 139.6C178.88 139.6 176.91 140.23 176.05 139.78C176.01 139.76 175.95 139.73 175.9 139.68C175.92 140.1 175.94 140.53 175.94 140.96V141.11C175.94 141.34 175.94 141.59 175.95 141.82H175.94ZM173.71 133.14C173.64 133.56 173.59 133.9 173.58 133.98C173.51 135.03 173.69 136.78 174.11 137.76C174.5 138.67 174.77 139.02 175.62 139.3C175.57 139.17 175.53 139.02 175.49 138.83C175.38 138.26 175.37 137.63 175.37 137.6L175.48 137.43C175.48 137.43 175.59 137.38 175.74 137.28C175.94 137.16 176.29 136.88 176.47 136.48C176.59 136.21 176.62 135.94 176.54 135.64C176.5 135.49 176.43 135.3 176.29 135.27C176 135.23 175.48 135.69 175.2 136.04L174.88 135.97C174.56 134.64 174.03 133.65 173.7 133.13L173.71 133.14Z" fill="#140033"/>
<path d="M181.89 134.25C181.89 134.25 181.8 134.25 181.75 134.25C181.69 134.25 181.63 134.24 181.57 134.23C181.54 134.23 181.51 134.22 181.48 134.22L181.33 134.11C181.28 133.99 181.21 133.91 181.13 133.89C181.02 133.86 180.86 133.92 180.76 133.99H180.6C179.01 133.41 177.98 131.81 178.05 130.04C178.08 129.17 178.37 128.35 178.88 127.66L179.03 127.59C179.1 127.59 179.17 127.59 179.24 127.61C179.28 127.61 179.32 127.61 179.36 127.62L179.51 127.89C179.25 128.37 179.11 128.88 179.09 129.4C179.02 131.25 180.38 132.8 182.11 132.86C182.8 132.88 183.48 132.66 184.06 132.21L184.35 132.34L184.37 132.53C184.39 132.74 184.42 132.95 184.41 133.18L184.35 133.31C183.65 133.92 182.78 134.25 181.88 134.25H181.89ZM181.62 133.86C181.62 133.86 181.63 133.86 181.64 133.86C181.72 133.87 181.81 133.88 181.89 133.88C182.68 133.88 183.44 133.6 184.06 133.08C184.06 132.95 184.05 132.81 184.03 132.67C183.44 133.05 182.77 133.23 182.1 133.21C180.16 133.14 178.65 131.41 178.72 129.37C178.74 128.95 178.82 128.54 178.98 128.14C178.63 128.7 178.44 129.35 178.42 130.03C178.36 131.62 179.26 133.04 180.66 133.61C180.87 133.5 181.07 133.46 181.25 133.52C181.36 133.55 181.51 133.64 181.63 133.85L181.62 133.86Z" fill="#140033"/>
<path d="M190.25 200.1L189.19 197.88L189.33 197.62C190.04 197.51 190.98 197.16 191.85 196.7L192.11 196.8L192.61 198.17L192.35 198.39C192.21 198.32 192.1 198.26 191.96 198.23C191.32 198.09 190.84 198.38 190.68 199.03C190.62 199.29 190.59 199.61 190.61 200.01L190.26 200.1H190.25ZM189.62 197.94L190.25 199.26C190.26 199.15 190.28 199.04 190.31 198.94C190.52 198.11 191.19 197.69 192.03 197.87C192.06 197.87 192.08 197.88 192.1 197.89L191.82 197.12C191.07 197.5 190.28 197.8 189.62 197.94Z" fill="#140033"/>
<path d="M172.47 206.21C170.99 206.21 169.25 205.81 168.33 204.87L168.46 204.56C168.46 204.56 169.48 204.56 170.76 204.22V204.2L172.13 204.02L173.14 203.68L173.25 202.93L173.46 202.78C174.25 202.91 175.19 202.92 175.93 202.8L176.14 203.01C176.06 203.51 176 204.15 175.99 204.31L176.3 205.44L176.17 205.67C175.88 205.75 174.41 206.12 172.96 206.21C172.8 206.21 172.64 206.22 172.47 206.22V206.21ZM168.93 204.9C169.95 205.64 171.66 205.92 172.93 205.83C174.16 205.75 175.4 205.47 175.89 205.34L175.61 204.29C175.61 204.29 175.66 203.71 175.73 203.18C175.06 203.26 174.27 203.25 173.58 203.15L173.48 203.83L173.36 203.98L172.21 204.36L170.95 204.53C170.11 204.78 169.38 204.87 168.93 204.9Z" fill="#140033"/>
</svg>
