<svg width="264" height="108" viewBox="0 0 264 108" fill="none" xmlns="http://www.w3.org/2000/svg">
<g filter="url(#filter0_d_22_2123)">
<path fill-rule="evenodd" clip-rule="evenodd" d="M215 0H49C24.15 0 4 20.15 4 45C4 69.85 24.15 90 49 90H122L132 100L142 90H215C239.85 90 260 69.85 260 45C260 20.15 239.85 0 215 0Z" fill="#6E89D8"/>
</g>
<path d="M107.582 35.62V33.24C109.262 32.58 110.622 29.98 110.622 26.52V21.6H107.782V19.32H116.062V21.6H113.362V26.52C113.362 29.98 114.442 32.08 116.382 33.06V35.44C114.582 34.84 112.862 33.48 112.022 31.64C111.102 33.5 109.442 35 107.582 35.62ZM117.662 36.28V27.54H114.882V25.1H117.662V18.92H120.222V36.28H117.662ZM121.722 36.68V18.82H124.282V36.68H121.722ZM126.386 32.52V30.12L132.846 19.6H136.306V30.32H138.386V32.52H136.306V35.12H133.586V32.52H126.386ZM129.106 30.32H133.586V23.02L129.106 30.32ZM140.489 36.6V31H143.209V34.36H155.889V36.6H140.489ZM152.769 32.3V18.82H155.489V23.7H157.889V26.14H155.489V32.3H152.769ZM139.689 21.22V18.98H150.289V26.72H147.569V21.22H139.689ZM139.189 29.74V27.6H142.469V23.82H145.309V27.6H151.969V29.74H139.189ZM64.5554 61.2H73.7234C76.8434 61.2 78.7394 62.76 78.7394 65.208C78.7394 67.656 76.8434 69.216 73.7234 69.216H64.5554C61.4354 69.216 59.5394 67.656 59.5394 65.208C59.5394 62.76 61.4354 61.2 64.5554 61.2ZM58.4594 59.448V56.88H68.5634V53.064H71.9714V56.88H79.8194V59.448H58.4594ZM68.5154 50.568V47.88H78.4274V55.704H75.1634V50.568H68.5154ZM64.3634 55.704V50.568H59.4674V47.88H67.6274V55.704H64.3634ZM64.7714 66.624H73.5074C74.7314 66.624 75.4754 66.024 75.4754 65.208C75.4754 64.392 74.7314 63.792 73.5074 63.792H64.7714C63.5474 63.792 62.8034 64.392 62.8034 65.208C62.8034 66.024 63.5474 66.624 64.7714 66.624ZM93.1201 60.12V47.904H96.1921V52.44H98.4721V47.784H101.544V60.12H98.4721V55.368H96.1921V60.12H93.1201ZM81.3841 59.904V57.288C83.6401 56.736 85.1521 55.056 85.1521 52.872V51.72H81.6241V49.128H85.0801V47.208H88.5121V49.128H91.8001V51.72H88.4401V52.872C88.4401 55.056 89.9281 56.448 92.0641 57.096V59.688C90.0721 59.28 88.1281 58.296 86.8321 56.808C85.4881 58.392 83.5441 59.496 81.3841 59.904ZM83.3041 63.648V60.96H101.544V69.216H98.2801V63.648H83.3041ZM104.789 62.328V53.64C104.789 49.992 106.781 47.904 109.709 47.904C112.637 47.904 114.629 49.992 114.629 53.64V56.28H116.645V47.904H119.717V68.736H116.645V59.208H114.629V62.328C114.629 65.976 112.637 68.064 109.709 68.064C106.781 68.064 104.789 65.976 104.789 62.328ZM121.277 69.216V47.784H124.349V69.216H121.277ZM111.557 62.376V53.592C111.557 51.768 110.861 50.64 109.709 50.64C108.557 50.64 107.861 51.768 107.861 53.592V62.376C107.861 64.2 108.557 65.328 109.709 65.328C110.861 65.328 111.557 64.2 111.557 62.376ZM134.668 69.12V62.712H149.596V61.272H134.668V58.8H152.908V65.088H137.98V66.648H153.388V69.12H134.668ZM133.108 57.264V54.696H149.644V50.568H134.428V47.88H152.908V54.696H154.468V57.264H133.108ZM170.403 60.96H167.811C164.739 60.96 162.507 59.496 162.507 56.52C162.507 53.544 164.739 52.08 167.811 52.08H170.403C173.475 52.08 175.707 53.544 175.707 56.52C175.707 59.496 173.475 60.96 170.403 60.96ZM163.467 69.12V62.16H166.731V66.432H181.707V69.12H163.467ZM177.963 63.48V47.784H181.227V53.64H184.107V56.568H181.227V63.48H177.963ZM162.027 51.336V48.864H167.379V47.112H170.835V48.864H176.187V51.336H162.027ZM168.267 58.368H169.947C171.531 58.368 172.443 57.696 172.443 56.52C172.443 55.344 171.531 54.672 169.947 54.672H168.267C166.731 54.672 165.771 55.344 165.771 56.52C165.771 57.696 166.731 58.368 168.267 58.368ZM185.072 67.944V64.992C188.24 64.008 190.232 60.576 190.232 55.944V51.12H185.312V48.384H198.272V51.12H193.616V55.944C193.616 60.096 195.344 63.576 198.512 64.92V67.872C195.968 67.104 193.184 64.8 191.984 62.328C190.52 65.232 187.952 67.176 185.072 67.944ZM200.768 69.216V47.784H204.032V55.44H206.912V58.368H204.032V69.216H200.768Z" fill="white"/>
<defs>
<filter id="filter0_d_22_2123" x="0" y="0" width="264" height="108" filterUnits="userSpaceOnUse" color-interpolation-filters="sRGB">
<feFlood flood-opacity="0" result="BackgroundImageFix"/>
<feColorMatrix in="SourceAlpha" type="matrix" values="0 0 0 0 0 0 0 0 0 0 0 0 0 0 0 0 0 0 127 0" result="hardAlpha"/>
<feOffset dy="4"/>
<feGaussianBlur stdDeviation="2"/>
<feComposite in2="hardAlpha" operator="out"/>
<feColorMatrix type="matrix" values="0 0 0 0 0 0 0 0 0 0 0 0 0 0 0 0 0 0 0.25 0"/>
<feBlend mode="normal" in2="BackgroundImageFix" result="effect1_dropShadow_22_2123"/>
<feBlend mode="normal" in="SourceGraphic" in2="effect1_dropShadow_22_2123" result="shape"/>
</filter>
</defs>
</svg>
