<svg width="264" height="108" viewBox="0 0 264 108" fill="none" xmlns="http://www.w3.org/2000/svg">
<g filter="url(#filter0_d_22_2127)">
<path fill-rule="evenodd" clip-rule="evenodd" d="M215 0H49C24.15 0 4 20.15 4 45C4 69.85 24.15 90 49 90H122L132 100L142 90H215C239.85 90 260 69.85 260 45C260 20.15 239.85 0 215 0Z" fill="white"/>
</g>
<path d="M115.437 53.216V31.784H118.701V53.216H115.437ZM99.7408 45.992V37.976C99.7408 34.136 102.285 31.904 106.149 31.904C110.013 31.904 112.557 34.136 112.557 37.976V45.992C112.557 49.832 110.013 52.064 106.149 52.064C102.285 52.064 99.7408 49.832 99.7408 45.992ZM109.293 46.088V37.88C109.293 35.912 108.069 34.616 106.149 34.616C104.229 34.616 103.005 35.912 103.005 37.88V46.088C103.005 48.056 104.229 49.352 106.149 49.352C108.069 49.352 109.293 48.056 109.293 46.088ZM122.305 44.024V31.976H125.377V35.36H129.073V31.976H132.145V36.56H134.401V31.904H137.473V47.24H134.401V39.488H132.145V44.024H122.305ZM123.985 53.12V45.92H127.249V50.432H142.465V53.12H123.985ZM138.913 47.48V31.784H141.985V47.48H138.913ZM125.377 41.432H129.073V37.952H125.377V41.432ZM144.51 52.4V49.64H165.87V52.4H144.51ZM146.31 46.424V32.24H164.19V34.976H149.574V37.88H163.998V40.568H149.574V43.688H164.55V46.424H146.31Z" fill="#4D4D4D"/>
<defs>
<filter id="filter0_d_22_2127" x="0" y="0" width="264" height="108" filterUnits="userSpaceOnUse" color-interpolation-filters="sRGB">
<feFlood flood-opacity="0" result="BackgroundImageFix"/>
<feColorMatrix in="SourceAlpha" type="matrix" values="0 0 0 0 0 0 0 0 0 0 0 0 0 0 0 0 0 0 127 0" result="hardAlpha"/>
<feOffset dy="4"/>
<feGaussianBlur stdDeviation="2"/>
<feComposite in2="hardAlpha" operator="out"/>
<feColorMatrix type="matrix" values="0 0 0 0 0 0 0 0 0 0 0 0 0 0 0 0 0 0 0.25 0"/>
<feBlend mode="normal" in2="BackgroundImageFix" result="effect1_dropShadow_22_2127"/>
<feBlend mode="normal" in="SourceGraphic" in2="effect1_dropShadow_22_2127" result="shape"/>
</filter>
</defs>
</svg>
