<svg width="220" height="102" viewBox="0 0 220 102" fill="none" xmlns="http://www.w3.org/2000/svg">
<g filter="url(#filter0_d_54_9834)">
<path d="M170.87 3.80005H42.71C20.8947 3.80005 3.20996 21.4826 3.20996 43.295C3.20996 65.1075 20.8947 82.79 42.71 82.79H170.87C192.685 82.79 210.37 65.1075 210.37 43.295C210.37 21.4826 192.685 3.80005 170.87 3.80005Z" fill="white"/>
<path d="M116.556 82.793L106.798 73.0349L97.0395 82.793L106.798 92.5511L116.556 82.793Z" fill="white"/>
<g clip-path="url(#clip0_54_9834)">
<path d="M32 34.5159H34.8692V40.9229H38.0963V34.5159H40.9655V52.5891H32V34.5159ZM38.0911 50.0358V43.4762H34.8639V50.0358H38.0911ZM42.6133 34.1106H45.4825V41.3651H47.2724V34H50.1416V54H47.2724V44.1027H45.4825V53.5525H42.6133V34.1106Z" fill="#3A62AF"/>
<path d="M53.9426 46.7455H60.8655V45.1977H52.4896V42.8023H72.4212V45.1977H64.0453V46.7455H70.9682V53.9105H53.9479V46.7455H53.9426ZM58.6702 41.7073C55.443 41.7073 53.4952 40.2069 53.4952 37.8536C53.4952 35.5004 55.443 34 58.6702 34H66.2406C69.4678 34 71.4157 35.5004 71.4157 37.8536C71.4157 40.2069 69.4678 41.7073 66.2406 41.7073H58.6702ZM66.1037 39.2909C67.4672 39.2909 68.3675 38.7539 68.3675 37.8589C68.3675 36.9639 67.4725 36.427 66.1037 36.427H58.8018C57.4383 36.427 56.5381 36.9639 56.5381 37.8589C56.5381 38.7539 57.433 39.2909 58.8018 39.2909H66.1037ZM67.92 51.4941V49.1671H56.9908V51.4941H67.92Z" fill="#3A62AF"/>
<path d="M73.7636 49.9937H88.299V52.568H73.7636V49.9937ZM80.3022 46.7455C76.3169 46.7455 74.1005 44.2395 74.1005 40.5175C74.1005 36.7955 76.3169 34.2895 80.3022 34.2895H80.8865C84.8718 34.2895 87.0882 36.7955 87.0882 40.5175C87.0882 44.2395 84.8718 46.7455 80.8865 46.7455H80.3022ZM81.0655 44.1922C82.8555 44.1922 84.0453 42.7128 84.0453 40.5175C84.0453 38.3222 82.8607 36.8429 81.0655 36.8429H80.1232C78.3332 36.8429 77.1434 38.3222 77.1434 40.5175C77.1434 42.7128 78.328 44.1922 80.1232 44.1922H81.0655ZM89.194 34H92.2422V54H89.194V34Z" fill="#3A62AF"/>
<path d="M100.523 43.0919C103.524 42.597 105.788 39.712 105.788 36.6639V34.1106H108.947V36.6639C108.947 39.6436 111.005 42.239 113.985 42.9129V45.3556C111.342 44.8608 108.81 43.1392 107.357 41.2809C105.877 43.4077 103.414 45.0187 100.523 45.5346V43.0919ZM102.761 46.9666H105.809V51.3993H119.786V53.9052H102.766V46.9613L102.761 46.9666ZM116.285 39.8647H112.39V37.243H116.285V34H119.334V48.646H116.285V39.87V39.8647Z" fill="#3A62AF"/>
<path d="M123.587 48.5144H137.517V47.6616H123.587V45.3978H130.51V44.0764H122.134V41.6811H142.066V44.0764H133.69V45.3978H140.613V50.6834H126.683V51.6469H141.06V53.9106H123.593V48.5144H123.587ZM123.587 34.0896H140.608V40.7177H123.587V34.0896ZM137.565 38.3012V36.5113H126.635V38.3012H137.565Z" fill="#3A62AF"/>
<path d="M142.845 42.0863C145.846 41.6389 148.11 39.0645 148.11 36.1058V34.1106H151.268V36.1058C151.268 38.9961 153.327 41.323 156.306 41.9073V44.3501C153.664 43.9026 151.131 42.4022 149.678 40.5438C148.199 42.6707 145.735 44.0605 142.85 44.5291V42.0863H142.845ZM149.405 54C146.177 54 144.187 52.389 144.187 49.8094C144.187 47.2298 146.183 45.6188 149.405 45.6188H156.438C159.665 45.6188 161.655 47.2298 161.655 49.8094C161.655 52.389 159.66 54 156.438 54H149.405ZM156.233 51.5836C157.691 51.5836 158.607 50.8887 158.607 49.8147C158.607 48.7407 157.691 48.0458 156.233 48.0458H149.605C148.146 48.0458 147.23 48.7407 147.23 49.8147C147.23 50.8887 148.146 51.5836 149.605 51.5836H156.233ZM158.16 34H161.208V37.8958H163.898V40.6281H161.208V45.1503H158.16V34Z" fill="#3A62AF"/>
<path d="M164.793 50.0569C167.752 49.1408 169.61 45.9347 169.61 41.6125V37.1113H165.019V34.558H177.112V37.1113H172.769V41.6125C172.769 45.4872 174.38 48.7355 177.338 49.9884V52.7418C174.964 52.0258 172.369 49.8726 171.247 47.5667C169.878 50.278 167.483 52.089 164.798 52.8102V50.0569H164.793ZM179.439 34H182.487V41.144H185.177V43.8763H182.487V54H179.439V34Z" fill="#3A62AF"/>
</g>
</g>
<defs>
<filter id="filter0_d_54_9834" x="0.209961" y="0.800049" width="219.16" height="100.751" filterUnits="userSpaceOnUse" color-interpolation-filters="sRGB">
<feFlood flood-opacity="0" result="BackgroundImageFix"/>
<feColorMatrix in="SourceAlpha" type="matrix" values="0 0 0 0 0 0 0 0 0 0 0 0 0 0 0 0 0 0 127 0" result="hardAlpha"/>
<feOffset dx="3" dy="3"/>
<feGaussianBlur stdDeviation="3"/>
<feColorMatrix type="matrix" values="0 0 0 0 0 0 0 0 0 0 0 0 0 0 0 0 0 0 0.4 0"/>
<feBlend mode="normal" in2="BackgroundImageFix" result="effect1_dropShadow_54_9834"/>
<feBlend mode="normal" in="SourceGraphic" in2="effect1_dropShadow_54_9834" result="shape"/>
</filter>
<clipPath id="clip0_54_9834">
<rect width="153.172" height="20" fill="white" transform="translate(32 34)"/>
</clipPath>
</defs>
</svg>
