<svg width="200" height="301" viewBox="0 0 200 301" fill="none" xmlns="http://www.w3.org/2000/svg">
<path d="M200 186V14C200 6.27 193.73 0 186 0H14C6.27 0 0 6.27 0 14V186C0 193.39 5.74 199.43 13 199.95V200.14C5.74 200.65 0 206.7 0 214.09V286.09C0 293.82 6.27 300.09 14 300.09H186C193.73 300.09 200 293.82 200 286.09V214.09C200 206.7 194.26 200.66 187 200.14V199.95C194.26 199.44 200 193.39 200 186ZM41 199.59H159V200.59H41V199.59Z" fill="black"/>
<path d="M156.52 90.1853L150.624 103.631L143.953 90.1853H138.82L148.277 108.833L144.369 117.538H149.352L161.503 90.1737H156.52V90.1853ZM135.965 110.96H131.086V109.018C129.329 110.532 127.225 111.388 124.67 111.388C118.831 111.388 114.265 106.636 114.265 100.567C114.265 94.4975 118.831 89.7459 124.67 89.7459C127.213 89.7459 129.329 90.5899 131.086 92.1159V90.1737H135.965V110.96ZM131.652 100.567C131.652 96.6478 128.924 93.6651 125.282 93.6651C121.641 93.6651 118.912 96.6363 118.912 100.567C118.912 104.498 121.641 107.469 125.282 107.469C128.924 107.469 131.652 104.498 131.652 100.567ZM90.0215 117.538H95.1083V109.203C96.8309 110.613 98.8656 111.388 101.316 111.388C107.155 111.388 111.721 106.636 111.721 100.567C111.721 94.4975 107.155 89.7459 101.316 89.7459C98.7731 89.7459 96.6574 90.5899 94.9002 92.1159V90.1737H90.0215V117.538ZM100.692 93.6882C104.311 93.6882 107.062 96.6594 107.062 100.59C107.062 104.521 104.334 107.492 100.692 107.492C97.0505 107.492 94.3221 104.521 94.3221 100.59C94.3221 96.6594 97.0505 93.6882 100.692 93.6882Z" fill="#00DE5A"/>
<path d="M80.9115 101.214C80.9115 112.925 71.42 122.429 59.6972 122.429C47.9744 122.429 38.4829 112.937 38.4829 101.214C38.4829 89.4915 47.9744 80 59.6972 80C71.42 80 80.9115 89.4915 80.9115 101.214ZM63.2464 91.2488V101.908L55.8358 91.2488H49.7201V111.18H56.1364V100.521L63.547 111.18H69.6627V91.2488H63.2464Z" fill="#00DE5A"/>
<path fill-rule="evenodd" clip-rule="evenodd" d="M71.99 260.24C71.99 270.88 66.99 276.21 60.35 276.21C53.71 276.21 48.71 270.87 48.71 260.24C48.71 249.61 53.71 244.23 60.35 244.23C66.99 244.23 71.99 249.57 71.99 260.24ZM55.12 260.24C55.12 267.15 57.36 270.28 60.34 270.28C63.32 270.28 65.57 267.15 65.57 260.24C65.57 253.33 63.33 250.16 60.34 250.16C57.35 250.16 55.12 253.3 55.12 260.24Z" fill="white"/>
<path d="M31.0801 266.58C31.3401 269.01 32.7201 270.42 35.5201 270.42C38.3201 270.42 39.9601 268.37 39.9601 265.57C39.9601 262.77 38.3201 260.76 35.4101 260.76C33.2801 260.76 31.9401 261.69 31.1201 262.81H24.9601L25.8501 245.04H45.0701V250.83H32.0101L31.6701 256.54C32.9801 255.76 34.6201 255.27 36.5601 255.27C42.5301 255.27 46.5601 259.11 46.5601 265.57C46.5601 272.03 41.7801 276.17 35.5101 276.17C28.9001 276.17 24.8701 272.44 24.3901 266.58H31.0801Z" fill="white"/>
<path d="M72.1802 278.45H77.1402L79.4502 268.78H73.5202L72.1802 278.45Z" fill="white"/>
<path fill-rule="evenodd" clip-rule="evenodd" d="M103.98 260.24C103.98 270.88 98.9802 276.21 92.3402 276.21C85.7002 276.21 80.7002 270.87 80.7002 260.24C80.7002 249.61 85.7002 244.23 92.3402 244.23C98.9802 244.23 103.98 249.57 103.98 260.24ZM87.1102 260.24C87.1102 267.15 89.3502 270.28 92.3302 270.28C95.3102 270.28 97.5602 267.15 97.5602 260.24C97.5602 253.33 95.3202 250.16 92.3302 250.16C89.3402 250.16 87.1102 253.3 87.1102 260.24Z" fill="white"/>
<path fill-rule="evenodd" clip-rule="evenodd" d="M117.68 276.21C124.32 276.21 129.32 270.88 129.32 260.24C129.32 249.57 124.32 244.23 117.68 244.23C111.04 244.23 106.04 249.61 106.04 260.24C106.04 270.87 111.04 276.21 117.68 276.21ZM117.68 270.28C114.69 270.28 112.45 267.15 112.45 260.24C112.45 253.3 114.7 250.16 117.68 250.16C120.66 250.16 122.9 253.33 122.9 260.24C122.9 267.15 120.67 270.28 117.68 270.28Z" fill="white"/>
<path fill-rule="evenodd" clip-rule="evenodd" d="M154.67 260.24C154.67 270.88 149.67 276.21 143.03 276.21C136.39 276.21 131.39 270.87 131.39 260.24C131.39 249.61 136.39 244.23 143.03 244.23C149.67 244.23 154.67 249.57 154.67 260.24ZM137.8 260.24C137.8 267.15 140.04 270.28 143.02 270.28C146 270.28 148.25 267.15 148.25 260.24C148.25 253.33 146.01 250.16 143.02 250.16C140.03 250.16 137.8 253.3 137.8 260.24Z" fill="white"/>
<path d="M158.33 268.04H163.29V271.25H165.37V268.04H165.68C168.24 268.04 170.49 267.83 171.62 267.33V265.61C170.38 266.13 168.2 266.32 165.74 266.32H158.33V268.04Z" fill="white"/>
<path fill-rule="evenodd" clip-rule="evenodd" d="M164.71 258.08C161.6 258.08 159.4 259.31 159.4 261.56C159.4 263.82 161.58 265.06 164.71 265.06C167.84 265.06 170.02 263.8 170.02 261.56C170.02 259.32 167.82 258.08 164.71 258.08ZM164.71 263.43C162.82 263.43 161.44 262.8 161.44 261.56C161.44 260.32 162.82 259.71 164.71 259.71C166.6 259.71 167.98 260.32 167.98 261.56C167.98 262.8 166.6 263.43 164.71 263.43Z" fill="white"/>
<path d="M175.66 275.72V273.96H162.07V270.29H159.99V275.72H175.66Z" fill="white"/>
<path d="M173.13 258.03V269.28H167.7V270.96H173.13V272.07H175.21V258.03H173.13Z" fill="white"/>
</svg>
