<svg width="180" height="271" viewBox="0 0 180 271" fill="none" xmlns="http://www.w3.org/2000/svg">
<path d="M180 167.4V12.6C180 5.643 174.357 0 167.4 0H12.6C5.643 0 0 5.643 0 12.6V167.4C0 174.051 5.166 179.487 11.7 179.955V180.126C5.166 180.585 0 186.03 0 192.681V257.481C0 264.438 5.643 270.081 12.6 270.081H167.4C174.357 270.081 180 264.438 180 257.481V192.681C180 186.03 174.834 180.594 168.3 180.126V179.955C174.834 179.496 180 174.051 180 167.4ZM36.9 179.631H143.1V180.531H36.9V179.631Z" fill="black"/>
<path d="M140.868 81.1667L135.562 93.2675L129.558 81.1667H124.938L133.449 97.9497L129.933 105.785H134.417L145.353 81.1563H140.868V81.1667ZM122.368 99.8642H117.977V98.1162C116.396 99.4792 114.502 100.249 112.203 100.249C106.948 100.249 102.838 95.9728 102.838 90.5103C102.838 85.0477 106.948 80.7713 112.203 80.7713C114.492 80.7713 116.396 81.5309 117.977 82.9043V81.1563H122.368V99.8642ZM118.487 90.5103C118.487 86.983 116.032 84.2986 112.754 84.2986C109.477 84.2986 107.021 86.9726 107.021 90.5103C107.021 94.0479 109.477 96.7219 112.754 96.7219C116.032 96.7219 118.487 94.0479 118.487 90.5103ZM81.0195 105.785H85.5976V98.2827C87.1479 99.5521 88.9792 100.249 91.185 100.249C96.4394 100.249 100.549 95.9728 100.549 90.5103C100.549 85.0477 96.4394 80.7713 91.185 80.7713C88.8959 80.7713 86.9918 81.5309 85.4103 82.9043V81.1563H81.0195V105.785ZM90.6231 84.3194C93.8798 84.3194 96.3562 86.9934 96.3562 90.5311C96.3562 94.0687 93.9006 96.7428 90.6231 96.7428C87.3456 96.7428 84.8901 94.0687 84.8901 90.5311C84.8901 86.9934 87.3456 84.3194 90.6231 84.3194Z" fill="#00DE5A"/>
<path d="M72.8205 91.0929C72.8205 101.633 64.2781 110.186 53.7276 110.186C43.1771 110.186 34.6348 101.643 34.6348 91.0929C34.6348 80.5424 43.1771 72 53.7276 72C64.2781 72 72.8205 80.5424 72.8205 91.0929ZM56.9219 82.1239V91.7171L50.2524 82.1239H44.7483V100.062H50.5229V90.4686L57.1924 100.062H62.6966V82.1239H56.9219Z" fill="#00DE5A"/>
<path d="M41.409 228.033C41.409 231.192 39.096 233.505 36.81 233.91C39.33 234.315 42.156 236.493 42.156 240.021C42.156 245.295 37.692 248.589 32.013 248.589C26.001 248.589 22.275 245.232 21.834 239.958H27.846C28.08 242.145 29.457 243.45 32.013 243.45C34.569 243.45 36.207 242.073 36.207 240.057C36.207 237.771 34.29 236.565 31.437 236.565H28.719V231.597H31.437C33.921 231.597 35.397 230.256 35.397 228.168C35.397 226.08 34.056 224.91 31.77 224.91C29.484 224.91 28.278 226.827 28.278 228.771H22.266C22.266 223.56 26.199 219.807 31.806 219.807C37.413 219.807 41.409 223.128 41.409 228.033Z" fill="white"/>
<path d="M64.9261 234.216C64.9261 243.792 60.4261 248.589 54.4501 248.589C48.4741 248.589 43.9741 243.783 43.9741 234.216C43.9741 224.649 48.4741 219.807 54.4501 219.807C60.4261 219.807 64.9261 224.613 64.9261 234.216ZM49.7431 234.216C49.7431 240.435 51.7591 243.252 54.4501 243.252C57.1411 243.252 59.1481 240.435 59.1481 234.216C59.1481 227.997 57.1321 225.144 54.4501 225.144C51.7681 225.144 49.7431 227.97 49.7431 234.216Z" fill="white"/>
<path d="M65.0973 250.605L66.3033 241.902H71.6493L69.5703 250.605H65.0973Z" fill="white"/>
<path d="M93.7173 234.216C93.7173 243.792 89.2173 248.589 83.2413 248.589C77.2653 248.589 72.7653 243.783 72.7653 234.216C72.7653 224.649 77.2653 219.807 83.2413 219.807C89.2173 219.807 93.7173 224.613 93.7173 234.216ZM78.5343 234.216C78.5343 240.435 80.5503 243.252 83.2413 243.252C85.9323 243.252 87.9393 240.435 87.9393 234.216C87.9393 227.997 85.9233 225.144 83.2413 225.144C80.5593 225.144 78.5343 227.97 78.5343 234.216Z" fill="white"/>
<path d="M116.523 234.216C116.523 243.792 112.023 248.589 106.047 248.589C100.071 248.589 95.5711 243.783 95.5711 234.216C95.5711 224.649 100.071 219.807 106.047 219.807C112.023 219.807 116.523 224.613 116.523 234.216ZM101.34 234.216C101.34 240.435 103.356 243.252 106.038 243.252C108.72 243.252 110.745 240.435 110.745 234.216C110.745 227.997 108.729 225.144 106.038 225.144C103.347 225.144 101.34 227.97 101.34 234.216Z" fill="white"/>
<path d="M139.338 234.216C139.338 243.792 134.838 248.589 128.862 248.589C122.886 248.589 118.386 243.783 118.386 234.216C118.386 224.649 122.886 219.807 128.862 219.807C134.838 219.807 139.338 224.613 139.338 234.216ZM124.155 234.216C124.155 240.435 126.171 243.252 128.853 243.252C131.535 243.252 133.56 240.435 133.56 234.216C133.56 227.997 131.544 225.144 128.853 225.144C126.162 225.144 124.155 227.97 124.155 234.216Z" fill="white"/>
<path d="M142.497 241.236V239.688H149.166C151.38 239.688 153.342 239.517 154.458 239.049V240.597C153.441 241.047 151.416 241.236 149.112 241.236H148.833V244.125H146.961V241.236H142.497ZM143.46 235.404C143.46 233.379 145.44 232.272 148.239 232.272C151.038 232.272 153.018 233.388 153.018 235.404C153.018 237.42 151.056 238.554 148.239 238.554C145.422 238.554 143.46 237.438 143.46 235.404ZM158.094 246.564V248.148H143.991V243.261H145.863V246.564H158.103H158.094ZM145.296 235.404C145.296 236.52 146.538 237.087 148.239 237.087C149.94 237.087 151.182 236.52 151.182 235.404C151.182 234.288 149.94 233.739 148.239 233.739C146.538 233.739 145.296 234.288 145.296 235.404ZM155.817 242.352V232.227H157.689V244.863H155.817V243.864H150.93V242.352H155.817Z" fill="white"/>
</svg>
