<svg width="200" height="301" viewBox="0 0 200 301" fill="none" xmlns="http://www.w3.org/2000/svg">
<path d="M200 186V14C200 6.27 193.73 0 186 0H14C6.27 0 0 6.27 0 14V186C0 193.39 5.74 199.43 13 199.95V200.14C5.74 200.65 0 206.7 0 214.09V286.09C0 293.82 6.27 300.09 14 300.09H186C193.73 300.09 200 293.82 200 286.09V214.09C200 206.7 194.26 200.66 187 200.14V199.95C194.26 199.44 200 193.39 200 186ZM41 199.59H159V200.59H41V199.59Z" fill="black"/>
<path d="M156.52 90.1853L150.624 103.631L143.953 90.1853H138.82L148.277 108.833L144.369 117.538H149.352L161.503 90.1737H156.52V90.1853ZM135.965 110.96H131.086V109.018C129.329 110.532 127.225 111.388 124.67 111.388C118.831 111.388 114.265 106.636 114.265 100.567C114.265 94.4975 118.831 89.7459 124.67 89.7459C127.213 89.7459 129.329 90.5899 131.086 92.1159V90.1737H135.965V110.96ZM131.652 100.567C131.652 96.6478 128.924 93.6651 125.282 93.6651C121.641 93.6651 118.912 96.6363 118.912 100.567C118.912 104.498 121.641 107.469 125.282 107.469C128.924 107.469 131.652 104.498 131.652 100.567ZM90.0215 117.538H95.1083V109.203C96.8309 110.613 98.8656 111.388 101.317 111.388C107.155 111.388 111.721 106.636 111.721 100.567C111.721 94.4975 107.155 89.7459 101.317 89.7459C98.7731 89.7459 96.6575 90.5899 94.9002 92.1159V90.1737H90.0215V117.538ZM100.692 93.6882C104.311 93.6882 107.062 96.6594 107.062 100.59C107.062 104.521 104.334 107.492 100.692 107.492C97.0505 107.492 94.3222 104.521 94.3222 100.59C94.3222 96.6594 97.0505 93.6882 100.692 93.6882Z" fill="#00DE5A"/>
<path d="M80.9115 101.214C80.9115 112.925 71.42 122.429 59.6972 122.429C47.9744 122.429 38.4829 112.937 38.4829 101.214C38.4829 89.4915 47.9744 80 59.6972 80C71.42 80 80.9115 89.4915 80.9115 101.214ZM63.2464 91.2488V101.908L55.8358 91.2488H49.7201V111.18H56.1364V100.521L63.547 111.18H69.6627V91.2488H63.2464Z" fill="#00DE5A"/>
<path d="M42.1798 275.47H35.4198V250.95H30.0498V245.05H42.1798V275.47Z" fill="white"/>
<path d="M70.51 260.24C70.51 270.88 65.51 276.21 58.87 276.21C52.23 276.21 47.23 270.87 47.23 260.24C47.23 249.61 52.23 244.23 58.87 244.23C65.51 244.23 70.51 249.57 70.51 260.24ZM53.64 260.24C53.64 267.15 55.88 270.28 58.87 270.28C61.86 270.28 64.1 267.15 64.1 260.24C64.1 253.33 61.86 250.16 58.87 250.16C55.88 250.16 53.64 253.3 53.64 260.24Z" fill="white"/>
<path d="M75.6602 278.45H70.7002L72.0402 268.78H77.9702L75.6602 278.45Z" fill="white"/>
<path d="M102.5 260.24C102.5 270.88 97.4997 276.21 90.8597 276.21C84.2197 276.21 79.2197 270.87 79.2197 260.24C79.2197 249.61 84.2197 244.23 90.8597 244.23C97.4997 244.23 102.5 249.57 102.5 260.24ZM85.6297 260.24C85.6297 267.15 87.8697 270.28 90.8597 270.28C93.8497 270.28 96.0897 267.15 96.0897 260.24C96.0897 253.33 93.8497 250.16 90.8597 250.16C87.8697 250.16 85.6297 253.3 85.6297 260.24Z" fill="white"/>
<path d="M127.84 260.24C127.84 270.88 122.84 276.21 116.2 276.21C109.56 276.21 104.56 270.87 104.56 260.24C104.56 249.61 109.56 244.23 116.2 244.23C122.84 244.23 127.84 249.57 127.84 260.24ZM110.97 260.24C110.97 267.15 113.21 270.28 116.2 270.28C119.19 270.28 121.43 267.15 121.43 260.24C121.43 253.33 119.19 250.16 116.2 250.16C113.21 250.16 110.97 253.3 110.97 260.24Z" fill="white"/>
<path d="M153.19 260.24C153.19 270.88 148.19 276.21 141.55 276.21C134.91 276.21 129.91 270.87 129.91 260.24C129.91 249.61 134.91 244.23 141.55 244.23C148.19 244.23 153.19 249.57 153.19 260.24ZM136.32 260.24C136.32 267.15 138.56 270.28 141.55 270.28C144.54 270.28 146.78 267.15 146.78 260.24C146.78 253.33 144.54 250.16 141.55 250.16C138.56 250.16 136.32 253.3 136.32 260.24Z" fill="white"/>
<path d="M158.33 268.04V266.32H165.74C168.2 266.32 170.38 266.13 171.62 265.61V267.33C170.49 267.83 168.24 268.04 165.68 268.04H165.37V271.25H163.29V268.04H158.33ZM159.4 261.56C159.4 259.31 161.6 258.08 164.71 258.08C167.82 258.08 170.02 259.32 170.02 261.56C170.02 263.8 167.84 265.06 164.71 265.06C161.58 265.06 159.4 263.82 159.4 261.56ZM175.66 273.96V275.72H159.99V270.29H162.07V273.96H175.67H175.66ZM161.44 261.56C161.44 262.8 162.82 263.43 164.71 263.43C166.6 263.43 167.98 262.8 167.98 261.56C167.98 260.32 166.6 259.71 164.71 259.71C162.82 259.71 161.44 260.32 161.44 261.56ZM173.13 269.28V258.03H175.21V272.07H173.13V270.96H167.7V269.28H173.13Z" fill="white"/>
</svg>
