<svg width="200" height="301" viewBox="0 0 200 301" fill="none" xmlns="http://www.w3.org/2000/svg">
<path d="M200 186V14C200 6.27 193.73 0 186 0H14C6.27 0 0 6.27 0 14V186C0 193.39 5.74 199.43 13 199.95V200.14C5.74 200.65 0 206.7 0 214.09V286.09C0 293.82 6.27 300.09 14 300.09H186C193.73 300.09 200 293.82 200 286.09V214.09C200 206.7 194.26 200.66 187 200.14V199.95C194.26 199.44 200 193.39 200 186ZM41 199.59H159V200.59H41V199.59Z" fill="#D4C3AF"/>
<path d="M59.9198 27.3098C59.7598 28.7398 59.7598 30.7098 59.9198 32.1798H59.9298C62.1998 32.2598 79.1198 32.2598 82.4798 32.1798C82.5998 30.8598 82.5598 28.6598 82.4798 27.3098C80.9298 27.2698 77.9198 27.2298 74.5998 27.2298C74.6398 26.2298 74.5998 25.2198 74.5598 24.4098C73.0198 24.1798 69.5398 24.1798 68.4998 24.4098C68.4198 25.2598 68.4198 26.2698 68.4198 27.2298C64.2498 27.2298 60.6898 27.2698 59.9198 27.3098Z" fill="white"/>
<path fill-rule="evenodd" clip-rule="evenodd" d="M82.9798 56.9698C83.1298 55.4998 83.1298 53.5698 82.9798 51.9498H82.9898C81.6798 51.8698 78.3198 51.8298 74.5698 51.8298V47.8098C80.1698 47.3098 82.2898 45.1898 82.2898 40.6298C82.2898 35.3398 79.3998 33.3298 71.5198 33.3298C63.6398 33.3298 60.7398 35.3398 60.7398 40.6298C60.7398 45.1798 62.8998 47.3098 68.5398 47.8098V51.8298C64.7898 51.8298 61.4298 51.8698 60.1598 51.9498C59.9698 53.3798 59.9698 55.4598 60.1598 56.9698C66.0598 57.1298 80.8998 57.1298 82.9798 56.9698ZM76.8798 40.6298C76.8798 42.4898 75.7598 43.2598 71.5098 43.2598C67.2598 43.2598 66.1398 42.4898 66.1398 40.6298C66.1398 38.7698 67.2598 37.9998 71.5098 37.9998C75.7598 37.9998 76.8798 38.7698 76.8798 40.6298Z" fill="white"/>
<path d="M90.9298 43.4198C92.5598 43.4198 93.7498 43.3798 94.3698 43.2998C94.5298 41.8398 94.5298 39.2898 94.3698 37.8198C93.5198 37.7798 92.3598 37.7398 90.9298 37.7398C90.9298 32.1098 90.8898 27.0498 90.8098 24.9998C89.4598 24.8098 86.0598 24.7698 85.0198 24.9998C84.8998 29.4798 84.8698 55.2798 85.0198 59.7598C86.3698 59.8798 89.6098 59.9098 90.8098 59.7598C90.8898 57.5598 90.9298 50.5998 90.9298 43.4198Z" fill="white"/>
<path d="M44.7803 46.2301C50.9203 46.2301 56.3703 46.2001 57.8003 46.0801H57.7903C57.9403 44.5701 57.9403 42.6001 57.7903 41.2501C54.1603 41.1701 32.6103 41.1001 24.5803 41.2501C24.4303 42.6801 24.4303 44.7701 24.5803 46.0801C26.5503 46.1501 32.4603 46.1901 38.7503 46.2301C38.7503 48.2301 38.7903 50.2801 38.8303 51.4401C40.3803 51.5601 43.3103 51.5601 44.7403 51.4401C44.7803 50.0901 44.7803 48.1201 44.7803 46.2301Z" fill="white"/>
<path d="M56.4503 59.8701C56.6003 58.4401 56.6003 56.2401 56.4503 54.8501C53.5503 54.7701 41.1603 54.8101 32.6203 54.8501C32.7003 53.1501 32.7003 50.6001 32.6203 48.6701C31.2303 48.5501 27.9103 48.5101 26.7103 48.6301C26.5903 50.9101 26.5203 57.0101 26.7103 59.8701C30.2303 60.0601 53.3603 60.0601 56.4503 59.8701Z" fill="white"/>
<path fill-rule="evenodd" clip-rule="evenodd" d="M27.1003 25.3101C26.9103 29.2501 26.8303 34.4201 27.1003 38.6701C30.1103 38.8601 52.7003 38.8201 55.2903 38.6701C55.5203 36.5501 55.5203 29.5201 55.2903 25.3101C53.1303 25.1901 29.4903 25.1601 27.1003 25.3101ZM49.7303 34.0401C48.1103 34.1201 34.4403 34.1201 32.6603 34.0401V29.9801C35.2103 29.9001 47.5703 29.9401 49.7303 29.9801V34.0401Z" fill="white"/>
<path d="M23.9697 85.7402C25.651 84.1524 27.5454 82.4289 29.4431 80.7024C30.593 79.6563 31.7442 78.609 32.8497 77.5902C32.8497 75.6202 32.8497 73.0702 32.8897 71.7202C33.9297 71.5302 37.5197 71.4902 38.8797 71.7202C38.9197 73.0701 38.9197 75.6198 38.9197 77.5897C39.3934 77.9438 39.8736 78.303 40.3574 78.6644C42.9889 80.63 45.7277 82.6757 48.1097 84.5002C47.5697 85.7002 45.8297 88.0502 44.9397 88.9002C42.3497 87.0902 38.9497 84.5702 35.9397 82.1802C33.1597 84.8802 29.9897 87.7402 27.5597 89.8302C26.5897 89.0602 24.6197 86.8902 23.9697 85.7402Z" fill="white"/>
<path fill-rule="evenodd" clip-rule="evenodd" d="M55.9497 99.0302C55.9497 104.75 52.3997 106.83 40.9697 106.83C28.9597 106.83 25.9897 104.2 25.9897 99.0302C25.9897 93.3502 29.5397 91.2702 40.9697 91.2702C52.9797 91.2702 55.9497 93.9002 55.9497 99.0302ZM50.0797 99.0302C50.0797 97.2102 49.0797 96.2102 40.9697 96.2102C32.8597 96.2102 31.8597 97.1002 31.8597 99.0302C31.8597 100.96 32.8597 101.89 40.9697 101.89C49.0797 101.89 50.0797 101 50.0797 99.0302Z" fill="white"/>
<path d="M58.6897 82.8502C58.0697 82.9302 56.9097 82.9702 55.3697 82.9702C55.3697 85.9802 55.3297 88.7602 55.2897 90.3502C54.0897 90.5002 50.8897 90.4702 49.5397 90.3502C49.4197 87.0302 49.4197 74.2802 49.5397 71.3502C50.5797 71.1902 53.9397 71.1602 55.2897 71.3502C55.3121 72.1488 55.3219 73.2123 55.3332 74.433C55.3422 75.3983 55.3521 76.4618 55.3697 77.5702C56.7197 77.5702 57.8797 77.6102 58.6897 77.6502C58.8097 79.1202 58.8097 81.4002 58.6897 82.8602V82.8502Z" fill="white"/>
<path fill-rule="evenodd" clip-rule="evenodd" d="M79.7398 91.3399C86.1098 91.3399 91.8598 91.3099 93.3298 91.1899C93.4798 89.6799 93.4798 87.7099 93.3298 86.3599C89.6998 86.2799 68.1498 86.2099 60.1198 86.3599C59.9698 87.7899 59.9698 89.8799 60.1198 91.1899C62.0498 91.2599 67.6498 91.2999 73.7098 91.3399C73.7098 92.2699 73.7098 93.1999 73.7498 94.0099C68.1898 94.0099 63.2398 94.0099 62.2398 94.0499C62.1198 97.2199 62.0498 103.17 62.2398 106.22C65.2598 106.49 88.2398 106.45 91.2098 106.22C91.3598 103.32 91.3598 97.4899 91.2098 94.0499C90.2798 94.0099 85.2998 94.0099 79.7398 94.0099C79.7398 93.7312 79.7441 93.4481 79.7485 93.1608C79.7574 92.5722 79.7667 91.9646 79.7398 91.3399ZM67.7998 98.7199C70.3498 98.6399 83.4798 98.6799 85.6398 98.7199V101.58C84.0198 101.66 69.5798 101.7 67.7998 101.58V98.7199Z" fill="white"/>
<path fill-rule="evenodd" clip-rule="evenodd" d="M61.8498 79.7599C61.7298 81.2599 61.7298 82.8499 61.8498 84.4299H61.8298C66.3898 84.5799 86.6298 84.5799 91.6098 84.4299C91.7298 82.6599 91.7298 81.2699 91.6098 79.7599C91.0084 79.7368 90.1728 79.727 89.1573 79.7152L89.1529 79.7151C88.4135 79.7065 87.5789 79.6967 86.6698 79.6799V76.3999C87.4992 76.3827 88.2732 76.3729 88.9656 76.3641L88.9672 76.3641C89.8853 76.3525 90.6599 76.3427 91.2298 76.3199C91.3098 74.6199 91.3098 73.0799 91.2298 71.6499C87.6398 71.4999 68.6398 71.5299 62.2298 71.6499C62.1098 73.0799 62.1098 74.8099 62.2298 76.3199C62.7897 76.343 63.5529 76.3528 64.477 76.3646L64.4789 76.3646C65.1553 76.3732 65.9177 76.383 66.7498 76.3999V79.6799C65.8465 79.6966 65.0114 79.7064 64.2745 79.715C63.2493 79.7269 62.4142 79.7366 61.8498 79.7599ZM80.9998 79.6399C78.2198 79.6399 75.2098 79.6399 72.4298 79.6799V76.4299H80.9998V79.6399Z" fill="white"/>
<path d="M102.155 89.6115L102.152 89.6115H102.15C99.5606 89.5928 97.2361 89.5759 95.6698 89.52C95.4798 88.01 95.4798 85.93 95.6698 84.5C98.8798 84.35 116.52 84.35 119.85 84.5C120 86.12 120 88.05 119.85 89.52C118.96 89.6 115.52 89.64 111.43 89.64C111.43 90.1657 111.432 90.7465 111.435 91.3423V91.3433C111.442 93.1952 111.45 95.192 111.39 96.13C110.04 96.28 107.18 96.25 105.64 96.13C105.56 94.82 105.56 91.84 105.6 89.64C104.429 89.628 103.268 89.6196 102.155 89.6115Z" fill="white"/>
<path d="M97.5698 76.97C97.4198 75.46 97.4198 73.38 97.5698 71.95C100.66 71.8 114.41 71.76 117.81 71.95C117.96 74.5 117.96 80.1 117.81 82.65C116.42 82.8 113.56 82.8 112.17 82.65C112.21 81.34 112.21 78.25 112.17 76.97C109.78 77.05 100.51 77.05 97.5698 76.97Z" fill="white"/>
<path d="M128.35 106.21C125.26 106.4 101.93 106.4 98.4198 106.21C98.2298 102.97 98.2998 96.75 98.4198 94.86C99.6198 94.74 102.78 94.74 104.17 94.86C104.21 95.94 104.21 99.84 104.17 101.19C112.71 101.15 125.45 101.11 128.35 101.19C128.5 102.7 128.5 104.78 128.35 106.21Z" fill="white"/>
<path d="M121.9 91.23C121.86 83.89 121.9 74.12 121.94 71.34C122.98 71.11 126.34 71.11 127.69 71.34C127.81 76.13 127.81 94.09 127.69 98.76C126.49 98.91 123.29 98.84 121.94 98.76C121.94 98.18 121.94 97.33 121.9 96.29C119.39 96.37 115.91 96.33 114.72 96.25C114.6 94.78 114.6 92.7 114.72 91.23C115.88 91.19 119.32 91.19 121.9 91.23Z" fill="white"/>
<path d="M35.4198 275.47H42.1798V245.05H30.0498V250.95H35.4198V275.47Z" fill="white"/>
<path fill-rule="evenodd" clip-rule="evenodd" d="M70.51 260.24C70.51 270.88 65.51 276.21 58.87 276.21C52.23 276.21 47.23 270.87 47.23 260.24C47.23 249.61 52.23 244.23 58.87 244.23C65.51 244.23 70.51 249.57 70.51 260.24ZM53.64 260.24C53.64 267.15 55.88 270.28 58.87 270.28C61.86 270.28 64.1 267.15 64.1 260.24C64.1 253.33 61.86 250.16 58.87 250.16C55.88 250.16 53.64 253.3 53.64 260.24Z" fill="white"/>
<path d="M70.7002 278.45H75.6602L77.9702 268.78H72.0402L70.7002 278.45Z" fill="white"/>
<path fill-rule="evenodd" clip-rule="evenodd" d="M102.5 260.24C102.5 270.88 97.4997 276.21 90.8597 276.21C84.2197 276.21 79.2197 270.87 79.2197 260.24C79.2197 249.61 84.2197 244.23 90.8597 244.23C97.4997 244.23 102.5 249.57 102.5 260.24ZM85.6297 260.24C85.6297 267.15 87.8697 270.28 90.8597 270.28C93.8497 270.28 96.0897 267.15 96.0897 260.24C96.0897 253.33 93.8497 250.16 90.8597 250.16C87.8697 250.16 85.6297 253.3 85.6297 260.24Z" fill="white"/>
<path fill-rule="evenodd" clip-rule="evenodd" d="M116.2 276.21C122.84 276.21 127.84 270.88 127.84 260.24C127.84 249.57 122.84 244.23 116.2 244.23C109.56 244.23 104.56 249.61 104.56 260.24C104.56 270.87 109.56 276.21 116.2 276.21ZM116.2 270.28C113.21 270.28 110.97 267.15 110.97 260.24C110.97 253.3 113.21 250.16 116.2 250.16C119.19 250.16 121.43 253.33 121.43 260.24C121.43 267.15 119.19 270.28 116.2 270.28Z" fill="white"/>
<path fill-rule="evenodd" clip-rule="evenodd" d="M153.19 260.24C153.19 270.88 148.19 276.21 141.55 276.21C134.91 276.21 129.91 270.87 129.91 260.24C129.91 249.61 134.91 244.23 141.55 244.23C148.19 244.23 153.19 249.57 153.19 260.24ZM136.32 260.24C136.32 267.15 138.56 270.28 141.55 270.28C144.54 270.28 146.78 267.15 146.78 260.24C146.78 253.33 144.54 250.16 141.55 250.16C138.56 250.16 136.32 253.3 136.32 260.24Z" fill="white"/>
<path d="M158.33 268.04H163.29V271.25H165.37V268.04H165.68C168.24 268.04 170.49 267.83 171.62 267.33V265.61C170.38 266.13 168.2 266.32 165.74 266.32H158.33V268.04Z" fill="white"/>
<path fill-rule="evenodd" clip-rule="evenodd" d="M164.71 258.08C161.6 258.08 159.4 259.31 159.4 261.56C159.4 263.82 161.58 265.06 164.71 265.06C167.84 265.06 170.02 263.8 170.02 261.56C170.02 259.32 167.82 258.08 164.71 258.08ZM164.71 263.43C162.82 263.43 161.44 262.8 161.44 261.56C161.44 260.32 162.82 259.71 164.71 259.71C166.6 259.71 167.98 260.32 167.98 261.56C167.98 262.8 166.6 263.43 164.71 263.43Z" fill="white"/>
<path d="M175.66 275.72V273.96H162.07V270.29H159.99V275.72H175.66Z" fill="white"/>
<path d="M173.13 258.03V269.28H167.7V270.96H173.13V272.07H175.21V258.03H173.13Z" fill="white"/>
</svg>
