<svg width="180" height="91" viewBox="0 0 180 91" fill="none" xmlns="http://www.w3.org/2000/svg">
<path d="M11.7 0V0.17C5.17 0.63 0 6.07 0 12.73V77.53C0 84.49 5.64 90.13 12.6 90.13H167.4C174.36 90.13 180 84.49 180 77.53V12.73C180 6.08 174.83 0.64 168.3 0.18V0.01H11.7V0Z" fill="black"/>
<path d="M135.401 16.1453L130.686 26.8983L125.351 16.1453H121.245L128.809 31.059L125.684 38.0212H129.669L139.386 16.136H135.401V16.1453ZM118.962 32.7603H115.06V31.207C113.655 32.4182 111.972 33.1024 109.928 33.1024C105.259 33.1024 101.607 29.3023 101.607 24.4482C101.607 19.594 105.259 15.7939 109.928 15.7939C111.963 15.7939 113.655 16.4689 115.06 17.6894V16.136H118.962V32.7603ZM115.513 24.4482C115.513 21.3138 113.331 18.9283 110.418 18.9283C107.506 18.9283 105.324 21.3045 105.324 24.4482C105.324 27.5918 107.506 29.968 110.418 29.968C113.331 29.968 115.513 27.5918 115.513 24.4482ZM82.2183 38.0212H86.2865V31.3549C87.6641 32.4829 89.2914 33.1024 91.2516 33.1024C95.9208 33.1024 99.5729 29.3023 99.5729 24.4482C99.5729 19.594 95.9208 15.7939 91.2516 15.7939C89.2175 15.7939 87.5254 16.4689 86.1201 17.6894V16.136H82.2183V38.0212ZM90.7523 18.9468C93.6463 18.9468 95.8468 21.323 95.8468 24.4667C95.8468 27.6103 93.6648 29.9865 90.7523 29.9865C87.8398 29.9865 85.6578 27.6103 85.6578 24.4667C85.6578 21.323 87.8398 18.9468 90.7523 18.9468Z" fill="#00DE5A"/>
<path d="M74.9327 24.9663C74.9327 34.3325 67.3417 41.9327 57.9663 41.9327C48.5909 41.9327 41 34.3417 41 24.9663C41 15.5909 48.5909 8 57.9663 8C67.3417 8 74.9327 15.5909 74.9327 24.9663ZM60.8048 16.9963V25.5211L54.8782 16.9963H49.9871V32.9364H55.1186V24.4116L61.0452 32.9364H65.9364V16.9963H60.8048Z" fill="#00DE5A"/>
<path fill-rule="evenodd" clip-rule="evenodd" d="M68.0782 63.8054C68.0782 72.3187 64.0793 76.5753 58.7652 76.5753C53.4511 76.5753 49.4521 72.3009 49.4521 63.8054C49.4521 55.3099 53.46 51 58.7652 51C64.0704 51 68.0782 55.2744 68.0782 63.8054ZM54.5885 63.8054C54.5885 69.3328 56.3836 71.8388 58.7652 71.8388C61.1468 71.8388 62.9507 69.3328 62.9507 63.8054C62.9507 58.278 61.1556 55.7454 58.7652 55.7454C56.3747 55.7454 54.5885 58.2603 54.5885 63.8054Z" fill="white"/>
<path d="M35.3585 68.8714C35.5629 70.8175 36.6737 71.9461 38.9131 71.9461C41.1525 71.9461 42.4677 70.3021 42.4677 68.0627C42.4677 65.8233 41.1525 64.2149 38.8332 64.2149C37.127 64.2149 36.0606 64.9614 35.403 65.8589H30.4621L31.173 51.6494H46.5466V56.2793H36.105L35.8295 60.8469C36.8781 60.2249 38.1844 59.8339 39.7396 59.8339C44.5116 59.8339 47.7374 62.9086 47.7374 68.0716C47.7374 73.2347 43.9162 76.5493 38.8954 76.5493C33.6079 76.5493 30.3821 73.5635 30 68.8803H35.3497L35.3585 68.8714Z" fill="white"/>
<path d="M68.2296 78.3699H72.193L74.0413 70.6387H69.296L68.2207 78.3699H68.2296Z" fill="white"/>
<path fill-rule="evenodd" clip-rule="evenodd" d="M93.6627 63.8054C93.6627 72.3187 89.6638 76.5753 84.3497 76.5753C79.0355 76.5753 75.0366 72.3009 75.0366 63.8054C75.0366 55.3099 79.0444 51 84.3585 51C89.6726 51 93.6716 55.2744 93.6716 63.8054H93.6627ZM80.173 63.8054C80.173 69.3328 81.9681 71.8388 84.3497 71.8388C86.7312 71.8388 88.5352 69.3328 88.5352 63.8054C88.5352 58.278 86.7401 55.7454 84.3497 55.7454C81.9592 55.7454 80.173 58.2603 80.173 63.8054Z" fill="white"/>
<path fill-rule="evenodd" clip-rule="evenodd" d="M104.62 76.5753C109.934 76.5753 113.933 72.3098 113.933 63.8054C113.933 55.3011 109.934 51 104.62 51C99.3056 51 95.3066 55.3011 95.3066 63.8054C95.3066 72.3098 99.3056 76.5753 104.62 76.5753ZM104.62 71.8299C102.229 71.8299 100.434 69.3239 100.434 63.7965C100.434 58.2691 102.238 55.7365 104.62 55.7365C107.001 55.7365 108.796 58.2691 108.796 63.7965C108.796 69.3239 107.01 71.8299 104.62 71.8299Z" fill="white"/>
<path fill-rule="evenodd" clip-rule="evenodd" d="M134.203 63.8054C134.203 72.3187 130.204 76.5753 124.89 76.5753C119.576 76.5753 115.577 72.3009 115.577 63.8054C115.577 55.3099 119.584 51 124.899 51C130.213 51 134.212 55.2744 134.212 63.8054H134.203ZM120.713 63.8054C120.713 69.3328 122.508 71.8388 124.89 71.8388C127.271 71.8388 129.075 69.3328 129.075 63.8054C129.075 58.278 127.28 55.7454 124.89 55.7454C122.499 55.7454 120.713 58.2603 120.713 63.8054Z" fill="white"/>
<path d="M137.135 70.0438H141.098V72.612H142.76V70.0438H143.009C145.053 70.0438 146.857 69.875 147.763 69.4751V68.0977C146.768 68.5153 145.026 68.6664 143.062 68.6664H137.135V70.0438Z" fill="white"/>
<path fill-rule="evenodd" clip-rule="evenodd" d="M142.236 62.0723C139.748 62.0723 137.988 63.0587 137.988 64.8537C137.988 66.6488 139.73 67.653 142.236 67.653C144.742 67.653 146.484 66.6488 146.484 64.8537C146.484 63.0587 144.724 62.0723 142.236 62.0723ZM142.236 66.3555C140.725 66.3555 139.623 65.849 139.623 64.8626C139.623 63.8762 140.725 63.3786 142.236 63.3786C143.747 63.3786 144.849 63.8673 144.849 64.8626C144.849 65.8579 143.747 66.3555 142.236 66.3555Z" fill="white"/>
<path d="M150.989 76.1843V74.7802H140.121V71.8477H138.459V76.1931H150.989V76.1843Z" fill="white"/>
<path d="M148.972 62.0372V71.0303H144.626V72.3722H148.972V73.2608H150.634V62.0283H148.972V62.0372Z" fill="white"/>
</svg>
