<svg width="749" height="1080" viewBox="0 0 749 1080" fill="none" xmlns="http://www.w3.org/2000/svg">
<g clip-path="url(#clip0_31_482)">
<path fill-rule="evenodd" clip-rule="evenodd" d="M366.47 183.97H382.42C385.92 183.97 388.79 186.94 388.79 190.56V1169.23C388.79 1172.86 385.92 1175.82 382.42 1175.82H366.47C362.96 1175.82 360.1 1172.85 360.1 1169.23V190.56C360.1 186.93 362.97 183.97 366.47 183.97Z" fill="#A05E17"/>
<path fill-rule="evenodd" clip-rule="evenodd" d="M365.49 184.05C362.45 184.54 360.1 187.28 360.1 190.56V1169.23C360.1 1172.51 362.45 1175.25 365.49 1175.74V184.05Z" fill="#D5A158"/>
<path fill-rule="evenodd" clip-rule="evenodd" d="M383.5 1175.73C386.5 1175.2 388.8 1172.48 388.8 1169.23V190.56C388.8 187.31 386.5 184.6 383.5 184.06V1175.72V1175.73Z" fill="#8D4D13"/>
<path fill-rule="evenodd" clip-rule="evenodd" d="M211.67 175.44V195.41C211.67 199.8 212.64 203.39 213.83 203.39H535.06C536.25 203.39 537.22 199.8 537.22 195.41V175.44C537.22 171.05 536.25 167.46 535.06 167.46H213.83C212.64 167.46 211.67 171.05 211.67 175.44Z" fill="#C87822"/>
<path fill-rule="evenodd" clip-rule="evenodd" d="M211.69 174.2C211.85 170.39 212.75 167.46 213.83 167.46H535.06C536.14 167.46 537.04 170.4 537.2 174.2H211.69Z" fill="#E4B067"/>
<path fill-rule="evenodd" clip-rule="evenodd" d="M537.19 196.76C537.02 200.51 536.12 203.39 535.06 203.39H213.83C212.76 203.39 211.87 200.51 211.7 196.76H537.2H537.19Z" fill="#8D4D13"/>
<path fill-rule="evenodd" clip-rule="evenodd" d="M364.79 -46H384.1C388.35 -46 391.82 -42.95 391.82 -39.22V967.75C391.82 971.48 388.35 974.53 384.1 974.53H364.79C360.54 974.53 357.07 971.48 357.07 967.75V-39.22C357.07 -42.95 360.54 -46 364.79 -46Z" fill="#C87822"/>
<path fill-rule="evenodd" clip-rule="evenodd" d="M363.6 -45.9199C359.92 -45.4099 357.08 -42.5899 357.08 -39.2199V967.75C357.08 971.12 359.92 973.94 363.6 974.45V-45.9199Z" fill="#E4B067"/>
<path fill-rule="evenodd" clip-rule="evenodd" d="M385.41 974.44C389.04 973.89 391.82 971.1 391.82 967.76V-39.2202C391.82 -42.5602 389.04 -45.3602 385.41 -45.9102V974.44Z" fill="#8D4D13"/>
<path fill-rule="evenodd" clip-rule="evenodd" d="M138.99 951.08V971.05C138.99 975.44 140.4 979.03 142.12 979.03H606.78C608.5 979.03 609.91 975.44 609.91 971.05V951.08C609.91 946.69 608.5 943.1 606.78 943.1H142.11C140.39 943.1 138.98 946.69 138.98 951.08H138.99Z" fill="#C87822"/>
<path fill-rule="evenodd" clip-rule="evenodd" d="M139.02 949.84C139.26 946.03 140.56 943.1 142.11 943.1H606.77C608.33 943.1 609.63 946.04 609.86 949.84H139.02Z" fill="#E4B067"/>
<path fill-rule="evenodd" clip-rule="evenodd" d="M609.86 972.4C609.61 976.15 608.32 979.03 606.78 979.03H142.11C140.57 979.03 139.28 976.15 139.03 972.4H609.86Z" fill="#8D4D13"/>
<path fill-rule="evenodd" clip-rule="evenodd" d="M225.16 79.1299H244.47C248.72 79.1299 251.83 82.7199 251.4 87.1099L133.72 1272.02C133.28 1276.41 129.45 1280 125.21 1280H105.9C101.65 1280 98.54 1276.41 98.97 1272.02L216.65 87.1099C217.09 82.7199 220.92 79.1299 225.16 79.1299Z" fill="#C87822"/>
<path fill-rule="evenodd" clip-rule="evenodd" d="M223.96 79.2197C220.22 79.8197 217.05 83.1397 216.66 87.1097L98.9801 1272.02C98.5901 1275.99 101.1 1279.31 104.72 1279.91L223.96 79.2197Z" fill="#E4B067"/>
<path fill-rule="evenodd" clip-rule="evenodd" d="M126.53 1279.89C130.22 1279.24 133.33 1275.95 133.72 1272.02L251.4 87.1102C251.79 83.1802 249.33 79.8902 245.77 79.2402L126.53 1279.88V1279.89Z" fill="#8D4D13"/>
<path fill-rule="evenodd" clip-rule="evenodd" d="M523.73 79.1299H504.42C500.18 79.1299 497.06 82.7199 497.49 87.1099L615.17 1272.02C615.6 1276.41 619.43 1280 623.68 1280H642.99C647.24 1280 650.35 1276.41 649.92 1272.02L532.24 87.1099C531.8 82.7199 527.97 79.1299 523.73 79.1299Z" fill="#C87822"/>
<path fill-rule="evenodd" clip-rule="evenodd" d="M524.94 79.2197C528.68 79.8197 531.85 83.1397 532.24 87.1097L649.92 1272.02C650.31 1275.99 647.8 1279.31 644.18 1279.91L524.94 79.2197Z" fill="#8D4D13"/>
<path fill-rule="evenodd" clip-rule="evenodd" d="M622.37 1279.89C618.68 1279.24 615.57 1275.95 615.18 1272.02L497.5 87.1102C497.11 83.1802 499.57 79.8902 503.13 79.2402L622.37 1279.88V1279.89Z" fill="#E4B067"/>
<path fill-rule="evenodd" clip-rule="evenodd" d="M95.65 696.44V716.41C95.65 720.8 97.32 724.39 99.35 724.39H649.53C651.57 724.39 653.24 720.8 653.24 716.41V696.44C653.24 692.05 651.57 688.46 649.53 688.46H99.36C97.32 688.46 95.66 692.05 95.66 696.44H95.65Z" fill="#C87822"/>
<path fill-rule="evenodd" clip-rule="evenodd" d="M95.7001 695.2C95.9801 691.39 97.5201 688.46 99.3601 688.46H649.54C651.38 688.46 652.92 691.4 653.2 695.2H95.7001Z" fill="#E4B067"/>
<path fill-rule="evenodd" clip-rule="evenodd" d="M653.19 717.76C652.89 721.51 651.36 724.39 649.54 724.39H99.36C97.54 724.39 96.01 721.51 95.71 717.76H653.19Z" fill="#8D4D13"/>
<path fill-rule="evenodd" clip-rule="evenodd" d="M95.65 711.95V720.84C95.65 722.79 97.32 724.39 99.35 724.39H649.53C651.57 724.39 653.24 722.79 653.24 720.84V711.95C653.24 710 651.57 708.4 649.53 708.4H99.36C97.32 708.4 95.66 710 95.66 711.95H95.65Z" fill="#B2691B"/>
<path fill-rule="evenodd" clip-rule="evenodd" d="M95.7001 711.4C95.9801 709.71 97.5201 708.4 99.3601 708.4H649.54C651.38 708.4 652.92 709.71 653.2 711.4H95.7001Z" fill="#E4B067"/>
<path fill-rule="evenodd" clip-rule="evenodd" d="M653.19 721.44C652.89 723.11 651.36 724.39 649.54 724.39H99.36C97.54 724.39 96.01 723.11 95.71 721.44H653.19Z" fill="#8D4D13"/>
<path fill-rule="evenodd" clip-rule="evenodd" d="M349.72 156.89H399.17C401.6 156.89 403.59 155.02 403.59 152.72V84.9701C403.59 82.6801 401.6 80.8101 399.17 80.8101H349.72C347.29 80.8101 345.3 82.6801 345.3 84.9701V152.72C345.3 155.01 347.29 156.89 349.72 156.89Z" fill="#D3822D"/>
<path fill-rule="evenodd" clip-rule="evenodd" d="M349.72 156.89H349.84V80.8101H349.72C347.29 80.8101 345.3 82.8701 345.3 85.3801V152.31C345.3 154.82 347.29 156.88 349.72 156.88V156.89Z" fill="#E4B067"/>
<path fill-rule="evenodd" clip-rule="evenodd" d="M399.17 156.89H399.05V80.8101H399.17C401.61 80.8101 403.59 82.8701 403.59 85.3801V152.31C403.59 154.82 401.6 156.88 399.17 156.88V156.89Z" fill="#B26520"/>
<path fill-rule="evenodd" clip-rule="evenodd" d="M374.45 127.26C378.94 127.26 382.58 123.49 382.58 118.85C382.58 114.21 378.94 110.44 374.45 110.44C369.96 110.44 366.32 114.21 366.32 118.85C366.32 123.49 369.96 127.26 374.45 127.26Z" fill="#8D4D13"/>
<path fill-rule="evenodd" clip-rule="evenodd" d="M312.18 150.1V161.36C312.18 163.84 312.55 165.86 313.01 165.86H435.88C436.34 165.86 436.71 163.83 436.71 161.36V150.1C436.71 147.62 436.34 145.6 435.88 145.6H313.01C312.55 145.6 312.18 147.63 312.18 150.1Z" fill="#B2691B"/>
<path fill-rule="evenodd" clip-rule="evenodd" d="M312.19 149.4C312.25 147.25 312.6 145.6 313.01 145.6H435.88C436.29 145.6 436.64 147.26 436.7 149.4H312.19Z" fill="#E4B067"/>
<path fill-rule="evenodd" clip-rule="evenodd" d="M436.7 162.13C436.63 164.25 436.29 165.87 435.88 165.87H313.01C312.6 165.87 312.26 164.25 312.19 162.13H436.7Z" fill="#8D4D13"/>
<path fill-rule="evenodd" clip-rule="evenodd" d="M147.01 964.96C148.91 964.96 150.46 963.22 150.46 961.06C150.46 958.9 148.92 957.17 147.01 957.17C145.1 957.17 143.56 958.91 143.56 961.06C143.56 963.21 145.11 964.96 147.01 964.96Z" fill="#B2B2B2"/>
<path fill-rule="evenodd" clip-rule="evenodd" d="M146.95 961.1C147.81 960.27 148.11 959.06 147.62 958.41C147.13 957.76 146.03 957.91 145.17 958.74C144.31 959.57 144.01 960.78 144.5 961.43C144.99 962.08 146.09 961.93 146.95 961.1Z" fill="#CBCBCB"/>
<path fill-rule="evenodd" clip-rule="evenodd" d="M601.71 964.96C603.61 964.96 605.16 963.22 605.16 961.06C605.16 958.9 603.62 957.17 601.71 957.17C599.8 957.17 598.26 958.91 598.26 961.06C598.26 963.21 599.8 964.96 601.71 964.96Z" fill="#B2B2B2"/>
<path fill-rule="evenodd" clip-rule="evenodd" d="M601.65 961.1C602.51 960.27 602.81 959.06 602.32 958.41C601.83 957.76 600.73 957.91 599.86 958.74C599 959.57 598.7 960.78 599.19 961.43C599.68 962.08 600.78 961.93 601.64 961.1H601.65Z" fill="#CBCBCB"/>
<path fill-rule="evenodd" clip-rule="evenodd" d="M223.49 189.32C225.39 189.32 226.93 187.57 226.93 185.42C226.93 183.27 225.39 181.52 223.49 181.52C221.59 181.52 220.04 183.26 220.04 185.42C220.04 187.58 221.58 189.32 223.49 189.32Z" fill="#B2B2B2"/>
<path fill-rule="evenodd" clip-rule="evenodd" d="M223.43 185.46C224.3 184.62 224.59 183.42 224.1 182.77C223.61 182.12 222.51 182.27 221.65 183.1C220.79 183.93 220.49 185.14 220.98 185.79C221.47 186.44 222.57 186.29 223.43 185.46Z" fill="#CBCBCB"/>
<path fill-rule="evenodd" clip-rule="evenodd" d="M374.45 189.32C376.35 189.32 377.9 187.57 377.9 185.42C377.9 183.27 376.36 181.52 374.45 181.52C372.54 181.52 371.01 183.26 371.01 185.42C371.01 187.58 372.55 189.32 374.45 189.32Z" fill="#B2B2B2"/>
<path fill-rule="evenodd" clip-rule="evenodd" d="M374.38 185.46C375.24 184.62 375.54 183.42 375.05 182.77C374.56 182.12 373.46 182.27 372.6 183.1C371.74 183.93 371.44 185.14 371.93 185.79C372.42 186.44 373.52 186.29 374.38 185.46Z" fill="#CBCBCB"/>
<path fill-rule="evenodd" clip-rule="evenodd" d="M524.8 189.32C526.7 189.32 528.25 187.57 528.25 185.42C528.25 183.27 526.71 181.52 524.8 181.52C522.89 181.52 521.35 183.26 521.35 185.42C521.35 187.58 522.89 189.32 524.8 189.32Z" fill="#B2B2B2"/>
<path fill-rule="evenodd" clip-rule="evenodd" d="M524.74 185.46C525.6 184.62 525.9 183.42 525.41 182.77C524.92 182.12 523.82 182.27 522.96 183.1C522.1 183.93 521.8 185.14 522.29 185.79C522.78 186.44 523.88 186.29 524.74 185.46Z" fill="#CBCBCB"/>
</g>
<defs>
<clipPath id="clip0_31_482">
<rect width="749" height="1081" fill="white"/>
</clipPath>
</defs>
</svg>
