<svg width="68" height="14" viewBox="0 0 68 14" fill="none" xmlns="http://www.w3.org/2000/svg">
<path d="M67.8616 0.67334H0V13.2021H67.8616V0.67334Z" fill="#00438F"/>
<path d="M24.8904 8.50782L24.3194 9.56245H23.0903L25.5247 5.11395C25.5247 5.11395 25.6595 4.9395 25.7626 4.85227C25.9767 4.66989 26.1512 4.60645 26.4287 4.60645H28.419V9.57039H27.3485V8.51575H24.8983L24.8904 8.50782ZM27.3406 7.51662V5.57386H26.849C26.6904 5.57386 26.5794 5.62144 26.5001 5.69281C26.4208 5.74039 26.3018 5.89105 26.2622 5.95449L25.4216 7.51662H27.3327H27.3406Z" fill="white"/>
<path d="M20.0615 4.61426H24.3277V5.64511H22.5276V9.57026H21.4413V5.64511H20.0615V4.61426Z" fill="white"/>
<path d="M39.1638 7.02485C39.1638 8.69006 38.4025 9.56232 37.1972 9.56232H34.2236V4.59839H37.1655C38.3946 4.59839 39.1558 5.76404 39.1638 7.02485ZM35.3496 8.58698H36.888C37.6334 8.58698 38.0457 8.11121 38.0457 7.05657C38.0457 6.11295 37.6175 5.58959 36.888 5.58959H35.3496V8.58698Z" fill="white"/>
<path d="M54.5315 7.55626H53.8574V9.57039H52.7314V4.60645H55.491C56.2205 4.60645 56.8152 5.15359 56.8152 5.92276C56.8152 6.6285 56.2998 7.12013 55.6258 7.17564C55.824 7.20736 56.0064 7.29459 56.1174 7.37388C56.2363 7.46904 56.2839 7.56419 56.3473 7.70692L57.2037 9.57039H55.9826L55.3086 8.08755C55.2372 7.92896 55.142 7.81001 55.0469 7.72279C54.8962 7.60384 54.7456 7.55626 54.5315 7.55626ZM53.8574 6.58092H55.142C55.4117 6.58092 55.6337 6.3589 55.6337 6.08929C55.6337 5.81968 55.4117 5.59765 55.142 5.59765H53.8574V6.58885V6.58092Z" fill="white"/>
<path d="M19.403 4.59862H16.8655C16.0567 4.59862 15.3986 5.25679 15.3986 6.06561C15.3986 6.87443 16.0329 7.54844 16.8338 7.54844H18.3484C18.6338 7.54844 18.8638 7.7784 18.8638 8.05593C18.8638 8.33347 18.6418 8.57929 18.3484 8.57929H15.3906V9.56255H18.5387C19.3634 9.56255 20.0453 8.87269 20.0453 8.04801C20.0453 7.22333 19.3713 6.54931 18.5466 6.54931H17.0796C16.81 6.54931 16.588 6.32727 16.588 6.05767C16.588 5.78806 16.8259 5.62155 17.1034 5.62155H19.4109V4.5907L19.403 4.59862Z" fill="white"/>
<path d="M58.758 4.82046L59.0673 5.2883H58.8928L58.5915 4.82046H58.425V5.2883H58.2822V4.28125H58.7263C58.9087 4.28125 59.0831 4.32882 59.0831 4.55085C59.0831 4.74909 58.9404 4.82047 58.7659 4.82839M58.425 4.68566H58.5915C58.7184 4.68566 58.9404 4.70945 58.9404 4.55085C58.9404 4.44777 58.8056 4.42398 58.6946 4.42398H58.425V4.68566Z" fill="white"/>
<path d="M58.6231 5.70869C58.1077 5.70869 57.6953 5.29635 57.6953 4.78886C57.6953 4.28136 58.1077 3.86902 58.6231 3.86902C59.1385 3.86902 59.5508 4.28136 59.5508 4.78886C59.5508 5.29635 59.1385 5.70869 58.6231 5.70869ZM58.6231 5.56595C59.0513 5.56595 59.4081 5.21705 59.4081 4.78886C59.4081 4.36066 59.0433 4.01175 58.6231 4.01175C58.2028 4.01175 57.838 4.36066 57.838 4.78886C57.838 5.21705 58.2028 5.56595 58.6231 5.56595Z" fill="white"/>
<path d="M8.28564 6.92184C8.28564 6.92184 10.0619 5.60552 10.5059 5.36763C10.6645 5.2804 11.3068 5.19318 11.6716 5.65309C11.9967 6.0575 11.7905 6.6443 11.6637 6.8584C11.5368 7.08043 11.0927 7.87339 11.0927 7.87339H9.935L10.165 6.9139H8.28564V6.92184Z" fill="white"/>
<path d="M11.0297 3.9324C11.6323 3.95619 12.3856 4.19407 12.8138 4.82051C13.1865 5.35972 13.2976 5.93066 13.131 6.66019C12.9566 7.46108 11.894 9.02321 11.9019 9.02321L11.2676 8.08752C11.2676 8.08752 11.6085 7.469 11.9654 6.80291C12.1398 6.4778 12.1557 5.96238 11.9654 5.62141C11.7434 5.23286 11.2834 5.0584 10.8949 5.0584C10.427 5.0584 10.0543 5.29629 9.5865 5.66105L8.92041 4.7095C9.24552 4.4161 10.1574 3.89276 11.0138 3.92447" fill="white"/>
<path d="M8.46838 7.15979H9.80055L9.58645 8.10342H10.9503L11.9336 9.56246H9.95121L9.50716 8.91224H8.66662L8.60318 8.0717H8.26221L8.46838 7.15979Z" fill="white"/>
<path d="M29.4341 4.60631L33.2958 4.59839V5.62924H30.5522L30.5601 6.58079H32.9707V7.55613H30.5601V8.59492H33.2958V9.56232H29.4341V4.60631Z" fill="white"/>
<path d="M39.3145 4.60645H43.6202V5.6373H42.0184V9.56245H40.9321V5.6373H39.3145V4.60645Z" fill="white"/>
<path d="M47.387 8.59505V9.56245H44.1279V4.60645H45.2539V8.59505H47.387Z" fill="white"/>
<path d="M48.124 4.59839H51.9937L52.0016 5.62131H49.2421L49.25 6.58079H51.6606V7.5482H49.25V8.59492H51.9937V9.56232H48.124V4.59839Z" fill="white"/>
</svg>
