<svg width="261" height="40" viewBox="0 0 261 40" fill="none" xmlns="http://www.w3.org/2000/svg">
<path d="M10.928 25.6H26.972C32.432 25.6 35.75 28.33 35.75 32.614C35.75 36.898 32.432 39.628 26.972 39.628H10.928C5.468 39.628 2.15 36.898 2.15 32.614C2.15 28.33 5.468 25.6 10.928 25.6ZM0.26 22.534V18.04H17.942V11.362H23.906V18.04H37.64V22.534H0.26ZM17.858 6.994V2.29H35.204V15.982H29.492V6.994H17.858ZM10.592 15.982V6.994H2.024V2.29H16.304V15.982H10.592ZM11.306 35.092H26.594C28.736 35.092 30.038 34.042 30.038 32.614C30.038 31.186 28.736 30.136 26.594 30.136H11.306C9.164 30.136 7.862 31.186 7.862 32.614C7.862 34.042 9.164 35.092 11.306 35.092ZM60.9162 23.71V2.332H66.2922V10.27H70.2822V2.122H75.6582V23.71H70.2822V15.394H66.2922V23.71H60.9162ZM40.3782 23.332V18.754C44.3262 17.788 46.9722 14.848 46.9722 11.026V9.01H40.7982V4.474H46.8462V1.114H52.8522V4.474H58.6062V9.01H52.7262V11.026C52.7262 14.848 55.3302 17.284 59.0682 18.418V22.954C55.5822 22.24 52.1802 20.518 49.9122 17.914C47.5602 20.686 44.1582 22.618 40.3782 23.332ZM43.7382 29.884V25.18H75.6582V39.628H69.9462V29.884H43.7382ZM81.3364 27.574V12.37C81.3364 5.986 84.8224 2.332 89.9464 2.332C95.0704 2.332 98.5564 5.986 98.5564 12.37V16.99H102.084V2.332H107.46V38.788H102.084V22.114H98.5564V27.574C98.5564 33.958 95.0704 37.612 89.9464 37.612C84.8224 37.612 81.3364 33.958 81.3364 27.574ZM110.19 39.628V2.122H115.566V39.628H110.19ZM93.1804 27.658V12.286C93.1804 9.094 91.9624 7.12 89.9464 7.12C87.9304 7.12 86.7124 9.094 86.7124 12.286V27.658C86.7124 30.85 87.9304 32.824 89.9464 32.824C91.9624 32.824 93.1804 30.85 93.1804 27.658ZM133.625 39.46V28.246H159.749V25.726H133.625V21.4H165.545V32.404H139.421V35.134H166.385V39.46H133.625ZM130.895 18.712V14.218H159.833V6.994H133.205V2.29H165.545V14.218H168.275V18.712H130.895ZM196.161 25.18H191.625C186.249 25.18 182.343 22.618 182.343 17.41C182.343 12.202 186.249 9.64 191.625 9.64H196.161C201.537 9.64 205.443 12.202 205.443 17.41C205.443 22.618 201.537 25.18 196.161 25.18ZM184.023 39.46V27.28H189.735V34.756H215.943V39.46H184.023ZM209.391 29.59V2.122H215.103V12.37H220.143V17.494H215.103V29.59H209.391ZM181.503 8.338V4.012H190.869V0.945997H196.917V4.012H206.283V8.338H181.503ZM192.423 20.644H195.363C198.135 20.644 199.731 19.468 199.731 17.41C199.731 15.352 198.135 14.176 195.363 14.176H192.423C189.735 14.176 188.055 15.352 188.055 17.41C188.055 19.468 189.735 20.644 192.423 20.644ZM221.831 37.402V32.236C227.375 30.514 230.861 24.508 230.861 16.402V7.96H222.251V3.172H244.931V7.96H236.783V16.402C236.783 23.668 239.807 29.758 245.351 32.11V37.276C240.899 35.932 236.027 31.9 233.927 27.574C231.365 32.656 226.871 36.058 221.831 37.402ZM249.299 39.628V2.122H255.011V15.52H260.051V20.644H255.011V39.628H249.299Z" fill="#6E89D8"/>
</svg>
