<svg width="96" height="96" viewBox="0 0 96 96" fill="none" xmlns="http://www.w3.org/2000/svg">
<path d="M0 48C0 74.5052 21.4948 96 48 96C74.5052 96 96 74.516 96 48C96 21.484 74.5052 0 48 0C21.4948 0 0 21.484 0 48Z" fill="url(#paint0_linear_22_2138)"/>
<path d="M35.0596 54.6328C35.0527 56.916 36.0918 59.2061 38.2041 60.1016L37.1787 61.4961C35.7568 60.8535 34.7725 59.6094 34.2051 58.0713C33.6445 59.7529 32.626 61.1064 31.1084 61.7969L30.0557 60.3477C32.2295 59.4316 33.2891 57.0459 33.2959 54.6328V52.7734H35.0596V54.6328ZM38.874 64.2852V51.8164H40.6377V64.2852H38.874ZM52.1904 51.8164V54.6875H53.8721V56.123H52.1904V59.0898H50.4404V51.8164H52.1904ZM42.8252 58.3242V52.5137H44.5752V56.8818C46.0859 56.8613 47.7061 56.7314 49.4287 56.3828L49.6338 57.791C47.583 58.1943 45.6484 58.3242 43.8916 58.3242H42.8252ZM43.8232 61.7422C43.8232 60.2109 45.5049 59.2266 48.0889 59.2402C50.6455 59.2266 52.3066 60.2109 52.3135 61.7422C52.3066 63.3213 50.6455 64.2715 48.0889 64.2715C45.5049 64.2715 43.8232 63.3213 43.8232 61.7422ZM45.5459 61.7422C45.5322 62.4941 46.4756 62.8906 48.0889 62.8906C49.6543 62.8906 50.5908 62.4941 50.5908 61.7422C50.5908 60.9971 49.6543 60.6348 48.0889 60.6348C46.4756 60.6348 45.5322 60.9971 45.5459 61.7422ZM60.9404 56.2188V57.75H65.7666V59.1445H54.4189V57.75H59.2178V56.2188H60.9404ZM55.0068 55.6035C57.7549 55.2549 59.1836 53.833 59.1904 52.4316V52.0215H60.9678V52.4316C60.9609 53.8877 62.3555 55.2549 65.165 55.6035L64.4951 56.957C62.3896 56.6426 60.8447 55.7607 60.0586 54.5166C59.2656 55.7539 57.7207 56.6494 55.6221 56.957L55.0068 55.6035ZM55.7178 62.0566C55.7178 60.6416 57.3516 59.835 60.0791 59.8281C62.7861 59.835 64.3994 60.6416 64.4131 62.0566C64.3994 63.4717 62.7861 64.2646 60.0791 64.2578C57.3516 64.2646 55.7178 63.4717 55.7178 62.0566ZM57.4951 62.0566C57.4883 62.665 58.3359 62.959 60.0791 62.959C61.7812 62.959 62.6562 62.665 62.6631 62.0566C62.6562 61.4346 61.7812 61.1611 60.0791 61.1543C58.3359 61.1611 57.4883 61.4346 57.4951 62.0566ZM31.2656 71.0195V72.4004H28.75C28.7842 73.6309 29.6729 74.875 31.6621 75.3809L30.8965 76.7207C29.4541 76.3584 28.4629 75.5791 27.9023 74.5811C27.3486 75.6816 26.3506 76.543 24.8945 76.9531L24.0742 75.5723C26.0635 75.0596 26.9863 73.7402 27.0137 72.4004H24.5117V71.0195H27.0137V69.7617H28.7773V71.0195H31.2656ZM25.2773 80.877C27.458 80.6104 28.6748 79.749 28.9961 78.8125H25.8105V77.4453H34.1914V78.8125H31.0195C31.3408 79.7285 32.5713 80.6172 34.7383 80.9043L34.123 82.2305C32.1201 81.9639 30.7188 81.1709 29.9941 80.1045C29.2832 81.1641 27.8887 81.9434 25.9062 82.2031L25.2773 80.877ZM32.291 76.9121V69.8164H34.041V72.6055H35.7227V74.041H34.041V76.9121H32.291ZM39.6191 70.6914C41.5195 70.6914 42.8936 72.4072 42.9004 75.1211C42.8936 77.8555 41.5195 79.5645 39.6191 79.5645C37.7119 79.5645 36.3311 77.8555 36.3379 75.1211C36.3311 72.4072 37.7119 70.6914 39.6191 70.6914ZM38.0195 75.1211C38.0195 76.9736 38.6689 77.9854 39.6191 77.9785C40.5898 77.9854 41.2256 76.9736 41.2324 75.1211C41.2256 73.2754 40.5898 72.2637 39.6191 72.2637C38.6689 72.2637 38.0195 73.2754 38.0195 75.1211ZM44.3359 82.2578V69.8164H46.0859V74.5059H47.918V75.9551H46.0859V82.2578H44.3359ZM59.7578 79.3867V80.8086H48.3691V79.3867H53.168V77.0898H49.5723V70.6094H51.3223V72.5371H56.75V70.6094H58.4863V77.0898H54.9043V79.3867H59.7578ZM51.3223 75.6953H56.75V73.9316H51.3223V75.6953ZM70.9277 69.8164V82.2578H69.1641V69.8164H70.9277ZM60.5098 78.7305C63.7227 77.2129 65.1377 75.2441 65.418 72.4824H61.1797V71.1152H67.1953C67.1885 74.8887 65.8691 78.0264 61.4258 80.125L60.5098 78.7305Z" fill="white"/>
<path fill-rule="evenodd" clip-rule="evenodd" d="M57.9009 12.6043C57.082 13.4238 57.082 14.7896 57.9009 15.6174C61.0442 18.7629 62.8227 23.0093 62.8227 27.529C62.8227 32.0486 61.0442 36.1543 57.9009 39.3661C57.082 40.1856 57.082 41.5597 57.9009 42.3792C58.3062 42.7931 58.7943 42.9917 59.3402 42.9917C59.8862 42.9917 60.4321 42.7848 60.8457 42.3792C64.7418 38.4804 67 33.1413 67 27.529C67 21.9167 64.8162 16.6438 60.8457 12.6126C60.4321 12.1987 59.9523 12 59.4064 12H59.3402C58.7943 12 58.3145 12.2069 57.9009 12.6126V12.6043Z" fill="white"/>
<path fill-rule="evenodd" clip-rule="evenodd" d="M51.8128 15.2117C51.2007 15.8987 51.2007 17.0576 51.8128 17.7447C54.5508 20.4101 56.0563 24.044 56.0563 27.8766C56.0563 31.7092 54.5508 35.2686 51.8128 38.0085C51.2007 38.621 51.2007 39.7882 51.8128 40.5415C52.2264 40.8809 52.64 41.0216 53.1115 41.0216C53.583 41.0216 54.0049 40.8891 54.344 40.5415C57.7686 37.189 59.6132 32.6694 59.6132 27.8849C59.6132 23.1003 57.7686 18.6469 54.344 15.22C54.0049 14.8806 53.5913 14.6736 53.1115 14.6736C52.64 14.6736 52.2182 14.8806 51.8128 15.22V15.2117Z" fill="white"/>
<path fill-rule="evenodd" clip-rule="evenodd" d="M49.8276 19.1768C49.141 18.5642 47.983 18.5642 47.2964 19.1768C46.6099 19.93 46.6099 21.0889 47.2964 21.776C50.6548 25.1284 50.6548 30.5338 47.2964 33.8862C46.6099 34.5733 46.6099 35.7322 47.2964 36.4192C47.71 36.7586 48.1236 36.8993 48.5951 36.8993C49.0087 36.8993 49.4885 36.7669 49.8276 36.4192C54.617 31.6926 54.617 23.9613 49.8276 19.1768Z" fill="white"/>
<path fill-rule="evenodd" clip-rule="evenodd" d="M35.9475 20.8903H31.5717C30.6866 20.8903 30 21.6435 30 22.463V33.2075C30 34.027 30.6866 34.7802 31.5717 34.7802H35.9475V20.8903Z" fill="white"/>
<path fill-rule="evenodd" clip-rule="evenodd" d="M42.3085 16.71L37.3867 20.4101V35.2603L42.3085 38.9605C43.3342 39.7137 44.7652 39.0267 44.7652 37.7271V17.9434C44.7652 16.6438 43.3342 15.9567 42.3085 16.71Z" fill="white"/>
<defs>
<linearGradient id="paint0_linear_22_2138" x1="8.69998" y1="75.6201" x2="87.3386" y2="20.5568" gradientUnits="userSpaceOnUse">
<stop stop-color="#0A94CB"/>
<stop offset="1" stop-color="#00DDFF"/>
</linearGradient>
</defs>
</svg>
