<svg width="270" height="178" viewBox="0 0 270 178" fill="none" xmlns="http://www.w3.org/2000/svg">
<g clip-path="url(#clip0_195_22742)">
<path d="M270 13.92C270 6.23 263.77 0 256.08 0H13.92C6.23 0 0 6.23 0 13.92V31.33C0 33.78 1.46 36.02 3.73 36.93C7.51 38.45 10.19 42.16 10.19 46.47V111.5C10.19 115.81 7.51 119.52 3.73 121.04C1.46 121.96 0 124.19 0 126.64V144.05C0 151.74 6.23 157.97 13.92 157.97H256.09C263.78 157.97 270.01 151.74 270.01 144.05V13.92H270Z" fill="#4068B4"/>
<path d="M13.9199 157.97L235.95 177.16V157.97H13.9199Z" fill="url(#paint0_linear_195_22742)"/>
<path d="M62.9699 46.0699V48.3699H52.6599V52.3899H49.9199V48.3699H39.6299V46.0699H62.9699ZM44.0099 54.8499H61.7899V57.1799H41.2699V50.3699H44.0099V54.8599V54.8499ZM61.2699 43.7199H41.2999V34.3599H61.2699V43.7199ZM58.5599 36.6099H44.0099V41.4799H58.5599V36.6099Z" fill="white"/>
<path d="M81.6798 39.1798H65.8398V36.7998H72.3798V33.8398H75.1398V36.7998H81.6798V39.1798ZM75.1098 53.6498C78.1998 53.6198 80.8798 53.3498 82.4998 52.6098V55.0698C81.0198 55.7298 78.1498 56.0498 74.8699 56.0498H65.9498V53.6398H72.4099V50.1698C69.0999 49.8098 67.0499 48.0598 67.0499 45.4398C67.0499 42.4598 69.6798 40.5998 73.8098 40.5998C77.9398 40.5998 80.5698 42.4598 80.5698 45.4398C80.5698 48.0898 78.4898 49.8398 75.1298 50.1998V53.6498H75.1098ZM73.7999 48.0398C76.5599 48.0398 77.9898 46.9198 77.9898 45.4398C77.9898 43.9598 76.5699 42.8098 73.7999 42.8098C71.0299 42.8098 69.6098 43.9598 69.6098 45.4398C69.6098 46.9198 71.0299 48.0398 73.7999 48.0398ZM90.3798 45.9298H87.1498V57.4498H84.4398V34.0898H87.1498V43.3398H90.3798V45.9398V45.9298Z" fill="white"/>
<path d="M92.3198 46.5398V44.0798C96.7498 43.2898 99.3498 39.2398 99.4098 34.3098L102.12 34.4698C102.12 36.1898 101.82 37.8098 101.27 39.2898L108.52 43.9998L107.12 45.9998L100.23 41.4298C98.5298 44.1698 95.7998 46.0798 92.3198 46.5498V46.5398ZM113.77 52.6098C113.77 56.1098 109.37 57.4498 103.76 57.4498C98.1498 57.4498 93.7498 56.1098 93.7498 52.6098C93.7498 49.1098 98.1798 47.7698 103.76 47.7698C109.34 47.7698 113.77 49.1098 113.77 52.6098ZM110.87 52.6098C110.87 50.8298 107.75 50.0098 103.76 50.0098C99.7698 50.0098 96.6498 50.8298 96.6498 52.6098C96.6498 54.3898 99.7998 55.2098 103.76 55.2098C107.72 55.2098 110.87 54.4198 110.87 52.6098ZM116.7 38.5498V41.1198H113.42V46.9998H110.71V34.0898H113.42V38.5498H116.7Z" fill="white"/>
<path d="M131.57 47.3301V49.7601H140.27V57.1701H120.19V49.7601H128.89V47.3301H118.58V45.1701H141.92V47.3301H131.58H131.57ZM140.54 43.1201H119.91V40.9901H124.04V36.5001H120.16V34.3701H140.3V36.5001H136.41V40.9901H140.54V43.1201ZM137.58 51.8501H122.89V55.0801H137.58V51.8501ZM126.75 40.9901H133.7V36.5001H126.75V40.9901Z" fill="white"/>
<path d="M151.29 45.7198H144.89V43.4498H154.55C157.75 43.4498 160.6 43.1998 162.21 42.5498V44.7898C160.73 45.4498 157.7 45.7198 154.36 45.7198H154V50.6998H151.29V45.7198ZM157.01 36.8598H146.59V34.5598H159.72V41.9998H157.01V36.8598ZM167.49 54.8098V57.1598H147.05V49.3598H149.76V54.7998H167.49V54.8098ZM164.18 48.1298V34.0898H166.89V52.3098H164.18V50.3698H157.12V48.1298H164.18Z" fill="white"/>
<path d="M49.9801 85.96H41.5601V81.29H55.3001V121.9H49.9801V85.95V85.96Z" fill="white"/>
<path d="M64.79 101.58C64.79 87.3801 71.23 80.3301 79.8 80.3301C88.37 80.3301 94.76 87.3801 94.76 101.58C94.76 115.78 88.32 122.83 79.8 122.83C71.28 122.83 64.79 115.78 64.79 101.58ZM89.64 101.58C89.64 90.5801 85.28 85.0501 79.8 85.0501C74.32 85.0501 69.91 90.5801 69.91 101.58C69.91 112.58 74.27 118.11 79.8 118.11C85.33 118.11 89.64 112.63 89.64 101.58Z" fill="white"/>
<path d="M101.25 127.03H97.0898L98.7098 115.57H103.78L101.24 127.03H101.25Z" fill="white"/>
<path d="M107.64 101.58C107.64 87.3801 114.08 80.3301 122.65 80.3301C131.22 80.3301 137.61 87.3801 137.61 101.58C137.61 115.78 131.17 122.83 122.65 122.83C114.13 122.83 107.64 115.78 107.64 101.58ZM132.49 101.58C132.49 90.5801 128.13 85.0501 122.65 85.0501C117.17 85.0501 112.76 90.5801 112.76 101.58C112.76 112.58 117.12 118.11 122.65 118.11C128.18 118.11 132.49 112.63 132.49 101.58Z" fill="white"/>
<path d="M142.78 101.58C142.78 87.3801 149.22 80.3301 157.79 80.3301C166.36 80.3301 172.75 87.3801 172.75 101.58C172.75 115.78 166.31 122.83 157.79 122.83C149.27 122.83 142.78 115.78 142.78 101.58ZM167.63 101.58C167.63 90.5801 163.27 85.0501 157.79 85.0501C152.31 85.0501 147.9 90.5801 147.9 101.58C147.9 112.58 152.26 118.11 157.79 118.11C163.32 118.11 167.63 112.63 167.63 101.58Z" fill="white"/>
<path d="M177.93 101.58C177.93 87.3801 184.37 80.3301 192.94 80.3301C201.51 80.3301 207.9 87.3801 207.9 101.58C207.9 115.78 201.46 122.83 192.94 122.83C184.42 122.83 177.93 115.78 177.93 101.58ZM202.78 101.58C202.78 90.5801 198.42 85.0501 192.94 85.0501C187.46 85.0501 183.05 90.5801 183.05 101.58C183.05 112.58 187.41 118.11 192.94 118.11C198.47 118.11 202.78 112.63 202.78 101.58Z" fill="white"/>
<path d="M219.94 114.61H215.02V112.9H222.38C224.82 112.9 226.99 112.71 228.22 112.19V113.9C227.09 114.4 224.86 114.61 222.32 114.61H222.01V117.8H219.95V114.61H219.94ZM216.08 108.16C216.08 105.93 218.27 104.7 221.36 104.7C224.45 104.7 226.64 105.93 226.64 108.16C226.64 110.39 224.47 111.64 221.36 111.64C218.25 111.64 216.08 110.41 216.08 108.16ZM232.25 120.49V122.24H216.67V116.84H218.73V120.49H232.25ZM218.11 108.16C218.11 109.39 219.49 110.02 221.36 110.02C223.23 110.02 224.61 109.39 224.61 108.16C224.61 106.93 223.23 106.32 221.36 106.32C219.49 106.32 218.11 106.92 218.11 108.16ZM229.73 115.84V104.66H231.79V118.61H229.73V117.5H224.33V115.83H229.73V115.84Z" fill="white"/>
</g>
<defs>
<linearGradient id="paint0_linear_195_22742" x1="231.27" y1="167.57" x2="16.4799" y2="167.57" gradientUnits="userSpaceOnUse">
<stop stop-color="#140700" stop-opacity="0"/>
<stop offset="1" stop-opacity="0.3"/>
</linearGradient>
<clipPath id="clip0_195_22742">
<rect width="270" height="177.16" fill="white"/>
</clipPath>
</defs>
</svg>
