<svg width="297" height="39" viewBox="0 0 297 39" fill="none" xmlns="http://www.w3.org/2000/svg">
<path d="M0.68 36.402V31.236C6.224 29.514 9.92 23.508 9.92 15.402V10.026H1.31V5.238H9.878V0.701998H15.884V5.238H23.99V10.026H15.842V15.402C15.842 22.668 18.866 28.758 24.41 31.11V36.276C19.958 34.932 15.086 30.9 12.986 26.574C10.424 31.656 5.72 35.058 0.68 36.402ZM29.198 38.628V20.862H21.26V15.906H29.198V1.122H34.91V38.628H29.198ZM40.1682 22.332V17.838H77.5482V22.332H40.1682ZM42.8982 38.46V25.02H74.8182V38.46H42.8982ZM48.6102 33.924H69.1062V29.556H48.6102V33.924ZM65.9562 15.57H51.7602C45.7122 15.57 42.0582 12.756 42.0582 8.346C42.0582 3.936 45.7122 1.122 51.7602 1.122H65.9562C72.0042 1.122 75.6582 3.936 75.6582 8.346C75.6582 12.756 72.0042 15.57 65.9562 15.57ZM52.0122 11.034H65.7042C68.2662 11.034 69.9462 10.026 69.9462 8.346C69.9462 6.666 68.2662 5.658 65.7042 5.658H52.0122C49.4502 5.658 47.7702 6.666 47.7702 8.346C47.7702 10.026 49.4502 11.034 52.0122 11.034ZM80.0764 36.78V31.95H117.456V36.78H80.0764ZM102.21 25.188H95.3224C87.2584 25.188 82.3864 20.61 82.3864 13.47C82.3864 6.33 87.2584 1.752 95.3224 1.752H102.21C110.232 1.752 115.146 6.33 115.146 13.47C115.146 20.61 110.232 25.188 102.21 25.188ZM95.1124 20.4H102.42C106.704 20.4 109.434 17.544 109.434 13.47C109.434 9.396 106.704 6.54 102.42 6.54H95.1124C90.8284 6.54 88.0984 9.396 88.0984 13.47C88.0984 17.544 90.8284 20.4 95.1124 20.4ZM119.985 37.62V32.79H136.113V26.742H123.135V11.748H148.503V6.708H123.135V1.92H154.215V16.452H128.847V21.954H155.055V26.742H142.077V32.79H157.365V37.62H119.985ZM170.803 24.894V20.4H208.183V24.894H170.803ZM173.533 38.46V27.54H179.245V33.756H205.873V38.46H173.533ZM172.525 17.88V13.092C176.515 12.336 178.825 9.102 178.825 4.86V1.206H184.705V4.86C184.705 9.102 186.721 12.168 189.493 13.092V17.88C186.217 17.124 183.277 15.024 181.597 12.462C179.749 15.36 176.179 17.502 172.525 17.88ZM189.493 17.88V13.092C192.223 12.168 194.281 9.102 194.281 4.86V1.206H200.161V4.86C200.161 9.102 202.471 12.336 206.461 13.092V17.88C202.807 17.502 199.237 15.36 197.389 12.462C195.709 15.024 192.685 17.124 189.493 17.88ZM221.033 23.34V18.804H225.023V6.078H221.453V1.542H246.695V6.078H243.083V18.804H247.115V23.34H221.033ZM250.559 28.59V17.922H245.141V13.302H250.559V11.16H245.141V6.54H250.559V1.122H256.271V28.59H250.559ZM225.191 38.46V25.86H230.903V33.756H257.111V38.46H225.191ZM230.735 18.804H237.371V6.078H230.735V18.804ZM262.16 36.402V31.236C267.704 29.514 271.274 23.508 271.274 15.402V6.96H262.58V2.172H285.428V6.96H277.196V15.402C277.196 22.668 280.304 28.758 285.848 31.11V36.276C281.396 34.932 276.44 30.9 274.34 26.574C271.778 31.656 267.2 35.058 262.16 36.402ZM290.468 38.628V1.122H296.18V38.628H290.468Z" fill="#93D600"/>
</svg>
