<svg width="160" height="30" viewBox="0 0 160 30" fill="none" xmlns="http://www.w3.org/2000/svg">
<path d="M130.897 28.1998V24.5198H159.377V28.1998H130.897ZM133.297 20.2318V1.31982H157.137V4.96782H137.649V8.83982H156.881V12.4238H137.649V16.5838H157.617V20.2318H133.297Z" fill="#8F81E9"/>
<path d="M101.292 17.0319V0.967915H105.388V5.47992H110.316V0.967915H114.412V7.07992H117.42V0.871916H121.516V21.3199H117.42V10.9839H114.412V17.0319H101.292ZM103.532 29.1599V19.5599H107.884V25.5759H128.172V29.1599H103.532ZM123.436 21.6399V0.711914H127.532V21.6399H123.436ZM105.388 13.5759H110.316V8.93591H105.388V13.5759Z" fill="#8F81E9"/>
<path d="M92.1331 29.2879V0.711914H96.4851V29.2879H92.1331ZM71.2051 19.6559V8.96791C71.2051 3.84792 74.5971 0.871916 79.7491 0.871916C84.9011 0.871916 88.2931 3.84792 88.2931 8.96791V19.6559C88.2931 24.7759 84.9011 27.7519 79.7491 27.7519C74.5971 27.7519 71.2051 24.7759 71.2051 19.6559ZM83.9411 19.7839V8.83992C83.9411 6.21592 82.3091 4.48792 79.7491 4.48792C77.1891 4.48792 75.5571 6.21592 75.5571 8.83992V19.7839C75.5571 22.4079 77.1891 24.1359 79.7491 24.1359C82.3091 24.1359 83.9411 22.4079 83.9411 19.7839Z" fill="#8F81E9"/>
<path d="M33.1265 29.1599V18.2799H56.8065V29.1599H33.1265ZM31.6865 16.1999V6.88791H44.1345V4.42392H31.6865V1.03192H48.4865V10.1839H36.0385V12.8079H50.5345V16.1999H31.6865ZM52.4545 17.1599V0.711914H56.8065V6.43991H60.6465V10.3439H56.8065V17.1599H52.4545ZM37.4785 25.7039H52.4545V21.7359H37.4785V25.7039Z" fill="#8F81E9"/>
<path d="M2.40031 29.1599V20.1999H6.75231V25.5759H27.0403V29.1599H2.40031ZM22.0483 22.2799V0.711914H26.4003V8.51991H30.2403V12.4239H26.4003V22.2799H22.0483ZM1.12031 4.55191V0.967915H18.0803V13.3519H13.7283V4.55191H1.12031ZM0.320312 18.1839V14.7599H5.56831V8.71192H10.1123V14.7599H20.7683V18.1839H0.320312Z" fill="#8F81E9"/>
</svg>
