<svg width="316" height="38" viewBox="0 0 316 38" fill="none" xmlns="http://www.w3.org/2000/svg">
<path d="M0.73 34.982V1.088H6.106V13.1H12.154V1.088H17.53V34.982H0.73ZM20.638 36.788V0.332H26.014V13.94H29.374V0.121997H34.75V37.628H29.374V19.064H26.014V36.788H20.638ZM6.106 30.194H12.154V17.888H6.106V30.194ZM63.1922 19.4H52.4822C45.5942 19.4 41.4782 15.746 41.4782 10.076C41.4782 4.406 45.5942 0.751999 52.4822 0.751999H63.1922C70.0802 0.751999 74.2382 4.406 74.2382 10.076C74.2382 15.746 70.0802 19.4 63.1922 19.4ZM39.1682 27.59V22.76H76.5482V27.59H60.8402V37.628H54.8762V27.59H39.1682ZM52.2722 14.612H63.4442C66.5102 14.612 68.5262 12.722 68.5262 10.076C68.5262 7.43 66.5102 5.54 63.4442 5.54H52.2722C49.2062 5.54 47.1902 7.43 47.1902 10.076C47.1902 12.722 49.2062 14.612 52.2722 14.612ZM108.014 37.628V0.121997H113.726V37.628H108.014ZM81.1764 34.352V1.172H86.8884V29.564H105.494V34.352H81.1764ZM129.895 21.164V16.67H167.275V21.164H151.567V24.02H156.607C162.067 24.02 165.385 26.666 165.385 30.824C165.385 34.982 162.067 37.628 156.607 37.628H140.563C135.103 37.628 131.785 34.982 131.785 30.824C131.785 26.666 135.103 24.02 140.563 24.02H145.603V21.164H129.895ZM131.995 14.528V9.992H137.455V4.826H132.415V0.289998H164.755V4.826H159.715V9.992H165.175V14.528H131.995ZM140.941 33.092H156.229C158.371 33.092 159.673 32.126 159.673 30.824C159.673 29.522 158.371 28.556 156.229 28.556H140.941C138.799 28.556 137.497 29.522 137.497 30.824C137.497 32.126 138.799 33.092 140.941 33.092ZM143.167 9.992H154.003V4.826H143.167V9.992ZM198.741 27.59V14.696H187.233V10.328H198.741V7.556H187.233V3.188H198.741V0.121997H204.453V27.59H198.741ZM171.483 21.332V0.541999H177.195V16.796H195.381V21.332H171.483ZM173.373 37.46V24.44H179.085V32.756H205.293V37.46H173.373ZM238.649 37.628V0.121997H244.361V37.628H238.649ZM211.181 24.986V10.958C211.181 4.238 215.633 0.332 222.395 0.332C229.157 0.332 233.609 4.238 233.609 10.958V24.986C233.609 31.706 229.157 35.612 222.395 35.612C215.633 35.612 211.181 31.706 211.181 24.986ZM227.897 25.154V10.79C227.897 7.346 225.755 5.078 222.395 5.078C219.035 5.078 216.893 7.346 216.893 10.79V25.154C216.893 28.598 219.035 30.866 222.395 30.866C225.755 30.866 227.897 28.598 227.897 25.154ZM249.619 36.2V31.37H265.327V24.188H264.865C256.801 24.188 251.929 19.61 251.929 12.47C251.929 5.33 256.801 0.751999 264.865 0.751999H271.753C279.775 0.751999 284.689 5.33 284.689 12.47C284.689 19.61 279.775 24.188 271.753 24.188H271.291V31.37H286.999V36.2H249.619ZM264.655 19.4H271.963C276.247 19.4 278.977 16.544 278.977 12.47C278.977 8.396 276.247 5.54 271.963 5.54H264.655C260.371 5.54 257.641 8.396 257.641 12.47C257.641 16.544 260.371 19.4 264.655 19.4ZM295.408 22.508L291.544 19.82C292.93 16.082 296.71 13.814 299.44 13.814C303.094 13.814 305.236 17.3 308.092 17.3C309.52 17.3 311.242 15.998 312.124 13.604L315.988 16.292C314.602 20.03 310.822 22.298 308.092 22.298C304.438 22.298 302.296 18.812 299.44 18.812C298.012 18.812 296.29 20.114 295.408 22.508Z" fill="#FF8B00"/>
</svg>
