<svg width="100" height="100" viewBox="0 0 100 100" fill="none" xmlns="http://www.w3.org/2000/svg">
<g clip-path="url(#clip0_192_19308)">
<path d="M49.9949 99.9898C77.6063 99.9898 99.9898 77.6063 99.9898 49.9949C99.9898 22.3835 77.6063 0 49.9949 0C22.3835 0 0 22.3835 0 49.9949C0 77.6063 22.3835 99.9898 49.9949 99.9898Z" fill="#4068B4"/>
<path d="M43.5779 58.7448H20.1207C18.7636 58.7448 17.462 58.2057 16.5023 57.246C15.5427 56.2864 15.0035 54.9848 15.0035 53.6276V30.2012C15.0035 28.844 15.5427 27.5424 16.5023 26.5828C17.462 25.6231 18.7636 25.084 20.1207 25.084H43.5779C44.9351 25.084 46.2366 25.6231 47.1963 26.5828C48.156 27.5424 48.6951 28.844 48.6951 30.2012V53.6686C48.6843 55.0186 48.1404 56.3097 47.1819 57.2605C46.2234 58.2114 44.928 58.7449 43.5779 58.7448ZM20.1207 27.4686C19.3978 27.4713 18.7054 27.7604 18.1951 28.2726C17.6849 28.7847 17.3984 29.4782 17.3984 30.2012V53.6686C17.3984 54.0274 17.4691 54.3828 17.6064 54.7143C17.7437 55.0458 17.945 55.3471 18.1987 55.6008C18.4525 55.8545 18.7537 56.0558 19.0852 56.1931C19.4168 56.3305 19.7721 56.4011 20.131 56.4011H43.5779C43.9367 56.4011 44.2921 56.3305 44.6236 56.1931C44.9551 56.0558 45.2564 55.8545 45.5101 55.6008C45.7639 55.3471 45.9651 55.0458 46.1025 54.7143C46.2398 54.3828 46.3105 54.0274 46.3105 53.6686V30.2012C46.3105 29.8423 46.2398 29.487 46.1025 29.1555C45.9651 28.8239 45.7639 28.5227 45.5101 28.2689C45.2564 28.0152 44.9551 27.8139 44.6236 27.6766C44.2921 27.5393 43.9367 27.4686 43.5779 27.4686H20.1207Z" fill="white"/>
<path d="M79.8793 58.7448H56.4221C55.065 58.7448 53.7634 58.2057 52.8037 57.246C51.8441 56.2864 51.3049 54.9848 51.3049 53.6276V30.2012C51.3049 28.844 51.8441 27.5424 52.8037 26.5828C53.7634 25.6231 55.065 25.084 56.4221 25.084H79.8793C81.2365 25.084 82.538 25.6231 83.4977 26.5828C84.4573 27.5424 84.9965 28.844 84.9965 30.2012V53.6686C84.9857 55.0186 84.4418 56.3097 83.4833 57.2605C82.5248 58.2114 81.2294 58.7449 79.8793 58.7448ZM56.4221 27.4686C55.6974 27.4686 55.0023 27.7565 54.4899 28.2689C53.9774 28.7814 53.6895 29.4764 53.6895 30.2012V53.6686C53.6895 54.3933 53.9774 55.0883 54.4899 55.6008C55.0023 56.1133 55.6974 56.4011 56.4221 56.4011H79.8793C80.604 56.4011 81.299 56.1133 81.8115 55.6008C82.324 55.0883 82.6119 54.3933 82.6119 53.6686V30.2012C82.6119 29.4764 82.324 28.7814 81.8115 28.2689C81.299 27.7565 80.604 27.4686 79.8793 27.4686H56.4221Z" fill="white"/>
<path d="M39.5661 36.2402V46.3517C39.5188 46.6557 39.3644 46.9327 39.1307 47.1328C38.8971 47.3329 38.5996 47.4429 38.2919 47.4429C37.9843 47.4429 37.6868 47.3329 37.4532 47.1328C37.2195 46.9327 37.0651 46.6557 37.0178 46.3517V37.1408C37.0178 36.7519 36.8949 36.5984 36.4856 36.5984H25.2892C24.6649 36.5984 24.3885 36.0969 24.3885 35.4624C24.3885 34.8278 24.6649 34.3059 25.2892 34.3059H37.5704C39.0851 34.265 39.5661 34.7971 39.5661 36.2402Z" fill="white"/>
<path d="M64.2923 35.0324V44.2433C64.2923 44.6629 64.4459 44.796 64.8245 44.796H75.8367C76.4508 44.796 76.7271 45.3282 76.7271 45.932C76.7271 46.5358 76.4508 47.0782 75.8367 47.0782H63.6578C62.2045 47.0782 61.7235 46.6074 61.7235 45.1132V35.0324C61.7265 34.8729 61.7631 34.7159 61.8308 34.5715C61.8986 34.4271 61.9959 34.2986 62.1166 34.1944C62.2373 34.0901 62.3786 34.0124 62.5312 33.9664C62.6839 33.9203 62.8446 33.9069 63.0028 33.9271C63.6885 33.9271 64.2923 34.2648 64.2923 35.0324Z" fill="white"/>
<path d="M26.6809 75.4785H21.9834V79.7053H20.0593V75.4785H15.4436V73.8615H26.7014L26.6809 75.4785ZM19.916 69.0513H16.4466V67.5469H25.6575V69.1025H22.229C22.4337 70.218 23.5902 71.395 26.1999 71.702L25.4835 73.2884C24.6072 73.2417 23.7533 72.9952 22.9869 72.5677C22.2206 72.1402 21.5622 71.543 21.0623 70.8219C20.5677 71.5437 19.9134 72.1417 19.1502 72.5695C18.3869 72.9972 17.5353 73.2432 16.6615 73.2884L15.9553 71.6406C18.5241 71.3438 19.6909 70.1669 19.916 69.0513Z" fill="white"/>
<path d="M28.7688 70.2279V69.706H26.855V68.0992H32.3713V69.706H30.6315V70.2279C30.6315 72.3362 31.1637 74.465 32.9956 75.56L31.8801 77.0235C30.8006 76.3403 30.0157 75.2779 29.6797 74.0453C29.3568 75.3656 28.5728 76.5271 27.4691 77.3203L26.3638 75.8364C28.1957 74.6492 28.7688 72.3567 28.7688 70.2279ZM31.5117 71.19H32.9956V67.0348H34.7969V79.1216H32.9956V72.807H31.5117V71.19ZM37.335 79.7049H35.5031V66.8506H37.335V79.7049Z" fill="white"/>
<path d="M47.0781 70.0028C47.063 70.5983 46.8447 71.1708 46.4593 71.625C46.0739 72.0793 45.5447 72.3881 44.9596 72.5V73.3494C45.8602 73.288 46.7608 73.1959 47.6001 73.0834L47.7536 74.5264C45.3282 74.9212 42.8725 75.0993 40.4155 75.0586L40.2313 73.4723H43.0151V72.5409C42.4172 72.4429 41.8727 72.1382 41.4762 71.6801C41.0798 71.2219 40.8565 70.6393 40.8454 70.0335C40.8454 68.4677 42.1554 67.393 43.9669 67.393C45.7783 67.393 47.0781 68.437 47.0781 70.0028ZM41.7562 75.7955H43.711V77.8423H50.568V79.4594H41.7562V75.7955ZM43.9259 71.0979C44.7037 71.0979 45.2155 70.709 45.2257 70.0028C45.2359 69.2966 44.7037 68.877 43.9259 68.8668C43.1481 68.8566 42.5955 69.2455 42.6057 70.0028C42.6159 70.7602 43.1481 71.0979 43.9259 71.0979ZM48.2244 66.8711H50.1484V70.8113H51.6324V72.4795H50.1484V76.6654H48.2244V66.8711Z" fill="white"/>
<path d="M58.9602 72.4283L57.9367 73.9942C57.3543 73.8051 56.8169 73.4986 56.3574 73.0938C55.898 72.6889 55.5264 72.1943 55.2656 71.6403C55.0007 72.2884 54.5981 72.8713 54.0856 73.3484C53.5731 73.8256 52.963 74.1856 52.2976 74.4035L51.2742 72.7968C52.1701 72.5422 52.9524 71.9897 53.492 71.2306C54.0316 70.4714 54.2962 69.551 54.2421 68.6211V67.5465H56.2071V68.57C56.1527 69.4315 56.3968 70.2855 56.8982 70.9882C57.3996 71.691 58.1278 72.1995 58.9602 72.4283ZM57.6092 74.7106C60.2702 74.7106 61.8974 75.6419 61.9077 77.2282C61.9179 78.8146 60.2702 79.7459 57.6092 79.7357C54.9483 79.7254 53.3517 78.8248 53.3517 77.2282C53.3517 75.6317 54.979 74.7106 57.6092 74.7106ZM57.6092 78.18C59.1751 78.18 59.9734 77.8628 59.9836 77.2282C59.9939 76.5937 59.1751 76.2048 57.6092 76.2048C56.0434 76.2048 55.2758 76.5118 55.2758 77.2282C55.2758 77.9446 56.0741 78.1493 57.6092 78.1493V78.18ZM57.773 69.1124H59.9427V66.8506H61.8667V74.3524H59.9427V70.7294H57.773V69.1124Z" fill="white"/>
<path d="M62.5627 68.7337H65.2339V67.0655H67.1682V68.7337H69.778V70.3303H62.5627V68.7337ZM66.2062 70.9443C66.8071 70.9704 67.3871 71.1724 67.8742 71.5252C68.3613 71.878 68.734 72.3661 68.9462 72.929C69.1583 73.4918 69.2004 74.1045 69.0674 74.691C68.9343 75.2776 68.6319 75.8122 68.1976 76.2283C67.7634 76.6445 67.2165 76.924 66.6249 77.0321C66.0332 77.1402 65.4228 77.0721 64.8695 76.8363C64.3162 76.6005 63.8443 76.2074 63.5124 75.7058C63.1806 75.2042 63.0034 74.6161 63.0028 74.0146C63.0024 73.6 63.086 73.1896 63.2486 72.8081C63.4111 72.4267 63.6493 72.0821 63.9486 71.7952C64.248 71.5083 64.6023 71.285 64.9903 71.1387C65.3783 70.9925 65.7919 70.9264 66.2062 70.9443ZM66.2062 75.4884C66.394 75.4956 66.5811 75.4621 66.7547 75.39C66.9283 75.3179 67.0842 75.2091 67.2117 75.0709C67.3391 74.9328 67.4351 74.7686 67.4929 74.5898C67.5508 74.411 67.5692 74.2217 67.5469 74.0351C67.5654 73.8491 67.5449 73.6612 67.4865 73.4835C67.4281 73.3059 67.3333 73.1424 67.208 73.0037C67.0827 72.8649 66.9297 72.7538 66.759 72.6776C66.5882 72.6015 66.4034 72.5619 66.2164 72.5614C66.0271 72.5554 65.8388 72.5906 65.6644 72.6645C65.4901 72.7383 65.3338 72.8491 65.2063 72.9892C65.0789 73.1293 64.9834 73.2953 64.9263 73.4759C64.8692 73.6564 64.8519 73.8472 64.8757 74.0351C64.8499 74.2215 64.8655 74.4113 64.9214 74.591C64.9774 74.7706 65.0723 74.9357 65.1993 75.0745C65.3264 75.2133 65.4825 75.3224 65.6565 75.3939C65.8306 75.4654 66.0182 75.4977 66.2062 75.4884ZM72.4082 71.7938H74.1583V73.462H72.4082V79.7049H70.5046V66.8506H72.4082V71.7938Z" fill="white"/>
<path d="M78.559 69.7469H74.5267V68.1811H80.5343C80.5343 72.1418 79.3266 75.3451 74.8337 77.5557L73.8103 75.9694C76.9625 74.424 78.2827 72.5204 78.559 69.7469ZM84.2391 79.7049H82.2741V66.8506H84.2391V79.7049Z" fill="white"/>
</g>
<defs>
<clipPath id="clip0_192_19308">
<rect width="100" height="100" fill="white"/>
</clipPath>
</defs>
</svg>
