<svg width="180" height="271" viewBox="0 0 180 271" fill="none" xmlns="http://www.w3.org/2000/svg">
<path d="M180 167.4V12.6C180 5.643 174.357 0 167.4 0H12.6C5.643 0 0 5.643 0 12.6V167.4C0 174.051 5.166 179.487 11.7 179.955V180.126C5.166 180.585 0 186.03 0 192.681V257.481C0 264.438 5.643 270.081 12.6 270.081H167.4C174.357 270.081 180 264.438 180 257.481V192.681C180 186.03 174.834 180.594 168.3 180.126V179.955C174.834 179.496 180 174.051 180 167.4ZM36.9 179.631H143.1V180.531H36.9V179.631Z" fill="black"/>
<path d="M140.868 81.1667L135.562 93.2675L129.558 81.1667H124.938L133.449 97.9497L129.933 105.785H134.417L145.353 81.1563H140.868V81.1667ZM122.368 99.8642H117.977V98.1162C116.396 99.4792 114.502 100.249 112.203 100.249C106.948 100.249 102.838 95.9728 102.838 90.5103C102.838 85.0477 106.948 80.7713 112.203 80.7713C114.492 80.7713 116.396 81.5309 117.977 82.9043V81.1563H122.368V99.8642ZM118.487 90.5103C118.487 86.983 116.032 84.2986 112.754 84.2986C109.477 84.2986 107.021 86.9726 107.021 90.5103C107.021 94.0479 109.477 96.7219 112.754 96.7219C116.032 96.7219 118.487 94.0479 118.487 90.5103ZM81.0195 105.785H85.5976V98.2827C87.1479 99.5521 88.9792 100.249 91.185 100.249C96.4394 100.249 100.549 95.9728 100.549 90.5103C100.549 85.0477 96.4394 80.7713 91.185 80.7713C88.8959 80.7713 86.9919 81.5309 85.4103 82.9043V81.1563H81.0195V105.785ZM90.6231 84.3194C93.8799 84.3194 96.3562 86.9934 96.3562 90.5311C96.3562 94.0687 93.9007 96.7428 90.6231 96.7428C87.3456 96.7428 84.8901 94.0687 84.8901 90.5311C84.8901 86.9934 87.3456 84.3194 90.6231 84.3194Z" fill="#00DE5A"/>
<path d="M72.8205 91.0929C72.8205 101.633 64.2781 110.186 53.7276 110.186C43.1771 110.186 34.6348 101.643 34.6348 91.0929C34.6348 80.5424 43.1771 72 53.7276 72C64.2781 72 72.8205 80.5424 72.8205 91.0929ZM56.9219 82.1239V91.7171L50.2524 82.1239H44.7483V100.062H50.5229V90.4686L57.1924 100.062H62.6966V82.1239H56.9219Z" fill="#00DE5A"/>
<path d="M37.9619 247.923H31.8779V225.855H27.0449V220.545H37.9619V247.923Z" fill="white"/>
<path d="M63.4591 234.216C63.4591 243.792 58.9591 248.589 52.9831 248.589C47.0071 248.589 42.5071 243.783 42.5071 234.216C42.5071 224.649 47.0071 219.807 52.9831 219.807C58.9591 219.807 63.4591 224.613 63.4591 234.216ZM48.2761 234.216C48.2761 240.435 50.2921 243.252 52.9831 243.252C55.6741 243.252 57.6901 240.435 57.6901 234.216C57.6901 227.997 55.6741 225.144 52.9831 225.144C50.2921 225.144 48.2761 227.97 48.2761 234.216Z" fill="white"/>
<path d="M68.0943 250.605H63.6303L64.8363 241.902H70.1733L68.0943 250.605Z" fill="white"/>
<path d="M92.2498 234.216C92.2498 243.792 87.7498 248.589 81.7738 248.589C75.7978 248.589 71.2979 243.783 71.2979 234.216C71.2979 224.649 75.7978 219.807 81.7738 219.807C87.7498 219.807 92.2498 224.613 92.2498 234.216ZM77.0668 234.216C77.0668 240.435 79.0828 243.252 81.7738 243.252C84.4648 243.252 86.4808 240.435 86.4808 234.216C86.4808 227.997 84.4648 225.144 81.7738 225.144C79.0828 225.144 77.0668 227.97 77.0668 234.216Z" fill="white"/>
<path d="M115.056 234.216C115.056 243.792 110.556 248.589 104.58 248.589C98.6041 248.589 94.1041 243.783 94.1041 234.216C94.1041 224.649 98.6041 219.807 104.58 219.807C110.556 219.807 115.056 224.613 115.056 234.216ZM99.8732 234.216C99.8732 240.435 101.889 243.252 104.58 243.252C107.271 243.252 109.287 240.435 109.287 234.216C109.287 227.997 107.271 225.144 104.58 225.144C101.889 225.144 99.8732 227.97 99.8732 234.216Z" fill="white"/>
<path d="M137.871 234.216C137.871 243.792 133.371 248.589 127.395 248.589C121.419 248.589 116.919 243.783 116.919 234.216C116.919 224.649 121.419 219.807 127.395 219.807C133.371 219.807 137.871 224.613 137.871 234.216ZM122.688 234.216C122.688 240.435 124.704 243.252 127.395 243.252C130.086 243.252 132.102 240.435 132.102 234.216C132.102 227.997 130.086 225.144 127.395 225.144C124.704 225.144 122.688 227.97 122.688 234.216Z" fill="white"/>
<path d="M142.497 241.236V239.688H149.166C151.38 239.688 153.342 239.517 154.458 239.049V240.597C153.441 241.047 151.416 241.236 149.112 241.236H148.833V244.125H146.961V241.236H142.497ZM143.46 235.404C143.46 233.379 145.44 232.272 148.239 232.272C151.038 232.272 153.018 233.388 153.018 235.404C153.018 237.42 151.056 238.554 148.239 238.554C145.422 238.554 143.46 237.438 143.46 235.404ZM158.094 246.564V248.148H143.991V243.261H145.863V246.564H158.103H158.094ZM145.296 235.404C145.296 236.52 146.538 237.087 148.239 237.087C149.94 237.087 151.182 236.52 151.182 235.404C151.182 234.288 149.94 233.739 148.239 233.739C146.538 233.739 145.296 234.288 145.296 235.404ZM155.817 242.352V232.227H157.689V244.863H155.817V243.864H150.93V242.352H155.817Z" fill="white"/>
</svg>
