<svg width="42" height="42" viewBox="0 0 42 42" fill="none" xmlns="http://www.w3.org/2000/svg">
<path d="M4.12004 41.4201C4.12004 41.4201 0.540039 41.4201 0.540039 37.8401V3.6601C0.540039 3.6601 0.540041 0.0800781 4.12004 0.0800781H38.3C38.3 0.0800781 41.88 0.0800953 41.88 3.6601V37.8401C41.88 37.8401 41.88 41.4201 38.3 41.4201H4.12004Z" fill="#D00F1D"/>
<path d="M27.22 8.58008C24.79 8.58008 22.63 11.8101 21.22 16.8601C19.81 11.8101 17.64 8.58008 15.22 8.58008C10.96 8.58008 7.5 19.3301 7.5 32.6001H10.93C10.93 20.2801 12.85 10.3001 15.22 10.3001C17.59 10.3001 19.51 19.5201 19.51 30.8901H22.94C22.94 19.5201 24.86 10.3001 27.23 10.3001C29.6 10.3001 31.52 20.2801 31.52 32.6001H34.95C34.95 19.3401 31.49 8.58008 27.23 8.58008H27.22Z" fill="#FCB925"/>
</svg>
