<svg width="342" height="72" viewBox="0 0 342 72" fill="none" xmlns="http://www.w3.org/2000/svg">
<g clip-path="url(#clip0_285_2729)">
<path d="M279.35 71.9702H341.06L326.6 46.1102L341.06 21.9502H279.35V71.9702Z" fill="#4068B4"/>
<path d="M279.35 71.6305L309.7 50.0205H279.35V71.6305Z" fill="#25254E"/>
<path d="M61.71 71.9702H0L14.46 46.1102L0 21.9502H61.71V71.9702Z" fill="#4068B4"/>
<path d="M61.7101 71.6305L31.3501 50.0205H61.7101V71.6305Z" fill="#25254E"/>
<path d="M310.37 0H31.3999V50.02H310.37V0Z" fill="#6687C7"/>
</g>
<path d="M100.492 12.8281V34.2031H97.4688V12.8281H100.492ZM83.2656 21.9219C83.2539 17.2695 85.6328 14.3281 88.9141 14.3281C92.125 14.3281 94.5156 17.2695 94.5156 21.9219C94.5156 26.6094 92.125 29.5391 88.9141 29.5391C85.6328 29.5391 83.2539 26.6094 83.2656 21.9219ZM86.1484 21.9219C86.1367 25.0977 87.25 26.832 88.9141 26.8203C90.5312 26.832 91.6211 25.0977 91.6328 21.9219C91.6211 18.7578 90.5312 17.0234 88.9141 17.0234C87.25 17.0234 86.1367 18.7578 86.1484 21.9219ZM121.703 12.8281V28.9531H118.867V12.8281H121.703ZM104.125 25.25V14.4688H106.961V17.7266H109.867V14.4688H112.633V18.7344H114.555V13.1562H117.367V28.2734H114.555V21.125H112.633V25.25H104.125ZM106.961 22.8359H109.867V20H106.961V22.8359ZM107.242 33.7812V26.8203H110.242V31.3906H122.242V33.7812H107.242ZM141.508 23.8438V26.2109H126.414V14.3984H141.344V16.8125H129.461V19.0625H140.852V21.4062H129.461V23.8438H141.508ZM124.117 31.6719V29.2344H143.641V31.6719H124.117ZM167.359 12.8281V17.8906H170.195V20.3281H167.359V25.1797H164.312V12.8281H167.359ZM151.141 24.0312V14.2578H160.727V16.6484H154.117V21.6172C158.078 21.5938 160.246 21.4648 162.625 20.9609L162.883 23.3516C160.246 23.9258 157.738 24.0195 152.922 24.0312H151.141ZM153.016 29.8203C153.004 27.1367 155.863 25.5547 160.328 25.5547C164.711 25.5547 167.512 27.1367 167.523 29.8203C167.512 32.5625 164.711 34.168 160.328 34.1562C155.863 34.168 153.004 32.5625 153.016 29.8203ZM155.969 29.8203C155.957 31.1094 157.527 31.7891 160.328 31.7891C163.035 31.7891 164.605 31.1094 164.617 29.8203C164.605 28.5664 163.035 27.9102 160.328 27.9219C157.527 27.9102 155.957 28.5664 155.969 29.8203ZM178.984 17.375C178.996 19.5898 180.59 21.7695 184.023 22.6719L182.688 24.9922C180.215 24.3477 178.504 23 177.531 21.2656C176.594 23.1523 174.895 24.6523 172.375 25.3672L170.969 23.0469C174.426 22.1094 176.008 19.7656 176.008 17.375V17.3047H171.719V14.9609H176.008V12.7344H179.031V14.9609H183.297V17.3047H178.984V17.375ZM174.766 33.9219V26.2344H189.109V33.9219H174.766ZM177.766 31.5312H186.18V28.625H177.766V31.5312ZM182.758 20.8438V18.4297H186.133V12.8281H189.109V25.3203H186.133V20.8438H182.758ZM199.75 18.6406C199.738 21.8867 201.473 25.6367 204.977 27.2656L203.312 29.6094C200.934 28.5195 199.246 26.3398 198.285 23.7852C197.336 26.5977 195.578 28.9883 193.117 30.1484L191.383 27.7812C194.934 26.1289 196.727 22.168 196.75 18.6406V17.3281H192.227V14.8906H204.039V17.3281H199.75V18.6406ZM205.703 34.1562V12.8281H208.703V20.9609H211.844V23.4688H208.703V34.1562H205.703ZM235.07 12.8281V18.9453H237.953V21.4297H235.07V28.3672H232.07V12.8281H235.07ZM218.289 19.625C218.277 16.4492 220.867 14.1992 224.148 14.2109C227.418 14.1992 229.961 16.4492 229.961 19.625C229.961 22.7539 227.418 25.0391 224.148 25.0391C220.867 25.0391 218.277 22.7539 218.289 19.625ZM221.242 33.7812V26.7266H224.219V31.3906H235.844V33.7812H221.242ZM221.242 19.625C221.219 21.3594 222.52 22.4375 224.148 22.4375C225.789 22.4375 227.043 21.3594 227.055 19.625C227.043 17.8438 225.789 16.8008 224.148 16.8125C222.52 16.8008 221.219 17.8438 221.242 19.625ZM257.289 12.8281V34.1562H254.406V23.4922H252.414V33.125H249.602V13.1797H252.414V21.0781H254.406V12.8281H257.289ZM239.758 28.9531V15.1953H242.758V26.3398C244.469 26.293 246.355 26.1406 248.406 25.7422L248.711 28.3203C245.852 28.8125 243.414 28.9648 241.211 28.9531H239.758Z" fill="white"/>
<defs>
<clipPath id="clip0_285_2729">
<rect width="341.06" height="71.97" fill="white"/>
</clipPath>
</defs>
</svg>
