<svg width="119" height="30" viewBox="0 0 119 30" fill="none" xmlns="http://www.w3.org/2000/svg">
<path d="M0.96 17.064V13.64H29.44V17.064H0.96ZM9.088 18.92H21.312C25.472 18.92 28 20.936 28 24.104C28 27.272 25.472 29.288 21.312 29.288H9.088C4.928 29.288 2.4 27.272 2.4 24.104C2.4 20.936 4.928 18.92 9.088 18.92ZM9.376 25.832H21.024C22.656 25.832 23.648 25.096 23.648 24.104C23.648 23.112 22.656 22.376 21.024 22.376H9.376C7.744 22.376 6.752 23.112 6.752 24.104C6.752 25.096 7.744 25.832 9.376 25.832ZM20.608 11.72H9.792C5.184 11.72 2.4 9.576 2.4 6.216C2.4 2.856 5.184 0.711998 9.792 0.711998H20.608C25.216 0.711998 28 2.856 28 6.216C28 9.576 25.216 11.72 20.608 11.72ZM9.984 8.264H20.416C22.368 8.264 23.648 7.496 23.648 6.216C23.648 4.936 22.368 4.168 20.416 4.168H9.984C8.032 4.168 6.752 4.936 6.752 6.216C6.752 7.496 8.032 8.264 9.984 8.264ZM31.3663 28.2V24.52H43.3343V18.632H33.7663V1.32H57.4463V18.632H47.8783V24.52H59.8463V28.2H31.3663ZM38.1183 14.984H53.0943V4.968H38.1183V14.984ZM80.4925 29.288H70.2525C65.7405 29.288 62.8925 27.048 62.8925 23.464C62.8925 19.88 65.7405 17.64 70.2525 17.64H80.4925C85.0045 17.64 87.8525 19.88 87.8525 23.464C87.8525 27.048 85.0045 29.288 80.4925 29.288ZM62.2525 15.752V0.967999H66.6045V4.84H75.1805V0.967999H79.5325V15.752H62.2525ZM82.8605 16.936V0.711998H87.2125V6.28H91.0525V10.184H87.2125V16.936H82.8605ZM70.5085 25.832H80.2365C82.1885 25.832 83.5005 24.936 83.5005 23.464C83.5005 21.992 82.1885 21.096 80.2365 21.096H70.5085C68.5565 21.096 67.2445 21.992 67.2445 23.464C67.2445 24.936 68.5565 25.832 70.5085 25.832ZM66.6045 12.296H75.1805V8.296H66.6045V12.296ZM92.9788 15.112V0.967999H97.3308V4.52H105.907V0.967999H110.259V5.96H114.227V0.711998H118.579V15.88H114.227V9.864H110.259V15.112H92.9788ZM94.8988 29.16V16.84H99.2508V19.464H114.227V16.84H118.579V29.16H94.8988ZM99.2508 25.704H114.227V22.92H99.2508V25.704ZM97.3308 11.656H105.907V7.976H97.3308V11.656Z" fill="#8F81E9"/>
</svg>
