<svg width="180" height="271" viewBox="0 0 180 271" fill="none" xmlns="http://www.w3.org/2000/svg">
<path d="M180 167.4V12.6C180 5.643 174.357 0 167.4 0H12.6C5.643 0 0 5.643 0 12.6V167.4C0 174.051 5.166 179.487 11.7 179.955V180.126C5.166 180.585 0 186.03 0 192.681V257.481C0 264.438 5.643 270.081 12.6 270.081H167.4C174.357 270.081 180 264.438 180 257.481V192.681C180 186.03 174.834 180.594 168.3 180.126V179.955C174.834 179.496 180 174.051 180 167.4ZM36.9 179.631H143.1V180.531H36.9V179.631Z" fill="black"/>
<path d="M140.868 81.1667L135.562 93.2675L129.558 81.1667H124.938L133.449 97.9497L129.933 105.785H134.417L145.353 81.1563H140.868V81.1667ZM122.368 99.8642H117.977V98.1162C116.396 99.4792 114.502 100.249 112.203 100.249C106.948 100.249 102.838 95.9728 102.838 90.5103C102.838 85.0477 106.948 80.7713 112.203 80.7713C114.492 80.7713 116.396 81.5309 117.977 82.9043V81.1563H122.368V99.8642ZM118.487 90.5103C118.487 86.983 116.032 84.2986 112.754 84.2986C109.477 84.2986 107.021 86.9726 107.021 90.5103C107.021 94.0479 109.477 96.7219 112.754 96.7219C116.032 96.7219 118.487 94.0479 118.487 90.5103ZM81.0195 105.785H85.5976V98.2827C87.1479 99.5521 88.9792 100.249 91.185 100.249C96.4394 100.249 100.549 95.9728 100.549 90.5103C100.549 85.0477 96.4394 80.7713 91.185 80.7713C88.8959 80.7713 86.9918 81.5309 85.4103 82.9043V81.1563H81.0195V105.785ZM90.6231 84.3194C93.8798 84.3194 96.3562 86.9934 96.3562 90.5311C96.3562 94.0687 93.9007 96.7428 90.6231 96.7428C87.3456 96.7428 84.8901 94.0687 84.8901 90.5311C84.8901 86.9934 87.3456 84.3194 90.6231 84.3194Z" fill="#00DE5A"/>
<path d="M72.8205 91.0929C72.8205 101.633 64.2781 110.186 53.7276 110.186C43.1771 110.186 34.6348 101.643 34.6348 91.0929C34.6348 80.5424 43.1771 72 53.7276 72C64.2781 72 72.8205 80.5424 72.8205 91.0929ZM56.9219 82.1239V91.7171L50.2524 82.1239H44.7483V100.062H50.5229V90.4686L57.1924 100.062H62.6966V82.1239H56.9219Z" fill="#00DE5A"/>
<path fill-rule="evenodd" clip-rule="evenodd" d="M64.791 234.216C64.791 243.792 60.291 248.589 54.315 248.589C48.339 248.589 43.839 243.783 43.839 234.216C43.839 224.649 48.339 219.807 54.315 219.807C60.291 219.807 64.791 224.613 64.791 234.216ZM49.608 234.216C49.608 240.435 51.624 243.252 54.306 243.252C56.988 243.252 59.013 240.435 59.013 234.216C59.013 227.997 56.997 225.144 54.306 225.144C51.615 225.144 49.608 227.97 49.608 234.216Z" fill="white"/>
<path d="M27.9722 239.922C28.2062 242.109 29.4482 243.378 31.9682 243.378C34.4882 243.378 35.9642 241.533 35.9642 239.013C35.9642 236.493 34.4882 234.684 31.8692 234.684C29.9522 234.684 28.7462 235.521 28.0082 236.529H22.4642L23.2652 220.536H40.5632V225.747H28.8092L28.5032 230.886C29.6822 230.184 31.1582 229.743 32.9042 229.743C38.2772 229.743 41.9042 233.199 41.9042 239.013C41.9042 244.827 37.6022 248.553 31.9592 248.553C26.0102 248.553 22.3832 245.196 21.9512 239.922H27.9722Z" fill="white"/>
<path d="M64.9622 250.605H69.4262L71.5052 241.902H66.1682L64.9622 250.605Z" fill="white"/>
<path fill-rule="evenodd" clip-rule="evenodd" d="M93.5822 234.216C93.5822 243.792 89.0822 248.589 83.1062 248.589C77.1302 248.589 72.6302 243.783 72.6302 234.216C72.6302 224.649 77.1302 219.807 83.1062 219.807C89.0822 219.807 93.5822 224.613 93.5822 234.216ZM78.3992 234.216C78.3992 240.435 80.4152 243.252 83.0972 243.252C85.7792 243.252 87.8042 240.435 87.8042 234.216C87.8042 227.997 85.7882 225.144 83.0972 225.144C80.4062 225.144 78.3992 227.97 78.3992 234.216Z" fill="white"/>
<path fill-rule="evenodd" clip-rule="evenodd" d="M105.912 248.589C111.888 248.589 116.388 243.792 116.388 234.216C116.388 224.613 111.888 219.807 105.912 219.807C99.9361 219.807 95.4361 224.649 95.4361 234.216C95.4361 243.783 99.9361 248.589 105.912 248.589ZM105.912 243.252C103.221 243.252 101.205 240.435 101.205 234.216C101.205 227.97 103.23 225.144 105.912 225.144C108.594 225.144 110.61 227.997 110.61 234.216C110.61 240.435 108.603 243.252 105.912 243.252Z" fill="white"/>
<path fill-rule="evenodd" clip-rule="evenodd" d="M139.203 234.216C139.203 243.792 134.703 248.589 128.727 248.589C122.751 248.589 118.251 243.783 118.251 234.216C118.251 224.649 122.751 219.807 128.727 219.807C134.703 219.807 139.203 224.613 139.203 234.216ZM124.02 234.216C124.02 240.435 126.036 243.252 128.718 243.252C131.4 243.252 133.425 240.435 133.425 234.216C133.425 227.997 131.409 225.144 128.718 225.144C126.027 225.144 124.02 227.97 124.02 234.216Z" fill="white"/>
<path d="M142.497 241.236H146.961V244.125H148.833V241.236H149.112C151.416 241.236 153.441 241.047 154.458 240.597V239.049C153.342 239.517 151.38 239.688 149.166 239.688H142.497V241.236Z" fill="white"/>
<path fill-rule="evenodd" clip-rule="evenodd" d="M148.239 232.272C145.44 232.272 143.46 233.379 143.46 235.404C143.46 237.438 145.422 238.554 148.239 238.554C151.056 238.554 153.018 237.42 153.018 235.404C153.018 233.388 151.038 232.272 148.239 232.272ZM148.239 237.087C146.538 237.087 145.296 236.52 145.296 235.404C145.296 234.288 146.538 233.739 148.239 233.739C149.94 233.739 151.182 234.288 151.182 235.404C151.182 236.52 149.94 237.087 148.239 237.087Z" fill="white"/>
<path d="M158.094 248.148V246.564H145.863V243.261H143.991V248.148H158.094Z" fill="white"/>
<path d="M155.817 232.227V242.352H150.93V243.864H155.817V244.863H157.689V232.227H155.817Z" fill="white"/>
</svg>
