<svg width="42" height="38" viewBox="0 0 42 38" fill="none" xmlns="http://www.w3.org/2000/svg">
<path d="M3.02734 37.487V35.131H4.40168V35.435H3.42634V36.1126H4.35101V36.4166H3.42634V37.183H4.42701V37.487H3.02734Z" fill="#505559"/>
<path d="M5.85165 37.43C5.70598 37.4806 5.54765 37.487 5.39565 37.487H4.81299V35.131H5.39565C6.21265 35.131 6.428 35.5363 6.428 36.3026C6.428 36.7586 6.34567 37.278 5.85165 37.43ZM5.39565 35.416H5.21199V37.202H5.39565C5.50965 37.202 5.62999 37.1893 5.73132 37.1323C5.97832 36.9803 5.99099 36.556 5.99099 36.3026C5.99099 35.853 5.95932 35.416 5.39565 35.416Z" fill="#505559"/>
<path d="M7.6378 37.525C7.1438 37.525 6.8208 37.278 6.8208 36.765V35.131H7.2198V36.765C7.2198 37.0436 7.3338 37.24 7.6378 37.24C7.9418 37.24 8.0558 37.0436 8.0558 36.765V35.131H8.4548V36.765C8.4548 37.2843 8.13813 37.525 7.6378 37.525Z" fill="#505559"/>
<path d="M10.1207 35.777C10.1207 35.5364 10.0383 35.378 9.77232 35.378C9.34166 35.378 9.28466 35.91 9.28466 36.2394C9.28466 36.6764 9.37966 37.2147 9.92432 37.2147C10.1207 37.2147 10.3043 37.1387 10.4753 37.0437V37.3984C10.279 37.4807 10.051 37.5377 9.83566 37.5377C9.09466 37.5377 8.84766 36.974 8.84766 36.309C8.84766 35.6884 9.05666 35.1057 9.77866 35.1057C10.2093 35.1057 10.5703 35.3274 10.5703 35.7897H10.127L10.1207 35.777Z" fill="#505559"/>
<path d="M12.2741 37.487L12.0714 36.8473H11.2227L11.0201 37.487H10.6021L11.4064 35.131H11.8877L12.6921 37.487H12.2741ZM11.6471 35.511H11.6407L11.3177 36.5433H11.9701L11.6471 35.511Z" fill="#505559"/>
<path d="M13.6228 35.435V37.487H13.2238V35.435H12.6348V35.131H14.2118V35.435H13.6228Z" fill="#505559"/>
<path d="M14.4717 37.487V35.131H14.8707V37.487H14.4717Z" fill="#505559"/>
<path d="M16.2322 37.5251C15.4722 37.5251 15.2822 36.9678 15.2822 36.3091C15.2822 35.6505 15.4786 35.0931 16.2322 35.0931C16.9859 35.0931 17.1822 35.6505 17.1822 36.3091C17.1822 36.9678 16.9859 37.5251 16.2322 37.5251ZM16.2322 35.3781C15.7636 35.3781 15.7192 35.9608 15.7192 36.3091C15.7192 36.6575 15.7572 37.2401 16.2322 37.2401C16.7072 37.2401 16.7452 36.6511 16.7452 36.3091C16.7452 35.9671 16.7009 35.3781 16.2322 35.3781Z" fill="#505559"/>
<path d="M18.9238 37.487L17.9738 35.6693H17.9674V37.487H17.6001V35.131H18.0941L18.9998 36.8663H19.0061V35.131H19.3734V37.487H18.9238Z" fill="#505559"/>
<path d="M22.0904 35.777C22.0904 35.5364 22.0081 35.378 21.7421 35.378C21.3114 35.378 21.2544 35.91 21.2544 36.2394C21.2544 36.6764 21.3494 37.2147 21.894 37.2147C22.0904 37.2147 22.274 37.1387 22.445 37.0437V37.3984C22.2487 37.4807 22.0207 37.5377 21.8054 37.5377C21.0644 37.5377 20.8174 36.974 20.8174 36.309C20.8174 35.6884 21.0264 35.1057 21.7484 35.1057C22.1791 35.1057 22.5401 35.3274 22.5401 35.7897H22.0967L22.0904 35.777Z" fill="#505559"/>
<path d="M23.6805 37.5251C22.9205 37.5251 22.7305 36.9678 22.7305 36.3091C22.7305 35.6505 22.9268 35.0931 23.6805 35.0931C24.4341 35.0931 24.6305 35.6505 24.6305 36.3091C24.6305 36.9678 24.4341 37.5251 23.6805 37.5251ZM23.6805 35.3781C23.2118 35.3781 23.1675 35.9608 23.1675 36.3091C23.1675 36.6575 23.2055 37.2401 23.6805 37.2401C24.1555 37.2401 24.1935 36.6511 24.1935 36.3091C24.1935 35.9671 24.1491 35.3781 23.6805 35.3781Z" fill="#505559"/>
<path d="M27.094 37.487V35.6313H27.0877L26.4417 37.487H26.0744L25.4284 35.6313H25.422V37.487H25.061V35.131H25.6057L26.258 37.012L26.9167 35.131H27.4614V37.487H27.094Z" fill="#505559"/>
<path d="M30.0135 37.487V35.6313H30.0071L29.3611 37.487H28.9938L28.3478 35.6313H28.3415V37.487H27.9741V35.131H28.5188L29.1711 37.012H29.1775L29.8361 35.131H30.3808V37.487H30.0135Z" fill="#505559"/>
<path d="M30.8809 37.487V35.131H31.2799V37.487H30.8809Z" fill="#505559"/>
<path d="M32.5276 35.435V37.487H32.1286V35.435H31.5396V35.131H33.1166V35.435H32.5276Z" fill="#505559"/>
<path d="M34.1174 35.435V37.487H33.7184V35.435H33.1294V35.131H34.7064V35.435H34.1174Z" fill="#505559"/>
<path d="M34.9727 37.487V35.131H36.347V35.435H35.3717V36.1126H36.2963V36.4166H35.3717V37.183H36.3723V37.487H34.9727Z" fill="#505559"/>
<path d="M36.7583 37.487V35.131H38.1326V35.435H37.1573V36.1126H38.082V36.4166H37.1573V37.183H38.158V37.487H36.752H36.7583Z" fill="#505559"/>
<path d="M6.257 29.9566C6.257 29.7983 6.23167 29.6906 6.19367 29.6336C6.14934 29.5766 6.07334 29.5196 5.972 29.4563C5.858 29.412 5.82 29.355 5.858 29.2853C5.896 29.2156 5.94034 29.184 5.991 29.1903C6.00367 29.1903 6.143 29.203 6.39632 29.2283C6.64966 29.2536 6.89032 29.279 7.11199 29.298C7.14999 29.298 7.18166 29.3233 7.20066 29.355C7.21966 29.3866 7.22599 29.4183 7.22599 29.4436V31.958H9.37299C9.60732 31.958 9.72133 32.0466 9.72133 32.2303C9.72133 32.414 9.60732 32.5026 9.37299 32.5026H3.502C3.36267 32.5026 3.274 32.49 3.22967 32.4646C3.19167 32.4393 3.14734 32.4013 3.11567 32.3506L2.856 31.977C2.81167 31.8883 2.81167 31.8186 2.856 31.7743C2.90034 31.73 2.96367 31.7236 3.03967 31.768C3.17267 31.8313 3.28666 31.8756 3.38166 31.9073C3.47666 31.939 3.635 31.9516 3.85666 31.9516H4.65467V30.0706C4.65467 29.9123 4.62934 29.8046 4.59134 29.7476C4.547 29.697 4.471 29.6336 4.36967 29.5703C4.25567 29.526 4.21767 29.469 4.24934 29.3993C4.28734 29.3296 4.33167 29.3043 4.38234 29.3043C4.395 29.3043 4.53433 29.317 4.78766 29.3423C5.041 29.3676 5.28167 29.393 5.50334 29.412C5.54767 29.412 5.573 29.4373 5.592 29.469C5.611 29.5006 5.61734 29.5323 5.61734 29.5576V31.9453H6.257V29.9376V29.9566ZM4.14167 27.5816C4.072 27.569 4.015 27.5373 3.97066 27.4803L3.68567 27.0813C3.654 27.037 3.654 26.98 3.67933 26.9166C3.70466 26.8533 3.76167 26.847 3.85034 26.885C3.977 26.942 4.09734 26.98 4.205 26.9926C4.31267 27.0116 4.45834 27.018 4.65467 27.018H8.80299C8.91066 27.018 8.98032 27.0623 9.01832 27.1446C9.04999 27.2206 9.06899 27.303 9.06899 27.3916C9.01832 28.0313 8.91066 28.6773 8.73966 29.3423C8.56866 30.0073 8.34699 30.4886 8.08733 30.7926C7.99866 30.894 7.88466 30.951 7.75166 30.9636C7.61866 30.9763 7.56799 30.8813 7.61232 30.6786C7.70099 30.2353 7.76432 29.7476 7.79599 29.2093C7.82766 28.671 7.84666 28.1326 7.84666 27.6006H4.40767C4.30634 27.6006 4.21766 27.6006 4.15433 27.5816H4.14167Z" fill="#505559"/>
<path d="M16.0167 31.2424C16.0167 31.2424 16.0547 31.3057 16.0547 31.3627V32.5914C16.0547 32.8447 15.9977 33.0537 15.8837 33.2121C15.7697 33.3704 15.6177 33.4527 15.4341 33.4527H15.1301C15.0604 33.4527 15.0097 33.4401 14.9717 33.4084C14.9337 33.3831 14.9147 33.3324 14.9147 33.2627V31.7301H11.3997C11.2794 31.7301 11.2034 31.7174 11.1717 31.6921C11.1401 31.6667 11.1021 31.6351 11.0577 31.5844L10.8107 31.2677C10.7727 31.1981 10.7727 31.1474 10.8107 31.1031C10.8424 31.0587 10.8931 31.0461 10.9564 31.0651C11.0831 31.1157 11.1971 31.1537 11.2857 31.1727C11.3744 31.1917 11.4821 31.1981 11.5961 31.1981H11.9761V30.3431H10.6207C10.4814 30.3431 10.3991 30.3367 10.3737 30.3177C10.3484 30.2987 10.3167 30.2671 10.2724 30.2227L10.0064 29.9187C9.96206 29.8301 9.96206 29.7604 10.0064 29.7161C10.0507 29.6717 10.1141 29.6654 10.1901 29.7097C10.3294 29.7667 10.4624 29.8047 10.5891 29.8174C10.7157 29.8301 10.8424 29.8364 10.9754 29.8364H16.8084C17.0427 29.8364 17.1567 29.9251 17.1567 30.0961C17.1567 30.2671 17.0364 30.3494 16.8084 30.3494H15.2567V31.2044H15.9027C15.9597 31.2044 15.9977 31.2171 16.0231 31.2424H16.0167ZM15.1554 26.6507C15.6557 26.9104 15.9091 27.2841 15.9091 27.7717C15.9091 28.2594 15.6557 28.6331 15.1554 28.8927C14.6551 29.1524 14.1104 29.2791 13.5341 29.2791C12.9577 29.2791 12.4194 29.1524 11.9191 28.8927C11.4187 28.6331 11.1654 28.2594 11.1654 27.7717C11.1654 27.2841 11.4187 26.9104 11.9254 26.6507C12.4321 26.3911 12.9704 26.2644 13.5467 26.2644C14.1231 26.2644 14.6614 26.3911 15.1617 26.6507H15.1554ZM12.7044 28.4557C12.9451 28.6267 13.2174 28.7091 13.5341 28.7091C13.8507 28.7091 14.1104 28.6267 14.3574 28.4557C14.6044 28.2847 14.7247 28.0567 14.7247 27.7717C14.7247 27.4867 14.5981 27.2587 14.3574 27.0814C14.1104 26.9041 13.8381 26.8217 13.5341 26.8217C13.2174 26.8217 12.9387 26.9104 12.7044 27.0814C12.4637 27.2524 12.3497 27.4867 12.3497 27.7717C12.3497 28.0567 12.4701 28.2847 12.7044 28.4557ZM13.0211 31.2107H14.2054V30.3557H13.0211V31.2107Z" fill="#505559"/>
<path d="M22.065 30.5141C21.837 30.5584 21.5583 30.5837 21.2163 30.5837H20.5323V32.5915C20.5323 32.7498 20.4816 32.8954 20.374 33.0284C20.2726 33.1551 20.1396 33.2248 19.9876 33.2248H19.6394C19.5697 33.2248 19.5253 33.2121 19.4936 33.1804C19.462 33.1487 19.4493 33.1045 19.4493 33.0348V30.5837H18.113C17.9926 30.5837 17.9103 30.5711 17.866 30.5457C17.8216 30.5204 17.7773 30.4887 17.733 30.4381L17.4924 30.0771C17.4544 30.0075 17.4544 29.9505 17.4924 29.8998C17.5304 29.8491 17.581 29.8427 17.657 29.8807C17.7773 29.9377 17.885 29.9758 17.9736 29.9885C18.0686 30.0075 18.2143 30.0137 18.4106 30.0137H21.1403C21.5773 30.0137 21.9004 30.0011 22.1094 29.9758C22.3184 29.9505 22.502 29.9124 22.654 29.8617V27.0624C22.654 26.9041 22.5844 26.7837 22.445 26.7141C22.3057 26.6444 22.1916 26.5811 22.103 26.5367C22.0333 26.4924 22.008 26.4417 22.027 26.3784C22.0523 26.3151 22.0903 26.2834 22.141 26.2897L23.5534 26.4418C23.6357 26.4545 23.68 26.4797 23.6927 26.5177C23.7054 26.5557 23.7053 26.5811 23.7053 26.6001V32.8131C23.7053 32.9714 23.6546 33.1171 23.547 33.2501C23.4456 33.3831 23.3126 33.4464 23.1606 33.4464H22.844C22.7743 33.4464 22.7236 33.4338 22.6983 33.4021C22.6666 33.3768 22.654 33.3261 22.654 33.2564V30.3177C22.4893 30.3937 22.2993 30.4571 22.0713 30.5015L22.065 30.5141ZM21.1973 27.0434C21.5583 27.3221 21.7356 27.6641 21.7356 28.0631C21.7356 28.4621 21.552 28.7977 21.1973 29.0827C20.8363 29.3677 20.4056 29.5135 19.9053 29.5135C19.405 29.5135 18.9743 29.3741 18.6196 29.0827C18.265 28.7977 18.0876 28.4557 18.0876 28.0631C18.0876 27.6704 18.265 27.3221 18.6196 27.0434C18.9743 26.7647 19.405 26.6254 19.9053 26.6254C20.4056 26.6254 20.8426 26.7647 21.1973 27.0434ZM19.3543 28.6901C19.5063 28.8675 19.6836 28.9561 19.899 28.9561C20.1143 28.9561 20.2916 28.8675 20.45 28.6901C20.602 28.5128 20.678 28.3038 20.678 28.0568C20.678 27.8098 20.5956 27.6134 20.4373 27.4487C20.279 27.2777 20.0953 27.1955 19.899 27.1955C19.7026 27.1955 19.5254 27.2777 19.367 27.4487C19.2087 27.6197 19.1326 27.8225 19.1326 28.0568C19.1326 28.2911 19.2086 28.5128 19.3606 28.6901H19.3543Z" fill="#505559"/>
<path d="M25.3206 29.8301C25.2002 29.8301 25.1179 29.8174 25.0736 29.7921C25.0292 29.7668 24.9849 29.7351 24.9406 29.6844L24.6999 29.3551C24.6619 29.2854 24.6619 29.2284 24.6999 29.1778C24.7379 29.1271 24.7886 29.1208 24.8646 29.1588C24.9849 29.2158 25.0926 29.2538 25.1812 29.2664C25.2762 29.2854 25.4219 29.2918 25.6182 29.2918H27.7652C28.3542 29.2918 28.7469 29.2854 28.9559 29.2664C29.1649 29.2474 29.3802 29.2158 29.6019 29.1778C29.7222 29.1524 29.7856 29.1778 29.7982 29.2411C29.8109 29.3108 29.7729 29.3741 29.6842 29.4311C29.4942 29.5514 29.2662 29.6464 29.0066 29.7161C28.7469 29.7858 28.3606 29.8238 27.8476 29.8238H27.5752V30.3811C27.5752 30.5394 27.5246 30.6724 27.4169 30.7801C27.3156 30.8814 27.1826 30.9384 27.0306 30.9384H26.7012C26.6316 30.9384 26.5872 30.9258 26.5556 30.8941C26.5239 30.8688 26.5112 30.8181 26.5112 30.7484V29.8238H25.3206V29.8301ZM28.3606 26.7774C28.7026 27.0054 28.8736 27.2968 28.8736 27.6704C28.8736 28.0441 28.7026 28.3291 28.3606 28.5571C28.0186 28.7851 27.6006 28.8991 27.1066 28.8991C26.6126 28.8991 26.2009 28.7851 25.8589 28.5571C25.5169 28.3291 25.3396 28.0314 25.3396 27.6704C25.3396 27.3094 25.5106 26.9991 25.8589 26.7774C26.2009 26.5558 26.6189 26.4418 27.1066 26.4418C27.5942 26.4418 28.0186 26.5558 28.3606 26.7774ZM27.3789 31.2614C27.3789 31.2614 27.4106 31.2678 27.4549 31.2868C27.4992 31.3058 27.5246 31.3564 27.5246 31.4388V32.2178C27.5246 32.3888 27.5562 32.5091 27.6132 32.5851C27.6639 32.6548 27.7906 32.6928 27.9932 32.6928H30.7609C30.9952 32.6928 31.1092 32.7751 31.1092 32.9461C31.1092 33.1171 30.9889 33.1994 30.7609 33.1994H27.2712C27.1319 33.1994 26.9672 33.1551 26.7836 33.0601C26.5999 32.9651 26.5049 32.7751 26.5049 32.4838V31.8378C26.5049 31.7111 26.4352 31.6224 26.3022 31.5654C26.1692 31.5084 26.0679 31.4641 26.0046 31.4324C25.9159 31.3944 25.8842 31.3374 25.9096 31.2804C25.9349 31.2171 25.9729 31.1918 26.0236 31.1981L27.3789 31.2678V31.2614ZM26.6189 28.1771C26.7709 28.3038 26.9356 28.3734 27.1066 28.3734C27.2776 28.3734 27.4549 28.3101 27.6069 28.1771C27.7589 28.0504 27.8349 27.8794 27.8349 27.6704C27.8349 27.4614 27.7589 27.2904 27.6069 27.1638C27.4549 27.0308 27.2902 26.9674 27.1066 26.9674C26.9229 26.9674 26.7646 27.0308 26.6189 27.1638C26.4669 27.2968 26.3909 27.4678 26.3909 27.6704C26.3909 27.8731 26.4669 28.0441 26.6189 28.1771ZM28.7026 30.9131C28.6646 30.9131 28.6392 30.9068 28.6202 30.8941C28.6012 30.8814 28.5759 30.8624 28.5506 30.8371L28.2972 30.5078C28.2656 30.4634 28.2466 30.4191 28.2402 30.3684C28.2339 30.3178 28.2466 30.2798 28.2846 30.2418C28.3416 30.1848 28.4302 30.1848 28.5506 30.2418C28.6709 30.2988 28.7849 30.3241 28.8926 30.3241H29.9629V27.0814C29.9629 26.9231 29.8932 26.8028 29.7539 26.7331C29.6146 26.6634 29.5006 26.6001 29.4119 26.5558C29.3422 26.5114 29.3169 26.4608 29.3359 26.3974C29.3612 26.3341 29.3992 26.3024 29.4499 26.3088L30.8876 26.4608C30.9699 26.4734 31.0142 26.4988 31.0269 26.5368C31.0396 26.5748 31.0396 26.6001 31.0396 26.6191V30.9638C31.0396 31.1284 30.9889 31.2741 30.8876 31.4008C30.7862 31.5274 30.6532 31.5971 30.5012 31.5971H30.1592C30.0896 31.5971 30.0389 31.5844 30.0136 31.5528C29.9819 31.5274 29.9692 31.4768 29.9692 31.4071V30.9194H28.7152L28.7026 30.9131Z" fill="#505559"/>
<path d="M35.2192 31.2868H35.4726C35.9476 31.2868 36.3212 31.2741 36.5999 31.2424C36.8786 31.2171 37.1256 31.1348 37.3282 31.0081V27.0814C37.3282 26.9231 37.2586 26.8028 37.1192 26.7331C36.9799 26.6634 36.8659 26.6001 36.7772 26.5558C36.7076 26.5114 36.6822 26.4608 36.7012 26.3974C36.7266 26.3341 36.7646 26.3024 36.8152 26.3088L38.2086 26.4608C38.2909 26.4734 38.3352 26.4988 38.3479 26.5368C38.3606 26.5748 38.3669 26.6001 38.3669 26.6191V32.8321C38.3669 32.9904 38.3162 33.1361 38.2086 33.2691C38.1072 33.4021 37.9742 33.4654 37.8222 33.4654H37.5246C37.4549 33.4654 37.4106 33.4528 37.3789 33.4211C37.3472 33.3958 37.3282 33.3451 37.3282 33.2754V31.5148C37.1636 31.6414 36.9546 31.7238 36.7012 31.7681C36.4479 31.8124 36.0996 31.8314 35.6562 31.8314H32.7302C32.6226 31.8314 32.5466 31.8314 32.5086 31.8188C32.4706 31.8124 32.4326 31.7871 32.3882 31.7364L32.1096 31.3374C32.0716 31.2804 32.0716 31.2298 32.1096 31.1791C32.1539 31.1348 32.2109 31.1221 32.2806 31.1474C32.4009 31.2044 32.5149 31.2424 32.6162 31.2551C32.7239 31.2741 32.8759 31.2804 33.0722 31.2804H34.1236V30.4571C33.7626 30.3621 33.4586 30.1848 33.2116 29.9124C32.9646 29.6401 32.8442 29.3234 32.8442 28.9624C32.8442 28.7661 32.8822 28.5824 32.9646 28.4051C33.0469 28.2341 33.1546 28.0821 33.3002 27.9491H32.8442C32.7239 27.9491 32.6479 27.9364 32.6099 27.9174C32.5719 27.8984 32.5339 27.8604 32.4896 27.8098L32.2172 27.4741C32.1666 27.3728 32.1666 27.3031 32.2172 27.2651C32.2679 27.2271 32.3249 27.2334 32.3819 27.2714C32.4832 27.3158 32.5782 27.3538 32.6669 27.3728C32.7556 27.3918 32.8696 27.4044 33.0152 27.4044H34.1362C34.1362 27.2461 34.1299 27.0941 34.1109 26.9548C34.0919 26.8154 34.0349 26.7204 33.9336 26.6761C33.8132 26.6064 33.7626 26.5368 33.7752 26.4671C33.7879 26.3974 33.8449 26.3658 33.9462 26.3784L35.0609 26.4734C35.1179 26.4734 35.1622 26.4988 35.1876 26.5304C35.2129 26.5621 35.2256 26.6064 35.2192 26.6634L35.2066 27.4044H36.6316C36.8596 27.4044 36.9736 27.4931 36.9736 27.6768C36.9736 27.8604 36.8596 27.9491 36.6316 27.9491H36.0616C36.2009 28.0758 36.3149 28.2278 36.3972 28.4051C36.4796 28.5761 36.5239 28.7661 36.5239 28.9624C36.5239 29.3234 36.3972 29.6401 36.1439 29.9061C35.8906 30.1721 35.5802 30.3558 35.2066 30.4571V31.2804L35.2192 31.2868ZM34.1489 29.6971C34.2946 29.8934 34.4656 29.9884 34.6682 29.9884C34.8709 29.9884 35.0482 29.8934 35.2002 29.6971C35.3522 29.5008 35.4282 29.2601 35.4282 28.9751C35.4282 28.6901 35.3522 28.4494 35.2002 28.2531C35.0482 28.0568 34.8772 27.9618 34.6809 27.9618C34.4846 27.9618 34.3009 28.0568 34.1552 28.2531C34.0032 28.4494 33.9272 28.6901 33.9272 28.9751C33.9272 29.2601 34.0032 29.5008 34.1489 29.6971Z" fill="#505559"/>
<path d="M17.5683 2.98306C18.6703 2.98306 19.6963 3.26806 20.5956 3.76839C21.4886 3.26806 22.5209 2.98306 23.6166 2.98306C26.4603 2.98306 28.8606 4.90206 29.5889 7.5177H29.6966C28.7846 3.33139 25.0543 0.190063 20.5893 0.190063C16.1243 0.190063 12.4003 3.33139 11.4819 7.5177H11.5896C12.3179 4.90206 14.7119 2.98306 17.5619 2.98306H17.5683Z" fill="#003078"/>
<path d="M20.5959 3.76836C19.7029 3.26803 18.6705 2.98303 17.5685 2.98303C14.7185 2.98303 12.3245 4.90203 11.5962 7.51766H17.6445C18.0942 5.91536 19.1709 4.5727 20.5959 3.7747V3.76836Z" fill="#5A97C0"/>
<path d="M23.6167 2.98302C22.5147 2.98302 21.4887 3.26802 20.5957 3.76835C22.0207 4.56635 23.0974 5.90902 23.547 7.51138H29.5954C28.867 4.89568 26.4667 2.97668 23.623 2.97668L23.6167 2.98302Z" fill="#51B099"/>
<path d="M40.6661 22.5467L40.1974 21.641H0.987711L0.519043 22.5467H40.6661Z" fill="#003078"/>
<path d="M5.37067 10.0194L5.63667 19.9881H3.67334L3.933 10.0194H5.37067Z" fill="#003078"/>
<path d="M9.92438 10.0194L10.1904 19.9881H8.22705L8.48672 10.0194H9.92438Z" fill="#003078"/>
<path d="M14.4776 10.0194L14.7436 19.9881H12.7803L13.0399 10.0194H14.4776Z" fill="#003078"/>
<path d="M19.0313 10.0194L19.2973 19.9881H17.334L17.6 10.0194H19.0313Z" fill="#003078"/>
<path d="M23.585 10.0194L23.851 19.9881H21.8877L22.1537 10.0194H23.585Z" fill="#003078"/>
<path d="M28.1387 10.0194L28.4047 19.9881H26.4414L26.7074 10.0194H28.1387Z" fill="#003078"/>
<path d="M32.6925 10.0194L32.9585 19.9881H30.9951L31.2611 10.0194H32.6925Z" fill="#003078"/>
<path d="M37.2462 10.0194L37.5185 19.9881H35.5488L35.8148 10.0194H37.2462Z" fill="#003078"/>
<path d="M0.519043 8.41711L0.987711 9.32278H40.1974L40.6661 8.41711H0.519043Z" fill="#003078"/>
<path d="M2.37486 20.6848L2.09619 21.2105H39.0892L38.8169 20.6848H2.37486Z" fill="#003078"/>
</svg>
