<svg width="74" height="74" viewBox="0 0 74 74" fill="none" xmlns="http://www.w3.org/2000/svg">
<path fill-rule="evenodd" clip-rule="evenodd" d="M2.90764 39.2064L34.2422 70.5409V70.5223C35.4524 71.7325 37.4259 71.7325 38.6361 70.5223L40.833 68.3253C42.0432 67.1152 42.0432 65.1416 40.833 63.9314L18.5752 41.6736H68.8908C70.608 41.6736 72.0001 40.2816 72.0001 38.5644V35.4551C72.0001 33.7379 70.608 32.3459 68.8908 32.3459H18.556L40.833 10.0688C42.0432 8.85863 42.0432 6.88509 40.833 5.67491L38.6361 3.47795C37.4259 2.26777 35.4524 2.26777 34.2422 3.47795L2.90764 34.8125C1.69745 36.0227 1.69745 37.9962 2.90764 39.2064Z" fill="#F06673"/>
</svg>
