<svg width="157" height="40" viewBox="0 0 157 40" fill="none" xmlns="http://www.w3.org/2000/svg">
<path d="M30.198 22.45V2.122H35.91V22.45H30.198ZM4.83 39.46V23.92H35.91V39.46H4.83ZM10.542 34.924H30.198V28.456H10.542V34.924ZM0.63 21.442V16.864C6.258 16.024 10.584 11.194 10.584 5.65V2.332H16.506V5.65C16.506 11.068 20.454 15.436 26.04 16.528V21.106C21.084 20.266 16.254 17.452 13.524 13.966C10.752 17.956 6.048 20.56 0.63 21.442ZM39.4882 37.192V32.026C45.3682 30.304 49.5682 23.668 49.5682 15.562V2.752H55.4902V15.562C55.4902 22.828 59.0602 29.548 65.1502 31.9V37.066C60.1522 35.722 54.7342 31.102 52.6342 26.524C50.0722 31.9 45.1162 35.848 39.4882 37.192ZM68.8462 39.628V2.122H74.5582V15.52H79.5982V20.644H74.5582V39.628H68.8462ZM91.7444 26.776H107.788C113.206 26.776 116.566 29.296 116.566 33.244C116.566 37.192 113.206 39.712 107.788 39.712H91.7444C86.3264 39.712 82.9664 37.192 82.9664 33.244C82.9664 29.296 86.3264 26.776 91.7444 26.776ZM83.1764 17.83V13.588C90.2324 13.294 95.9024 10.816 96.5324 7.792H83.8064V3.34H96.7004V0.483998H102.832V3.34H115.726V7.792H102.958C103.588 10.816 109.3 13.294 116.356 13.588V17.83C109.468 17.536 103.378 15.772 99.7664 12.916C96.1544 15.772 90.0644 17.536 83.1764 17.83ZM81.0764 24.508V20.014H96.7844V16.402H102.748V20.014H118.456V24.508H81.0764ZM91.9124 35.134H107.62C109.636 35.134 110.854 34.336 110.854 33.244C110.854 32.152 109.636 31.354 107.62 31.354H91.9124C89.8964 31.354 88.6784 32.152 88.6784 33.244C88.6784 34.336 89.8964 35.134 91.9124 35.134ZM120.397 21.4V16.864H124.387V7.078H120.817V2.542H145.849V6.028H149.923V2.122H155.635V23.08H149.923V17.956H146.269V21.4H120.397ZM146.689 39.628H133.501C127.453 39.628 123.715 36.604 123.715 31.774C123.715 26.944 127.453 23.92 133.501 23.92H146.689C152.737 23.92 156.475 26.944 156.475 31.774C156.475 36.604 152.737 39.628 146.689 39.628ZM133.879 35.092H146.311C149.041 35.092 150.763 33.79 150.763 31.774C150.763 29.758 149.041 28.456 146.311 28.456H133.879C131.149 28.456 129.427 29.758 129.427 31.774C129.427 33.79 131.149 35.092 133.879 35.092ZM130.099 16.864H136.525V7.078H130.099V16.864ZM142.237 16.864H145.345V13.336H149.923V10.648H145.345V7.078H142.237V16.864Z" fill="#7E2D9C"/>
</svg>
