<svg width="151" height="29" viewBox="0 0 151 29" fill="none" xmlns="http://www.w3.org/2000/svg">
<path d="M150.61 0.890137H0.390015V28.6201H150.61V0.890137Z" fill="#004591"/>
<path d="M55.49 18.2401L54.23 20.5801H51.5L56.88 10.7301C56.88 10.7301 57.17 10.3501 57.4 10.1501C57.87 9.74009 58.26 9.6001 58.87 9.6001H63.28V20.5901H60.9V18.2501H55.48L55.49 18.2401ZM60.91 16.0501V11.7401H59.83C59.48 11.7401 59.24 11.8501 59.06 11.9901C58.89 12.1001 58.61 12.4301 58.54 12.5701L56.69 16.0401H60.92L60.91 16.0501Z" fill="white"/>
<path d="M44.79 9.60986H54.2401V11.8999H50.25V20.5799H47.8501V11.8999H44.79V9.60986Z" fill="white"/>
<path d="M87.07 14.9499C87.07 18.6399 85.39 20.5699 82.72 20.5699H76.14V9.58984H82.65C85.37 9.58984 87.05 12.1699 87.07 14.9499ZM78.62 18.4199H82.02C83.67 18.4199 84.58 17.3598 84.58 15.0298C84.58 12.9498 83.63 11.7899 82.02 11.7899H78.62V18.4298V18.4199Z" fill="white"/>
<path d="M121.09 16.1201H119.59V20.5701H117.1V9.58008H123.21C124.83 9.58008 126.14 10.7801 126.14 12.5001C126.14 14.0701 125 15.1601 123.51 15.2701C123.95 15.3401 124.35 15.5301 124.61 15.7101C124.87 15.9301 124.98 16.1201 125.12 16.4401L127.02 20.5701H124.31L122.81 17.2901C122.65 16.9401 122.45 16.6701 122.23 16.4901C121.9 16.2301 121.56 16.1301 121.1 16.1301M119.6 13.9801H122.45C123.06 13.9801 123.55 13.4901 123.55 12.8801C123.55 12.2701 123.06 11.7901 122.45 11.7901H119.6V13.9801Z" fill="white"/>
<path d="M43.33 9.57007H37.71C35.92 9.57007 34.46 11.0301 34.46 12.8201C34.46 14.6101 35.86 16.1001 37.64 16.1001H41C41.62 16.1001 42.13 16.6101 42.13 17.2301C42.13 17.8501 41.63 18.4001 41 18.4001H34.45V20.58H41.4299C43.2599 20.58 44.77 19.0601 44.77 17.2301C44.77 15.4001 43.27 13.9201 41.45 13.9201H38.2C37.6 13.9201 37.1 13.43 37.1 12.83C37.1 12.23 37.6199 11.8701 38.2299 11.8701H43.34V9.58005L43.33 9.57007Z" fill="white"/>
<path d="M130.45 10.0699L131.13 11.0999H130.75L130.08 10.0699H129.7V11.0999H129.39V8.85986H130.37C130.77 8.85986 131.17 8.96989 131.17 9.44989C131.17 9.88989 130.86 10.0499 130.46 10.0599M129.71 9.74988H130.09C130.37 9.74988 130.86 9.79989 130.86 9.44989C130.86 9.21989 130.56 9.17987 130.31 9.17987H129.71V9.75989V9.74988Z" fill="white"/>
<path d="M130.15 12.04C129 12.04 128.09 11.13 128.09 9.99997C128.09 8.86997 129 7.95996 130.15 7.95996C131.3 7.95996 132.21 8.85997 132.21 9.99997C132.21 11.14 131.3 12.04 130.15 12.04ZM130.15 11.73C131.09 11.73 131.89 10.96 131.89 9.99997C131.89 9.03997 131.09 8.26996 130.15 8.26996C129.21 8.26996 128.41 9.02997 128.41 9.99997C128.41 10.97 129.21 11.73 130.15 11.73Z" fill="white"/>
<path d="M18.72 14.7302C18.72 14.7302 22.66 11.8201 23.64 11.3001C23.99 11.1101 25.41 10.9201 26.22 11.9301C26.94 12.8201 26.48 14.1201 26.19 14.6001C25.9 15.0801 24.9299 16.8501 24.9299 16.8501H22.36L22.8699 14.7302H18.71H18.72Z" fill="white"/>
<path d="M24.8 8.0999C26.14 8.1399 27.8 8.6799 28.76 10.0699C29.59 11.2699 29.83 12.5299 29.47 14.1399C29.08 15.9099 26.74 19.3699 26.75 19.3799L25.35 17.3099C25.35 17.3099 26.1 15.9299 26.9 14.4699C27.29 13.7499 27.33 12.5999 26.9 11.8599C26.4 10.9999 25.4 10.6099 24.53 10.6099C23.5 10.6099 22.66 11.1399 21.63 11.9399L20.16 9.83989C20.88 9.19989 22.89 8.0399 24.8 8.0999Z" fill="white"/>
<path d="M19.1299 15.24L22.0799 15.25L21.5899 17.34H24.6199L26.7999 20.56H22.4099L21.4299 19.12H19.5699L19.4199 17.26H18.6699L19.1299 15.24Z" fill="white"/>
<path d="M65.54 9.59009L74.1001 9.58008V11.8501L68.01 11.8601L68.03 13.9701H73.36V16.1201H68.03V18.4201H74.1001V20.5701H65.54V9.59009Z" fill="white"/>
<path d="M87.41 9.58984H96.94V11.8799H93.4V20.5699H90.99V11.8799H87.41V9.58984Z" fill="white"/>
<path d="M105.28 18.4199V20.5699H98.0701V9.58984H100.56V18.4199H105.28Z" fill="white"/>
<path d="M106.91 9.58008H115.47L115.49 11.8501H109.39L109.4 13.9601H114.74V16.1201H109.4V18.4201H115.48V20.5701H106.91V9.58008Z" fill="white"/>
</svg>
