<svg width="270" height="178" viewBox="0 0 270 178" fill="none" xmlns="http://www.w3.org/2000/svg">
<g clip-path="url(#clip0_195_22692)">
<path d="M270 13.92C270 6.23 263.77 0 256.08 0H13.92C6.23 0 0 6.23 0 13.92V31.33C0 33.78 1.46 36.02 3.73 36.93C7.51 38.45 10.19 42.16 10.19 46.47V111.5C10.19 115.81 7.51 119.52 3.73 121.04C1.46 121.96 0 124.19 0 126.64V144.05C0 151.74 6.23 157.97 13.92 157.97H256.09C263.78 157.97 270.01 151.74 270.01 144.05V13.92H270Z" fill="#4068B4"/>
<path d="M13.9199 157.97L235.95 177.16V157.97H13.9199Z" fill="url(#paint0_linear_195_22692)"/>
<path d="M62.9699 46.0699V48.3699H52.6599V52.3899H49.9199V48.3699H39.6299V46.0699H62.9699ZM44.0099 54.8499H61.7899V57.1799H41.2699V50.3699H44.0099V54.8599V54.8499ZM61.2699 43.7199H41.2999V34.3599H61.2699V43.7199ZM58.5599 36.6099H44.0099V41.4799H58.5599V36.6099Z" fill="white"/>
<path d="M81.6798 39.1798H65.8398V36.7998H72.3798V33.8398H75.1398V36.7998H81.6798V39.1798ZM75.1098 53.6498C78.1998 53.6198 80.8798 53.3498 82.4998 52.6098V55.0698C81.0198 55.7298 78.1498 56.0498 74.8699 56.0498H65.9498V53.6398H72.4099V50.1698C69.0999 49.8098 67.0499 48.0598 67.0499 45.4398C67.0499 42.4598 69.6798 40.5998 73.8098 40.5998C77.9398 40.5998 80.5698 42.4598 80.5698 45.4398C80.5698 48.0898 78.4898 49.8398 75.1298 50.1998V53.6498H75.1098ZM73.7999 48.0398C76.5599 48.0398 77.9898 46.9198 77.9898 45.4398C77.9898 43.9598 76.5699 42.8098 73.7999 42.8098C71.0299 42.8098 69.6098 43.9598 69.6098 45.4398C69.6098 46.9198 71.0299 48.0398 73.7999 48.0398ZM90.3798 45.9298H87.1498V57.4498H84.4398V34.0898H87.1498V43.3398H90.3798V45.9398V45.9298Z" fill="white"/>
<path d="M92.3198 46.5398V44.0798C96.7498 43.2898 99.3498 39.2398 99.4098 34.3098L102.12 34.4698C102.12 36.1898 101.82 37.8098 101.27 39.2798L108.52 43.9898L107.12 45.9898L100.23 41.4198C98.5298 44.1598 95.7998 46.0698 92.3198 46.5398ZM113.77 52.6098C113.77 56.1098 109.37 57.4498 103.76 57.4498C98.1498 57.4498 93.7498 56.1098 93.7498 52.6098C93.7498 49.1098 98.1798 47.7698 103.76 47.7698C109.34 47.7698 113.77 49.1098 113.77 52.6098ZM110.87 52.6098C110.87 50.8298 107.75 50.0098 103.76 50.0098C99.7698 50.0098 96.6498 50.8298 96.6498 52.6098C96.6498 54.3898 99.7998 55.2098 103.76 55.2098C107.72 55.2098 110.87 54.4198 110.87 52.6098ZM116.7 38.5498V41.1198H113.42V46.9998H110.71V34.0898H113.42V38.5498H116.7Z" fill="white"/>
<path d="M131.57 47.3301V49.7601H140.27V57.1701H120.19V49.7601H128.89V47.3301H118.58V45.1701H141.92V47.3301H131.58H131.57ZM140.54 43.1201H119.91V40.9901H124.04V36.5001H120.16V34.3701H140.3V36.5001H136.41V40.9901H140.54V43.1201ZM137.58 51.8501H122.89V55.0801H137.58V51.8501ZM126.75 40.9901H133.7V36.5001H126.75V40.9901Z" fill="white"/>
<path d="M151.29 45.7198H144.89V43.4498H154.55C157.75 43.4498 160.6 43.1998 162.21 42.5498V44.7898C160.73 45.4498 157.7 45.7198 154.36 45.7198H154V50.6998H151.29V45.7198ZM157.01 36.8598H146.59V34.5598H159.72V41.9998H157.01V36.8598ZM167.49 54.8098V57.1598H147.05V49.3598H149.76V54.7998H167.49V54.8098ZM164.18 48.1298V34.0898H166.89V52.3098H164.18V50.3698H157.12V48.1298H164.18Z" fill="white"/>
<path d="M41.46 110.45H46.73C46.88 114.81 50.08 118.21 55.81 118.21C61.54 118.21 64.94 114.26 64.94 108.93C64.94 103.6 61.29 99.85 55.91 99.85C51.45 99.85 48.86 102.13 47.49 104.67H42.27L43.44 81.29H68.08V85.9H48.31L47.6 99.18C49.12 97.3 52.11 95.28 56.78 95.28C64.49 95.28 70.17 100.81 70.17 108.92C70.17 117.03 64.34 122.81 55.82 122.81C47.3 122.81 41.77 117.49 41.47 110.44L41.46 110.45Z" fill="white"/>
<path d="M75.2402 101.58C75.2402 87.3801 81.6802 80.3301 90.2502 80.3301C98.8202 80.3301 105.21 87.3801 105.21 101.58C105.21 115.78 98.7702 122.83 90.2502 122.83C81.7302 122.83 75.2402 115.78 75.2402 101.58ZM100.09 101.58C100.09 90.5801 95.7302 85.0501 90.2502 85.0501C84.7702 85.0501 80.3602 90.5801 80.3602 101.58C80.3602 112.58 84.7202 118.11 90.2502 118.11C95.7802 118.11 100.09 112.63 100.09 101.58Z" fill="white"/>
<path d="M111.7 127.03H107.54L109.16 115.57H114.23L111.69 127.03H111.7Z" fill="white"/>
<path d="M118.09 101.58C118.09 87.3801 124.53 80.3301 133.1 80.3301C141.67 80.3301 148.06 87.3801 148.06 101.58C148.06 115.78 141.62 122.83 133.1 122.83C124.58 122.83 118.09 115.78 118.09 101.58ZM142.94 101.58C142.94 90.5801 138.58 85.0501 133.1 85.0501C127.62 85.0501 123.21 90.5801 123.21 101.58C123.21 112.58 127.57 118.11 133.1 118.11C138.63 118.11 142.94 112.63 142.94 101.58Z" fill="white"/>
<path d="M153.23 101.58C153.23 87.3801 159.67 80.3301 168.24 80.3301C176.81 80.3301 183.2 87.3801 183.2 101.58C183.2 115.78 176.76 122.83 168.24 122.83C159.72 122.83 153.23 115.78 153.23 101.58ZM178.08 101.58C178.08 90.5801 173.72 85.0501 168.24 85.0501C162.76 85.0501 158.35 90.5801 158.35 101.58C158.35 112.58 162.71 118.11 168.24 118.11C173.77 118.11 178.08 112.63 178.08 101.58Z" fill="white"/>
<path d="M188.37 101.58C188.37 87.3801 194.81 80.3301 203.38 80.3301C211.95 80.3301 218.34 87.3801 218.34 101.58C218.34 115.78 211.9 122.83 203.38 122.83C194.86 122.83 188.37 115.78 188.37 101.58ZM213.22 101.58C213.22 90.5801 208.86 85.0501 203.38 85.0501C197.9 85.0501 193.49 90.5801 193.49 101.58C193.49 112.58 197.85 118.11 203.38 118.11C208.91 118.11 213.22 112.63 213.22 101.58Z" fill="white"/>
<path d="M226.94 114.61H222.02V112.9H229.38C231.82 112.9 233.99 112.71 235.22 112.19V113.9C234.09 114.4 231.86 114.61 229.32 114.61H229.01V117.8H226.95V114.61H226.94ZM223.08 108.16C223.08 105.93 225.27 104.7 228.36 104.7C231.45 104.7 233.64 105.93 233.64 108.16C233.64 110.39 231.47 111.64 228.36 111.64C225.25 111.64 223.08 110.41 223.08 108.16ZM239.25 120.49V122.24H223.67V116.84H225.73V120.49H239.25ZM225.11 108.16C225.11 109.39 226.49 110.02 228.36 110.02C230.23 110.02 231.61 109.39 231.61 108.16C231.61 106.93 230.23 106.32 228.36 106.32C226.49 106.32 225.11 106.92 225.11 108.16ZM236.73 115.84V104.66H238.79V118.61H236.73V117.5H231.33V115.83H236.73V115.84Z" fill="white"/>
</g>
<defs>
<linearGradient id="paint0_linear_195_22692" x1="231.27" y1="167.57" x2="16.4799" y2="167.57" gradientUnits="userSpaceOnUse">
<stop stop-color="#140700" stop-opacity="0"/>
<stop offset="1" stop-opacity="0.3"/>
</linearGradient>
<clipPath id="clip0_195_22692">
<rect width="270" height="177.16" fill="white"/>
</clipPath>
</defs>
</svg>
