<svg width="118" height="38" viewBox="0 0 118 38" fill="none" xmlns="http://www.w3.org/2000/svg">
<path d="M24.83 37.628H11.39C5.468 37.628 1.73 34.688 1.73 29.984C1.73 25.28 5.468 22.34 11.39 22.34H24.83C30.752 22.34 34.49 25.28 34.49 29.984C34.49 34.688 30.752 37.628 24.83 37.628ZM0.89 19.862V0.457998H6.602V5.54H17.858V0.457998H23.57V19.862H0.89ZM27.938 21.416V0.121997H33.65V7.43H38.69V12.554H33.65V21.416H27.938ZM11.726 33.092H24.494C27.056 33.092 28.778 31.916 28.778 29.984C28.778 28.052 27.056 26.876 24.494 26.876H11.726C9.164 26.876 7.442 28.052 7.442 29.984C7.442 31.916 9.164 33.092 11.726 33.092ZM6.602 15.326H17.858V10.076H6.602V15.326ZM41.2182 19.022V0.541999H63.8982V3.482H69.1062V0.121997H74.8182V21.038H69.1062V16.082H63.8982V19.022H41.2182ZM65.8722 37.628H52.6842C46.6362 37.628 42.8982 34.604 42.8982 29.774C42.8982 24.944 46.6362 21.92 52.6842 21.92H65.8722C71.9202 21.92 75.6582 24.944 75.6582 29.774C75.6582 34.604 71.9202 37.628 65.8722 37.628ZM53.0622 33.092H65.4942C68.2242 33.092 69.9462 31.79 69.9462 29.774C69.9462 27.758 68.2242 26.456 65.4942 26.456H53.0622C50.3322 26.456 48.6102 27.758 48.6102 29.774C48.6102 31.79 50.3322 33.092 53.0622 33.092ZM46.9302 14.486H58.1862V5.078H46.9302V14.486ZM63.8982 11.462H69.1062V8.102H63.8982V11.462ZM80.0764 24.314V19.82H96.2044V17.342H82.8064V6.632H108.93V4.616H82.8064V0.289998H114.726V10.79H88.6024V13.016H115.566V17.342H102.168V19.82H117.456V24.314H80.0764ZM82.3864 30.824V26.12H114.726V37.628H109.014V30.824H82.3864Z" fill="#FF9500"/>
</svg>
