<svg width="304" height="109" viewBox="0 0 304 109" fill="none" xmlns="http://www.w3.org/2000/svg">
<rect width="49" height="49" fill="#F5F5F5"/>
<rect x="56" width="49" height="49" fill="#F5F5F5"/>
<rect x="136" width="49" height="49" fill="#F5F5F5"/>
<rect x="195" width="49" height="49" fill="#F5F5F5"/>
<rect x="255" width="49" height="49" fill="#F5F5F5"/>
<rect y="60" width="49" height="49" fill="#F5F5F5"/>
<rect x="77" y="60" width="49" height="49" fill="#F5F5F5"/>
<rect x="136" y="60" width="49" height="49" fill="#F5F5F5"/>
<rect x="195" y="60" width="49" height="49" fill="#F5F5F5"/>
<rect x="255" y="60" width="49" height="49" fill="#F5F5F5"/>
<path d="M41.0039 24.1953H8.03516V29.1562H21.9414V34.625H28.1523V29.1562H41.0039V24.1953ZM11.6289 42.3594H37.4102V37.3594H17.8789V31.7344H11.6289V42.3594ZM12.0195 22.0078H36.8633V8.21875H12.0195V22.0078ZM18.1133 17.2031V13.0625H30.6914V17.2031H18.1133Z" fill="#4068B4"/>
<path d="M37.293 74.2188V79.1016H11.9023V68.0859H18.1133V74.2188H37.293ZM8.03516 85.6641V80.7812H41.0039V85.6641H8.03516ZM11.5508 103.555V93.0859H31.0039V91.9141H11.5508V87.1875H37.2539V97.5H17.8789V98.75H38.2695V103.555H11.5508Z" fill="#4068B4"/>
<path d="M81.0664 11.8125H75.6758V7.71094H69.543V11.8125H63.9961V16.7344H81.0664V11.8125ZM64.543 26.6172C64.5625 31.8125 67.9805 35.4648 72.6289 35.4844C77.3164 35.4648 80.6367 31.8125 80.6367 26.6172C80.6367 21.5 77.3164 17.8477 72.6289 17.8281C67.9805 17.8477 64.5625 21.5 64.543 26.6172ZM70.0508 26.6172C70.0508 24.2148 71.0469 22.9844 72.6289 23.0234C74.1523 22.9844 75.1484 24.2148 75.168 26.6172C75.1484 29.0977 74.1523 30.2109 72.6289 30.2109C71.0469 30.2109 70.0508 29.0977 70.0508 26.6172ZM82.043 41.4609H87.9023V26.0703H89.6211V42.8672H95.5586V6.73438H89.6211V21.1484H87.9023V7.35938H82.043V41.4609Z" fill="#4068B4"/>
<path d="M115.504 67.8125V94.0625H109.215V67.8125H115.504ZM84.5664 84.4141C91.0312 82.4219 92.9844 77.5586 93.0039 73.1641V69.7656H99.5273V73.1641C99.5078 77.5 101.305 81.9922 107.574 83.8672L104.41 88.75C100.465 87.5391 97.8477 85.1758 96.2656 82.168C94.6641 85.4492 91.9297 88.0664 87.7695 89.375L84.5664 84.4141ZM90.7773 103.359V91.4453H97.1055V98.3594H116.363V103.359H90.7773Z" fill="#4068B4"/>
<path d="M150.715 9.82031V17.5547H153.762V9.82031H159.543V34.625H144.855V9.82031H150.715ZM150.715 29.6641H153.762V22.3984H150.715V29.6641ZM161.574 41.3047V7.16406H167.473V20.2109H169.582V6.73438H175.559V42.8672H169.582V25.25H167.473V41.3047H161.574Z" fill="#4068B4"/>
<path d="M174.699 67.7344V103.867H168.332V67.7344H174.699ZM143.957 93.125C152.961 88.8477 156.574 83.8867 157.395 76.3281H146.027V71.4453H163.762C163.781 82.7539 160.578 91.7969 147.16 98.0469L143.957 93.125Z" fill="#4068B4"/>
<path d="M219.52 7.125C227.645 7.14453 232.859 9.82031 232.879 14.2734C232.859 18.6289 227.645 21.2656 219.52 21.2656C211.434 21.2656 206.082 18.6289 206.121 14.2734C206.082 9.82031 211.434 7.14453 219.52 7.125ZM203.035 27.4766V22.5156H236.004V27.4766H222.605V29.9375H232.098V42.5547H206.746V29.9375H216.316V27.4766H203.035ZM212.645 14.2734C212.605 15.8555 214.969 16.5391 219.52 16.5391C223.973 16.5391 226.375 15.8555 226.395 14.2734C226.375 12.5742 223.973 11.8711 219.52 11.8906C214.969 11.8711 212.605 12.5742 212.645 14.2734ZM212.879 37.5547H225.965V34.8594H212.879V37.5547Z" fill="#4068B4"/>
<path d="M296.004 24.8594V29.7812H263.035V24.8594H296.004ZM266.121 15.2891C266.082 10.6406 271.473 7.75 279.52 7.75C287.488 7.75 292.859 10.6406 292.879 15.2891C292.859 19.9961 287.488 22.9453 279.52 22.9453C271.473 22.9453 266.082 19.9961 266.121 15.2891ZM266.824 42.3594V31.7344H273.113V37.3594H292.176V42.3594H266.824ZM272.645 15.2891C272.605 17.1445 275.008 17.8867 279.52 17.8672C283.973 17.8867 286.375 17.1445 286.395 15.2891C286.375 13.5312 283.973 12.6914 279.52 12.6719C275.008 12.6914 272.605 13.5312 272.645 15.2891Z" fill="#4068B4"/>
<path d="M231.863 67.7344V81.4453H236.746V86.5625H231.863V103.867H225.652V67.7344H231.863ZM202.84 77.8516V72.8906H210.301V68.3984H216.551V72.8906H223.895V77.8516H202.84ZM203.934 88.0469C203.914 82.9102 207.957 79.2383 213.426 79.2578C218.758 79.2383 222.859 82.9102 222.879 88.0469C222.859 93.2031 218.758 96.8555 213.426 96.875C207.957 96.8555 203.914 93.2031 203.934 88.0469ZM209.949 88.0469C209.93 90.5664 211.395 91.7969 213.426 91.7969C215.418 91.7969 216.863 90.5664 216.863 88.0469C216.863 85.625 215.418 84.3164 213.426 84.2969C211.395 84.3164 209.93 85.625 209.949 88.0469Z" fill="#4068B4"/>
<path d="M291.863 67.7344H285.574V103.984H291.863V85.7031H296.746V80.625H291.863V67.7344ZM264.402 95.3906H267.527C273.602 95.4102 278.641 95.293 284.207 94.375L283.543 89.2188C279.188 89.9219 275.125 90.1953 270.613 90.2539V76.0156H281.355V70.9766H264.402V95.3906Z" fill="#4068B4"/>
<path d="M117 36.2266H112.039L110.008 47.1641H113.719L117 36.2266Z" fill="#F5F5F5"/>
</svg>
