<svg width="118" height="39" viewBox="0 0 118 39" fill="none" xmlns="http://www.w3.org/2000/svg">
<path d="M2.36 26.112V21.534C9.752 20.442 16.01 15.99 16.01 9.774V9.69H2.99V4.902H15.884V0.491998H22.016V4.902H34.91V9.69H21.89V9.774C21.89 15.99 28.148 20.442 35.54 21.534V26.112C29.114 25.356 22.73 22.542 18.95 18.006C15.128 22.542 8.786 25.356 2.36 26.112ZM0.26 37.41V32.58H15.968V25.062H21.932V32.58H37.64V37.41H0.26ZM60.7062 37.788V1.332H66.0822V15.066H70.2822V1.122H75.6582V38.628H70.2822V20.19H66.0822V37.788H60.7062ZM41.8482 35.772V2.172H57.5982V6.96H47.3922V30.984H58.6062V35.772H41.8482ZM82.8064 38.46V27.246H108.93V24.726H82.8064V20.4H114.726V31.404H88.6024V34.134H115.566V38.46H82.8064ZM80.0764 17.712V13.218H109.014V5.994H82.3864V1.29H114.726V13.218H117.456V17.712H80.0764Z" fill="#736357"/>
</svg>
