<svg width="61" height="47" viewBox="0 0 61 47" fill="none" xmlns="http://www.w3.org/2000/svg">
<path d="M59.48 0.75H30.29V21.23H59.48V0.75Z" fill="white"/>
<path d="M3.52999 27.23V32.21C3.48999 33.11 3.95999 34.12 5.24999 34.09C6.43999 34.15 7.04999 33.16 6.96999 32.21V27.23H9.88999C9.69999 31.25 11.28 36.73 5.24999 36.57C-0.800009 36.75 0.799991 31.24 0.609991 27.23H3.52999Z" fill="#006CB7"/>
<path d="M12.16 27.23H15.08V28.3C16.68 26.51 18.76 26.57 20.47 27.89C22.13 29.58 21.12 34.22 21.38 36.26H18.46V31.62C18.51 30.59 18.2 29.38 16.86 29.41C14.02 29.39 15.37 34.59 15.08 36.26H12.16V27.22V27.23Z" fill="#006CB7"/>
<path d="M5.35997 44.5199H4.25996V46.2399H3.48997V44.5199H2.42996V46.2399H1.66997V44.5199H0.589966V43.9099H5.35997V44.5199ZM1.05997 42.3299C1.05997 41.6099 1.83997 41.1499 2.96997 41.1499C4.09997 41.1499 4.87997 41.6099 4.87997 42.3299C4.87997 43.0499 4.09997 43.5099 2.96997 43.5099C1.83997 43.5099 1.05997 43.0499 1.05997 42.3299ZM1.82997 42.3299C1.82997 42.7099 2.26998 42.9099 2.95998 42.9099C3.64998 42.9099 4.08997 42.7099 4.08997 42.3299C4.08997 41.9499 3.64998 41.7499 2.95998 41.7499C2.26998 41.7499 1.82997 41.9599 1.82997 42.3299Z" fill="#006CB7"/>
<path d="M6.79004 44.34C7.27004 44.33 7.71005 44.29 8.19005 44.2L8.28004 44.83C7.65004 44.96 7.08005 44.99 6.41005 44.99H6.04004V41.48H6.78004V44.34H6.79004ZM8.55005 41.06H9.25005V46.01H8.55005V43.24H7.51004V42.63H8.55005V41.06ZM10.3801 46.24H9.66005V40.97H10.3801V46.24Z" fill="#006CB7"/>
<path d="M15.89 45.6H11.12V44.99H15.89V45.6ZM15.4 44.08C14.48 43.9 13.81 43.39 13.47 42.72C13.13 43.39 12.46 43.91 11.55 44.08L11.23 43.44C12.42 43.24 13.07 42.4 13.07 41.65V41.27H13.88V41.65C13.88 42.42 14.53 43.24 15.72 43.44L15.4 44.08Z" fill="#006CB7"/>
<path d="M21.15 45.0299V45.6399H16.38V45.0299H18.07V43.7699H18.83V45.0299H21.15ZM19.92 42.6899C19.94 42.4499 19.94 42.2299 19.94 42.0199H16.92V41.4199H20.69V41.8799C20.69 42.5199 20.69 43.2499 20.45 44.4099L19.71 44.3199C19.8 43.9299 19.86 43.5799 19.89 43.2699L16.87 43.4299L16.77 42.7899L19.94 42.6899H19.92Z" fill="#006CB7"/>
<path d="M24.75 42.12H21.65V41.53H22.82V40.97H23.58V41.53H24.76V42.12H24.75ZM23.2 44.34C22.44 44.34 21.91 43.93 21.91 43.32C21.91 42.71 22.45 42.31 23.2 42.31C23.95 42.31 24.49 42.73 24.49 43.32C24.49 43.91 23.95 44.34 23.2 44.34ZM23.15 45.55H25.98V46.15H22.39V44.62H23.14V45.55H23.15ZM23.2 43.77C23.53 43.77 23.77 43.61 23.77 43.32C23.77 43.03 23.53 42.88 23.2 42.88C22.87 42.88 22.63 43.04 22.63 43.32C22.63 43.6 22.86 43.77 23.2 43.77ZM26.5 42.58V43.2H25.8V44.91H25.04V40.97H25.8V42.58H26.5Z" fill="#006CB7"/>
<path d="M29.6799 43.6199V44.3599H31.1399V46.2399H30.3799V44.9499H27.3999V44.3499H28.9199V43.6099H26.9199V43.0099H30.2699C30.3699 42.5299 30.3799 42.1499 30.3799 41.7999H27.4999V41.1899H31.1199V41.6099C31.1199 41.9999 31.1199 42.4399 31.0199 43.0099H31.6799V43.6099H29.6699L29.6799 43.6199Z" fill="#006CB7"/>
<path d="M35.59 44.11C35.17 44.2 34.73 44.25 34.3 44.29V46.08H33.5399V44.33C33.0899 44.35 32.6599 44.35 32.2899 44.35L32.2 43.73C33.12 43.73 34.4299 43.72 35.5399 43.55L35.59 44.1V44.11ZM32.5099 42.31C32.5099 41.65 33.0999 41.18 33.8999 41.18C34.6999 41.18 35.28 41.64 35.28 42.31C35.28 42.98 34.6999 43.43 33.8999 43.43C33.0999 43.43 32.5099 42.96 32.5099 42.31ZM33.24 42.31C33.24 42.63 33.5099 42.81 33.8999 42.81C34.2899 42.81 34.56 42.63 34.56 42.31C34.56 41.99 34.2899 41.79 33.8999 41.79C33.5099 41.79 33.24 41.97 33.24 42.31ZM36.6 46.24H35.84V40.97H36.6V46.24Z" fill="#006CB7"/>
<path d="M41.9999 45.55V46.15H38.0899V44.58H38.8199V43.88C38.3599 43.9 37.9199 43.91 37.5199 43.91L37.4199 43.31C38.3799 43.31 39.6599 43.29 40.7699 43.15L40.8199 43.69C40.4099 43.76 39.9799 43.8 39.5599 43.84V44.84H38.8299V45.56H41.9799L41.9999 45.55ZM37.8199 42.09C37.8199 41.53 38.3599 41.15 39.1299 41.15C39.8999 41.15 40.4399 41.53 40.4399 42.09C40.4399 42.65 39.8999 43.03 39.1299 43.03C38.3599 43.03 37.8199 42.65 37.8199 42.09ZM38.5299 42.09C38.5299 42.35 38.7799 42.48 39.1299 42.48C39.4799 42.48 39.7299 42.35 39.7299 42.09C39.7299 41.83 39.4799 41.69 39.1299 41.69C38.7799 41.69 38.5299 41.83 38.5299 42.09ZM41.1299 44.03V40.97H41.8899V44.96H41.1299V44.54H40.1399V44.02H41.1299V44.03Z" fill="#006CB7"/>
<path d="M44.81 44.72C45.24 44.69 45.67 44.66 46.08 44.61L46.14 45.16C44.99 45.37 43.77 45.38 42.84 45.38L42.75 44.77C43.14 44.77 43.59 44.77 44.06 44.76V44.31C43.49 44.2 43.13 43.85 43.13 43.35C43.13 42.76 43.67 42.36 44.44 42.36C45.21 42.36 45.74 42.76 45.74 43.35C45.74 43.84 45.37 44.2 44.81 44.31V44.73V44.72ZM46.01 42.15H42.84V41.56H44.05V40.99H44.81V41.56H46.01V42.15ZM44.43 43.77C44.78 43.77 45.02 43.62 45.02 43.35C45.02 43.08 44.79 42.93 44.43 42.93C44.07 42.93 43.84 43.08 43.84 43.35C43.84 43.62 44.08 43.77 44.43 43.77ZM47.11 46.25H46.35V40.98H47.11V46.25Z" fill="#006CB7"/>
<path d="M0.51001 21.8399H60.06V0.129883H0.51001V21.8399ZM59.47 21.2299H30.28V0.749878H59.47V21.2299Z" fill="#006CB7"/>
<path d="M22.44 14.95H8.34998V15.5399H22.44V14.95Z" fill="white"/>
<path d="M23.2101 15.96H7.55005V16.55H23.2101V15.96Z" fill="white"/>
<path d="M23.9801 16.96H6.82007V17.55H23.9801V16.96Z" fill="white"/>
<path d="M22.44 7.51001H8.34998V8.10002H22.44V7.51001Z" fill="white"/>
<path d="M11.2 7.13007L15.39 5.87006L19.5 7.13007H21.22L15.39 5.32007L9.48999 7.13007H11.2Z" fill="white"/>
<path d="M15.39 4.32007L8.34998 6.49007V7.13007L15.39 4.98006L22.44 7.13007V6.49007L15.39 4.32007Z" fill="white"/>
<path d="M9.17993 14.19C9.17993 14.19 9.17993 14.63 9.67993 14.63C10.1799 14.63 10.1499 14.19 10.1499 14.19V8.45996H9.77994V14.21C9.77994 14.21 9.77993 14.31 9.64993 14.31C9.51993 14.31 9.54994 14.1799 9.54994 14.1799V8.45996H9.17993V14.19Z" fill="white"/>
<path d="M11.5 14.63H11.79V10.92L12.16 14.63H12.47V8.45996H12.16V11.7599L11.79 8.45996H11.5V14.63Z" fill="white"/>
<path d="M13.85 14.63H14.79V14.31H14.26V11.52H14.66V11.1799H14.26V8.76996H14.66V8.45996H13.85V14.63Z" fill="white"/>
<path d="M19.2799 10.2899V8.89995C19.2799 8.89995 19.2599 8.45996 18.7899 8.45996C18.3199 8.45996 18.3199 8.89995 18.3199 8.89995V14.19C18.3199 14.19 18.2999 14.63 18.7899 14.63C19.2799 14.63 19.2799 14.19 19.2799 14.19V12.64H18.9099V14.19C18.9099 14.19 18.9099 14.31 18.7899 14.31C18.6799 14.31 18.6599 14.19 18.6599 14.19V8.89995C18.6599 8.89995 18.6599 8.76996 18.7899 8.76996C18.9099 8.76996 18.9099 8.89995 18.9099 8.89995V10.2899H19.2799Z" fill="white"/>
<path d="M21.28 14.19C21.28 14.19 21.3 14.31 21.15 14.31C21 14.31 21 14.19 21 14.19V8.89995C21 8.89995 21 8.76996 21.13 8.76996C21.28 8.76996 21.28 8.89995 21.28 8.89995V14.19ZM21.63 8.89995C21.63 8.89995 21.66 8.45996 21.14 8.45996C20.62 8.45996 20.62 8.89995 20.62 8.89995V14.19C20.62 14.19 20.62 14.63 21.11 14.63C21.63 14.63 21.63 14.19 21.63 14.19V8.89995Z" fill="white"/>
<path d="M16.58 14.1901C16.58 14.1901 16.58 14.3101 16.48 14.3001C16.38 14.3001 16.38 14.1901 16.38 14.1901V12.6401H16V14.1901C16 14.1901 15.98 14.6301 16.47 14.6301C16.96 14.6301 16.96 14.1901 16.96 14.1901V12.8501C16.96 12.1301 16.38 10.7401 16.38 10.2901V8.90009C16.38 8.90009 16.36 8.7701 16.47 8.7701C16.58 8.7701 16.57 8.90009 16.57 8.90009V10.2901H16.95V8.90009C16.95 8.90009 16.96 8.44011 16.48 8.46011C15.99 8.48011 15.99 8.90009 15.99 8.90009V10.0801C15.99 10.8501 16.57 12.1601 16.57 12.7601V14.1801L16.58 14.1901Z" fill="white"/>
<path d="M47.58 6.91014C45.35 5.42014 42.33 6.02013 40.83 8.26013C40.08 9.38013 40.39 10.8901 41.5 11.6301C42.62 12.3801 44.13 12.0701 44.87 10.9601C45.62 9.84014 47.13 9.54013 48.24 10.2901C49.36 11.0401 49.66 12.5501 48.91 13.6601C50.4 11.4301 49.8 8.41014 47.56 6.91014" fill="#EF0035"/>
<path d="M48.2501 10.28C47.1301 9.53 45.6201 9.84 44.8801 10.95C44.1301 12.07 42.6201 12.37 41.5101 11.62C40.3901 10.87 40.0901 9.36 40.8401 8.25C39.3501 10.48 39.9501 13.5 42.1901 15C44.4301 16.5 47.4401 15.89 48.9401 13.65C49.6801 12.53 49.3801 11.02 48.2701 10.28" fill="#003667"/>
<path d="M37.4568 3.09564L34.761 7.1394L35.435 7.58872L38.1308 3.54495L37.4568 3.09564Z" fill="#140700"/>
<path d="M38.47 3.75848L35.7742 7.80225L36.4481 8.25155L39.144 4.20778L38.47 3.75848Z" fill="#140700"/>
<path d="M39.4861 4.43524L36.7903 8.479L37.4642 8.92831L40.1601 4.88454L39.4861 4.43524Z" fill="#140700"/>
<path d="M51.2809 3.76139L50.6069 4.21069L53.3028 8.25446L53.9767 7.80516L51.2809 3.76139Z" fill="#140700"/>
<path d="M37.4579 12.9843L36.7839 13.4336L39.4798 17.4774L40.1537 17.0281L37.4579 12.9843Z" fill="#140700"/>
<path d="M35.4361 14.328L34.7621 14.7773L37.4579 18.8211L38.1319 18.3718L35.4361 14.328Z" fill="#140700"/>
<path d="M52.3048 12.9826L51.0671 14.8376L51.7409 15.2872L52.9786 13.4321L52.3048 12.9826Z" fill="#140700"/>
<path d="M50.8363 15.1625L49.5986 17.0176L50.2724 17.4671L51.5101 15.6121L50.8363 15.1625Z" fill="#140700"/>
<path d="M51.8442 15.8342L50.6066 17.6892L51.2804 18.1387L52.518 16.2837L51.8442 15.8342Z" fill="#140700"/>
<path d="M53.3083 13.6459L52.0707 15.501L52.7445 15.9505L53.9821 14.0955L53.3083 13.6459Z" fill="#140700"/>
<path d="M52.866 16.5031L51.6284 18.3582L52.3022 18.8077L53.5398 16.9527L52.866 16.5031Z" fill="#140700"/>
<path d="M54.3245 14.3232L53.0869 16.1782L53.7607 16.6278L54.9983 14.7727L54.3245 14.3232Z" fill="#140700"/>
<path d="M52.2903 3.09245L51.6165 3.54199L52.8541 5.39704L53.5279 4.9475L52.2903 3.09245Z" fill="#140700"/>
<path d="M53.7641 5.28679L53.0903 5.73633L54.328 7.59137L55.0018 7.14183L53.7641 5.28679Z" fill="#140700"/>
<path d="M50.2693 4.43644L49.5955 4.88599L50.8331 6.74102L51.5069 6.29148L50.2693 4.43644Z" fill="#140700"/>
<path d="M51.7292 6.63786L51.0554 7.0874L52.293 8.94244L52.9668 8.4929L51.7292 6.63786Z" fill="#140700"/>
<path d="M36.4416 13.6618L35.7678 14.1113L37.0054 15.9664L37.6792 15.5168L36.4416 13.6618Z" fill="#140700"/>
<path d="M37.8953 15.8615L37.2212 16.3105L38.4575 18.1664L39.1316 17.7174L37.8953 15.8615Z" fill="#140700"/>
<path d="M49.4101 33.4599C48.0001 34.9499 45.2901 33.8398 45.3501 31.7798C45.2901 29.6798 48.0701 28.5898 49.4601 30.1498L50.5401 27.8499C47.5001 25.5299 42.7801 27.9198 42.8901 31.7598C42.7801 35.5998 47.5001 37.9998 50.5401 35.6798L49.4701 33.4099L49.4101 33.4699V33.4599Z" fill="#006CB7"/>
<path d="M56.2499 26.9399C49.9199 27.0499 49.9199 36.4699 56.2499 36.5799C62.5799 36.4699 62.5799 27.0499 56.2499 26.9399ZM56.2599 34.1599C53.1599 34.1399 53.1599 29.4299 56.2599 29.4099C59.3599 29.4299 59.3599 34.1399 56.2599 34.1599Z" fill="#006CB7"/>
<path d="M32.9 32.25H26.15C26 34.3 29.02 35.3 30 33.35L32.76 33.63C31 38.56 22.96 37.08 23.2 31.79C23.22 24.93 33.58 25.53 32.9 32.26M30.21 30.52C29.93 28.55 26.6 28.41 26.26 30.52H30.21Z" fill="#006CB7"/>
<path d="M40.2499 29.54C39.6099 29.16 38.4799 28.75 37.8199 29.3C37.5599 29.54 37.5899 29.98 37.9199 30.11C38.8899 30.55 40.1899 30.64 41.0599 31.45C42.3199 32.41 41.6499 34.93 40.8399 35.54C38.7799 37.2 36.2799 36.86 34.1899 35.28L35.4299 33.32C36.2999 34.06 37.4499 34.61 38.5499 34.07C38.8999 33.77 39.0199 33.27 38.5299 32.96C37.6499 32.53 36.1799 32.39 35.4499 31.58C32.7799 27.5 38.7399 25.83 41.4099 27.71L40.2599 29.55L40.2499 29.54Z" fill="#006CB7"/>
</svg>
