<svg width="53" height="16" viewBox="0 0 53 16" fill="none" xmlns="http://www.w3.org/2000/svg">
<path d="M24.7 4.47119H23.1934V13.8836H24.7V7.86506H26.1035V7.02453H24.7V4.47119Z" fill="#231815"/>
<path d="M20.3305 4.24133H18.8239V5.12151H16.7622V5.96206H18.1737C17.4124 6.52506 16.9049 7.51625 16.9049 8.65812C16.9049 10.4106 18.1023 11.83 19.5772 11.83C21.0521 11.83 22.2574 10.4106 22.2574 8.65812C22.2574 7.51625 21.7499 6.52506 20.9887 5.96206H22.4002V5.12151H20.3385V4.24133H20.3305ZM19.5851 10.9973C18.9349 10.9973 18.4036 9.95858 18.4036 8.67398C18.4036 7.38938 18.927 6.34267 19.5772 6.34267C20.2274 6.34267 20.7587 7.38145 20.7587 8.67398C20.7587 9.95858 20.2354 11.0053 19.5851 11.0053" fill="#231815"/>
<path d="M35.3888 7.02453H33.9932V4.47119H32.4786V10.1646C32.2328 10.4105 31.8442 10.6642 31.3288 10.6563H28.9262C28.5693 10.6563 28.2839 10.3708 28.2839 10.0219V4.89938H26.7852V10.0219C26.7852 10.8387 27.4671 11.5127 28.2918 11.5127H30.8927C30.8927 11.5127 31.8125 11.5603 32.4786 10.9418V13.8916H33.9932V7.86506H35.3888V7.02453Z" fill="#231815"/>
<path d="M42.2328 6.97693C42.2328 5.47031 41.0355 4.24915 39.5606 4.24915C38.0857 4.24915 36.8883 5.47031 36.8883 6.97693C36.8883 7.92056 37.3561 8.75316 38.0698 9.2448H35.2944V10.125H36.4522V12.3849C36.4522 13.2096 37.1262 13.8757 37.9588 13.8757H43.0496V13.0272H38.5852C38.2363 13.0272 37.9429 12.7417 37.9429 12.3849V10.125H43.7474V9.2448H41.0434C41.7571 8.75316 42.2249 7.92056 42.2249 6.97693M39.5923 5.09761C40.2425 5.09761 40.7738 5.93022 40.7817 6.97693C40.7817 8.01571 40.2663 8.86417 39.6161 8.86417C38.9658 8.86417 38.4346 8.03156 38.4266 6.99278C38.4187 5.954 38.9421 5.10554 39.5923 5.10554" fill="#231815"/>
<path d="M48.4413 7.87297C48.4413 7.09587 48.1003 6.406 47.577 5.96987H48.5206V5.12933H47.0299V4.24915H45.5153V5.12933H44.0166V5.96987H44.9682C44.4448 6.406 44.1038 7.09587 44.1038 7.87297C44.1038 9.19721 45.0712 10.2598 46.2686 10.2598C47.466 10.2598 48.4334 9.18928 48.4334 7.87297M46.2765 9.41132C45.9038 9.41132 45.6025 8.72937 45.5946 7.88091C45.5946 7.03244 45.8801 6.34256 46.2528 6.34256C46.6254 6.34256 46.9268 7.0245 46.9347 7.87297C46.9347 8.72144 46.6413 9.41132 46.2686 9.41132" fill="#231815"/>
<path d="M52.66 11.3858V4.47912H51.2327V6.35844H50.5428V4.47119H49.1075V8.89591C48.0608 9.2686 47.3154 10.2757 47.3154 11.473C47.3154 12.9797 48.5128 14.2008 49.9956 14.2008C51.4785 14.2008 52.6679 12.9797 52.6679 11.473C52.6679 11.4492 52.6679 11.4175 52.6679 11.3937M51.2406 7.2069V9.0545C51.0265 8.94349 50.7965 8.84834 50.5507 8.80076V7.19898H51.2406V7.2069ZM50.0274 13.3206C49.3771 13.3206 48.8458 12.4801 48.8458 11.4492C48.8458 10.4105 49.3692 9.562 50.0194 9.562C50.6697 9.562 51.2009 10.4025 51.2089 11.4413C51.2089 12.4801 50.6855 13.3286 50.0353 13.3286" fill="#231815"/>
<path d="M10.6882 9.40341C10.6486 9.18931 10.593 8.97521 10.5058 8.77697C10.2283 8.18225 9.84766 7.68268 9.2688 7.34171C8.37276 6.81836 7.29433 6.82629 6.40622 7.35757C6.00181 7.59546 5.67669 7.94437 5.46259 8.36464C5.39123 8.50737 5.32779 8.65803 5.28814 8.80869C5.05818 9.55407 5.06611 10.5453 5.48638 11.2272C5.62118 11.4493 5.81942 11.6396 6.06524 11.7347C6.31106 11.8299 6.59653 11.8219 6.81062 11.6792C7.09609 11.4968 7.14367 11.1479 7.08816 10.8387C7.02472 10.4422 6.96922 10.0536 7.11195 9.67302C7.15953 9.55407 7.22296 9.4272 7.31812 9.33997C7.37363 9.28447 7.44499 9.23689 7.51636 9.20517C7.66702 9.13381 7.84147 9.09415 8.008 9.12587C8.30139 9.17345 8.53928 9.40341 8.67408 9.66509C8.80096 9.9347 8.8406 10.236 8.85646 10.5294C8.9199 11.8219 8.61065 13.162 8.2776 14.407C8.24588 14.5339 8.20624 14.6607 8.17452 14.7876C8.1428 14.8828 8.09522 15.0096 8.15866 15.1048C8.18245 15.1444 8.23002 15.1762 8.26967 15.192C8.45998 15.2713 8.61858 15.1524 8.74545 15.0255C9.50669 14.2643 9.9904 13.281 10.3234 12.266C10.4503 11.8854 10.5534 11.5048 10.6248 11.1083C10.7199 10.5691 10.7754 9.95849 10.6803 9.39549" fill="#008D98"/>
<path d="M16.1117 3.42457C16.1117 3.23426 15.9373 3.09946 15.7549 3.10739C15.5646 3.10739 15.3981 3.21048 15.2236 3.27392C11.8853 4.54265 8.12663 4.78054 4.61382 4.27304C4.01117 4.18582 3.40059 4.06687 2.79794 3.97171C2.41732 3.9162 2.04462 3.82898 1.664 3.79726C1.33889 3.77347 0.934478 3.75762 0.672801 3.98757C0.323898 4.2889 0.347687 4.85191 0.545928 5.23253C0.783816 5.68452 1.19616 6.01755 1.62435 6.27923C2.04462 6.52505 2.54419 6.79466 3.03582 6.76294C4.37593 6.67571 5.71603 6.54883 7.05613 6.37438C9.33193 6.08099 11.7187 5.80345 13.8518 4.91534C14.5496 4.62987 15.2395 4.26511 15.8421 3.8052C15.9532 3.7259 16.1038 3.58316 16.1038 3.42457" fill="#008D98"/>
<path d="M6.54932 2.28274C6.54932 3.00433 7.13611 3.59112 7.8577 3.59112C8.5793 3.59112 9.16609 3.00433 9.16609 2.28274C9.16609 2.17172 9.1423 2.06863 9.09472 1.96554C8.98371 1.72766 8.85683 1.60871 8.87269 1.32325C8.88855 0.934697 8.39692 0.934692 8.12731 0.934692C7.84184 0.934692 7.53259 0.974341 7.27091 1.10914C7.06474 1.21223 6.88236 1.37875 6.75549 1.56906C6.62068 1.7673 6.54932 2.00519 6.54932 2.25101C6.54932 2.25894 6.54932 2.27481 6.54932 2.28274Z" fill="#F0004A"/>
</svg>
