<svg width="160" height="30" viewBox="0 0 160 30" fill="none" xmlns="http://www.w3.org/2000/svg">
<path d="M130.897 28.1998V24.5198H159.377V28.1998H130.897ZM133.297 20.2318V1.31982H157.137V4.96782H137.649V8.83982H156.881V12.4238H137.649V16.5838H157.617V20.2318H133.297Z" fill="#8F81E9"/>
<path d="M101.291 17.0319V0.967915H105.387V5.47992H110.315V0.967915H114.411V7.07992H117.419V0.871916H121.515V21.3199H117.419V10.9839H114.411V17.0319H101.291ZM103.531 29.1599V19.5599H107.883V25.5759H128.171V29.1599H103.531ZM123.435 21.6399V0.711914H127.531V21.6399H123.435ZM105.387 13.5759H110.315V8.93591H105.387V13.5759Z" fill="#8F81E9"/>
<path d="M92.1331 29.2879V0.711914H96.4851V29.2879H92.1331ZM71.2051 19.6559V8.96791C71.2051 3.84792 74.5971 0.871916 79.7491 0.871916C84.9011 0.871916 88.2931 3.84792 88.2931 8.96791V19.6559C88.2931 24.7759 84.9011 27.7519 79.7491 27.7519C74.5971 27.7519 71.2051 24.7759 71.2051 19.6559ZM83.9411 19.7839V8.83992C83.9411 6.21592 82.3091 4.48792 79.7491 4.48792C77.1891 4.48792 75.5571 6.21592 75.5571 8.83992V19.7839C75.5571 22.4079 77.1891 24.1359 79.7491 24.1359C82.3091 24.1359 83.9411 22.4079 83.9411 19.7839Z" fill="#8F81E9"/>
<path d="M32.9662 13.3518V9.89584H37.1262V4.29585H33.2862V0.839844H57.9262V4.29585H54.0862V9.89584H58.2462V13.3518H32.9662ZM33.4462 29.1598V20.8398H37.7982V25.5758H58.0862V29.1598H33.4462ZM31.3662 19.1758V15.7518H59.8462V19.1758H31.3662ZM41.4782 9.89584H49.7342V4.29585H41.4782V9.89584Z" fill="#8F81E9"/>
<path d="M0.959961 28.1999V24.5199H12.928V19.0479H12.576C6.43196 19.0479 2.71996 15.5599 2.71996 10.1199C2.71996 4.67989 6.43196 1.19189 12.576 1.19189H17.824C23.936 1.19189 27.68 4.67989 27.68 10.1199C27.68 15.5599 23.936 19.0479 17.824 19.0479H17.472V24.5199H29.44V28.1999H0.959961ZM12.416 15.3999H17.984C21.248 15.3999 23.328 13.2239 23.328 10.1199C23.328 7.01589 21.248 4.83989 17.984 4.83989H12.416C9.15196 4.83989 7.07196 7.01589 7.07196 10.1199C7.07196 13.2239 9.15196 15.3999 12.416 15.3999Z" fill="#8F81E9"/>
</svg>
