<svg width="117" height="38" viewBox="0 0 117 38" fill="none" xmlns="http://www.w3.org/2000/svg">
<path d="M28.198 37.628V0.121997H33.91V37.628H28.198ZM0.73 24.986V10.958C0.73 4.238 5.182 0.332 11.944 0.332C18.706 0.332 23.158 4.238 23.158 10.958V24.986C23.158 31.706 18.706 35.612 11.944 35.612C5.182 35.612 0.73 31.706 0.73 24.986ZM17.446 25.154V10.79C17.446 7.346 15.304 5.078 11.944 5.078C8.584 5.078 6.442 7.346 6.442 10.79V25.154C6.442 28.598 8.584 30.866 11.944 30.866C15.304 30.866 17.446 28.598 17.446 25.154ZM40.2182 21.542V0.457998H45.5942V6.38H52.0622V0.457998H57.4382V8.48H61.3862V0.332H66.7622V27.17H61.3862V13.604H57.4382V21.542H40.2182ZM43.1582 37.46V24.86H48.8702V32.756H75.4982V37.46H43.1582ZM69.2822 27.59V0.121997H74.6582V27.59H69.2822ZM45.5942 17.006H52.0622V10.916H45.5942V17.006ZM79.0764 36.2V31.37H116.456V36.2H79.0764ZM82.2264 25.742V0.92H113.516V5.708H87.9384V10.79H113.18V15.494H87.9384V20.954H114.146V25.742H82.2264Z" fill="#8F81E9"/>
</svg>
