<svg width="65" height="60" viewBox="0 0 65 60" fill="none" xmlns="http://www.w3.org/2000/svg">
<path d="M4.78003 59.19V55.47H6.95003V55.95H5.41003V57.02H6.87003V57.5H5.41003V58.71H6.99003V59.19H4.78003Z" fill="#505559"/>
<path d="M9.23997 59.1C9.00997 59.18 8.75997 59.19 8.51997 59.19H7.59998V55.47H8.51997C9.80997 55.47 10.15 56.11 10.15 57.32C10.15 58.04 10.02 58.86 9.23997 59.1ZM8.51997 55.92H8.22998V58.74H8.51997C8.69997 58.74 8.88998 58.72 9.04998 58.63C9.43998 58.39 9.45998 57.72 9.45998 57.32C9.45998 56.61 9.40997 55.92 8.51997 55.92Z" fill="#505559"/>
<path d="M12.06 59.25C11.28 59.25 10.77 58.86 10.77 58.05V55.47H11.4V58.05C11.4 58.49 11.58 58.8 12.06 58.8C12.54 58.8 12.72 58.49 12.72 58.05V55.47H13.35V58.05C13.35 58.87 12.85 59.25 12.06 59.25Z" fill="#505559"/>
<path d="M15.98 56.4899C15.98 56.1099 15.85 55.8599 15.43 55.8599C14.75 55.8599 14.66 56.6999 14.66 57.2199C14.66 57.9099 14.81 58.7599 15.67 58.7599C15.98 58.7599 16.27 58.6399 16.54 58.4899V59.0499C16.23 59.1799 15.87 59.2699 15.53 59.2699C14.36 59.2699 13.97 58.3799 13.97 57.3299C13.97 56.3499 14.3 55.4299 15.44 55.4299C16.12 55.4299 16.69 55.7799 16.69 56.5099H15.99L15.98 56.4899Z" fill="#505559"/>
<path d="M19.38 59.19L19.06 58.18H17.72L17.4 59.19H16.74L18.01 55.47H18.77L20.04 59.19H19.38ZM18.39 56.07H18.38L17.87 57.7H18.9L18.39 56.07Z" fill="#505559"/>
<path d="M21.51 55.95V59.19H20.88V55.95H19.95V55.47H22.44V55.95H21.51Z" fill="#505559"/>
<path d="M22.85 59.19V55.47H23.48V59.19H22.85Z" fill="#505559"/>
<path d="M25.63 59.2502C24.43 59.2502 24.13 58.3702 24.13 57.3302C24.13 56.2902 24.44 55.4102 25.63 55.4102C26.82 55.4102 27.13 56.2902 27.13 57.3302C27.13 58.3702 26.82 59.2502 25.63 59.2502ZM25.63 55.8602C24.89 55.8602 24.82 56.7802 24.82 57.3302C24.82 57.8802 24.88 58.8002 25.63 58.8002C26.38 58.8002 26.44 57.8702 26.44 57.3302C26.44 56.7902 26.37 55.8602 25.63 55.8602Z" fill="#505559"/>
<path d="M29.88 59.19L28.38 56.32H28.37V59.19H27.79V55.47H28.57L30 58.21H30.01V55.47H30.59V59.19H29.88Z" fill="#505559"/>
<path d="M34.88 56.4899C34.88 56.1099 34.75 55.8599 34.33 55.8599C33.65 55.8599 33.56 56.6999 33.56 57.2199C33.56 57.9099 33.71 58.7599 34.57 58.7599C34.88 58.7599 35.17 58.6399 35.44 58.4899V59.0499C35.13 59.1799 34.77 59.2699 34.43 59.2699C33.26 59.2699 32.87 58.3799 32.87 57.3299C32.87 56.3499 33.2 55.4299 34.34 55.4299C35.02 55.4299 35.59 55.7799 35.59 56.5099H34.89L34.88 56.4899Z" fill="#505559"/>
<path d="M37.39 59.2502C36.19 59.2502 35.89 58.3702 35.89 57.3302C35.89 56.2902 36.2 55.4102 37.39 55.4102C38.58 55.4102 38.89 56.2902 38.89 57.3302C38.89 58.3702 38.58 59.2502 37.39 59.2502ZM37.39 55.8602C36.65 55.8602 36.58 56.7802 36.58 57.3302C36.58 57.8802 36.64 58.8002 37.39 58.8002C38.14 58.8002 38.2 57.8702 38.2 57.3302C38.2 56.7902 38.13 55.8602 37.39 55.8602Z" fill="#505559"/>
<path d="M42.7801 59.19V56.26H42.7701L41.7501 59.19H41.1701L40.1501 56.26H40.1401V59.19H39.5701V55.47H40.4301L41.4601 58.44L42.5001 55.47H43.3601V59.19H42.7801Z" fill="#505559"/>
<path d="M47.3899 59.19V56.26H47.3799L46.3599 59.19H45.7799L44.7599 56.26H44.7499V59.19H44.1699V55.47H45.0299L46.0599 58.44H46.0699L47.1099 55.47H47.9699V59.19H47.3899Z" fill="#505559"/>
<path d="M48.76 59.19V55.47H49.39V59.19H48.76Z" fill="#505559"/>
<path d="M51.36 55.95V59.19H50.73V55.95H49.8V55.47H52.29V55.95H51.36Z" fill="#505559"/>
<path d="M53.8701 55.95V59.19H53.2401V55.95H52.3101V55.47H54.8001V55.95H53.8701Z" fill="#505559"/>
<path d="M55.22 59.19V55.47H57.39V55.95H55.85V57.02H57.31V57.5H55.85V58.71H57.43V59.19H55.22Z" fill="#505559"/>
<path d="M58.04 59.19V55.47H60.21V55.95H58.67V57.02H60.13V57.5H58.67V58.71H60.25V59.19H58.03H58.04Z" fill="#505559"/>
<path d="M9.88001 47.3C9.88001 47.05 9.84002 46.88 9.78002 46.79C9.71002 46.7 9.59002 46.61 9.43002 46.51C9.25002 46.44 9.19002 46.35 9.25002 46.24C9.31002 46.13 9.38002 46.08 9.46002 46.09C9.48002 46.09 9.70002 46.11 10.1 46.15C10.5 46.19 10.88 46.23 11.23 46.26C11.29 46.26 11.34 46.3 11.37 46.35C11.4 46.4 11.41 46.45 11.41 46.49V50.46H14.8C15.17 50.46 15.35 50.6 15.35 50.89C15.35 51.18 15.17 51.32 14.8 51.32H5.53002C5.31002 51.32 5.17002 51.3 5.10002 51.26C5.04002 51.22 4.97002 51.16 4.92002 51.08L4.51002 50.49C4.44002 50.35 4.44002 50.24 4.51002 50.17C4.58002 50.1 4.68002 50.09 4.80002 50.16C5.01002 50.26 5.19001 50.33 5.34001 50.38C5.49001 50.43 5.74001 50.45 6.09001 50.45H7.35002V47.48C7.35002 47.23 7.31002 47.06 7.25002 46.97C7.18002 46.89 7.06002 46.79 6.90002 46.69C6.72002 46.62 6.66002 46.53 6.71002 46.42C6.77002 46.31 6.84002 46.27 6.92002 46.27C6.94002 46.27 7.16001 46.29 7.56001 46.33C7.96002 46.37 8.34002 46.41 8.69002 46.44C8.76002 46.44 8.80002 46.48 8.83002 46.53C8.86002 46.58 8.87002 46.63 8.87002 46.67V50.44H9.88001V47.27V47.3ZM6.54002 43.55C6.43002 43.53 6.34001 43.48 6.27001 43.39L5.82002 42.76C5.77002 42.69 5.77002 42.6 5.81001 42.5C5.85001 42.4 5.94002 42.39 6.08002 42.45C6.28002 42.54 6.47002 42.6 6.64002 42.62C6.81002 42.65 7.04002 42.66 7.35002 42.66H13.9C14.07 42.66 14.18 42.73 14.24 42.86C14.29 42.98 14.32 43.11 14.32 43.25C14.24 44.26 14.07 45.28 13.8 46.33C13.53 47.38 13.18 48.14 12.77 48.62C12.63 48.78 12.45 48.87 12.24 48.89C12.03 48.91 11.95 48.76 12.02 48.44C12.16 47.74 12.26 46.97 12.31 46.12C12.36 45.27 12.39 44.42 12.39 43.58H6.96002C6.80002 43.58 6.66001 43.58 6.56001 43.55H6.54002Z" fill="#505559"/>
<path d="M25.2901 49.33C25.2901 49.33 25.3501 49.43 25.3501 49.52V51.46C25.3501 51.86 25.2601 52.19 25.0801 52.44C24.9001 52.69 24.6601 52.82 24.3701 52.82H23.8901C23.7801 52.82 23.7001 52.8 23.6401 52.75C23.5801 52.71 23.5501 52.63 23.5501 52.52V50.1H18.0001C17.8101 50.1 17.6901 50.08 17.6401 50.04C17.5901 50 17.5301 49.95 17.4601 49.87L17.0701 49.37C17.0101 49.26 17.0101 49.18 17.0701 49.11C17.1201 49.04 17.2001 49.02 17.3001 49.05C17.5001 49.13 17.6801 49.19 17.8201 49.22C17.9601 49.25 18.1301 49.26 18.3101 49.26H18.9101V47.91H16.7701C16.5501 47.91 16.4201 47.9 16.3801 47.87C16.3401 47.84 16.2901 47.79 16.2201 47.72L15.8001 47.24C15.7301 47.1 15.7301 46.99 15.8001 46.92C15.8701 46.85 15.9701 46.84 16.0901 46.91C16.3101 47 16.5201 47.06 16.7201 47.08C16.9201 47.1 17.1201 47.11 17.3301 47.11H26.5401C26.9101 47.11 27.0901 47.25 27.0901 47.52C27.0901 47.79 26.9001 47.92 26.5401 47.92H24.0901V49.27H25.1101C25.2001 49.27 25.2601 49.29 25.3001 49.33H25.2901ZM23.9301 42.08C24.7201 42.49 25.1201 43.08 25.1201 43.85C25.1201 44.62 24.7201 45.21 23.9301 45.62C23.1401 46.03 22.2801 46.23 21.3701 46.23C20.4601 46.23 19.6101 46.03 18.8201 45.62C18.0301 45.21 17.6301 44.62 17.6301 43.85C17.6301 43.08 18.0301 42.49 18.8301 42.08C19.6301 41.67 20.4801 41.47 21.3901 41.47C22.3001 41.47 23.1501 41.67 23.9401 42.08H23.9301ZM20.0601 44.93C20.4401 45.2 20.8701 45.33 21.3701 45.33C21.8701 45.33 22.2801 45.2 22.6701 44.93C23.0601 44.66 23.2501 44.3 23.2501 43.85C23.2501 43.4 23.0501 43.04 22.6701 42.76C22.2801 42.48 21.8501 42.35 21.3701 42.35C20.8701 42.35 20.4301 42.49 20.0601 42.76C19.6801 43.03 19.5001 43.4 19.5001 43.85C19.5001 44.3 19.6901 44.66 20.0601 44.93ZM20.5601 49.28H22.4301V47.93H20.5601V49.28Z" fill="#505559"/>
<path d="M34.8399 48.18C34.4799 48.25 34.0399 48.29 33.4999 48.29H32.4199V51.4601C32.4199 51.7101 32.3399 51.94 32.1699 52.15C32.0099 52.35 31.7999 52.4601 31.5599 52.4601H31.01C30.9 52.4601 30.8299 52.4401 30.7799 52.39C30.7299 52.34 30.7099 52.2701 30.7099 52.1601V48.29H28.5999C28.4099 48.29 28.2799 48.27 28.2099 48.23C28.1399 48.19 28.0699 48.14 27.9999 48.06L27.62 47.4901C27.56 47.3801 27.56 47.2901 27.62 47.2101C27.68 47.1301 27.7599 47.12 27.8799 47.18C28.0699 47.27 28.2399 47.3301 28.3799 47.3501C28.5299 47.3801 28.7599 47.39 29.0699 47.39H33.3799C34.0699 47.39 34.58 47.3701 34.91 47.3301C35.24 47.2901 35.5299 47.23 35.7699 47.15V42.73C35.7699 42.48 35.66 42.29 35.44 42.18C35.22 42.07 35.0399 41.97 34.9 41.9C34.7899 41.83 34.7499 41.75 34.7799 41.65C34.8199 41.55 34.8799 41.5 34.9599 41.51L37.19 41.7501C37.32 41.7701 37.39 41.81 37.41 41.87C37.43 41.93 37.4299 41.9701 37.4299 42.0001V51.81C37.4299 52.06 37.3499 52.2901 37.1799 52.5001C37.0199 52.7101 36.8099 52.81 36.5699 52.81H36.0699C35.9599 52.81 35.8799 52.7901 35.8399 52.7401C35.7899 52.7001 35.7699 52.62 35.7699 52.51V47.87C35.5099 47.99 35.2099 48.0901 34.8499 48.1601L34.8399 48.18ZM33.4699 42.7C34.0399 43.14 34.3199 43.68 34.3199 44.31C34.3199 44.94 34.0299 45.47 33.4699 45.92C32.8999 46.37 32.2199 46.6001 31.4299 46.6001C30.6399 46.6001 29.9599 46.38 29.3999 45.92C28.8399 45.47 28.5599 44.93 28.5599 44.31C28.5599 43.69 28.8399 43.14 29.3999 42.7C29.9599 42.26 30.6399 42.04 31.4299 42.04C32.2199 42.04 32.9099 42.26 33.4699 42.7ZM30.5599 45.3001C30.7999 45.5801 31.0799 45.7201 31.4199 45.7201C31.7599 45.7201 32.0399 45.5801 32.2899 45.3001C32.5299 45.0201 32.65 44.6901 32.65 44.3001C32.65 43.9101 32.5199 43.6 32.2699 43.34C32.0199 43.07 31.7299 42.9401 31.4199 42.9401C31.1099 42.9401 30.83 43.07 30.58 43.34C30.33 43.61 30.2099 43.9301 30.2099 44.3001C30.2099 44.6701 30.3299 45.0201 30.5699 45.3001H30.5599Z" fill="#505559"/>
<path d="M39.9801 47.1001C39.7901 47.1001 39.6601 47.0801 39.5901 47.0401C39.5201 47.0001 39.4501 46.9501 39.3801 46.8701L39.0001 46.3501C38.9401 46.2401 38.9401 46.1501 39.0001 46.0701C39.0601 45.9901 39.1401 45.9801 39.2601 46.0401C39.4501 46.1301 39.6201 46.1901 39.7601 46.2101C39.9101 46.2401 40.1401 46.2501 40.4501 46.2501H43.8401C44.7701 46.2501 45.3901 46.2401 45.7201 46.2101C46.0501 46.1801 46.3901 46.1301 46.7401 46.0701C46.9301 46.0301 47.0301 46.0701 47.0501 46.1701C47.0701 46.2801 47.0101 46.3801 46.8701 46.4701C46.5701 46.6601 46.2101 46.8101 45.8001 46.9201C45.3901 47.0301 44.7801 47.0901 43.9701 47.0901H43.5401V47.9701C43.5401 48.2201 43.4601 48.4301 43.2901 48.6001C43.1301 48.7601 42.9201 48.8501 42.6801 48.8501H42.1601C42.0501 48.8501 41.9801 48.8301 41.9301 48.7801C41.8801 48.7401 41.8601 48.6601 41.8601 48.5501V47.0901H39.9801V47.1001ZM44.7801 42.2801C45.3201 42.6401 45.5901 43.1001 45.5901 43.6901C45.5901 44.2801 45.3201 44.7301 44.7801 45.0901C44.2401 45.4501 43.5801 45.6301 42.8001 45.6301C42.0201 45.6301 41.3701 45.4501 40.8301 45.0901C40.2901 44.7301 40.0101 44.2601 40.0101 43.6901C40.0101 43.1201 40.2801 42.6301 40.8301 42.2801C41.3701 41.9301 42.0301 41.7501 42.8001 41.7501C43.5701 41.7501 44.2401 41.9301 44.7801 42.2801ZM43.2301 49.3601C43.2301 49.3601 43.2801 49.3701 43.3501 49.4001C43.4201 49.4301 43.4601 49.5101 43.4601 49.6401V50.8701C43.4601 51.1401 43.5101 51.3301 43.6001 51.4501C43.6801 51.5601 43.8801 51.6201 44.2001 51.6201H48.5701C48.9401 51.6201 49.1201 51.7501 49.1201 52.0201C49.1201 52.2901 48.9301 52.4201 48.5701 52.4201H43.0601C42.8401 52.4201 42.5801 52.3501 42.2901 52.2001C42.0001 52.0501 41.8501 51.7501 41.8501 51.2901V50.2701C41.8501 50.0701 41.7401 49.9301 41.5301 49.8401C41.3201 49.7501 41.1601 49.6801 41.0601 49.6301C40.9201 49.5701 40.8701 49.4801 40.9101 49.3901C40.9501 49.2901 41.0101 49.2501 41.0901 49.2601L43.2301 49.3701V49.3601ZM42.0301 44.4901C42.2701 44.6901 42.5301 44.8001 42.8001 44.8001C43.0701 44.8001 43.3501 44.7001 43.5901 44.4901C43.8301 44.2901 43.9501 44.0201 43.9501 43.6901C43.9501 43.3601 43.8301 43.0901 43.5901 42.8901C43.3501 42.6801 43.0901 42.5801 42.8001 42.5801C42.5101 42.5801 42.2601 42.6801 42.0301 42.8901C41.7901 43.1001 41.6701 43.3701 41.6701 43.6901C41.6701 44.0101 41.7901 44.2801 42.0301 44.4901ZM45.3201 48.8101C45.2601 48.8101 45.2201 48.8001 45.1901 48.7801C45.1601 48.7601 45.1201 48.7301 45.0801 48.6901L44.6801 48.1701C44.6301 48.1001 44.6001 48.0301 44.5901 47.9501C44.5801 47.8701 44.6001 47.8101 44.6601 47.7501C44.7501 47.6601 44.8901 47.6601 45.0801 47.7501C45.2701 47.8401 45.4501 47.8801 45.6201 47.8801H47.3101V42.7601C47.3101 42.5101 47.2001 42.3201 46.9801 42.2101C46.7601 42.1001 46.5801 42.0001 46.4401 41.9301C46.3301 41.8601 46.2901 41.7801 46.3201 41.6801C46.3601 41.5801 46.4201 41.5301 46.5001 41.5401L48.7701 41.7801C48.9001 41.8001 48.9701 41.8401 48.9901 41.9001C49.0101 41.9601 49.0101 42.0001 49.0101 42.0301V48.8901C49.0101 49.1501 48.9301 49.3801 48.7701 49.5801C48.6101 49.7801 48.4001 49.8901 48.1601 49.8901H47.6201C47.5101 49.8901 47.4301 49.8701 47.3901 49.8201C47.3401 49.7801 47.3201 49.7001 47.3201 49.5901V48.8201H45.3401L45.3201 48.8101Z" fill="#505559"/>
<path d="M55.61 49.4001H56.01C56.76 49.4001 57.35 49.3801 57.79 49.3301C58.23 49.2901 58.62 49.1601 58.94 48.9601V42.7601C58.94 42.5101 58.83 42.3201 58.61 42.2101C58.39 42.1001 58.21 42.0001 58.07 41.9301C57.96 41.8601 57.92 41.7801 57.95 41.6801C57.99 41.5801 58.05 41.5301 58.13 41.5401L60.33 41.7801C60.46 41.8001 60.53 41.8401 60.55 41.9001C60.57 41.9601 60.58 42.0001 60.58 42.0301V51.8401C60.58 52.0901 60.5 52.3201 60.33 52.5301C60.17 52.7401 59.96 52.8401 59.72 52.8401H59.25C59.14 52.8401 59.07 52.8201 59.02 52.7701C58.97 52.7301 58.94 52.6501 58.94 52.5401V49.7601C58.68 49.9601 58.35 50.0901 57.95 50.1601C57.55 50.2301 57 50.2601 56.3 50.2601H51.68C51.51 50.2601 51.39 50.2601 51.33 50.2401C51.27 50.2301 51.21 50.1901 51.14 50.1101L50.7 49.4801C50.64 49.3901 50.64 49.3101 50.7 49.2301C50.77 49.1601 50.86 49.1401 50.97 49.1801C51.16 49.2701 51.34 49.3301 51.5 49.3501C51.67 49.3801 51.91 49.3901 52.22 49.3901H53.88V48.0901C53.31 47.9401 52.83 47.6601 52.44 47.2301C52.05 46.8001 51.86 46.3001 51.86 45.7301C51.86 45.4201 51.92 45.1301 52.05 44.8501C52.18 44.5801 52.35 44.3401 52.58 44.1301H51.86C51.67 44.1301 51.55 44.1101 51.49 44.0801C51.43 44.0501 51.37 43.9901 51.3 43.9101L50.87 43.3801C50.79 43.2201 50.79 43.1101 50.87 43.0501C50.95 42.9901 51.04 43.0001 51.13 43.0601C51.29 43.1301 51.44 43.1901 51.58 43.2201C51.72 43.2501 51.9 43.2701 52.13 43.2701H53.9C53.9 43.0201 53.89 42.7801 53.86 42.5601C53.83 42.3401 53.74 42.1901 53.58 42.1201C53.39 42.0101 53.31 41.9001 53.33 41.7901C53.35 41.6801 53.44 41.6301 53.6 41.6501L55.36 41.8001C55.45 41.8001 55.52 41.8401 55.56 41.8901C55.6 41.9401 55.62 42.0101 55.61 42.1001L55.59 43.2701H57.84C58.2 43.2701 58.38 43.4101 58.38 43.7001C58.38 43.9901 58.2 44.1301 57.84 44.1301H56.94C57.16 44.3301 57.34 44.5701 57.47 44.8501C57.6 45.1201 57.67 45.4201 57.67 45.7301C57.67 46.3001 57.47 46.8001 57.07 47.2201C56.67 47.6401 56.18 47.9301 55.59 48.0901V49.3901L55.61 49.4001ZM53.92 46.8901C54.15 47.2001 54.42 47.3501 54.74 47.3501C55.06 47.3501 55.34 47.2001 55.58 46.8901C55.82 46.5801 55.94 46.2001 55.94 45.7501C55.94 45.3001 55.82 44.9201 55.58 44.6101C55.34 44.3001 55.07 44.1501 54.76 44.1501C54.45 44.1501 54.16 44.3001 53.93 44.6101C53.69 44.9201 53.57 45.3001 53.57 45.7501C53.57 46.2001 53.69 46.5801 53.92 46.8901Z" fill="#505559"/>
<path d="M27.74 4.71005C29.48 4.71005 31.1 5.16004 32.52 5.95004C33.93 5.16004 35.56 4.71005 37.29 4.71005C41.78 4.71005 45.57 7.74004 46.72 11.87H46.89C45.45 5.26004 39.56 0.300049 32.51 0.300049C25.46 0.300049 19.58 5.26004 18.13 11.87H18.3C19.45 7.74004 23.23 4.71005 27.73 4.71005H27.74Z" fill="#003078"/>
<path d="M32.5201 5.94995C31.1101 5.15995 29.4801 4.70996 27.7401 4.70996C23.2401 4.70996 19.4601 7.73995 18.3101 11.8699H27.8601C28.5701 9.33995 30.2701 7.21996 32.5201 5.95996V5.94995Z" fill="#5A97C0"/>
<path d="M37.29 4.70996C35.55 4.70996 33.93 5.15995 32.52 5.94995C34.77 7.20995 36.47 9.32996 37.18 11.86H46.73C45.58 7.72995 41.79 4.69995 37.3 4.69995L37.29 4.70996Z" fill="#51B099"/>
<path d="M64.2101 35.5999L63.4701 34.1699H1.56007L0.820068 35.5999H64.2101Z" fill="#003078"/>
<path d="M8.48005 15.8201L8.90005 31.5601H5.80005L6.21004 15.8201H8.48005Z" fill="#003078"/>
<path d="M15.67 15.8201L16.09 31.5601H12.99L13.4 15.8201H15.67Z" fill="#003078"/>
<path d="M22.8599 15.8201L23.2799 31.5601H20.1799L20.5899 15.8201H22.8599Z" fill="#003078"/>
<path d="M30.05 15.8201L30.47 31.5601H27.37L27.79 15.8201H30.05Z" fill="#003078"/>
<path d="M37.2401 15.8201L37.6601 31.5601H34.5601L34.9801 15.8201H37.2401Z" fill="#003078"/>
<path d="M44.43 15.8201L44.85 31.5601H41.75L42.17 15.8201H44.43Z" fill="#003078"/>
<path d="M51.6199 15.8201L52.0399 31.5601H48.9399L49.3599 15.8201H51.6199Z" fill="#003078"/>
<path d="M58.81 15.8201L59.24 31.5601H56.13L56.55 15.8201H58.81Z" fill="#003078"/>
<path d="M0.820068 13.29L1.56007 14.72H63.4701L64.2101 13.29H0.820068Z" fill="#003078"/>
<path d="M3.75006 32.6602L3.31006 33.4902H61.7201L61.2901 32.6602H3.75006Z" fill="#003078"/>
</svg>
