<svg width="340" height="39" viewBox="0 0 340 39" fill="none" xmlns="http://www.w3.org/2000/svg">
<path d="M0.26 36.2V31.37H7.946V22.424C4.502 20.45 2.57 16.964 2.57 12.47C2.57 5.33 7.442 0.751999 15.506 0.751999H22.394C30.416 0.751999 35.33 5.33 35.33 12.47C35.33 16.88 33.44 20.324 30.122 22.298V31.37H37.64V36.2H0.26ZM15.296 19.4H22.604C26.888 19.4 29.618 16.544 29.618 12.47C29.618 8.396 26.888 5.54 22.604 5.54H15.296C11.012 5.54 8.282 8.396 8.282 12.47C8.282 16.544 11.012 19.4 15.296 19.4ZM13.91 31.37H24.158V24.104C23.57 24.146 22.982 24.188 22.394 24.188H15.506C14.96 24.188 14.414 24.188 13.91 24.146V31.37ZM40.1682 36.62V31.79H56.2962V25.742H43.3182V10.748H68.6862V5.708H43.3182V0.92H74.3982V15.452H49.0302V20.954H75.2382V25.742H62.2602V31.79H77.5482V36.62H40.1682ZM82.8064 18.854V14.15H108.594V5.918H82.8064V1.13H114.306V27.842H108.594V18.854H82.8064ZM80.0764 35.99V31.16H93.0544V21.962H99.0184V31.16H117.456V35.99H80.0764ZM119.985 23.6V19.274H136.113V16.922H122.715V6.422H148.839V4.616H122.715V0.289998H154.635V10.58H128.511V12.596H155.475V16.922H142.077V19.274H157.365V23.6H119.985ZM122.715 37.46V25.28H154.635V37.46H122.715ZM128.427 32.924H148.923V29.816H128.427V32.924ZM180.757 27.422H198.229C203.017 27.422 205.663 29.27 205.663 32.756C205.663 36.242 203.017 38.09 198.229 38.09H180.757C175.969 38.09 173.323 36.242 173.323 32.756C173.323 29.27 175.969 27.422 180.757 27.422ZM172.903 13.31V9.068C179.497 8.69 184.873 7.178 186.091 4.742H173.533V0.289998H205.453V4.742H192.853C194.029 7.178 199.489 8.69 206.083 9.068V13.31C199.195 12.932 193.105 11.714 189.493 8.858C185.881 11.714 179.791 12.932 172.903 13.31ZM170.803 19.274V14.864H186.511V11.462H192.475V14.864H208.183V19.274H170.803ZM172.903 26.246V22.088H186.511V20.072H192.475V22.088H206.083V26.246H172.903ZM181.051 33.848H197.935C199.237 33.848 199.951 33.47 199.951 32.756C199.951 32.042 199.237 31.664 197.935 31.664H181.051C179.749 31.664 179.035 32.042 179.035 32.756C179.035 33.47 179.749 33.848 181.051 33.848ZM210.711 24.272V19.778H248.091V24.272H210.711ZM213.441 37.46V26.54H219.153V32.756H245.781V37.46H213.441ZM235.911 16.67H222.891C216.465 16.67 212.601 13.352 212.601 8.396C212.601 3.44 216.465 0.121997 222.891 0.121997H235.911C242.337 0.121997 246.201 3.44 246.201 8.396C246.201 13.352 242.337 16.67 235.911 16.67ZM223.059 12.134H235.743C238.641 12.134 240.489 10.58 240.489 8.396C240.489 6.212 238.641 4.658 235.743 4.658H223.059C220.161 4.658 218.313 6.212 218.313 8.396C218.313 10.58 220.161 12.134 223.059 12.134ZM259.85 35.192V30.194C264.176 28.43 267.452 23.306 267.452 15.62V0.751999H273.29V15.62C273.29 22.97 276.314 27.674 280.472 29.732V34.73C276.44 33.554 272.492 30.152 270.434 26.33C268.544 30.362 264.428 34.058 259.85 35.192ZM282.908 36.788V17.258H276.86V12.134H282.908V0.332H288.284V36.788H282.908ZM291.644 37.628V0.121997H297.02V37.628H291.644ZM325.882 37.628H312.694C306.646 37.628 302.908 34.604 302.908 29.774C302.908 24.944 306.646 21.92 312.694 21.92H325.882C331.93 21.92 335.668 24.944 335.668 29.774C335.668 34.604 331.93 37.628 325.882 37.628ZM300.388 19.862V15.284C306.016 14.444 310.258 9.614 310.258 4.07V0.332H316.18V4.07C316.18 9.488 320.044 13.856 325.63 14.948V19.526C320.674 18.686 315.928 15.872 313.198 12.386C310.426 16.376 305.806 18.98 300.388 19.862ZM329.116 21.038V0.121997H334.828V7.43H339.868V12.554H334.828V21.038H329.116ZM313.072 33.092H325.504C328.234 33.092 329.956 31.79 329.956 29.774C329.956 27.758 328.234 26.456 325.504 26.456H313.072C310.342 26.456 308.62 27.758 308.62 29.774C308.62 31.79 310.342 33.092 313.072 33.092Z" fill="#00A5B5"/>
</svg>
