<svg width="558" height="1080" viewBox="0 0 558 1080" fill="none" xmlns="http://www.w3.org/2000/svg">
<g clip-path="url(#clip0_22_2180)">
<path fill-rule="evenodd" clip-rule="evenodd" d="M270.83 180.97H286.78C290.28 180.97 293.15 183.94 293.15 187.56V1166.23C293.15 1169.86 290.28 1172.82 286.78 1172.82H270.83C267.32 1172.82 264.46 1169.85 264.46 1166.23V187.56C264.46 183.93 267.33 180.97 270.83 180.97Z" fill="#A05E17"/>
<path fill-rule="evenodd" clip-rule="evenodd" d="M269.84 181.05C266.8 181.54 264.45 184.28 264.45 187.56V1166.23C264.45 1169.51 266.8 1172.25 269.84 1172.74V181.05Z" fill="#D5A158"/>
<path fill-rule="evenodd" clip-rule="evenodd" d="M287.86 1172.73C290.86 1172.2 293.16 1169.48 293.16 1166.23V187.56C293.16 184.31 290.86 181.6 287.86 181.06V1172.72V1172.73Z" fill="#8D4D13"/>
<path fill-rule="evenodd" clip-rule="evenodd" d="M116.03 172.44V192.41C116.03 196.8 117 200.39 118.19 200.39H439.42C440.61 200.39 441.58 196.8 441.58 192.41V172.44C441.58 168.05 440.61 164.46 439.42 164.46H118.19C117 164.46 116.03 168.05 116.03 172.44Z" fill="#C87822"/>
<path fill-rule="evenodd" clip-rule="evenodd" d="M116.05 171.2C116.21 167.39 117.11 164.46 118.19 164.46H439.42C440.5 164.46 441.4 167.4 441.56 171.2H116.05Z" fill="#E4B067"/>
<path fill-rule="evenodd" clip-rule="evenodd" d="M441.55 193.76C441.38 197.51 440.48 200.39 439.42 200.39H118.19C117.12 200.39 116.23 197.51 116.06 193.76H441.56H441.55Z" fill="#8D4D13"/>
<path fill-rule="evenodd" clip-rule="evenodd" d="M269.15 -49H288.46C292.71 -49 296.18 -45.95 296.18 -42.22V964.75C296.18 968.48 292.71 971.53 288.46 971.53H269.15C264.9 971.53 261.43 968.48 261.43 964.75V-42.22C261.43 -45.95 264.9 -49 269.15 -49Z" fill="#C87822"/>
<path fill-rule="evenodd" clip-rule="evenodd" d="M267.95 -48.9199C264.27 -48.4099 261.43 -45.5899 261.43 -42.2199V964.75C261.43 968.12 264.27 970.94 267.95 971.45V-48.9199Z" fill="#E4B067"/>
<path fill-rule="evenodd" clip-rule="evenodd" d="M289.77 971.44C293.4 970.89 296.18 968.1 296.18 964.76V-42.2202C296.18 -45.5602 293.4 -48.3602 289.77 -48.9102V971.44Z" fill="#8D4D13"/>
<path fill-rule="evenodd" clip-rule="evenodd" d="M43.34 948.08V968.05C43.34 972.44 44.75 976.03 46.47 976.03H511.13C512.85 976.03 514.26 972.44 514.26 968.05V948.08C514.26 943.69 512.85 940.1 511.13 940.1H46.47C44.75 940.1 43.34 943.69 43.34 948.08Z" fill="#C87822"/>
<path fill-rule="evenodd" clip-rule="evenodd" d="M43.38 946.84C43.62 943.03 44.92 940.1 46.47 940.1H511.13C512.69 940.1 513.99 943.04 514.22 946.84H43.38Z" fill="#E4B067"/>
<path fill-rule="evenodd" clip-rule="evenodd" d="M514.22 969.4C513.97 973.15 512.68 976.03 511.13 976.03H46.47C44.93 976.03 43.64 973.15 43.39 969.4H514.22Z" fill="#8D4D13"/>
<path fill-rule="evenodd" clip-rule="evenodd" d="M129.52 76.1299H148.83C153.08 76.1299 156.19 79.7199 155.76 84.1099L38.08 1269.02C37.64 1273.41 33.81 1277 29.57 1277H10.26C6.01997 1277 2.89997 1273.41 3.33997 1269.02L121.01 84.1099C121.45 79.7199 125.27 76.1299 129.52 76.1299Z" fill="#C87822"/>
<path fill-rule="evenodd" clip-rule="evenodd" d="M128.31 76.2197C124.57 76.8197 121.4 80.1397 121.01 84.1097L3.33001 1269.02C2.94001 1272.99 5.44001 1276.31 9.07001 1276.91L128.31 76.2197Z" fill="#E4B067"/>
<path fill-rule="evenodd" clip-rule="evenodd" d="M30.89 1276.89C34.58 1276.24 37.69 1272.95 38.08 1269.02L155.75 84.1102C156.14 80.1802 153.68 76.8902 150.12 76.2402L30.89 1276.89Z" fill="#8D4D13"/>
<path fill-rule="evenodd" clip-rule="evenodd" d="M428.09 76.1299H408.78C404.53 76.1299 401.42 79.7199 401.85 84.1099L519.53 1269.02C519.96 1273.41 523.79 1277 528.04 1277H547.35C551.6 1277 554.71 1273.41 554.28 1269.02L436.6 84.1099C436.16 79.7199 432.33 76.1299 428.09 76.1299Z" fill="#C87822"/>
<path fill-rule="evenodd" clip-rule="evenodd" d="M429.29 76.2197C433.03 76.8197 436.2 80.1397 436.6 84.1097L554.28 1269.02C554.67 1272.99 552.16 1276.31 548.54 1276.91L429.29 76.2197Z" fill="#8D4D13"/>
<path fill-rule="evenodd" clip-rule="evenodd" d="M526.72 1276.89C523.03 1276.24 519.92 1272.95 519.53 1269.02L401.86 84.1102C401.47 80.1802 403.92 76.8902 407.49 76.2402L526.73 1276.88L526.72 1276.89Z" fill="#E4B067"/>
<path fill-rule="evenodd" clip-rule="evenodd" d="M0.0100002 830.3V850.27C0.0100002 854.66 1.68 858.25 3.72 858.25H553.9C555.94 858.25 557.61 854.66 557.61 850.27V830.3C557.61 825.91 555.94 822.32 553.9 822.32H3.71C1.67 822.32 0 825.91 0 830.3H0.0100002Z" fill="#C87822"/>
<path fill-rule="evenodd" clip-rule="evenodd" d="M0.0499878 829.06C0.329988 825.25 1.86999 822.32 3.70999 822.32H553.89C555.73 822.32 557.27 825.26 557.55 829.06H0.0499878Z" fill="#E4B067"/>
<path fill-rule="evenodd" clip-rule="evenodd" d="M557.55 851.62C557.25 855.37 555.72 858.25 553.9 858.25H3.71C1.88 858.25 0.359998 855.37 0.0599976 851.62H557.54H557.55Z" fill="#8D4D13"/>
<path fill-rule="evenodd" clip-rule="evenodd" d="M0.0100002 845.81V854.7C0.0100002 856.65 1.68 858.25 3.72 858.25H553.9C555.94 858.25 557.61 856.65 557.61 854.7V845.81C557.61 843.86 555.94 842.26 553.9 842.26H3.71C1.67 842.26 0 843.86 0 845.81H0.0100002Z" fill="#B2691B"/>
<path fill-rule="evenodd" clip-rule="evenodd" d="M0.0499878 845.26C0.329988 843.57 1.86999 842.26 3.70999 842.26H553.89C555.73 842.26 557.27 843.57 557.55 845.26H0.0499878Z" fill="#E4B067"/>
<path fill-rule="evenodd" clip-rule="evenodd" d="M557.55 855.3C557.25 856.97 555.72 858.25 553.9 858.25H3.71C1.88 858.25 0.359998 856.97 0.0599976 855.3H557.54H557.55Z" fill="#8D4D13"/>
<path fill-rule="evenodd" clip-rule="evenodd" d="M254.08 108.7H303.53C305.96 108.7 307.96 106.83 307.96 104.53V36.7801C307.96 34.4901 305.97 32.6201 303.53 32.6201H254.08C251.65 32.6201 249.65 34.4901 249.65 36.7801V104.53C249.65 106.82 251.64 108.7 254.08 108.7Z" fill="#D3822D"/>
<path fill-rule="evenodd" clip-rule="evenodd" d="M254.08 108.7H254.2V32.6201H254.08C251.64 32.6201 249.66 34.6801 249.66 37.1901V104.12C249.66 106.64 251.65 108.69 254.08 108.69V108.7Z" fill="#E4B067"/>
<path fill-rule="evenodd" clip-rule="evenodd" d="M303.53 108.7H303.41V32.6201H303.53C305.97 32.6201 307.95 34.6801 307.95 37.1901V104.12C307.95 106.64 305.96 108.69 303.53 108.69V108.7Z" fill="#B26520"/>
<path fill-rule="evenodd" clip-rule="evenodd" d="M278.8 79.0798C283.29 79.0798 286.93 75.3098 286.93 70.6698C286.93 66.0298 283.29 62.2598 278.8 62.2598C274.31 62.2598 270.67 66.0298 270.67 70.6698C270.67 75.3098 274.31 79.0798 278.8 79.0798Z" fill="#8D4D13"/>
<path fill-rule="evenodd" clip-rule="evenodd" d="M216.54 101.92V113.18C216.54 115.66 216.91 117.68 217.37 117.68H340.24C340.7 117.68 341.07 115.65 341.07 113.18V101.92C341.07 99.4399 340.7 97.4199 340.24 97.4199H217.37C216.92 97.4199 216.54 99.4499 216.54 101.92Z" fill="#B2691B"/>
<path fill-rule="evenodd" clip-rule="evenodd" d="M216.55 101.22C216.61 99.0699 216.95 97.4199 217.36 97.4199H340.23C340.64 97.4199 340.99 99.0799 341.05 101.22H216.54H216.55Z" fill="#E4B067"/>
<path fill-rule="evenodd" clip-rule="evenodd" d="M341.06 113.94C340.99 116.06 340.65 117.68 340.24 117.68H217.37C216.96 117.68 216.62 116.06 216.56 113.94H341.07H341.06Z" fill="#8D4D13"/>
<path fill-rule="evenodd" clip-rule="evenodd" d="M51.37 961.96C53.28 961.96 54.82 960.22 54.82 958.06C54.82 955.9 53.28 954.17 51.37 954.17C49.46 954.17 47.93 955.91 47.93 958.06C47.93 960.21 49.47 961.96 51.37 961.96Z" fill="#B2B2B2"/>
<path fill-rule="evenodd" clip-rule="evenodd" d="M51.3 958.1C52.16 957.27 52.46 956.06 51.97 955.41C51.48 954.76 50.38 954.91 49.52 955.74C48.66 956.57 48.36 957.78 48.85 958.43C49.35 959.08 50.44 958.93 51.3 958.1Z" fill="#E6E6E6"/>
<path fill-rule="evenodd" clip-rule="evenodd" d="M506.07 961.96C507.97 961.96 509.52 960.22 509.52 958.06C509.52 955.9 507.98 954.17 506.07 954.17C504.16 954.17 502.62 955.91 502.62 958.06C502.62 960.21 504.16 961.96 506.07 961.96Z" fill="#B2B2B2"/>
<path fill-rule="evenodd" clip-rule="evenodd" d="M506.01 958.1C506.87 957.27 507.17 956.06 506.68 955.41C506.19 954.76 505.09 954.91 504.23 955.74C503.37 956.57 503.07 957.78 503.56 958.43C504.05 959.08 505.15 958.93 506.01 958.1Z" fill="#E6E6E6"/>
<path fill-rule="evenodd" clip-rule="evenodd" d="M127.85 186.32C129.75 186.32 131.3 184.57 131.3 182.42C131.3 180.27 129.76 178.52 127.85 178.52C125.94 178.52 124.4 180.26 124.4 182.42C124.4 184.58 125.94 186.32 127.85 186.32Z" fill="#B2B2B2"/>
<path fill-rule="evenodd" clip-rule="evenodd" d="M127.78 182.46C128.64 181.62 128.94 180.42 128.45 179.77C127.96 179.12 126.86 179.27 126 180.1C125.14 180.93 124.84 182.14 125.33 182.79C125.82 183.44 126.92 183.29 127.78 182.46Z" fill="#E6E6E6"/>
<path fill-rule="evenodd" clip-rule="evenodd" d="M278.8 186.32C280.7 186.32 282.25 184.57 282.25 182.42C282.25 180.27 280.71 178.52 278.8 178.52C276.89 178.52 275.35 180.26 275.35 182.42C275.35 184.58 276.9 186.32 278.8 186.32Z" fill="#B2B2B2"/>
<path fill-rule="evenodd" clip-rule="evenodd" d="M278.74 182.46C279.6 181.62 279.9 180.42 279.41 179.77C278.92 179.12 277.82 179.27 276.96 180.1C276.1 180.93 275.8 182.14 276.29 182.79C276.78 183.44 277.88 183.29 278.74 182.46Z" fill="#E6E6E6"/>
<path fill-rule="evenodd" clip-rule="evenodd" d="M429.16 186.32C431.06 186.32 432.6 184.57 432.6 182.42C432.6 180.27 431.06 178.52 429.16 178.52C427.26 178.52 425.71 180.26 425.71 182.42C425.71 184.58 427.26 186.32 429.16 186.32Z" fill="#B2B2B2"/>
<path fill-rule="evenodd" clip-rule="evenodd" d="M429.1 182.46C429.96 181.62 430.26 180.42 429.77 179.77C429.28 179.12 428.18 179.27 427.32 180.1C426.46 180.93 426.16 182.14 426.65 182.79C427.14 183.44 428.24 183.29 429.1 182.46Z" fill="#E6E6E6"/>
</g>
<defs>
<clipPath id="clip0_22_2180">
<rect width="558" height="1080" fill="white"/>
</clipPath>
</defs>
</svg>
