<svg width="200" height="301" viewBox="0 0 200 301" fill="none" xmlns="http://www.w3.org/2000/svg">
<path d="M200 186V14C200 6.27 193.73 0 186 0H14C6.27 0 0 6.27 0 14V186C0 193.39 5.74 199.43 13 199.95V200.14C5.74 200.65 0 206.7 0 214.09V286.09C0 293.82 6.27 300.09 14 300.09H186C193.73 300.09 200 293.82 200 286.09V214.09C200 206.7 194.26 200.66 187 200.14V199.95C194.26 199.44 200 193.39 200 186ZM41 199.59H159V200.59H41V199.59Z" fill="black"/>
<path d="M156.52 90.1853L150.624 103.631L143.953 90.1853H138.82L148.277 108.833L144.369 117.538H149.352L161.503 90.1737H156.52V90.1853ZM135.965 110.96H131.086V109.018C129.329 110.532 127.225 111.388 124.67 111.388C118.831 111.388 114.265 106.636 114.265 100.567C114.265 94.4975 118.831 89.7459 124.67 89.7459C127.213 89.7459 129.329 90.5899 131.086 92.1159V90.1737H135.965V110.96ZM131.652 100.567C131.652 96.6478 128.924 93.6651 125.282 93.6651C121.641 93.6651 118.912 96.6363 118.912 100.567C118.912 104.498 121.641 107.469 125.282 107.469C128.924 107.469 131.652 104.498 131.652 100.567ZM90.0215 117.538H95.1083V109.203C96.8308 110.613 98.8656 111.388 101.316 111.388C107.155 111.388 111.721 106.636 111.721 100.567C111.721 94.4975 107.155 89.7459 101.316 89.7459C98.7731 89.7459 96.6574 90.5899 94.9002 92.1159V90.1737H90.0215V117.538ZM100.692 93.6882C104.311 93.6882 107.062 96.6594 107.062 100.59C107.062 104.521 104.334 107.492 100.692 107.492C97.0505 107.492 94.3221 104.521 94.3221 100.59C94.3221 96.6594 97.0505 93.6882 100.692 93.6882Z" fill="#00DE5A"/>
<path d="M80.9115 101.214C80.9115 112.925 71.42 122.429 59.6972 122.429C47.9744 122.429 38.4829 112.937 38.4829 101.214C38.4829 89.4915 47.9744 80 59.6972 80C71.42 80 80.9115 89.4915 80.9115 101.214ZM63.2464 91.2488V101.908L55.8358 91.2488H49.7201V111.18H56.1364V100.521L63.547 111.18H69.6627V91.2488H63.2464Z" fill="#00DE5A"/>
<path d="M46.0098 253.37C46.0098 256.88 43.4398 259.45 40.8998 259.9C43.6998 260.35 46.8398 262.77 46.8398 266.69C46.8398 272.55 41.8798 276.21 35.5698 276.21C28.8898 276.21 24.7498 272.48 24.2598 266.62H30.9398C31.1998 269.05 32.7298 270.5 35.5698 270.5C38.4098 270.5 40.2298 268.97 40.2298 266.73C40.2298 264.19 38.0998 262.85 34.9298 262.85H31.9098V257.33H34.9298C37.6898 257.33 39.3298 255.84 39.3298 253.52C39.3298 251.2 37.8398 249.9 35.2998 249.9C32.7598 249.9 31.4198 252.03 31.4198 254.19H24.7398C24.7398 248.4 29.1098 244.23 35.3398 244.23C41.5698 244.23 46.0098 247.92 46.0098 253.37Z" fill="white"/>
<path d="M72.1399 260.24C72.1399 270.88 67.1399 276.21 60.4999 276.21C53.8599 276.21 48.8599 270.87 48.8599 260.24C48.8599 249.61 53.8599 244.23 60.4999 244.23C67.1399 244.23 72.1399 249.57 72.1399 260.24ZM55.2699 260.24C55.2699 267.15 57.5099 270.28 60.4999 270.28C63.4899 270.28 65.7199 267.15 65.7199 260.24C65.7199 253.33 63.4799 250.16 60.4999 250.16C57.5199 250.16 55.2699 253.3 55.2699 260.24Z" fill="white"/>
<path d="M72.3301 278.45L73.6701 268.78H79.6101L77.3001 278.45H72.3301Z" fill="white"/>
<path d="M104.13 260.24C104.13 270.88 99.1301 276.21 92.4901 276.21C85.8501 276.21 80.8501 270.87 80.8501 260.24C80.8501 249.61 85.8501 244.23 92.4901 244.23C99.1301 244.23 104.13 249.57 104.13 260.24ZM87.2601 260.24C87.2601 267.15 89.5001 270.28 92.4901 270.28C95.4801 270.28 97.7101 267.15 97.7101 260.24C97.7101 253.33 95.4701 250.16 92.4901 250.16C89.5101 250.16 87.2601 253.3 87.2601 260.24Z" fill="white"/>
<path d="M129.47 260.24C129.47 270.88 124.47 276.21 117.83 276.21C111.19 276.21 106.19 270.87 106.19 260.24C106.19 249.61 111.19 244.23 117.83 244.23C124.47 244.23 129.47 249.57 129.47 260.24ZM112.6 260.24C112.6 267.15 114.84 270.28 117.82 270.28C120.8 270.28 123.05 267.15 123.05 260.24C123.05 253.33 120.81 250.16 117.82 250.16C114.83 250.16 112.6 253.3 112.6 260.24Z" fill="white"/>
<path d="M154.82 260.24C154.82 270.88 149.82 276.21 143.18 276.21C136.54 276.21 131.54 270.87 131.54 260.24C131.54 249.61 136.54 244.23 143.18 244.23C149.82 244.23 154.82 249.57 154.82 260.24ZM137.95 260.24C137.95 267.15 140.19 270.28 143.17 270.28C146.15 270.28 148.4 267.15 148.4 260.24C148.4 253.33 146.16 250.16 143.17 250.16C140.18 250.16 137.95 253.3 137.95 260.24Z" fill="white"/>
<path d="M158.33 268.04V266.32H165.74C168.2 266.32 170.38 266.13 171.62 265.61V267.33C170.49 267.83 168.24 268.04 165.68 268.04H165.37V271.25H163.29V268.04H158.33ZM159.4 261.56C159.4 259.31 161.6 258.08 164.71 258.08C167.82 258.08 170.02 259.32 170.02 261.56C170.02 263.8 167.84 265.06 164.71 265.06C161.58 265.06 159.4 263.82 159.4 261.56ZM175.66 273.96V275.72H159.99V270.29H162.07V273.96H175.67H175.66ZM161.44 261.56C161.44 262.8 162.82 263.43 164.71 263.43C166.6 263.43 167.98 262.8 167.98 261.56C167.98 260.32 166.6 259.71 164.71 259.71C162.82 259.71 161.44 260.32 161.44 261.56ZM173.13 269.28V258.03H175.21V272.07H173.13V270.96H167.7V269.28H173.13Z" fill="white"/>
</svg>
