<svg width="50" height="38" viewBox="0 0 50 38" fill="none" xmlns="http://www.w3.org/2000/svg">
<g clip-path="url(#clip0_39_41)">
<path d="M48.0902 0.606323H24.4897V17.1646H48.0902V0.606323Z" fill="white"/>
<path d="M2.85422 22.0157V26.0421C2.82188 26.7698 3.20188 27.5864 4.24486 27.5621C5.20699 27.6106 5.70018 26.8102 5.6355 26.0421V22.0157H7.99635C7.84273 25.266 9.12019 29.6966 4.24486 29.5672C-0.646629 29.7128 0.646989 25.2579 0.493371 22.0157H2.85422Z" fill="#006CB7"/>
<path d="M9.83154 22.0157H12.1924V22.8808C13.486 21.4336 15.1677 21.4821 16.5503 22.5493C17.8924 23.9157 17.0758 27.6672 17.286 29.3166H14.9252V25.5651C14.9656 24.7323 14.7149 23.754 13.6315 23.7783C11.3354 23.7621 12.4269 27.9664 12.1924 29.3166H9.83154V22.0076V22.0157Z" fill="#006CB7"/>
<path d="M4.33365 35.9948H3.44428V37.3855H2.82173V35.9948H1.96471V37.3855H1.35025V35.9948H0.477051V35.5016H4.33365V35.9948ZM0.857054 34.2242C0.857054 33.6421 1.48769 33.2701 2.40131 33.2701C3.31493 33.2701 3.94556 33.6421 3.94556 34.2242C3.94556 34.8063 3.31493 35.1782 2.40131 35.1782C1.48769 35.1782 0.857054 34.8063 0.857054 34.2242ZM1.47961 34.2242C1.47961 34.5314 1.83536 34.6931 2.39323 34.6931C2.9511 34.6931 3.30684 34.5314 3.30684 34.2242C3.30684 33.917 2.9511 33.7552 2.39323 33.7552C1.83536 33.7552 1.47961 33.925 1.47961 34.2242Z" fill="#006CB7"/>
<path d="M5.48968 35.8493C5.87777 35.8412 6.23352 35.8089 6.62161 35.7361L6.69436 36.2455C6.185 36.3506 5.72416 36.3748 5.18246 36.3748H4.8833V33.537H5.4816V35.8493H5.48968ZM6.91267 33.1974H7.47863V37.1995H6.91267V34.96H6.07181V34.4668H6.91267V33.1974ZM8.39229 37.3855H7.81012V33.1246H8.39229V37.3855Z" fill="#006CB7"/>
<path d="M12.8473 36.868H8.99072V36.3748H12.8473V36.868ZM12.4511 35.6391C11.7073 35.4936 11.1656 35.0812 10.8907 34.5395C10.6158 35.0812 10.0741 35.5017 9.33838 35.6391L9.07966 35.1217C10.0418 34.96 10.5673 34.2808 10.5673 33.6744V33.3672H11.2222V33.6744C11.2222 34.297 11.7477 34.96 12.7099 35.1217L12.4511 35.6391Z" fill="#006CB7"/>
<path d="M17.0998 36.4071V36.9003H13.2432V36.4071H14.6095V35.3884H15.224V36.4071H17.0998ZM16.1053 34.5152C16.1215 34.3212 16.1215 34.1433 16.1215 33.9735H13.6798V33.4884H16.7278V33.8603C16.7278 34.3778 16.7278 34.968 16.5338 35.9059L15.9355 35.8331C16.0083 35.5178 16.0568 35.2348 16.081 34.9841L13.6393 35.1135L13.5585 34.5961L16.1215 34.5152H16.1053Z" fill="#006CB7"/>
<path d="M20.0108 34.0544H17.5044V33.5774H18.4504V33.1246H19.0648V33.5774H20.0189V34.0544H20.0108ZM18.7576 35.8493C18.1431 35.8493 17.7146 35.5178 17.7146 35.0246C17.7146 34.5314 18.1512 34.208 18.7576 34.208C19.364 34.208 19.8006 34.5476 19.8006 35.0246C19.8006 35.5017 19.364 35.8493 18.7576 35.8493ZM18.7172 36.8276H21.0052V37.3127H18.1027V36.0757H18.7091V36.8276H18.7172ZM18.7576 35.3885C19.0244 35.3885 19.2184 35.2591 19.2184 35.0246C19.2184 34.7902 19.0244 34.6689 18.7576 34.6689C18.4908 34.6689 18.2967 34.7982 18.2967 35.0246C18.2967 35.251 18.4827 35.3885 18.7576 35.3885ZM21.4257 34.4263V34.9276H20.8597V36.3102H20.2452V33.1246H20.8597V34.4263H21.4257Z" fill="#006CB7"/>
<path d="M23.9966 35.2672V35.8655H25.1771V37.3855H24.5626V36.3425H22.1532V35.8574H23.3822V35.2591H21.7651V34.774H24.4736C24.5545 34.3859 24.5626 34.0787 24.5626 33.7957H22.2341V33.3025H25.1609V33.6421C25.1609 33.9574 25.1609 34.3131 25.08 34.774H25.6136V35.2591H23.9885L23.9966 35.2672Z" fill="#006CB7"/>
<path d="M28.775 35.6634C28.4355 35.7361 28.0797 35.7765 27.7321 35.8089V37.2561H27.1175V35.8412C26.7537 35.8574 26.406 35.8574 26.1069 35.8574L26.0342 35.3561C26.778 35.3561 27.8371 35.348 28.7345 35.2106L28.775 35.6553V35.6634ZM26.2847 34.208C26.2847 33.6744 26.7618 33.2944 27.4086 33.2944C28.0554 33.2944 28.5244 33.6663 28.5244 34.208C28.5244 34.7497 28.0554 35.1136 27.4086 35.1136C26.7618 35.1136 26.2847 34.7336 26.2847 34.208ZM26.875 34.208C26.875 34.4668 27.0932 34.6123 27.4086 34.6123C27.7239 34.6123 27.9423 34.4668 27.9423 34.208C27.9423 33.9493 27.7239 33.7876 27.4086 33.7876C27.0932 33.7876 26.875 33.9331 26.875 34.208ZM29.5916 37.3855H28.9772V33.1246H29.5916V37.3855Z" fill="#006CB7"/>
<path d="M33.9574 36.8276V37.3127H30.7961V36.0434H31.3863V35.4774C31.0144 35.4936 30.6587 35.5017 30.3352 35.5017L30.2544 35.0165C31.0306 35.0165 32.0655 35.0004 32.9629 34.8872L33.0033 35.3238C32.6718 35.3804 32.3242 35.4127 31.9846 35.4451V36.2536H31.3944V36.8357H33.9412L33.9574 36.8276ZM30.5778 34.0302C30.5778 33.5774 31.0144 33.2702 31.637 33.2702C32.2595 33.2702 32.6961 33.5774 32.6961 34.0302C32.6961 34.4829 32.2595 34.7902 31.637 34.7902C31.0144 34.7902 30.5778 34.4829 30.5778 34.0302ZM31.1518 34.0302C31.1518 34.2404 31.354 34.3455 31.637 34.3455C31.9199 34.3455 32.1221 34.2404 32.1221 34.0302C32.1221 33.82 31.9199 33.7068 31.637 33.7068C31.354 33.7068 31.1518 33.82 31.1518 34.0302ZM33.254 35.5987V33.1246H33.8684V36.3506H33.254V36.011H32.4535V35.5906H33.254V35.5987Z" fill="#006CB7"/>
<path d="M36.2295 36.1566C36.5772 36.1324 36.9248 36.1081 37.2563 36.0677L37.3048 36.5124C36.375 36.6822 35.3886 36.6903 34.6367 36.6903L34.564 36.1971C34.8793 36.1971 35.2431 36.1971 35.6231 36.189V35.8252C35.1623 35.7362 34.8712 35.4532 34.8712 35.049C34.8712 34.572 35.3078 34.2486 35.9303 34.2486C36.5529 34.2486 36.9814 34.572 36.9814 35.049C36.9814 35.4452 36.6823 35.7362 36.2295 35.8252V36.1647V36.1566ZM37.1997 34.0788H34.6367V33.6018H35.615V33.1409H36.2295V33.6018H37.1997V34.0788ZM35.9223 35.3886C36.2052 35.3886 36.3993 35.2673 36.3993 35.049C36.3993 34.8307 36.2133 34.7094 35.9223 34.7094C35.6312 34.7094 35.4452 34.8307 35.4452 35.049C35.4452 35.2673 35.6393 35.3886 35.9223 35.3886ZM38.0891 37.3937H37.4746V33.1328H38.0891V37.3937Z" fill="#006CB7"/>
<path d="M0.412109 17.6578H48.5589V0.10498H0.412109V17.6578ZM48.0819 17.1646H24.4815V0.606253H48.0819V17.1646Z" fill="#006CB7"/>
<path d="M18.1429 12.0873H6.75098V12.5642H18.1429V12.0873Z" fill="white"/>
<path d="M18.7658 12.9038H6.10449V13.3808H18.7658V12.9038Z" fill="white"/>
<path d="M19.3882 13.7123H5.51416V14.1893H19.3882V13.7123Z" fill="white"/>
<path d="M18.1429 6.0719H6.75098V6.54893H18.1429V6.0719Z" fill="white"/>
<path d="M9.05541 5.7648L12.4431 4.74606L15.7661 5.7648H17.1567L12.4431 4.30139L7.67285 5.7648H9.05541Z" fill="white"/>
<path d="M12.4429 3.4928L6.75098 5.24727V5.76471L12.4429 4.02641L18.1429 5.76471V5.24727L12.4429 3.4928Z" fill="white"/>
<path d="M7.42188 11.4728C7.42188 11.4728 7.42188 11.8285 7.82613 11.8285C8.23036 11.8285 8.20611 11.4728 8.20611 11.4728V6.83997H7.90699V11.4889C7.90699 11.4889 7.90698 11.5698 7.80188 11.5698C7.69677 11.5698 7.72103 11.4646 7.72103 11.4646V6.83997H7.42188V11.4728Z" fill="white"/>
<path d="M9.29785 11.8285H9.53232V8.82893L9.83147 11.8285H10.0821V6.83997H9.83147V9.508L9.53232 6.83997H9.29785V11.8285Z" fill="white"/>
<path d="M11.1978 11.8285H11.9578V11.5698H11.5292V9.31404H11.8526V9.03907H11.5292V7.0906H11.8526V6.83997H11.1978V11.8285Z" fill="white"/>
<path d="M15.5878 8.31949V7.1957C15.5878 7.1957 15.5716 6.83997 15.1916 6.83997C14.8116 6.83997 14.8116 7.1957 14.8116 7.1957V11.4728C14.8116 11.4728 14.7954 11.8285 15.1916 11.8285C15.5878 11.8285 15.5878 11.4728 15.5878 11.4728V10.2196H15.2886V11.4728C15.2886 11.4728 15.2886 11.5698 15.1916 11.5698C15.1027 11.5698 15.0865 11.4728 15.0865 11.4728V7.1957C15.0865 7.1957 15.0865 7.0906 15.1916 7.0906C15.2886 7.0906 15.2886 7.1957 15.2886 7.1957V8.31949H15.5878Z" fill="white"/>
<path d="M17.205 11.4728C17.205 11.4728 17.2212 11.5698 17.0999 11.5698C16.9786 11.5698 16.9786 11.4728 16.9786 11.4728V7.1957C16.9786 7.1957 16.9786 7.0906 17.0837 7.0906C17.205 7.0906 17.205 7.1957 17.205 7.1957V11.4728ZM17.488 7.1957C17.488 7.1957 17.5122 6.83997 17.0918 6.83997C16.6714 6.83997 16.6714 7.1957 16.6714 7.1957V11.4728C16.6714 11.4728 16.6714 11.8285 17.0676 11.8285C17.488 11.8285 17.488 11.4728 17.488 11.4728V7.1957Z" fill="white"/>
<path d="M13.4052 11.4729C13.4052 11.4729 13.4052 11.5699 13.3244 11.5618C13.2435 11.5618 13.2435 11.4729 13.2435 11.4729V10.2197H12.9363V11.4729C12.9363 11.4729 12.9201 11.8286 13.3163 11.8286C13.7125 11.8286 13.7125 11.4729 13.7125 11.4729V10.3895C13.7125 9.80734 13.2435 8.68351 13.2435 8.31968V7.19584C13.2435 7.19584 13.2274 7.09074 13.3163 7.09074C13.4052 7.09074 13.3972 7.19584 13.3972 7.19584V8.31968H13.7044V7.19584C13.7044 7.19584 13.7125 6.82394 13.3244 6.84011C12.9282 6.85628 12.9282 7.19584 12.9282 7.19584V8.14989C12.9282 8.77244 13.3972 9.83159 13.3972 10.3167V11.4648L13.4052 11.4729Z" fill="white"/>
<path d="M38.4689 5.58693C36.6659 4.38225 34.2242 4.86735 33.0114 6.67841C32.4051 7.58395 32.6557 8.80477 33.5531 9.40307C34.4587 10.0095 35.6795 9.75881 36.2778 8.86137C36.8842 7.95587 38.1051 7.71331 39.0025 8.31967C39.908 8.92605 40.1506 10.1469 39.5442 11.0443C40.7489 9.24137 40.2638 6.7997 38.4527 5.58693" fill="#EF0035"/>
<path d="M39.0106 8.31144C38.1051 7.70506 36.8842 7.9557 36.2859 8.85314C35.6795 9.75868 34.4587 10.0012 33.5613 9.39485C32.6557 8.78846 32.4132 7.56761 33.0195 6.67017C31.8149 8.47314 32.3 10.9148 34.111 12.1276C35.9221 13.3404 38.3557 12.8472 39.5685 11.0361C40.1668 10.1306 39.9242 8.90974 39.0268 8.31144" fill="#003667"/>
<path d="M30.2841 2.50281L28.1045 5.77223L28.6494 6.13551L30.829 2.86608L30.2841 2.50281Z" fill="#140700"/>
<path d="M31.1034 3.03882L28.9238 6.30825L29.4687 6.67151L31.6483 3.40208L31.1034 3.03882Z" fill="#140700"/>
<path d="M31.9247 3.58594L29.7451 6.85536L30.29 7.21863L32.4696 3.9492L31.9247 3.58594Z" fill="#140700"/>
<path d="M41.461 3.04114L40.916 3.4044L43.0957 6.67383L43.6405 6.31057L41.461 3.04114Z" fill="#140700"/>
<path d="M30.2852 10.4979L29.7402 10.8612L31.9199 14.1306L32.4648 13.7674L30.2852 10.4979Z" fill="#140700"/>
<path d="M28.6504 11.5844L28.1055 11.9476L30.2851 15.2171L30.83 14.8538L28.6504 11.5844Z" fill="#140700"/>
<path d="M42.2888 10.4966L41.2881 11.9964L41.8329 12.3599L42.8336 10.86L42.2888 10.4966Z" fill="#140700"/>
<path d="M41.1018 12.259L40.1011 13.7589L40.6458 14.1223L41.6465 12.6225L41.1018 12.259Z" fill="#140700"/>
<path d="M41.9166 12.8021L40.916 14.3019L41.4608 14.6653L42.4614 13.1656L41.9166 12.8021Z" fill="#140700"/>
<path d="M43.1002 11.0328L42.0996 12.5327L42.6444 12.8961L43.645 11.3963L43.1002 11.0328Z" fill="#140700"/>
<path d="M42.7428 13.3429L41.7422 14.8428L42.287 15.2062L43.2876 13.7064L42.7428 13.3429Z" fill="#140700"/>
<path d="M43.922 11.5804L42.9214 13.0802L43.4662 13.4437L44.4668 11.9439L43.922 11.5804Z" fill="#140700"/>
<path d="M42.2772 2.50024L41.7324 2.8637L42.733 4.36353L43.2778 4.00007L42.2772 2.50024Z" fill="#140700"/>
<path d="M43.4686 4.27441L42.9238 4.63787L43.9245 6.13769L44.4693 5.77423L43.4686 4.27441Z" fill="#140700"/>
<path d="M40.6434 3.58691L40.0986 3.95038L41.0992 5.45019L41.644 5.08673L40.6434 3.58691Z" fill="#140700"/>
<path d="M41.8236 5.36682L41.2788 5.73028L42.2794 7.2301L42.8242 6.86664L41.8236 5.36682Z" fill="#140700"/>
<path d="M29.4632 11.0457L28.9185 11.4091L29.9191 12.9089L30.4638 12.5454L29.4632 11.0457Z" fill="#140700"/>
<path d="M30.6388 12.8242L30.0938 13.1872L31.0933 14.6878L31.6383 14.3247L30.6388 12.8242Z" fill="#140700"/>
<path d="M39.9488 27.0526C38.8088 28.2573 36.6177 27.3598 36.6662 25.6943C36.6177 23.9964 38.8654 23.1151 39.9892 24.3764L40.8624 22.5169C38.4045 20.6411 34.5884 22.5734 34.6773 25.6781C34.5884 28.7828 38.4045 30.7232 40.8624 28.8475L39.9973 27.0122L39.9488 27.0607V27.0526Z" fill="#006CB7"/>
<path d="M45.4785 21.7812C40.3607 21.8702 40.3607 29.4864 45.4785 29.5753C50.5964 29.4864 50.5964 21.8702 45.4785 21.7812ZM45.4866 27.6187C42.9802 27.6025 42.9802 23.7944 45.4866 23.7783C47.993 23.7944 47.993 27.6025 45.4866 27.6187Z" fill="#006CB7"/>
<path d="M26.6002 26.0744H21.1428C21.0215 27.7319 23.4632 28.5404 24.2555 26.9638L26.487 27.1902C25.0641 31.1761 18.5636 29.9795 18.7577 25.7025C18.7738 20.1561 27.15 20.6412 26.6002 26.0825M24.4253 24.6757C24.1989 23.0829 21.5066 22.9697 21.2317 24.6757H24.4253Z" fill="#006CB7"/>
<path d="M32.5426 23.8835C32.0252 23.5762 31.1116 23.2447 30.578 23.6894C30.3677 23.8835 30.392 24.2392 30.6588 24.3443C31.4431 24.7001 32.4941 24.7728 33.1975 25.4277C34.2163 26.2039 33.6746 28.2413 33.0197 28.7345C31.3541 30.0767 29.3329 29.8018 27.6431 28.5243L28.6456 26.9396C29.349 27.5379 30.2788 27.9826 31.1682 27.546C31.4512 27.3035 31.5482 26.8992 31.152 26.6486C30.4405 26.3009 29.252 26.1877 28.6618 25.5328C26.5031 22.2341 31.3218 20.8839 33.4805 22.4039L32.5507 23.8915L32.5426 23.8835Z" fill="#006CB7"/>
</g>
<defs>
<clipPath id="clip0_39_41">
<rect width="49.3191" height="38" fill="white"/>
</clipPath>
</defs>
</svg>
