<svg width="287" height="40" viewBox="0 0 287 40" fill="none" xmlns="http://www.w3.org/2000/svg">
<g clip-path="url(#clip0_31_536)">
<path fill-rule="evenodd" clip-rule="evenodd" d="M48.0402 2.93058H41.0067V7.37371H61.2914V2.93058H54.258V0H48.0402V2.93058ZM41.2195 15.7873C41.2195 19.935 44.4585 22.8656 49.8133 22.8656H52.4849C57.8397 22.8656 61.0787 19.935 61.0787 15.7873C61.0787 11.6396 57.8397 8.70901 52.4849 8.70901H49.8133C44.4585 8.70901 41.2195 11.6396 41.2195 15.7873ZM50.7235 26.836C50.7235 30.582 48.4303 34.2925 44.2457 35.0724V39.9882C48.0875 39.5982 51.7638 37.3176 53.5724 34.3397C55.2155 36.9631 58.1471 39.2083 61.516 39.9882C64.8022 39.2201 67.8166 36.9749 69.4597 34.3397C71.2801 37.3176 74.9446 39.5982 78.7864 39.9882V35.0724C74.6018 34.3043 72.3085 30.5938 72.3085 26.836V25.1108H66.268V26.836C66.268 30.582 64.3176 34.127 61.516 35.0724C58.6672 34.127 56.764 30.5938 56.764 26.836V25.1108H50.7235V26.836ZM55.5465 15.7873C55.5465 17.1581 54.1752 18.1979 52.012 18.1979H50.2862C48.1348 18.1979 46.7517 17.1581 46.7517 15.7873C46.7517 14.4165 48.1229 13.3767 50.2862 13.3767H52.012C54.1634 13.3767 55.5465 14.4165 55.5465 15.7873ZM68.2894 1.41802H62.7691V23.8109H68.2894V15.2201H71.9539V23.8109H77.4743V1.20532H71.9539V9.9616H68.2894V1.41802ZM9.2794 6.3102C9.14937 10.6588 5.35486 14.4638 -1.99042e-05 15.2792H-0.0118408V19.9823C5.213 19.0724 9.44489 16.9572 12.2937 13.5067C15.0598 16.5199 19.3745 18.7651 24.1619 19.6278V14.9247C18.8071 13.8493 15.4381 10.5643 15.3553 6.29838H23.9492V1.64255H0.212757V6.3102H9.2794ZM28.3584 28.2659H2.37598V39.5628H35.179V35.1196H8.33373V32.5318H34.3161V21.4476H2.37598V25.8907H28.3584V28.2659ZM34.3161 1.20532H28.4411V19.9232H34.3161V13.1049H39.4937V7.84639H34.3161V1.20532ZM82.0253 17.5126H111.767V6.21566H84.4014V1.38257H117.642V17.5244H120.443V22.1448H105.159V30.7356H99.0238V22.1448H82.0135V17.5244L82.0253 17.5126ZM84.8269 26.1861H90.7019V34.7297H118.067V39.5628H84.8269V26.1861ZM134.699 34.7414C134.699 32.4962 133.056 30.8537 130.81 30.8537C128.564 30.8537 126.921 32.4962 126.921 34.7414C126.921 36.9866 128.564 38.6291 130.81 38.6291C133.056 38.6291 134.699 36.9866 134.699 34.7414ZM134.132 2.89502H127.489L128.091 26.8832H133.529L134.132 2.89502ZM152.312 15.2792C157.667 14.4638 161.462 10.6588 161.592 6.3102H152.525V1.64255H176.262V6.29838H167.668C167.751 10.5643 171.12 13.8493 176.474 14.9247V19.6278C171.687 18.7651 167.372 16.5199 164.606 13.5067C161.757 16.9572 157.525 19.0724 152.301 19.9823V15.2792H152.312ZM154.688 28.2659H180.671V25.8907H154.688V21.4476H186.629V32.5318H160.646V35.1196H187.492V39.5628H154.688V28.2659ZM180.754 1.20532H186.629V7.84639H191.806V13.1049H186.629V19.9232H180.754V1.20532ZM200.353 2.93058H193.319V7.37371H213.604V2.93058H206.57V0H200.353V2.93058ZM193.532 15.7873C193.532 19.935 196.771 22.8656 202.126 22.8656H204.797C210.152 22.8656 213.391 19.935 213.391 15.7873C213.391 11.6396 210.152 8.70901 204.797 8.70901H202.126C196.771 8.70901 193.532 11.6396 193.532 15.7873ZM203.036 26.836C203.036 30.582 200.743 34.2925 196.558 35.0724V39.9882C200.4 39.5982 204.076 37.3176 205.885 34.3397C207.528 36.9631 210.46 39.2083 213.829 39.9882C217.115 39.2201 220.129 36.9749 221.772 34.3397C223.593 37.3176 227.257 39.5982 231.099 39.9882V35.0724C226.914 34.3043 224.621 30.5938 224.621 26.836V25.1108H218.581V26.836C218.581 30.582 216.63 34.127 213.829 35.0724C210.98 34.127 209.077 30.5938 209.077 26.836V25.1108H203.036V26.836ZM207.859 15.7873C207.859 17.1581 206.488 18.1979 204.325 18.1979H202.599C200.447 18.1979 199.064 17.1581 199.064 15.7873C199.064 14.4165 200.435 13.3767 202.599 13.3767H204.325C206.476 13.3767 207.859 14.4165 207.859 15.7873ZM220.59 1.41802H215.07V23.8109H220.59V15.2201H224.255V23.8109H229.775V1.20532H224.255V9.9616H220.59V1.41802ZM235.839 12.2541C235.839 5.35303 240.414 1.41803 247.282 1.41803C254.15 1.41803 258.724 5.34122 258.724 12.2541V16.4845H264.079V1.20532H269.954V39.74H264.079V21.743H258.724V26.836C258.724 33.7371 254.15 37.6721 247.282 37.6721C240.414 37.6721 235.839 33.7489 235.839 26.836V12.2541ZM252.849 12.1241C252.849 8.59085 250.733 6.34565 247.282 6.34565C243.83 6.34565 241.714 8.59085 241.714 12.1241V26.966C241.714 30.4993 243.83 32.7445 247.282 32.7445C250.733 32.7445 252.849 30.4993 252.849 26.966V12.1241ZM287 34.7414C287 32.4962 285.357 30.8537 283.111 30.8537C280.865 30.8537 279.222 32.4962 279.222 34.7414C279.222 36.9866 280.865 38.6291 283.111 38.6291C285.357 38.6291 287 36.9866 287 34.7414ZM286.433 2.89502H279.789L280.392 26.8832H285.83L286.433 2.89502Z" fill="#F06673"/>
</g>
<defs>
<clipPath id="clip0_31_536">
<rect width="287" height="40" fill="white"/>
</clipPath>
</defs>
</svg>
