<svg width="348" height="38" viewBox="0 0 348 38" fill="none" xmlns="http://www.w3.org/2000/svg">
<path d="M18.378 36.788V0.332H23.754V13.94H28.374V0.121997H33.75V37.628H28.374V19.064H23.754V36.788H18.378ZM0.15 34.772V1.172H5.694V29.984H16.278V34.772H0.15ZM50.3384 25.574V10.37C50.3384 3.986 53.8244 0.332 58.9484 0.332C64.0724 0.332 67.5584 3.986 67.5584 10.37V25.574C67.5584 31.958 64.0724 35.612 58.9484 35.612C53.8244 35.612 50.3384 31.958 50.3384 25.574ZM70.1204 36.788V0.332H75.4964V7.304H79.1924V0.121997H84.5684V37.628H79.1924V25.7H75.4964V36.788H70.1204ZM62.1824 25.658V10.286C62.1824 7.094 60.9644 5.12 58.9484 5.12C56.9324 5.12 55.7144 7.094 55.7144 10.286V25.658C55.7144 28.85 56.9324 30.824 58.9484 30.824C60.9644 30.824 62.1824 28.85 62.1824 25.658ZM75.4964 20.744H79.1924V12.26H75.4964V20.744ZM117.925 37.628V0.121997H123.637V37.628H117.925ZM89.8266 34.772V29.606C98.9826 27.59 105.829 17.93 105.829 6.044H90.0366V1.172H111.625V5.036C111.625 20.282 102.469 32.672 89.8266 34.772ZM142.535 37.46V24.02H174.455V37.46H142.535ZM141.905 14.99V10.748C148.625 10.286 154.127 7.85 155.177 4.742H142.535V0.289998H174.455V4.742H161.813C162.821 7.85 168.365 10.286 175.085 10.748V14.99C168.197 14.528 162.107 12.638 158.495 9.362C154.883 12.638 148.793 14.528 141.905 14.99ZM139.805 21.584V17.09H155.513V13.142H161.477V17.09H177.185V21.584H139.805ZM148.247 32.924H168.743V28.556H148.247V32.924ZM190.623 19.316V14.822H228.003V19.316H190.623ZM193.353 37.46V27.338H219.477V25.742H193.353V21.5H225.273V31.412H199.149V33.218H226.113V37.46H193.353ZM193.353 12.722V0.289998H225.483V4.826H199.065V8.186H226.113V12.722H193.353ZM232.001 25.07V10.874C232.001 4.154 236.453 0.332 243.131 0.332C249.809 0.332 254.261 4.154 254.261 10.874V14.99H259.469V0.121997H265.181V37.628H259.469V20.114H254.261V25.07C254.261 31.79 249.809 35.612 243.131 35.612C236.453 35.612 232.001 31.79 232.001 25.07ZM248.549 25.196V10.748C248.549 7.304 246.491 5.12 243.131 5.12C239.771 5.12 237.713 7.304 237.713 10.748V25.196C237.713 28.64 239.771 30.824 243.131 30.824C246.491 30.824 248.549 28.64 248.549 25.196ZM269.6 35.36V30.53H279.428V24.482H271.07V1.004H276.782V7.892H288.038V1.004H293.75V24.482H285.392V30.53H296.438V35.36H269.6ZM298.118 37.628V0.121997H303.83V13.688H308.87V18.812H303.83V37.628H298.118ZM276.782 19.694H288.038V12.68H276.782V19.694ZM334.372 19.4H323.662C316.774 19.4 312.658 15.746 312.658 10.076C312.658 4.406 316.774 0.751999 323.662 0.751999H334.372C341.26 0.751999 345.418 4.406 345.418 10.076C345.418 15.746 341.26 19.4 334.372 19.4ZM318.076 37.628V27.506H310.348V22.676H347.728V27.506H340V37.628H334.036V27.506H324.04V37.628H318.076ZM323.452 14.612H334.624C337.69 14.612 339.706 12.722 339.706 10.076C339.706 7.43 337.69 5.54 334.624 5.54H323.452C320.386 5.54 318.37 7.43 318.37 10.076C318.37 12.722 320.386 14.612 323.452 14.612Z" fill="#00CEA6"/>
</svg>
