<svg width="118" height="34" viewBox="0 0 118 34" fill="none" xmlns="http://www.w3.org/2000/svg">
<path d="M16.2299 0.870117C14.5499 0.870117 13.1899 2.24014 13.1899 3.92014C13.1899 5.60014 14.5499 6.96011 16.2299 6.96011C17.9099 6.96011 19.2699 5.59013 19.2699 3.91013C19.2699 2.23013 17.9099 0.880127 16.2299 0.880127" fill="#DC031B"/>
<path d="M31.68 7.70008C31.46 7.37008 31.02 7.37006 30.2 7.52006C29 7.74006 25.42 8.47008 19.75 8.66008C17.14 8.75008 14.29 8.76007 11.41 8.50007C9.05997 8.29007 4.60997 7.57008 3.61997 7.48008C3.08997 7.42008 1.86997 7.34006 1.24997 7.86006C0.429966 8.55006 0.659968 9.56007 1.14997 10.3701C1.14997 10.3701 2.22997 12.1001 4.71997 12.6101C8.33997 13.2101 13.94 13.0501 15.79 12.8501C19.9 12.4701 23.06 11.8801 25.57 11.1901C25.57 11.1901 28.92 10.2301 30.55 9.31007C31.17 8.97007 32.05 8.30008 31.68 7.70008Z" fill="#007E5A"/>
<path d="M19.42 15.11C17.38 14 14.95 14 12.93 15.15C9.68999 17 8.55999 21.09 10.49 24.43C12.07 26.9 14.18 26.31 14.78 25.68C15.53 24.84 15.25 23.9901 14.85 23.4501C14.03 22.4401 13.95 21.7501 13.95 21.3201C13.95 20.0101 15.01 18.9401 16.33 18.9401C17.02 18.9401 17.69 19.25 18.14 19.77C18.77 20.51 18.84 21.5701 18.8 22.4101C18.53 27.4901 16.45 31.8701 16.35 32.1901C16.26 32.42 16.1 33 16.54 33.24C16.87 33.41 17.27 33.2501 17.65 32.9101C18.61 32.1001 20.45 29.79 21.43 27.52C21.96 26.3 23.27 23.07 22.84 19.84C22.4 17.35 20.81 15.8501 19.43 15.1001" fill="#007E5A"/>
<path d="M53.52 14.9V27.75H50.31V6.21997H53.52V12.76H56.61V14.9H53.52ZM42.05 10.66C40.74 10.66 39.69 12.66 39.72 15.73C39.69 18.66 40.72 20.61 42.03 20.61C43.34 20.61 44.36 18.71 44.36 15.73C44.36 12.52 43.41 10.66 42.05 10.66ZM40.38 8.46997V6.20996H43.71V8.46997H48.16V10.61H45.83C46.88 11.87 47.54 13.66 47.57 15.72C47.54 19.74 45.29 22.74 42.05 22.74C38.72 22.76 36.51 19.74 36.51 15.72C36.51 13.65 37.17 11.87 38.22 10.61H36.03V8.46997H40.38Z" fill="#007E5A"/>
<path d="M62.6 19.42H68C69.45 19.42 70.55 19.49 71.9 18.78V6.21997H75.11V12.76H78.2V14.9H75.11V27.75H71.9V20.92C70.78 21.42 69.28 21.56 67.93 21.56H60.82C59.42 21.56 58.35 20.2 58.35 18.61V7.16998H61.56V18.54C61.56 19.09 61.92 19.42 62.61 19.42" fill="#007E5A"/>
<path d="M88.26 7.99988C86.71 7.99988 85.5 9.89988 85.5 12.2799C85.5 14.7999 86.74 16.5599 88.24 16.5599C89.74 16.5599 90.98 14.7499 90.98 12.2799C90.98 9.80988 89.81 7.99988 88.27 7.99988M88.27 5.85986C91.82 5.85986 94.19 8.75988 94.19 12.2799C94.19 14.3499 93.33 16.2299 91.91 17.4199H97.88V19.5599H84.2V24.6499C84.2 25.2199 84.58 25.5999 85.15 25.5999H95.5V27.7399H83.27C81.96 27.7399 80.99 26.4099 80.99 24.9099V19.5599H78.61V17.4199H84.61C83.16 16.2299 82.3 14.3299 82.3 12.2799C82.3 8.84988 84.7 5.85986 88.27 5.85986Z" fill="#007E5A"/>
<path d="M112.75 12.88V17.66C113.3 17.78 113.82 17.97 114.3 18.21V12.88H112.75ZM111.4 19.66C110.09 19.66 108.59 20.85 108.59 23.01C108.59 25.17 109.99 26.32 111.37 26.32C112.75 26.32 114.15 25.13 114.18 23.01C114.15 20.8 112.75 19.66 111.4 19.66ZM109.66 17.76V6.22H112.75V10.74H114.3V6.22H117.39V23.02C117.39 26.23 114.39 28.47 111.39 28.47C108.13 28.47 105.35 26.28 105.37 23.02C105.35 20.52 107.23 18.45 109.65 17.76M103.42 10.05C102.44 10.05 101.68 11.36 101.68 13.1C101.68 14.65 102.39 15.96 103.39 15.96C104.39 15.96 105.13 14.63 105.13 13.1C105.13 11.36 104.49 10.05 103.42 10.05ZM101.75 7.76999V5.75H105.08V7.76999H108.58V9.91H107.06C107.8 10.79 108.23 11.91 108.23 13.1C108.23 15.86 106.09 18.12 103.42 18.1C100.61 18.12 98.59 15.84 98.59 13.1C98.59 11.91 99.02 10.79 99.73 9.91H98.35V7.76999H101.75Z" fill="#007E5A"/>
</svg>
