<svg width="180" height="91" viewBox="0 0 180 91" fill="none" xmlns="http://www.w3.org/2000/svg">
<path d="M11.7 0V0.17C5.17 0.63 0 6.07 0 12.73V77.53C0 84.49 5.64 90.13 12.6 90.13H167.4C174.36 90.13 180 84.49 180 77.53V12.73C180 6.08 174.83 0.64 168.3 0.18V0.01H11.7V0Z" fill="black"/>
<path d="M135.401 16.1453L130.686 26.8983L125.351 16.1453H121.245L128.809 31.059L125.684 38.0212H129.669L139.386 16.136H135.401V16.1453ZM118.962 32.7603H115.06V31.207C113.655 32.4182 111.972 33.1024 109.928 33.1024C105.259 33.1024 101.607 29.3023 101.607 24.4482C101.607 19.594 105.259 15.7939 109.928 15.7939C111.963 15.7939 113.655 16.4689 115.06 17.6894V16.136H118.962V32.7603ZM115.513 24.4482C115.513 21.3138 113.331 18.9283 110.418 18.9283C107.506 18.9283 105.324 21.3045 105.324 24.4482C105.324 27.5918 107.506 29.968 110.418 29.968C113.331 29.968 115.513 27.5918 115.513 24.4482ZM82.2183 38.0212H86.2865V31.3549C87.6641 32.4829 89.2914 33.1024 91.2516 33.1024C95.9208 33.1024 99.5729 29.3023 99.5729 24.4482C99.5729 19.594 95.9208 15.7939 91.2516 15.7939C89.2175 15.7939 87.5254 16.4689 86.1201 17.6894V16.136H82.2183V38.0212ZM90.7523 18.9468C93.6463 18.9468 95.8468 21.323 95.8468 24.4667C95.8468 27.6103 93.6648 29.9865 90.7523 29.9865C87.8398 29.9865 85.6578 27.6103 85.6578 24.4667C85.6578 21.323 87.8398 18.9468 90.7523 18.9468Z" fill="#00DE5A"/>
<path d="M74.9327 24.9663C74.9327 34.3325 67.3417 41.9327 57.9663 41.9327C48.5909 41.9327 41 34.3417 41 24.9663C41 15.5909 48.5909 8 57.9663 8C67.3417 8 74.9327 15.5909 74.9327 24.9663ZM60.8048 16.9963V25.5211L54.8782 16.9963H49.9871V32.9364H55.1186V24.4116L61.0452 32.9364H65.9364V16.9963H60.8048Z" fill="#00DE5A"/>
<path d="M41.7011 76.984H36.2947V57.3739H32V52.6553H41.7011V76.984Z" fill="white"/>
<path d="M64.3587 64.8042C64.3587 73.3136 60.3598 77.5763 55.0494 77.5763C49.739 77.5763 45.7402 73.3056 45.7402 64.8042C45.7402 56.3027 49.739 52 55.0494 52C60.3598 52 64.3587 56.2707 64.3587 64.8042ZM50.8667 64.8042C50.8667 70.3305 52.6582 72.8338 55.0494 72.8338C57.4407 72.8338 59.2322 70.3305 59.2322 64.8042C59.2322 59.2778 57.4407 56.7426 55.0494 56.7426C52.6582 56.7426 50.8667 59.2538 50.8667 64.8042Z" fill="white"/>
<path d="M68.4771 79.3675H64.5103L65.5819 71.6338H70.3245L68.4771 79.3675Z" fill="white"/>
<path d="M89.9426 64.8042C89.9426 73.3136 85.9438 77.5763 80.6334 77.5763C75.323 77.5763 71.3242 73.3056 71.3242 64.8042C71.3242 56.3027 75.323 52 80.6334 52C85.9438 52 89.9426 56.2707 89.9426 64.8042ZM76.4507 64.8042C76.4507 70.3305 78.2421 72.8338 80.6334 72.8338C83.0247 72.8338 84.8162 70.3305 84.8162 64.8042C84.8162 59.2778 83.0247 56.7426 80.6334 56.7426C78.2421 56.7426 76.4507 59.2538 76.4507 64.8042Z" fill="white"/>
<path d="M110.209 64.8042C110.209 73.3136 106.21 77.5763 100.9 77.5763C95.5891 77.5763 91.5903 73.3056 91.5903 64.8042C91.5903 56.3027 95.5891 52 100.9 52C106.21 52 110.209 56.2707 110.209 64.8042ZM96.7168 64.8042C96.7168 70.3305 98.5083 72.8338 100.9 72.8338C103.291 72.8338 105.082 70.3305 105.082 64.8042C105.082 59.2778 103.291 56.7426 100.9 56.7426C98.5083 56.7426 96.7168 59.2538 96.7168 64.8042Z" fill="white"/>
<path d="M130.483 64.8042C130.483 73.3136 126.484 77.5763 121.173 77.5763C115.863 77.5763 111.864 73.3056 111.864 64.8042C111.864 56.3027 115.863 52 121.173 52C126.484 52 130.483 56.2707 130.483 64.8042ZM116.991 64.8042C116.991 70.3305 118.782 72.8338 121.173 72.8338C123.565 72.8338 125.356 70.3305 125.356 64.8042C125.356 59.2778 123.565 56.7426 121.173 56.7426C118.782 56.7426 116.991 59.2538 116.991 64.8042Z" fill="white"/>
<path d="M138.553 71.0427H134.594V69.6671H140.52C142.487 69.6671 144.231 69.5152 145.223 69.0993V70.4749C144.319 70.8747 142.519 71.0427 140.472 71.0427H140.224V73.6099H138.561V71.0427H138.553ZM135.449 65.8603C135.449 64.0608 137.209 63.0771 139.696 63.0771C142.183 63.0771 143.943 64.0688 143.943 65.8603C143.943 67.6517 142.199 68.6594 139.696 68.6594C137.193 68.6594 135.449 67.6677 135.449 65.8603ZM148.454 75.7773V77.1849H135.921V72.8422H137.585V75.7773H148.462H148.454ZM137.081 65.8603C137.081 66.852 138.185 67.3558 139.696 67.3558C141.208 67.3558 142.311 66.852 142.311 65.8603C142.311 64.8686 141.208 64.3807 139.696 64.3807C138.185 64.3807 137.081 64.8686 137.081 65.8603ZM146.43 72.0344V63.0371H148.094V74.2657H146.43V73.378H142.087V72.0344H146.43Z" fill="white"/>
</svg>
