<svg width="512" height="512" viewBox="0 0 512 512" fill="none" xmlns="http://www.w3.org/2000/svg">
<path d="M255.02 241.045V243.245L194.319 278.284L110.859 230.105V227.905L171.559 195.465L255.02 241.045Z" fill="#322C8D"/>
<path d="M255.02 241.045L194.319 276.084L110.859 227.905L171.559 192.845L255.02 241.045Z" fill="white"/>
<path d="M194.319 276.484L194.159 276.384L110.199 227.905L110.719 227.605L171.579 192.466L171.739 192.566L255.699 241.045L255.199 241.345L194.319 276.484ZM111.539 227.905L194.319 275.704L254.339 241.045L171.559 193.246L111.539 227.905Z" fill="#131A2D"/>
<path d="M249.62 240.785L192.84 273.564V264.164L249.62 231.385V240.785Z" fill="#131A2D"/>
<path d="M255.08 227.265V229.465L194.38 264.504L110.92 216.325V214.125L171.62 181.685L255.08 227.265Z" fill="#131A2D"/>
<path d="M255.08 227.265L194.38 262.304L110.92 214.125L171.62 179.085L255.08 227.265Z" fill="white"/>
<path d="M194.38 262.704L194.22 262.604L110.26 214.125L110.76 213.825L171.62 178.686L171.78 178.786L255.74 227.265L255.22 227.565L194.36 262.704H194.38ZM111.6 214.125L194.38 261.924L254.4 227.265L171.62 179.466L111.6 214.125Z" fill="#131A2D"/>
<path d="M198.701 204.225L159.701 226.724L154.141 223.525L193.141 201.005L198.701 204.225Z" fill="white"/>
<path d="M159.701 227.125L153.461 223.525L193.141 200.625L199.381 204.225L159.701 227.125ZM154.801 223.525L159.701 226.345L198.021 204.225L193.121 201.405L154.801 223.525Z" fill="#131A2D"/>
<path d="M199.581 213.365L175.56 227.224L169.98 224.025L194.001 210.145L199.581 213.365Z" fill="white"/>
<path d="M175.56 227.625L169.32 224.005L194.02 209.745L200.26 213.345L175.56 227.605V227.625ZM170.66 224.005L175.56 226.825L198.9 213.345L194 210.525L170.66 224.005Z" fill="#131A2D"/>
<path d="M217.26 235.804L209.18 240.484L206.9 239.164L214.98 234.484L217.26 235.804Z" fill="white"/>
<path d="M209.181 240.864L206.221 239.164L215.001 234.104L217.961 235.804L209.201 240.864H209.181ZM207.581 239.164L209.181 240.084L216.581 235.804L214.981 234.884L207.561 239.164H207.581Z" fill="#131A2D"/>
<path d="M110.421 214.405L110.921 214.125L194.321 262.324L190.801 278.824L107.721 230.804L107.081 230.444C105.521 229.205 104.801 227.925 104.801 224.485C104.801 220.345 106.561 216.665 110.401 214.445L110.421 214.405Z" fill="#131A2D"/>
<path d="M194.32 262.304V264.484C191.42 266.164 190.06 269.544 190.18 271.684C190.4 275.144 191.42 277.744 193.84 276.364L194.32 276.084V278.264L193.84 278.544C190 280.764 188.26 275.864 188.26 271.764C188.26 268.444 190.02 264.784 194.32 262.284V262.304Z" fill="#322C8D"/>
<path d="M218.281 298.763C220.161 299.843 221.681 302.483 221.661 304.643L221.621 316.503C221.621 317.583 221.241 318.323 220.641 318.683L132.761 369.402C133.381 369.042 133.741 368.302 133.741 367.222L133.781 355.362C133.781 353.203 132.281 350.563 130.401 349.483L67.0605 312.923L154.941 262.204L218.281 298.783V298.763Z" fill="#3DD3B6"/>
<path d="M132.96 369.702L132.62 369.122C133.14 368.822 133.44 368.142 133.44 367.242L133.48 355.383C133.48 353.343 132.04 350.823 130.26 349.803L66.4004 312.943L66.9004 312.643L154.94 261.824L155.101 261.924L218.441 298.484C220.401 299.624 222.001 302.384 222.001 304.663L221.961 316.523C221.961 317.683 221.541 318.563 220.801 319.003L132.92 369.722L132.96 369.702ZM67.7604 312.923L130.6 349.203C132.56 350.343 134.18 353.103 134.16 355.383L134.12 367.242C134.12 367.642 134.08 368.022 133.98 368.342L220.501 318.403C221.021 318.103 221.321 317.423 221.321 316.523L221.361 304.663C221.361 302.624 219.921 300.104 218.141 299.084L154.961 262.604L67.7604 312.943V312.923Z" fill="#131A2D"/>
<path d="M68.9195 330.263L72.5995 323.923L68.8995 315.383L67.0595 314.323V312.923L130.42 349.483C132.3 350.563 133.82 353.203 133.8 355.363L133.76 367.222C133.76 369.382 132.24 370.242 130.36 369.162L67.0195 332.603V331.403L68.9395 330.283L68.9195 330.263Z" fill="#131A2D"/>
<path d="M73.0391 324.943L68.8991 315.383L129.859 350.483C130.579 350.903 131.299 351.663 131.839 352.583C132.379 353.523 132.679 354.523 132.679 355.363L132.639 367.222C132.639 367.822 132.479 368.282 132.219 368.422C131.939 368.582 131.479 368.482 130.939 368.182L67.0391 331.383L68.8791 330.323L73.0591 324.923L73.0391 324.943Z" fill="#3DD3B6"/>
<path d="M131.88 368.842C131.56 368.842 131.18 368.722 130.76 368.482L66.3398 331.403L68.6398 330.083L72.6599 324.903L68.1998 314.583L130.04 350.182C130.82 350.622 131.58 351.442 132.14 352.422C132.7 353.402 133.04 354.482 133.02 355.382V367.242C132.98 367.982 132.76 368.522 132.38 368.742C132.24 368.822 132.08 368.862 131.88 368.862V368.842ZM67.6798 331.403L131.08 367.902C131.54 368.182 131.9 368.222 132.02 368.142C132.12 368.082 132.28 367.782 132.28 367.222L132.32 355.362C132.32 354.582 132.04 353.642 131.52 352.742C131.02 351.862 130.34 351.142 129.66 350.762L69.5998 316.183L73.3999 324.983L68.9999 330.623L67.6599 331.383L67.6798 331.403Z" fill="#131A2D"/>
<path d="M129.84 350.483C130.56 350.903 131.28 351.663 131.82 352.583C132.36 353.523 132.66 354.523 132.66 355.363L132.62 367.042L68.8398 330.323L68.8798 315.383L129.84 350.483Z" fill="white"/>
<path d="M132.98 367.642L132.48 367.342L68.5195 330.523L68.5595 314.783L69.0795 315.083L130.02 350.183C130.8 350.623 131.56 351.443 132.12 352.423C132.68 353.403 133.02 354.483 133 355.383L132.96 367.662L132.98 367.642ZM69.1995 330.143L132.3 366.482L132.34 355.383C132.34 354.603 132.06 353.663 131.54 352.763C131.04 351.883 130.36 351.163 129.68 350.783L69.2395 315.983L69.1995 330.143Z" fill="#131A2D"/>
<path d="M77.5005 315.063C77.3005 315.183 77.3005 315.363 77.5005 315.463C100.441 328.703 103.481 330.463 125.721 343.303C125.921 343.423 126.221 343.403 126.421 343.303C128.461 342.123 131.801 342.123 133.861 343.303C134.061 343.423 134.361 343.423 134.561 343.303C162.361 327.143 151.501 333.483 207.281 301.063C207.481 300.943 207.481 300.763 207.281 300.663C205.221 299.463 205.201 297.543 207.261 296.343C207.461 296.223 207.461 296.043 207.261 295.943C185.021 283.104 181.981 281.344 159.041 268.104C158.841 267.984 158.541 267.984 158.341 268.104C156.301 269.284 152.941 269.284 150.901 268.104C150.701 267.984 150.401 267.984 150.201 268.104C142.301 272.704 83.3405 306.943 77.4805 310.343C77.2805 310.463 77.3005 310.643 77.4805 310.743C79.5405 311.923 79.5405 313.863 77.4805 315.063H77.5005ZM78.5005 310.563C84.5805 307.023 142.921 273.164 150.561 268.704C152.901 269.864 156.341 269.864 158.661 268.704C163.201 271.324 199.601 292.344 206.201 296.143C204.221 297.483 204.241 299.483 206.241 300.843C198.241 305.483 142.201 338.043 134.181 342.703C131.841 341.563 128.401 341.543 126.081 342.703C119.461 338.883 83.0805 317.883 78.5405 315.243C80.5205 313.903 80.5005 311.903 78.5205 310.543L78.5005 310.563Z" fill="#131A2D"/>
<path d="M135.561 287.144L147.801 280.284C148.581 279.844 149.521 279.864 150.281 280.284L182.701 299.003C184.381 299.983 184.361 302.423 182.681 303.363L170.441 310.223C169.661 310.663 168.721 310.643 167.961 310.223L135.541 291.504C133.861 290.524 133.861 288.084 135.561 287.144Z" fill="white"/>
<path d="M169.22 310.903C168.72 310.903 168.24 310.783 167.8 310.523L135.38 291.804C134.48 291.284 133.94 290.364 133.96 289.324C133.96 288.284 134.5 287.364 135.42 286.864L147.66 280.004C148.54 279.524 149.62 279.524 150.48 280.024L182.9 298.743C183.8 299.263 184.34 300.183 184.32 301.223C184.32 302.263 183.78 303.183 182.86 303.683L170.62 310.543C170.2 310.783 169.7 310.903 169.22 310.903ZM149.04 280.304C148.68 280.304 148.3 280.404 147.98 280.584L135.74 287.444C135.04 287.824 134.64 288.524 134.62 289.324C134.6 290.124 135.02 290.824 135.7 291.224L168.12 309.943C168.78 310.323 169.6 310.323 170.26 309.943L182.5 303.083C183.18 302.703 183.6 302.003 183.62 301.203C183.62 300.403 183.22 299.703 182.54 299.303L150.12 280.584C149.78 280.384 149.4 280.304 149.04 280.304Z" fill="#131A2D"/>
<path d="M13.659 260.824L82.7991 220.905L178.719 276.284L109.579 316.203C107.539 317.383 105.879 320.263 105.879 322.623L105.919 335.563C105.919 336.723 106.339 337.563 106.999 337.943L11.079 282.563C10.419 282.184 9.99898 281.344 9.99898 280.184L9.95898 267.244C9.95898 264.884 11.599 262.004 13.659 260.824Z" fill="#3DD3B6"/>
<path d="M106.819 338.223L10.8991 282.864C10.0991 282.384 9.65914 281.444 9.65914 280.184L9.61914 267.244C9.61914 264.784 11.3391 261.764 13.4791 260.524L82.7992 220.505L82.9592 220.605L179.399 276.264L178.899 276.564L109.759 316.483C107.799 317.603 106.219 320.363 106.239 322.603L106.279 335.543C106.279 336.543 106.599 337.283 107.199 337.623L106.859 338.203L106.819 338.223ZM13.8191 261.124C11.8591 262.244 10.2791 265.004 10.2991 267.244V280.184C10.3191 281.184 10.6591 281.924 11.2391 282.264L105.759 336.823C105.639 336.443 105.579 336.023 105.579 335.543L105.539 322.603C105.539 320.143 107.259 317.123 109.399 315.883L178.039 276.244L82.7992 221.265L13.8191 261.084V261.124Z" fill="#131A2D"/>
<path d="M109.579 316.203L178.719 276.283V277.823L176.719 278.983L172.679 288.303L176.699 295.223L178.779 296.443V297.763L109.639 337.682C107.599 338.862 105.919 337.922 105.919 335.562L105.879 322.623C105.879 320.263 107.519 317.383 109.579 316.203Z" fill="#131A2D"/>
<path d="M110.199 317.263L176.739 278.964L172.219 289.403L176.779 295.283L178.779 296.443L109.019 336.603C108.439 336.943 107.919 337.043 107.619 336.863C107.339 336.703 107.159 336.203 107.159 335.543L107.119 322.603C107.119 321.683 107.459 320.583 108.039 319.563C108.619 318.563 109.399 317.723 110.199 317.263Z" fill="white"/>
<path d="M107.979 337.622C107.719 337.622 107.479 337.562 107.279 337.442C106.759 337.143 106.479 336.483 106.479 335.543L106.439 322.603C106.439 321.563 106.799 320.343 107.459 319.223C108.099 318.123 108.979 317.183 109.859 316.683L178.18 277.344L173 289.283L177.24 294.743L180.14 296.423L109.359 337.182C108.859 337.462 108.399 337.622 107.979 337.622ZM110.539 317.843C109.839 318.243 109.139 318.983 108.619 319.903C108.099 320.823 107.779 321.803 107.799 322.603L107.839 335.543C107.839 336.023 107.959 336.243 107.999 336.283C107.999 336.283 108.259 336.263 108.699 336.003L177.44 296.423L176.26 295.683L171.46 289.483L175.32 280.543L110.559 317.823L110.539 317.843Z" fill="#131A2D"/>
<path d="M110.199 317.263L176.739 278.964L176.779 295.283L107.159 335.363L107.119 322.603C107.119 321.683 107.459 320.583 108.039 319.563C108.619 318.563 109.399 317.723 110.199 317.263Z" fill="#131A2D"/>
<path d="M14.8192 245.005L82.6993 205.825L176.859 260.184L108.979 299.364C106.959 300.524 105.339 303.344 105.359 305.664L105.399 312.303C105.399 313.443 105.799 314.263 106.459 314.643L12.2992 260.284C11.6392 259.904 11.2392 259.104 11.2392 257.944L11.1992 251.304C11.1992 248.984 12.8192 246.165 14.8192 245.005Z" fill="#3DD3B6"/>
<path d="M106.28 314.923L12.1198 260.564C11.3198 260.104 10.8998 259.164 10.8798 257.944L10.8398 251.305C10.8398 248.885 12.5398 245.925 14.6398 244.705L82.6799 205.425L82.8599 205.525L177.52 260.164L177 260.464L109.12 299.664C107.2 300.764 105.66 303.464 105.66 305.664L105.7 312.303C105.7 313.283 106.02 314.023 106.58 314.343L106.24 314.923H106.28ZM14.8198 245.005L14.9798 245.305C13.0598 246.405 11.5198 249.105 11.5198 251.305L11.5598 257.944C11.5598 258.924 11.8798 259.664 12.4598 259.984L105.22 313.543C105.1 313.183 105.04 312.763 105.04 312.303L105 305.664C105 303.244 106.7 300.284 108.8 299.064L176.16 260.164L82.6799 206.205L14.9998 245.305L14.8398 245.005H14.8198Z" fill="#131A2D"/>
<path d="M108.98 299.363L176.86 260.184V261.684L174.9 262.824L170.92 271.984L174.86 272.724L176.9 273.924V275.204L109.02 314.403C107 315.563 105.38 314.643 105.36 312.323L105.32 305.683C105.32 303.363 106.94 300.543 108.94 299.383L108.98 299.363Z" fill="#131A2D"/>
<path d="M109.579 300.404L174.899 262.804L170.459 273.044L174.939 272.764L176.899 273.904L108.419 313.323C107.839 313.663 107.339 313.743 107.039 313.583C106.759 313.423 106.579 312.943 106.579 312.283L106.539 305.644C106.539 304.744 106.879 303.644 107.439 302.664C108.019 301.684 108.779 300.844 109.559 300.404H109.579Z" fill="#3DD3B6"/>
<path d="M107.421 314.004C107.221 314.004 107.061 313.964 106.901 313.884C106.501 313.664 106.261 313.084 106.261 312.304L106.221 305.664C106.221 304.704 106.581 303.544 107.181 302.504C107.781 301.464 108.581 300.604 109.421 300.124L175.621 262.004L171.001 272.684L175.021 272.424L177.601 273.904L177.081 274.204L108.601 313.624C108.161 313.884 107.741 314.004 107.401 314.004H107.421ZM109.781 300.704C109.041 301.124 108.321 301.904 107.781 302.844C107.241 303.784 106.921 304.804 106.921 305.664L106.961 312.304C106.961 312.884 107.101 313.224 107.241 313.304C107.381 313.384 107.761 313.344 108.281 313.044L176.241 273.904L174.881 273.124L169.961 273.444L174.201 263.624L109.781 300.724V300.704Z" fill="#131A2D"/>
<path d="M109.581 300.404L174.901 262.804L174.941 272.764L106.601 312.103L106.561 305.644C106.561 304.744 106.901 303.644 107.461 302.664C108.041 301.684 108.801 300.844 109.581 300.404Z" fill="white"/>
<path d="M106.261 312.703L106.221 305.663C106.221 304.703 106.581 303.543 107.181 302.503C107.781 301.463 108.581 300.603 109.421 300.123L175.241 262.224L175.301 272.964L175.121 273.064L106.281 312.703H106.261ZM109.761 300.703C109.021 301.123 108.301 301.903 107.761 302.843C107.221 303.783 106.901 304.803 106.901 305.663V311.523L174.601 272.564L174.561 263.384L109.761 300.703Z" fill="#131A2D"/>
<path d="M18.4991 222.325L81.8392 185.765L169.719 236.485L106.379 273.064C104.499 274.144 102.999 276.784 102.999 278.944V290.804C103.039 291.884 103.419 292.624 104.019 292.984L16.1391 242.264C15.5391 241.904 15.1591 241.144 15.1591 240.084L15.1191 228.225C15.1191 226.065 16.6191 223.425 18.4991 222.345V222.325Z" fill="#3DD3B6"/>
<path d="M103.839 293.264L15.9793 242.524C15.2393 242.084 14.8193 241.204 14.8193 240.045L14.7793 228.185C14.7793 225.925 16.3593 223.145 18.3393 222.005L81.8594 185.325L170.419 236.445L169.919 236.745L106.579 273.304C104.799 274.324 103.359 276.844 103.359 278.884V290.744C103.399 291.664 103.679 292.324 104.219 292.624L103.879 293.204L103.839 293.264ZM18.6593 222.625C16.8793 223.645 15.4393 226.165 15.4393 228.205L15.4793 240.065C15.4793 240.984 15.7793 241.644 16.2993 241.944L102.819 291.884C102.719 291.544 102.659 291.184 102.659 290.784V278.924C102.619 276.664 104.219 273.884 106.179 272.744L169.019 236.465L81.8194 186.125L18.6393 222.605L18.6593 222.625Z" fill="#131A2D"/>
<path d="M106.38 273.044L169.72 236.465V237.865L167.9 238.925L164.18 247.465L167.86 253.805L169.76 254.925V256.125L106.42 292.704C104.54 293.784 103.02 292.924 103.02 290.764V278.904C102.98 276.744 104.5 274.104 106.36 273.024L106.38 273.044Z" fill="#3DD3B6"/>
<path d="M104.9 293.524C104.52 293.524 104.16 293.444 103.84 293.244C103.1 292.804 102.68 291.924 102.68 290.764V278.904C102.64 276.644 104.24 273.864 106.2 272.724L170.04 235.865V238.045L168.14 239.145L164.54 247.425L168.08 253.544L170.081 254.724V256.324L169.921 256.424L106.58 292.984C106 293.324 105.42 293.504 104.88 293.504L104.9 293.524ZM106.54 273.344C104.76 274.364 103.32 276.884 103.32 278.924V290.784C103.34 291.704 103.64 292.364 104.18 292.664C104.72 292.964 105.44 292.884 106.26 292.424L169.44 255.944V255.124L167.62 254.044L163.8 247.465L167.62 238.665L169.381 237.665V237.025L106.52 273.304L106.54 273.344Z" fill="#131A2D"/>
<path d="M106.941 274.024L167.901 238.925L163.761 248.484L167.941 253.884L169.781 254.944L105.881 291.744C105.341 292.044 104.861 292.144 104.601 291.984C104.341 291.824 104.181 291.384 104.181 290.784L104.141 278.924C104.141 278.084 104.441 277.064 104.981 276.144C105.521 275.224 106.221 274.464 106.961 274.044L106.941 274.024Z" fill="#3DD3B6"/>
<path d="M104.9 292.404C104.72 292.404 104.54 292.364 104.4 292.284C104.02 292.064 103.8 291.524 103.8 290.784L103.76 278.924C103.76 278.024 104.08 276.964 104.64 275.964C105.2 275.004 105.98 274.184 106.74 273.724L168.58 238.125L164.12 248.444L168.14 253.624L170.42 254.944L106 292.044C105.58 292.284 105.2 292.404 104.88 292.404H104.9ZM107.1 274.324C106.42 274.724 105.74 275.444 105.24 276.304C104.74 277.184 104.44 278.144 104.44 278.924V290.784C104.48 291.344 104.62 291.644 104.72 291.704C104.82 291.744 105.12 291.784 105.66 291.464L169.06 254.964L167.64 254.104L163.34 248.564L163.42 248.384L167.14 239.764L107.08 274.344L107.1 274.324Z" fill="#131A2D"/>
<path d="M106.939 274.024L167.899 238.925L167.939 253.864L104.159 290.584L104.119 278.904C104.119 278.064 104.419 277.044 104.959 276.124C105.499 275.204 106.199 274.444 106.939 274.024Z" fill="#131A2D"/>
<path d="M29.5191 224.205C29.3191 224.325 29.3191 224.505 29.5191 224.605C85.2992 257.024 74.4392 250.684 102.239 266.844C102.439 266.964 102.739 266.964 102.939 266.844C104.999 265.664 108.339 265.664 110.379 266.844C110.579 266.964 110.879 266.964 111.079 266.844C133.319 254.004 136.359 252.244 159.299 239.005C159.499 238.885 159.499 238.705 159.299 238.605C157.259 237.405 157.259 235.485 159.299 234.285C159.499 234.165 159.499 233.985 159.299 233.885C153.439 230.485 94.4792 196.245 86.5792 191.645C86.3792 191.525 86.0792 191.525 85.8792 191.645C83.8192 192.825 80.4792 192.825 78.4392 191.645C78.2392 191.525 77.9192 191.525 77.7392 191.645C54.7992 204.885 51.7592 206.645 29.5191 219.485C29.3191 219.605 29.3191 219.785 29.5191 219.885C31.5591 221.065 31.5591 223.005 29.4991 224.205H29.5191ZM30.5391 224.405C32.5391 223.065 32.5591 221.065 30.5791 219.705C37.1991 215.885 73.5792 194.885 78.1192 192.265C80.4392 193.405 83.8992 193.405 86.2392 192.265C93.8792 196.705 152.219 230.585 158.299 234.125C156.299 235.465 156.279 237.465 158.259 238.825C153.719 241.445 117.319 262.464 110.719 266.264C108.399 265.124 104.939 265.124 102.619 266.264C94.6192 261.604 38.5592 229.065 30.5591 224.405H30.5391Z" fill="#5E7EBF"/>
<path d="M54.0795 222.585L86.4995 203.865C87.2595 203.425 88.1995 203.425 88.9795 203.865L101.22 210.725C102.92 211.685 102.94 214.125 101.24 215.085L68.8195 233.805C68.0595 234.245 67.0995 234.245 66.3395 233.805L54.0995 226.945C52.3995 225.985 52.3795 223.545 54.0795 222.585Z" fill="#5E7EBF"/>
<path d="M247.721 215.565V217.765L187.021 252.804L103.561 204.625V202.425L164.261 169.985L247.721 215.565Z" fill="#131A2D"/>
<path d="M247.721 215.565L187.021 250.604L103.561 202.425L164.261 167.386L247.721 215.565Z" fill="#3DD3B6"/>
<path d="M187.021 251.004L186.841 250.904L102.881 202.425L103.381 202.125L164.241 166.985L164.421 167.085L248.381 215.565L247.881 215.865L187.021 251.004ZM104.241 202.425L187.021 250.224L247.041 215.565L164.261 167.765L104.241 202.425Z" fill="#131A2D"/>
<path d="M244.501 213.705L187.721 246.484V230.864L244.501 198.085V213.705Z" fill="#131A2D"/>
<path d="M187.721 246.484L111.48 202.445V186.825L187.721 230.865V246.484Z" fill="white"/>
<path d="M188.061 247.064L187.561 246.764L111.141 202.625V186.225L111.641 186.525L188.061 230.665V247.064ZM111.801 202.245L187.381 245.884V231.045L111.801 187.405V202.245Z" fill="#131A2D"/>
<path d="M167.72 146.846L251.06 194.945L247.74 195.565L164.24 147.386L164.72 147.106C165.92 146.406 166.9 146.406 167.72 146.866V146.846Z" fill="#3DD3B6"/>
<path d="M247.661 195.925L247.561 195.865L163.561 147.386L164.561 146.806C165.801 146.086 166.921 146.006 167.881 146.566L252.001 195.125L247.661 195.925ZM164.901 147.386L247.781 195.225L250.081 194.805L167.541 147.166C166.801 146.746 165.921 146.826 164.901 147.406V147.386Z" fill="#131A2D"/>
<path d="M248.22 216.385L247.74 216.665V196.665L248.22 196.385C254.44 192.785 254.4 212.825 248.22 216.385Z" fill="#131A2D"/>
<path d="M253.82 203.105C253.82 208.465 252.06 215.245 248.22 217.465L247.74 217.745V215.565L248.22 215.285C250.62 213.905 251.92 208.545 251.92 204.205C251.92 199.865 250.62 196.085 248.22 197.465L247.74 197.745V195.565L248.22 195.285C252.06 193.065 253.82 197.785 253.82 203.125V203.105Z" fill="#3DD3B6"/>
<path d="M247.379 218.345V215.365L248.039 214.985C250.239 213.705 251.559 208.505 251.559 204.205C251.559 200.945 250.819 198.305 249.699 197.665C249.299 197.425 248.879 197.465 248.359 197.765L247.359 198.345V195.365L248.019 194.985C249.259 194.265 250.379 194.185 251.359 194.745C253.099 195.745 254.139 198.885 254.139 203.125C254.139 208.585 252.339 215.485 248.359 217.785L247.359 218.365L247.379 218.345ZM248.059 215.765V217.165C251.779 215.005 253.459 208.365 253.459 203.105C253.459 199.165 252.539 196.185 251.019 195.325C250.279 194.905 249.379 194.985 248.359 195.565L248.039 195.745V197.145C248.939 196.645 249.619 196.825 250.039 197.065C251.659 198.005 252.239 201.365 252.239 204.185C252.239 208.725 250.899 214.085 248.359 215.545L248.039 215.725L248.059 215.765Z" fill="#131A2D"/>
<path d="M247.721 195.565V197.765L187.021 232.804L103.561 184.625V182.425L164.261 149.986L247.721 195.565Z" fill="#131A2D"/>
<path d="M247.721 195.565L187.021 230.605L103.561 182.426L164.261 147.386L247.721 195.565Z" fill="#3DD3B6"/>
<path d="M187.021 231.004L186.841 230.904L102.881 182.425L103.381 182.125L164.241 146.986L164.421 147.086L248.381 195.565L247.861 195.865L187.001 231.004H187.021ZM104.241 182.425L187.021 230.224L247.041 195.565L164.261 147.766L104.241 182.425Z" fill="#131A2D"/>
<path d="M126.141 178.146L156.861 160.406C160.941 162.766 167.581 162.766 171.661 160.406L225.161 191.285C221.081 193.645 221.081 197.465 225.161 199.825L194.441 217.565C190.361 215.205 183.721 215.205 179.641 217.565L126.161 186.686C130.241 184.326 130.241 180.506 126.161 178.146H126.141Z" fill="white"/>
<path d="M179.621 217.965L179.461 217.865L125.461 186.685L125.981 186.385C127.841 185.305 128.881 183.885 128.881 182.405C128.881 180.925 127.861 179.505 125.981 178.425L125.461 178.125L156.861 159.986L157.041 160.086C161.021 162.386 167.521 162.386 171.501 160.086L171.661 159.986L171.841 160.086L225.841 191.265L225.321 191.565C223.461 192.645 222.421 194.065 222.421 195.545C222.421 197.025 223.441 198.445 225.321 199.525L225.841 199.825L194.441 217.965L194.261 217.865C190.281 215.565 183.781 215.565 179.801 217.865L179.621 217.965ZM187.021 215.465C189.681 215.465 192.361 216.045 194.421 217.185L224.481 199.825C222.721 198.665 221.741 197.165 221.741 195.565C221.741 193.965 222.701 192.465 224.481 191.305L171.661 160.806C167.541 163.086 161.001 163.086 156.861 160.806L126.801 178.165C128.581 179.325 129.541 180.825 129.541 182.425C129.541 184.025 128.581 185.525 126.801 186.685L179.641 217.185C181.701 216.045 184.381 215.465 187.041 215.465H187.021Z" fill="#131A2D"/>
<path d="M169.359 184.965C175.599 181.365 187.319 182.305 195.559 187.065C203.799 191.825 205.419 198.585 199.179 202.185C192.959 205.785 181.219 204.845 172.979 200.085C164.739 195.325 163.119 188.565 169.359 184.965Z" fill="#3DD3B6"/>
<path d="M189.361 204.705C183.861 204.705 177.701 203.205 172.801 200.385C167.981 197.605 165.221 194.045 165.221 190.645C165.221 188.245 166.581 186.185 169.181 184.685C175.481 181.045 187.381 181.985 195.701 186.785C200.521 189.565 203.301 193.125 203.301 196.525C203.301 198.925 201.941 200.985 199.341 202.485C196.741 203.985 193.201 204.705 189.361 204.705ZM179.141 183.125C175.421 183.125 172.001 183.825 169.501 185.265C167.141 186.625 165.881 188.485 165.881 190.645C165.881 193.765 168.601 197.185 173.121 199.805C181.261 204.505 192.861 205.445 198.981 201.905C201.341 200.545 202.601 198.685 202.601 196.545C202.601 193.425 199.881 190.005 195.361 187.385C190.541 184.605 184.521 183.145 179.141 183.145V183.125Z" fill="#131A2D"/>
<path d="M171.8 169.166L143.46 185.525L139.42 183.185L167.74 166.826L171.8 169.166Z" fill="#3DD3B6"/>
<path d="M143.46 185.905L138.74 183.186L167.74 166.446L172.46 169.186L143.46 185.925V185.905ZM140.1 183.186L143.46 185.125L171.1 169.166L167.74 167.226L140.1 183.186Z" fill="#131A2D"/>
<path d="M160.281 168.806L142.841 178.866L138.801 176.546L156.241 166.466L160.281 168.806Z" fill="#3DD3B6"/>
<path d="M142.839 179.265L138.119 176.545L156.239 166.085L160.959 168.805L142.839 179.265ZM139.479 176.545L142.839 178.485L159.619 168.805L156.239 166.865L139.479 176.545Z" fill="#131A2D"/>
<path d="M247.72 215.565L244.5 213.705V199.605L247.72 197.745V215.565Z" fill="#3DD3B6"/>
<path d="M248.06 216.145L244.16 213.905V199.425L248.06 197.165V216.145ZM244.84 213.505L247.38 214.965V198.325L244.84 199.785V213.485V213.505Z" fill="#131A2D"/>
<path d="M126.76 196.945L128.24 196.085L142.44 204.285L140.98 205.125L193.1 233.524V235.224L116.2 279.624L65.5398 250.364C60.4198 250.004 55.6198 247.704 51.3397 242.164L0.679688 212.945V211.245L77.5798 168.545L126.76 196.945Z" fill="#131A2D"/>
<path d="M193.08 233.524L116.18 277.924L63.3398 247.404L140.24 203.005L193.08 233.524Z" fill="#3DD3B6"/>
<path d="M116.181 278.324L116.001 278.224L62.6406 247.424L63.1406 247.124L140.201 202.625L140.381 202.725L193.741 233.524L193.241 233.824L116.181 278.324ZM64.0006 247.424L116.181 277.544L192.401 233.544L140.221 203.425L64.0006 247.424Z" fill="#131A2D"/>
<path d="M130.42 197.345L53.5198 241.744L0.679688 211.225L77.5798 166.826L130.42 197.345Z" fill="#3DD3B6"/>
<path d="M53.5201 242.145L53.3401 242.044L0 211.225L0.500001 210.925L77.5601 166.426L131.08 197.325L130.58 197.625L53.5201 242.124V242.145ZM1.36 211.225L53.5401 241.345L129.76 197.345L77.5801 167.226L1.36 211.225Z" fill="#131A2D"/>
<path d="M124.441 187.865C128.581 189.965 132.061 195.765 132.061 200.545L60.7805 241.784L7.90039 206.185L79.1805 165.026L124.441 187.865Z" fill="white"/>
<path d="M60.7398 242.184L60.5598 242.064L7.25977 206.165L79.1798 164.646L79.3398 164.726L124.6 187.565C128.82 189.725 132.4 195.665 132.4 200.545C132.4 200.678 128.627 202.925 121.08 207.285L60.7398 242.184ZM8.53977 206.205L60.7798 241.384C64.6798 239.124 128.02 202.485 131.72 200.345C131.62 195.725 128.26 190.185 124.3 188.165L79.1998 165.406L8.53977 206.205Z" fill="#131A2D"/>
<path d="M139.66 196.645L184.9 226.064L187.54 232.664C187.54 232.664 184.78 231.064 180.5 228.604L113.6 267.224L62.8398 237.044L134.12 195.885C135.52 195.085 137.48 195.265 139.62 196.645H139.66Z" fill="white"/>
<path d="M113.62 267.604L113.44 267.504L62.1797 237.024L133.96 195.585C135.52 194.685 137.66 194.965 139.82 196.365L185.16 225.845L185.2 225.945L188.2 233.464L180.48 229.005L113.58 267.624L113.62 267.604ZM63.5397 237.044L113.62 266.824L180.5 228.205L186.86 231.884L184.62 226.285L139.46 196.925C137.52 195.665 135.64 195.405 134.3 196.165L63.5197 237.024L63.5397 237.044Z" fill="#131A2D"/>
<path d="M187.539 232.664L116.259 273.824L113.619 267.224L184.899 226.064L187.539 232.664Z" fill="#131A2D"/>
<path d="M53.1598 229.025C57.2798 231.125 60.7598 236.925 60.7598 241.704C60.7598 241.784 5.25977 209.745 5.25977 209.745L7.89977 206.185L53.1598 229.025Z" fill="white"/>
<path d="M60.8603 242.004C60.4603 242.004 57.2403 240.145 5.08023 210.025L4.74023 209.825L7.78024 205.725L53.2803 228.685C57.5003 230.845 61.0803 236.785 61.0803 241.664V241.864L60.9003 241.964C60.9003 241.964 60.8803 241.964 60.8403 241.964L60.8603 242.004ZM5.76024 209.645C10.0802 212.145 55.1203 238.145 60.4003 241.124C60.1403 236.585 56.8403 231.305 53.0003 229.325L8.00024 206.625L5.76024 209.645Z" fill="#131A2D"/>
<path d="M62.8602 237.045C64.2602 236.245 66.2202 236.425 68.3602 237.805L113.6 267.224L116.24 273.824C116.24 273.824 60.7402 241.785 60.7402 241.685C60.7402 239.385 61.5402 237.785 62.8402 237.025L62.8602 237.045Z" fill="white"/>
<path d="M116.94 274.604L116.1 274.104C78.9799 252.678 60.4199 241.871 60.4199 241.685C60.4199 239.345 61.2199 237.585 62.6999 236.745C64.2599 235.845 66.3999 236.125 68.5599 237.525L113.9 267.004L113.94 267.104L116.94 274.624V274.604ZM61.0999 241.505C64.0199 243.265 108.82 269.124 115.58 273.044L113.34 267.444L68.1799 238.085C66.2399 236.825 64.3599 236.565 63.0199 237.325C61.8199 238.025 61.1199 239.505 61.0999 241.485V241.505Z" fill="#131A2D"/>
<path d="M381.599 251.764L389.399 247.824L393.039 82.687H381.359L381.599 251.764Z" fill="#140035"/>
<path d="M375.2 248.784L381.6 251.764L381.36 82.687H371.74L375.2 248.784Z" fill="white"/>
<path d="M382.32 252.904L374.48 249.264V248.804L371 81.9673H382.08V82.6873L382.32 252.884V252.904ZM375.92 248.344L380.86 250.624L380.62 83.4273H372.48L375.9 248.324L375.92 248.344Z" fill="black"/>
<path d="M407.46 3.30846C400.52 -0.711469 394.26 -0.931465 389.82 1.90849L316.1 44.4678L354.14 101.607L424.9 61.0075C429.16 58.4075 431.8 53.0276 431.8 45.4277C431.8 29.928 420.92 11.0683 407.48 3.30846H407.46Z" fill="#140035"/>
<path d="M371.58 15.7684C363.72 11.2285 356.54 10.4285 351.04 12.7885L350.92 12.8285C350.88 12.8485 285.58 40.048 251.84 35.7481C241.62 34.4481 226.66 35.7481 217.82 43.008L294.82 193.605C294.82 193.605 308.74 192.605 318.78 178.486C321.42 174.766 323.48 170.426 325.58 165.506C339.04 134.026 365.34 109.767 393.581 90.3672C399.341 87.1272 402.901 80.0874 402.901 70.0075C402.901 50.0279 388.88 25.7483 371.58 15.7684Z" fill="#3DD3B6"/>
<path d="M294.421 194.285L294.221 193.905L216.98 42.8279L217.38 42.4879C226.58 34.948 241.72 33.788 251.901 35.088C285.161 39.3279 350.021 12.4884 350.641 12.2284L351.281 11.9484C357.081 9.72844 364.361 10.8884 371.861 15.2083C389.301 25.2882 403.501 49.8678 403.501 70.0274C403.501 80.0272 400.061 87.4471 393.841 90.9471C359.821 114.327 337.661 138.826 326.141 165.786C324.221 170.246 322.081 174.926 319.261 178.886C309.161 193.085 294.961 194.265 294.821 194.285H294.381H294.421ZM218.62 43.1679L295.181 192.905C297.561 192.585 309.481 190.425 318.241 178.106C320.981 174.246 323.101 169.646 324.981 165.246C336.601 138.066 358.921 113.387 393.201 89.8271C399.061 86.5471 402.241 79.5073 402.241 70.0074C402.241 50.2678 388.341 26.1882 371.241 16.3283C363.881 12.0684 356.781 11.0284 351.281 13.3884L350.641 13.6684C343.661 16.5483 283.701 40.4879 251.741 36.388C241.201 35.048 226.98 36.648 218.62 43.1679Z" fill="#140035"/>
<path d="M259.119 47.8078C225.939 28.6481 199.039 44.1878 199.039 82.4872C199.039 120.787 225.939 167.386 259.119 186.545C292.299 205.705 319.199 190.185 319.199 151.866C319.199 113.547 292.299 66.9675 259.119 47.8078Z" fill="#140035"/>
<path d="M283.54 79.6073C275.24 69.2075 265.58 60.4076 255.28 54.4677C247.14 49.7678 239.22 47.2878 232.3 47.2878C216.3 47.2878 206.74 60.4476 206.74 82.4873C206.74 118.307 231.96 162.006 262.96 179.886C271.12 184.586 279.04 187.065 285.96 187.065C301.96 187.065 311.52 173.906 311.52 151.866C311.52 139.966 308.74 127.186 303.88 114.787C298.98 102.267 291.94 90.1071 283.54 79.5873V79.6073Z" fill="white"/>
<path d="M285.96 187.406C279.02 187.406 271 184.906 262.8 180.166C231.7 162.226 206.4 118.407 206.4 82.4874C206.4 60.2478 216.08 46.948 232.28 46.948C239.22 46.948 247.24 49.448 255.42 54.1879C265.38 59.9278 275.2 68.6476 283.78 79.4075C292.22 89.9673 299.261 102.167 304.161 114.687C309.181 127.487 311.841 140.346 311.841 151.866C311.841 174.106 302.16 187.406 285.96 187.406ZM232.28 47.608C216.48 47.608 207.06 60.6478 207.06 82.4874C207.06 118.207 232.2 161.766 263.12 179.606C271.24 184.286 279.14 186.746 285.96 186.746C301.761 186.746 311.181 173.706 311.181 151.866C311.181 140.406 308.541 127.647 303.561 114.927C298.681 102.467 291.68 90.3273 283.28 79.8074C274.74 69.1276 265 60.4478 255.1 54.7479C247 50.0679 239.12 47.608 232.28 47.608Z" fill="#140035"/>
<path d="M261.939 181.665C230.379 163.446 204.699 118.967 204.699 82.4872C204.699 59.1676 215.019 45.2478 232.299 45.2478C239.539 45.2478 247.839 47.8278 256.299 52.7077C266.459 58.5676 276.439 67.4274 285.139 78.3472C293.679 89.0471 300.799 101.387 305.779 114.067C310.879 127.066 313.559 140.126 313.559 151.886C313.559 175.206 303.239 189.125 285.959 189.125C278.719 189.125 270.419 186.545 261.939 181.665ZM208.759 82.4872C208.759 117.647 233.519 160.566 263.959 178.126C271.819 182.645 279.419 185.045 285.939 185.045C300.679 185.045 309.459 172.646 309.459 151.886C309.459 140.646 306.859 128.086 301.959 115.567C297.139 103.267 290.219 91.267 281.939 80.8872C273.539 70.3674 263.959 61.8475 254.239 56.2476C246.399 51.7277 238.799 49.3477 232.279 49.3477C217.559 49.3477 208.759 61.7475 208.759 82.5072V82.4872Z" fill="#3DD3B6"/>
<path d="M285.961 189.765C278.621 189.765 270.201 187.165 261.621 182.225C229.881 163.906 204.061 119.166 204.061 82.487C204.061 58.7674 214.621 44.6077 232.301 44.6077C239.661 44.6077 248.061 47.2076 256.621 52.1475C266.841 58.0474 276.881 66.9473 285.641 77.9271C294.221 88.6669 301.401 101.087 306.381 113.826C311.501 126.886 314.201 140.046 314.201 151.866C314.201 175.585 303.641 189.745 285.961 189.745V189.765ZM262.261 181.105C270.641 185.925 278.841 188.465 285.961 188.465C302.841 188.465 312.901 174.785 312.901 151.886C312.901 140.226 310.221 127.226 305.161 114.306C300.221 101.687 293.121 89.3869 284.621 78.7471C275.961 67.8873 266.041 59.0874 255.961 53.2875C247.601 48.4676 239.421 45.9076 232.281 45.9076C215.401 45.9076 205.341 59.5874 205.341 82.487C205.341 118.746 230.861 162.966 262.261 181.085V181.105ZM285.961 185.705C279.321 185.705 271.601 183.285 263.661 178.705C233.041 161.026 208.121 117.866 208.121 82.487C208.121 61.3074 217.161 48.6676 232.301 48.6676C238.941 48.6676 246.661 51.0876 254.601 55.6675C264.381 61.3074 274.021 69.8872 282.481 80.4671C290.801 90.8869 297.761 102.947 302.601 115.306C307.541 127.906 310.141 140.546 310.141 151.866C310.141 173.046 301.101 185.685 285.961 185.685V185.705ZM232.281 49.9876C217.961 49.9876 209.401 62.1474 209.401 82.507C209.401 117.466 234.021 160.126 264.281 177.585C272.041 182.045 279.541 184.405 285.941 184.405C300.261 184.405 308.821 172.246 308.821 151.886C308.821 140.726 306.241 128.246 301.361 115.806C296.581 103.567 289.681 91.6269 281.441 81.307C273.101 70.8472 263.581 62.3874 253.921 56.8275C246.181 52.3475 238.701 50.0076 232.281 50.0076V49.9876Z" fill="#140035"/>
<path d="M235.52 90.327C235.52 90.327 241.58 85.807 242.48 85.367C244.68 84.2671 247.48 84.2671 250.54 85.667C255.24 87.807 259.36 92.6469 261.6 98.0868L265.7 95.4669C267.82 94.5869 270.44 94.6869 273.28 95.9869C280.38 99.2068 286.14 108.547 286.16 116.867C286.16 122.326 283.06 126.826 279.06 130.346L269.64 137.346L235.52 90.347V90.327Z" fill="#140035"/>
<path d="M244.9 89.7672C249.84 92.0072 254.14 97.2271 256.3 103.007C258.44 99.1871 262.72 97.8471 267.66 100.087C274.76 103.307 280.52 112.647 280.54 120.967C280.54 136.166 256.38 143.966 256.38 143.966C256.38 143.966 232.14 114.207 232.1 99.0071C232.1 90.6872 237.82 86.5473 244.92 89.7672H244.9Z" fill="#3DD3B6"/>
<path d="M256.139 144.726L255.859 144.386C254.859 143.166 231.479 114.267 231.439 99.0071C231.439 94.6271 233.019 91.1072 235.779 89.3072C238.359 87.6473 241.699 87.6073 245.179 89.1672C249.799 91.2672 254.039 95.9471 256.439 101.587C258.979 98.1871 263.26 97.3671 267.92 99.4871C275.22 102.787 281.16 112.427 281.18 120.947C281.18 136.446 257.579 144.246 256.559 144.566L256.139 144.706V144.726ZM240.279 89.3272C238.879 89.3272 237.599 89.6872 236.499 90.4072C234.119 91.9472 232.739 95.0871 232.739 99.0071C232.759 112.927 253.879 139.806 256.579 143.206C259.759 142.086 279.9 134.426 279.88 120.967C279.88 112.887 274.26 103.787 267.379 100.687C262.939 98.6671 258.899 99.687 256.859 103.347L256.179 104.587L255.699 103.267C253.519 97.4271 249.279 92.4872 244.659 90.3872C243.139 89.7072 241.659 89.3472 240.299 89.3472L240.279 89.3272Z" fill="#140035"/>
<path d="M479.5 330.903V333.383L385.8 387.462L317.66 348.122V345.663L411.34 294.483L479.5 330.903Z" fill="#131A2D"/>
<path d="M479.5 330.903L385.8 385.002L317.66 345.663L411.34 291.563L479.5 330.903Z" fill="#3DD3B6"/>
<path d="M385.801 385.402L316.961 345.663L317.501 345.363L411.361 291.164L411.541 291.264L480.201 330.903L479.681 331.203L385.821 385.402H385.801ZM318.361 345.663L385.801 384.602L478.781 330.923L411.341 291.984L318.361 345.663Z" fill="#131A2D"/>
<path d="M385.019 362.842V380.382L321.279 343.582V326.043L385.019 362.842Z" fill="white"/>
<path d="M385.36 380.982L384.82 380.682L320.9 343.783V325.423L385.34 362.622V380.982H385.36ZM321.62 343.383L384.64 379.782V363.062L321.62 326.663V343.383Z" fill="#131A2D"/>
<path d="M470.6 330.943L385.02 380.382V362.842L470.6 313.403V330.943Z" fill="white"/>
<path d="M384.66 380.982V362.622L384.84 362.522L470.98 312.783V331.143L470.8 331.243L384.68 380.982H384.66ZM385.36 363.042V379.762L470.26 330.743V314.023L385.36 363.042Z" fill="#131A2D"/>
<path d="M410.84 268.804L411.38 269.124L317.659 323.223L313.939 322.523L407.48 268.544C408.38 268.024 409.5 268.044 410.84 268.824V268.804Z" fill="#3DD3B6"/>
<path d="M317.719 323.583L312.939 322.683L407.3 268.224C408.38 267.604 409.62 267.704 411.02 268.504L412.1 269.124L411.56 269.424L317.719 323.583ZM314.939 322.343L317.599 322.843L410.68 269.124C409.52 268.444 408.52 268.344 407.66 268.844L314.939 322.363V322.343Z" fill="#131A2D"/>
<path d="M317.12 324.123L317.66 324.443V346.903L317.12 346.583C310.18 342.583 310.12 320.083 317.12 324.123Z" fill="#131A2D"/>
<path d="M317.12 322.883L317.66 323.203V325.663L317.12 325.343C314.42 323.783 312.96 328.083 312.96 332.903C312.96 337.723 314.42 343.783 317.12 345.343L317.66 345.663V348.123L317.12 347.803C312.8 345.303 310.84 337.703 310.84 331.683C310.84 325.663 312.8 320.403 317.12 322.883Z" fill="#3DD3B6"/>
<path d="M318.02 348.742L316.94 348.122C312.5 345.563 310.48 337.823 310.48 331.703C310.48 326.963 311.64 323.443 313.58 322.323C314.66 321.703 315.92 321.803 317.3 322.603L318.02 323.023V326.303L316.94 325.683C316.36 325.343 315.86 325.323 315.4 325.583C314.14 326.303 313.3 329.263 313.3 332.943C313.3 337.783 314.78 343.623 317.28 345.063L318 345.483V348.762L318.02 348.742ZM315.08 322.623C314.68 322.623 314.28 322.723 313.94 322.923C312.24 323.903 311.18 327.263 311.18 331.683C311.18 337.603 313.1 345.083 317.3 347.502H317.32V345.862L316.94 345.643C314.12 344.023 312.6 337.863 312.6 332.903C312.6 329.723 313.24 325.963 315.06 324.923C315.52 324.643 316.3 324.443 317.3 325.023H317.32V323.403L316.94 323.183C316.26 322.803 315.64 322.603 315.08 322.603V322.623Z" fill="#131A2D"/>
<path d="M479.5 308.463V310.923L385.8 365.022L317.66 325.683V323.203L411.36 272.044L479.5 308.463Z" fill="#131A2D"/>
<path d="M479.5 308.463L385.8 362.542L317.66 323.203L411.36 269.124L479.5 308.463Z" fill="#3DD3B6"/>
<path d="M385.801 362.962L385.621 362.862L316.961 323.223L317.501 322.923L411.361 268.724L411.541 268.824L480.201 308.463L479.661 308.763L385.801 362.962ZM318.361 323.223L385.801 362.162L478.781 308.483L411.341 269.544L318.361 323.223Z" fill="#131A2D"/>
<path d="M343 318.423L403.041 283.744C407.621 286.404 415.061 286.404 419.641 283.744L454.141 303.663C449.561 306.303 449.561 310.603 454.141 313.243L394.081 347.903C389.5 345.263 382.061 345.263 377.481 347.903L342.98 327.983C347.56 325.323 347.56 321.043 342.98 318.403L343 318.423Z" fill="#131A2D"/>
<path d="M373.519 319.603C380.279 315.703 389.899 314.923 395.019 317.883C400.139 320.843 398.799 326.403 392.039 330.303C385.279 334.203 375.659 334.983 370.539 332.023C365.419 329.063 366.759 323.503 373.519 319.603Z" fill="#3DD3B6"/>
<path d="M378.6 334.163C375.44 334.163 372.52 333.563 370.38 332.323C368.22 331.083 367.1 329.363 367.1 327.363C367.1 324.523 369.38 321.583 373.36 319.283C380.22 315.323 390.02 314.563 395.22 317.563C397.38 318.803 398.5 320.523 398.5 322.523C398.5 325.363 396.22 328.303 392.22 330.603C388.18 332.923 383.12 334.163 378.6 334.163ZM386.98 316.443C382.58 316.443 377.64 317.643 373.7 319.903C370 322.043 367.78 324.823 367.78 327.363C367.78 329.103 368.8 330.603 370.72 331.703C375.72 334.583 385.22 333.823 391.88 329.983C395.58 327.843 397.8 325.063 397.8 322.523C397.8 320.783 396.78 319.283 394.86 318.183C392.82 317.003 390.02 316.443 386.98 316.443Z" fill="#131A2D"/>
<path d="M425.119 318.863L420.579 321.483L388.779 303.123L393.339 300.503L425.119 318.863Z" fill="#3DD3B6"/>
<path d="M420.581 321.903L420.401 321.803L388.061 303.143L393.321 300.123L425.821 318.883L420.581 321.923V321.903ZM389.481 303.143L420.581 321.103L424.421 318.883L393.321 300.923L389.481 303.143Z" fill="#131A2D"/>
<path d="M425.839 311.403L421.299 314.023L401.699 302.723L406.239 300.103L425.839 311.403Z" fill="#3DD3B6"/>
<path d="M421.3 314.443L421.12 314.343L401 302.723L406.24 299.683L406.42 299.783L426.54 311.403L421.3 314.443ZM402.42 302.723L421.3 313.623L425.14 311.403L406.26 300.503L402.42 302.723Z" fill="#131A2D"/>
<path d="M437.041 298.863L434.501 300.343L425.401 295.104L427.961 293.624L437.041 298.863Z" fill="#3DD3B6"/>
<path d="M434.5 300.743L434.32 300.644L424.7 295.104L427.96 293.224L428.14 293.324L437.76 298.864L434.5 300.743ZM426.12 295.084L434.5 299.924L436.36 298.864L427.98 294.024L426.12 295.104V295.084Z" fill="#131A2D"/>
<path d="M321.28 343.583L317.66 345.663V325.663L321.28 327.763V343.583Z" fill="#3DD3B6"/>
<path d="M317.32 346.263V325.063L321.64 327.563V343.783L317.32 346.263ZM318.02 326.283V345.043L320.92 343.363V327.943L318.02 326.263V326.283Z" fill="#131A2D"/>
<path d="M475.66 298.344V300.824L381.98 354.903L313.84 315.563V313.103L407.54 261.924L475.66 298.344Z" fill="#4258A7"/>
<path d="M475.66 298.343L381.98 352.442L313.84 313.103L407.54 259.004L475.66 298.343Z" fill="#30407A"/>
<path d="M387.02 352.103L319.92 313.363V302.263L387.02 340.983V352.103Z" fill="url(#paint0_linear_36_33002)"/>
<path d="M475.621 282.884V285.344L381.941 339.443L313.801 300.104V297.624L407.481 246.465L475.621 282.884Z" fill="#131A2D"/>
<path d="M475.621 282.884L381.941 336.983L313.801 297.623L407.481 243.544L475.621 282.884Z" fill="url(#paint1_linear_36_33002)"/>
<path d="M427.101 293.423L420.841 297.043L377.061 271.764L383.321 268.144L427.101 293.423Z" fill="#10417C"/>
<path d="M409.32 293.984L403.06 297.604L376.1 282.024L382.34 278.424L409.32 293.984Z" fill="#10417C"/>
<path d="M367.88 310.983L365.32 312.463L356.24 307.223L358.8 305.743L367.88 310.983Z" fill="#10417C"/>
<path d="M476.181 283.184C480.501 285.684 482.461 289.804 482.461 294.464C482.461 298.324 481.641 299.784 479.901 301.164L479.201 301.563L385.94 355.483L385.34 352.683C385.86 352.103 386.3 351.443 386.6 350.703C387.36 348.863 387.7 346.983 387.9 345.023C387.98 344.243 387.94 343.603 387.54 342.903C387.18 342.283 386.52 341.883 385.84 341.683C385.82 341.683 385.78 341.683 385.76 341.683C385.48 341.323 385.2 341.003 384.9 340.683C384.16 339.863 383.26 339.163 382.32 338.563L381.98 337.003L475.601 282.904L476.161 283.224L476.181 283.184Z" fill="#131A2D"/>
<path d="M386.62 347.522C386.76 345.123 385.24 341.323 381.98 339.443V336.983C386.84 339.783 388.8 343.903 388.8 347.622C388.8 352.222 386.86 357.722 382.54 355.242L382 354.922V352.462L382.56 352.782C385.26 354.342 386.42 351.402 386.66 347.542L386.62 347.522Z" fill="#4258A7"/>
<path d="M349.541 331.843L300.661 285.564V283.924L349.541 330.203V331.843Z" fill="#131A2D"/>
<path d="M474.201 285.883L349.541 330.203L300.661 283.924L425.321 239.604L474.201 285.883Z" fill="#3DD3B6"/>
<path d="M349.461 330.603L349.301 330.463L300.001 283.784L300.541 283.584L425.421 239.184L425.581 239.324L474.861 286.004L474.321 286.204L349.461 330.603ZM301.321 284.044L349.641 329.783L473.561 285.724L425.261 239.984L301.321 284.044Z" fill="#131A2D"/>
<path d="M373.919 309.283L365.939 312.123L336.039 283.804L343.999 280.964L373.919 309.283Z" fill="#566B70"/>
<path d="M436.4 282.824L432.7 284.124L409.32 261.984L413.02 260.684L436.4 282.824Z" fill="#566B70"/>
<path d="M442.721 276.604L439.021 277.924L421.721 261.544L425.441 260.224L442.721 276.604Z" fill="#566B70"/>
<path d="M352.08 329.103L306.1 285.564L306.08 267.804L352.08 311.363V329.103Z" fill="white"/>
<path d="M352.44 329.923L351.84 329.363L305.74 285.704V266.984L306.34 267.544L352.44 311.203V329.923ZM306.46 285.404L351.74 328.283V311.503L306.44 268.624V285.404H306.46Z" fill="#131A2D"/>
<path d="M474.141 269.764C476.061 276.004 476.141 282.624 474.141 287.524L349.48 331.843C350.82 325.943 351.18 319.743 349.48 314.083L474.141 269.764Z" fill="#131A2D"/>
<path d="M470.56 284.364L357.98 324.383C357.98 322.723 357.92 321.103 357.74 319.543L470.84 279.344C470.96 281.144 470.84 282.844 470.56 284.364Z" fill="white"/>
<path d="M357.641 324.883V324.383C357.681 322.743 357.601 321.143 357.421 319.583L357.381 319.303L357.641 319.203L471.181 278.844L471.221 279.304C471.341 281.144 471.221 282.864 470.941 284.424L470.901 284.624L470.701 284.684L357.641 324.883ZM358.141 319.763C358.281 321.103 358.361 322.483 358.361 323.863L470.281 284.084C470.521 282.764 470.601 281.344 470.541 279.804L358.161 319.763H358.141Z" fill="#131A2D"/>
<path d="M349.541 315.723L300.661 269.444V267.804L349.541 314.083V315.723Z" fill="#131A2D"/>
<path d="M474.201 269.764L349.541 314.083L300.661 267.804L425.321 223.485L474.201 269.764Z" fill="#3DD3B6"/>
<path d="M349.461 314.483L349.301 314.343L300.001 267.664L300.541 267.464L425.421 223.065L425.581 223.225L474.861 269.904L474.321 270.104L349.461 314.503V314.483ZM301.321 267.944L349.641 313.683L473.561 269.624L425.261 223.885L301.321 267.944Z" fill="#131A2D"/>
<path d="M442.14 269.944L434.18 272.784L404.26 244.464L412.24 241.624L442.14 269.944Z" fill="white"/>
<path d="M434.1 273.184L403.6 244.324L412.32 241.224L442.8 270.084L434.1 273.184ZM404.92 244.604L434.26 272.384L441.48 269.804L412.14 242.024L404.9 244.584L404.92 244.604Z" fill="#131A2D"/>
<path d="M368.859 291.743L365.159 293.063L341.779 270.924L345.479 269.604L368.859 291.743Z" fill="white"/>
<path d="M365.079 293.463L341.119 270.784L345.559 269.204L369.519 291.883L365.079 293.463ZM342.439 271.064L365.259 292.663L368.219 291.603L345.419 270.004L342.459 271.064H342.439Z" fill="#131A2D"/>
<path d="M356.439 292.204L352.739 293.524L335.439 277.144L339.139 275.824L356.439 292.204Z" fill="white"/>
<path d="M352.639 293.924L334.779 277.004L339.219 275.424L357.079 292.344L352.639 293.924ZM336.099 277.284L352.819 293.124L355.779 292.064L339.059 276.224L336.099 277.284Z" fill="#131A2D"/>
<path d="M507.96 250.284L404.34 322.203L338.24 283.784L441.86 211.885L507.96 250.284Z" fill="#992323"/>
<path d="M406.04 319.563L342.26 283.644V264.424L405.42 300.884L406.04 319.563Z" fill="white"/>
<path d="M406.42 320.183L405.88 319.883L341.9 283.864V263.844L405.76 300.704V300.904L406.4 320.203L406.42 320.183ZM342.62 283.444L405.68 318.963L405.08 301.104L342.6 265.044V283.444H342.62Z" fill="#131A2D"/>
<path d="M475.341 244.504L468.721 248.324L428.241 224.805L434.881 220.985L475.341 244.504Z" fill="#566B70"/>
<path d="M412.72 275.524L409.64 277.304L378 258.924L381.1 257.144L412.72 275.524Z" fill="#566B70"/>
<path d="M400.82 277.644L397.74 279.404L374.34 265.824L377.42 264.044L400.82 277.644Z" fill="#566B70"/>
<path d="M475.341 244.504L468.721 248.324L428.241 224.805L434.881 220.985L475.341 244.504Z" fill="#566B70"/>
<path d="M412.72 275.524L409.64 277.304L378 258.924L381.1 257.144L412.72 275.524Z" fill="#566B70"/>
<path d="M400.82 277.644L397.74 279.404L374.34 265.824L377.42 264.044L400.82 277.644Z" fill="#566B70"/>
<path d="M475.341 244.504L468.721 248.324L428.241 224.805L434.881 220.985L475.341 244.504Z" fill="#566B70"/>
<path d="M412.72 275.524L409.64 277.304L378 258.924L381.1 257.144L412.72 275.524Z" fill="#566B70"/>
<path d="M400.82 277.644L397.74 279.404L374.34 265.824L377.42 264.044L400.82 277.644Z" fill="#566B70"/>
<path d="M475.341 244.504L468.721 248.324L428.241 224.805L434.881 220.985L475.341 244.504Z" fill="#566B70"/>
<path d="M412.72 275.524L409.64 277.304L378 258.924L381.1 257.144L412.72 275.524Z" fill="#566B70"/>
<path d="M400.82 277.644L397.74 279.404L374.34 265.824L377.42 264.044L400.82 277.644Z" fill="#566B70"/>
<path d="M475.341 244.504L468.721 248.324L428.241 224.805L434.881 220.985L475.341 244.504Z" fill="#566B70"/>
<path d="M412.72 275.524L409.64 277.304L378 258.924L381.1 257.144L412.72 275.524Z" fill="#566B70"/>
<path d="M400.82 277.644L397.74 279.404L374.34 265.824L377.42 264.044L400.82 277.644Z" fill="#566B70"/>
<path d="M475.341 244.504L468.721 248.324L428.241 224.805L434.881 220.985L475.341 244.504Z" fill="#566B70"/>
<path d="M412.72 275.524L409.64 277.304L378 258.924L381.1 257.144L412.72 275.524Z" fill="#566B70"/>
<path d="M400.82 277.644L397.74 279.404L374.34 265.824L377.42 264.044L400.82 277.644Z" fill="#566B70"/>
<path d="M475.341 244.504L468.721 248.324L428.241 224.805L434.881 220.985L475.341 244.504Z" fill="#566B70"/>
<path d="M412.72 275.524L409.64 277.304L378 258.924L381.1 257.144L412.72 275.524Z" fill="#566B70"/>
<path d="M400.82 277.644L397.74 279.404L374.34 265.824L377.42 264.044L400.82 277.644Z" fill="#566B70"/>
<path d="M475.341 244.504L468.721 248.324L428.241 224.805L434.881 220.985L475.341 244.504Z" fill="#566B70"/>
<path d="M412.72 275.524L409.64 277.304L378 258.924L381.1 257.144L412.72 275.524Z" fill="#566B70"/>
<path d="M400.82 277.644L397.74 279.404L374.34 265.824L377.42 264.044L400.82 277.644Z" fill="#566B70"/>
<path d="M475.341 244.504L468.721 248.324L428.241 224.805L434.881 220.985L475.341 244.504Z" fill="#566B70"/>
<path d="M412.72 275.524L409.64 277.304L378 258.924L381.1 257.144L412.72 275.524Z" fill="#566B70"/>
<path d="M400.82 277.644L397.74 279.404L374.34 265.824L377.42 264.044L400.82 277.644Z" fill="#566B70"/>
<path d="M475.341 244.504L468.721 248.324L428.241 224.805L434.881 220.985L475.341 244.504Z" fill="#566B70"/>
<path d="M412.72 275.524L409.64 277.304L378 258.924L381.1 257.144L412.72 275.524Z" fill="#566B70"/>
<path d="M400.82 277.644L397.74 279.404L374.34 265.824L377.42 264.044L400.82 277.644Z" fill="#566B70"/>
<path d="M475.341 244.504L468.721 248.324L428.241 224.805L434.881 220.985L475.341 244.504Z" fill="#566B70"/>
<path d="M412.72 275.524L409.64 277.304L378 258.924L381.1 257.144L412.72 275.524Z" fill="#566B70"/>
<path d="M400.82 277.644L397.74 279.404L374.34 265.824L377.42 264.044L400.82 277.644Z" fill="#566B70"/>
<path d="M507.961 241.144L404.341 300.963L338.241 262.544L441.861 202.725L507.961 241.144Z" fill="#3DD3B6"/>
<path d="M404.341 301.363L404.161 301.264L337.521 262.544L441.841 202.325L442.021 202.425L508.641 241.145L404.321 301.363H404.341ZM338.941 262.544L404.341 300.544L507.261 241.125L441.861 203.125L338.941 262.544Z" fill="#131A2D"/>
<path d="M475.341 244.504L468.721 248.324L428.241 224.805L434.881 220.985L475.341 244.504Z" fill="white"/>
<path d="M468.72 248.724L468.54 248.624L427.54 224.805L434.86 220.565L435.04 220.665L476.04 244.484L468.72 248.704V248.724ZM428.96 224.805L468.72 247.904L474.64 244.484L434.88 221.385L428.96 224.805Z" fill="#131A2D"/>
<path d="M412.72 275.524L409.64 277.304L378 258.924L381.1 257.144L412.72 275.524Z" fill="white"/>
<path d="M409.641 277.704L409.461 277.604L377.301 258.924L381.081 256.744L381.261 256.844L413.421 275.524L409.641 277.704ZM378.721 258.924L409.641 276.904L412.021 275.524L381.101 257.544L378.721 258.924Z" fill="#131A2D"/>
<path d="M400.82 277.644L397.74 279.404L374.34 265.824L377.42 264.044L400.82 277.644Z" fill="white"/>
<path d="M397.741 279.824L397.561 279.724L373.641 265.824L377.421 263.644L377.601 263.744L401.521 277.644L397.741 279.824ZM375.061 265.824L397.741 279.004L400.121 277.624L377.441 264.444L375.061 265.824Z" fill="#131A2D"/>
<path d="M404.34 302.603L338.24 264.184V262.544L404.34 300.963C404.34 300.963 409.7 303.723 409.7 305.303L408.38 323.203C408.38 324.783 407.26 325.443 405.9 324.663L338.24 285.424V283.784L404.34 322.203V302.603Z" fill="#322C8D"/>
<path d="M509.52 242.044C510.9 242.824 512 244.764 512 246.344V263.384C512 264.184 511.72 264.744 511.26 265.004L407.659 324.823C408.119 324.563 408.399 324.003 408.399 323.203V306.163C408.399 304.583 407.279 302.643 405.919 301.863L404.359 300.983L507.98 241.164L509.52 242.044Z" fill="#131A2D"/>
<path d="M407.199 247.964C407.199 250.444 409.219 252.464 411.699 252.464C411.919 252.464 412.139 252.424 412.339 252.404L414.919 257.944C413.999 258.764 413.419 259.944 413.419 261.264C413.419 263.744 415.439 265.764 417.919 265.764C420.399 265.764 422.419 263.744 422.419 261.264C422.419 260.884 422.359 260.544 422.279 260.204L431.519 254.864C432.319 255.604 433.379 256.064 434.559 256.064C437.039 256.064 439.059 254.044 439.059 251.564C439.059 249.084 437.039 247.084 434.559 247.084C434.219 247.084 433.919 247.124 433.599 247.184L426.139 237.925C426.639 237.205 426.939 236.325 426.939 235.385C426.939 232.905 424.919 230.885 422.439 230.885C419.959 230.885 417.939 232.885 417.939 235.385C417.939 236.105 418.119 236.785 418.419 237.385L413.179 243.725C412.719 243.565 412.219 243.465 411.719 243.465C409.239 243.465 407.219 245.465 407.219 247.964H407.199ZM430.519 249.584L421.539 248.204L423.059 239.825C423.439 239.765 423.779 239.685 424.119 239.545L431.299 248.444C430.979 248.784 430.719 249.164 430.499 249.584H430.519ZM419.899 257.244L421.099 250.704L430.119 252.104C430.139 252.304 430.159 252.484 430.219 252.684L420.999 258.004C420.679 257.704 420.299 257.464 419.919 257.264L419.899 257.244ZM419.019 247.804L416.139 247.364C416.019 246.564 415.719 245.845 415.239 245.225L420.159 239.265C420.279 239.345 420.399 239.405 420.539 239.465L419.019 247.804ZM414.659 251.304C415.119 250.904 415.479 250.424 415.739 249.864L418.559 250.304L417.379 256.804C417.379 256.804 417.259 256.804 417.219 256.804L414.659 251.284V251.304Z" fill="white"/>
<path d="M417.9 266.104C415.22 266.104 413.06 263.924 413.06 261.264C413.06 260.004 413.58 258.764 414.48 257.864L412.12 252.784C411.96 252.804 411.82 252.824 411.68 252.824C409 252.824 406.84 250.644 406.84 247.984C406.84 245.324 409.02 243.144 411.68 243.144C412.12 243.144 412.56 243.204 413.02 243.344L417.98 237.364C417.7 236.724 417.56 236.084 417.56 235.424C417.56 232.764 419.74 230.584 422.4 230.584C425.06 230.584 427.24 232.764 427.24 235.424C427.24 236.304 427 237.184 426.54 237.944L433.72 246.844C436.76 246.324 439.38 248.664 439.38 251.604C439.38 254.284 437.2 256.444 434.54 256.444C433.42 256.444 432.34 256.044 431.48 255.324L422.68 260.404C422.74 260.724 422.78 261.024 422.78 261.304C422.78 263.964 420.6 266.144 417.94 266.144L417.9 266.104ZM412.46 252.004L412.66 252.224L415.34 258.004L415.14 258.184C414.26 258.984 413.76 260.084 413.76 261.244C413.76 263.524 415.62 265.384 417.9 265.384C420.18 265.384 422.04 263.524 422.04 261.244C422.04 260.944 422 260.624 421.92 260.264L421.86 260.004L431.56 254.404L431.76 254.584C432.54 255.284 433.52 255.684 434.54 255.684C436.82 255.684 438.68 253.824 438.68 251.544C438.68 249.264 436.82 247.404 434.54 247.404C434.26 247.404 433.96 247.444 433.66 247.504L433.44 247.544L433.3 247.364L425.68 237.904L425.82 237.684C426.3 236.984 426.54 236.184 426.54 235.344C426.54 233.064 424.68 231.204 422.4 231.204C420.12 231.204 418.26 233.064 418.26 235.344C418.26 235.964 418.42 236.584 418.72 237.184L418.82 237.384L413.28 244.104L413.06 244.024C412.58 243.864 412.14 243.784 411.72 243.784C409.44 243.784 407.58 245.644 407.58 247.924C407.58 250.204 409.44 252.064 411.72 252.064C411.9 252.064 412.06 252.044 412.24 252.024L412.5 251.984L412.46 252.004ZM420.92 258.424L420.74 258.244C420.44 257.964 420.12 257.744 419.74 257.564L419.5 257.444L420.8 250.304L430.42 251.804L430.46 252.064C430.46 252.244 430.5 252.424 430.54 252.584L430.6 252.844L420.92 258.424ZM420.28 257.044C420.54 257.184 420.78 257.364 421.02 257.544L429.8 252.484C429.8 252.484 429.8 252.424 429.8 252.404L421.38 251.104L420.3 257.064L420.28 257.044ZM417.08 257.184L416.88 256.964L414.2 251.204L414.4 251.024C414.82 250.644 415.16 250.204 415.4 249.704L415.52 249.464L418.96 250.004L417.66 257.124L417.08 257.184ZM415.08 251.384L417.18 255.904L418.14 250.584L415.92 250.244C415.7 250.664 415.4 251.044 415.06 251.384H415.08ZM430.72 249.964L421.12 248.484L422.74 239.504L423 239.464C423.38 239.404 423.7 239.324 423.98 239.204L424.22 239.104L424.38 239.304L431.76 248.464L431.54 248.684C431.26 248.984 431.02 249.324 430.82 249.724L430.7 249.964H430.72ZM421.94 247.904L430.32 249.204C430.46 248.924 430.64 248.664 430.84 248.444L424 239.964C423.8 240.024 423.58 240.084 423.36 240.124L421.94 247.904ZM419.3 248.204L415.82 247.664L415.78 247.404C415.68 246.684 415.4 246.004 414.96 245.444L414.78 245.224L420.08 238.824L420.34 238.964C420.48 239.044 420.58 239.104 420.7 239.164L420.94 239.284L419.32 248.224L419.3 248.204ZM416.42 247.044L418.72 247.404L420.1 239.884L415.68 245.244C416.06 245.784 416.3 246.404 416.44 247.044H416.42Z" fill="#131A2D"/>
<path d="M377.82 282.344L378.78 280.384L389.42 285.624L388.46 287.564L427.4 304.363L427.54 306.883L377.22 409.462L339.22 390.722C335.6 392.662 332.039 391.562 328.579 385.482L290.579 366.742L290.439 364.222L340.9 264.164L377.78 282.364L377.82 282.344Z" fill="#131A2D"/>
<path d="M427.421 304.363L377.101 406.942L337.461 387.382L387.781 284.804L427.421 304.363Z" fill="#3DD3B6"/>
<path d="M377.26 407.422L376.94 407.262L337 387.542L337.16 387.222L387.64 284.324L387.96 284.484L427.9 304.203L427.74 304.523L377.26 407.422ZM337.94 387.222L376.94 406.462L426.96 304.523L387.96 285.284L337.94 387.222Z" fill="#131A2D"/>
<path d="M380.441 281.184L330.101 383.762L290.461 364.202L340.801 261.624L380.441 281.184Z" fill="#3DD3B6"/>
<path d="M330.26 384.222L329.94 384.062L290 364.342L290.16 364.022L340.64 261.124L340.96 261.284L380.92 281.004L380.76 281.324L330.28 384.222H330.26ZM290.92 364.022L329.92 383.262L379.92 281.324L340.92 262.084L290.9 364.022H290.92Z" fill="#131A2D"/>
<path d="M375.441 270.064C378.521 271.184 381.441 278.044 381.841 285.104L335.201 380.322L295.141 353.262L341.801 258.164L375.461 270.064H375.441Z" fill="white"/>
<path d="M335.32 380.842L334.98 380.622L294.66 353.403L341.58 257.744L341.88 257.844L375.54 269.744C378.78 270.924 381.74 277.804 382.16 285.084C382.16 285.164 366.6 316.963 335.48 380.482L335.3 380.842H335.32ZM295.58 353.143L335.06 379.802C338.16 373.482 380.02 288.024 381.48 285.024C381.06 278.144 378.26 271.464 375.32 270.384L341.96 258.604L295.58 353.143Z" fill="#131A2D"/>
<path d="M386.859 275.704L421.059 297.303L423.459 305.783C423.459 305.783 421.379 304.763 418.179 303.183L374.419 392.402L336.279 372.342L382.939 277.244C383.859 275.384 385.239 274.704 386.879 275.724L386.859 275.704Z" fill="white"/>
<path d="M374.561 392.862L335.801 372.462L335.941 372.162L382.601 277.064C383.161 275.924 383.901 275.204 384.741 274.964C385.461 274.764 386.241 274.904 387.021 275.384L421.341 297.064L421.381 297.184L424.001 306.423L418.321 303.623L374.541 392.862H374.561ZM336.721 372.162L374.241 391.902L418.001 302.683L422.881 305.103L420.741 297.524L386.641 276.004C386.021 275.624 385.441 275.504 384.921 275.644C384.281 275.824 383.681 276.424 383.221 277.384L336.721 372.162Z" fill="#131A2D"/>
<path d="M423.46 305.763L376.82 400.862L374.42 392.382L421.06 297.283L423.46 305.763Z" fill="#131A2D"/>
<path d="M328.781 365.163C331.861 366.282 334.781 373.162 335.181 380.202C335.181 380.342 293.561 359.803 293.561 359.803L295.121 353.283L328.781 365.163Z" fill="white"/>
<path d="M335.3 380.522C334.86 380.522 331.76 379.022 293.42 360.123L293.16 360.003L294.88 352.823L295.24 352.963L328.9 364.843C332.14 366.003 335.12 372.902 335.52 380.182V380.382L335.36 380.502C335.36 380.502 335.32 380.522 335.28 380.522H335.3ZM293.98 359.603C307.14 366.083 331.02 377.862 334.8 379.642C334.3 372.942 331.54 366.543 328.68 365.503L295.38 353.743L293.98 359.603Z" fill="#131A2D"/>
<path d="M336.281 372.322C337.201 370.462 338.581 369.782 340.221 370.802L374.421 392.402L376.821 400.882C376.821 400.882 335.201 380.342 335.181 380.222C334.981 376.842 335.421 374.082 336.281 372.342V372.322Z" fill="white"/>
<path d="M377.36 401.522L376.66 401.162C348.78 387.415 334.84 380.429 334.84 380.202C334.66 376.882 335.04 374.022 335.96 372.162C336.52 371.022 337.26 370.302 338.1 370.062C338.82 369.862 339.6 370.002 340.38 370.502L374.7 392.162L374.74 392.282L377.36 401.522ZM335.52 379.982C337.68 381.142 362.46 393.382 376.26 400.202L374.12 392.622L340.02 371.102C339.4 370.722 338.82 370.602 338.3 370.762C337.66 370.942 337.06 371.542 336.6 372.502C335.76 374.222 335.38 376.882 335.54 380.022L335.52 379.982Z" fill="#131A2D"/>
<g style="mix-blend-mode:multiply">
<path d="M329.941 464.581L227.201 405.102C224.481 403.502 220.041 403.502 217.301 405.102L147.001 445.601C144.241 447.181 144.221 449.761 146.961 451.321L249.701 510.8C252.421 512.4 256.861 512.4 259.601 510.8L329.901 470.301C332.661 468.721 332.661 466.141 329.941 464.561V464.581Z" fill="#C1C2C7"/>
</g>
<path d="M331.96 463.801C331.96 464.841 331.28 465.881 329.9 466.681L259.6 507.18C256.86 508.76 252.42 508.76 249.7 507.18L146.96 447.721C145.6 446.941 144.94 445.901 144.92 444.881V448.501C144.92 449.521 145.6 450.561 146.96 451.341L249.7 510.8C252.42 512.38 256.86 512.38 259.6 510.8L329.9 470.301C331.28 469.501 331.96 468.461 331.96 467.421V463.801Z" fill="#131A2D"/>
<path d="M329.941 460.961L227.201 401.482C224.481 399.882 220.041 399.882 217.301 401.482L147.001 441.981C144.241 443.561 144.221 446.121 146.961 447.701L249.701 507.18C252.421 508.78 256.861 508.78 259.601 507.18L329.901 466.681C332.661 465.101 332.661 462.521 329.941 460.961Z" fill="white"/>
<path d="M249.619 507.28L146.879 447.801C145.519 447.021 144.779 445.961 144.779 444.841C144.779 443.701 145.539 442.641 146.919 441.841L217.219 401.342C219.999 399.742 224.499 399.742 227.239 401.342L329.98 460.821C331.34 461.601 332.08 462.661 332.08 463.781C332.08 464.921 331.32 465.98 329.94 466.78L259.639 507.28C258.259 508.08 256.439 508.48 254.639 508.48C252.839 508.48 250.999 508.08 249.619 507.26V507.28ZM217.359 401.582L147.059 442.081C145.759 442.821 145.059 443.801 145.059 444.841C145.059 445.861 145.759 446.841 147.019 447.581L249.759 507.06C252.439 508.62 256.819 508.64 259.519 507.06L329.82 466.56C331.12 465.82 331.82 464.84 331.82 463.801C331.82 462.781 331.12 461.801 329.859 461.061L227.119 401.582C225.779 400.802 223.999 400.402 222.239 400.402C220.479 400.402 218.719 400.782 217.359 401.562V401.582Z" fill="#131A2D"/>
<path d="M325.341 459.761L247.521 504.6L146.641 446.101L224.461 401.262L325.341 459.761Z" fill="white"/>
<path d="M146.559 446.201L146.359 446.081L224.379 401.142L224.439 401.102L325.4 459.641L325.6 459.761L247.579 504.7L247.52 504.74L146.559 446.201ZM224.439 401.402L146.879 446.081L247.499 504.42L325.06 459.741L224.439 401.402Z" fill="#131A2D"/>
<path d="M160.541 457.381L154.481 453.881C154.201 453.721 153.961 453.841 153.961 454.181V454.341C153.961 454.681 154.181 455.081 154.481 455.241L160.541 458.74C160.821 458.9 161.061 458.761 161.061 458.441V458.281C161.061 457.941 160.821 457.541 160.541 457.381Z" fill="white"/>
<path d="M160.48 458.861L154.42 455.361C154.1 455.181 153.84 454.721 153.84 454.341V454.181C153.84 453.961 153.92 453.801 154.06 453.721C154.2 453.641 154.38 453.661 154.56 453.761L160.62 457.261C160.94 457.441 161.2 457.901 161.2 458.281V458.441C161.2 458.641 161.12 458.821 160.98 458.901C160.92 458.941 160.86 458.961 160.78 458.961C160.68 458.961 160.58 458.941 160.48 458.881V458.861ZM154.2 453.961C154.2 453.961 154.12 454.081 154.12 454.181V454.341C154.12 454.621 154.32 454.981 154.58 455.121L160.64 458.621C160.64 458.621 160.82 458.681 160.88 458.661C160.94 458.621 160.96 458.541 160.96 458.441V458.281C160.96 458.001 160.76 457.641 160.5 457.501L154.44 454.001C154.44 454.001 154.32 453.941 154.28 453.941C154.26 453.941 154.24 453.941 154.22 453.941L154.2 453.961Z" fill="#131A2D"/>
<path d="M161.399 457.781C161.359 457.661 161.299 457.541 161.219 457.441C161.139 457.321 161.039 457.221 160.919 457.161L154.859 453.661C154.719 453.581 154.599 453.561 154.499 453.621L154.119 453.841C154.119 453.841 154.339 453.801 154.479 453.881L160.539 457.381C160.639 457.441 160.759 457.541 160.839 457.661C160.919 457.761 160.979 457.881 161.019 458.001C161.059 458.101 161.079 458.201 161.079 458.301V458.461C161.079 458.621 161.019 458.741 160.919 458.801L161.299 458.581C161.299 458.581 161.459 458.401 161.459 458.241V458.081C161.459 458.081 161.459 457.881 161.399 457.781Z" fill="#EFEFF4"/>
<path d="M167.3 460.941C167.22 460.821 167.12 460.741 167 460.661L164.14 459.001C164 458.921 163.86 458.901 163.78 458.961L163.4 459.181C163.4 459.181 163.62 459.141 163.76 459.221L166.62 460.881C166.72 460.941 166.84 461.041 166.92 461.161C167 461.261 167.06 461.381 167.1 461.501C167.14 461.601 167.16 461.701 167.16 461.801V461.961C167.16 462.121 167.1 462.241 167 462.301L167.38 462.081C167.38 462.081 167.54 461.901 167.54 461.741V461.581C167.54 461.581 167.54 461.381 167.48 461.281C167.44 461.161 167.38 461.041 167.3 460.941Z" fill="#EFEFF4"/>
<path d="M166.62 460.881L163.76 459.221C163.48 459.061 163.24 459.181 163.24 459.521V459.681C163.24 460.021 163.46 460.421 163.76 460.581L166.62 462.241C166.9 462.401 167.14 462.261 167.14 461.941V461.781C167.14 461.441 166.9 461.041 166.62 460.881Z" fill="white"/>
<path d="M166.559 462.361L163.699 460.701C163.379 460.521 163.119 460.061 163.119 459.681V459.521C163.119 459.301 163.199 459.141 163.339 459.061C163.479 458.981 163.659 459.001 163.839 459.101L166.699 460.761C167.019 460.941 167.279 461.401 167.279 461.781V461.941C167.279 462.141 167.199 462.321 167.059 462.401C166.999 462.441 166.939 462.461 166.859 462.461C166.759 462.461 166.659 462.441 166.559 462.381V462.361ZM163.459 459.301C163.459 459.301 163.379 459.421 163.379 459.521V459.681C163.379 459.961 163.579 460.321 163.839 460.461L166.699 462.121C166.699 462.121 166.879 462.181 166.939 462.161C166.999 462.121 167.019 462.041 167.019 461.941V461.781C167.019 461.501 166.819 461.141 166.579 461.001L163.719 459.341C163.719 459.341 163.599 459.281 163.559 459.281C163.539 459.281 163.519 459.281 163.499 459.281L163.459 459.301Z" fill="#131A2D"/>
<path d="M189.979 418.801L180.779 424.121C180.499 424.281 180.459 424.541 180.719 424.681C180.959 424.821 181.399 424.801 181.679 424.641L190.879 419.321C191.159 419.161 191.199 418.901 190.939 418.761C190.699 418.621 190.259 418.641 189.979 418.801Z" fill="#131A2D"/>
<mask id="mask0_36_33002" style="mask-type:luminance" maskUnits="userSpaceOnUse" x="146" y="401" width="180" height="104">
<path d="M325.341 459.761L247.521 504.6L146.641 446.101L224.461 401.262L325.341 459.761Z" fill="white"/>
</mask>
<g mask="url(#mask0_36_33002)">
<path d="M251.141 455.941C253.921 454.841 260.661 454.261 262.961 452.261C265.281 450.261 263.401 448.941 260.621 448.401C257.741 447.841 255.281 448.161 254.101 448.521C252.921 448.881 249.401 449.521 245.481 448.761C242.321 448.141 241.681 450.821 241.581 451.941C241.481 453.221 241.361 460.641 241.361 460.641L250.061 459.221C250.061 459.221 249.961 456.381 251.141 455.921V455.941Z" fill="black"/>
<path d="M247.521 503.34C249.121 494.42 251.881 463.56 251.741 459.12C251.681 456.781 240.541 452.541 239.601 457.761C236.401 475.6 233.781 497.1 233.801 499.44C233.801 506.58 246.521 508.96 247.521 503.34Z" fill="#131A2D"/>
<path d="M212.901 469.681C213.101 471.261 213.741 472.481 213.741 472.481L221.321 471.021C221.321 471.021 221.581 469.981 221.521 469.501C221.461 469.021 221.881 464.521 222.341 462.501C222.801 460.481 222.821 456.561 220.061 455.621C217.281 454.681 216.221 455.601 214.181 457.901C212.121 460.221 212.181 462.661 212.301 463.661C212.401 464.661 212.701 468.081 212.901 469.661V469.681Z" fill="black"/>
<path d="M227.46 516.36C227.46 507.28 224.74 476.4 223.84 472.08C223.36 469.78 211.68 467.98 211.68 473.3C211.68 491.48 212.88 513.12 213.3 515.42C214.56 522.42 227.46 522.08 227.46 516.36Z" fill="black"/>
<path d="M245.68 547.339C248.88 529.5 248.26 500.82 248.24 498.48C248.24 491.34 235.88 489.5 234.2 494.9C232.9 499.06 230.44 513.56 229.46 517.76C228.48 521.96 226.7 528.22 226.84 532.66C226.9 534.999 244.74 552.539 245.68 547.319V547.339Z" fill="#131A2D"/>
<path d="M232.381 560.019C232.381 541.839 227.721 513.74 227.301 511.44C226.021 504.44 213.601 505.22 212.881 510.88C212.341 515.22 210.081 546.039 211.661 551.939C212.261 554.199 232.381 565.339 232.381 560.019Z" fill="#433BB4"/>
</g>
<g opacity="0.6">
<path d="M146.639 446.101L148.199 447.001L247.539 504.6L325.339 459.761L293.919 441.541L267.079 425.961L257.419 420.381L244.019 412.602L224.459 401.262L202.039 414.181L186.679 423.021L175.619 429.401L146.639 446.101Z" fill="#3DD3B6"/>
<path d="M148.119 447.101L146.359 446.081L224.379 401.142L224.439 401.102L325.4 459.641L325.6 459.761L247.579 504.72L247.52 504.76L148.119 447.121V447.101ZM224.439 401.402L146.879 446.081L247.52 504.44L325.08 459.761L224.439 401.422V401.402Z" fill="#131A2D"/>
</g>
<g style="mix-blend-mode:screen" opacity="0.16">
<path d="M146.641 446.101L148.201 447.001L293.921 441.541L267.081 425.961L175.621 429.401L146.641 446.101Z" fill="white"/>
</g>
<g style="mix-blend-mode:screen" opacity="0.16">
<path d="M186.68 423.021L257.42 420.381L244.02 412.601L202.04 414.181L186.68 423.021Z" fill="white"/>
</g>
<path d="M280.22 330.703C279.32 331.283 276.42 331.223 275.98 331.243C275.54 331.243 275.42 336.503 275.42 336.503C275.42 336.503 279.88 336.663 280.88 337.023C281.9 337.403 282.28 337.343 284.5 337.383C287.04 337.423 285.98 335.823 288.18 335.363C288.48 335.303 289 334.083 288.74 333.363C288.46 332.623 286.2 333.523 285.18 332.303C284.82 331.863 285.6 331.843 285.92 331.803C286.7 331.643 288.32 331.483 288.46 330.403C288.64 329.023 286.4 330.363 284.24 329.883C283.6 329.743 281.12 330.163 280.22 330.743V330.703Z" fill="white"/>
<path d="M284.521 337.523C284.181 337.523 283.861 337.523 283.601 337.523C282.161 337.523 281.721 337.503 280.861 337.183C279.881 336.823 275.481 336.663 275.441 336.663H275.301V336.523C275.421 331.143 275.861 331.123 276.001 331.123C276.061 331.123 276.141 331.123 276.241 331.123C277.021 331.123 279.381 331.103 280.161 330.603C281.121 330.003 283.621 329.583 284.281 329.723C285.181 329.923 286.121 329.803 286.881 329.703C287.641 329.603 288.181 329.523 288.461 329.803C288.601 329.943 288.641 330.143 288.621 330.403C288.481 331.483 287.081 331.723 286.241 331.883C286.161 331.883 286.061 331.903 286.001 331.923C285.941 331.923 285.881 331.923 285.821 331.943C285.681 331.943 285.321 332.003 285.281 332.083C285.281 332.083 285.281 332.123 285.341 332.203C285.881 332.843 286.821 332.863 287.561 332.883C288.201 332.883 288.761 332.903 288.921 333.303C289.121 333.823 288.941 334.603 288.681 335.083C288.541 335.323 288.401 335.463 288.281 335.483C287.321 335.683 287.001 336.103 286.721 336.523C286.361 337.023 286.021 337.503 284.681 337.503C284.641 337.503 284.601 337.503 284.581 337.503L284.521 337.523ZM286.901 329.963C286.121 330.063 285.161 330.203 284.221 329.983C283.601 329.843 281.181 330.263 280.301 330.823C279.461 331.343 277.121 331.363 276.241 331.383C276.161 331.383 276.081 331.383 276.041 331.383C275.821 331.663 275.641 334.103 275.581 336.383C276.341 336.403 280.021 336.563 280.961 336.903C281.801 337.203 282.181 337.223 283.621 337.223C283.881 337.223 284.201 337.223 284.541 337.223C285.841 337.223 286.121 336.823 286.461 336.343C286.761 335.903 287.121 335.423 288.181 335.203C288.201 335.203 288.301 335.143 288.401 334.923C288.641 334.503 288.801 333.823 288.621 333.363C288.541 333.123 288.061 333.123 287.521 333.103C286.721 333.103 285.701 333.063 285.101 332.323C284.981 332.183 284.941 332.043 285.001 331.943C285.101 331.723 285.441 331.663 285.761 331.623C285.821 331.623 285.881 331.623 285.921 331.603C286.001 331.603 286.081 331.583 286.181 331.563C287.001 331.423 288.241 331.203 288.361 330.323C288.381 330.143 288.361 330.023 288.281 329.943C288.201 329.863 288.041 329.823 287.841 329.823C287.601 329.823 287.281 329.863 286.921 329.923L286.901 329.963Z" fill="black"/>
<path d="M232.06 308.103C237.44 308.783 242.18 310.003 248.36 322.303C254.52 334.603 256.24 337.303 255.08 340.263C253.94 343.223 249.64 346.743 243.38 337.203C237.14 327.663 230.16 321.223 229.3 319.643C225.2 312.183 228.6 307.663 232.06 308.103Z" fill="black"/>
<path d="M252.899 343.623C262.999 344.523 279.04 338.323 279.04 338.323C281.06 332.443 276.299 330.323 276.299 330.323C276.299 330.323 265.74 332.983 253.239 332.983C246.879 332.983 242.799 342.723 252.899 343.623Z" fill="black"/>
<path d="M251.001 443.661C253.781 444.761 260.521 445.341 262.821 447.341C265.141 449.341 263.261 450.661 260.481 451.201C257.601 451.761 255.141 451.441 253.961 451.081C252.781 450.721 249.261 450.081 245.341 450.841C242.181 451.461 241.541 448.801 241.441 447.661C241.341 446.381 241.221 438.961 241.221 438.961L249.921 440.381C249.921 440.381 249.821 443.221 251.001 443.681V443.661Z" fill="black"/>
<path d="M247.4 396.262C249 405.182 251.76 436.041 251.62 440.481C251.56 442.821 240.42 447.061 239.48 441.841C236.28 424.001 233.66 402.502 233.68 400.162C233.68 393.022 246.4 390.642 247.4 396.262Z" fill="#131A2D"/>
<path d="M212.779 451.381C212.979 449.801 213.619 448.581 213.619 448.581L221.199 450.041C221.199 450.041 221.459 451.081 221.399 451.561C221.339 452.041 221.759 456.541 222.219 458.561C222.679 460.561 222.699 464.481 219.939 465.441C217.159 466.381 216.099 465.481 214.059 463.161C211.999 460.841 212.059 458.401 212.179 457.401C212.279 456.401 212.579 452.981 212.779 451.401V451.381Z" fill="black"/>
<path d="M227.319 404.702C227.319 413.781 224.599 444.661 223.699 448.981C223.219 451.281 211.539 453.081 211.539 447.761C211.539 429.581 212.739 407.941 213.159 405.641C214.419 398.642 227.319 398.982 227.319 404.702Z" fill="black"/>
<path d="M245.539 352.263C248.739 370.102 248.119 398.782 248.099 401.122C248.099 408.262 235.739 410.102 234.059 404.702C232.759 400.542 230.299 386.042 229.319 381.842C228.339 377.642 226.559 371.382 226.699 366.943C226.759 364.603 244.599 347.063 245.539 352.283V352.263Z" fill="#131A2D"/>
<path d="M232.26 361.042C232.26 379.222 227.6 407.322 227.18 409.622C225.9 416.622 213.48 415.842 212.76 410.182C212.22 405.822 209.96 375.022 211.54 369.122C212.14 366.862 232.26 355.723 232.26 361.042Z" fill="black"/>
<path d="M216 308.823C216.4 307.803 217.02 306.543 217.94 305.623C218.48 305.083 220.52 304.823 220.52 304.823L231.281 307.543C231.281 307.543 237.361 308.943 238.861 310.143C245.501 315.323 248.881 373.222 248.561 373.622C248.241 374.042 240.841 379.462 237.721 380.362L234.921 375.762L233.081 382.482C224.04 384.822 209.96 385.142 209.96 385.142L205.48 319.023L213.68 312.103C214.72 311.223 215.5 310.083 216 308.803V308.823Z" fill="#131A2D"/>
<path d="M231.84 308.783C232.74 309.483 233.4 310.443 233.78 311.523L237.22 317.223L234.7 319.003L237.02 321.283L232.26 334.883C232.26 334.883 230.38 323.843 230.66 320.363C230.9 317.323 230.66 314.623 230.84 312.983C231.3 308.843 228.48 307.783 228.48 307.783C229.7 307.423 230.94 308.083 231.84 308.803V308.783Z" fill="#130000"/>
<path d="M218.56 304.843C222.56 301.723 229.84 306.563 231.5 312.683C232.2 315.243 232.22 325.863 232.2 326.703C232.1 330.443 232.02 332.743 232.02 332.743C231.2 330.223 225.54 320.843 224.48 319.063C222.58 315.903 220.78 313.223 219.52 311.683C216.36 307.763 217.28 305.863 218.56 304.863V304.843Z" fill="white"/>
<path d="M231.899 332.763C231.379 331.143 228.699 326.323 224.379 319.123C222.499 316.003 220.699 313.323 219.419 311.743C217.839 309.783 217.119 308.104 217.259 306.784C217.359 305.984 217.759 305.304 218.479 304.744C219.859 303.664 221.739 303.444 223.779 304.124C227.319 305.304 230.619 308.884 231.639 312.643C232.339 315.243 232.359 326.023 232.339 326.703C232.239 330.383 232.159 332.703 232.159 332.743V333.503L231.899 332.783V332.763ZM218.659 304.944C217.999 305.464 217.619 306.084 217.539 306.804C217.399 308.064 218.099 309.664 219.639 311.563C220.919 313.143 222.739 315.843 224.619 318.983C226.919 322.823 230.759 329.303 231.919 332.043C231.959 331.103 232.019 329.223 232.079 326.663C232.079 325.983 232.079 315.243 231.379 312.683C230.379 309.004 227.159 305.504 223.699 304.364C223.059 304.144 222.299 303.984 221.519 303.984C220.579 303.984 219.559 304.224 218.659 304.924V304.944Z" fill="black"/>
<path d="M231.9 315.663C232.12 317.863 232.34 320.923 232.26 323.983C232.24 324.943 232.22 325.863 232.2 326.703L231.1 330.003C231.1 330.003 227.86 325.083 227.66 324.683C226.64 322.743 225.54 320.823 224.48 319.063L227.86 314.863L231.88 315.683L231.9 315.663Z" fill="white"/>
<path d="M231 330.063C230.86 329.863 227.76 325.123 227.54 324.723C226.54 322.843 225.48 320.963 224.36 319.123L224.32 319.043L227.82 314.703L232.02 315.543V315.643C232.24 317.703 232.48 320.803 232.4 323.983V325.043C232.36 325.623 232.34 326.163 232.34 326.683L231.16 330.283L231 330.063ZM232.12 325.043V323.983C232.22 320.883 232 317.823 231.8 315.783L227.94 315.003L224.66 319.063C225.76 320.883 226.8 322.743 227.8 324.603C227.98 324.943 230.44 328.703 231.08 329.683L232.08 326.663C232.08 326.143 232.1 325.603 232.12 325.043Z" fill="black"/>
<path d="M219.88 301.543C219.88 301.543 228.8 306.383 228.8 308.603C228.8 310.823 226.42 312.683 226.42 312.683C223.16 312.683 219.98 309.163 218.82 307.723C218.52 307.363 218.46 306.863 218.62 306.423C219.74 303.343 219.88 301.563 219.88 301.563V301.543Z" fill="white"/>
<path d="M218.721 307.803C218.401 307.403 218.321 306.863 218.501 306.363C219.601 303.343 219.761 301.543 219.761 301.523V301.323L219.961 301.423C220.321 301.623 228.941 306.343 228.941 308.603C228.941 310.843 226.621 312.703 226.521 312.783H226.481L226.441 312.803C223.141 312.803 219.961 309.303 218.741 307.803H218.721ZM218.741 306.463C218.601 306.863 218.661 307.323 218.921 307.643C220.101 309.103 223.201 312.523 226.361 312.543C226.661 312.303 228.661 310.583 228.661 308.603C228.661 306.623 221.221 302.443 219.981 301.763C219.921 302.323 219.641 303.943 218.741 306.463Z" fill="black"/>
<path d="M217.8 296.464C217.8 296.464 214.94 285.044 225.24 284.764C235.54 284.484 234.24 296.104 233.72 297.244C233.2 298.384 233.96 298.224 233.9 300.223C233.82 302.883 231.58 306.323 231.26 307.503C230.94 308.683 229.4 309.123 228.22 308.723C221.5 306.423 219.94 302.463 219.94 302.463C218.9 302.683 218.38 301.323 218.18 300.603C217.98 299.884 217.88 299.723 217.46 298.244C217.04 296.784 217.82 296.444 217.82 296.444L217.8 296.464Z" fill="white"/>
<path d="M228.159 308.883C222.039 306.803 220.139 303.283 219.839 302.643C219.059 302.723 218.419 302.043 218.039 300.663C217.959 300.384 217.899 300.183 217.819 299.963C217.699 299.624 217.579 299.204 217.319 298.324C216.959 297.064 217.439 296.564 217.659 296.424C217.499 295.664 216.499 290.644 218.939 287.424C220.279 285.664 222.399 284.724 225.239 284.664C228.559 284.564 231.019 285.704 232.539 288.004C234.779 291.384 234.239 296.484 233.839 297.344C233.579 297.884 233.659 298.104 233.779 298.464C233.899 298.824 234.059 299.304 234.019 300.283C233.959 302.143 232.899 304.323 232.099 305.923C231.759 306.623 231.459 307.243 231.359 307.603C231.219 308.083 230.899 308.483 230.399 308.743C230.019 308.943 229.539 309.063 229.079 309.063C228.759 309.063 228.439 309.003 228.139 308.903L228.159 308.883ZM225.239 284.924C222.479 285.004 220.419 285.904 219.139 287.584C216.579 290.944 217.899 296.384 217.919 296.444V296.544L217.839 296.584C217.819 296.584 217.199 296.904 217.559 298.224C217.799 299.104 217.939 299.503 218.059 299.863C218.139 300.083 218.199 300.283 218.279 300.583C218.499 301.323 218.979 302.543 219.879 302.363H219.999L220.039 302.443C220.039 302.483 221.659 306.383 228.239 308.623C228.899 308.843 229.699 308.803 230.279 308.483C230.699 308.263 230.979 307.923 231.099 307.503C231.199 307.123 231.499 306.523 231.859 305.783C232.639 304.203 233.679 302.043 233.739 300.243C233.759 299.304 233.619 298.844 233.499 298.524C233.379 298.124 233.279 297.844 233.559 297.204C233.839 296.604 234.579 291.584 232.279 288.124C230.859 285.984 228.619 284.904 225.579 284.904C225.459 284.904 225.339 284.904 225.219 284.904L225.239 284.924Z" fill="black"/>
<path d="M225.879 284.024C235.519 284.444 236.259 295.083 232.699 295.083C228.719 295.083 224.679 290.903 222.659 291.863C220.279 293.003 222.019 294.243 222.019 299.023C222.019 299.023 221.879 300.703 221.419 300.703C220.779 300.703 220.399 298.983 220.279 298.563C220.079 297.803 218.639 295.563 217.379 297.463C213.919 289.683 218.879 283.724 225.879 284.024Z" fill="#131A2D"/>
<path d="M227.879 314.863L230.559 315.403V319.023C231.539 320.423 231.899 321.043 232.299 323.683L232.239 334.883C232.239 334.883 228.479 326.403 227.659 324.683C227.439 321.883 227.659 320.343 228.019 319.703C226.639 318.183 226.119 317.063 226.119 317.063L227.859 314.883L227.879 314.863Z" fill="#3DD3B6"/>
<path d="M232.12 334.923C232.12 334.923 228.34 326.423 227.54 324.723V324.683C227.28 321.583 227.62 320.243 227.88 319.703C226.54 318.223 226.04 317.143 226.02 317.083L225.98 317.003L227.82 314.703L230.68 315.283V318.963C231.66 320.363 232.02 320.983 232.42 323.663L232.36 335.463L232.12 334.903V334.923ZM227.92 315.003L226.28 317.063C226.42 317.323 226.96 318.343 228.12 319.603L228.18 319.663L228.14 319.743C227.94 320.103 227.52 321.323 227.78 324.623C228.48 326.103 231.26 332.363 232.12 334.263L232.18 323.703C231.78 321.083 231.42 320.463 230.44 319.083V319.043V315.483L227.94 314.983L227.92 315.003Z" fill="#131A2D"/>
<path d="M203.159 340.223C205.299 352.543 205.499 355.443 208.159 356.983C210.119 358.123 213.639 358.563 215.179 354.563C215.719 353.143 216.019 351.163 215.899 348.443C215.719 344.323 215.559 340.123 215.419 336.463C215.219 330.923 215.059 326.603 214.939 325.643C213.939 317.983 208.899 315.903 205.879 318.623C201.219 322.843 201.019 327.923 203.179 340.223H203.159Z" fill="#131A2D"/>
<path d="M218.559 304.864C218.559 304.864 216.379 307.763 219.519 311.683C220.759 313.223 222.259 316.143 224.459 319.083C226.999 322.463 232.239 334.903 232.239 334.903L218.879 322.563L219.479 320.343L217.399 320.563L215.599 312.143C215.319 310.803 215.359 309.403 215.799 308.103C216.259 306.784 217.099 305.324 218.559 304.884V304.864Z" fill="black"/>
<path d="M288.021 329.563C288.021 331.183 287.261 332.723 285.981 333.723C282.161 336.663 275.961 340.523 269.441 340.723C263.241 341.423 256.761 338.303 252.001 335.203C250.521 334.243 249.641 332.583 249.641 330.823V316.703H288.001V329.563H288.021Z" fill="#3DD3B6"/>
<path d="M251.94 335.303C250.42 334.323 249.52 332.643 249.52 330.803V316.543H288.14V329.543C288.14 331.223 287.38 332.783 286.04 333.803C282.04 336.903 275.9 340.623 269.44 340.823C268.84 340.883 268.26 340.923 267.66 340.923C261.84 340.923 255.98 337.943 251.92 335.283L251.94 335.303ZM249.78 316.823V330.823C249.78 332.563 250.64 334.163 252.08 335.103C256.52 338.003 263.12 341.303 269.44 340.603C275.84 340.403 281.92 336.703 285.9 333.623C287.16 332.643 287.9 331.163 287.9 329.563V316.823H249.8H249.78Z" fill="#131A2D"/>
<path d="M267.661 329.783L267.601 331.123L240.961 314.243L241.001 312.903L267.661 329.783Z" fill="#131A2D"/>
<path d="M295.6 315.143L267.66 329.783L241 312.903L268.94 298.263L295.6 315.143Z" fill="#3DD3B6"/>
<path d="M240.74 312.883L268.88 298.143L268.94 298.103L295.84 315.143L267.7 329.883L267.64 329.923L240.74 312.883ZM268.94 298.403L241.26 312.903L267.66 329.623L295.34 315.123L268.94 298.403Z" fill="#131A2D"/>
<path d="M295.6 315.143L295.54 316.483L267.6 331.123L267.66 329.783L295.6 315.143Z" fill="#131A2D"/>
<path d="M268.401 312.283C269.781 312.343 270.881 313.023 270.841 313.803C270.801 314.583 269.661 315.163 268.281 315.123C266.901 315.063 265.801 314.383 265.841 313.603C265.881 312.823 267.021 312.243 268.401 312.283Z" fill="#131A2D"/>
<path d="M213.701 355.923C214.181 355.563 214.681 355.103 215.161 354.563C215.701 353.143 216.001 351.163 215.881 348.443C215.701 344.323 215.541 340.123 215.401 336.463C213.361 339.983 210.461 344.343 207.161 347.543C203.861 350.743 207.901 360.303 213.701 355.923Z" fill="black"/>
<path d="M224.78 336.123C225.04 335.783 226.72 333.423 227.72 333.023C228.72 332.623 230.52 330.903 230.8 330.283C231.68 328.263 234.08 327.243 232.88 326.563C231.92 326.023 230.84 327.223 230.26 327.783C230.04 328.003 229.56 328.643 229.42 328.083C229.02 326.543 233.32 322.963 232.88 322.303C232.44 321.643 231.5 321.223 231.18 321.263C228.3 321.503 226.86 320.623 225.4 322.703C224.12 324.523 223.34 327.703 223.04 328.743C222.74 329.783 220.24 333.463 220.24 333.463C220.24 333.463 224.56 336.463 224.82 336.123H224.78Z" fill="white"/>
<path d="M220.12 333.583L220.02 333.503L220.1 333.403C220.1 333.403 222.6 329.723 222.9 328.723C222.94 328.603 222.98 328.443 223.04 328.263C223.4 326.963 224.14 324.263 225.28 322.643C226.38 321.103 227.5 321.143 229.04 321.183C229.66 321.203 230.34 321.223 231.16 321.163C231.52 321.123 232.52 321.563 232.98 322.263C233.22 322.623 232.68 323.263 231.64 324.503C230.6 325.723 229.32 327.263 229.54 328.063C229.56 328.163 229.6 328.183 229.6 328.183C229.68 328.183 229.94 327.943 230.02 327.843C230.06 327.783 230.12 327.743 230.16 327.703C230.22 327.643 230.28 327.583 230.34 327.523C230.96 326.923 232 325.943 232.94 326.463C233.18 326.603 233.3 326.763 233.34 326.943C233.4 327.323 233.02 327.723 232.48 328.263C231.96 328.803 231.3 329.483 230.92 330.343C230.66 330.963 228.82 332.743 227.78 333.143C226.94 333.483 225.52 335.363 225.06 335.983C224.98 336.083 224.94 336.143 224.9 336.183C224.9 336.183 224.84 336.243 224.74 336.243C224.42 336.243 223.46 335.863 220.12 333.543V333.583ZM224.84 335.843C225.36 335.143 226.76 333.263 227.68 332.903C228.66 332.523 230.42 330.823 230.68 330.243C231.08 329.343 231.74 328.643 232.28 328.083C232.72 327.623 233.1 327.243 233.06 326.983C233.06 326.883 232.96 326.783 232.8 326.703C232.02 326.263 231.12 327.143 230.52 327.723C230.46 327.783 230.38 327.843 230.34 327.903C230.3 327.943 230.26 327.983 230.22 328.023C230 328.243 229.78 328.503 229.54 328.443C229.42 328.403 229.34 328.303 229.28 328.123C229.04 327.183 230.32 325.663 231.44 324.323C232.06 323.603 232.88 322.603 232.76 322.403C232.36 321.783 231.44 321.383 231.18 321.423C230.36 321.483 229.66 321.463 229.04 321.443C227.46 321.403 226.5 321.363 225.5 322.783C224.38 324.363 223.66 327.023 223.3 328.323C223.24 328.503 223.2 328.663 223.16 328.803C222.88 329.763 220.84 332.823 220.4 333.443C222.28 334.743 224.34 336.043 224.7 336.043C224.7 336.043 224.78 335.943 224.84 335.863V335.843Z" fill="black"/>
<path d="M207.741 349.482C214.221 343.203 219.121 332.423 219.121 332.423C219.121 332.423 224.181 330.223 226.841 335.783C226.841 335.783 220.081 353.482 214.281 357.862C208.481 362.242 204.441 352.682 207.741 349.482Z" fill="#131A2D"/>
<path d="M268.519 314.383L253.939 322.443L253.819 334.963L252.799 335.363L252.779 321.543L267.999 313.403L268.519 314.383Z" fill="#131A2D"/>
<path d="M252.62 334.683C252.62 334.403 252.96 334.203 253.36 334.203C253.76 334.203 254.1 334.423 254.08 334.703L254.54 337.363C254.54 337.823 253.98 338.163 253.3 338.163C252.62 338.163 252.08 337.783 252.08 337.323C252.08 337.263 252.08 337.203 252.12 337.143L252.62 334.683Z" fill="white"/>
<path d="M253.301 338.283C252.941 338.283 252.621 338.183 252.361 338.003C252.101 337.823 251.941 337.583 251.961 337.303C251.961 337.223 251.961 337.163 252.001 337.103L252.501 334.643C252.501 334.303 252.881 334.043 253.361 334.043C253.841 334.043 254.221 334.323 254.221 334.643L254.681 337.343C254.681 337.863 254.081 338.263 253.341 338.263C253.341 338.263 253.321 338.263 253.301 338.263V338.283ZM252.741 334.683L252.241 337.183C252.241 337.183 252.221 337.283 252.221 337.323C252.221 337.503 252.321 337.663 252.521 337.803C252.721 337.943 253.021 338.023 253.321 338.023H253.341C253.921 338.023 254.421 337.723 254.441 337.383L253.961 334.703C253.961 334.503 253.681 334.343 253.361 334.343C253.041 334.343 252.761 334.503 252.761 334.703L252.741 334.683Z" fill="#131A2D"/>
<path d="M230.36 389.942L259.1 373.522L259.88 363.262L224.26 383.322C224.26 390.462 228.2 390.602 230.36 389.942Z" fill="white"/>
<path d="M226.22 389.682C224.74 388.602 224 386.462 224 383.322V383.162L260.18 362.782L259.34 373.682L230.48 390.162H230.42C230.06 390.302 229.44 390.462 228.7 390.462C227.92 390.462 227.02 390.282 226.2 389.682H226.22ZM258.84 373.362L259.58 363.742L224.54 383.482C224.56 386.362 225.24 388.302 226.54 389.262C227.9 390.262 229.56 389.902 230.24 389.702L258.84 373.362Z" fill="#131A2D"/>
<path d="M231.461 379.282C233.241 383.822 233.641 388.002 230.441 389.902C230.681 389.762 231.461 389.322 232.621 388.662C238.241 385.442 252.761 377.102 257.841 374.182C258.381 373.882 258.801 373.642 259.121 373.462C259.421 373.282 259.601 373.182 259.641 373.162C260.301 372.822 260.901 372.382 261.421 371.862C264.661 368.742 265.381 362.962 262.641 358.782C257.901 351.462 242.601 333.123 242.601 316.583L234.101 321.443L233.201 321.963L232.841 322.163L231.381 323.003L228.501 324.643L226.681 325.683L211.461 334.383C211.461 352.822 219.281 359.262 221.581 362.742C222.781 364.562 228.741 372.342 231.461 379.282Z" fill="white"/>
<path d="M230.3 389.662C232.96 388.082 233.26 384.622 231.2 379.362C228.94 373.602 224.44 367.282 222.3 364.242C221.88 363.642 221.54 363.182 221.34 362.882C221 362.362 220.5 361.742 219.94 361.042C216.88 357.202 211.16 350.062 211.16 334.363V334.203L242.84 316.083V316.543C242.84 330.323 253.46 345.283 259.8 354.222C261.02 355.942 262.06 357.422 262.84 358.602C265.58 362.802 265.02 368.702 261.58 372.022C261.04 372.562 260.42 373.002 259.74 373.362C259.72 373.362 259.62 373.422 259.48 373.502L258.94 373.802C258.68 373.962 258.34 374.142 257.96 374.362L248.24 379.942C242.48 383.242 236.06 386.922 232.74 388.842C232.1 389.202 231.58 389.502 231.2 389.722C230.9 389.902 230.68 390.022 230.58 390.082L230.3 389.622V389.662ZM211.7 334.523C211.74 349.922 217.34 356.942 220.36 360.722C220.92 361.442 221.42 362.042 221.78 362.602C221.98 362.902 222.3 363.362 222.72 363.942C224.88 367.002 229.4 373.362 231.68 379.182C233.34 383.402 233.5 386.562 232.18 388.582C232.26 388.522 232.36 388.482 232.46 388.422C235.78 386.522 242.2 382.822 247.96 379.522L257.68 373.942C258.06 373.722 258.4 373.522 258.66 373.382L259.18 373.082C259.34 372.982 259.44 372.922 259.46 372.922C260.08 372.582 260.66 372.162 261.18 371.662C264.4 368.562 264.94 362.842 262.36 358.922C261.6 357.742 260.54 356.262 259.34 354.562C253.04 345.663 242.52 330.843 242.3 317.023L211.68 334.523H211.7Z" fill="#131A2D"/>
<path d="M237.2 327.783L218.64 338.383C218.36 339.583 218.32 341.603 219.38 342.243L238.94 331.063C238.1 330.403 237.74 329.723 237.2 327.763V327.783Z" fill="#3DD3B6"/>
<path d="M219.299 342.363C218.119 341.623 218.259 339.423 218.499 338.363V338.303L237.119 327.663L237.259 327.583L237.299 327.743C237.859 329.683 238.179 330.323 238.999 330.963L239.16 331.083L219.419 342.363L219.359 342.403L219.299 342.363ZM237.119 327.963L218.759 338.463C218.499 339.603 218.479 341.463 219.379 342.103L238.719 331.043C237.979 330.423 237.619 329.723 237.119 327.963Z" fill="#131A2D"/>
<path d="M250.26 362.202C250.72 361.042 251.64 360.142 252.82 359.662C253.44 359.402 254.08 359.282 254.76 359.282C256.74 359.282 258.62 360.382 259.54 362.102C260.22 363.342 260.3 364.782 259.8 366.042C259.62 366.482 259.36 366.882 259.04 367.262C262.36 372.042 262.28 376.702 262.28 376.702C262 375.882 260.06 375.102 260.06 375.102C260.06 376.682 258.3 379.222 258.3 379.222C258.84 374.722 256.22 370.222 255.4 368.962C255.36 368.962 255.32 368.962 255.28 368.962C253.3 368.962 251.42 367.862 250.5 366.142C249.82 364.902 249.74 363.462 250.24 362.202H250.26Z" fill="#3DD3B6"/>
<path d="M258.201 379.182C258.741 374.822 256.221 370.422 255.361 369.082C255.361 369.082 255.321 369.082 255.301 369.082C253.281 369.082 251.361 367.942 250.401 366.202C249.721 364.922 249.621 363.442 250.141 362.142C250.621 360.962 251.561 360.022 252.781 359.522C253.401 359.262 254.081 359.142 254.761 359.142C256.781 359.142 258.721 360.282 259.661 362.022C260.361 363.302 260.441 364.782 259.921 366.082C259.761 366.482 259.521 366.862 259.201 367.262C262.441 371.982 262.421 376.662 262.421 376.702V377.462L262.161 376.742C261.981 376.182 260.801 375.562 260.181 375.282C260.061 376.882 258.481 379.182 258.401 379.282L258.101 379.722L258.161 379.202L258.201 379.182ZM260.141 374.962C260.141 374.962 261.541 375.542 262.161 376.222C262.081 374.922 261.601 371.142 258.961 367.322L258.901 367.242L258.961 367.162C259.301 366.762 259.541 366.382 259.701 365.982C260.201 364.762 260.101 363.362 259.441 362.142C258.541 360.462 256.701 359.402 254.781 359.402C254.121 359.402 253.481 359.522 252.901 359.762C251.741 360.242 250.861 361.122 250.401 362.242C249.901 363.462 250.001 364.862 250.661 366.082C251.561 367.762 253.401 368.822 255.321 368.822H255.361C255.381 368.822 255.421 368.822 255.441 368.822H255.521L255.561 368.882C256.361 370.122 258.821 374.342 258.521 378.702C259.021 377.922 259.961 376.242 259.961 375.102V374.902L260.141 374.982V374.962Z" fill="#131A2D"/>
<path d="M253.18 360.662C251.22 361.462 250.48 363.662 251.5 365.562C252.54 367.482 254.96 368.382 256.92 367.582C258.88 366.782 259.62 364.582 258.6 362.662C257.56 360.742 255.14 359.842 253.18 360.642V360.662Z" fill="#131A2D"/>
<path d="M224.561 358.503L224.981 359.063L232.961 354.463L232.641 353.823L224.561 358.503Z" fill="#131A2D"/>
<path d="M225.48 359.762L225.88 360.302L229.62 358.162L229.26 357.582L225.48 359.762Z" fill="#131A2D"/>
<path d="M230.24 357.022L230.58 357.602L239.22 352.682L238.98 352.022L230.24 357.022Z" fill="#131A2D"/>
<path d="M235.699 358.862L235.959 359.382L246.999 353.283L246.859 352.663L235.699 358.862Z" fill="#131A2D"/>
<path d="M227.98 363.162L228.3 363.622L233.82 360.562L233.54 360.062L227.98 363.162Z" fill="#131A2D"/>
<path d="M227.18 362.082L227.54 362.562L241.62 354.662L241.42 354.062L227.18 362.082Z" fill="#131A2D"/>
<path d="M233.26 357.042L233.56 357.622L250.78 347.903L250.68 347.183L233.26 357.042Z" fill="#131A2D"/>
<path d="M226.359 360.943L226.719 361.462L232.939 357.963L232.639 357.383L226.359 360.943Z" fill="#131A2D"/>
<path d="M235.699 374.722L235.979 375.302L243.999 370.702L243.799 370.042L235.699 374.722Z" fill="#131A2D"/>
<path d="M236.301 375.982L236.581 376.522L240.321 374.382L240.101 373.822L236.301 375.982Z" fill="#131A2D"/>
<path d="M241.08 373.262L241.28 373.842L249.96 368.902L249.86 368.242L241.08 373.262Z" fill="#131A2D"/>
<path d="M236.881 377.182L237.141 377.682L243.381 374.182L243.201 373.622L236.881 377.182Z" fill="#131A2D"/>
<path d="M228.48 324.643C228.72 324.863 229 325.083 229.3 325.323C229.96 325.843 230.28 326.403 230.34 327.443C230.4 328.763 232.54 329.243 232.78 329.023C233.82 328.063 232.86 324.823 232.78 324.543C233.08 324.903 233.2 324.983 233.38 325.643C233.68 326.743 233.46 327.723 233.86 328.023C234.5 328.503 234.52 327.003 234.62 325.623C234.66 324.843 233.56 323.203 232.82 322.143L231.36 322.983L228.48 324.623V324.643Z" fill="white"/>
<path d="M231.54 328.983C230.72 328.643 230.24 328.083 230.22 327.463C230.18 326.503 229.9 325.963 229.24 325.443C228.92 325.203 228.66 324.963 228.4 324.763L228.26 324.643L232.88 322.003L232.94 322.103C233.86 323.443 234.8 324.903 234.76 325.663V326.063C234.66 327.303 234.6 328.063 234.24 328.243C234.1 328.303 233.96 328.283 233.8 328.163C233.52 327.963 233.5 327.543 233.46 327.003C233.44 326.603 233.4 326.163 233.28 325.703C233.22 325.503 233.18 325.363 233.14 325.243C233.42 326.383 233.74 328.363 232.92 329.123C232.86 329.183 232.72 329.223 232.58 329.223C232.3 329.223 231.9 329.123 231.58 328.983H231.54ZM232.98 324.563C233.24 324.863 233.34 324.983 233.52 325.623C233.66 326.123 233.7 326.603 233.72 326.983C233.76 327.443 233.78 327.803 233.96 327.943C234.02 327.983 234.08 328.023 234.14 328.003C234.38 327.883 234.44 326.823 234.48 326.043V325.643C234.56 324.903 233.34 323.123 232.8 322.343L228.72 324.663C228.92 324.843 229.16 325.023 229.4 325.223C230.14 325.783 230.44 326.423 230.48 327.443C230.52 328.083 231.1 328.483 231.44 328.643C232.04 328.943 232.62 328.983 232.7 328.923C233.66 328.043 232.76 324.943 232.66 324.583L232.48 323.983L232.98 324.563Z" fill="black"/>
<path d="M283.139 336.263C283.079 335.843 283.039 335.403 282.979 334.923C282.879 333.863 282.519 333.143 281.439 332.363C280.079 331.383 281.019 328.803 281.439 328.683C283.179 328.243 285.939 331.483 286.179 331.763C286.019 331.183 285.999 331.023 285.419 330.363C284.459 329.283 283.259 328.843 283.219 328.223C283.159 327.223 284.759 328.223 286.279 329.063C287.139 329.543 288.119 331.843 288.739 333.343L286.839 334.323L283.119 336.263H283.139Z" fill="white"/>
<path d="M283.019 336.283C282.959 335.883 282.919 335.443 282.859 334.923C282.759 333.843 282.359 333.183 281.379 332.463C280.739 332.003 280.479 331.123 280.679 330.043C280.799 329.383 281.119 328.623 281.419 328.543C282.879 328.163 284.919 330.143 285.859 331.183C285.759 330.983 285.619 330.783 285.319 330.443C284.899 329.983 284.459 329.643 284.059 329.343C283.539 328.943 283.119 328.643 283.079 328.223C283.079 327.983 283.139 327.823 283.279 327.723C283.719 327.443 284.719 328.023 285.899 328.683L286.359 328.943C287.199 329.403 288.099 331.403 288.879 333.283L288.919 333.403L283.039 336.463V336.283H283.019ZM286.239 329.183L285.779 328.923C284.859 328.403 283.719 327.763 283.439 327.963C283.379 328.003 283.359 328.083 283.359 328.203C283.379 328.503 283.759 328.783 284.239 329.143C284.619 329.443 285.119 329.803 285.539 330.283C286.099 330.903 286.159 331.103 286.279 331.563L286.499 332.323L286.099 331.843C285.799 331.483 283.119 328.383 281.499 328.823C281.399 328.863 281.079 329.363 280.939 330.163C280.839 330.723 280.799 331.723 281.539 332.263C282.599 333.023 283.039 333.763 283.139 334.903C283.179 335.323 283.219 335.703 283.259 336.063L288.599 333.283C288.119 332.103 287.079 329.643 286.239 329.183Z" fill="black"/>
<path d="M232.161 321.823C232.161 321.823 232.761 322.223 233.021 322.703C233.281 323.203 231.341 323.703 231.341 323.703L228.721 324.683C228.721 324.683 228.441 324.683 228.201 324.803C227.961 324.943 227.301 324.803 227.301 324.803L227.881 323.563L229.461 322.583L231.221 322.283L232.141 321.823H232.161Z" fill="white"/>
<path d="M283.221 335.723C283.221 335.723 282.981 336.083 282.501 336.263C282.041 336.443 282.381 336.843 282.381 336.843L283.681 336.723L287.681 334.683L288.601 333.883C288.601 333.883 288.861 333.563 288.401 332.863C287.941 332.163 286.581 333.503 286.581 333.503L283.221 335.723Z" fill="white"/>
<defs>
<linearGradient id="paint0_linear_36_33002" x1="387.02" y1="327.183" x2="319.92" y2="327.183" gradientUnits="userSpaceOnUse">
<stop stop-color="#C6CAE6"/>
<stop offset="1" stop-color="white"/>
</linearGradient>
<linearGradient id="paint1_linear_36_33002" x1="313.801" y1="290.263" x2="475.621" y2="290.263" gradientUnits="userSpaceOnUse">
<stop stop-color="#42B1FF"/>
<stop offset="1" stop-color="#4A83E7"/>
</linearGradient>
</defs>
</svg>
