<svg width="306" height="40" viewBox="0 0 306 40" fill="none" xmlns="http://www.w3.org/2000/svg">
<path d="M15.17 23.5H9.71C4.166 23.5 0.89 20.686 0.89 16.486C0.89 12.37 4.166 9.43 9.71 9.43H15.17C20.714 9.43 23.99 12.37 23.99 16.486C23.99 20.686 20.714 23.5 15.17 23.5ZM2.15 30.724L1.94 26.02H33.65V39.628H27.938V30.724H2.15ZM27.938 24.55V2.122H33.65V11.53H38.69V16.654H33.65V24.55H27.938ZM0.05 8.128V3.802H9.416V0.945997H15.464V3.802H24.83V8.128H0.05ZM10.256 19.132H14.582C16.682 19.132 18.278 18.208 18.278 16.486C18.278 14.848 16.682 13.882 14.582 13.882H10.256C8.156 13.882 6.602 14.848 6.602 16.486C6.602 18.208 8.156 19.132 10.256 19.132ZM66.7122 39.628H53.1042C47.0562 39.628 43.3182 36.604 43.3182 31.774C43.3182 26.944 47.0562 23.92 53.1042 23.92H66.7122C72.7602 23.92 76.4982 26.944 76.4982 31.774C76.4982 36.604 72.7602 39.628 66.7122 39.628ZM60.7062 22.45V2.332H66.0822V9.43H70.2822V2.122H75.6582V22.87H70.2822V14.554H66.0822V22.45H60.7062ZM39.1182 22.03V17.452C43.4022 16.318 46.5102 12.37 46.5102 7.078V2.332H52.3482V7.078C52.3482 12.37 55.2462 15.814 59.3202 17.032V21.61C55.3722 20.854 51.7602 18.628 49.4922 15.562C47.1402 18.838 43.4022 21.232 39.1182 22.03ZM53.4822 35.092H66.3342C69.0642 35.092 70.7862 33.79 70.7862 31.774C70.7862 29.758 69.0642 28.456 66.3342 28.456H53.4822C50.7522 28.456 49.0302 29.758 49.0302 31.774C49.0302 33.79 50.7522 35.092 53.4822 35.092ZM83.8564 34.756C83.8564 32.572 85.4524 30.976 87.6364 30.976C89.8204 30.976 91.4164 32.572 91.4164 34.756C91.4164 36.94 89.8204 38.536 87.6364 38.536C85.4524 38.536 83.8564 36.94 83.8564 34.756ZM84.9904 27.112L84.4024 3.76H90.8704L90.2824 27.112H84.9904ZM120.637 25.18H135.925C141.553 25.18 144.871 27.994 144.871 32.404C144.871 36.814 141.553 39.628 135.925 39.628H120.637C115.009 39.628 111.691 36.814 111.691 32.404C111.691 27.994 115.009 25.18 120.637 25.18ZM129.709 23.71V2.332H135.085V10.564H138.655V2.122H144.031V24.13H138.655V15.688H135.085V23.71H129.709ZM119.713 23.206H117.109C111.901 23.206 108.751 20.35 108.751 16.318C108.751 12.286 111.901 9.43 117.109 9.43H119.713C124.921 9.43 128.071 12.286 128.071 16.318C128.071 20.35 124.921 23.206 119.713 23.206ZM121.015 35.092H135.547C137.731 35.092 139.159 33.916 139.159 32.404C139.159 30.892 137.731 29.716 135.547 29.716H121.015C118.831 29.716 117.403 30.892 117.403 32.404C117.403 33.916 118.831 35.092 121.015 35.092ZM108.541 8.128V3.802H115.387V0.945997H121.435V3.802H128.281V8.128H108.541ZM117.571 18.67H119.251C121.351 18.67 122.695 17.662 122.695 16.318C122.695 14.974 121.351 13.966 119.251 13.966H117.571C115.471 13.966 114.127 14.974 114.127 16.318C114.127 17.662 115.471 18.67 117.571 18.67ZM148.449 25.264V20.77H164.157V18.082H151.179V2.206H156.891V5.65H177.387V2.206H183.099V18.082H170.121V20.77H185.829V25.264H148.449ZM150.759 31.984V27.28H183.099V39.628H177.387V31.984H150.759ZM156.891 13.63H177.387V10.102H156.891V13.63ZM202.806 25.18H198.27C192.894 25.18 188.988 22.618 188.988 17.41C188.988 12.202 192.894 9.64 198.27 9.64H202.806C208.182 9.64 212.088 12.202 212.088 17.41C212.088 22.618 208.182 25.18 202.806 25.18ZM190.668 39.46V27.28H196.38V34.756H222.588V39.46H190.668ZM216.036 29.59V2.122H221.748V12.37H226.788V17.494H221.748V29.59H216.036ZM188.148 8.338V4.012H197.514V0.945997H203.562V4.012H212.928V8.338H188.148ZM199.068 20.644H202.008C204.78 20.644 206.376 19.468 206.376 17.41C206.376 15.352 204.78 14.176 202.008 14.176H199.068C196.38 14.176 194.7 15.352 194.7 17.41C194.7 19.468 196.38 20.644 199.068 20.644ZM257.204 39.628V2.122H262.916V39.628H257.204ZM229.736 26.986V12.958C229.736 6.238 234.188 2.332 240.95 2.332C247.712 2.332 252.164 6.238 252.164 12.958V26.986C252.164 33.706 247.712 37.612 240.95 37.612C234.188 37.612 229.736 33.706 229.736 26.986ZM246.452 27.154V12.79C246.452 9.346 244.31 7.078 240.95 7.078C237.59 7.078 235.448 9.346 235.448 12.79V27.154C235.448 30.598 237.59 32.866 240.95 32.866C244.31 32.866 246.452 30.598 246.452 27.154ZM270.904 39.46V27.28H302.824V39.46H270.904ZM276.616 34.924H297.112V31.816H276.616V34.924ZM268.174 25.264V20.938H305.554V25.264H268.174ZM270.904 18.922V8.422H297.028V6.616H270.904V2.29H302.824V12.58H276.7V14.596H303.664V18.922H270.904Z" fill="#B471DC"/>
</svg>
