<svg width="285" height="38" viewBox="0 0 285 38" fill="none" xmlns="http://www.w3.org/2000/svg">
<path d="M0.73 34.982V1.088H6.106V13.1H12.154V1.088H17.53V34.982H0.73ZM20.638 36.788V0.332H26.014V13.94H29.374V0.121997H34.75V37.628H29.374V19.064H26.014V36.788H20.638ZM6.106 30.194H12.154V17.888H6.106V30.194ZM41.8982 37.46V24.02H54.8762V21.122H39.1682V16.628H76.5482V21.122H60.8402V24.02H73.8182V37.46H41.8982ZM64.9562 14.57H50.7602C44.7122 14.57 41.0582 11.756 41.0582 7.346C41.0582 2.936 44.7122 0.121997 50.7602 0.121997H64.9562C71.0042 0.121997 74.6582 2.936 74.6582 7.346C74.6582 11.756 71.0042 14.57 64.9562 14.57ZM51.0122 10.034H64.7042C67.2662 10.034 68.9462 9.026 68.9462 7.346C68.9462 5.666 67.2662 4.658 64.7042 4.658H51.0122C48.4502 4.658 46.7702 5.666 46.7702 7.346C46.7702 9.026 48.4502 10.034 51.0122 10.034ZM47.6102 32.924H68.1062V28.556H47.6102V32.924ZM79.0764 24.272V19.778H116.456V24.272H79.0764ZM81.8064 37.46V26.54H87.5184V32.756H114.146V37.46H81.8064ZM104.276 16.67H91.2564C84.8304 16.67 80.9664 13.352 80.9664 8.396C80.9664 3.44 84.8304 0.121997 91.2564 0.121997H104.276C110.702 0.121997 114.566 3.44 114.566 8.396C114.566 13.352 110.702 16.67 104.276 16.67ZM91.4244 12.134H104.108C107.006 12.134 108.854 10.58 108.854 8.396C108.854 6.212 107.006 4.658 104.108 4.658H91.4244C88.5264 4.658 86.6784 6.212 86.6784 8.396C86.6784 10.58 88.5264 12.134 91.4244 12.134ZM133.465 37.46V26.456H158.749V24.146H133.465V19.82H164.545V30.614H139.261V33.134H165.385V37.46H133.465ZM143.125 17.762V0.541999H155.263V5.078H148.837V13.226H156.313V17.762H143.125ZM130.525 17.762V0.541999H141.865V5.078H136.237V13.226H142.075V17.762H130.525ZM158.833 18.35V11.42H152.365V6.716H158.833V0.121997H164.545V18.35H158.833ZM198.741 21.71V0.121997H204.453V21.71H198.741ZM173.373 37.46V23.18H204.453V37.46H173.373ZM179.085 32.924H198.741V27.716H179.085V32.924ZM170.643 20.45V8.144H187.149V4.994H170.643V0.541999H192.861V12.47H176.355V15.998H196.221V20.45H170.643ZM238.649 37.628V0.121997H244.361V37.628H238.649ZM211.181 24.986V10.958C211.181 4.238 215.633 0.332 222.395 0.332C229.157 0.332 233.609 4.238 233.609 10.958V24.986C233.609 31.706 229.157 35.612 222.395 35.612C215.633 35.612 211.181 31.706 211.181 24.986ZM227.897 25.154V10.79C227.897 7.346 225.755 5.078 222.395 5.078C219.035 5.078 216.893 7.346 216.893 10.79V25.154C216.893 28.598 219.035 30.866 222.395 30.866C225.755 30.866 227.897 28.598 227.897 25.154ZM250.249 35.402V30.236C255.793 28.514 259.363 22.508 259.363 14.402V5.96H250.669V1.172H273.517V5.96H265.285V14.402C265.285 21.668 268.393 27.758 273.937 30.11V35.276C269.485 33.932 264.529 29.9 262.429 25.574C259.867 30.656 255.289 34.058 250.249 35.402ZM278.557 37.628V0.121997H284.269V37.628H278.557Z" fill="#E87A91"/>
</svg>
