<svg width="180" height="91" viewBox="0 0 180 91" fill="none" xmlns="http://www.w3.org/2000/svg">
<path d="M11.7 0V0.17C5.17 0.63 0 6.07 0 12.73V77.53C0 84.49 5.64 90.13 12.6 90.13H167.4C174.36 90.13 180 84.49 180 77.53V12.73C180 6.08 174.83 0.64 168.3 0.18V0.01H11.7V0Z" fill="black"/>
<path d="M135.401 16.1453L130.686 26.8983L125.351 16.1453H121.245L128.809 31.059L125.684 38.0212H129.669L139.386 16.136H135.401V16.1453ZM118.962 32.7603H115.06V31.207C113.655 32.4182 111.972 33.1024 109.928 33.1024C105.259 33.1024 101.607 29.3023 101.607 24.4482C101.607 19.594 105.259 15.7939 109.928 15.7939C111.963 15.7939 113.655 16.4689 115.06 17.6894V16.136H118.962V32.7603ZM115.513 24.4482C115.513 21.3138 113.331 18.9283 110.418 18.9283C107.506 18.9283 105.324 21.3045 105.324 24.4482C105.324 27.5918 107.506 29.968 110.418 29.968C113.331 29.968 115.513 27.5918 115.513 24.4482ZM82.2183 38.0212H86.2865V31.3549C87.6641 32.4829 89.2914 33.1024 91.2516 33.1024C95.9208 33.1024 99.5729 29.3023 99.5729 24.4482C99.5729 19.594 95.9208 15.7939 91.2516 15.7939C89.2175 15.7939 87.5254 16.4689 86.1201 17.6894V16.136H82.2183V38.0212ZM90.7523 18.9468C93.6463 18.9468 95.8468 21.323 95.8468 24.4667C95.8468 27.6103 93.6648 29.9865 90.7523 29.9865C87.8398 29.9865 85.6578 27.6103 85.6578 24.4667C85.6578 21.323 87.8398 18.9468 90.7523 18.9468Z" fill="#00DE5A"/>
<path d="M74.9327 24.9663C74.9327 34.3325 67.3417 41.9327 57.9663 41.9327C48.5909 41.9327 41 34.3417 41 24.9663C41 15.5909 48.5909 8 57.9663 8C67.3417 8 74.9327 15.5909 74.9327 24.9663ZM60.8048 16.9963V25.5211L54.8782 16.9963H49.9871V32.9364H55.1186V24.4116L61.0452 32.9364H65.9364V16.9963H60.8048Z" fill="#00DE5A"/>
<path d="M46.3948 59.3098C46.3948 62.117 44.3394 64.1723 42.308 64.5322C44.5473 64.8921 47.0586 66.8276 47.0586 69.9626C47.0586 74.6492 43.0918 77.5763 38.0453 77.5763C32.7029 77.5763 29.3919 74.5932 29 69.9066H34.3424C34.5503 71.85 35.774 73.0097 38.0453 73.0097C40.3166 73.0097 41.7722 71.7861 41.7722 69.9946C41.7722 67.9632 40.0687 66.8915 37.5334 66.8915H35.1182V62.4768H37.5334C39.7408 62.4768 41.0524 61.2852 41.0524 59.4298C41.0524 57.5743 39.8607 56.5346 37.8293 56.5346C35.798 56.5346 34.7263 58.2381 34.7263 59.9656H29.3839C29.3839 55.335 32.8788 52 37.8613 52C42.8438 52 46.3948 54.9511 46.3948 59.3098Z" fill="white"/>
<path d="M67.2923 64.8042C67.2923 73.3136 63.2935 77.5763 57.983 77.5763C52.6726 77.5763 48.6738 73.3056 48.6738 64.8042C48.6738 56.3027 52.6726 52 57.983 52C63.2935 52 67.2923 56.2707 67.2923 64.8042ZM53.8003 64.8042C53.8003 70.3305 55.5918 72.8338 57.983 72.8338C60.3743 72.8338 62.1578 70.3305 62.1578 64.8042C62.1578 59.2778 60.3663 56.7426 57.983 56.7426C55.5998 56.7426 53.8003 59.2538 53.8003 64.8042Z" fill="white"/>
<path d="M71.4112 79.3675H67.4443L68.516 71.6338H73.2666L71.4191 79.3675H71.4112Z" fill="white"/>
<path d="M92.8767 64.8042C92.8767 73.3136 88.8779 77.5763 83.5675 77.5763C78.2571 77.5763 74.2583 73.3056 74.2583 64.8042C74.2583 56.3027 78.2571 52 83.5675 52C88.8779 52 92.8767 56.2707 92.8767 64.8042ZM79.3848 64.8042C79.3848 70.3305 81.1762 72.8338 83.5675 72.8338C85.9588 72.8338 87.7422 70.3305 87.7422 64.8042C87.7422 59.2778 85.9508 56.7426 83.5675 56.7426C81.1842 56.7426 79.3848 59.2538 79.3848 64.8042Z" fill="white"/>
<path d="M113.143 64.8042C113.143 73.3136 109.144 77.5763 103.834 77.5763C98.5232 77.5763 94.5244 73.3056 94.5244 64.8042C94.5244 56.3027 98.5232 52 103.834 52C109.144 52 113.143 56.2707 113.143 64.8042ZM99.6509 64.8042C99.6509 70.3305 101.442 72.8338 103.826 72.8338C106.209 72.8338 108.008 70.3305 108.008 64.8042C108.008 59.2778 106.217 56.7426 103.826 56.7426C101.434 56.7426 99.6509 59.2538 99.6509 64.8042Z" fill="white"/>
<path d="M133.417 64.8042C133.417 73.3136 129.418 77.5763 124.108 77.5763C118.797 77.5763 114.798 73.3056 114.798 64.8042C114.798 56.3027 118.797 52 124.108 52C129.418 52 133.417 56.2707 133.417 64.8042ZM119.925 64.8042C119.925 70.3305 121.716 72.8338 124.1 72.8338C126.483 72.8338 128.282 70.3305 128.282 64.8042C128.282 59.2778 126.491 56.7426 124.1 56.7426C121.708 56.7426 119.925 59.2538 119.925 64.8042Z" fill="white"/>
<path d="M140.183 71.0427H136.224V69.6671H142.15C144.118 69.6671 145.861 69.5152 146.853 69.0993V70.4749C145.949 70.8747 144.15 71.0427 142.102 71.0427H141.854V73.6099H140.191V71.0427H140.183ZM137.08 65.8603C137.08 64.0608 138.839 63.0771 141.327 63.0771C143.814 63.0771 145.573 64.0688 145.573 65.8603C145.573 67.6517 143.83 68.6594 141.327 68.6594C138.823 68.6594 137.08 67.6677 137.08 65.8603ZM150.084 75.7773V77.1849H137.552V72.8422H139.215V75.7773H150.092H150.084ZM138.711 65.8603C138.711 66.852 139.815 67.3558 141.327 67.3558C142.838 67.3558 143.942 66.852 143.942 65.8603C143.942 64.8686 142.838 64.3807 141.327 64.3807C139.815 64.3807 138.711 64.8686 138.711 65.8603ZM148.061 72.0344V63.0371H149.724V74.2657H148.061V73.378H143.718V72.0344H148.061Z" fill="white"/>
</svg>
