<svg width="111" height="35" viewBox="0 0 111 35" fill="none" xmlns="http://www.w3.org/2000/svg">
<path d="M27.3301 18.32C22.8001 18.32 19.1401 14.75 19.1401 10.34C19.1401 5.93 22.7701 2.51001 27.3001 2.51001C31.8301 2.51001 35.5301 5.93 35.5301 10.34C35.5301 14.75 31.8601 18.32 27.3401 18.32M27.3001 0.51001C21.3501 0.51001 16.5601 4.83 16.5601 10.34C16.5601 15.85 21.3901 20.31 27.3401 20.31C33.2901 20.31 38.1201 15.85 38.1201 10.34C38.1201 4.83 33.2601 0.51001 27.3001 0.51001Z" fill="#140700"/>
<path d="M2.79996 17.3299V3.12988H0.459961L0.47995 18.8199H14.74V17.3299H2.79996Z" fill="#140700"/>
<path d="M98.25 17.3398V3.33984H95.92V18.8499H110.16V17.3398H98.25Z" fill="#140700"/>
<path d="M74.49 4.78V3.23999H60.26L60.25 18.84L74.49 18.85V17.27L62.59 17.25V11.76H71.29V10.21H62.59V4.78H74.49Z" fill="#140700"/>
<path d="M13.1 3.12988H15.36L12.54 8.81989L10.86 8.82986L13.1 3.12988Z" fill="#140700"/>
<path d="M43.2101 10.5599V5.25991H51.0901C52.3901 5.25991 54.1701 5.67991 54.1701 7.69991C54.1701 10.4299 51.8601 10.5099 51.0701 10.5599H43.2001H43.2101ZM52.3501 12.3399C54.9201 12.3399 56.7301 10.4099 56.7301 7.84991C56.7301 4.76991 54.6201 3.3299 51.0901 3.3399H40.8201V18.8499H43.2101V12.4599H49.8101L54.4701 18.9299H57.2301L52.36 12.3499L52.3501 12.3399Z" fill="#140700"/>
<path d="M67.49 0.800049L71.6 0.810059L65.72 2.85007L67.49 0.800049Z" fill="#140700"/>
<path d="M81.03 13.03L84.87 5.52997L88.74 13.03H81.03ZM91.76 18.84H94.28L86.32 3.21997H83.51L75.4 18.84H77.96L79.92 15H89.85L91.75 18.84H91.76Z" fill="#140700"/>
<path d="M5.45001 34.7201L1.05002 30.9401V34.7201H0.52002V26.8301H1.05002V30.5301L5.14001 26.8301H5.86002L1.60002 30.7001L6.23001 34.7201H5.45001Z" fill="#140700"/>
<path d="M13.73 30.78C13.73 28.79 12.2 27.22 10.21 27.22C8.22004 27.22 6.68002 28.79 6.68002 30.78C6.68002 32.77 8.22004 34.33 10.21 34.33C12.2 34.33 13.73 32.86 13.73 30.78ZM6.15002 30.78C6.15002 28.51 7.86003 26.72 10.22 26.72C12.58 26.72 14.29 28.5 14.29 30.78C14.29 33.06 12.59 34.82 10.22 34.82C7.85003 34.82 6.15002 33.08 6.15002 30.78Z" fill="#140700"/>
<path d="M18.4101 31.5198C19.9501 31.5198 20.9301 30.7099 20.9301 29.4099C20.9301 27.9499 19.8801 27.3098 18.5201 27.3098H16.6101V31.5198H18.4201H18.4101ZM21.0101 34.7198L19.1501 31.9499C18.9301 31.9799 18.6801 32.0099 18.4201 32.0099H16.6101V34.7299H16.0801V26.8398H18.5201C20.2401 26.8398 21.4801 27.6099 21.4801 29.4199C21.4801 30.6199 20.8201 31.4599 19.7201 31.8199L21.6701 34.7299H21.0101V34.7198Z" fill="#140700"/>
<path d="M24.04 27.3101V30.4501H27.92V30.9501H24.04V34.2401H28.47V34.7201H23.51V26.8301H28.47V27.3101H24.04Z" fill="#140700"/>
<path d="M30.7499 32.3401H34.7599L32.7599 27.5701L30.7499 32.3401ZM34.9599 32.8201H30.5499L29.7499 34.7201H29.1899L32.5399 26.8301H32.9999L36.3399 34.7201H35.7699L34.9699 32.8201H34.9599Z" fill="#140700"/>
</svg>
