<svg id="emgZvaE3SIB1" xmlns="http://www.w3.org/2000/svg" xmlns:xlink="http://www.w3.org/1999/xlink" viewBox="0 0 300 300" shape-rendering="geometricPrecision" text-rendering="geometricPrecision">
<style>
#emgZvaE3SIB4_ts {
     animation: emgZvaE3SIB4_ts__ts 7000ms linear 1 normal forwards
}
@keyframes emgZvaE3SIB4_ts__ts {
     0% {
         transform: translate(144.365005px,115.559998px) scale(1,1) 
    }
     74.285714% {
         transform: translate(144.365005px,115.559998px) scale(1,1) 
    }
     81.428571% {
         transform: translate(144.365005px,115.559998px) scale(1.345888,1.345888) 
    }
     100% {
         transform: translate(144.365005px,115.559998px) scale(1.345888,1.345888) 
    }
}
#emgZvaE3SIB4 {
     animation: emgZvaE3SIB4_c_o 7000ms linear 1 normal forwards 
}
@keyframes emgZvaE3SIB4_c_o {
     0% {
        opacity: 0
    }
     28.571429% {
        opacity: 0
    }
     30% {
        opacity: 0.59
    }
     42.857143% {
        opacity: 0.59
    }
     74.285714% {
        opacity: 0.59
    }
     81.428571% {
        opacity: 0
    }
     100% {
        opacity: 0
    }
}
 #emgZvaE3SIB14_ts {
     animation: emgZvaE3SIB14_ts__ts 7000ms linear 1 normal forwards 
}
 @keyframes emgZvaE3SIB14_ts__ts {
     0% {
         transform: translate(144.030005px,116.160003px) scale(0.18766,0.18766);
         animation-timing-function: cubic-bezier(0.445,0.05,0.55,0.95) 
    }
     17.142857% {
         transform: translate(144.030005px,116.160003px) scale(0.18766,0.18766);
         animation-timing-function: cubic-bezier(0.445,0.05,0.55,0.95) 
    }
     18.571429% {
        transform: translate(144.030005px,116.160003px) scale(0.18766,0.18766);
        animation-timing-function: cubic-bezier(0.445,0.05,0.55,0.95)
    }
     42.857143% {
        transform: translate(144.030005px,116.160003px) scale(2.473988,2.473988)
    }
     82.857143% {
        transform: translate(144.030005px,116.160003px) scale(2.473988,2.473988)
    }
     90% {
        transform: translate(144.030005px,116.160003px) scale(2.799668,2.799668)
    }
     100% {
        transform: translate(144.030005px,116.160003px) scale(2.799668,2.799668)
    }
}
 #emgZvaE3SIB14 {
    animation: emgZvaE3SIB14_c_o 7000ms linear 1 normal forwards
}
@keyframes emgZvaE3SIB14_c_o {
     0% {
        opacity: 0;
        animation-timing-function: cubic-bezier(0.445,0.05,0.55,0.95)
    }
     17.142857% {
        opacity: 0;
        animation-timing-function: cubic-bezier(0.445,0.05,0.55,0.95)
    }
     18.571429% {
        opacity: 0.75;
        animation-timing-function: cubic-bezier(0.445,0.05,0.55,0.95)
    }
     42.857143% {
        opacity: 0.3
    }
     82.857143% {
        opacity: 0.3
    }
     90% {
        opacity: 0
    }
     100% {
        opacity: 0
    }
}
 #emgZvaE3SIB24_ts {
    animation: emgZvaE3SIB24_ts__ts 7000ms linear 1 normal forwards
}
@keyframes emgZvaE3SIB24_ts__ts {
     0% {
        transform: translate(144.365005px,115.559998px) scale(1.67653,1.67653)
    }
     32.857143% {
        transform: translate(144.365005px,115.559998px) scale(1.67653,1.67653)
    }
     34.285714% {
        transform: translate(144.365005px,115.559998px) scale(1.67653,1.67653);
        animation-timing-function: cubic-bezier(0.271331,0.512249,0.571158,0.943748)
    }
     78.571429% {
        transform: translate(144.365005px,115.559998px) scale(1.67653,1.67653)
    }
     85.714286% {
        transform: translate(144.365005px,115.559998px) scale(1.906489,1.906489)
    }
     100% {
        transform: translate(144.365005px,115.559998px) scale(1.906489,1.906489)
    }
}
 #emgZvaE3SIB24 {
    animation: emgZvaE3SIB24_c_o 7000ms linear 1 normal forwards
}
@keyframes emgZvaE3SIB24_c_o {
     0% {
        opacity: 0
    }
     32.857143% {
        opacity: 0
    }
     34.285714% {
        opacity: 0.456957;
        animation-timing-function: cubic-bezier(0.271331,0.512249,0.571158,0.943748)
    }
     78.571429% {
        opacity: 0.456957
    }
     85.714286% {
        opacity: 0
    }
     100% {
        opacity: 0
    }
}
 #emgZvaE3SIB34_ts {
    animation: emgZvaE3SIB34_ts__ts 7000ms linear 1 normal forwards
}
@keyframes emgZvaE3SIB34_ts__ts {
     0% {
        transform: translate(144.030005px,116.160003px) scale(0.388395,0.388395)
    }
     20.857143% {
        transform: translate(144.030005px,116.160003px) scale(0.388395,0.388395)
    }
     31.428571% {
        transform: translate(144.030005px,116.160003px) scale(1,1)
    }
     67.142857% {
        transform: translate(144.030005px,116.160003px) scale(1,1)
    }
     77.142857% {
        transform: translate(144.030005px,116.160003px) scale(1.459101,1.459101)
    }
     100% {
        transform: translate(144.030005px,116.160003px) scale(1.459101,1.459101)
    }
}
 #emgZvaE3SIB34 {
    animation: emgZvaE3SIB34_c_o 7000ms linear 1 normal forwards
}
@keyframes emgZvaE3SIB34_c_o {
     0% {
        opacity: 0
    }
     20.857143% {
        opacity: 0
    }
     31.428571% {
        opacity: 0.85
    }
     67.142857% {
        opacity: 0.85
    }
     77.142857% {
        opacity: 0
    }
     100% {
        opacity: 0
    }
}
 #emgZvaE3SIB44 {
    animation: emgZvaE3SIB44_c_o 7000ms linear 1 normal forwards
}
@keyframes emgZvaE3SIB44_c_o {
     0% {
        opacity: 0
    }
     28.571429% {
        opacity: 0;
        animation-timing-function: cubic-bezier(0.25,1,0.25,1)
    }
     44.285714% {
        opacity: 0.7
    }
     74.285714% {
        opacity: 0.7;
        animation-timing-function: cubic-bezier(0.25,1,0.25,1)
    }
     80% {
        opacity: 0
    }
     100% {
        opacity: 0
    }
}
 #emgZvaE3SIB53 {
    animation: emgZvaE3SIB53_c_o 7000ms linear 1 normal forwards
}
@keyframes emgZvaE3SIB53_c_o {
     0% {
        opacity: 0
    }
     32.857143% {
        opacity: 0;
        animation-timing-function: cubic-bezier(0.25,1,0.25,1)
    }
     44.285714% {
        opacity: 0.5
    }
     78.571429% {
        opacity: 0.5;
        animation-timing-function: cubic-bezier(0.25,1,0.25,1)
    }
     84.285714% {
        opacity: 0
    }
     100% {
        opacity: 0
    }
}
 #emgZvaE3SIB62 {
    animation: emgZvaE3SIB62_c_o 7000ms linear 1 normal forwards
}
@keyframes emgZvaE3SIB62_c_o {
     0% {
        opacity: 0
    }
     37.142857% {
        opacity: 0;
        animation-timing-function: cubic-bezier(0.25,1,0.25,1)
    }
     44.285714% {
        opacity: 0.3
    }
     82.857143% {
        opacity: 0.3;
        animation-timing-function: cubic-bezier(0.25,1,0.25,1)
    }
     88.571429% {
        opacity: 0
    }
     100% {
        opacity: 0
    }
}
 #emgZvaE3SIB71_to {
    animation: emgZvaE3SIB71_to__to 7000ms linear 1 normal forwards
}
@keyframes emgZvaE3SIB71_to__to {
     0% {
        transform: translate(143.829994px,280.270004px);
        animation-timing-function: cubic-bezier(0.25,1,0.25,1)
    }
     30% {
        transform: translate(143.829994px,115.960014px)
    }
     64.285714% {
        transform: translate(143.829994px,115.960014px)
    }
     78.571429% {
        transform: translate(143.829994px,115.960014px)
    }
     100% {
        transform: translate(143.829994px,115.960014px)
    }
}
 #emgZvaE3SIB71_ts {
    animation: emgZvaE3SIB71_ts__ts 7000ms linear 1 normal forwards
}
@keyframes emgZvaE3SIB71_ts__ts {
     0% {
        transform: scale(1,1);
        animation-timing-function: cubic-bezier(0.25,1,0.25,1)
    }
     30% {
        transform: scale(3.314979,3.314979)
    }
     64.285714% {
        transform: scale(3.314979,3.314979)
    }
     78.571429% {
        transform: scale(6.525979,6.525979)
    }
     100% {
        transform: scale(6.525979,6.525979)
    }
}
 #emgZvaE3SIB71 {
    animation: emgZvaE3SIB71_c_o 7000ms linear 1 normal forwards
}
@keyframes emgZvaE3SIB71_c_o {
     0% {
        opacity: 0;
        animation-timing-function: cubic-bezier(0.25,1,0.25,1)
    }
     30% {
        opacity: 1
    }
     64.285714% {
        opacity: 1;
        animation-timing-function: cubic-bezier(0.25,1,0.25,1)
    }
     78.571429% {
        opacity: 0
    }
     100% {
        opacity: 0
    }
}
 #emgZvaE3SIB72 {
    animation: emgZvaE3SIB72_c_o 7000ms linear 1 normal forwards
}
@keyframes emgZvaE3SIB72_c_o {
     0% {
        opacity: 0
    }
     1.428571% {
        opacity: 0
    }
     2.857143% {
        opacity: 0.2
    }
     10% {
        opacity: 0.2
    }
     18.571429% {
        opacity: 0
    }
     100% {
        opacity: 0
    }
}
 #emgZvaE3SIB73 {
    animation: emgZvaE3SIB73_c_o 7000ms linear 1 normal forwards
}
@keyframes emgZvaE3SIB73_c_o {
     0% {
        opacity: 0
    }
     2.857143% {
        opacity: 0
    }
     4.285714% {
        opacity: 0.39
    }
     14.285714% {
        opacity: 0.39
    }
     20% {
        opacity: 0
    }
     100% {
        opacity: 0
    }
}
 #emgZvaE3SIB74 {
    animation: emgZvaE3SIB74_c_o 7000ms linear 1 normal forwards
}
@keyframes emgZvaE3SIB74_c_o {
     0% {
        opacity: 0
    }
     4.285714% {
        opacity: 0
    }
     5.714286% {
        opacity: 0.56
    }
     17.142857% {
        opacity: 0.56
    }
     21.428571% {
        opacity: 0
    }
     100% {
        opacity: 0
    }
}
 #emgZvaE3SIB75 {
    animation: emgZvaE3SIB75_c_o 7000ms linear 1 normal forwards
}
@keyframes emgZvaE3SIB75_c_o {
     0% {
        opacity: 0
    }
     5.714286% {
        opacity: 0
    }
     7.142857% {
        opacity: 0.7
    }
     18.571429% {
        opacity: 0.7
    }
     22.857143% {
        opacity: 0
    }
     100% {
        opacity: 0
    }
}
 #emgZvaE3SIB76 {
    animation: emgZvaE3SIB76_c_o 7000ms linear 1 normal forwards
}
@keyframes emgZvaE3SIB76_c_o {
     0% {
        opacity: 0
    }
     8.571429% {
        opacity: 0
    }
     10% {
        opacity: 0.86
    }
     20% {
        opacity: 0.86
    }
     24.285714% {
        opacity: 0
    }
     100% {
        opacity: 0
    }
}

</style>
<g transform="translate(6.196047 23.818894)"><g><g id="emgZvaE3SIB4_ts" transform="translate(144.365005,115.559998) scale(1,1)"><g id="emgZvaE3SIB4" transform="translate(-144.365005,-115.559998)" opacity="0"><path d="M123.16,77.9l.29-2c1.88-.3,3.34.13,4.43,1.05.13-1.42.86-2.75,2.39-3.87l1.62,1.21c-2.32,1.56-2.46,3.42-1.8,5.02l.01.01l2.83-1.17.7,1.68-7.88,3.26-.7-1.68L128,80.19l-.01-.01c-.67-1.6-2.08-2.82-4.83-2.28Z" opacity="0.8" fill="#fff"/><path d="M158.99,72.34l2.07.86-2.04,4.93l5.7,2.36-.69,1.67-7.77-3.22l2.73-6.6Z" opacity="0.8" fill="#fff"/><path d="M182,94.95l2.07.31c.33,1.89-.03,3.37-.87,4.48c1.38.2,2.69.99,3.78,2.55l-1.24,1.69c-1.65-2.46-3.52-2.61-5.11-1.96l-1.68.7-.85-2.06l1.68-.7c1.59-.66,2.81-2.1,2.22-5.01Z" opacity="0.8" fill="#fff"/><path d="M183.66,127.78c1.99.83,2.72,3.22,1.82,5.37-.87,2.13-3.08,3.3-5.07,2.47-2.01-.83-2.75-3.22-1.87-5.34.9-2.16,3.11-3.33,5.12-2.5Zm.09,4.65c.45-1.08.15-2.18-.93-2.63-1.08-.44-2.03.14-2.48,1.22-.45,1.07-.2,2.18.88,2.63s2.09-.15,2.53-1.22Z" opacity="0.8" fill="#fff"/><path d="M154.54,152.36l7.8-3.23l2.66,6.42-7.8,3.23-2.66-6.42Zm2.79.79l1.29,3.1l3.6-1.49-1.29-3.1-3.6,1.49Z" opacity="0.8" fill="#fff"/><path d="M124.02,152.99l8.02,3.32-.7,1.7-3.01-1.25-.58,1.4-2.09-.86.58-1.4-2.92-1.21.7-1.7Zm4.19,1.17c-1.91-.78-2.87-2.39-2.3-3.81.61-1.44,2.42-1.87,4.33-1.08c1.89.78,2.85,2.37,2.26,3.81-.6,1.42-2.41,1.87-4.29,1.08Zm1.31-3.17c-.67-.27-1.22-.27-1.45.25-.2.5.19.9.86,1.18.65.26,1.22.27,1.43-.23.21-.52-.19-.92-.84-1.2Z" opacity="0.8" fill="#fff"/><path d="M102.61,136.23l-.86-2.07l4.93-2.04-2.36-5.7l1.67-.69l3.22,7.77-6.6,2.73Z" opacity="0.8" fill="#fff"/><g opacity="0.8"><path d="M107.67,96.3c1.99.83,2.72,3.22,1.82,5.37-.87,2.13-3.08,3.3-5.07,2.47-2.01-.83-2.75-3.22-1.87-5.34.9-2.15,3.11-3.32,5.12-2.5Zm.09,4.65c.45-1.08.15-2.18-.93-2.63-1.08-.44-2.03.14-2.48,1.22-.45,1.07-.2,2.18.88,2.63s2.09-.14,2.53-1.22Z" fill="#fff"/></g></g></g><g id="emgZvaE3SIB14_ts" transform="translate(144.030005,116.160003) scale(0.18766,0.18766)"><g id="emgZvaE3SIB14" transform="translate(-144.44573,-113.83063)" opacity="0"><path d="M123.16,77.9l.29-2c1.88-.3,3.34.13,4.43,1.05.13-1.42.86-2.75,2.39-3.87l1.62,1.21c-2.32,1.56-2.46,3.42-1.8,5.02l.01.01l2.83-1.17.7,1.68-7.88,3.26-.7-1.68L128,80.19l-.01-.01c-.67-1.6-2.08-2.82-4.83-2.28Z" opacity="0.8" fill="#fff"/><path d="M158.99,72.34l2.07.86-2.04,4.93l5.7,2.36-.69,1.67-7.77-3.22l2.73-6.6Z" opacity="0.8" fill="#fff"/><path d="M182,94.95l2.07.31c.33,1.89-.03,3.37-.87,4.48c1.38.2,2.69.99,3.78,2.55l-1.24,1.69c-1.65-2.46-3.52-2.61-5.11-1.96l-1.68.7-.85-2.06l1.68-.7c1.59-.66,2.81-2.1,2.22-5.01Z" opacity="0.8" fill="#fff"/><path d="M183.66,127.78c1.99.83,2.72,3.22,1.82,5.37-.87,2.13-3.08,3.3-5.07,2.47-2.01-.83-2.75-3.22-1.87-5.34.9-2.16,3.11-3.33,5.12-2.5Zm.09,4.65c.45-1.08.15-2.18-.93-2.63-1.08-.44-2.03.14-2.48,1.22-.45,1.07-.2,2.18.88,2.63s2.09-.15,2.53-1.22Z" opacity="0.8" fill="#fff"/><path d="M154.54,152.36l7.8-3.23l2.66,6.42-7.8,3.23-2.66-6.42Zm2.79.79l1.29,3.1l3.6-1.49-1.29-3.1-3.6,1.49Z" opacity="0.8" fill="#fff"/><path d="M124.02,152.99l8.02,3.32-.7,1.7-3.01-1.25-.58,1.4-2.09-.86.58-1.4-2.92-1.21.7-1.7Zm4.19,1.17c-1.91-.78-2.87-2.39-2.3-3.81.61-1.44,2.42-1.87,4.33-1.08c1.89.78,2.85,2.37,2.26,3.81-.6,1.42-2.41,1.87-4.29,1.08Zm1.31-3.17c-.67-.27-1.22-.27-1.45.25-.2.5.19.9.86,1.18.65.26,1.22.27,1.43-.23.21-.52-.19-.92-.84-1.2Z" opacity="0.8" fill="#fff"/><path d="M102.61,136.23l-.86-2.07l4.93-2.04-2.36-5.7l1.67-.69l3.22,7.77-6.6,2.73Z" opacity="0.8" fill="#fff"/><g opacity="0.8"><path d="M107.67,96.3c1.99.83,2.72,3.22,1.82,5.37-.87,2.13-3.08,3.3-5.07,2.47-2.01-.83-2.75-3.22-1.87-5.34.9-2.15,3.11-3.32,5.12-2.5Zm.09,4.65c.45-1.08.15-2.18-.93-2.63-1.08-.44-2.03.14-2.48,1.22-.45,1.07-.2,2.18.88,2.63s2.09-.14,2.53-1.22Z" fill="#fff"/></g></g></g><g id="emgZvaE3SIB24_ts" transform="translate(144.365005,115.559998) scale(1.67653,1.67653)"><g id="emgZvaE3SIB24" transform="translate(-144.365005,-115.559998)" opacity="0"><path d="M123.16,77.9l.29-2c1.88-.3,3.34.13,4.43,1.05.13-1.42.86-2.75,2.39-3.87l1.62,1.21c-2.32,1.56-2.46,3.42-1.8,5.02l.01.01l2.83-1.17.7,1.68-7.88,3.26-.7-1.68L128,80.19l-.01-.01c-.67-1.6-2.08-2.82-4.83-2.28Z" opacity="0.8" fill="#fff"/><path d="M158.99,72.34l2.07.86-2.04,4.93l5.7,2.36-.69,1.67-7.77-3.22l2.73-6.6Z" opacity="0.8" fill="#fff"/><path d="M182,94.95l2.07.31c.33,1.89-.03,3.37-.87,4.48c1.38.2,2.69.99,3.78,2.55l-1.24,1.69c-1.65-2.46-3.52-2.61-5.11-1.96l-1.68.7-.85-2.06l1.68-.7c1.59-.66,2.81-2.1,2.22-5.01Z" opacity="0.8" fill="#fff"/><path d="M183.66,127.78c1.99.83,2.72,3.22,1.82,5.37-.87,2.13-3.08,3.3-5.07,2.47-2.01-.83-2.75-3.22-1.87-5.34.9-2.16,3.11-3.33,5.12-2.5Zm.09,4.65c.45-1.08.15-2.18-.93-2.63-1.08-.44-2.03.14-2.48,1.22-.45,1.07-.2,2.18.88,2.63s2.09-.15,2.53-1.22Z" opacity="0.8" fill="#fff"/><path d="M154.54,152.36l7.8-3.23l2.66,6.42-7.8,3.23-2.66-6.42Zm2.79.79l1.29,3.1l3.6-1.49-1.29-3.1-3.6,1.49Z" opacity="0.8" fill="#fff"/><path d="M124.02,152.99l8.02,3.32-.7,1.7-3.01-1.25-.58,1.4-2.09-.86.58-1.4-2.92-1.21.7-1.7Zm4.19,1.17c-1.91-.78-2.87-2.39-2.3-3.81.61-1.44,2.42-1.87,4.33-1.08c1.89.78,2.85,2.37,2.26,3.81-.6,1.42-2.41,1.87-4.29,1.08Zm1.31-3.17c-.67-.27-1.22-.27-1.45.25-.2.5.19.9.86,1.18.65.26,1.22.27,1.43-.23.21-.52-.19-.92-.84-1.2Z" opacity="0.8" fill="#fff"/><path d="M102.61,136.23l-.86-2.07l4.93-2.04-2.36-5.7l1.67-.69l3.22,7.77-6.6,2.73Z" opacity="0.8" fill="#fff"/><g opacity="0.8"><path d="M107.67,96.3c1.99.83,2.72,3.22,1.82,5.37-.87,2.13-3.08,3.3-5.07,2.47-2.01-.83-2.75-3.22-1.87-5.34.9-2.15,3.11-3.32,5.12-2.5Zm.09,4.65c.45-1.08.15-2.18-.93-2.63-1.08-.44-2.03.14-2.48,1.22-.45,1.07-.2,2.18.88,2.63s2.09-.14,2.53-1.22Z" fill="#fff"/></g></g></g></g><g id="emgZvaE3SIB34_ts" transform="translate(144.030005,116.160003) scale(0.388395,0.388395)"><g id="emgZvaE3SIB34" transform="translate(-144.030004,-116.160003)" opacity="0"><circle r="2.21" transform="translate(136.440002 97.540001)" fill="#fff"/><circle r="2.21" transform="translate(126.370003 107.279999)" fill="#fff"/><circle r="2.21" transform="translate(124.919998 121.220001)" fill="#fff"/><circle r="2.21" transform="translate(132.770004 132.839996)" fill="#fff"/><circle r="2.21" transform="translate(146.240005 136.690002)" fill="#fff"/><circle r="2.21" transform="translate(159.039993 130.979996)" fill="#fff"/><circle r="2.21" transform="translate(165.169998 118.370003)" fill="#fff"/><circle r="2.21" transform="translate(161.770004 104.779999)" fill="#fff"/><circle r="2.21" transform="translate(150.429993 96.550003)" fill="#fff"/></g></g><g id="emgZvaE3SIB44" opacity="0"><circle r="3.15" transform="translate(109.900002 81.830002)" fill="#fff"/><circle r="3.15" transform="translate(95.760002 115.959999)" fill="#fff"/><circle r="3.15" transform="translate(109.900002 150.100006)" fill="#fff"/><circle r="3.15" transform="translate(144.029999 164.240005)" fill="#fff"/><circle r="3.15" transform="translate(178.169998 150.100006)" fill="#fff"/><circle r="3.15" transform="translate(192.309998 115.959999)" fill="#fff"/><circle r="3.15" transform="translate(178.169998 81.830002)" fill="#fff"/><circle r="3.15" transform="translate(144.029999 67.690002)" fill="#fff"/></g><g id="emgZvaE3SIB53" opacity="0"><circle r="4.09" transform="translate(99.660004 71.589996)" fill="#fff"/><circle r="4.09" transform="translate(81.279999 115.959999)" fill="#fff"/><circle r="4.09" transform="translate(99.660004 160.339996)" fill="#fff"/><circle r="4.09" transform="translate(144.029999 178.720001)" fill="#fff"/><circle r="4.09" transform="translate(188.410004 160.339996)" fill="#fff"/><circle r="4.09" transform="translate(206.789993 115.959999)" fill="#fff"/><circle r="4.09" transform="translate(188.410004 71.589996)" fill="#fff"/><circle r="4.09" transform="translate(144.029999 53.209999)" fill="#fff"/></g><g id="emgZvaE3SIB62" opacity="0"><circle r="5.32" transform="translate(86.349998 58.279999)" fill="#fff"/><circle r="5.32" transform="translate(62.450001 115.959999)" fill="#fff"/><circle r="5.32" transform="translate(86.349998 173.649994)" fill="#fff"/><circle r="5.32" transform="translate(144.029999 197.539993)" fill="#fff"/><circle r="5.32" transform="translate(201.720001 173.649994)" fill="#fff"/><circle r="5.32" transform="translate(225.610001 115.959999)" fill="#fff"/><circle r="5.32" transform="translate(201.720001 58.279999)" fill="#fff"/><circle r="5.32" transform="translate(144.029999 34.380001)" fill="#fff"/></g><g id="emgZvaE3SIB71_to" transform="translate(143.829994,280.270004)"><g id="emgZvaE3SIB71_ts" transform="scale(1,1)"><circle id="emgZvaE3SIB71" r="3.27" transform="translate(0.000008,-0.000015)" opacity="0" fill="#fff"/></g></g><circle id="emgZvaE3SIB72" r="3.73" transform="matrix(1.28037 0 0 1.28037 143.83 247.586423)" opacity="0" fill="#fff"/><circle id="emgZvaE3SIB73" r="4.2" transform="matrix(1.480645 0 0 1.480645 143.830002 216.267018)" opacity="0" fill="#fff"/><circle id="emgZvaE3SIB74" r="7.50238" transform="translate(143.830002 188.404161)" opacity="0" fill="#fff"/><circle id="emgZvaE3SIB75" r="8.532154" transform="translate(143.830002 166.052461)" opacity="0" fill="#fff"/><circle id="emgZvaE3SIB76" r="6.32" transform="matrix(1.549717 0 0 1.549717 143.830006 142.414587)" opacity="0" fill="#fff"/></g></svg>
