<svg id="esaY4dk8VHp1" xmlns="http://www.w3.org/2000/svg" xmlns:xlink="http://www.w3.org/1999/xlink" viewBox="0 0 530 324" shape-rendering="geometricPrecision" text-rendering="geometricPrecision" project-id="fe8a577814cf438d879cf320dfd0d4bf" export-id="5c260076f98f4a6796de728bc67a8e36" cached="false" style="background-color:transparent">
<style><![CDATA[
#esaY4dk8VHp36 {animation: esaY4dk8VHp36_s_do 9666.666666666666ms linear 1 normal forwards}@keyframes esaY4dk8VHp36_s_do { 0% {stroke-dashoffset: 19.08} 97.931034% {stroke-dashoffset: 19.08} 100% {stroke-dashoffset: 0}} #esaY4dk8VHp37 {animation: esaY4dk8VHp37_s_do 9666.666666666666ms linear 1 normal forwards}@keyframes esaY4dk8VHp37_s_do { 0% {stroke-dashoffset: 70.2} 94.482759% {stroke-dashoffset: 70.2;animation-timing-function: cubic-bezier(0,0,0.58,1)} 97.931034% {stroke-dashoffset: 0} 100% {stroke-dashoffset: 0}} #esaY4dk8VHp38 {animation: esaY4dk8VHp38_s_do 9666.666666666666ms linear 1 normal forwards}@keyframes esaY4dk8VHp38_s_do { 0% {stroke-dashoffset: 37.04} 92.413793% {stroke-dashoffset: 37.04} 94.482759% {stroke-dashoffset: 0} 100% {stroke-dashoffset: 0}} #esaY4dk8VHp39 {animation: esaY4dk8VHp39_s_do 9666.666666666666ms linear 1 normal forwards}@keyframes esaY4dk8VHp39_s_do { 0% {stroke-dashoffset: 27.97} 90.344828% {stroke-dashoffset: 27.97} 92.413793% {stroke-dashoffset: 0} 100% {stroke-dashoffset: 0}} #esaY4dk8VHp40 {animation: esaY4dk8VHp40_s_do 9666.666666666666ms linear 1 normal forwards}@keyframes esaY4dk8VHp40_s_do { 0% {stroke-dashoffset: 46.52} 88.275862% {stroke-dashoffset: 46.52} 90.344828% {stroke-dashoffset: 0} 100% {stroke-dashoffset: 0}} #esaY4dk8VHp41 {animation: esaY4dk8VHp41_s_do 9666.666666666666ms linear 1 normal forwards}@keyframes esaY4dk8VHp41_s_do { 0% {stroke-dashoffset: 61.62} 85.517241% {stroke-dashoffset: 61.62} 88.275862% {stroke-dashoffset: 0} 100% {stroke-dashoffset: 0}} #esaY4dk8VHp42 {animation: esaY4dk8VHp42_s_do 9666.666666666666ms linear 1 normal forwards}@keyframes esaY4dk8VHp42_s_do { 0% {stroke-dashoffset: 20.86} 83.448276% {stroke-dashoffset: 20.86} 85.517241% {stroke-dashoffset: 0} 100% {stroke-dashoffset: 0}} #esaY4dk8VHp43 {animation: esaY4dk8VHp43_s_do 9666.666666666666ms linear 1 normal forwards}@keyframes esaY4dk8VHp43_s_do { 0% {stroke-dashoffset: 22.61} 82.068966% {stroke-dashoffset: 22.61} 83.448276% {stroke-dashoffset: 0} 100% {stroke-dashoffset: 0}} #esaY4dk8VHp44 {animation: esaY4dk8VHp44_s_do 9666.666666666666ms linear 1 normal forwards}@keyframes esaY4dk8VHp44_s_do { 0% {stroke-dashoffset: 28.65} 80.689655% {stroke-dashoffset: 28.65} 82.068966% {stroke-dashoffset: 0} 100% {stroke-dashoffset: 0}} #esaY4dk8VHp45 {animation: esaY4dk8VHp45_s_do 9666.666666666666ms linear 1 normal forwards}@keyframes esaY4dk8VHp45_s_do { 0% {stroke-dashoffset: 11.14} 79.310345% {stroke-dashoffset: 11.14} 80.689655% {stroke-dashoffset: 0} 100% {stroke-dashoffset: 0}} #esaY4dk8VHp46 {animation: esaY4dk8VHp46_s_do 9666.666666666666ms linear 1 normal forwards}@keyframes esaY4dk8VHp46_s_do { 0% {stroke-dashoffset: 45.24} 75.862069% {stroke-dashoffset: 45.24;animation-timing-function: cubic-bezier(0.42,0,1,1)} 79.310345% {stroke-dashoffset: 0} 100% {stroke-dashoffset: 0}} #esaY4dk8VHp47 {animation: esaY4dk8VHp47_s_do 9666.666666666666ms linear 1 normal forwards}@keyframes esaY4dk8VHp47_s_do { 0% {stroke-dashoffset: 52.93} 73.793103% {stroke-dashoffset: 52.93} 75.862069% {stroke-dashoffset: 0} 100% {stroke-dashoffset: 0}} #esaY4dk8VHp48 {animation: esaY4dk8VHp48_s_do 9666.666666666666ms linear 1 normal forwards}@keyframes esaY4dk8VHp48_s_do { 0% {stroke-dashoffset: 17.35} 72.413793% {stroke-dashoffset: 17.35} 73.793103% {stroke-dashoffset: 0} 100% {stroke-dashoffset: 0}} #esaY4dk8VHp49 {animation: esaY4dk8VHp49_s_do 9666.666666666666ms linear 1 normal forwards}@keyframes esaY4dk8VHp49_s_do { 0% {stroke-dashoffset: 75.52} 68.965517% {stroke-dashoffset: 75.52} 72.413793% {stroke-dashoffset: 0} 100% {stroke-dashoffset: 0}} #esaY4dk8VHp50 {animation: esaY4dk8VHp50_s_do 9666.666666666666ms linear 1 normal forwards}@keyframes esaY4dk8VHp50_s_do { 0% {stroke-dashoffset: 46.42} 66.206897% {stroke-dashoffset: 46.42} 68.275862% {stroke-dashoffset: 0} 100% {stroke-dashoffset: 0}} #esaY4dk8VHp51 {animation: esaY4dk8VHp51_s_do 9666.666666666666ms linear 1 normal forwards}@keyframes esaY4dk8VHp51_s_do { 0% {stroke-dashoffset: 22.92} 64.137931% {stroke-dashoffset: 22.92} 66.206897% {stroke-dashoffset: 0} 100% {stroke-dashoffset: 0}} #esaY4dk8VHp52 {animation: esaY4dk8VHp52_s_do 9666.666666666666ms linear 1 normal forwards}@keyframes esaY4dk8VHp52_s_do { 0% {stroke-dashoffset: 58.04} 57.241379% {stroke-dashoffset: 58.04;animation-timing-function: cubic-bezier(0,0,0.58,1)} 61.37931% {stroke-dashoffset: 0} 100% {stroke-dashoffset: 0}} #esaY4dk8VHp53 {animation: esaY4dk8VHp53_s_do 9666.666666666666ms linear 1 normal forwards}@keyframes esaY4dk8VHp53_s_do { 0% {stroke-dashoffset: 18.76} 56.551724% {stroke-dashoffset: 18.76} 57.931034% {stroke-dashoffset: 0} 100% {stroke-dashoffset: 0}} #esaY4dk8VHp54 {animation: esaY4dk8VHp54_s_do 9666.666666666666ms linear 1 normal forwards}@keyframes esaY4dk8VHp54_s_do { 0% {stroke-dashoffset: 24} 55.172414% {stroke-dashoffset: 24} 56.551724% {stroke-dashoffset: 0} 100% {stroke-dashoffset: 0}} #esaY4dk8VHp55 {animation: esaY4dk8VHp55_s_do 9666.666666666666ms linear 1 normal forwards}@keyframes esaY4dk8VHp55_s_do { 0% {stroke-dashoffset: 52.73} 53.103448% {stroke-dashoffset: 52.73;animation-timing-function: cubic-bezier(0,0,0.58,1)} 55.172414% {stroke-dashoffset: 0} 100% {stroke-dashoffset: 0}} #esaY4dk8VHp56 {animation: esaY4dk8VHp56_s_do 9666.666666666666ms linear 1 normal forwards}@keyframes esaY4dk8VHp56_s_do { 0% {stroke-dashoffset: 29.23} 51.724138% {stroke-dashoffset: 29.23;animation-timing-function: cubic-bezier(0,0,0.58,1)} 53.103448% {stroke-dashoffset: 0} 100% {stroke-dashoffset: 0}} #esaY4dk8VHp57 {animation: esaY4dk8VHp57_s_do 9666.666666666666ms linear 1 normal forwards}@keyframes esaY4dk8VHp57_s_do { 0% {stroke-dashoffset: 52.01} 48.965517% {stroke-dashoffset: 52.01;animation-timing-function: cubic-bezier(0,0,0.58,1)} 51.724138% {stroke-dashoffset: 0} 100% {stroke-dashoffset: 0}} #esaY4dk8VHp58 {animation: esaY4dk8VHp58_s_do 9666.666666666666ms linear 1 normal forwards}@keyframes esaY4dk8VHp58_s_do { 0% {stroke-dashoffset: 30.2} 47.586207% {stroke-dashoffset: 30.2} 48.965517% {stroke-dashoffset: 0} 100% {stroke-dashoffset: 0}} #esaY4dk8VHp59 {animation: esaY4dk8VHp59_s_do 9666.666666666666ms linear 1 normal forwards}@keyframes esaY4dk8VHp59_s_do { 0% {stroke-dashoffset: 25.51} 46.206897% {stroke-dashoffset: 25.51} 47.586207% {stroke-dashoffset: 0} 100% {stroke-dashoffset: 0}} #esaY4dk8VHp60 {animation: esaY4dk8VHp60_s_do 9666.666666666666ms linear 1 normal forwards}@keyframes esaY4dk8VHp60_s_do { 0% {stroke-dashoffset: 70.54} 42.758621% {stroke-dashoffset: 70.54;animation-timing-function: cubic-bezier(0.39,0.575,0.565,1)} 46.206897% {stroke-dashoffset: 0} 100% {stroke-dashoffset: 0}} #esaY4dk8VHp61 {animation: esaY4dk8VHp61_s_do 9666.666666666666ms linear 1 normal forwards}@keyframes esaY4dk8VHp61_s_do { 0% {stroke-dashoffset: 48.18} 40.689655% {stroke-dashoffset: 48.18;animation-timing-function: cubic-bezier(0.39,0.575,0.565,1)} 42.758621% {stroke-dashoffset: 0} 100% {stroke-dashoffset: 0}} #esaY4dk8VHp62 {animation: esaY4dk8VHp62_s_do 9666.666666666666ms linear 1 normal forwards}@keyframes esaY4dk8VHp62_s_do { 0% {stroke-dashoffset: 21.16} 38.62069% {stroke-dashoffset: 21.16;animation-timing-function: cubic-bezier(0.39,0.575,0.565,1)} 40% {stroke-dashoffset: 0} 100% {stroke-dashoffset: 0}} #esaY4dk8VHp63 {animation: esaY4dk8VHp63_s_do 9666.666666666666ms linear 1 normal forwards}@keyframes esaY4dk8VHp63_s_do { 0% {stroke-dashoffset: 29.81} 36.551724% {stroke-dashoffset: 29.81;animation-timing-function: cubic-bezier(0.39,0.575,0.565,1)} 38.62069% {stroke-dashoffset: 0} 100% {stroke-dashoffset: 0}} #esaY4dk8VHp64 {animation: esaY4dk8VHp64_s_do 9666.666666666666ms linear 1 normal forwards}@keyframes esaY4dk8VHp64_s_do { 0% {stroke-dashoffset: 39.19} 34.482759% {stroke-dashoffset: 39.19;animation-timing-function: cubic-bezier(0.39,0.575,0.565,1)} 36.551724% {stroke-dashoffset: 0} 100% {stroke-dashoffset: 0}} #esaY4dk8VHp65 {animation: esaY4dk8VHp65_s_do 9666.666666666666ms linear 1 normal forwards}@keyframes esaY4dk8VHp65_s_do { 0% {stroke-dashoffset: 52.62} 31.724138% {stroke-dashoffset: 52.62;animation-timing-function: cubic-bezier(0.42,0,1,1)} 33.103448% {stroke-dashoffset: 0} 100% {stroke-dashoffset: 0}} #esaY4dk8VHp66 {animation: esaY4dk8VHp66_s_do 9666.666666666666ms linear 1 normal forwards}@keyframes esaY4dk8VHp66_s_do { 0% {stroke-dashoffset: 67.72} 28.965517% {stroke-dashoffset: 67.72;animation-timing-function: cubic-bezier(0.42,0,1,1)} 31.724138% {stroke-dashoffset: 0} 100% {stroke-dashoffset: 0}} #esaY4dk8VHp67 {animation: esaY4dk8VHp67_s_do 9666.666666666666ms linear 1 normal forwards}@keyframes esaY4dk8VHp67_s_do { 0% {stroke-dashoffset: 31.23} 27.586207% {stroke-dashoffset: 31.23;animation-timing-function: cubic-bezier(0.42,0,1,1)} 28.965517% {stroke-dashoffset: 0} 100% {stroke-dashoffset: 0}} #esaY4dk8VHp68 {animation: esaY4dk8VHp68_s_do 9666.666666666666ms linear 1 normal forwards}@keyframes esaY4dk8VHp68_s_do { 0% {stroke-dashoffset: 22.52} 25.517241% {stroke-dashoffset: 22.52} 26.206897% {stroke-dashoffset: 0} 100% {stroke-dashoffset: 0}} #esaY4dk8VHp69 {animation: esaY4dk8VHp69_s_do 9666.666666666666ms linear 1 normal forwards}@keyframes esaY4dk8VHp69_s_do { 0% {stroke-dashoffset: 37.87} 26.206897% {stroke-dashoffset: 37.87} 27.586207% {stroke-dashoffset: 0} 100% {stroke-dashoffset: 0}} #esaY4dk8VHp70 {animation: esaY4dk8VHp70_s_do 9666.666666666666ms linear 1 normal forwards}@keyframes esaY4dk8VHp70_s_do { 0% {stroke-dashoffset: 40.34} 1.37931% {stroke-dashoffset: 40.34;animation-timing-function: cubic-bezier(0.42,0,1,1)} 3.448276% {stroke-dashoffset: 0} 100% {stroke-dashoffset: 0}} #esaY4dk8VHp71 {animation: esaY4dk8VHp71_s_do 9666.666666666666ms linear 1 normal forwards}@keyframes esaY4dk8VHp71_s_do { 0% {stroke-dashoffset: 20.19} 3.448276% {stroke-dashoffset: 20.19} 4.827586% {stroke-dashoffset: 0} 100% {stroke-dashoffset: 0}} #esaY4dk8VHp72 {animation: esaY4dk8VHp72_s_do 9666.666666666666ms linear 1 normal forwards}@keyframes esaY4dk8VHp72_s_do { 0% {stroke-dashoffset: 69.15} 4.827586% {stroke-dashoffset: 69.15;animation-timing-function: cubic-bezier(0.42,0,1,1)} 6.896552% {stroke-dashoffset: 0} 100% {stroke-dashoffset: 0}} #esaY4dk8VHp73 {animation: esaY4dk8VHp73_s_do 9666.666666666666ms linear 1 normal forwards}@keyframes esaY4dk8VHp73_s_do { 0% {stroke-dashoffset: 28.64} 6.896552% {stroke-dashoffset: 28.64} 8.275862% {stroke-dashoffset: 0} 100% {stroke-dashoffset: 0}} #esaY4dk8VHp74 {animation: esaY4dk8VHp74_s_do 9666.666666666666ms linear 1 normal forwards}@keyframes esaY4dk8VHp74_s_do { 0% {stroke-dashoffset: 54.32} 8.275862% {stroke-dashoffset: 54.32;animation-timing-function: cubic-bezier(0.42,0,1,1)} 10.344828% {stroke-dashoffset: 0} 100% {stroke-dashoffset: 0}} #esaY4dk8VHp75 {animation: esaY4dk8VHp75_s_do 9666.666666666666ms linear 1 normal forwards}@keyframes esaY4dk8VHp75_s_do { 0% {stroke-dashoffset: 22.48} 1.37931% {stroke-dashoffset: 0} 100% {stroke-dashoffset: 0}} #esaY4dk8VHp76 {animation: esaY4dk8VHp76_s_do 9666.666666666666ms linear 1 normal forwards}@keyframes esaY4dk8VHp76_s_do { 0% {stroke-dashoffset: 20.77} 10.344828% {stroke-dashoffset: 20.77} 11.724138% {stroke-dashoffset: 0} 100% {stroke-dashoffset: 0}} #esaY4dk8VHp77 {animation: esaY4dk8VHp77_s_do 9666.666666666666ms linear 1 normal forwards}@keyframes esaY4dk8VHp77_s_do { 0% {stroke-dashoffset: 30.15} 11.724138% {stroke-dashoffset: 30.15} 13.103448% {stroke-dashoffset: 0} 100% {stroke-dashoffset: 0}} #esaY4dk8VHp78 {animation: esaY4dk8VHp78_s_do 9666.666666666666ms linear 1 normal forwards}@keyframes esaY4dk8VHp78_s_do { 0% {stroke-dashoffset: 40.93} 13.103448% {stroke-dashoffset: 40.93} 15.172414% {stroke-dashoffset: 0} 100% {stroke-dashoffset: 0}} #esaY4dk8VHp79 {animation: esaY4dk8VHp79_s_do 9666.666666666666ms linear 1 normal forwards}@keyframes esaY4dk8VHp79_s_do { 0% {stroke-dashoffset: 60.85} 15.172414% {stroke-dashoffset: 60.85} 17.241379% {stroke-dashoffset: 0} 100% {stroke-dashoffset: 0}} #esaY4dk8VHp80 {animation: esaY4dk8VHp80_s_do 9666.666666666666ms linear 1 normal forwards}@keyframes esaY4dk8VHp80_s_do { 0% {stroke-dashoffset: 34.99} 17.241379% {stroke-dashoffset: 34.99} 18.62069% {stroke-dashoffset: 0} 100% {stroke-dashoffset: 0}} #esaY4dk8VHp81 {animation: esaY4dk8VHp81_s_do 9666.666666666666ms linear 1 normal forwards}@keyframes esaY4dk8VHp81_s_do { 0% {stroke-dashoffset: 57.06} 18.62069% {stroke-dashoffset: 57.06;animation-timing-function: cubic-bezier(0,0,0.58,1)} 21.37931% {stroke-dashoffset: 0} 100% {stroke-dashoffset: 0}} #esaY4dk8VHp82 {animation: esaY4dk8VHp82_s_do 9666.666666666666ms linear 1 normal forwards}@keyframes esaY4dk8VHp82_s_do { 0% {stroke-dashoffset: 16.66} 21.37931% {stroke-dashoffset: 16.66} 22.758621% {stroke-dashoffset: 0} 100% {stroke-dashoffset: 0}}
]]></style>
<g mask="url(#esaY4dk8VHp35)"><g transform="translate(.000001 0.000001)"><path d="M522.7,222.5c12.7,3,6.8,17.2-2.6,15.8-3.5.3-28.8-1.5-17.1-9.1c6.1-1.4,12.8-8.8,19.7-6.7Z" clip-rule="evenodd" fill="#fff" fill-rule="evenodd"/><path d="M487.5,220.8c35.2,23.4,1.9,118.2-7.2,58.1-1-14.8,1.6-25.5,1.6-39.4-.7-6.2-2.5-11.7-7.7-16.3c1.9-4.7,9.6-5,13.3-2.4v0Z" clip-rule="evenodd" fill="#fff" fill-rule="evenodd"/><path d="M454.9,229c11.7,12.3-18,9.9-23.6,8.9-3.2-1.7-.1,4.9-.6,5.6-.4,4-.1,4.8,3.5,3.8c24.8-1.4,23.4,14.2.6,9.3-13.1,0-15.8-8.6-12.5-20.3-.3-1.9-3.6-4.7.1-5.7c6.2-1.2,29.5-5.7,32.5-1.6v0Z" clip-rule="evenodd" fill="#fff" fill-rule="evenodd"/><path d="M376.9,239.6c-1-2.5-.6-7.7,2.3-9.1c3.5.6,1.9,13.8-2.3,9.1Zm8-17.8c3.2,1,1.1,4.4,2.3,5.9c7.6,2.7,7.9,16.3-.2,19.2c6.7,8.7-.2,22.2,3.4,20.6c10.4.2,30.6,1.8,31.2,7.6c5.4,15-50.8,1.2-57.4,1.8-29.9-8.2,2.1-10,13.5-9.6-1-3.8,1.1-8.6,1.1-13.2.3-11.1-3-1.7-8-8.6-7.5-9.5,3.3-27.2,14.1-23.7v0Z" clip-rule="evenodd" fill="#fff" fill-rule="evenodd"/><path d="M369.5,288.7c13.3,9.3-1,28.1,22.6,27.8c1.7-.2,5.1.8,5.8,3.5-7.5,8.7-29.6,2-30.2-10.1-1.7-6.6.9-14.5-2.3-20.4c1-.6,2.2-1.3,4.1-.8v0Z" clip-rule="evenodd" fill="#fff" fill-rule="evenodd"/><path d="M319.4,209.4c16,4,16.9,31.7,15.1,42.9-3.4,14.8-22.7,16.5-18.3-3.8c1.2-8.3.7-18.3.2-27.7-.2-3.9-4.6-13.4,3-11.4v0Z" clip-rule="evenodd" fill="#fff" fill-rule="evenodd"/><path d="M350.9,227.3c16.7,4.4.9,17.4-9.7,10.9-13.1-5.5,1.8-12.5,9.7-10.9Z" clip-rule="evenodd" fill="#fff" fill-rule="evenodd"/><path d="M279.3,228.4c26.3,0,4.5,30.4-5.6,38.6-18.9,7.3,2.6-21,4.5-27.7-21.9,1.1-20.1-10.5,1.1-10.9Z" clip-rule="evenodd" fill="#fff" fill-rule="evenodd"/><path d="M212.8,221c20.8-.9,28.7,88.4,3.2,80.8-4.7-7-1.1-17.6-2.8-25.2.4-15.3-.5-32-1.1-46.6.3-4-4.7-9.5.7-9Z" clip-rule="evenodd" fill="#fff" fill-rule="evenodd"/><path d="M180.6,233.2c16.4,3.2,10.4,19.7-4.1,18.4-7-.6-19.1-1.8-22.2-10.2-.4-6.7,21.5-9,26.3-8.2Z" transform="translate(.000001 0)" clip-rule="evenodd" fill="#fff" fill-rule="evenodd"/><path d="M254.8,236.6c13.5,11-20.8,16.3-24.4,8.1c7.2-4.1,16.5-9.7,24.4-8.1Z" clip-rule="evenodd" fill="#fff" fill-rule="evenodd"/><path d="M152.1,248.7c-.5,18.4,15.9,13.9,27.2,16.4c15.5.9,1.1,12.9-5.7,11.2-40.7.6-25.3-55.7-21.5-27.6Z" clip-rule="evenodd" fill="#fff" fill-rule="evenodd"/><path d="M410.5,128.1c12.3,8.7,7.2,23.2,9.6,31.8.7-1.1-2.6,12.5-1.1,14.4c0,.5-1.5,1.7-.2,1.8-1.7,4.4-1.7,8.8-3.9,13.3-6,3.6-10.4-5.4-8.9-10.3-.8-11.7,1.8-22.8,1.8-33.4c1.3-4.4-6.8-24.2,2.7-17.6v0Z" clip-rule="evenodd" fill="#fff" fill-rule="evenodd"/><path d="M367.1,154.2c.1,0,.3-.1.2.1-.2-.1-.1,0-.2-.1Zm-.3-4.9c5.6-.9,1.3,0,.7,2.8-.3,1.7,1.8,11.7-2.7,6.9-2.7-2.5-.1-8.2,2-9.7v0Zm5.2-3c13.7-4.1,12.6,22.6-4.5,20.9-14.5-1.9-9.6-29.3,4.5-20.9Z" clip-rule="evenodd" fill="#fff" fill-rule="evenodd"/><path d="M297.1,124.4c2.9,9,10.6,18.1,8.4,28.4-2.8,6.5-9,.6-10.8-4-16.6,28.7-18.7-4.8-5.9-18.4-4.5-7.1,4.4-13.7,8.3-6v0Z" clip-rule="evenodd" fill="#fff" fill-rule="evenodd"/><path d="M324.5,102.7c10.2.3,15.3,12.7,16.3,21.7-.4,3.9,3.5-1.4,5.1-1.7c8.6-2.2,17-5.3,24.4.6c7.7,18.9-18.5,11.1-28.5,4.5-1.6,3,1.3,24.5-5.5,27.2-26.6,10.6,2.7-46.8-18.8-47.6-5.5-3.3,4.6-4.7,7-4.7v0Z" clip-rule="evenodd" fill="#fff" fill-rule="evenodd"/><path d="M313.3,161c7-4.1,6.6,13.3-.4,11.3-3.9-1.1-2.6-9.9.4-11.3Zm-.9-5.7c2.8,3,8-1.5,12,1.3c13.4,8.2-2.6,20-6.6,22.6-15.2,3.6-19.8-18.1-5.4-23.9v0Z" clip-rule="evenodd" fill="#fff" fill-rule="evenodd"/><path d="M231.2,115.8c19.4,2.1,17.1,72.3,1.9,55.3-3.4-8.6-1.5-18.4-3-27.5-3.3-1.5-10.6.6-14.9-1.5-19.1-7.9,3-10.7,11.7-11.5c5.1,1.6-1.7-12.9,4.3-14.8v0Z" clip-rule="evenodd" fill="#fff" fill-rule="evenodd"/><path d="M190.1,115.6c7.9-1,6.8,9.1,10.2,13.1c22,21.9,12.2,59-3.5,18-23,33.9-27.1,4-10.1-18.2c1.7-4.5-3-11,3.4-12.9Z" clip-rule="evenodd" fill="#fff" fill-rule="evenodd"/><path d="M262.4,127.7c6.3,8.9,14.5,82.7-4.1,75.3-11.8-21,1.4-54.6-3.3-77.7-.4-3.7,6.7.1,7.4,2.4Z" clip-rule="evenodd" fill="#fff" fill-rule="evenodd"/><path d="M148,18.8c13.7,2.6,4.5,25.2,15.2,16.3c5-3.4,11.4-4.6,16.9-4.9c2-.4,1.2-6.6-.4-7.9-2.5-1.9.9-3,2.9-3.2C194,18.7,194,35,194.9,45.3c-.3,13,4.6,34.4-7.2,39.8-10.7-10.6-3.6-29.7-7.7-41.7-6.1,1-13.2,1.3-20.3,2.4-2.5,11.9,1,62.1-20.3,38.5-.4-7.1,1.7-71.4,8.6-65.5v0Z" clip-rule="evenodd" fill="#fff" fill-rule="evenodd"/><path d="M120.6,29.9c5.6-2.5,21.4,10.2,9.5,14-8.6.3-21.1-2.3-30.7-5.7-12.2-6.7,18.5-8.4,21.2-8.3v0Z" clip-rule="evenodd" fill="#fff" fill-rule="evenodd"/><path d="M210.3,57.8c22.2,2.5-.4,37.9-2.6,18.3.6-3.9-4.1-18.9,2.6-18.3Z" clip-rule="evenodd" fill="#fff" fill-rule="evenodd"/><path d="M106.9,9.8c5.8,1.4,11.7,6.2,10.8,13.6-1.5,8.1-12-.2-17-1.7C83.3,15.8,96.1,9,106.9,9.8v0Z" clip-rule="evenodd" fill="#fff" fill-rule="evenodd"/><path d="M104.7,67.8c-.3-1.3.2-8.6,1.5-6.9c4,3.7,4.5,14.7-1.5,6.9Zm.9-7.9c-.2,0-.1-.1-.1-.2.1.1,0,0,.1.2Zm3.1-5.8c13.3,3.5,12.7,28.7-2.6,23.3-8.4-2.2-3.2-8.1-7.3-8.9-5.3-6.4,4.5-17.4,9.9-14.4v0Z" clip-rule="evenodd" fill="#fff" fill-rule="evenodd"/><path d="M54.1,57.7c5.6,7.1,5.8,15.9,5.8,24.4-1.5,3.6-4.5,15.8-8.5,9.2.4-6.4-7.9-36.2,2.7-33.6v0Z" clip-rule="evenodd" fill="#fff" fill-rule="evenodd"/><path d="M48.7,38.1c9.4-1.1,33.8.7,32.7,15.7-23.1.4-55.1-.8-76.1-2.9-23-10.7,35.9-14.3,43.4-12.8Z" clip-rule="evenodd" fill="#fff" fill-rule="evenodd"/><path d="M48.9,8.7c11.7-2,9.7,9.3,5.9,9.3-3.3-.8-11.3,3.3-11.9.7-1.4-7.3-1.7-10.9,6-10v0ZM61.2,0.4c4.8,2.2,8.6,7.7,5.9,13.2-4.7,7.8-.3,4.7-1.6,10.1-4.5,7.9-19,4.3-24.8,5.2-10.2,1.9-9.5-19-5.3-25.7c1.7-2.7,5.1-1.2,5.5,1.2c6-1.6,12.9-5.7,20.3-4Z" clip-rule="evenodd" fill="#fff" fill-rule="evenodd"/><path d="M36.5,72.8c13.2,40.4-5.2,23.6,35.3,31.5-1.3,10.2-25.6,6.1-30.4,1-8.1-1.7-17-35.7-4.9-32.5v0Z" clip-rule="evenodd" fill="#fff" fill-rule="evenodd"/><path d="M106.3,123c4.9-4,3.2,13.1-1.2,9.6-2-3.4-.7-8.1,1.2-9.6Zm-7.7-3.9c0,.1,0,.3,0,0c.3-.1.1.4,0,0Zm12.3-10.7c14.4,7,12.6,24.7,3.3,31.9-2.2,2.2,1.4,6,.6,9.1c2.2,4.6-2.4,14.3.8,17.1c12.9-1.4,42.6-2.8,31.9,15.5-26.8-3.2-54.5,4.4-81.2-3.4-8.3-15.2,35.5-4.9,33.9-13.8-2.6-7.9-2.9-18,1.7-24.6-10.1-4.3-5-18.5.7-23.5c2.8-2-2.8-.1-4,.5-1.2-.8-.7,1.5,0,1.3-10.3-2.7,3.9-17.4,12.3-10.1v0Z" clip-rule="evenodd" fill="#fff" fill-rule="evenodd"/><path d="M81.2,187.4c16.3,14.2-4.6,33.5,30.6,28c19.9,6.6-41.8,28-30.6-28Z" clip-rule="evenodd" fill="#fff" fill-rule="evenodd"/></g><mask id="esaY4dk8VHp35" mask-type="alpha" x="-150%" y="-150%" height="400%" width="400%"><path id="esaY4dk8VHp36" d="M508.147018,231.352906l19.024319-1.352907" transform="translate(0 0.000001)" fill="none" stroke="#3f5787" stroke-width="18" stroke-linecap="round" stroke-linejoin="round" stroke-dashoffset="19.08" stroke-dasharray="19.08"/><path id="esaY4dk8VHp37" d="M480.3,222.500001q7.816914,12.070523,10.032228,28.278843t-1.731909,39.762108" transform="translate(.000001 0)" fill="none" stroke="#3f5787" stroke-width="25" stroke-linecap="round" stroke-linejoin="round" stroke-dashoffset="70.2" stroke-dasharray="70.2"/><path id="esaY4dk8VHp38" d="M425.924472,235.669464q-1.255141,7.230538-.470678,12.830537t22.514078,4.247397" transform="translate(0 0.000001)" fill="none" stroke="#3f5787" stroke-width="13" stroke-linecap="round" stroke-linejoin="round" stroke-dashoffset="37.04" stroke-dasharray="37.04"/><path id="esaY4dk8VHp39" d="M425.453794,231.863369q17.92933,1.648443,27.924261.783658" fill="none" stroke="#3f5787" stroke-width="11.5" stroke-linecap="round" stroke-linejoin="round" stroke-dashoffset="27.97" stroke-dasharray="27.97"/><path id="esaY4dk8VHp40" d="M368.360495,290.540949q2.681802,2.755442,3.283702,11.259051c.6019,8.503609-.110701,12.079557,5.255803,15.139778s10.056357,4.370242,16.911301,3.06022" transform="translate(.000001 0.000003)" fill="none" stroke="#3f5787" stroke-width="13" stroke-linecap="round" stroke-linejoin="round" stroke-dashoffset="46.52" stroke-dasharray="46.52"/><path id="esaY4dk8VHp41" d="M354.272462,271.404345q50.485384,3.357814,61.394621,5.057874" transform="translate(.000001 0)" fill="none" stroke="#3f5787" stroke-width="15" stroke-linecap="round" stroke-linejoin="round" stroke-dashoffset="61.62" stroke-dasharray="61.62"/><path id="esaY4dk8VHp42" d="M382.266504,247.764451q1.868606,2.647191,1.868606,4.982948c0,2.335757-1.43982,11.496205-.71991,15.402565" transform="matrix(1 0 0 0.803834 0 50.602433)" fill="none" stroke="#3f5787" stroke-width="13" stroke-linecap="round" stroke-linejoin="round" stroke-dashoffset="20.86" stroke-dasharray="20.86"/><path id="esaY4dk8VHp43" d="M376.900001,239.955292q8,2.549394,10.099999-2.80838t-2.86489-9.446912" transform="translate(0 0.000001)" fill="none" stroke="#3f5787" stroke-width="15" stroke-linecap="round" stroke-linejoin="round" stroke-dashoffset="22.61" stroke-dasharray="22.61"/><path id="esaY4dk8VHp44" d="M383.415197,225.008976Q377.511812,224.4,374.155906,230.5c-3.355906,6.1-1.909132,8.701545-.57274,10.886689s2.207699,3.217855,4.116831,3.313311" transform="translate(.000003 0.000001)" fill="none" stroke="#3f5787" stroke-width="9" stroke-linecap="round" stroke-linejoin="round" stroke-dashoffset="28.65" stroke-dasharray="28.65"/><path id="esaY4dk8VHp45" d="M343.152153,233.2q7.23185-.110398,11.120308.311812" transform="translate(.000001 0.000001)" fill="none" stroke="#3f5787" stroke-width="15" stroke-linecap="round" stroke-linejoin="round" stroke-dashoffset="11.14" stroke-dasharray="11.14"/><path id="esaY4dk8VHp46" d="M319.4,215.4q6.263314,9.432853,6.263314,21.200001c0,11.767148-.987625,15.469488-2.579856,22.581426" transform="translate(0 0.000001)" fill="none" stroke="#3f5787" stroke-width="20" stroke-linecap="round" stroke-linejoin="round" stroke-dashoffset="45.24" stroke-dasharray="45.24"/><path id="esaY4dk8VHp47" d="M266.325093,234.636059q13.116146-1.311249,17.795527-.280982c4.679381,1.030267-3.090803,20.605346-13.86178,29.877753" transform="translate(.000002 0)" fill="none" stroke="#3f5787" stroke-width="15" stroke-linecap="round" stroke-linejoin="round" stroke-dashoffset="52.93" stroke-dasharray="52.93"/><path id="esaY4dk8VHp48" d="M236.971646,243.500001q8.972652-1.856339,17.191531-2.100001" transform="translate(0 0.000001)" fill="none" stroke="#3f5787" stroke-width="15" stroke-linecap="round" stroke-linejoin="round" stroke-dashoffset="17.35" stroke-dasharray="17.35"/><path id="esaY4dk8VHp49" d="M213.32924,223.200001q5.493822,18.443661,6.657424,30.899999t0,43.508155" transform="translate(.000001 0)" fill="none" stroke="#3f5787" stroke-width="23" stroke-linecap="round" stroke-linejoin="round" stroke-dashoffset="75.52" stroke-dasharray="75.52"/><path id="esaY4dk8VHp50" d="M149.06643,244.7q-.137843,9.979501,2.547864,16.139751c2.685707,6.16025,9.187172,9.436534,26.611024,9.908361" transform="translate(.000002 0)" fill="none" stroke="#3f5787" stroke-width="20" stroke-linecap="round" stroke-linejoin="round" stroke-dashoffset="46.42" stroke-dasharray="46.42"/><path id="esaY4dk8VHp51" d="M163.200001,241.386689q11.9-.090103,19.4.513946" transform="translate(0 0.000001)" fill="none" stroke="#3f5787" stroke-width="20" stroke-linecap="round" stroke-linejoin="round" stroke-dashoffset="22.92" stroke-dasharray="22.92"/><path id="esaY4dk8VHp52" d="M407.8,130.600001Q410.980402,133.6,412.940201,146.3t-2.440201,41.1" transform="translate(0 0.000002)" fill="none" stroke="#3f5787" stroke-width="15" stroke-linecap="round" stroke-linejoin="round" stroke-dashoffset="58.04" stroke-dasharray="58.04"/><path id="esaY4dk8VHp53" d="M366.8,164.035321q6.604302-1.236042,7.500408-7.435322t.870419-7.300001" transform="translate(0 0.000002)" fill="none" stroke="#3f5787" stroke-width="15" stroke-linecap="round" stroke-linejoin="round" stroke-dashoffset="18.76" stroke-dasharray="18.76"/><path id="esaY4dk8VHp54" d="M368.370673,145.700001q-4.924522,1.71442-6.00782,4.40721c-1.083298,2.69279-3.714163,10.517623,3.946297,13.92811" transform="translate(.000002 0)" fill="none" stroke="#3f5787" stroke-width="8" stroke-linecap="round" stroke-linejoin="round" stroke-dashoffset="24" stroke-dasharray="24"/><path id="esaY4dk8VHp55" d="M307.363824,160.434295q-1.605348,1.129515-.35135,10.229518c1.460714,10.600095,18.572625,1.891414,17.487526-5.863815q-1.085099-7.755229-9.063265-6.303311" transform="translate(0 0.000002)" fill="none" stroke="#3f5787" stroke-width="15" stroke-linecap="round" stroke-linejoin="round" stroke-dashoffset="52.73" stroke-dasharray="52.73"/><path id="esaY4dk8VHp56" d="M336.3,126.767532q16.4-1.267532,29.1,1.332469" fill="none" stroke="#3f5787" stroke-width="17" stroke-linecap="round" stroke-linejoin="round" stroke-dashoffset="29.23" stroke-dasharray="29.23"/><path id="esaY4dk8VHp57" d="M319.4,105.300001q7.573662,2.3,11.184319,13.8t.305024,29.7" transform="translate(.000001 0)" fill="none" stroke="#3f5787" stroke-width="18" stroke-linecap="round" stroke-linejoin="round" stroke-dashoffset="52.01" stroke-dasharray="52.01"/><path id="esaY4dk8VHp58" d="M291.756165,124.4q8.939923,20.968948,10.735821,27.7" fill="none" stroke="#3f5787" stroke-width="15" stroke-linecap="round" stroke-linejoin="round" stroke-dashoffset="30.2" stroke-dasharray="30.2"/><path id="esaY4dk8VHp59" d="M290.256437,137.905927Q287.524829,142.099999,285.1,156.6" transform="translate(0 0.000001)" fill="none" stroke="#3f5787" stroke-width="15" stroke-linecap="round" stroke-linejoin="round" stroke-dashoffset="25.51" stroke-dasharray="25.51"/><path id="esaY4dk8VHp60" d="M258.3,127.700001q6.337607,25.595315,3.168803,70.199999" transform="translate(0 0.000001)" fill="none" stroke="#3f5787" stroke-width="20" stroke-linecap="round" stroke-linejoin="round" stroke-dashoffset="70.54" stroke-dasharray="70.54"/><path id="esaY4dk8VHp61" d="M231.958847,119.933322q7.327774,21.651334,5.892137,47.512485" fill="none" stroke="#3f5787" stroke-width="17" stroke-linecap="round" stroke-linejoin="round" stroke-dashoffset="48.18" stroke-dasharray="48.18"/><path id="esaY4dk8VHp62" d="M212.1,137.899569q8.171075-3.208901,12.473277-.710503" transform="translate(.000001 0.000001)" fill="none" stroke="#3f5787" stroke-width="15" stroke-linecap="round" stroke-linejoin="round" stroke-dashoffset="21.16" stroke-dasharray="21.16"/><path id="esaY4dk8VHp63" d="M196.807587,132.600001Q206.671815,150.4,207.904739,159.9" transform="translate(0 0.000001)" fill="none" stroke="#3f5787" stroke-width="15" stroke-linecap="round" stroke-linejoin="round" stroke-dashoffset="29.81" stroke-dasharray="29.81"/><path id="esaY4dk8VHp64" d="M190.438966,119.8q4.168701,12.800001-9.838965,36.199138" fill="none" stroke="#3f5787" stroke-width="20" stroke-linecap="round" stroke-linejoin="round" stroke-dashoffset="39.19" stroke-dasharray="39.19"/><path id="esaY4dk8VHp65" d="M81.435623,190.225845q.681123,21.041154,7.935273,28.941819q13.229103,4.032335,21.529103-.000001" transform="translate(.000001 0.000001)" fill="none" stroke="#3f5787" stroke-width="15" stroke-linecap="round" stroke-linejoin="round" stroke-dashoffset="52.62" stroke-dasharray="52.62"/><path id="esaY4dk8VHp66" d="M71.8,176.1q39.488107-4.1,67.600001-1.8" transform="matrix(1.222858 0 0 1.286942-23.533804-50.15531)" fill="none" stroke="#3f5787" stroke-width="15" stroke-linecap="round" stroke-linejoin="round" stroke-dashoffset="67.72" stroke-dasharray="67.72"/><path id="esaY4dk8VHp67" d="M107.708402,140.037418q-1.599998.662582,0,18.962584" fill="none" stroke="#3f5787" stroke-width="20" stroke-linecap="round" stroke-linejoin="round" stroke-dashoffset="31.23" stroke-dasharray="31.23"/><path id="esaY4dk8VHp68" d="M103.424048,120.955483q-3.224047,1.840704-3.224047,7.544518c0,5.703814,1.715703,7.92546,8.582136,8.317515" transform="translate(.000003 0)" fill="none" stroke="#3f5787" stroke-width="10" stroke-linecap="round" stroke-linejoin="round" stroke-dashoffset="22.52" stroke-dasharray="22.52"/><path id="esaY4dk8VHp69" d="M108.782137,135.445323c6.866433.392055,9.52721-13.531237,3.071096-18.745322s-7.652071-5.758126-13.053235-4.124562" transform="translate(.000003 0)" fill="none" stroke="#3f5787" stroke-width="13.5" stroke-linecap="round" stroke-linejoin="round" stroke-dashoffset="37.87" stroke-dasharray="37.87"/><path id="esaY4dk8VHp70" d="M38.235992,8.7q8.939869-4.42711,19.279023-3.338778t1.554761,16.338778" transform="translate(.000001 0)" fill="none" stroke="#3f5787" stroke-width="12" stroke-linecap="round" stroke-linejoin="round" stroke-dashoffset="40.34" stroke-dasharray="40.34"/><path id="esaY4dk8VHp71" d="M41.187373,24.586775Q46.305602,22.619058,61.2,22.774534" transform="translate(.000001 0.000001)" fill="none" stroke="#3f5787" stroke-width="12" stroke-linecap="round" stroke-linejoin="round" stroke-dashoffset="20.19" stroke-dasharray="20.19"/><path id="esaY4dk8VHp72" d="M4.94226,46.615265q37.948914-1.698852,69.053327,1.798784" transform="translate(.000001 0)" fill="none" stroke="#3f5787" stroke-width="20" stroke-linecap="round" stroke-linejoin="round" stroke-dashoffset="69.15" stroke-dasharray="69.15"/><path id="esaY4dk8VHp73" d="M51.400002,62.199999Q54.8,69.757612,54.331744,90.504143" transform="translate(0 0.000001)" fill="none" stroke="#3f5787" stroke-width="13" stroke-linecap="round" stroke-linejoin="round" stroke-dashoffset="28.64" stroke-dasharray="28.64"/><path id="esaY4dk8VHp74" d="M32.515315,77.4q.636492,13.104145,7.741865,25.3q10.7,5.7,26.842819,4.7" transform="translate(.000001 0)" fill="none" stroke="#3f5787" stroke-width="13" stroke-linecap="round" stroke-linejoin="round" stroke-dashoffset="54.32" stroke-dasharray="54.32"/><path id="esaY4dk8VHp75" d="M38.235992,4.4Q35.4,15.375241,40.25718,26.350482" fill="none" stroke="#3f5787" stroke-width="12" stroke-linecap="round" stroke-linejoin="round" stroke-dashoffset="22.48" stroke-dasharray="22.48"/><path id="esaY4dk8VHp76" d="M96.625046,14.508524Q107.507967,14.152019,114.2,23.700001" fill="none" stroke="#f00" stroke-width="15" stroke-linecap="round" stroke-linejoin="round" stroke-dashoffset="20.77" stroke-dasharray="20.77"/><path id="esaY4dk8VHp77" d="M100.2,35.1q12.814109-.576016,29.9,3.1" transform="translate(0 0.000001)" fill="none" stroke="#f00" stroke-width="15" stroke-linecap="round" stroke-linejoin="round" stroke-dashoffset="30.15" stroke-dasharray="30.15"/><path id="esaY4dk8VHp78" d="M104.7,72.800001q2.300001,3.042388,6.200001,0c3.9-3.042387,1.515931-12.348114-3.392034-15.248022s-6.807967,4.441607-6.807967,8.32362" transform="translate(.000001 0.000001)" fill="none" stroke="#3f5787" stroke-width="11" stroke-linecap="round" stroke-linejoin="round" stroke-dashoffset="40.93" stroke-dasharray="40.93"/><path id="esaY4dk8VHp79" d="M148.037079,23.700001Q152.100002,53.613076,146.932587,84.3" transform="translate(.000001 0.000001)" fill="none" stroke="#f00" stroke-width="20" stroke-linecap="round" stroke-linejoin="round" stroke-dashoffset="60.85" stroke-dasharray="60.85"/><path id="esaY4dk8VHp80" d="M152.1,43.4q19.942102-7.680239,34.071051-6.640699" transform="translate(.000001 0.000001)" fill="none" stroke="#f00" stroke-width="15" stroke-linecap="round" stroke-linejoin="round" stroke-dashoffset="34.99" stroke-dasharray="34.99"/><path id="esaY4dk8VHp81" d="M182.6,21.7q7.838965,23.600001,5.224982,56.438123" transform="translate(.000001 0.000001)" fill="none" stroke="#f00" stroke-width="16" stroke-linecap="round" stroke-linejoin="round" stroke-dashoffset="57.06" stroke-dasharray="57.06"/><path id="esaY4dk8VHp82" d="M212.1,62.2q4.195261,8.976246,0,15.938123" transform="translate(.000001 0.000001)" fill="none" stroke="#ff0303" stroke-width="15" stroke-linecap="round" stroke-linejoin="round" stroke-dashoffset="16.66" stroke-dasharray="16.66"/></mask></g></svg>
