<svg width="530" height="324" viewBox="0 0 530 324" fill="none" xmlns="http://www.w3.org/2000/svg">
<path fill-rule="evenodd" clip-rule="evenodd" d="M61.2432 0.435448C66.036 2.65086 69.8121 8.10535 67.1902 13.6592C62.5198 21.4284 66.8615 18.3803 65.6156 23.7278C61.0139 31.6269 46.4751 27.96 40.7269 28.9455C30.4917 30.8706 31.2026 9.92352 35.3838 3.22381C37.1037 0.542399 40.5282 1.98624 40.8492 4.43847C46.9491 2.78837 53.7598 -1.35216 61.2432 0.435448ZM48.86 8.68594C60.5476 6.65388 58.5449 17.9983 54.807 18.0289C51.4743 17.2115 43.5552 21.3214 42.9054 18.7546C41.4684 11.3979 41.1626 7.84561 48.8524 8.68594H48.86Z" fill="white"/>
<path fill-rule="evenodd" clip-rule="evenodd" d="M106.893 9.77829C112.687 11.1763 118.58 15.9509 117.701 23.3687C116.165 31.497 105.693 23.1395 100.709 21.6728C83.3113 15.7905 96.069 9.00672 106.9 9.77829H106.893Z" fill="white"/>
<path fill-rule="evenodd" clip-rule="evenodd" d="M148.048 18.7622C161.73 21.329 152.588 43.9186 163.221 35.0187C168.243 31.6498 174.626 30.3893 180.099 30.1677C182.14 29.8011 181.261 23.5826 179.732 22.2839C177.217 20.3665 180.611 19.3275 182.644 19.1289C194.034 18.6476 194.041 35.0416 194.905 45.3395C194.615 58.3035 199.461 79.7777 187.743 85.1405C177.034 74.5753 184.097 55.4081 180.091 43.3991C173.968 44.4457 166.913 44.7207 159.819 45.8284C157.274 57.7305 160.775 107.921 139.54 84.2925C138.99 77.2185 141.122 12.9334 148.04 18.7698L148.048 18.7622Z" fill="white"/>
<path fill-rule="evenodd" clip-rule="evenodd" d="M65.6155 24.5834C65.6155 24.7059 65.6155 24.8285 65.6155 24.5834C65.8072 24.4991 65.8072 25.0353 65.6155 24.5834Z" fill="white"/>
<path fill-rule="evenodd" clip-rule="evenodd" d="M64.8894 25.4314C65.0274 25.5693 64.9354 25.4314 65.0121 25.6765C64.8434 25.7224 64.8971 25.5463 64.8894 25.4314Z" fill="white"/>
<path fill-rule="evenodd" clip-rule="evenodd" d="M120.614 29.9232C126.247 27.4481 142.009 40.0835 130.085 43.8803C121.523 44.1782 108.98 41.5808 99.3712 38.1737C87.1715 31.4664 117.915 29.7704 120.621 29.9232H120.614Z" fill="white"/>
<path fill-rule="evenodd" clip-rule="evenodd" d="M121.462 30.4045C121.6 30.5424 121.462 30.4505 121.708 30.5271C121.57 30.3892 121.708 30.4811 121.462 30.4045Z" fill="white"/>
<path fill-rule="evenodd" clip-rule="evenodd" d="M48.7377 38.0514C58.0939 36.9132 82.5392 38.7161 81.4003 53.7045C58.285 54.1934 26.2799 52.9558 5.27432 50.9161C-17.6651 40.2286 41.1855 36.5847 48.7377 38.0514Z" fill="white"/>
<path fill-rule="evenodd" clip-rule="evenodd" d="M41.82 49.9385C41.82 50.0534 41.7663 50.2295 41.9427 50.1836C41.8737 49.9385 41.958 50.0763 41.82 49.9385Z" fill="white"/>
<path fill-rule="evenodd" clip-rule="evenodd" d="M54.0808 57.7078C59.6915 64.7895 59.8749 73.6511 59.9055 82.0926C58.4532 85.6525 55.388 97.9289 51.4055 91.3133C51.8029 84.9191 43.5475 55.118 54.0808 57.7001V57.7078Z" fill="white"/>
<path fill-rule="evenodd" clip-rule="evenodd" d="M210.331 57.83C232.506 60.3433 209.979 95.7135 207.778 76.1491C208.267 72.2148 203.581 57.173 210.331 57.83Z" fill="white"/>
<path fill-rule="evenodd" clip-rule="evenodd" d="M108.712 54.0712C121.99 57.5547 121.363 82.7416 106.159 77.3712C97.7736 75.2169 102.933 69.2735 98.8743 68.5095C93.4547 62.0543 103.3 51.0918 108.704 54.0712H108.712ZM105.555 59.8924C105.387 59.9382 105.44 59.7625 105.433 59.6479C105.57 59.7854 105.486 59.6479 105.555 59.8924ZM104.707 67.7762C104.408 66.4927 104.859 59.1972 106.167 60.8625C110.18 64.644 110.692 75.6218 104.707 67.7762Z" fill="white"/>
<path fill-rule="evenodd" clip-rule="evenodd" d="M214.336 61.8327C214.359 61.9702 214.252 62.2453 214.458 62.1994C214.435 62.0619 214.542 61.7869 214.336 61.8327Z" fill="white"/>
<path fill-rule="evenodd" clip-rule="evenodd" d="M36.4769 72.7494C49.6474 113.169 31.2637 96.3932 71.8072 104.292C70.5 114.514 46.2153 110.343 41.4531 105.262C33.3123 103.605 24.3536 69.602 36.4769 72.7418V72.7494Z" fill="white"/>
<path fill-rule="evenodd" clip-rule="evenodd" d="M324.455 102.726C334.69 103.009 339.727 115.4 340.721 124.445C340.339 128.349 344.252 123.055 345.819 122.749C354.411 120.572 362.858 117.463 370.226 123.353C377.916 142.275 351.705 134.407 341.699 127.837C340.094 130.801 342.999 152.344 336.234 155.018C309.679 165.667 338.978 108.265 317.414 107.455C312.048 104.048 322.138 102.673 324.455 102.719V102.726Z" fill="white"/>
<path fill-rule="evenodd" clip-rule="evenodd" d="M65.9748 109.029C65.9977 109.166 65.8907 109.441 66.0971 109.395C66.0742 109.258 66.1812 108.983 65.9748 109.029Z" fill="white"/>
<path fill-rule="evenodd" clip-rule="evenodd" d="M190.059 115.583C197.924 114.606 196.9 124.712 200.256 128.692C222.27 150.572 212.448 187.737 196.74 146.645C173.754 180.525 169.619 150.656 186.665 128.448C188.423 124.04 183.722 117.531 190.059 115.583Z" fill="white"/>
<path fill-rule="evenodd" clip-rule="evenodd" d="M231.214 115.828C250.66 117.883 248.283 188.111 233.155 171.16C229.761 162.535 231.65 152.779 230.121 143.612C226.864 142.107 219.557 144.238 215.185 142.153C196.082 134.261 218.135 131.443 226.842 130.625C231.978 132.168 225.221 117.654 231.214 115.82V115.828Z" fill="white"/>
<path fill-rule="evenodd" clip-rule="evenodd" d="M227.935 119.35C227.996 119.006 228.103 119.074 228.301 118.861C228.332 119.159 228.286 119.273 227.935 119.35Z" fill="white"/>
<path fill-rule="evenodd" clip-rule="evenodd" d="M338.902 119.831C338.871 120.366 339.505 120.045 339.146 119.953C339.009 119.816 339.146 119.907 338.902 119.831Z" fill="white"/>
<path fill-rule="evenodd" clip-rule="evenodd" d="M227.813 119.953C227.828 120.099 227.805 120.29 227.69 120.076C227.476 119.961 227.667 119.945 227.813 119.953Z" fill="white"/>
<path fill-rule="evenodd" clip-rule="evenodd" d="M297.143 124.445C300.002 133.475 307.791 142.543 305.52 152.84C302.708 159.296 296.554 153.49 294.712 148.837C278.102 177.508 276.061 144.04 288.765 130.396C284.278 123.307 293.153 116.722 297.143 124.453V124.445Z" fill="white"/>
<path fill-rule="evenodd" clip-rule="evenodd" d="M110.898 108.425C125.269 115.453 123.45 133.1 114.177 140.335C112.014 142.512 115.576 146.332 114.781 149.433C116.945 154.063 112.404 163.742 115.63 166.545C128.51 165.124 158.207 163.704 147.559 182.076C120.713 178.921 93.0191 186.507 66.3341 178.684C58.0098 163.459 101.84 173.765 100.212 164.849C97.6589 156.981 97.315 146.828 101.909 140.213C91.7731 135.927 96.8792 121.702 102.635 116.676C105.387 114.697 99.8222 116.561 98.6297 117.157C97.4067 116.332 97.8806 118.654 98.6297 118.494C88.3104 115.774 102.505 101.137 110.891 108.425H110.898ZM98.6373 119.105C98.5533 119.349 98.5991 119.227 98.6373 119.105C98.6985 119.54 98.8896 119.036 98.6373 119.105ZM106.289 122.986C111.235 119.013 109.492 136.049 105.074 132.573C103.086 129.227 104.355 124.483 106.289 122.986Z" fill="white"/>
<path fill-rule="evenodd" clip-rule="evenodd" d="M262.416 127.715C268.73 136.66 276.932 210.38 258.289 203.062C246.486 182.038 259.687 148.471 255.009 125.408C254.62 121.611 261.698 125.4 262.416 127.715Z" fill="white"/>
<path fill-rule="evenodd" clip-rule="evenodd" d="M410.533 128.081C422.878 136.76 417.772 151.244 420.126 159.869C420.875 158.761 417.527 172.397 419.033 174.307C419.01 174.849 417.527 176.049 418.788 176.125C417.13 180.502 417.046 184.971 414.905 189.471C408.943 193.077 404.548 184.078 406.046 179.158C405.213 167.439 407.896 156.362 407.865 145.789C409.065 141.313 400.963 121.496 410.533 128.074V128.081Z" fill="white"/>
<path fill-rule="evenodd" clip-rule="evenodd" d="M324.699 129.174C324.814 129.174 324.991 129.12 324.945 129.296C324.83 129.296 324.653 129.35 324.699 129.174Z" fill="white"/>
<path fill-rule="evenodd" clip-rule="evenodd" d="M417.94 141.549C418.078 141.687 417.94 141.595 418.185 141.672C418.047 141.534 418.185 141.626 417.94 141.549Z" fill="white"/>
<path fill-rule="evenodd" clip-rule="evenodd" d="M408.11 144.705C408.11 144.819 408.056 144.996 408.233 144.95C408.164 144.705 408.248 144.842 408.11 144.705Z" fill="white"/>
<path fill-rule="evenodd" clip-rule="evenodd" d="M196.732 147.011C196.946 146.95 196.801 147.798 196.61 147.737C196.61 147.393 196.648 147.218 196.732 147.011Z" fill="white"/>
<path fill-rule="evenodd" clip-rule="evenodd" d="M340.24 147.86C339.903 147.883 340.041 147.807 340.117 147.615C340.255 147.753 340.163 147.615 340.24 147.86Z" fill="white"/>
<path fill-rule="evenodd" clip-rule="evenodd" d="M418.551 149.922C418.59 150.083 418.437 150.442 418.674 150.411C418.635 150.251 418.788 149.892 418.551 149.922Z" fill="white"/>
<path fill-rule="evenodd" clip-rule="evenodd" d="M372.046 146.286C385.713 142.168 384.605 168.837 367.551 167.157C352.989 165.346 357.874 137.936 372.046 146.286ZM366.825 149.319C372.382 148.379 368.155 149.288 367.551 152.107C367.268 153.795 369.363 163.856 364.876 159.021C362.086 156.492 364.677 150.763 366.817 149.311L366.825 149.319ZM367.069 154.17C367.184 154.17 367.36 154.116 367.314 154.292C367.069 154.223 367.207 154.307 367.069 154.17Z" fill="white"/>
<path fill-rule="evenodd" clip-rule="evenodd" d="M407.621 155.384C408.041 155.568 407.827 154.735 407.743 155.14C407.605 155.277 407.697 155.14 407.621 155.384Z" fill="white"/>
<path fill-rule="evenodd" clip-rule="evenodd" d="M419.278 163.146C418.567 165.965 420.21 162.894 419.522 162.657C419.66 161.129 419.048 162.183 419.278 163.146Z" fill="white"/>
<path fill-rule="evenodd" clip-rule="evenodd" d="M419.033 164.605C418.964 164.911 418.781 165.422 419.033 165.697C419.064 165.27 419.278 164.888 419.033 164.605Z" fill="white"/>
<path fill-rule="evenodd" clip-rule="evenodd" d="M312.438 155.262C315.274 158.287 320.449 153.719 324.455 156.599C337.885 164.758 321.817 176.645 317.896 179.166C302.57 182.802 298.007 161.076 312.431 155.262H312.438ZM313.287 160.961C320.327 156.851 319.906 174.223 312.92 172.244C308.96 171.16 310.29 162.413 313.287 160.961Z" fill="white"/>
<path fill-rule="evenodd" clip-rule="evenodd" d="M269.946 176.492C270.061 176.492 270.237 176.438 270.191 176.614C269.946 176.545 270.084 176.63 269.946 176.492Z" fill="white"/>
<path fill-rule="evenodd" clip-rule="evenodd" d="M81.1557 187.416C97.422 201.572 76.5158 220.899 111.754 215.445C131.682 221.999 69.965 243.42 81.1557 187.416Z" fill="white"/>
<path fill-rule="evenodd" clip-rule="evenodd" d="M79.9403 197.485C80.0244 197.515 80.2231 197.874 79.9403 197.852C79.818 197.622 79.818 197.722 79.9403 197.485Z" fill="white"/>
<path fill-rule="evenodd" clip-rule="evenodd" d="M259.504 201.61C259.634 201.816 259.764 201.87 259.993 201.977C260.047 201.671 259.794 201.572 259.504 201.61Z" fill="white"/>
<path fill-rule="evenodd" clip-rule="evenodd" d="M80.0626 202.58C80.2697 202.542 80.3463 202.619 80.308 202.825C80.101 202.864 80.0243 202.787 80.0626 202.58Z" fill="white"/>
<path fill-rule="evenodd" clip-rule="evenodd" d="M80.9111 208.409C81.0568 208.394 81.2485 208.417 81.0338 208.532C81.0338 208.685 80.9341 208.646 80.9111 208.409Z" fill="white"/>
<path fill-rule="evenodd" clip-rule="evenodd" d="M319.356 209.379C335.309 213.359 336.303 241.044 334.415 252.328C331.013 267.133 311.75 268.829 316.084 248.569C317.277 240.265 316.795 230.281 316.329 220.907C316.176 216.919 311.758 207.385 319.364 209.379H319.356Z" fill="white"/>
<path fill-rule="evenodd" clip-rule="evenodd" d="M487.507 220.785C522.715 244.146 489.449 339.034 480.337 278.905C479.374 264.1 481.966 253.359 481.92 239.471C481.216 233.26 479.428 227.821 474.268 223.214C476.064 218.462 483.754 218.241 487.5 220.785H487.507Z" fill="white"/>
<path fill-rule="evenodd" clip-rule="evenodd" d="M212.761 221.022C233.53 220.135 241.441 309.424 215.918 301.831C211.171 294.863 214.818 284.222 213.128 276.59C213.526 261.258 212.639 244.619 212.035 229.998C212.448 226.01 207.418 220.533 212.761 221.022Z" fill="white"/>
<path fill-rule="evenodd" clip-rule="evenodd" d="M330.646 221.511C330.661 221.74 330.547 222.083 330.891 221.999C330.875 221.77 330.99 221.426 330.646 221.511Z" fill="white"/>
<path fill-rule="evenodd" clip-rule="evenodd" d="M522.715 222.481C535.45 225.483 529.473 239.708 520.162 238.256C516.707 238.531 491.36 236.751 503.048 229.158C509.102 227.767 515.767 220.372 522.715 222.481Z" fill="white"/>
<path fill-rule="evenodd" clip-rule="evenodd" d="M113.084 222.114C113.031 222.29 113.153 222.687 113.207 222.358C113.39 222.221 113.321 222.068 113.084 222.114Z" fill="white"/>
<path fill-rule="evenodd" clip-rule="evenodd" d="M350.926 227.332C367.612 231.732 351.873 244.696 341.21 238.248C328.063 232.74 342.991 225.712 350.926 227.332Z" fill="white"/>
<path fill-rule="evenodd" clip-rule="evenodd" d="M454.852 229.035C466.593 241.342 436.866 238.89 431.301 237.889C428.099 236.14 431.24 242.817 430.69 243.474C430.315 247.438 430.575 248.302 434.214 247.232C459.003 245.872 457.574 261.418 434.818 256.575C421.708 256.56 418.987 247.95 422.312 236.308C421.983 234.36 418.735 231.564 422.434 230.609C428.634 229.371 451.871 224.879 454.852 229.028V229.035Z" fill="white"/>
<path fill-rule="evenodd" clip-rule="evenodd" d="M279.294 228.424C305.551 228.409 283.781 258.783 273.714 267.01C254.811 274.291 276.351 246.056 278.201 239.348C256.263 240.38 258.143 228.768 279.294 228.424Z" fill="white"/>
<path fill-rule="evenodd" clip-rule="evenodd" d="M384.918 221.755C388.136 222.725 386.057 226.171 387.227 227.698C394.802 230.403 395.085 244.016 386.982 246.866C393.686 255.521 386.745 269.05 390.376 267.492C400.81 267.667 420.99 269.295 421.578 275.139C426.929 290.181 370.784 276.346 364.157 276.957C334.246 268.729 366.29 266.972 377.633 267.37C376.678 263.573 378.704 258.737 378.726 254.138C379.055 243.015 375.776 252.396 370.716 245.521C363.316 235.979 374.102 218.325 384.918 221.74V221.755ZM376.907 239.593C375.906 237.133 376.296 231.877 379.216 230.494C382.732 231.136 381.058 244.283 376.907 239.593Z" fill="white"/>
<path fill-rule="evenodd" clip-rule="evenodd" d="M421.464 231.824C421.219 231.824 421.342 231.824 421.464 231.824C421.081 231.594 421.602 231.48 421.464 231.824Z" fill="white"/>
<path fill-rule="evenodd" clip-rule="evenodd" d="M334.537 232.672C334.843 232.771 334.759 232.855 334.659 233.038C334.453 233.084 334.567 232.809 334.537 232.672Z" fill="white"/>
<path fill-rule="evenodd" clip-rule="evenodd" d="M180.588 233.16C196.938 236.392 191.022 252.87 176.46 251.602C169.504 250.953 157.32 249.761 154.239 241.411C153.888 234.704 175.78 232.435 180.588 233.16Z" fill="white"/>
<path fill-rule="evenodd" clip-rule="evenodd" d="M254.765 236.552C268.272 247.515 233.989 252.817 230.358 244.681C237.581 240.578 246.914 235.009 254.765 236.552Z" fill="white"/>
<path fill-rule="evenodd" clip-rule="evenodd" d="M455.823 236.315C455.678 236.491 455.747 236.674 455.946 236.682C456.083 236.484 455.839 236.338 455.823 236.315Z" fill="white"/>
<path fill-rule="evenodd" clip-rule="evenodd" d="M517.135 237.645C517.097 237.82 517.166 238.37 517.258 238.011C517.495 238.034 517.426 237.507 517.135 237.645Z" fill="white"/>
<path fill-rule="evenodd" clip-rule="evenodd" d="M187.75 239.952C187.75 240.067 187.697 240.243 187.873 240.197C187.804 239.952 187.888 240.09 187.75 239.952Z" fill="white"/>
<path fill-rule="evenodd" clip-rule="evenodd" d="M152.053 248.691C151.518 267.072 167.945 262.595 179.25 265.07C194.706 266.002 180.343 277.981 173.54 276.231C132.928 276.881 148.269 220.64 152.053 248.691Z" fill="white"/>
<path fill-rule="evenodd" clip-rule="evenodd" d="M147.689 241.656C147.658 242.19 148.292 241.869 147.933 241.778C147.796 241.64 147.933 241.732 147.689 241.656Z" fill="white"/>
<path fill-rule="evenodd" clip-rule="evenodd" d="M289.613 245.047C289.95 245.139 289.376 245.911 289.491 245.17C289.591 245.193 289.636 245.147 289.613 245.047Z" fill="white"/>
<path fill-rule="evenodd" clip-rule="evenodd" d="M481.438 249.417C481.622 249.356 481.82 249.539 481.56 249.539C481.362 249.746 481.293 249.623 481.438 249.417Z" fill="white"/>
<path fill-rule="evenodd" clip-rule="evenodd" d="M481.193 252.327C481.309 252.327 481.485 252.274 481.439 252.45C481.193 252.381 481.332 252.465 481.193 252.327Z" fill="white"/>
<path fill-rule="evenodd" clip-rule="evenodd" d="M284.997 254.39C285.104 254.528 285.096 254.344 285.119 254.512C284.966 254.902 284.828 254.696 284.997 254.39Z" fill="white"/>
<path fill-rule="evenodd" clip-rule="evenodd" d="M282.696 256.942C282.696 257.057 282.642 257.233 282.818 257.187C282.749 256.942 282.834 257.08 282.696 256.942Z" fill="white"/>
<path fill-rule="evenodd" clip-rule="evenodd" d="M502.925 260.341C503.009 259.959 502.734 259.875 502.558 260.219C502.214 260.265 502.688 260.547 502.925 260.341Z" fill="white"/>
<path fill-rule="evenodd" clip-rule="evenodd" d="M503.048 264.581C503.307 264.627 503.063 265.001 503.414 265.185C503.048 265.253 503.025 264.894 503.048 264.581Z" fill="white"/>
<path fill-rule="evenodd" clip-rule="evenodd" d="M499.042 266.888C499.019 267.225 499.096 267.087 499.287 267.011C499.149 266.873 499.287 266.965 499.042 266.888Z" fill="white"/>
<path fill-rule="evenodd" clip-rule="evenodd" d="M351.652 270.288C352.064 270.227 351.743 270.517 351.774 270.891C351.369 270.975 351.636 270.547 351.652 270.288Z" fill="white"/>
<path fill-rule="evenodd" clip-rule="evenodd" d="M502.688 273.321C502.826 273.458 502.734 273.321 502.811 273.566C502.642 273.612 502.696 273.435 502.688 273.321Z" fill="white"/>
<path fill-rule="evenodd" clip-rule="evenodd" d="M179.495 275.016C179.403 275.375 180.129 275.154 180.099 274.772C179.77 274.848 179.824 274.932 179.495 275.016Z" fill="white"/>
<path fill-rule="evenodd" clip-rule="evenodd" d="M178.891 275.139C178.853 275.346 178.929 275.422 179.136 275.384C179.175 275.177 179.098 275.101 178.891 275.139Z" fill="white"/>
<path fill-rule="evenodd" clip-rule="evenodd" d="M502.444 275.383C502.696 275.383 503.017 275.696 502.688 275.75C502.558 275.628 502.382 275.643 502.444 275.383Z" fill="white"/>
<path fill-rule="evenodd" clip-rule="evenodd" d="M480.223 277.079C480.223 277.194 480.169 277.37 480.345 277.324C480.276 277.079 480.361 277.217 480.223 277.079Z" fill="white"/>
<path fill-rule="evenodd" clip-rule="evenodd" d="M392.325 280.356C392.745 280.54 392.531 279.707 392.447 280.112C392.31 280.249 392.402 280.112 392.325 280.356Z" fill="white"/>
<path fill-rule="evenodd" clip-rule="evenodd" d="M480.712 281.09C481.033 281.25 481.064 280.578 480.834 280.601C480.788 280.746 480.651 280.861 480.712 281.09Z" fill="white"/>
<path fill-rule="evenodd" clip-rule="evenodd" d="M420.738 280.723C420.883 281.204 420.019 281.059 420.493 280.845C420.631 280.708 420.493 280.8 420.738 280.723Z" fill="white"/>
<path fill-rule="evenodd" clip-rule="evenodd" d="M416.969 281.693C417.13 281.731 417.489 281.579 417.458 281.815C417.298 281.777 416.939 281.93 416.969 281.693Z" fill="white"/>
<path fill-rule="evenodd" clip-rule="evenodd" d="M369.5 288.729C382.77 297.98 368.484 316.819 392.08 316.513C393.777 316.269 397.194 317.277 397.905 320.035C390.414 328.744 368.285 322.075 367.673 309.966C365.984 303.381 368.568 295.429 365.365 289.585C366.374 288.935 367.635 288.194 369.493 288.737L369.5 288.729Z" fill="white"/>
<path fill-rule="evenodd" clip-rule="evenodd" d="M397.791 320.639C397.929 320.777 397.837 320.639 397.913 320.884C397.745 320.93 397.798 320.754 397.791 320.639Z" fill="white"/>
</svg>
