<svg width="600" height="68" viewBox="0 0 600 68" fill="none" xmlns="http://www.w3.org/2000/svg">
<g clip-path="url(#clip0_1_156)">
<path d="M332.555 34.9166H352.268V31.1897C352.268 30.3093 351.552 29.5936 350.672 29.5936H344.296V27.4627C344.296 26.5824 343.58 25.8666 342.7 25.8666H338.973V29.5936H330.968V33.3205C330.968 34.2009 331.683 34.9166 332.564 34.9166H332.555Z" fill="white"/>
<path d="M363.984 34.8343H360.257V27.4545C360.257 26.5741 359.541 25.8584 358.661 25.8584H354.934V53.5432C354.934 54.1356 354.456 54.6128 353.864 54.6128H344.181V51.4946C347.282 50.4004 349.504 47.4468 349.504 43.9666C349.504 39.5568 345.925 35.9779 341.515 35.9779C337.105 35.9779 333.526 39.5568 333.526 43.9666C333.526 47.4468 335.756 50.3922 338.849 51.4946V54.6128H330.861V58.3397C330.861 59.22 331.576 59.9358 332.457 59.9358H353.889C357.402 59.9358 360.257 57.0892 360.257 53.5679V40.1574H365.58V36.4304C365.58 35.5501 364.864 34.8343 363.984 34.8343ZM341.515 41.3092C342.979 41.3092 344.181 42.5022 344.181 43.9749C344.181 45.4476 342.988 46.6405 341.515 46.6405C340.042 46.6405 338.849 45.4476 338.849 43.9749C338.849 42.5022 340.042 41.3092 341.515 41.3092Z" fill="white"/>
<path d="M324.616 25.8584H320.889V58.3397C320.889 59.22 321.605 59.9358 322.485 59.9358H326.212V27.4545C326.212 26.5741 325.496 25.8584 324.616 25.8584Z" fill="white"/>
<path d="M307.841 41.3833C307.544 41.0871 307.372 40.684 307.372 40.2561V31.3213C307.372 30.4328 306.656 29.717 305.767 29.717H302.04V40.2479C302.04 40.6675 301.876 41.0706 301.571 41.3751L293.377 49.5694L296.01 52.2022C296.635 52.8274 297.647 52.8274 298.272 52.2022L304.698 45.7767L312.226 53.3046L314.858 50.6719C315.484 50.0466 315.484 49.0347 314.858 48.4094L307.824 41.3751L307.841 41.3833Z" fill="white"/>
<path d="M398.028 23.7275H394.301V34.8426H388.978V38.5695C388.978 39.4499 389.694 40.1656 390.574 40.1656H394.301V52.6629C394.301 53.5432 395.017 54.259 395.897 54.259H399.624V25.3236C399.624 24.4433 398.908 23.7275 398.028 23.7275Z" fill="white"/>
<path d="M379.928 57.1797V53.9875C379.928 53.1072 379.212 52.3914 378.332 52.3914H374.605V57.1879C374.605 63.0869 379.385 67.8669 385.276 67.8669H399.632V64.14C399.632 63.2596 398.917 62.5439 398.036 62.5439H385.284C382.33 62.5439 379.936 60.1497 379.936 57.1961L379.928 57.1797Z" fill="white"/>
<path d="M384.609 49.1416L387.242 46.5089C387.867 45.8836 387.867 44.8716 387.242 44.2464L380.208 37.212C379.912 36.9158 379.739 36.5127 379.739 36.0849V33.0161H387.711V29.2891C387.711 28.4088 386.995 27.6931 386.115 27.6931H379.739H374.416H366.411V31.42C366.411 32.3003 367.126 33.0161 368.007 33.0161H374.416V36.0849C374.416 36.5045 374.251 36.9076 373.947 37.212L365.753 45.4064L368.385 48.0391C369.011 48.6644 370.022 48.6644 370.648 48.0391L377.073 41.6136L384.601 49.1416H384.609Z" fill="white"/>
<path d="M218.492 35.0483H235.539C236.14 35.0483 236.617 35.5337 236.617 36.126V48.3765C236.617 49.2568 237.333 49.9726 238.213 49.9726H241.94V36.1425C241.94 32.5965 239.069 29.717 235.514 29.717H216.888V33.4439C216.888 34.3243 217.604 35.04 218.484 35.04L218.492 35.0483Z" fill="white"/>
<path d="M245.338 54.0451H234.157V44.9786C234.157 44.0983 233.441 43.3825 232.561 43.3825H228.834V54.0451H225.633V44.9786C225.633 44.0983 224.918 43.3825 224.037 43.3825H220.31V54.0451H212.873V57.772C212.873 58.6524 213.597 59.3681 214.477 59.3681H246.959V55.6412C246.959 54.7609 246.243 54.0451 245.363 54.0451H245.338Z" fill="white"/>
<path d="M151.201 41.77H166.611V32.2098C166.611 28.6639 163.74 25.7843 160.185 25.7843H144.776V35.3444C144.776 38.8904 147.655 41.77 151.201 41.77ZM160.21 31.1156C160.811 31.1156 161.288 31.601 161.288 32.1934V36.4387H151.185C150.584 36.4387 150.107 35.9533 150.107 35.3609V31.1156H160.21Z" fill="white"/>
<path d="M171.136 45.028H138.655V48.7549C138.655 49.6353 139.37 50.351 140.251 50.351H154.097V54.5305C154.097 55.4191 154.813 56.1348 155.702 56.1348H159.428V50.351H172.74V46.6241C172.74 45.7438 172.024 45.028 171.136 45.028Z" fill="white"/>
<path d="M149.58 57.1797V53.9875C149.58 53.1072 148.865 52.3914 147.984 52.3914H144.257V57.1879C144.257 63.0869 149.037 67.8669 154.928 67.8669H169.285V64.14C169.285 63.2596 168.569 62.5439 167.689 62.5439H154.936C151.983 62.5439 149.589 60.1497 149.589 57.1961L149.58 57.1797Z" fill="white"/>
<path d="M32.2674 23.7275H28.5405V34.8426H23.2174V38.5695C23.2174 39.4499 23.9332 40.1656 24.8135 40.1656H28.5405V52.6629C28.5405 53.5432 29.2562 54.259 30.1366 54.259H33.8635V25.3236C33.8635 24.4433 33.1477 23.7275 32.2674 23.7275Z" fill="white"/>
<path d="M14.1674 57.1797V53.9875C14.1674 53.1072 13.4516 52.3914 12.5713 52.3914H8.84433V57.1879C8.84433 63.0869 13.6244 67.8669 19.5151 67.8669H33.8718V64.14C33.8718 63.2596 33.156 62.5439 32.2757 62.5439H19.5234C16.5698 62.5439 14.1756 60.1497 14.1756 57.1961L14.1674 57.1797Z" fill="white"/>
<path d="M18.8487 49.1416L21.4815 46.5089C22.1067 45.8836 22.1067 44.8716 21.4815 44.2464L14.4471 37.212C14.1509 36.9158 13.9782 36.5127 13.9782 36.0849V33.0161H21.9504V29.2891C21.9504 28.4088 21.2346 27.6931 20.3543 27.6931H13.9782H8.65511H0.649956V31.42C0.649956 32.3003 1.36573 33.0161 2.24605 33.0161H8.65511V36.0849C8.65511 36.5045 8.49057 36.9076 8.18616 37.212L0 45.4064L2.63273 48.0391C3.25801 48.6644 4.26996 48.6644 4.89524 48.0391L11.3208 41.6136L18.8487 49.1416Z" fill="white"/>
<path d="M70.0883 46.0893V42.3623C70.0883 41.482 69.3725 40.7662 68.484 40.7662H63.4324V32.2181C63.4324 28.6721 60.5611 25.7926 57.0069 25.7926H42.6503V29.5195C42.6503 30.3999 43.3661 31.1156 44.2464 31.1156H57.0234C57.624 31.1156 58.1012 31.601 58.1012 32.1934V40.758H35.9944V44.485C35.9944 45.3653 36.7102 46.0811 37.5905 46.0811H50.3675V51.8649H40.503V55.5918C40.503 56.4721 41.2187 57.1879 42.0991 57.1879H59.146C59.7466 57.1879 60.2238 57.6733 60.2238 58.2657V66.2379C60.2238 67.1183 60.9396 67.834 61.8199 67.834H65.5469V58.2739C65.5469 54.728 62.6755 51.8484 59.1213 51.8484H55.6823V46.0646H70.0554L70.0883 46.0893Z" fill="white"/>
<path d="M269.575 54.2919V50.351H279.687V46.6241C279.687 45.7438 278.971 45.028 278.082 45.028H245.601V48.7549C245.601 49.6353 246.317 50.351 247.197 50.351H255.712V54.0122H251.179V57.7392C251.179 58.6195 251.895 59.3352 252.775 59.3352H267.683C268.284 59.3352 268.761 59.8207 268.761 60.413V66.2544C268.761 67.1347 269.477 67.8505 270.357 67.8505H274.084V60.4295C274.084 57.5417 272.175 55.0982 269.551 54.2919H269.575ZM261.044 50.351H264.252V54.0122H261.044V50.351Z" fill="white"/>
<path d="M262.648 44.4356C267.798 44.4356 271.97 40.2644 271.97 35.1141C271.97 29.9638 267.798 25.7926 262.648 25.7926C257.498 25.7926 253.327 29.9638 253.327 35.1141C253.327 40.2644 257.498 44.4356 262.648 44.4356ZM262.648 31.1156C264.853 31.1156 266.647 32.9092 266.647 35.1141C266.647 37.319 264.853 39.1126 262.648 39.1126C260.443 39.1126 258.65 37.319 258.65 35.1141C258.65 32.9092 260.443 31.1156 262.648 31.1156Z" fill="white"/>
<path d="M102.603 23.7275H98.8756V32.7035H93.5526V36.4305C93.5526 37.3108 94.2683 38.0266 95.1486 38.0266H98.8756V47.3152C98.8756 48.1955 99.5914 48.9113 100.472 48.9113H104.199V25.3154C104.199 24.4351 103.483 23.7193 102.603 23.7193V23.7275Z" fill="white"/>
<path d="M92.3925 45.4805C93.0178 44.8552 93.0178 43.8432 92.3925 43.218L85.3582 36.1836C85.062 35.8875 84.8892 35.4843 84.8892 35.0565V28.2608C84.8892 27.3722 84.1734 26.6564 83.2849 26.6564H79.5579V35.0565C79.5579 35.4761 79.3934 35.8792 79.089 36.1836L70.8946 44.378L73.5273 47.0108C74.1526 47.636 75.1645 47.636 75.7898 47.0108L82.2153 40.5852L89.7433 48.1132L92.376 45.4805H92.3925Z" fill="white"/>
<path d="M93.3386 49.2074C88.1884 49.2074 84.0171 53.3787 84.0171 58.5289C84.0171 63.6792 88.1884 67.8505 93.3386 67.8505C98.4889 67.8505 102.66 63.6792 102.66 58.5289C102.66 53.3787 98.4889 49.2074 93.3386 49.2074ZM93.3386 62.5274C91.1337 62.5274 89.3402 60.7339 89.3402 58.5289C89.3402 56.324 91.1337 54.5305 93.3386 54.5305C95.5436 54.5305 97.3371 56.324 97.3371 58.5289C97.3371 60.7339 95.5436 62.5274 93.3386 62.5274Z" fill="white"/>
<path d="M116.819 57.1797V53.9875C116.819 53.1072 116.104 52.3914 115.223 52.3914H111.496V57.1879C111.496 63.0869 116.276 67.8669 122.167 67.8669H136.524V64.14C136.524 63.2596 135.808 62.5439 134.928 62.5439H122.175C119.222 62.5439 116.828 60.1497 116.828 57.1961L116.819 57.1797Z" fill="white"/>
<path d="M134.928 23.7275H131.201V47.3234C131.201 48.2037 131.916 48.9195 132.797 48.9195H136.524V25.3236C136.524 24.4433 135.808 23.7275 134.928 23.7275Z" fill="white"/>
<path d="M124.981 37.3848C124.981 32.2345 120.81 28.0633 115.659 28.0633C110.509 28.0633 106.338 32.2345 106.338 37.3848C106.338 42.5351 110.509 46.7063 115.659 46.7063C120.81 46.7063 124.981 42.5351 124.981 37.3848ZM111.661 37.3848C111.661 35.1799 113.454 33.3864 115.659 33.3864C117.864 33.3864 119.658 35.1799 119.658 37.3848C119.658 39.5897 117.864 41.3833 115.659 41.3833C113.454 41.3833 111.661 39.5897 111.661 37.3848Z" fill="white"/>
<path d="M209.014 27.9317H205.287V43.3743H202.095V29.5278C202.095 28.6474 201.379 27.9317 200.499 27.9317H196.772V58.2739C196.772 59.1542 197.488 59.87 198.368 59.87H202.095V48.6974H205.287V58.2739C205.287 59.1542 206.003 59.87 206.884 59.87H210.61V29.5278C210.61 28.6474 209.895 27.9317 209.014 27.9317Z" fill="white"/>
<path d="M192.445 31.7244H186.068V29.5936C186.068 28.7132 185.353 27.9975 184.472 27.9975H180.745V31.7244H172.74V35.4514C172.74 36.3317 173.456 37.0475 174.336 37.0475H194.049V33.3205C194.049 32.4402 193.333 31.7244 192.453 31.7244H192.445Z" fill="white"/>
<path d="M183.395 38.6518C178.244 38.6518 174.073 42.8231 174.073 47.9733C174.073 53.1236 178.244 57.2949 183.395 57.2949C188.545 57.2949 192.716 53.1236 192.716 47.9733C192.716 42.8231 188.545 38.6518 183.395 38.6518ZM183.395 51.9718C181.19 51.9718 179.396 50.1783 179.396 47.9733C179.396 45.7684 181.19 43.9749 183.395 43.9749C185.599 43.9749 187.393 45.7684 187.393 47.9733C187.393 50.1783 185.599 51.9718 183.395 51.9718Z" fill="white"/>
<path d="M5.66859 3.1922V4.59907C5.66859 5.94834 5.90718 6.80398 6.63941 7.6843C7.19064 8.34249 7.76655 8.93485 8.12855 9.31331C8.50701 9.72467 8.44119 10.3499 8.07919 10.7202C7.71719 11.0904 7.10837 11.1562 6.70523 10.7531C6.46664 10.5063 5.99768 10.0044 5.52873 9.48608C4.82118 8.68803 4.66486 8.29312 4.59082 7.93935H4.57436C4.525 8.3178 4.33577 8.77031 3.62 9.56835C3.15104 10.0867 2.69854 10.5721 2.18022 11.0904C1.77708 11.4853 1.14358 11.3866 0.789807 11.041C0.411351 10.6461 0.304397 10.0373 0.723988 9.60126C1.36572 8.94308 1.95808 8.33426 2.50931 7.67608C3.23331 6.79576 3.48013 5.94012 3.48013 4.59084V3.18397H1.47267C0.937898 3.18397 0.691079 2.74793 0.691079 2.24606C0.691079 1.7442 0.929671 1.2917 1.47267 1.2917H7.50328C8.03805 1.2917 8.28487 1.72774 8.28487 2.24606C8.28487 2.76438 8.04628 3.18397 7.50328 3.18397H5.66859V3.1922ZM9.13228 6.83689H7.88173C7.34696 6.83689 7.10014 6.40085 7.10014 5.88253C7.10014 5.36421 7.33873 4.92816 7.88173 4.92816H9.13228V1.03665C9.13228 0.444286 9.63415 0.172786 10.1525 0.172786C10.6708 0.172786 11.1562 0.452514 11.1562 1.03665V13.5504C11.1562 14.1427 10.6543 14.4142 10.1525 14.4142C9.6506 14.4142 9.13228 14.1345 9.13228 13.5504V6.82044V6.83689ZM12.2916 0.872105C12.2916 0.27974 12.7934 0.00823975 13.3117 0.00823975C13.8301 0.00823975 14.3319 0.287968 14.3319 0.872105V14.2908C14.3319 14.8832 13.8301 15.1547 13.3117 15.1547C12.7934 15.1547 12.2916 14.875 12.2916 14.2908V0.863878V0.872105Z" fill="white"/>
<path d="M23.4889 2.03211V12.6618C23.4889 13.32 22.9706 13.6161 22.3782 13.6161C21.7859 13.6161 21.2676 13.32 21.2676 12.6618V3.67757L19.0297 4.96103C18.4538 5.29012 17.9026 5.02685 17.6229 4.52498C17.3596 4.05603 17.4336 3.44721 17.9684 3.15102L20.8973 1.52202C21.5062 1.19293 21.9011 1.06952 22.3207 1.06952C22.9788 1.06952 23.4807 1.3657 23.4807 2.02389L23.4889 2.03211Z" fill="white"/>
<path d="M35.7805 4.16304V4.35227C35.7805 5.66863 35.1388 6.88627 33.9787 8.04632L30.3176 11.6663H35.5748C36.1096 11.6663 36.3564 12.0859 36.3564 12.5878C36.3564 13.0897 36.1096 13.5092 35.5748 13.5092H28.9683C27.8741 13.5092 27.4051 13.1308 27.4051 12.3163C27.4051 11.9543 27.6108 11.6416 27.981 11.255L32.0042 7.19891C33.2876 5.91545 33.5509 5.25727 33.5509 4.37695V4.28645C33.5509 3.52131 32.9585 2.97008 31.7656 2.97008C30.7454 2.97008 30.1037 3.36499 29.4949 4.14658C29.1658 4.58263 28.631 4.6649 28.1785 4.33581C27.726 4.00672 27.5368 3.4884 27.8823 2.96185C28.6474 1.83472 29.9062 0.987305 31.7327 0.987305C34.5546 0.987305 35.7887 2.47644 35.7887 4.16304H35.7805Z" fill="white"/>
<path d="M38.7999 12.8263C38.2651 12.8263 38.0183 12.3903 38.0183 11.8884C38.0183 11.3866 38.2569 10.967 38.7999 10.967C39.927 10.967 41.0542 10.967 42.1978 10.9505V9.60124C40.4289 9.32151 39.3923 8.36714 39.3923 6.95205C39.3923 5.249 40.8814 4.22882 43.292 4.22882C45.7026 4.22882 47.1917 5.249 47.1917 6.95205C47.1917 8.37537 46.1304 9.32974 44.3862 9.60124V10.8847C45.5134 10.8518 46.6405 10.7777 47.7512 10.679C48.286 10.6296 48.5328 11.0081 48.5822 11.51C48.6315 11.9954 48.4258 12.4479 47.9075 12.4972C45.6039 12.7029 42.1649 12.8263 38.8081 12.8263H38.7999ZM42.1813 1.72772V0.979035C42.1813 0.337307 42.7161 0.041124 43.292 0.041124C43.8679 0.041124 44.4027 0.337307 44.4027 0.979035V1.72772H47.2082C47.743 1.72772 47.9898 2.16377 47.9898 2.66563C47.9898 3.1675 47.743 3.58709 47.2082 3.58709H39.1948C38.66 3.58709 38.4132 3.15104 38.4132 2.66563C38.4132 2.18022 38.6518 1.72772 39.1948 1.72772H42.1731H42.1813ZM45.2007 6.94382C45.2007 6.31855 44.5755 5.8825 43.292 5.8825C42.0085 5.8825 41.3833 6.31855 41.3833 6.94382C41.3833 7.5691 42.0085 8.00514 43.292 8.00514C44.5755 8.00514 45.2007 7.5691 45.2007 6.94382ZM49.2239 0.929672C49.2239 0.287943 49.7587 -0.00823975 50.3346 -0.00823975C50.9105 -0.00823975 51.4288 0.287943 51.4288 0.929672V14.2085C51.4288 14.8503 50.894 15.1464 50.3346 15.1464C49.7751 15.1464 49.2239 14.8503 49.2239 14.2085V0.937899V0.929672Z" fill="white"/>
<path d="M598.404 25.8584H594.677V58.3397C594.677 59.22 595.393 59.9358 596.273 59.9358H600V27.4545C600 26.5741 599.284 25.8584 598.404 25.8584Z" fill="#FFD549"/>
<path d="M581.628 41.3833C581.332 41.0871 581.159 40.684 581.159 40.2561V31.3213C581.159 30.4328 580.444 29.717 579.555 29.717H575.828V40.2479C575.828 40.6675 575.664 41.0706 575.359 41.3751L567.165 49.5694L569.798 52.2022C570.423 52.8274 571.435 52.8274 572.06 52.2022L578.486 45.7767L586.014 53.3046L588.646 50.6719C589.272 50.0466 589.272 49.0347 588.646 48.4094L581.612 41.3751L581.628 41.3833Z" fill="#FFD549"/>
<path d="M562.92 23.7275H559.193V34.8426H553.87V38.5695C553.87 39.4499 554.585 40.1656 555.466 40.1656H559.193V52.6629C559.193 53.5432 559.908 54.259 560.789 54.259H564.516V25.3236C564.516 24.4433 563.8 23.7275 562.92 23.7275Z" fill="#FFD549"/>
<path d="M544.82 57.1797V53.9875C544.82 53.1072 544.104 52.3914 543.223 52.3914H539.496V57.1879C539.496 63.0869 544.277 67.8669 550.167 67.8669H564.524V64.14C564.524 63.2596 563.808 62.5439 562.928 62.5439H550.175C547.222 62.5439 544.828 60.1497 544.828 57.1961L544.82 57.1797Z" fill="#FFD549"/>
<path d="M549.501 49.1416L552.134 46.5089C552.759 45.8836 552.759 44.8716 552.134 44.2464L545.099 37.212C544.803 36.9158 544.63 36.5127 544.63 36.0849V33.0161H552.603V29.2891C552.603 28.4088 551.887 27.6931 551.006 27.6931H544.63H539.307H531.302V31.42C531.302 32.3003 532.018 33.0161 532.898 33.0161H539.307V36.0849C539.307 36.5045 539.143 36.9076 538.838 37.212L530.644 45.4064L533.277 48.0391C533.902 48.6644 534.914 48.6644 535.539 48.0391L541.965 41.6136L549.493 49.1416H549.501Z" fill="#FFD549"/>
<path d="M501.511 57.1797V53.9875C501.511 53.1072 500.795 52.3914 499.915 52.3914H496.188V57.1879C496.188 63.0869 500.968 67.8669 506.859 67.8669H521.215V64.14C521.215 63.2596 520.5 62.5439 519.619 62.5439H506.867C503.913 62.5439 501.519 60.1497 501.519 57.1961L501.511 57.1797Z" fill="#FFD549"/>
<path d="M519.619 23.7275H515.892V47.3234C515.892 48.2037 516.608 48.9195 517.488 48.9195H521.215V25.3236C521.215 24.4433 520.5 23.7275 519.619 23.7275Z" fill="#FFD549"/>
<path d="M509.673 37.3848C509.673 32.2345 505.501 28.0633 500.351 28.0633C495.201 28.0633 491.03 32.2345 491.03 37.3848C491.03 42.5351 495.201 46.7063 500.351 46.7063C505.501 46.7063 509.673 42.5351 509.673 37.3848ZM496.353 37.3848C496.353 35.1799 498.146 33.3864 500.351 33.3864C502.556 33.3864 504.349 35.1799 504.349 37.3848C504.349 39.5897 502.556 41.3833 500.351 41.3833C498.146 41.3833 496.353 39.5897 496.353 37.3848Z" fill="#FFD549"/>
<path d="M450.576 47.1671H437.799V44.0489C441.649 42.9053 444.455 39.3429 444.455 35.1141C444.455 29.9638 440.284 25.7926 435.133 25.7926C429.983 25.7926 425.812 29.9638 425.812 35.1141C425.812 39.3347 428.617 42.8971 432.468 44.0489V47.1671H418.095V50.894C418.095 51.7744 418.81 52.4901 419.691 52.4901H452.172V48.7632C452.172 47.8829 451.456 47.1671 450.568 47.1671H450.576ZM431.143 35.1141C431.143 32.9092 432.937 31.1156 435.142 31.1156C437.346 31.1156 439.14 32.9092 439.14 35.1141C439.14 37.319 437.346 39.1126 435.142 39.1126C432.937 39.1126 431.143 37.319 431.143 35.1141Z" fill="#FFD549"/>
<path d="M446.067 62.5274H432.953C430.18 62.5274 427.943 60.2814 427.943 57.517V56.6778C427.943 55.7975 427.227 55.0817 426.347 55.0817H422.62V57.5006C422.62 63.2185 427.26 67.8587 432.978 67.8587H447.672V64.1317C447.672 63.2514 446.956 62.5357 446.076 62.5357L446.067 62.5274Z" fill="#FFD549"/>
<path d="M467.039 30.2764H455.907V34.0198C455.907 34.9084 456.623 35.6242 457.512 35.6242H467.03C467.623 35.6242 468.108 36.1096 468.108 36.7019V37.7386C468.108 38.3474 467.615 38.8328 467.014 38.8328H461.798C458.252 38.8328 455.372 41.7041 455.372 45.2583V48.467C455.372 52.0129 458.244 54.8925 461.798 54.8925H473.464V51.1491C473.464 50.2605 472.748 49.5447 471.86 49.5447H461.806C461.214 49.5447 460.728 49.0593 460.728 48.467V45.2748C460.728 44.6824 461.214 44.197 461.806 44.197H467.03C470.585 44.197 473.464 41.3175 473.464 37.7633V36.7019C473.464 33.156 470.593 30.2764 467.039 30.2764Z" fill="#FFD549"/>
<path d="M488.709 42.8477H484.982V27.4627C484.982 26.5824 484.267 25.8666 483.386 25.8666H479.659V58.348C479.659 59.2283 480.375 59.944 481.255 59.944H484.982V48.179H490.306V44.4521C490.306 43.5717 489.59 42.856 488.709 42.856V42.8477Z" fill="#FFD549"/>
</g>
<defs>
<clipPath id="clip0_1_156">
<rect width="600" height="67.8587" fill="white"/>
</clipPath>
</defs>
</svg>
