<svg width="411" height="79" viewBox="0 0 411 79" fill="none" xmlns="http://www.w3.org/2000/svg">
<path fill-rule="evenodd" clip-rule="evenodd" d="M101.632 33.6388H105.466C106.376 33.6388 107.109 34.3632 107.109 35.273V59.5305H103.275C102.365 59.5305 101.632 58.7973 101.632 57.8874V48.3381H97.7982C96.8971 48.3381 96.1551 47.6049 96.1551 46.6951V42.8612H101.623V33.6388H101.632ZM29.3368 33.6388H33.1706C34.0717 33.6388 34.8137 34.372 34.8137 35.2819V65.025H30.9799C30.0788 65.025 29.3368 64.2918 29.3368 63.382V50.5377H25.503C24.6019 50.5377 23.8599 49.8045 23.8599 48.8947V45.0608H29.328V33.6388H29.3368ZM405.291 33.6388H409.125C410.026 33.6388 410.768 34.372 410.768 35.2819V65.025H406.934C406.033 65.025 405.291 64.2918 405.291 63.382V50.5377H401.458C400.556 50.5377 399.814 49.8045 399.814 48.8947V45.0608H405.283V33.6388H405.291ZM329.834 35.8296H333.668C334.569 35.8296 335.311 36.5628 335.311 37.4726V70.8553H331.477C330.576 70.8553 329.834 70.1221 329.834 69.2122V35.8296ZM374.126 45.052H370.292V37.4638C370.292 36.5628 369.559 35.8207 368.649 35.8207H364.815V64.2742C364.815 64.8837 364.329 65.3696 363.72 65.3696H353.764V62.1629C356.953 61.041 359.232 58.0022 359.232 54.4246C359.232 49.8929 355.549 46.2092 351.017 46.2092C346.485 46.2092 342.802 49.884 342.802 54.4246C342.802 58.0022 345.09 61.0322 348.27 62.1629V65.3696H340.054V69.2034C340.054 70.1044 340.788 70.8465 341.697 70.8465H363.729C367.342 70.8465 370.274 67.9225 370.274 64.3007V50.5201H375.743V46.6862C375.743 45.7852 375.009 45.0431 374.099 45.0431L374.126 45.052ZM351.035 51.7038C352.536 51.7038 353.773 52.9317 353.773 54.4422C353.773 55.9528 352.545 57.1807 351.035 57.1807C349.524 57.1807 348.296 55.9528 348.296 54.4422C348.296 52.9317 349.524 51.7038 351.035 51.7038ZM341.83 45.1315H362.086V41.2976C362.086 40.3966 361.352 39.6546 360.443 39.6546H353.888V37.4638C353.888 36.5628 353.155 35.8207 352.245 35.8207H348.411V39.6546H340.187V43.4884C340.187 44.3895 340.92 45.1315 341.83 45.1315ZM316.415 51.7744C316.106 51.4741 315.929 51.0589 315.929 50.6172V41.4302C315.929 40.5203 315.196 39.7782 314.277 39.7782H310.444V50.5996C310.444 51.0324 310.276 51.4476 309.958 51.7568L301.539 60.1753L304.242 62.8784C304.887 63.5233 305.921 63.5233 306.566 62.8784L313.173 56.2708L320.912 64.0092L323.615 61.306C324.26 60.6612 324.26 59.6188 323.615 58.9828L316.389 51.7479H316.406L316.415 51.7744ZM390.513 68.0108V64.7335C390.513 63.8325 389.779 63.0905 388.869 63.0905H385.036V68.0197C385.036 74.0796 389.947 79 396.007 79H410.759V75.1662C410.759 74.2651 410.026 73.5231 409.116 73.5231H396.007C392.968 73.5231 390.513 71.0585 390.513 68.0285V68.0108ZM398.03 57.0393L395.327 59.7425L387.589 52.0041L380.981 58.6117C380.336 59.2566 379.303 59.2566 378.658 58.6117L375.955 55.9086L384.382 47.4901C384.691 47.1809 384.868 46.7657 384.868 46.3329V43.1792H378.278C377.377 43.1792 376.635 42.446 376.635 41.5362V37.7023H396.891C397.792 37.7023 398.534 38.4355 398.534 39.3454V43.1792H390.336V46.3329C390.336 46.7746 390.513 47.1897 390.822 47.4901L398.048 54.7161C398.693 55.3609 398.693 56.3945 398.048 57.0393H398.03ZM224.58 45.2552H242.106C242.724 45.2552 243.21 45.7498 243.21 46.3594V58.9474C243.21 59.8485 243.943 60.5905 244.853 60.5905H248.687V46.377C248.687 42.7287 245.737 39.7694 242.079 39.7694H222.937V43.6033C222.937 44.5043 223.67 45.2463 224.58 45.2463H224.589L224.58 45.2552ZM240.684 64.7777H252.203C253.104 64.7777 253.846 65.5109 253.846 66.4208V70.2546H220.463C219.562 70.2546 218.811 69.5214 218.811 68.6115V64.7777H226.453V53.815H230.286C231.187 53.815 231.929 54.5482 231.929 55.4581V64.7777H235.216V53.815H239.049C239.951 53.815 240.693 54.5482 240.693 55.4581V64.7777H240.684ZM155.412 52.1631H171.251V42.34C171.251 38.6917 168.3 35.7324 164.643 35.7324H148.804V45.5555C148.804 49.2038 151.763 52.1631 155.412 52.1631ZM164.669 41.2093C165.288 41.2093 165.783 41.704 165.783 42.3135V46.6774H155.394C154.776 46.6774 154.29 46.1827 154.29 45.5732V41.2093H164.669ZM142.515 55.5111H175.897C176.807 55.5111 177.549 56.2443 177.549 57.1542V60.988H163.866V66.9331H160.032C159.122 66.9331 158.38 66.1999 158.38 65.2812V60.988H144.149C143.248 60.988 142.506 60.2548 142.506 59.345V55.5111H142.515ZM153.742 68.002V64.7247C153.742 63.8236 153.009 63.0816 152.099 63.0816H148.265V68.0108C148.265 74.0708 153.177 78.9912 159.237 78.9912H173.998V75.1573C173.998 74.2563 173.265 73.5142 172.355 73.5142H159.246C156.207 73.5142 153.751 71.0496 153.751 68.0197V68.002H153.742ZM14.558 68.002V64.7247C14.558 63.8236 13.8248 63.0816 12.9149 63.0816H9.08107V68.0108C9.08107 74.0708 13.9926 78.9912 20.0526 78.9912H34.8049V75.1573C34.8049 74.2563 34.0717 73.5142 33.1618 73.5142H20.0526C17.0138 73.5142 14.558 71.0496 14.558 68.0197V68.002ZM22.0755 57.0305L19.3724 59.7336L11.634 51.9953L5.02639 58.6029C4.38153 59.2478 3.33915 59.2478 2.70312 58.6029L0 55.8998L8.41854 47.4813C8.72772 47.1721 8.9044 46.7569 8.9044 46.324V43.1704H2.3056C1.40456 43.1704 0.662529 42.4372 0.662529 41.5273V37.6935H20.9183C21.8193 37.6935 22.5613 38.4267 22.5613 39.3366V43.1704H14.3636V46.324C14.3636 46.7657 14.5403 47.1809 14.8495 47.4813L22.0755 54.7072C22.7203 55.3521 22.7203 56.3857 22.0755 57.0305ZM72.039 56.5977V52.7638C72.039 51.8628 71.3058 51.1208 70.3871 51.1208H65.1929V42.3312C65.1929 38.6829 62.2424 35.7236 58.5853 35.7236H43.833V39.5574C43.833 40.4584 44.5662 41.2005 45.476 41.2005H58.6118C59.2301 41.2005 59.716 41.6952 59.716 42.3047V51.1119H36.9956V54.9458C36.9956 55.8468 37.7288 56.5888 38.6387 56.5888H51.7745V62.5339H41.6334V66.3678C41.6334 67.2688 42.3666 68.0108 43.2764 68.0108H60.8025C61.4209 68.0108 61.9068 68.5055 61.9068 69.1151V77.3127C61.9068 78.2138 62.64 78.9558 63.5498 78.9558H67.3837V69.1327C67.3837 65.4844 64.4332 62.5251 60.776 62.5251H57.2425V56.58H72.0125L72.0479 56.6065L72.039 56.5977ZM277.088 60.9792V65.0339H277.061C279.755 65.8642 281.716 68.373 281.716 71.3412V78.9647H277.883C276.982 78.9647 276.239 78.2315 276.239 77.3216V71.3147C276.239 70.7051 275.754 70.2104 275.135 70.2104H259.809C258.899 70.2104 258.166 69.4772 258.166 68.5674V64.7335H262.821V60.9704H254.067C253.166 60.9704 252.424 60.2372 252.424 59.3273V55.4934H285.806C286.716 55.4934 287.458 56.2266 287.458 57.1365V60.9704H277.07L277.088 60.9792ZM271.619 60.9792H268.324V64.7424H271.619V60.9792ZM269.967 54.9016C275.259 54.9016 279.552 50.6172 279.552 45.317C279.552 40.0168 275.268 35.7324 269.967 35.7324C264.667 35.7324 260.383 40.0168 260.383 45.317C260.383 50.6172 264.667 54.9016 269.967 54.9016ZM269.967 41.2093C272.238 41.2093 274.075 43.0556 274.075 45.317C274.075 47.5784 272.229 49.4247 269.967 49.4247C267.706 49.4247 265.86 47.5784 265.86 45.317C265.86 43.0556 267.706 41.2093 269.967 41.2093ZM94.9714 55.9705C95.6163 55.3256 95.6163 54.2921 94.9714 53.6472L87.7454 46.4124C87.4451 46.112 87.2596 45.6968 87.2596 45.2552V38.2677C87.2596 37.3578 86.5264 36.6158 85.6077 36.6158H81.7738V45.2463C81.7738 45.6792 81.606 46.0944 81.2879 46.4035L72.8694 54.8221L75.5725 57.5252C76.2174 58.1701 77.2509 58.1701 77.8958 57.5252L84.5034 50.9176L92.2418 58.6559L94.9449 55.9528H94.9626L94.9714 55.9705ZM86.3585 69.3801C86.3585 64.0887 90.6429 59.7955 95.9431 59.7955C101.243 59.7955 105.528 64.0798 105.528 69.3801C105.528 74.6803 101.243 78.9647 95.9431 78.9647C90.6429 78.9647 86.3585 74.6803 86.3585 69.3801ZM91.8266 69.3801C91.8266 71.6503 93.6728 73.4878 95.9343 73.4878C98.1957 73.4878 100.042 71.6415 100.042 69.3801C100.042 67.1186 98.1957 65.2724 95.9343 65.2724C93.6728 65.2724 91.8266 67.1186 91.8266 69.3801ZM120.068 67.9932V64.7159C120.068 63.8148 119.335 63.0728 118.425 63.0728H114.591V68.002C114.591 74.0619 119.503 78.9823 125.563 78.9823H140.324V75.1485C140.324 74.2474 139.591 73.5054 138.681 73.5054H125.571C122.533 73.5054 120.077 71.0408 120.077 68.0108V67.9932H120.068ZM134.847 33.6123H138.681C139.582 33.6123 140.324 34.3455 140.324 35.2554V59.5128H136.49C135.589 59.5128 134.847 58.7796 134.847 57.8697V33.6123ZM128.451 47.6491C128.451 42.3577 124.167 38.0645 118.867 38.0645C113.566 38.0645 109.282 42.3489 109.282 47.6491C109.282 52.9493 113.566 57.2337 118.867 57.2337C124.167 57.2337 128.451 52.9493 128.451 47.6491ZM114.759 47.6491C114.759 45.3788 116.605 43.5414 118.867 43.5414C121.128 43.5414 122.974 45.3877 122.974 47.6491C122.974 49.9105 121.128 51.7568 118.867 51.7568C116.605 51.7568 114.759 49.9105 114.759 47.6491ZM210.994 37.932H214.827C215.728 37.932 216.47 38.6652 216.47 39.5751V70.767H212.637C211.736 70.767 210.994 70.0338 210.994 69.1239V59.2831H207.716V70.767H203.882C202.981 70.767 202.239 70.0338 202.239 69.1239V37.932H206.073C206.974 37.932 207.716 38.6652 207.716 39.5751V53.8062H210.994V37.932ZM197.796 41.8277H191.241V39.6369C191.241 38.7359 190.508 37.9938 189.598 37.9938H185.764V41.8277H177.531V45.6615C177.531 46.5625 178.265 47.3046 179.174 47.3046H199.439V43.4707C199.439 42.5697 198.706 41.8277 197.796 41.8277ZM178.909 58.5322C178.909 53.2408 183.194 48.9477 188.494 48.9477C193.794 48.9477 198.079 53.232 198.079 58.5322C198.079 63.8325 193.794 68.1168 188.494 68.1168C183.194 68.1168 178.909 63.8325 178.909 58.5322ZM184.378 58.5322C184.378 60.8025 186.224 62.6399 188.485 62.6399C190.747 62.6399 192.593 60.7937 192.593 58.5322C192.593 56.2708 190.747 54.4246 188.485 54.4246C186.224 54.4246 184.378 56.2708 184.378 58.5322Z" fill="#2C2C2C"/>
<path d="M8.63048 5.28257V7.60584C8.63048 9.84077 9.03683 11.2542 10.2382 12.7206C11.1569 13.8071 12.1021 14.7877 12.7117 15.4237C13.3389 16.1127 13.224 17.1463 12.6233 17.747C11.9961 18.383 11.0156 18.4625 10.3531 17.8C9.9467 17.3936 9.17817 16.5632 8.4008 15.7064C7.22591 14.3813 6.96974 13.7276 6.8549 13.1534H6.8284C6.74006 13.7894 6.42204 14.5315 5.24716 15.8565C4.46979 16.7222 3.72776 17.5261 2.86205 18.383C2.19952 19.0455 1.13948 18.8688 0.565283 18.2946C-0.0707449 17.6321 -0.238586 16.6251 0.450445 15.9095C1.51049 14.823 2.49104 13.8159 3.40974 12.7206C4.61113 11.2542 5.01748 9.8496 5.01748 7.60584V5.28257H1.67833C0.786127 5.28257 0.388609 4.56704 0.388609 3.73667C0.388609 2.9063 0.786127 2.15543 1.67833 2.15543H11.6693C12.5615 2.15543 12.959 2.87096 12.959 3.73667C12.959 4.60237 12.5527 5.28257 11.6693 5.28257H8.62164H8.63048ZM14.3724 11.316H12.3053C11.4131 11.316 11.0156 10.6005 11.0156 9.73477C11.0156 8.86906 11.4219 8.15353 12.3053 8.15353H14.3724V1.72258C14.3724 0.750867 15.2028 0.291513 16.0685 0.291513C16.9342 0.291513 17.7292 0.750867 17.7292 1.72258V22.4553C17.7292 23.4359 16.8988 23.8952 16.0685 23.8952C15.2381 23.8952 14.3724 23.4359 14.3724 22.4553V11.316ZM19.5931 1.43106C19.5931 0.459354 20.4235 0 21.2892 0C22.1549 0 22.9853 0.459354 22.9853 1.43106V23.6567C22.9853 24.6284 22.1549 25.0878 21.2892 25.0878C20.4235 25.0878 19.5931 24.6284 19.5931 23.6567V1.43106Z" fill="#2C2C2C"/>
<path d="M38.144 3.35679V20.9536C38.144 22.049 37.2783 22.5348 36.3066 22.5348C35.3349 22.5348 34.4692 22.049 34.4692 20.9536V6.08642L30.7679 8.20651C29.8227 8.7542 28.904 8.32135 28.4446 7.49098C28.0117 6.71361 28.1266 5.7154 29.0188 5.22071L33.8685 2.51759C34.8756 1.9699 35.5292 1.76672 36.2271 1.76672C37.3137 1.76672 38.1529 2.25258 38.1529 3.34796L38.144 3.35679Z" fill="#2C2C2C"/>
<path d="M58.2142 6.86384V7.00518C58.2142 9.09878 56.951 11.1394 54.7956 11.8019C56.9775 12.0846 59.0711 13.4626 59.0711 16.4219V16.7134C59.0711 19.9024 56.4828 22.685 51.5448 22.685C49.301 22.685 47.4371 22.2257 45.7763 21.1656C44.8841 20.5915 44.8046 19.5844 45.2905 18.7805C45.8028 17.9237 46.6421 17.7205 47.4989 18.2328C48.8505 19.0986 49.884 19.4077 51.2886 19.4077C54.3362 19.4077 55.3698 18.1445 55.3698 16.5368V16.3071C55.3698 14.3548 54.1331 13.4361 51.2091 13.4361H49.6897C48.771 13.4361 48.3646 12.7206 48.3646 11.8549C48.3646 10.9892 48.771 10.2737 49.6897 10.2737H50.8911C53.444 10.2737 54.6277 9.30195 54.6277 7.31436V7.22603C54.6277 5.75963 53.6207 4.84092 51.3504 4.84092C49.9724 4.84092 49.0802 5.30027 48.1085 6.19248C47.3929 6.81968 46.4389 6.70484 45.9 6.02464C45.3258 5.33561 45.4142 4.4434 45.9619 3.81621C47.1632 2.46465 49.0007 1.63428 51.3858 1.63428C56.0941 1.63428 58.2231 4.09889 58.2231 6.86384H58.2142Z" fill="#2C2C2C"/>
<path d="M63.5057 21.2451C62.6135 21.2451 62.2159 20.5296 62.2159 19.6904C62.2159 18.8512 62.6223 18.171 63.5057 18.171C65.3696 18.171 67.2423 18.171 69.1328 18.1445V15.9007C66.2 15.4414 64.4774 13.8601 64.4774 11.5103C64.4774 8.69239 66.942 7.00515 70.9348 7.00515C74.9277 7.00515 77.3923 8.70122 77.3923 11.5103C77.3923 13.869 75.6432 15.4414 72.7369 15.9007V18.0296C74.6008 17.9766 76.4736 17.853 78.311 17.6851C79.2032 17.5968 79.6007 18.2328 79.6891 19.0632C79.7774 19.8671 79.4329 20.6091 78.5672 20.6974C74.751 21.0419 69.0621 21.2451 63.4968 21.2451H63.5057ZM69.1063 2.87096V1.63424C69.1063 0.574192 69.9985 0.0795035 70.9437 0.0795035C71.8889 0.0795035 72.7811 0.565359 72.7811 1.63424V2.87096H77.4365C78.3287 2.87096 78.7262 3.58649 78.7262 4.41686C78.7262 5.24723 78.3198 5.93626 77.4365 5.93626H64.1682C63.276 5.93626 62.8785 5.22073 62.8785 4.41686C62.8785 3.61299 63.2848 2.87096 64.1682 2.87096H69.1063ZM74.1061 11.5103C74.1061 10.4768 73.0726 9.76127 70.9437 9.76127C68.8147 9.76127 67.7812 10.4768 67.7812 11.5103C67.7812 12.5439 68.8147 13.2594 70.9437 13.2594C73.0726 13.2594 74.1061 12.5439 74.1061 11.5103ZM80.7668 1.5459C80.7668 0.485855 81.659 0 82.6042 0C83.5494 0 84.4151 0.485855 84.4151 1.5459V23.5419C84.4151 24.6019 83.5229 25.0878 82.6042 25.0878C81.6855 25.0878 80.7668 24.6019 80.7668 23.5419V1.5459Z" fill="#2C2C2C"/>
</svg>
