<svg width="94" height="29" viewBox="0 0 94 29" fill="none" xmlns="http://www.w3.org/2000/svg">
<path d="M22.2 13.72C19.7 12.02 16.5 12.71 14.83 15.27C13.43 17.4 11.31 17.67 10.49 17.67C7.82 17.67 5.99 15.79 5.45 13.85C5.45 13.85 5.45 13.82 5.44 13.8C5.44 13.78 5.43 13.76 5.42 13.73C5.21 12.92 5.15 12.53 5.15 11.67C5.15 7.01 9.92 1.83 16.79 1.83C23.66 1.83 27.85 7.19 28.89 10.17C28.87 10.12 28.86 10.07 28.84 10.01C26.84 4.19 21.32 0 14.82 0C6.64 0 0 6.63 0 14.82C0 22.14 5.28 28.4 12.6 28.4C18.44 28.4 22.36 25.13 24.16 20.62C25.15 18.15 24.45 15.25 22.21 13.73L22.2 13.72Z" fill="#003667"/>
<path d="M28.98 10.4601C28.11 7.56009 24.06 1.84009 16.79 1.84009C9.92 1.84009 5.14999 7.02009 5.14999 11.6701C5.14999 12.5301 5.19999 12.9201 5.41999 13.7301C5.32999 13.3801 5.27999 13.0201 5.27999 12.6701C5.27999 7.83009 10.13 4.47009 15.12 4.47009C21.87 4.47009 27.34 9.94009 27.34 16.6901C27.34 21.9801 24.3 26.5601 19.87 28.7601C25.57 26.7001 29.64 21.2401 29.64 14.8301C29.64 13.3101 29.44 11.9701 28.99 10.4701L28.98 10.4601Z" fill="#EF0035"/>
<path d="M42.13 20.51V15.14H44.17V20.51H47.06V15.14H49.11V20.51H54.25V22.39H38.36V20.51H42.14H42.13ZM50.81 17.47V9.18001H39.63V7.26001H52.96V17.47H50.81Z" fill="#59595B"/>
<path d="M72.39 18.3799V23.7099H70.24V20.2199H58.65V18.3799H61.4L61.42 16.3599H57.78V14.4999H73.67V16.3599H70.01V18.3799H72.39ZM69.99 9.92994C69.99 10.4699 69.87 10.9799 69.64 11.4599C69.41 11.9399 69.1 12.3599 68.73 12.7399C68.34 13.0899 67.89 13.3699 67.37 13.5799C66.85 13.7899 66.3 13.8999 65.72 13.8999C65.14 13.8999 64.59 13.7899 64.06 13.5799C63.54 13.3699 63.08 13.0899 62.69 12.7399C62.32 12.3699 62.01 11.9399 61.78 11.4599C61.55 10.9799 61.43 10.4699 61.43 9.92994C61.43 9.38994 61.55 8.87994 61.78 8.39994C62.01 7.91994 62.32 7.49994 62.69 7.11994C63.08 6.75994 63.53 6.46994 64.06 6.25994C64.58 6.04994 65.14 5.93994 65.72 5.93994C66.3 5.93994 66.85 6.04994 67.37 6.25994C67.89 6.46994 68.34 6.75994 68.73 7.11994C69.1 7.48994 69.41 7.91994 69.64 8.39994C69.87 8.87994 69.99 9.38994 69.99 9.92994ZM63.38 18.3799H68.03V16.3599H63.4L63.38 18.3799ZM67.88 9.92994C67.88 9.34994 67.67 8.84994 67.25 8.44994C66.83 8.03994 66.32 7.83994 65.73 7.83994C65.14 7.83994 64.63 8.03994 64.2 8.44994C63.77 8.85994 63.56 9.34994 63.56 9.92994C63.56 10.5099 63.77 11.0099 64.2 11.4199C64.63 11.8299 65.14 12.0399 65.73 12.0399C66.32 12.0399 66.83 11.8299 67.25 11.4199C67.67 11.0099 67.88 10.5099 67.88 9.92994Z" fill="#59595B"/>
<path d="M77.39 17.2999H93.28V19.1999H86.4V23.6599H84.25V19.1999H77.39V17.2999ZM80.78 8.84991H89.87V6.65991H92V14.9699H78.67V6.65991H80.78V8.84991ZM89.87 10.7099H80.78V13.0899H89.87V10.7099Z" fill="#59595B"/>
</svg>
