<svg width="685" height="132" viewBox="0 0 685 132" fill="none" xmlns="http://www.w3.org/2000/svg">
<path fill-rule="evenodd" clip-rule="evenodd" d="M169.891 55.9639H176.269C177.783 55.9639 179.003 57.169 179.003 58.6827V99.0391H172.624C171.111 99.0391 169.891 97.8193 169.891 96.3056V80.4187H163.513C162.014 80.4187 160.779 79.1989 160.779 77.6852V71.307H169.876V55.9639H169.891ZM49.6154 55.9639H55.9936C57.4926 55.9639 58.7271 57.1837 58.7271 58.6974V108.18H52.3489C50.8499 108.18 49.6154 106.96 49.6154 105.447V84.0781H43.2371C41.7381 84.0781 40.5036 82.8583 40.5036 81.3446V74.9664H49.6007V55.9639H49.6154ZM675.08 55.9639H681.458C682.957 55.9639 684.192 57.1837 684.192 58.6974V108.18H677.813C676.314 108.18 675.08 106.96 675.08 105.447V84.0781H668.702C667.203 84.0781 665.968 82.8583 665.968 81.3446V74.9664H675.065V55.9639H675.08ZM549.543 59.6086H555.921C557.42 59.6086 558.655 60.8284 558.655 62.3421V117.88H552.277C550.778 117.88 549.543 116.66 549.543 115.146V59.6086ZM623.231 74.9517H616.853V62.3275C616.853 60.8284 615.633 59.5939 614.119 59.5939H607.741V106.931C607.741 107.945 606.933 108.753 605.919 108.753H589.356V103.419C594.661 101.552 598.453 96.4966 598.453 90.5446C598.453 83.0053 592.324 76.8769 584.785 76.8769C577.246 76.8769 571.118 82.9906 571.118 90.5446C571.118 96.4966 574.924 101.537 580.215 103.419V108.753H566.547V115.132C566.547 116.631 567.767 117.865 569.28 117.865H605.933C611.944 117.865 616.823 113.001 616.823 106.975V84.0487H625.92V77.6705C625.92 76.1715 624.701 74.937 623.187 74.937L623.231 74.9517ZM584.815 86.0181C587.313 86.0181 589.37 88.0609 589.37 90.574C589.37 93.087 587.328 95.1298 584.815 95.1298C582.301 95.1298 580.259 93.087 580.259 90.574C580.259 88.0609 582.301 86.0181 584.815 86.0181ZM569.501 75.0839H603.2V68.7057C603.2 67.2067 601.98 65.9722 600.466 65.9722H589.561V62.3275C589.561 60.8284 588.342 59.5939 586.828 59.5939H580.45V65.9722H566.767V72.3504C566.767 73.8494 567.987 75.0839 569.501 75.0839ZM527.219 86.1356C526.705 85.636 526.411 84.9452 526.411 84.2104V68.9261C526.411 67.4124 525.191 66.1779 523.663 66.1779H517.285V84.181C517.285 84.9011 517.005 85.5919 516.476 86.1062L502.471 100.112L506.968 104.609C508.041 105.682 509.76 105.682 510.833 104.609L521.826 93.6161L534.7 106.49L539.197 101.993C540.27 100.92 540.27 99.186 539.197 98.1279L527.175 86.0916H527.205L527.219 86.1356ZM650.493 113.148V107.695C650.493 106.196 649.273 104.962 647.759 104.962H641.381V113.162C641.381 123.244 649.552 131.43 659.634 131.43H684.177V125.052C684.177 123.553 682.957 122.318 681.443 122.318H659.634C654.578 122.318 650.493 118.218 650.493 113.177V113.148ZM662.999 94.8947L658.502 99.3918L645.628 86.5177L634.635 97.5107C633.563 98.5835 631.843 98.5835 630.77 97.5107L626.273 93.0136L640.294 79.0079C640.808 78.4935 641.102 77.8028 641.102 77.0826V71.836H630.138C628.639 71.836 627.405 70.6162 627.405 69.1025V62.7243H661.104C662.603 62.7243 663.837 63.9441 663.837 65.4578V71.836H650.199V77.0826C650.199 77.8175 650.493 78.5082 651.007 79.0079L663.029 91.0295C664.102 92.1024 664.102 93.8219 663.029 94.8947H662.999ZM374.435 75.2897H403.593C404.622 75.2897 405.43 76.1127 405.43 77.1267V98.0691C405.43 99.5682 406.65 100.803 408.164 100.803H414.542V77.1561C414.542 71.0865 409.633 66.1632 403.549 66.1632H371.702V72.5415C371.702 74.0405 372.922 75.275 374.435 75.275H374.45L374.435 75.2897ZM401.227 107.769H420.391C421.89 107.769 423.125 108.989 423.125 110.502V116.881H367.587C366.088 116.881 364.839 115.661 364.839 114.147V107.769H377.551V89.5305H383.929C385.428 89.5305 386.663 90.7503 386.663 92.264V107.769H392.13V89.5305H398.508C400.007 89.5305 401.242 90.7503 401.242 92.264V107.769H401.227ZM259.363 86.7823H285.713V70.4399C285.713 64.3703 280.805 59.447 274.72 59.447H248.37V75.7894C248.37 81.859 253.293 86.7823 259.363 86.7823ZM274.764 68.5587C275.793 68.5587 276.616 69.3817 276.616 70.3958V77.6558H259.333C258.304 77.6558 257.496 76.8328 257.496 75.8188V68.5587H274.764ZM237.906 92.3522H293.444C294.957 92.3522 296.192 93.572 296.192 95.0857V101.464H273.427V111.355H267.049C265.535 111.355 264.301 110.135 264.301 108.606V101.464H240.625C239.126 101.464 237.891 100.244 237.891 98.7305V92.3522H237.906ZM256.585 113.133V107.681C256.585 106.182 255.365 104.947 253.851 104.947H247.473V113.148C247.473 123.229 255.644 131.415 265.726 131.415H290.284V125.037C290.284 123.538 289.064 122.304 287.55 122.304H265.741C260.685 122.304 256.6 118.203 256.6 113.162V113.133H256.585ZM25.0283 113.133V107.681C25.0283 106.182 23.8085 104.947 22.2947 104.947H15.9165V113.148C15.9165 123.229 24.0877 131.415 34.1694 131.415H58.7125V125.037C58.7125 123.538 57.4927 122.304 55.9789 122.304H34.1694C29.1139 122.304 25.0283 118.203 25.0283 113.162V113.133ZM37.5349 94.88L33.0378 99.3771L20.1638 86.503L9.17085 97.496C8.09801 98.5688 6.36384 98.5688 5.3057 97.496L0.808594 92.9989L14.8143 78.9932C15.3286 78.4788 15.6226 77.7881 15.6226 77.0679V71.8213H4.64436C3.14532 71.8213 1.91082 70.6015 1.91082 69.0878V62.7096H35.6097C37.1087 62.7096 38.3432 63.9294 38.3432 65.4431V71.8213H24.705V77.0679C24.705 77.8028 24.9989 78.4935 25.5133 78.9932L37.5349 91.0148C38.6078 92.0877 38.6078 93.8072 37.5349 94.88ZM120.658 94.1599V87.7816C120.658 86.2826 119.438 85.0481 117.91 85.0481H109.268V70.4252C109.268 64.3556 104.36 59.4323 98.2752 59.4323H73.7322V65.8105C73.7322 67.3095 74.952 68.544 76.4657 68.544H98.3193C99.348 68.544 100.156 69.367 100.156 70.3811V85.0334H62.3572V91.4116C62.3572 92.9107 63.577 94.1452 65.0907 94.1452H86.9443V104.036H70.0728V110.414C70.0728 111.913 71.2926 113.148 72.8063 113.148H101.964C102.993 113.148 103.801 113.971 103.801 114.985V128.623C103.801 130.122 105.021 131.356 106.535 131.356H112.913V115.014C112.913 108.944 108.004 104.021 101.92 104.021H96.0413V94.1305H120.614L120.673 94.1746L120.658 94.1599ZM461.791 101.449V108.195H461.747C466.229 109.576 469.492 113.75 469.492 118.688V131.371H463.114C461.615 131.371 460.38 130.151 460.38 128.638V118.644C460.38 117.63 459.572 116.807 458.543 116.807H433.045C431.531 116.807 430.311 115.587 430.311 114.074V107.695H438.056V101.435H423.492C421.993 101.435 420.759 100.215 420.759 98.7011V92.3228H476.296C477.81 92.3228 479.045 93.5426 479.045 95.0564V101.435H461.762L461.791 101.449ZM452.694 101.449H447.212V107.71H452.694V101.449ZM449.946 91.3382C458.749 91.3382 465.891 84.2104 465.891 75.3926C465.891 66.5747 458.763 59.447 449.946 59.447C441.128 59.447 434 66.5747 434 75.3926C434 84.2104 441.128 91.3382 449.946 91.3382ZM449.946 68.5587C453.723 68.5587 456.779 71.6303 456.779 75.3926C456.779 79.1548 453.708 82.2264 449.946 82.2264C446.183 82.2264 443.112 79.1548 443.112 75.3926C443.112 71.6303 446.183 68.5587 449.946 68.5587ZM158.81 93.1164C159.883 92.0436 159.883 90.3241 158.81 89.2513L146.788 77.2149C146.288 76.7152 145.98 76.0245 145.98 75.2897V63.6648C145.98 62.1511 144.76 60.9166 143.232 60.9166H136.853V75.275C136.853 75.9951 136.574 76.6858 136.045 77.2002L122.039 91.2059L126.536 95.703C127.609 96.7758 129.329 96.7758 130.402 95.703L141.394 84.7101L154.269 97.5841L158.766 93.087H158.795L158.81 93.1164ZM144.481 115.426C144.481 106.622 151.608 99.48 160.426 99.48C169.244 99.48 176.372 106.608 176.372 115.426C176.372 124.243 169.244 131.371 160.426 131.371C151.608 131.371 144.481 124.243 144.481 115.426ZM153.578 115.426C153.578 119.203 156.649 122.259 160.412 122.259C164.174 122.259 167.245 119.188 167.245 115.426C167.245 111.663 164.174 108.592 160.412 108.592C156.649 108.592 153.578 111.663 153.578 115.426ZM200.562 113.118V107.666C200.562 106.167 199.342 104.932 197.829 104.932H191.45V113.133C191.45 123.215 199.622 131.401 209.703 131.401H234.261V125.022C234.261 123.523 233.041 122.289 231.528 122.289H209.718C204.663 122.289 200.577 118.189 200.577 113.148V113.118H200.562ZM225.149 55.9198H231.528C233.027 55.9198 234.261 57.1396 234.261 58.6533V99.0097H227.883C226.384 99.0097 225.149 97.7899 225.149 96.2762V55.9198ZM214.509 79.2724C214.509 70.4693 207.381 63.3268 198.563 63.3268C189.746 63.3268 182.618 70.4546 182.618 79.2724C182.618 88.0903 189.746 95.218 198.563 95.218C207.381 95.218 214.509 88.0903 214.509 79.2724ZM191.73 79.2724C191.73 75.4954 194.801 72.4386 198.563 72.4386C202.326 72.4386 205.397 75.5101 205.397 79.2724C205.397 83.0347 202.326 86.1062 198.563 86.1062C194.801 86.1062 191.73 83.0347 191.73 79.2724ZM351.832 63.1064H358.211C359.71 63.1064 360.944 64.3262 360.944 65.8399V117.733H354.566C353.067 117.733 351.832 116.513 351.832 114.999V98.6276H346.38V117.733H340.002C338.503 117.733 337.268 116.513 337.268 114.999V63.1064H343.646C345.145 63.1064 346.38 64.3262 346.38 65.8399V89.5158H351.832V63.1064ZM329.876 69.5875H318.971V65.9428C318.971 64.4437 317.751 63.2092 316.238 63.2092H309.859V69.5875H296.162V75.9657C296.162 77.4648 297.382 78.6993 298.896 78.6993H332.609V72.321C332.609 70.822 331.39 69.5875 329.876 69.5875ZM298.455 97.3784C298.455 88.5752 305.583 81.4328 314.401 81.4328C323.218 81.4328 330.346 88.5605 330.346 97.3784C330.346 106.196 323.218 113.324 314.401 113.324C305.583 113.324 298.455 106.196 298.455 97.3784ZM307.552 97.3784C307.552 101.155 310.624 104.212 314.386 104.212C318.148 104.212 321.22 101.141 321.22 97.3784C321.22 93.6161 318.148 90.5446 314.386 90.5446C310.624 90.5446 307.552 93.6161 307.552 97.3784Z" fill="white"/>
<path d="M15.167 8.78845V12.6536C15.167 16.3718 15.843 18.7232 17.8417 21.1628C19.3701 22.9705 20.9426 24.6018 21.9567 25.6599C23.0001 26.8063 22.8091 28.5257 21.8097 29.5251C20.7663 30.5832 19.135 30.7155 18.0328 29.6133C17.3567 28.9372 16.0781 27.5558 14.7849 26.1302C12.8302 23.9258 12.404 22.8382 12.213 21.883H12.1689C12.0219 22.9411 11.4929 24.1756 9.53823 26.3801C8.24495 27.8203 7.01045 29.1577 5.5702 30.5832C4.46797 31.6855 2.7044 31.3915 1.74914 30.4363C0.690995 29.334 0.411763 27.6586 1.55808 26.4682C3.32165 24.6606 4.95295 22.9852 6.48138 21.1628C8.48009 18.7232 9.15613 16.3865 9.15613 12.6536V8.78845H3.60088C2.11655 8.78845 1.45521 7.59805 1.45521 6.21658C1.45521 4.83512 2.11655 3.58592 3.60088 3.58592H20.2225C21.7069 3.58592 22.3682 4.77633 22.3682 6.21658C22.3682 7.65683 21.6922 8.78845 20.2225 8.78845H15.1523H15.167ZM24.7196 18.8261H21.2807C19.7963 18.8261 19.135 17.6357 19.135 16.1954C19.135 14.7552 19.811 13.5648 21.2807 13.5648H24.7196V2.8658C24.7196 1.2492 26.1011 0.484982 27.5413 0.484982C28.9816 0.484982 30.3043 1.2492 30.3043 2.8658V37.3583C30.3043 38.9896 28.9228 39.7538 27.5413 39.7538C26.1599 39.7538 24.7196 38.9896 24.7196 37.3583V18.8261ZM33.4052 2.38082C33.4052 0.764213 34.7867 0 36.2269 0C37.6672 0 39.0486 0.764213 39.0486 2.38082V39.357C39.0486 40.9736 37.6672 41.7378 36.2269 41.7378C34.7867 41.7378 33.4052 40.9736 33.4052 39.357V2.38082Z" fill="white"/>
<path d="M64.2677 5.58465V34.8599C64.2677 36.6823 62.8274 37.4906 61.2108 37.4906C59.5942 37.4906 58.154 36.6823 58.154 34.8599V10.1258L51.9962 13.653C50.4237 14.5642 48.8952 13.844 48.131 12.4626C47.4109 11.1693 47.6019 9.5086 49.0863 8.6856L57.1546 4.1885C58.83 3.27732 59.9175 2.9393 61.0785 2.9393C62.8862 2.9393 64.2824 3.7476 64.2824 5.56996L64.2677 5.58465Z" fill="white"/>
<path d="M97.6579 11.4191V11.6542C97.6579 15.1372 95.5563 18.5321 91.9704 19.6343C95.6004 20.1046 99.0835 22.3973 99.0835 27.3206V27.8056C99.0835 33.111 94.7774 37.7403 86.5621 37.7403C82.8292 37.7403 79.7283 36.9761 76.9654 35.2125C75.481 34.2573 75.3488 32.5819 76.1571 31.2445C77.0095 29.819 78.4056 29.4809 79.8312 30.3333C82.0797 31.7736 83.7992 32.288 86.1359 32.288C91.2062 32.288 92.9257 30.1864 92.9257 27.5116V27.1295C92.9257 23.8816 90.8682 22.3532 86.0037 22.3532H83.4759C81.9475 22.3532 81.2714 21.1628 81.2714 19.7225C81.2714 18.2823 81.9475 17.0919 83.4759 17.0919H85.4746C89.7219 17.0919 91.6912 15.4753 91.6912 12.1686V12.0216C91.6912 9.58201 90.0158 8.05358 86.2388 8.05358C83.9462 8.05358 82.4618 8.81779 80.8452 10.3021C79.6548 11.3456 78.0676 11.1545 77.1711 10.0229C76.2159 8.87658 76.3628 7.39224 77.274 6.34879C79.2727 4.10024 82.3296 2.71878 86.2976 2.71878C94.1308 2.71878 97.6726 6.81908 97.6726 11.4191H97.6579Z" fill="white"/>
<path d="M106.461 35.3449C104.977 35.3449 104.315 34.1545 104.315 32.7583C104.315 31.3621 104.991 30.2305 106.461 30.2305C109.562 30.2305 112.678 30.2305 115.823 30.1864V26.4535C110.944 25.6893 108.078 23.0587 108.078 19.1494C108.078 14.4613 112.178 11.6543 118.821 11.6543C125.464 11.6543 129.564 14.476 129.564 19.1494C129.564 23.0734 126.654 25.6893 121.819 26.4535V29.9954C124.92 29.9072 128.035 29.7014 131.092 29.4222C132.577 29.2753 133.238 30.3334 133.385 31.7149C133.532 33.0522 132.959 34.2867 131.518 34.4337C125.17 35.0069 115.705 35.3449 106.446 35.3449H106.461ZM115.779 4.77633V2.71884C115.779 0.955267 117.263 0.132268 118.835 0.132268C120.408 0.132268 121.892 0.94057 121.892 2.71884V4.77633H129.637C131.122 4.77633 131.783 5.96674 131.783 7.34821C131.783 8.72967 131.107 9.87599 129.637 9.87599H107.563C106.079 9.87599 105.418 8.68558 105.418 7.34821C105.418 6.01083 106.094 4.77633 107.563 4.77633H115.779ZM124.097 19.1494C124.097 17.4299 122.377 16.2395 118.835 16.2395C115.294 16.2395 113.574 17.4299 113.574 19.1494C113.574 20.8689 115.294 22.0593 118.835 22.0593C122.377 22.0593 124.097 20.8689 124.097 19.1494ZM135.178 2.57187C135.178 0.808303 136.662 0 138.235 0C139.807 0 141.248 0.808303 141.248 2.57187V39.1659C141.248 40.9295 139.763 41.7378 138.235 41.7378C136.706 41.7378 135.178 40.9295 135.178 39.1659V2.57187Z" fill="white"/>
</svg>
