<svg width="465" height="90" viewBox="0 0 465 90" fill="none" xmlns="http://www.w3.org/2000/svg">
<path fill-rule="evenodd" clip-rule="evenodd" d="M10.0556 5.8703V8.46416C10.0556 10.9518 10.5157 12.5294 11.9277 14.1524C12.8934 15.2549 13.8984 16.2571 14.5977 16.9545L14.5977 16.9546L14.7994 17.1558C15.5292 17.9143 15.4023 19.0671 14.7042 19.7497C14.0061 20.4323 12.8321 20.5536 12.0546 19.8104C11.5945 19.3553 10.6902 18.43 9.78586 17.4744C8.42142 16.003 8.11997 15.2749 7.97718 14.6227H7.94545C7.85026 15.3204 7.48535 16.1547 6.10504 17.6261C5.2007 18.5817 4.32809 19.4767 3.32855 20.4323C2.55114 21.1604 1.32948 20.9784 0.647261 20.3413C-0.0825579 19.6132 -0.288811 18.4907 0.520336 17.6868C1.75786 16.4733 2.90018 15.3508 3.96318 14.1373C5.35935 12.5142 5.83532 10.9367 5.83532 8.44899V5.85514H1.96411C0.932842 5.85514 0.456874 5.05119 0.456874 4.1259C0.456874 3.20061 0.916977 2.36632 1.96411 2.36632H13.5936C14.6249 2.36632 15.1009 3.17027 15.1009 4.1259C15.1009 5.08153 14.6407 5.85514 13.5936 5.85514H10.0556V5.8703ZM16.735 12.5901H14.3234C13.2922 12.5901 12.8162 11.7861 12.8162 10.8305C12.8162 9.87485 13.2763 9.07091 14.3234 9.07091H16.735V1.89609C16.735 0.803943 17.7028 0.303375 18.7024 0.303375C19.7019 0.303375 20.638 0.819112 20.638 1.89609V24.9678C20.638 26.0599 19.6702 26.5605 18.7024 26.5605C17.7345 26.5605 16.735 26.0447 16.735 24.9678V12.5901ZM22.8274 1.59272C22.8274 0.500569 23.7952 0 24.7948 0C25.7943 0 26.7621 0.515737 26.7621 1.59272V26.3329C26.7621 27.4251 25.7943 27.9257 24.7948 27.9257C23.7952 27.9257 22.8274 27.4099 22.8274 26.3329V1.59272ZM115.049 38.0806H119.385V38.071C120.41 38.071 121.242 38.9039 121.242 39.9282V67.3836H116.906C115.881 67.3836 115.049 66.5508 115.049 65.5265V54.7185H110.712C109.688 54.7185 108.855 53.8857 108.855 52.8614V48.5248H115.049V38.0806ZM33.2088 38.0808H37.5454C38.5697 38.0808 39.4026 38.9137 39.4026 39.938V73.6063H35.066C34.0417 73.6063 33.2088 72.7735 33.2088 71.7491V57.2077H28.8722C27.8479 57.2077 27.0151 56.3749 27.0151 55.3505V51.014H33.2088V38.0808ZM458.797 38.0808H463.133C464.158 38.0808 464.99 38.9137 464.99 39.938V73.6063H460.654C459.63 73.6063 458.797 72.7735 458.797 71.7491V57.2077H454.46C453.436 57.2077 452.603 56.3749 452.603 55.3505V51.014H458.797V38.0808ZM373.377 40.5601H377.713C378.737 40.5601 379.57 41.3929 379.57 42.4172V80.2115H375.234C374.209 80.2115 373.377 79.3787 373.377 78.3544V40.5601ZM423.52 51.0042H419.184V42.4172C419.184 41.3929 418.351 40.5601 417.326 40.5601H412.99V72.7733C412.99 73.4625 412.435 74.0178 411.745 74.0178H400.478V70.3896C404.087 69.1164 406.672 65.6797 406.672 61.6303C406.672 56.4991 402.507 52.3349 397.376 52.3349C392.245 52.3349 388.081 56.4991 388.081 61.6303C388.081 65.6797 390.675 69.1068 394.275 70.3896V74.0178H384.979V78.3544C384.979 79.3787 385.812 80.2115 386.836 80.2115H411.774C415.862 80.2115 419.184 76.8993 419.184 72.802V57.198H425.377V52.8614C425.377 51.8371 424.544 51.0042 423.52 51.0042ZM397.376 58.5382C399.08 58.5382 400.478 59.9263 400.478 61.6399C400.478 63.3534 399.09 64.7415 397.376 64.7415C395.663 64.7415 394.275 63.3534 394.275 61.6399C394.275 59.9263 395.663 58.5382 397.376 58.5382ZM386.961 51.1002H409.888V46.7636C409.888 45.7393 409.055 44.9064 408.031 44.9064H400.612V42.427C400.612 41.4027 399.779 40.5698 398.755 40.5698H394.418V44.9064H385.104V49.243C385.104 50.2673 385.936 51.1002 386.961 51.1002ZM358.194 58.6246C357.849 58.28 357.648 57.8109 357.648 57.3131V46.9168C357.648 45.8829 356.815 45.05 355.781 45.05H351.445V57.3035C351.445 57.7917 351.253 58.2608 350.899 58.615L341.364 68.1498L344.428 71.2131C345.155 71.9407 346.333 71.9407 347.06 71.2131L354.537 63.7366L363.296 72.4959L366.36 69.4325C367.087 68.705 367.087 67.5275 366.36 66.8L358.175 58.615L358.194 58.6246ZM442.073 77.0046V73.2903C442.073 72.266 441.24 71.4331 440.215 71.4331H435.879V77.0142C435.879 83.878 441.441 89.44 448.295 89.44H465V85.1034C465 84.0791 464.167 83.2462 463.143 83.2462H448.305C444.868 83.2462 442.082 80.4605 442.082 77.0238L442.073 77.0046ZM450.583 64.5886L447.52 67.6519H447.51L438.751 58.8926L431.274 66.3692C430.547 67.0967 429.369 67.0967 428.642 66.3692L425.578 63.3058L435.113 53.7711C435.467 53.4169 435.659 52.9478 435.659 52.4596V48.8888H428.201C427.177 48.8888 426.344 48.056 426.344 47.0316V42.6951H435.659H441.852H449.272C450.296 42.6951 451.129 43.5279 451.129 44.5522V48.8888H441.852V52.4596C441.852 52.9574 442.053 53.4264 442.398 53.7711L450.583 61.956C451.311 62.6835 451.311 63.861 450.583 64.5886ZM254.231 51.2534H274.066C274.765 51.2534 275.32 51.8182 275.32 52.5074V66.7617C275.32 67.786 276.153 68.6188 277.177 68.6188H281.514V52.5266C281.514 48.4006 278.173 45.05 274.037 45.05H252.364V49.3866C252.364 50.4109 253.197 51.2438 254.221 51.2438L254.231 51.2534ZM272.458 73.3573H285.468H285.496C286.521 73.3573 287.353 74.1902 287.353 75.2145V79.5511H249.559C248.535 79.5511 247.692 78.7182 247.692 77.6939V73.3573H256.346V60.9507H260.683C261.707 60.9507 262.54 61.7835 262.54 62.8078V73.3573H266.264V60.9507H270.601C271.625 60.9507 272.458 61.7835 272.458 62.8078V73.3573ZM175.933 59.0745H193.863V47.9507C193.863 43.8247 190.522 40.4741 186.387 40.4741H168.456V51.598C168.456 55.7239 171.807 59.0745 175.933 59.0745ZM186.415 46.6774C187.114 46.6774 187.67 47.2422 187.67 47.9315V52.8712H175.914C175.215 52.8712 174.66 52.3064 174.66 51.6171V46.6774H186.415ZM161.334 62.8652H199.128C200.162 62.8652 200.995 63.6981 200.995 64.7224V69.059H185.506V75.7888H181.169C180.136 75.7888 179.303 74.956 179.303 73.9221V69.059H163.191C162.167 69.059 161.334 68.2261 161.334 67.2018V62.8652ZM174.047 77.0046V73.2903C174.047 72.266 173.214 71.4331 172.19 71.4331H167.853V77.0142C167.853 83.878 173.415 89.44 180.27 89.44H196.975V85.1034C196.975 84.0791 196.142 83.2462 195.117 83.2462H180.279C176.842 83.2462 174.057 80.4605 174.057 77.0238L174.047 77.0046ZM16.4847 77.0046V73.2903C16.4847 72.266 15.6519 71.4331 14.6276 71.4331H10.291V77.0142C10.291 83.878 15.8529 89.44 22.7072 89.44H39.4121V85.1034C39.4121 84.0791 38.5793 83.2462 37.555 83.2462H22.7168C19.2801 83.2462 16.4943 80.4605 16.4943 77.0238L16.4847 77.0046ZM24.9952 64.5886L21.9318 67.6519L13.1725 58.8926L5.69595 66.3692C4.9684 67.0967 3.79092 67.0967 3.06337 66.3692L0 63.3058L9.52516 53.7711C9.87936 53.4169 10.0708 52.9478 10.0708 52.4596V48.8888H2.61344C1.58912 48.8888 0.756269 48.056 0.756269 47.0316V42.6951H10.0708H16.2646H23.6837C24.708 42.6951 25.5408 43.5279 25.5408 44.5522V48.8888H16.2646V52.4596C16.2646 52.9574 16.4656 53.4264 16.8102 53.7711L24.9952 61.956C25.7227 62.6835 25.7227 63.861 24.9952 64.5886ZM81.5526 64.1005V59.764C81.5526 58.7396 80.7197 57.9068 79.6858 57.9068H73.808V47.9604C73.808 43.8344 70.467 40.4839 66.3315 40.4839H49.6265V44.8205C49.6265 45.8448 50.4594 46.6776 51.4837 46.6776H66.3506C67.0494 46.6776 67.6047 47.2424 67.6047 47.9317V57.8972H41.882V62.2338C41.882 63.2581 42.7148 64.091 43.7391 64.091H58.606V70.8208H47.128V75.1574C47.128 76.1817 47.9608 77.0145 48.9851 77.0145H68.8204C69.5193 77.0145 70.0745 77.5794 70.0745 78.2686V87.5449C70.0745 88.5692 70.9074 89.402 71.9317 89.402H76.2683V78.2782C76.2683 74.1522 72.9273 70.8017 68.7917 70.8017H64.7902V64.0718H81.5143L81.5526 64.1005ZM313.67 69.059V73.6445H313.641C316.695 74.5826 318.916 77.4258 318.916 80.7859V89.4208H314.579C313.555 89.4208 312.722 88.588 312.722 87.5636V80.7668C312.722 80.0775 312.167 79.5127 311.468 79.5127H294.122C293.097 79.5127 292.264 78.6799 292.264 77.6556V73.319H297.539V69.059H287.631C286.607 69.059 285.774 68.2261 285.774 67.2018V62.8652H323.568C324.602 62.8652 325.435 63.6981 325.435 64.7224V69.059H313.67ZM307.476 69.059H303.742V73.319H307.476V69.059ZM305.609 62.1764C311.602 62.1764 316.455 57.3228 316.455 51.3301C316.455 45.3374 311.602 40.4839 305.609 40.4839C299.616 40.4839 294.763 45.3374 294.763 51.3301C294.763 57.3228 299.616 62.1764 305.609 62.1764ZM305.609 46.6776C308.175 46.6776 310.262 48.7646 310.262 51.3301C310.262 53.8957 308.175 55.9826 305.609 55.9826C303.044 55.9826 300.957 53.8957 300.957 51.3301C300.957 48.7646 303.044 46.6776 305.609 46.6776ZM107.505 63.3918C108.233 62.6643 108.233 61.4868 107.505 60.7593L99.3201 52.5743C98.9755 52.2297 98.7744 51.7606 98.7744 51.2628V43.3555C98.7744 42.3216 97.9416 41.4888 96.9077 41.4888H92.5711V51.2628C92.5711 51.7511 92.3797 52.2201 92.0255 52.5743L82.4907 62.1091L85.5541 65.1724C86.2816 65.9 87.4591 65.9 88.1867 65.1724L95.6632 57.6959L104.423 66.4552L107.486 63.3918H107.505ZM97.7597 78.5748C97.7597 72.582 102.613 67.7285 108.606 67.7285C114.599 67.7285 119.452 72.582 119.452 78.5748C119.452 84.5675 114.599 89.421 108.606 89.421C102.613 89.421 97.7597 84.5675 97.7597 78.5748ZM103.953 78.5748C103.953 81.1403 106.04 83.2272 108.606 83.2272C111.172 83.2272 113.258 81.1403 113.258 78.5748C113.258 76.0092 111.172 73.9223 108.606 73.9223C106.04 73.9223 103.953 76.0092 103.953 78.5748ZM135.927 77.0046V73.2903C135.927 72.266 135.095 71.4331 134.07 71.4331H129.734V77.0142C129.734 83.878 135.296 89.44 142.15 89.44H158.855V85.1034C158.855 84.0791 158.022 83.2462 156.998 83.2462H142.159C138.723 83.2462 135.937 80.4605 135.937 77.0238L135.927 77.0046ZM152.661 38.0808H156.998C158.022 38.0808 158.855 38.9137 158.855 39.938V67.3934H154.518C153.494 67.3934 152.661 66.5606 152.661 65.5362V38.0808ZM145.424 53.972C145.424 47.9793 140.57 43.1257 134.578 43.1257C128.585 43.1257 123.731 47.9793 123.731 53.972C123.731 59.9647 128.585 64.8182 134.578 64.8182C140.57 64.8182 145.424 59.9647 145.424 53.972ZM129.925 53.972C129.925 51.4064 132.012 49.3195 134.578 49.3195C137.143 49.3195 139.23 51.4064 139.23 53.972C139.23 56.5375 137.143 58.6245 134.578 58.6245C132.012 58.6245 129.925 56.5375 129.925 53.972ZM238.866 42.9724H243.203C244.227 42.9724 245.06 43.8053 245.06 44.8296V80.1349H240.723C239.699 80.1349 238.866 79.302 238.866 78.2777V67.1347H235.152V80.1349H230.815C229.791 80.1349 228.958 79.302 228.958 78.2777V42.9724H233.295C234.319 42.9724 235.152 43.8053 235.152 44.8296V60.941H238.866V42.9724ZM223.923 47.3859H216.504V44.9065C216.504 43.8822 215.671 43.0493 214.646 43.0493H210.31V47.3859H200.995V51.7225C200.995 52.7468 201.828 53.5796 202.852 53.5796H225.789V49.2431C225.789 48.2188 224.956 47.3859 223.932 47.3859H223.923ZM202.546 66.2925C202.546 60.2998 207.4 55.4463 213.392 55.4463C219.385 55.4463 224.238 60.2998 224.238 66.2925C224.238 72.2852 219.385 77.1388 213.392 77.1388C207.4 77.1388 202.546 72.2852 202.546 66.2925ZM208.74 66.2925C208.74 68.8581 210.827 70.945 213.392 70.945C215.958 70.945 218.045 68.8581 218.045 66.2925C218.045 63.727 215.958 61.64 213.392 61.64C210.827 61.64 208.74 63.727 208.74 66.2925ZM43.052 23.8284V4.11256L43.0377 4.0973C43.0377 2.87651 42.1638 2.32715 41.0176 2.32715C40.2869 2.32715 39.5992 2.55605 38.539 3.16644L33.4385 6.18791C32.5072 6.73727 32.3783 7.8665 32.8367 8.73632C33.3239 9.66717 34.2838 10.1555 35.2867 9.54509L39.1837 7.16454V23.8284C39.1837 25.0492 40.0863 25.5985 41.1179 25.5985C42.1494 25.5985 43.052 25.0492 43.052 23.8284ZM66.3641 8.22909V8.58076C66.3641 11.0272 65.1128 13.2901 62.8509 15.446L55.7123 22.1736H65.963C67.0058 22.1736 67.487 22.9534 67.487 23.886C67.487 24.8187 67.0058 25.5985 65.963 25.5985H53.0814C50.9479 25.5985 50.0335 24.8952 50.0335 23.3815C50.0335 22.7087 50.4345 22.1277 51.1564 21.4091L59.0009 13.8711C61.5034 11.4859 62.0167 10.2627 62.0167 8.62663V8.45844C62.0167 7.03647 60.8617 6.01204 58.5357 6.01204C56.5465 6.01204 55.2952 6.74596 54.1081 8.19851C53.4664 9.00888 52.4237 9.16178 51.5414 8.55018C50.6591 7.93858 50.2901 6.97531 50.9639 5.99675C52.4558 3.90202 54.9102 2.32715 58.4715 2.32715C63.9739 2.32715 66.3801 5.09464 66.3801 8.22909H66.3641ZM69.8141 21.9221C69.8141 22.8469 70.2853 23.6504 71.3061 23.6504H71.3218C77.7293 23.6504 84.2938 23.423 88.6911 23.044C89.6805 22.953 90.0731 22.1192 89.9789 21.2247C89.8846 20.2999 89.4135 19.6025 88.3927 19.6935C86.2726 19.8754 84.1211 20.0119 81.9695 20.0725V17.7075C85.2989 17.2072 87.3248 15.4486 87.3248 12.8258C87.3248 9.68757 84.4823 7.80766 79.8808 7.80766C75.2794 7.80766 72.4368 9.68757 72.4368 12.8258C72.4368 15.4334 74.4156 17.192 77.7921 17.7075V20.1938C75.6093 20.2241 73.4579 20.2241 71.3065 20.2241H71.3061C70.2696 20.2241 69.8141 20.9973 69.8141 21.9221ZM77.7607 1.81926V3.19887H77.745H72.0599C71.0234 3.19887 70.568 4.0327 70.568 4.92717C70.568 5.82164 71.0391 6.62514 72.0599 6.62514H87.3562C88.377 6.62514 88.8481 5.85196 88.8481 4.92717C88.8481 4.00237 88.377 3.19887 87.3562 3.19887H82.0009V1.81926C82.0009 0.636742 80.9801 0.0909631 79.8808 0.0909631C78.7815 0.0909631 77.7607 0.636742 77.7607 1.81926ZM79.8808 10.8549C82.3307 10.8549 83.5243 11.6584 83.5243 12.8106C83.5243 13.9628 82.3307 14.7663 79.8808 14.7663C77.4309 14.7663 76.2373 13.9628 76.2373 12.8106C76.2373 11.6584 77.4309 10.8549 79.8808 10.8549ZM93.324 0C92.2246 0 91.2038 0.545778 91.2038 1.7283V1.74346V26.1974C91.2038 27.3799 92.256 27.9257 93.324 27.9257C94.3919 27.9257 95.4127 27.3799 95.4127 26.1974V1.7283C95.4127 0.545778 94.4233 0 93.324 0Z" fill="#333333"/>
</svg>
