<svg width="686" height="132" viewBox="0 0 686 132" fill="none" xmlns="http://www.w3.org/2000/svg">
<path fill-rule="evenodd" clip-rule="evenodd" d="M15.196 8.65561V12.4802C15.196 16.1482 15.8744 18.4743 17.9564 20.8674C19.3804 22.4929 20.8622 23.9708 21.8933 24.9991C21.9972 25.1027 22.0965 25.2017 22.1907 25.2959C23.2668 26.4142 23.0796 28.114 22.0503 29.1204C21.021 30.1269 19.2899 30.3058 18.1436 29.2099C17.4652 28.5389 16.1318 27.1746 14.7983 25.7655C12.7865 23.5961 12.342 22.5225 12.1315 21.5608H12.0847C11.9443 22.5896 11.4063 23.8197 9.37105 25.9892C8.03762 27.3983 6.75098 28.7178 5.27719 30.1269C4.13091 31.2005 2.32961 30.9321 1.32369 29.9927C0.247594 28.9191 -0.0565208 27.2641 1.13655 26.0787C2.96124 24.2894 4.64557 22.6343 6.21293 20.845C8.27155 18.4519 8.97336 16.1258 8.97336 12.4578V8.63325H3.26535C1.74478 8.63325 1.04297 7.44785 1.04297 6.08353C1.04297 4.71921 1.72138 3.48908 3.26535 3.48908H20.4128C21.9333 3.48908 22.6351 4.67448 22.6351 6.08353C22.6351 7.49259 21.9567 8.63325 20.4128 8.63325H15.196V8.65561ZM25.0447 18.5637H21.4889C19.9683 18.5637 19.2665 17.3783 19.2665 15.9693C19.2665 14.5602 19.9449 13.3748 21.4889 13.3748H25.0447V2.79574C25.0447 1.18539 26.4717 0.447319 27.9455 0.447319C29.4193 0.447319 30.7995 1.20776 30.7995 2.79574V36.8143C30.7995 38.4247 29.3725 39.1627 27.9455 39.1627C26.5185 39.1627 25.0447 38.4023 25.0447 36.8143V18.5637ZM34.0278 2.34842C34.0278 0.738075 35.4548 0 36.9286 0C38.4023 0 39.8293 0.760441 39.8293 2.34842V38.8273C39.8293 40.4376 38.4023 41.1757 36.9286 41.1757C35.4548 41.1757 34.0278 40.4152 34.0278 38.8273V2.34842ZM170.006 56.1489H176.4V56.1348C177.91 56.1348 179.138 57.3628 179.138 58.8731V99.3554H172.744C171.234 99.3554 170.006 98.1274 170.006 96.6171V80.6811H163.611C162.101 80.6811 160.873 79.453 160.873 77.9427V71.5485H170.006V56.1489ZM49.3349 56.1492H55.7291C57.2394 56.1492 58.4674 57.3772 58.4674 58.8875V108.531H52.0732C50.5629 108.531 49.3349 107.303 49.3349 105.792V84.3513H42.9407C41.4304 84.3513 40.2024 83.1233 40.2024 81.613V75.2188H49.3349V56.1492ZM676.853 56.1492H683.248C684.758 56.1492 685.986 57.3772 685.986 58.8875V108.531H679.592C678.081 108.531 676.853 107.303 676.853 105.792V84.3513H670.459C668.949 84.3513 667.721 83.1233 667.721 81.613V75.2188H676.853V56.1492ZM550.904 59.8049H557.298C558.808 59.8049 560.036 61.033 560.036 62.5433V118.27H553.642C552.132 118.27 550.904 117.042 550.904 115.532V59.8049ZM624.839 75.2046H618.445V62.5433C618.445 61.033 617.217 59.8049 615.706 59.8049H609.312V107.303C609.312 108.319 608.494 109.137 607.477 109.137H590.864V103.788C596.185 101.911 599.996 96.8432 599.996 90.8724C599.996 83.3067 593.856 77.1666 586.29 77.1666C578.725 77.1666 572.585 83.3067 572.585 90.8724C572.585 96.8432 576.41 101.896 581.717 103.788V109.137H568.011V115.532C568.011 117.042 569.239 118.27 570.75 118.27H607.52C613.547 118.27 618.445 113.386 618.445 107.345V84.3371H627.577V77.9429C627.577 76.4326 626.349 75.2046 624.839 75.2046ZM586.29 86.3132C588.803 86.3132 590.864 88.3599 590.864 90.8866C590.864 93.4132 588.817 95.4599 586.29 95.4599C583.764 95.4599 581.717 93.4132 581.717 90.8866C581.717 88.3599 583.764 86.3132 586.29 86.3132ZM570.933 75.3458H604.739V68.9516C604.739 67.4413 603.511 66.2133 602.001 66.2133H591.061V62.5574C591.061 61.0471 589.833 59.8191 588.323 59.8191H581.929V66.2133H568.195V72.6074C568.195 74.1178 569.423 75.3458 570.933 75.3458ZM528.517 86.4404C528.009 85.9322 527.712 85.2406 527.712 84.5066V69.1775C527.712 67.6531 526.484 66.425 524.96 66.425H518.566V84.4925C518.566 85.2124 518.283 85.904 517.761 86.4263L503.702 100.485L508.219 105.002C509.292 106.075 511.028 106.075 512.101 105.002L523.125 93.9779L536.04 106.893L540.557 102.376C541.63 101.304 541.63 99.5675 540.557 98.4947L528.489 86.4263L528.517 86.4404ZM652.194 113.541V108.065C652.194 106.554 650.966 105.326 649.456 105.326H643.062V113.556C643.062 123.676 651.263 131.877 661.369 131.877H686V125.483C686 123.973 684.772 122.745 683.262 122.745H661.383C656.316 122.745 652.208 118.637 652.208 113.57L652.194 113.541ZM664.743 95.2341L660.226 99.7509H660.212L647.296 86.8355L636.272 97.8595C635.2 98.9322 633.463 98.9322 632.391 97.8595L627.874 93.3426L641.932 79.2839C642.455 78.7616 642.737 78.07 642.737 77.3501V72.0852H631.741C630.231 72.0852 629.003 70.8571 629.003 69.3468V62.9526H642.737H651.87H662.809C664.319 62.9526 665.547 64.1807 665.547 65.691V72.0852H651.87V77.3501C651.87 78.0841 652.166 78.7758 652.674 79.2839L664.743 91.3524C665.815 92.4251 665.815 94.1613 664.743 95.2341ZM375.226 75.5717H404.473C405.503 75.5717 406.322 76.4045 406.322 77.4208V98.4383C406.322 99.9486 407.55 101.177 409.06 101.177H415.454V77.449C415.454 71.3654 410.528 66.425 404.43 66.425H372.474V72.8192C372.474 74.3296 373.702 75.5576 375.212 75.5576L375.226 75.5717ZM402.101 108.163H421.284H421.326C422.837 108.163 424.065 109.391 424.065 110.902V117.296H368.338C366.828 117.296 365.585 116.068 365.585 114.558V108.163H378.346V89.8701H384.74C386.25 89.8701 387.478 91.0981 387.478 92.6085V108.163H392.969V89.8701H399.363C400.873 89.8701 402.101 91.0981 402.101 92.6085V108.163ZM259.778 87.1038H286.216V70.7019C286.216 64.6183 281.29 59.678 275.192 59.678H248.754V76.0798C248.754 82.1635 253.694 87.1038 259.778 87.1038ZM275.234 68.8246C276.265 68.8246 277.083 69.6574 277.083 70.6737V77.9571H259.75C258.719 77.9571 257.901 77.1243 257.901 76.108V68.8246H275.234ZM238.252 92.6934H293.979C295.504 92.6934 296.732 93.9214 296.732 95.4317V101.826H273.893V111.749H267.499C265.975 111.749 264.747 110.521 264.747 108.996V101.826H240.991C239.48 101.826 238.252 100.598 238.252 99.0875V92.6934ZM256.997 113.541V108.065C256.997 106.554 255.769 105.326 254.259 105.326H247.865V113.556C247.865 123.676 256.066 131.877 266.172 131.877H290.803V125.483C290.803 123.973 289.575 122.745 288.065 122.745H266.186C261.119 122.745 257.012 118.637 257.012 113.57L256.997 113.541ZM24.6756 113.541V108.065C24.6756 106.554 23.4476 105.326 21.9373 105.326H15.5431V113.556C15.5431 123.676 23.744 131.877 33.8505 131.877H58.4815V125.483C58.4815 123.973 57.2535 122.745 55.7432 122.745H33.8646C28.7973 122.745 24.6898 118.637 24.6898 113.57L24.6756 113.541ZM37.2241 95.2341L32.7072 99.7509L19.7918 86.8355L8.76785 97.8595C7.6951 98.9322 5.95893 98.9322 4.88618 97.8595L0.369324 93.3426L14.4139 79.2839C14.9362 78.7616 15.2185 78.07 15.2185 77.3501V72.0852H4.22277C2.71244 72.0852 1.48442 70.8571 1.48442 69.3468V62.9526H15.2185H24.351H35.2903C36.8006 62.9526 38.0286 64.1807 38.0286 65.691V72.0852H24.351V77.3501C24.351 78.0841 24.6474 78.7758 25.1556 79.2839L37.2241 91.3524C38.2968 92.4251 38.2968 94.1613 37.2241 95.2341ZM120.617 94.5145V88.1204C120.617 86.61 119.389 85.382 117.864 85.382H109.197V70.7163C109.197 64.6327 104.271 59.6924 98.1734 59.6924H73.5424V66.0866C73.5424 67.5969 74.7704 68.8249 76.2808 68.8249H98.2016C99.232 68.8249 100.051 69.6577 100.051 70.674V85.3679H62.1232V91.7621C62.1232 93.2724 63.3512 94.5004 64.8616 94.5004H86.7825V104.423H69.8583V110.818C69.8583 112.328 71.0864 113.556 72.5967 113.556H101.843C102.874 113.556 103.692 114.389 103.692 115.405V129.083C103.692 130.593 104.92 131.821 106.431 131.821H112.825V115.419C112.825 109.335 107.899 104.395 101.801 104.395H95.9009V94.4722H120.56L120.617 94.5145ZM462.867 101.826V108.587H462.825C467.328 109.97 470.602 114.163 470.602 119.117V131.849H464.208C462.698 131.849 461.47 130.621 461.47 129.111V119.089C461.47 118.072 460.651 117.24 459.621 117.24H434.044C432.534 117.24 431.306 116.012 431.306 114.501V108.107H439.083V101.826H424.474C422.964 101.826 421.736 100.598 421.736 99.0875V92.6934H477.462C478.987 92.6934 480.215 93.9214 480.215 95.4317V101.826H462.867ZM453.735 101.826H448.23V108.107H453.735V101.826ZM450.982 91.6774C459.818 91.6774 466.975 84.521 466.975 75.6849C466.975 66.8488 459.818 59.6924 450.982 59.6924C442.146 59.6924 434.99 66.8488 434.99 75.6849C434.99 84.521 442.146 91.6774 450.982 91.6774ZM450.982 68.8249C454.765 68.8249 457.842 71.902 457.842 75.6849C457.842 79.4678 454.765 82.5449 450.982 82.5449C447.199 82.5449 444.122 79.4678 444.122 75.6849C444.122 71.902 447.199 68.8249 450.982 68.8249ZM158.883 93.4696C159.956 92.3969 159.956 90.6607 158.883 89.5879L146.814 77.5194C146.306 77.0113 146.01 76.3197 146.01 75.5857V63.9265C146.01 62.4021 144.782 61.1741 143.257 61.1741H136.863V75.5857C136.863 76.3055 136.581 76.9972 136.059 77.5194L122 91.5782L126.517 96.095C127.589 97.1678 129.326 97.1678 130.398 96.095L141.422 85.0711L154.338 97.9865L158.855 93.4696H158.883ZM144.514 115.857C144.514 107.02 151.67 99.864 160.506 99.864C169.342 99.864 176.499 107.02 176.499 115.857C176.499 124.693 169.342 131.849 160.506 131.849C151.67 131.849 144.514 124.693 144.514 115.857ZM153.646 115.857C153.646 119.639 156.723 122.716 160.506 122.716C164.289 122.716 167.366 119.639 167.366 115.857C167.366 112.074 164.289 108.997 160.506 108.997C156.723 108.997 153.646 112.074 153.646 115.857ZM200.791 113.541V108.065C200.791 106.554 199.563 105.326 198.052 105.326H191.658V113.556C191.658 123.676 199.859 131.877 209.966 131.877H234.597V125.483C234.597 123.973 233.369 122.745 231.858 122.745H209.98C204.912 122.745 200.805 118.637 200.805 113.57L200.791 113.541ZM225.464 56.1492H231.858C233.369 56.1492 234.597 57.3772 234.597 58.8875V99.3699H228.202C226.692 99.3699 225.464 98.1418 225.464 96.6315V56.1492ZM214.793 79.5801C214.793 70.744 207.637 63.5876 198.801 63.5876C189.964 63.5876 182.808 70.744 182.808 79.5801C182.808 88.4162 189.964 95.5726 198.801 95.5726C207.637 95.5726 214.793 88.4162 214.793 79.5801ZM191.941 79.5801C191.941 75.7973 195.018 72.7202 198.801 72.7202C202.583 72.7202 205.661 75.7973 205.661 79.5801C205.661 83.363 202.583 86.4401 198.801 86.4401C195.018 86.4401 191.941 83.363 191.941 79.5801ZM352.571 63.3618H358.965C360.476 63.3618 361.704 64.5898 361.704 66.1002V118.157H355.31C353.799 118.157 352.571 116.929 352.571 115.419V98.9885H347.095V118.157H340.7C339.19 118.157 337.962 116.929 337.962 115.419V63.3618H344.356C345.867 63.3618 347.095 64.5898 347.095 66.1002V89.856H352.571V63.3618ZM330.538 69.8693H319.598V66.2134C319.598 64.7031 318.37 63.4751 316.86 63.4751H310.466V69.8693H296.732V76.2635C296.732 77.7738 297.96 79.0018 299.47 79.0018H333.29V72.6076C333.29 71.0973 332.062 69.8693 330.552 69.8693H330.538ZM299.018 97.7467C299.018 88.9106 306.175 81.7542 315.011 81.7542C323.847 81.7542 331.003 88.9106 331.003 97.7467C331.003 106.583 323.847 113.739 315.011 113.739C306.175 113.739 299.018 106.583 299.018 97.7467ZM308.151 97.7467C308.151 101.53 311.228 104.607 315.011 104.607C318.794 104.607 321.871 101.53 321.871 97.7467C321.871 93.9638 318.794 90.8867 315.011 90.8867C311.228 90.8867 308.151 93.9638 308.151 97.7467ZM63.8485 35.1344V6.06394L63.8274 6.04144C63.8274 4.24141 62.5387 3.4314 60.8487 3.4314C59.7713 3.4314 58.7573 3.7689 57.194 4.66892L49.6735 9.12399C48.3004 9.934 48.1102 11.599 48.7862 12.8816C49.5045 14.2541 50.9199 14.9741 52.3986 14.0741L58.1447 10.564V35.1344C58.1447 36.9344 59.4756 37.7445 60.9966 37.7445C62.5176 37.7445 63.8485 36.9344 63.8485 35.1344ZM98.2215 12.1337V12.6522C98.2215 16.2593 96.3765 19.596 93.0414 22.7748L82.5157 32.6944H97.6302C99.1676 32.6944 99.8772 33.8442 99.8772 35.2195C99.8772 36.5947 99.1676 37.7445 97.6302 37.7445H78.6366C75.4907 37.7445 74.1424 36.7074 74.1424 34.4755C74.1424 33.4835 74.7337 32.6268 75.7981 31.5672L87.3646 20.4527C91.0545 16.9357 91.8114 15.1321 91.8114 12.7198V12.4718C91.8114 10.3752 90.1084 8.86467 86.6787 8.86467C83.7457 8.86467 81.9007 9.94682 80.1504 12.0886C79.2042 13.2834 77.6668 13.5089 76.3658 12.6071C75.0649 11.7053 74.5209 10.285 75.5143 8.84213C77.7141 5.7535 81.333 3.4314 86.5841 3.4314C94.6972 3.4314 98.2451 7.51199 98.2451 12.1337H98.2215ZM103.309 32.3236C103.309 33.6872 104.003 34.8719 105.508 34.8719H105.531C114.979 34.8719 124.658 34.5366 131.142 33.9778C132.601 33.8436 133.18 32.6142 133.041 31.2953C132.902 29.9317 132.207 28.9034 130.702 29.0376C127.576 29.3058 124.404 29.507 121.231 29.5964V26.1092C126.14 25.3715 129.128 22.7785 129.128 18.9113C129.128 14.2841 124.936 11.5122 118.152 11.5122C111.367 11.5122 107.176 14.2841 107.176 18.9113C107.176 22.7562 110.093 25.3492 115.072 26.1092V29.7752C111.853 29.82 108.681 29.82 105.509 29.82H105.508C103.98 29.82 103.309 30.96 103.309 32.3236ZM115.025 2.68245V4.71665H115.002H106.62C105.092 4.71665 104.42 5.94611 104.42 7.26498C104.42 8.58385 105.115 9.76861 106.62 9.76861H129.174C130.679 9.76861 131.374 8.62856 131.374 7.26498C131.374 5.9014 130.679 4.71665 129.174 4.71665H121.278V2.68245C121.278 0.938859 119.772 0.134123 118.152 0.134123C116.531 0.134123 115.025 0.938859 115.025 2.68245ZM118.152 16.0053C121.764 16.0053 123.524 17.1901 123.524 18.889C123.524 20.5878 121.764 21.7726 118.152 21.7726C114.539 21.7726 112.779 20.5878 112.779 18.889C112.779 17.1901 114.539 16.0053 118.152 16.0053ZM137.973 0C136.352 0 134.847 0.804736 134.847 2.54833V2.57069V38.6273C134.847 40.3709 136.398 41.1757 137.973 41.1757C139.548 41.1757 141.053 40.3709 141.053 38.6273V2.54833C141.053 0.804736 139.594 0 137.973 0Z" fill="white"/>
</svg>
