<svg width="181" height="57" viewBox="0 0 181 57" fill="none" xmlns="http://www.w3.org/2000/svg">
<g clip-path="url(#clip0_1_15948)">
<path d="M150.34 17.9699H159.25V16.2799C159.25 15.8799 158.93 15.5599 158.53 15.5599H155.65V14.5999C155.65 14.1999 155.33 13.8799 154.93 13.8799H153.24V15.5699H149.62V17.2599C149.62 17.6599 149.94 17.9799 150.34 17.9799V17.9699Z" fill="#808080"/>
<path d="M164.55 17.9399H162.86V14.5999C162.86 14.1999 162.54 13.8799 162.14 13.8799H160.45V26.3999C160.45 26.6699 160.23 26.8799 159.97 26.8799H155.59V25.4599C156.99 24.9599 158 23.6399 158 22.0699C158 20.0699 156.38 18.4599 154.39 18.4599C152.4 18.4599 150.78 20.0799 150.78 22.0699C150.78 23.6399 151.79 24.9599 153.19 25.4599V26.8799H149.58V28.5699C149.58 28.9699 149.9 29.2899 150.3 29.2899H159.99C161.58 29.2899 162.87 27.9999 162.87 26.4099V20.3499H165.28V18.6599C165.28 18.2599 164.96 17.9399 164.56 17.9399H164.55ZM154.39 20.8699C155.05 20.8699 155.59 21.4099 155.59 22.0699C155.59 22.7299 155.05 23.2699 154.39 23.2699C153.73 23.2699 153.19 22.7299 153.19 22.0699C153.19 21.4099 153.73 20.8699 154.39 20.8699Z" fill="#808080"/>
<path d="M146.75 13.8799H145.07V28.5599C145.07 28.9599 145.39 29.2799 145.79 29.2799H147.48V14.5999C147.48 14.1999 147.16 13.8799 146.76 13.8799H146.75Z" fill="#808080"/>
<path d="M139.17 20.8999C139.04 20.7599 138.96 20.5799 138.96 20.3899V16.3499C138.96 15.9499 138.64 15.6299 138.24 15.6299H136.56V20.3899C136.56 20.5799 136.48 20.7599 136.35 20.8999L132.65 24.5999L133.84 25.7899C134.12 26.0699 134.58 26.0699 134.86 25.7899L137.77 22.8799L141.17 26.2799L142.36 25.0899C142.64 24.8099 142.64 24.3499 142.36 24.0699L139.18 20.8899L139.17 20.8999Z" fill="#808080"/>
<path d="M179.94 12.9099H178.26V17.9299H175.85V19.6199C175.85 20.0199 176.17 20.3399 176.57 20.3399H178.26V25.9899C178.26 26.3899 178.58 26.7099 178.98 26.7099H180.67V13.6299C180.67 13.2299 180.35 12.9099 179.95 12.9099H179.94Z" fill="#808080"/>
<path d="M179.94 30.46H174.17C172.83 30.46 171.75 29.38 171.75 28.04H169.34C169.34 30.71 171.5 32.87 174.16 32.87H180.65V31.18C180.65 30.78 180.33 30.46 179.93 30.46H179.94Z" fill="#808080"/>
<path d="M169.35 25.8701V28.0401H171.76V26.6001C171.76 26.2001 171.44 25.8801 171.04 25.8801H169.35V25.8701Z" fill="#808080"/>
<path d="M173.87 24.4L175.06 23.21C175.34 22.93 175.34 22.47 175.06 22.19L171.88 19.01C171.75 18.88 171.67 18.69 171.67 18.5V17.11H175.28V15.42C175.28 15.02 174.96 14.7 174.56 14.7H171.68H169.27H165.65V16.39C165.65 16.79 165.97 17.11 166.37 17.11H169.27V18.5C169.27 18.69 169.19 18.87 169.06 19.01L165.36 22.71L166.55 23.9C166.83 24.18 167.29 24.18 167.57 23.9L170.48 20.99L173.88 24.39L173.87 24.4Z" fill="#808080"/>
<path d="M98.78 18.0299H106.49C106.76 18.0299 106.98 18.2499 106.98 18.5199V24.0599C106.98 24.4599 107.3 24.7799 107.7 24.7799H109.39V18.5299C109.39 16.9299 108.09 15.6299 106.49 15.6299H98.07V17.3199C98.07 17.7199 98.39 18.0399 98.79 18.0399L98.78 18.0299Z" fill="#808080"/>
<path d="M110.91 26.6201H105.85V22.5201C105.85 22.1201 105.53 21.8 105.13 21.8H103.44V26.6201H101.99V22.5201C101.99 22.1201 101.67 21.8 101.27 21.8H99.58V26.6201H96.22V28.31C96.22 28.71 96.55 29.0301 96.94 29.0301H111.62V27.34C111.62 26.94 111.3 26.6201 110.9 26.6201H110.91Z" fill="#808080"/>
<path d="M68.36 21.0701H75.33V16.7501C75.33 15.1501 74.03 13.8501 72.43 13.8501H65.46V18.1701C65.46 19.7701 66.76 21.0701 68.36 21.0701ZM72.43 16.2501C72.7 16.2501 72.92 16.4701 72.92 16.7401V18.6601H68.35C68.08 18.6601 67.86 18.4401 67.86 18.1701V16.2501H72.43Z" fill="#808080"/>
<path d="M77.37 22.55H62.69V24.24C62.69 24.64 63.01 24.96 63.41 24.96H69.67V26.85C69.67 27.25 69.99 27.57 70.39 27.57H72.07V24.95H78.09V23.26C78.09 22.86 77.76 22.54 77.37 22.54V22.55Z" fill="#808080"/>
<path d="M76.53 32.87V31.18C76.53 30.78 76.21 30.46 75.81 30.46H70.04C68.7 30.46 67.62 29.38 67.62 28.04H65.21C65.21 30.71 67.37 32.87 70.03 32.87H76.52H76.53Z" fill="#808080"/>
<path d="M66.9 25.8701H65.21V28.0401H67.62V26.6001C67.62 26.2001 67.3 25.8801 66.9 25.8801V25.8701Z" fill="#808080"/>
<path d="M8.81999 32.87H15.31V31.18C15.31 30.78 14.99 30.46 14.59 30.46H8.81999C7.47999 30.46 6.39999 29.38 6.39999 28.04H3.98999C3.98999 30.71 6.14999 32.87 8.80999 32.87H8.81999Z" fill="#808080"/>
<path d="M5.67999 25.8701H3.98999V28.0401H6.39999V26.6001C6.39999 26.2001 6.07999 25.8801 5.67999 25.8801V25.8701Z" fill="#808080"/>
<path d="M11.22 20.3499H12.91V25.9999C12.91 26.3999 13.23 26.7199 13.63 26.7199H15.32V13.6399C15.32 13.2399 15 12.9199 14.6 12.9199H12.92V17.9399H10.51V19.6299C10.51 20.0299 10.83 20.3499 11.23 20.3499H11.22Z" fill="#808080"/>
<path d="M2.21 23.91L5.12 21L8.52 24.4L9.71 23.21C9.99 22.93 9.99 22.47 9.71 22.19L6.53 19.01C6.4 18.88 6.32 18.69 6.32 18.5V17.11H9.93V15.42C9.93 15.02 9.61 14.7 9.21 14.7H6.33H3.92H0.3V16.39C0.3 16.79 0.62 17.11 1.02 17.11H3.92V18.5C3.92 18.69 3.84 18.87 3.71 19.01L0 22.72L1.19 23.91C1.47 24.19 1.93 24.19 2.21 23.91Z" fill="#808080"/>
<path d="M29.64 32.8701V28.5501C29.64 26.9501 28.34 25.6501 26.74 25.6501H25.18V23.0301H31.68V21.3401C31.68 20.9401 31.35 20.6201 30.96 20.6201H28.68V16.7501C28.68 15.1501 27.38 13.8501 25.78 13.8501H19.29V15.5401C19.29 15.9401 19.61 16.2601 20.01 16.2601H25.79C26.06 16.2601 26.28 16.4801 26.28 16.7501V20.6201H16.29V22.3101C16.29 22.7101 16.61 23.0301 17.01 23.0301H22.79V25.6501H18.33V27.3401C18.33 27.7401 18.65 28.0601 19.05 28.0601H26.76C27.03 28.0601 27.25 28.2801 27.25 28.5501V32.1601C27.25 32.5601 27.57 32.8801 27.97 32.8801H29.66L29.64 32.8701Z" fill="#808080"/>
<path d="M126.44 24.95V23.26C126.44 22.86 126.11 22.54 125.72 22.54H111.04V24.23C111.04 24.63 111.36 24.95 111.76 24.95H115.61V26.6H113.56V28.29C113.56 28.69 113.88 29.01 114.28 29.01H121.02C121.29 29.01 121.51 29.23 121.51 29.5V32.14C121.51 32.54 121.83 32.86 122.23 32.86H123.92V29.5C123.92 28.2 123.06 27.11 121.87 26.74V24.94H126.44V24.95ZM119.46 26.6H118.01V24.95H119.46V26.6Z" fill="#808080"/>
<path d="M118.74 22.2801C121.07 22.2801 122.95 20.3901 122.95 18.0701C122.95 15.7501 121.06 13.8601 118.74 13.8601C116.42 13.8601 114.53 15.7501 114.53 18.0701C114.53 20.3901 116.42 22.2801 118.74 22.2801ZM118.74 16.2601C119.74 16.2601 120.55 17.0701 120.55 18.0701C120.55 19.0701 119.74 19.8801 118.74 19.8801C117.74 19.8801 116.93 19.0701 116.93 18.0701C116.93 17.0701 117.74 16.2601 118.74 16.2601Z" fill="#808080"/>
<path d="M46.38 12.9099H44.7V16.9699H42.29V18.6599C42.29 19.0599 42.61 19.3799 43.01 19.3799H44.7V23.5799C44.7 23.9799 45.02 24.2999 45.42 24.2999H47.11V13.6299C47.11 13.2299 46.79 12.9099 46.39 12.9099H46.38Z" fill="#808080"/>
<path d="M34.27 23.45L37.18 20.54L40.58 23.94L41.77 22.75C42.05 22.47 42.05 22.01 41.77 21.73L38.59 18.55C38.46 18.42 38.38 18.23 38.38 18.04V14.97C38.38 14.57 38.06 14.25 37.66 14.25H35.98V18.05C35.98 18.24 35.9 18.42 35.77 18.56L32.07 22.26L33.26 23.45C33.54 23.73 34 23.73 34.28 23.45H34.27Z" fill="#808080"/>
<path d="M37.98 28.6499C37.98 30.9799 39.87 32.8599 42.19 32.8599C44.51 32.8599 46.4 30.9699 46.4 28.6499C46.4 26.3299 44.51 24.4399 42.19 24.4399C39.87 24.4399 37.98 26.3299 37.98 28.6499ZM42.19 26.8399C43.19 26.8399 44 27.6499 44 28.6499C44 29.6499 43.19 30.4599 42.19 30.4599C41.19 30.4599 40.38 29.6499 40.38 28.6499C40.38 27.6499 41.19 26.8399 42.19 26.8399Z" fill="#808080"/>
<path d="M55.23 32.87H61.72V31.18C61.72 30.78 61.4 30.46 61 30.46H55.23C53.89 30.46 52.81 29.38 52.81 28.04H50.4C50.4 30.71 52.56 32.87 55.22 32.87H55.23Z" fill="#808080"/>
<path d="M50.4 25.8701V28.0401H52.81V26.6001C52.81 26.2001 52.49 25.8801 52.09 25.8801H50.4V25.8701Z" fill="#808080"/>
<path d="M60.03 24.2999H61.72V13.6299C61.72 13.2299 61.4 12.9099 61 12.9099H59.32V23.5799C59.32 23.9799 59.64 24.2999 60.04 24.2999H60.03Z" fill="#808080"/>
<path d="M56.5 19.0899C56.5 16.7599 54.61 14.8799 52.29 14.8799C49.97 14.8799 48.08 16.7699 48.08 19.0899C48.08 21.4099 49.97 23.2999 52.29 23.2999C54.61 23.2999 56.5 21.4099 56.5 19.0899ZM50.48 19.0899C50.48 18.0899 51.29 17.2799 52.29 17.2799C53.29 17.2799 54.1 18.0899 54.1 19.0899C54.1 20.0899 53.29 20.8999 52.29 20.8999C51.29 20.8999 50.48 20.0899 50.48 19.0899Z" fill="#808080"/>
<path d="M94.49 14.8201H92.81V21.8001H91.37V15.5401C91.37 15.1401 91.05 14.8201 90.65 14.8201H88.97V28.5401C88.97 28.9401 89.29 29.2601 89.69 29.2601H91.38V24.2101H92.82V28.5401C92.82 28.9401 93.14 29.2601 93.54 29.2601H95.23V15.5401C95.23 15.1401 94.91 14.8201 94.51 14.8201H94.49Z" fill="#808080"/>
<path d="M87 16.5301H84.12V15.5701C84.12 15.1701 83.8 14.8501 83.4 14.8501H81.71V16.5401H78.09V18.2301C78.09 18.6301 78.41 18.9501 78.81 18.9501H87.72V17.2601C87.72 16.8601 87.4 16.5401 87 16.5401V16.5301Z" fill="#808080"/>
<path d="M82.91 19.6599C80.58 19.6599 78.7 21.5499 78.7 23.8699C78.7 26.1899 80.59 28.0799 82.91 28.0799C85.23 28.0799 87.12 26.1899 87.12 23.8699C87.12 21.5499 85.23 19.6599 82.91 19.6599ZM82.91 25.6799C81.91 25.6799 81.1 24.8699 81.1 23.8699C81.1 22.8699 81.91 22.0599 82.91 22.0599C83.91 22.0599 84.72 22.8699 84.72 23.8699C84.72 24.8699 83.91 25.6799 82.91 25.6799Z" fill="#808080"/>
<path d="M4.35999 3.61011C4.35999 3.93011 4.50999 4.19011 4.83999 4.19011H5.60999V8.32011C5.60999 8.68011 5.91999 8.85011 6.23998 8.85011C6.55998 8.85011 6.85999 8.68011 6.85999 8.32011V0.640107C6.85999 0.280107 6.54998 0.110107 6.23998 0.110107C5.92999 0.110107 5.60999 0.280107 5.60999 0.640107V3.02011H4.83999C4.50999 3.02011 4.35999 3.29011 4.35999 3.60011V3.61011Z" fill="#808080"/>
<path d="M8.16998 9.29C8.48998 9.29 8.79998 9.12 8.79998 8.76V0.53C8.79998 0.17 8.48998 0 8.16998 0C7.84998 0 7.53998 0.17 7.53998 0.53V8.76C7.53998 9.12 7.84998 9.29 8.16998 9.29Z" fill="#808080"/>
<path d="M1.54002 4.71005C1.20002 5.11005 0.840023 5.49005 0.440023 5.89005C0.180023 6.16005 0.250023 6.53005 0.480023 6.77005C0.690023 6.98005 1.09002 7.05005 1.33002 6.80005C1.65002 6.48005 1.93002 6.18005 2.21002 5.86005C2.65002 5.37005 2.76002 5.09005 2.79002 4.86005H2.80002C2.84002 5.07005 2.94002 5.32005 3.37002 5.81005C3.66002 6.13005 3.94002 6.44005 4.09002 6.59005C4.33002 6.83005 4.70002 6.80005 4.93002 6.57005C5.15002 6.35005 5.20002 5.96005 4.96002 5.71005C4.74002 5.48005 4.39002 5.11005 4.05002 4.71005C3.60002 4.17005 3.45002 3.65005 3.45002 2.82005V1.96005H4.58002C4.91002 1.96005 5.06002 1.69005 5.06002 1.38005C5.06002 1.07005 4.91002 0.800049 4.58002 0.800049H0.900023C0.570023 0.800049 0.420023 1.07005 0.420023 1.38005C0.420023 1.69005 0.570023 1.96005 0.900023 1.96005H2.13002V2.82005C2.13002 3.65005 1.98002 4.17005 1.53002 4.71005H1.54002Z" fill="#808080"/>
<path d="M11.68 3.03991L13.05 2.24991V7.75991C13.05 8.15991 13.37 8.33991 13.73 8.33991C14.09 8.33991 14.41 8.15991 14.41 7.75991V1.23991C14.41 0.839912 14.1 0.659912 13.7 0.659912C13.45 0.659912 13.2 0.729912 12.83 0.939912L11.03 1.93991C10.7 2.11991 10.66 2.48991 10.82 2.77991C10.99 3.08991 11.33 3.24991 11.68 3.04991V3.03991Z" fill="#808080"/>
<path d="M19.64 4.4101L17.17 6.9001C16.95 7.1301 16.82 7.3201 16.82 7.5501C16.82 8.0501 17.11 8.2801 17.78 8.2801H21.83C22.16 8.2801 22.31 8.0301 22.31 7.7201C22.31 7.4101 22.16 7.1601 21.83 7.1601H18.61L20.85 4.9401C21.56 4.2301 21.96 3.4801 21.96 2.6701V2.5501C21.96 1.5201 21.21 0.600098 19.47 0.600098C18.35 0.600098 17.58 1.1201 17.11 1.8101C16.9 2.1301 17.01 2.4501 17.29 2.6501C17.57 2.8501 17.9 2.8001 18.1 2.5301C18.47 2.0501 18.87 1.8101 19.49 1.8101C20.22 1.8101 20.59 2.1501 20.59 2.6201V2.6701C20.59 3.2101 20.43 3.6201 19.64 4.4001V4.4101Z" fill="#808080"/>
<path d="M24.06 2.20004H28.97C29.3 2.20004 29.45 1.93004 29.45 1.64004C29.45 1.35004 29.3 1.07004 28.97 1.07004H27.25V0.610039C27.25 0.220039 26.92 0.0400391 26.57 0.0400391C26.22 0.0400391 25.89 0.220039 25.89 0.610039V1.07004H24.06C23.73 1.07004 23.58 1.34004 23.58 1.64004C23.58 1.94004 23.73 2.20004 24.06 2.20004Z" fill="#808080"/>
<path d="M23.82 7.87009C25.88 7.87009 27.99 7.79009 29.4 7.67009C29.72 7.64009 29.85 7.36009 29.81 7.06009C29.78 6.75009 29.63 6.52009 29.3 6.55009C28.62 6.61009 27.93 6.66009 27.24 6.68009V5.89009C28.31 5.72009 28.96 5.14009 28.96 4.26009C28.96 3.22009 28.05 2.59009 26.57 2.59009C25.09 2.59009 24.18 3.22009 24.18 4.26009C24.18 5.13009 24.82 5.72009 25.9 5.89009V6.72009C25.2 6.72009 24.51 6.72009 23.82 6.72009C23.49 6.72009 23.34 6.99009 23.34 7.28009C23.34 7.57009 23.49 7.85009 23.82 7.85009V7.87009ZM25.4 4.26009C25.4 3.88009 25.78 3.61009 26.57 3.61009C27.36 3.61009 27.74 3.88009 27.74 4.26009C27.74 4.64009 27.36 4.91009 26.57 4.91009C25.78 4.91009 25.4 4.64009 25.4 4.26009Z" fill="#808080"/>
<path d="M30.89 9.29C31.23 9.29 31.56 9.11 31.56 8.72V0.57C31.56 0.18 31.23 0 30.89 0C30.55 0 30.21 0.18 30.21 0.57V8.72C30.21 9.11 30.54 9.29 30.89 9.29Z" fill="#808080"/>
<path d="M81.51 37.1299H79.83V51.8099C79.83 52.2099 80.15 52.5299 80.55 52.5299H82.24V37.8499C82.24 37.4499 81.92 37.1299 81.52 37.1299H81.51Z" fill="#808080"/>
<path d="M73.93 44.1499C73.8 44.0199 73.72 43.8299 73.72 43.6399V39.5999C73.72 39.1999 73.4 38.8799 73 38.8799H71.32V43.6399C71.32 43.8299 71.24 44.0099 71.11 44.1499L67.41 47.8499L68.6 49.0399C68.88 49.3199 69.34 49.3199 69.62 49.0399L72.53 46.1299L75.93 49.5299L77.12 48.3399C77.4 48.0599 77.4 47.5999 77.12 47.3199L73.94 44.1399L73.93 44.1499Z" fill="#808080"/>
<path d="M65.47 36.1699H63.79V41.1899H61.38V42.8799C61.38 43.2799 61.7 43.5999 62.1 43.5999H63.79V49.2499C63.79 49.6499 64.11 49.9699 64.51 49.9699H66.2V36.8899C66.2 36.4899 65.88 36.1699 65.48 36.1699H65.47Z" fill="#808080"/>
<path d="M65.47 53.71H59.7C58.36 53.71 57.28 52.63 57.28 51.29H54.87C54.87 53.96 57.03 56.12 59.69 56.12H66.18V54.43C66.18 54.03 65.86 53.71 65.46 53.71H65.47Z" fill="#808080"/>
<path d="M54.88 49.1201V51.2901H57.29V49.8501C57.29 49.4501 56.97 49.1301 56.57 49.1301H54.88V49.1201Z" fill="#808080"/>
<path d="M59.4 47.66L60.59 46.47C60.87 46.19 60.87 45.73 60.59 45.45L57.41 42.27C57.28 42.14 57.2 41.95 57.2 41.76V40.37H60.81V38.68C60.81 38.28 60.49 37.96 60.09 37.96H51.18V39.65C51.18 40.05 51.5 40.37 51.9 40.37H54.8V41.76C54.8 41.95 54.72 42.13 54.59 42.27L50.89 45.97L52.08 47.16C52.36 47.44 52.82 47.44 53.1 47.16L56.01 44.25L59.41 47.65L59.4 47.66Z" fill="#808080"/>
<path d="M45.9 53.71H40.13C38.79 53.71 37.71 52.63 37.71 51.29H35.3C35.3 53.96 37.46 56.12 40.12 56.12H46.61V54.43C46.61 54.03 46.29 53.71 45.89 53.71H45.9Z" fill="#808080"/>
<path d="M36.99 49.1201H35.3V51.2901H37.71V49.8501C37.71 49.4501 37.39 49.1301 36.99 49.1301V49.1201Z" fill="#808080"/>
<path d="M45.9 36.1699H44.22V46.8399C44.22 47.2399 44.54 47.5599 44.94 47.5599H46.63V36.8899C46.63 36.4899 46.31 36.1699 45.91 36.1699H45.9Z" fill="#808080"/>
<path d="M41.4 42.3399C41.4 40.0099 39.51 38.1299 37.19 38.1299C34.87 38.1299 32.98 40.0199 32.98 42.3399C32.98 44.6599 34.87 46.5499 37.19 46.5499C39.51 46.5499 41.4 44.6599 41.4 42.3399ZM35.38 42.3399C35.38 41.3399 36.19 40.5299 37.19 40.5299C38.19 40.5299 39 41.3399 39 42.3399C39 43.3399 38.19 44.1499 37.19 44.1499C36.19 44.1499 35.38 43.3399 35.38 42.3399Z" fill="#808080"/>
<path d="M14.68 46.7601H8.9V45.3301C10.64 44.8101 11.91 43.2201 11.91 41.3101C11.91 38.9801 10.02 37.1001 7.7 37.1001C5.38 37.1001 3.49 38.9901 3.49 41.3101C3.49 43.2201 4.76 44.8101 6.5 45.3301V46.7601H0V48.4501C0 48.8501 0.32 49.1701 0.72 49.1701H15.4V47.4801C15.4 47.0801 15.07 46.7601 14.68 46.7601ZM5.89 41.3101C5.89 40.3101 6.7 39.5001 7.7 39.5001C8.7 39.5001 9.51 40.3101 9.51 41.3101C9.51 42.3101 8.7 43.1201 7.7 43.1201C6.7 43.1201 5.89 42.3101 5.89 41.3101Z" fill="#808080"/>
<path d="M12.64 53.7101H6.71003C5.46003 53.7101 4.44003 52.7001 4.44003 51.4401V51.0601C4.44003 50.6601 4.12003 50.3401 3.72003 50.3401H2.03003V51.4301C2.03003 54.0201 4.13003 56.1101 6.71003 56.1101H13.35V54.4201C13.35 54.0201 13.03 53.7001 12.63 53.7001L12.64 53.7101Z" fill="#808080"/>
<path d="M22.13 39.1299H17.1V40.8199C17.1 41.2199 17.42 41.5499 17.83 41.5499H22.13C22.4 41.5499 22.62 41.7699 22.62 42.0399V42.5099C22.62 42.7799 22.4 43.0099 22.12 43.0099H19.76C18.16 43.0099 16.86 44.3099 16.86 45.9099V47.3599C16.86 48.9599 18.16 50.2599 19.76 50.2599H25.03V48.5699C25.03 48.1699 24.71 47.8399 24.3 47.8399H19.76C19.49 47.8399 19.27 47.6199 19.27 47.3499V45.9099C19.27 45.6399 19.49 45.4199 19.76 45.4199H22.12C23.73 45.4199 25.03 44.1199 25.03 42.5099V42.0299C25.03 40.4299 23.73 39.1299 22.13 39.1299Z" fill="#808080"/>
<path d="M31.92 44.8099H30.23V37.8499C30.23 37.4499 29.91 37.1299 29.51 37.1299H27.83V51.8099C27.83 52.2099 28.15 52.5299 28.55 52.5299H30.24V47.2099H32.65V45.5199C32.65 45.1199 32.33 44.7999 31.93 44.7999L31.92 44.8099Z" fill="#808080"/>
</g>
<defs>
<clipPath id="clip0_1_15948">
<rect width="180.66" height="56.12" fill="white"/>
</clipPath>
</defs>
</svg>
