<svg width="600" height="68" viewBox="0 0 600 68" fill="none" xmlns="http://www.w3.org/2000/svg">
<g clip-path="url(#clip0_2_16030)">
<path d="M332.555 34.9166H352.268V31.1896C352.268 30.3093 351.552 29.5935 350.672 29.5935H344.296V27.4627C344.296 26.5824 343.58 25.8666 342.7 25.8666H338.973V29.5935H330.968V33.3205C330.968 34.2008 331.683 34.9166 332.564 34.9166H332.555Z" fill="white"/>
<path d="M363.984 34.8344H360.257V27.4545C360.257 26.5742 359.541 25.8584 358.661 25.8584H354.934V53.5432C354.934 54.1356 354.456 54.6128 353.864 54.6128H344.181V51.4946C347.282 50.4004 349.504 47.4468 349.504 43.9667C349.504 39.5568 345.925 35.978 341.515 35.978C337.105 35.978 333.526 39.5568 333.526 43.9667C333.526 47.4468 335.756 50.3922 338.849 51.4946V54.6128H330.861V58.3398C330.861 59.2201 331.576 59.9358 332.457 59.9358H353.889C357.402 59.9358 360.257 57.0892 360.257 53.5679V40.1574H365.58V36.4305C365.58 35.5501 364.864 34.8344 363.984 34.8344ZM341.515 41.3093C342.979 41.3093 344.181 42.5022 344.181 43.9749C344.181 45.4476 342.988 46.6405 341.515 46.6405C340.042 46.6405 338.849 45.4476 338.849 43.9749C338.849 42.5022 340.042 41.3093 341.515 41.3093Z" fill="white"/>
<path d="M324.616 25.8584H320.889V58.3398C320.889 59.2201 321.605 59.9358 322.485 59.9358H326.212V27.4545C326.212 26.5742 325.496 25.8584 324.616 25.8584Z" fill="white"/>
<path d="M307.841 41.3833C307.544 41.0872 307.372 40.684 307.372 40.2562V31.3214C307.372 30.4328 306.656 29.717 305.767 29.717H302.04V40.248C302.04 40.6676 301.876 41.0707 301.571 41.3751L293.377 49.5695L296.01 52.2022C296.635 52.8275 297.647 52.8275 298.272 52.2022L304.698 45.7767L312.226 53.3047L314.858 50.672C315.484 50.0467 315.484 49.0347 314.858 48.4095L307.824 41.3751L307.841 41.3833Z" fill="white"/>
<path d="M398.028 23.7275H394.301V34.8426H388.978V38.5696C388.978 39.4499 389.694 40.1657 390.574 40.1657H394.301V52.6629C394.301 53.5432 395.017 54.259 395.897 54.259H399.624V25.3236C399.624 24.4433 398.908 23.7275 398.028 23.7275Z" fill="white"/>
<path d="M379.928 57.1796V53.9875C379.928 53.1071 379.212 52.3914 378.332 52.3914H374.605V57.1879C374.605 63.0868 379.385 67.8669 385.276 67.8669H399.632V64.1399C399.632 63.2596 398.917 62.5438 398.036 62.5438H385.284C382.33 62.5438 379.936 60.1497 379.936 57.1961L379.928 57.1796Z" fill="white"/>
<path d="M384.609 49.1417L387.242 46.5089C387.867 45.8837 387.867 44.8717 387.242 44.2464L380.208 37.2121C379.912 36.9159 379.739 36.5128 379.739 36.085V33.0162H387.711V29.2892C387.711 28.4089 386.995 27.6931 386.115 27.6931H379.739H374.416H366.411V31.4201C366.411 32.3004 367.126 33.0162 368.007 33.0162H374.416V36.085C374.416 36.5045 374.251 36.9077 373.947 37.2121L365.753 45.4065L368.385 48.0392C369.011 48.6645 370.022 48.6645 370.648 48.0392L377.073 41.6137L384.601 49.1417H384.609Z" fill="white"/>
<path d="M218.492 35.0483H235.539C236.14 35.0483 236.617 35.5337 236.617 36.1261V48.3765C236.617 49.2569 237.333 49.9726 238.213 49.9726H241.94V36.1426C241.94 32.5966 239.069 29.717 235.514 29.717H216.888V33.444C216.888 34.3243 217.604 35.0401 218.484 35.0401L218.492 35.0483Z" fill="white"/>
<path d="M245.338 54.0451H234.157V44.9787C234.157 44.0983 233.441 43.3826 232.561 43.3826H228.834V54.0451H225.633V44.9787C225.633 44.0983 224.918 43.3826 224.037 43.3826H220.31V54.0451H212.873V57.7721C212.873 58.6524 213.597 59.3682 214.477 59.3682H246.959V55.6412C246.959 54.7609 246.243 54.0451 245.363 54.0451H245.338Z" fill="white"/>
<path d="M151.201 41.7699H166.611V32.2098C166.611 28.6639 163.74 25.7843 160.185 25.7843H144.776V35.3444C144.776 38.8904 147.655 41.7699 151.201 41.7699ZM160.21 31.1156C160.811 31.1156 161.288 31.601 161.288 32.1934V36.4386H151.185C150.584 36.4386 150.107 35.9532 150.107 35.3609V31.1156H160.21Z" fill="white"/>
<path d="M171.136 45.0281H138.655V48.755C138.655 49.6354 139.37 50.3511 140.251 50.3511H154.097V54.5306C154.097 55.4191 154.813 56.1349 155.701 56.1349H159.428V50.3511H172.74V46.6242C172.74 45.7438 172.024 45.0281 171.136 45.0281Z" fill="white"/>
<path d="M149.58 57.1796V53.9875C149.58 53.1071 148.865 52.3914 147.984 52.3914H144.257V57.1879C144.257 63.0868 149.037 67.8669 154.928 67.8669H169.285V64.1399C169.285 63.2596 168.569 62.5438 167.689 62.5438H154.936C151.983 62.5438 149.589 60.1497 149.589 57.1961L149.58 57.1796Z" fill="white"/>
<path d="M32.2674 23.7275H28.5405V34.8426H23.2174V38.5696C23.2174 39.4499 23.9332 40.1657 24.8135 40.1657H28.5405V52.6629C28.5405 53.5432 29.2562 54.259 30.1366 54.259H33.8635V25.3236C33.8635 24.4433 33.1477 23.7275 32.2674 23.7275Z" fill="white"/>
<path d="M14.1674 57.1796V53.9875C14.1674 53.1071 13.4516 52.3914 12.5713 52.3914H8.84436V57.1879C8.84436 63.0868 13.6244 67.8669 19.5152 67.8669H33.8718V64.1399C33.8718 63.2596 33.156 62.5438 32.2757 62.5438H19.5234C16.5698 62.5438 14.1756 60.1497 14.1756 57.1961L14.1674 57.1796Z" fill="white"/>
<path d="M18.8487 49.1417L21.4815 46.5089C22.1067 45.8837 22.1067 44.8717 21.4815 44.2464L14.4471 37.2121C14.1509 36.9159 13.9782 36.5128 13.9782 36.085V33.0162H21.9504V29.2892C21.9504 28.4089 21.2346 27.6931 20.3543 27.6931H13.9782H8.65511H0.649956V31.4201C0.649956 32.3004 1.36573 33.0162 2.24605 33.0162H8.65511V36.085C8.65511 36.5045 8.49057 36.9077 8.18616 37.2121L0 45.4065L2.63273 48.0392C3.25801 48.6645 4.26996 48.6645 4.89524 48.0392L11.3208 41.6137L18.8487 49.1417Z" fill="white"/>
<path d="M70.0883 46.0893V42.3624C70.0883 41.482 69.3725 40.7663 68.484 40.7663H63.4324V32.2181C63.4324 28.6722 60.5611 25.7926 57.0069 25.7926H42.6503V29.5196C42.6503 30.3999 43.366 31.1157 44.2464 31.1157H57.0233C57.6239 31.1157 58.1011 31.6011 58.1011 32.1934V40.758H35.9944V44.485C35.9944 45.3653 36.7102 46.0811 37.5905 46.0811H50.3675V51.8649H40.5029V55.5919C40.5029 56.4722 41.2187 57.188 42.099 57.188H59.146C59.7466 57.188 60.2238 57.6734 60.2238 58.2657V66.238C60.2238 67.1183 60.9395 67.8341 61.8199 67.8341H65.5468V58.274C65.5468 54.728 62.6755 51.8484 59.1213 51.8484H55.6823V46.0647H70.0554L70.0883 46.0893Z" fill="white"/>
<path d="M269.575 54.292V50.3511H279.687V46.6242C279.687 45.7438 278.971 45.0281 278.082 45.0281H245.601V48.755C245.601 49.6354 246.317 50.3511 247.197 50.3511H255.712V54.0123H251.179V57.7392C251.179 58.6196 251.895 59.3353 252.775 59.3353H267.683C268.284 59.3353 268.761 59.8207 268.761 60.4131V66.2545C268.761 67.1348 269.477 67.8506 270.357 67.8506H274.084V60.4296C274.084 57.5418 272.175 55.0983 269.551 54.292H269.575ZM261.044 50.3511H264.252V54.0123H261.044V50.3511Z" fill="white"/>
<path d="M262.648 44.4356C267.798 44.4356 271.97 40.2644 271.97 35.1141C271.97 29.9638 267.798 25.7926 262.648 25.7926C257.498 25.7926 253.327 29.9638 253.327 35.1141C253.327 40.2644 257.498 44.4356 262.648 44.4356ZM262.648 31.1157C264.853 31.1157 266.647 32.9092 266.647 35.1141C266.647 37.319 264.853 39.1126 262.648 39.1126C260.443 39.1126 258.65 37.319 258.65 35.1141C258.65 32.9092 260.443 31.1157 262.648 31.1157Z" fill="white"/>
<path d="M102.603 23.7275H98.8756V32.7034H93.5526V36.4304C93.5526 37.3107 94.2683 38.0265 95.1486 38.0265H98.8756V47.3151C98.8756 48.1954 99.5914 48.9112 100.472 48.9112H104.199V25.3153C104.199 24.435 103.483 23.7192 102.603 23.7192V23.7275Z" fill="white"/>
<path d="M92.3925 45.4804C93.0178 44.8551 93.0178 43.8432 92.3925 43.2179L85.3582 36.1836C85.062 35.8874 84.8892 35.4843 84.8892 35.0564V28.2607C84.8892 27.3721 84.1734 26.6564 83.2849 26.6564H79.5579V35.0564C79.5579 35.476 79.3934 35.8792 79.089 36.1836L70.8946 44.378L73.5273 47.0107C74.1526 47.636 75.1646 47.636 75.7898 47.0107L82.2153 40.5852L89.7433 48.1131L92.3761 45.4804H92.3925Z" fill="white"/>
<path d="M93.3386 49.2075C88.1883 49.2075 84.0171 53.3788 84.0171 58.529C84.0171 63.6793 88.1883 67.8506 93.3386 67.8506C98.4889 67.8506 102.66 63.6793 102.66 58.529C102.66 53.3788 98.4889 49.2075 93.3386 49.2075ZM93.3386 62.5275C91.1337 62.5275 89.3401 60.734 89.3401 58.529C89.3401 56.3241 91.1337 54.5306 93.3386 54.5306C95.5435 54.5306 97.3371 56.3241 97.3371 58.529C97.3371 60.734 95.5435 62.5275 93.3386 62.5275Z" fill="white"/>
<path d="M116.819 57.1796V53.9875C116.819 53.1071 116.104 52.3914 115.223 52.3914H111.496V57.1879C111.496 63.0868 116.276 67.8669 122.167 67.8669H136.524V64.1399C136.524 63.2596 135.808 62.5438 134.928 62.5438H122.175C119.222 62.5438 116.828 60.1497 116.828 57.1961L116.819 57.1796Z" fill="white"/>
<path d="M134.928 23.7275H131.201V47.3234C131.201 48.2037 131.916 48.9195 132.797 48.9195H136.524V25.3236C136.524 24.4433 135.808 23.7275 134.928 23.7275Z" fill="white"/>
<path d="M124.981 37.3849C124.981 32.2346 120.81 28.0634 115.659 28.0634C110.509 28.0634 106.338 32.2346 106.338 37.3849C106.338 42.5352 110.509 46.7064 115.659 46.7064C120.81 46.7064 124.981 42.5352 124.981 37.3849ZM111.661 37.3849C111.661 35.18 113.454 33.3864 115.659 33.3864C117.864 33.3864 119.658 35.18 119.658 37.3849C119.658 39.5898 117.864 41.3833 115.659 41.3833C113.454 41.3833 111.661 39.5898 111.661 37.3849Z" fill="white"/>
<path d="M209.014 27.9316H205.287V43.3743H202.095V29.5277C202.095 28.6474 201.379 27.9316 200.499 27.9316H196.772V58.2739C196.772 59.1542 197.488 59.87 198.368 59.87H202.095V48.6973H205.287V58.2739C205.287 59.1542 206.003 59.87 206.884 59.87H210.61V29.5277C210.61 28.6474 209.895 27.9316 209.014 27.9316Z" fill="white"/>
<path d="M192.445 31.7244H186.068V29.5935C186.068 28.7132 185.353 27.9974 184.472 27.9974H180.745V31.7244H172.74V35.4514C172.74 36.3317 173.456 37.0475 174.336 37.0475H194.049V33.3205C194.049 32.4402 193.333 31.7244 192.453 31.7244H192.445Z" fill="white"/>
<path d="M183.395 38.6519C178.244 38.6519 174.073 42.8231 174.073 47.9734C174.073 53.1237 178.244 57.2949 183.395 57.2949C188.545 57.2949 192.716 53.1237 192.716 47.9734C192.716 42.8231 188.545 38.6519 183.395 38.6519ZM183.395 51.9718C181.19 51.9718 179.396 50.1783 179.396 47.9734C179.396 45.7685 181.19 43.9749 183.395 43.9749C185.599 43.9749 187.393 45.7685 187.393 47.9734C187.393 50.1783 185.599 51.9718 183.395 51.9718Z" fill="white"/>
<path d="M5.66859 3.19214V4.59901C5.66859 5.94828 5.90718 6.80392 6.63941 7.68424C7.19064 8.34243 7.76655 8.93479 8.12855 9.31325C8.50701 9.72461 8.44119 10.3499 8.07919 10.7201C7.71719 11.0903 7.10837 11.1562 6.70523 10.753C6.46664 10.5062 5.99768 10.0043 5.52873 9.48602C4.82118 8.68797 4.66486 8.29306 4.59082 7.93929H4.57436C4.525 8.31774 4.33577 8.77024 3.62 9.56829C3.15104 10.0866 2.69854 10.572 2.18022 11.0903C1.77708 11.4853 1.14358 11.3865 0.789807 11.041C0.411351 10.6461 0.304397 10.0372 0.723988 9.6012C1.36572 8.94302 1.95808 8.3342 2.50931 7.67601C3.23331 6.79569 3.48013 5.94006 3.48013 4.59078V3.18391H1.47267C0.937898 3.18391 0.691079 2.74787 0.691079 2.246C0.691079 1.74414 0.929671 1.29164 1.47267 1.29164H7.50328C8.03805 1.29164 8.28487 1.72768 8.28487 2.246C8.28487 2.76432 8.04628 3.18391 7.50328 3.18391H5.66859V3.19214ZM9.13228 6.83683H7.88173C7.34696 6.83683 7.10014 6.40078 7.10014 5.88247C7.10014 5.36415 7.33873 4.9281 7.88173 4.9281H9.13228V1.03659C9.13228 0.444225 9.63415 0.172725 10.1525 0.172725C10.6708 0.172725 11.1562 0.452453 11.1562 1.03659V13.5503C11.1562 14.1427 10.6543 14.4142 10.1525 14.4142C9.6506 14.4142 9.13228 14.1344 9.13228 13.5503V6.82038V6.83683ZM12.2916 0.872044C12.2916 0.279679 12.7934 0.00817871 13.3117 0.00817871C13.8301 0.00817871 14.3319 0.287907 14.3319 0.872044V14.2908C14.3319 14.8831 13.8301 15.1546 13.3117 15.1546C12.7934 15.1546 12.2916 14.8749 12.2916 14.2908V0.863817V0.872044Z" fill="white"/>
<path d="M23.4889 2.03217V12.6618C23.4889 13.32 22.9706 13.6162 22.3782 13.6162C21.7859 13.6162 21.2676 13.32 21.2676 12.6618V3.67763L19.0297 4.96109C18.4538 5.29018 17.9026 5.02691 17.6229 4.52504C17.3596 4.05609 17.4336 3.44727 17.9684 3.15108L20.8973 1.52208C21.5062 1.19299 21.9011 1.06958 22.3207 1.06958C22.9788 1.06958 23.4807 1.36576 23.4807 2.02395L23.4889 2.03217Z" fill="white"/>
<path d="M35.7805 4.16304V4.35227C35.7805 5.66863 35.1387 6.88627 33.9787 8.04632L30.3175 11.6663H35.5748C36.1096 11.6663 36.3564 12.0859 36.3564 12.5878C36.3564 13.0897 36.1096 13.5092 35.5748 13.5092H28.9683C27.874 13.5092 27.4051 13.1308 27.4051 12.3163C27.4051 11.9543 27.6108 11.6416 27.981 11.255L32.0041 7.19891C33.2876 5.91545 33.5509 5.25727 33.5509 4.37695V4.28645C33.5509 3.52131 32.9585 2.97008 31.7656 2.97008C30.7454 2.97008 30.1036 3.36499 29.4948 4.14658C29.1657 4.58263 28.631 4.6649 28.1785 4.33581C27.726 4.00672 27.5367 3.4884 27.8823 2.96185C28.6474 1.83472 29.9062 0.987305 31.7326 0.987305C34.5546 0.987305 35.7887 2.47644 35.7887 4.16304H35.7805Z" fill="white"/>
<path d="M38.7999 12.8264C38.2651 12.8264 38.0183 12.3904 38.0183 11.8885C38.0183 11.3866 38.2569 10.967 38.7999 10.967C39.927 10.967 41.0542 10.967 42.1978 10.9506V9.6013C40.4289 9.32157 39.3923 8.3672 39.3923 6.95211C39.3923 5.24906 40.8814 4.22888 43.292 4.22888C45.7026 4.22888 47.1917 5.24906 47.1917 6.95211C47.1917 8.37543 46.1304 9.3298 44.3862 9.6013V10.8848C45.5134 10.8518 46.6405 10.7778 47.7512 10.6791C48.286 10.6297 48.5328 11.0082 48.5822 11.51C48.6315 11.9954 48.4258 12.4479 47.9075 12.4973C45.6039 12.703 42.1649 12.8264 38.8081 12.8264H38.7999ZM42.1813 1.72778V0.979096C42.1813 0.337368 42.7161 0.041185 43.292 0.041185C43.8679 0.041185 44.4027 0.337368 44.4027 0.979096V1.72778H47.2082C47.743 1.72778 47.9898 2.16383 47.9898 2.66569C47.9898 3.16756 47.743 3.58715 47.2082 3.58715H39.1948C38.66 3.58715 38.4132 3.1511 38.4132 2.66569C38.4132 2.18028 38.6518 1.72778 39.1948 1.72778H42.1731H42.1813ZM45.2007 6.94388C45.2007 6.31861 44.5755 5.88256 43.292 5.88256C42.0085 5.88256 41.3833 6.31861 41.3833 6.94388C41.3833 7.56916 42.0085 8.0052 43.292 8.0052C44.5755 8.0052 45.2007 7.56916 45.2007 6.94388ZM49.2239 0.929733C49.2239 0.288004 49.7587 -0.00817871 50.3346 -0.00817871C50.9105 -0.00817871 51.4288 0.288004 51.4288 0.929733V14.2086C51.4288 14.8503 50.894 15.1465 50.3346 15.1465C49.7751 15.1465 49.2239 14.8503 49.2239 14.2086V0.93796V0.929733Z" fill="white"/>
<path d="M598.404 25.8584H594.677V58.3398C594.677 59.2201 595.393 59.9358 596.273 59.9358H600V27.4545C600 26.5742 599.284 25.8584 598.404 25.8584Z" fill="#FFD549"/>
<path d="M581.628 41.3833C581.332 41.0872 581.159 40.684 581.159 40.2562V31.3214C581.159 30.4328 580.444 29.717 579.555 29.717H575.828V40.248C575.828 40.6676 575.664 41.0707 575.359 41.3751L567.165 49.5695L569.798 52.2022C570.423 52.8275 571.435 52.8275 572.06 52.2022L578.486 45.7767L586.014 53.3047L588.646 50.672C589.272 50.0467 589.272 49.0347 588.646 48.4095L581.612 41.3751L581.628 41.3833Z" fill="#FFD549"/>
<path d="M562.92 23.7275H559.193V34.8426H553.87V38.5696C553.87 39.4499 554.585 40.1657 555.466 40.1657H559.193V52.6629C559.193 53.5432 559.908 54.259 560.789 54.259H564.516V25.3236C564.516 24.4433 563.8 23.7275 562.92 23.7275Z" fill="#FFD549"/>
<path d="M544.82 57.1796V53.9875C544.82 53.1071 544.104 52.3914 543.223 52.3914H539.496V57.1879C539.496 63.0868 544.277 67.8669 550.167 67.8669H564.524V64.1399C564.524 63.2596 563.808 62.5438 562.928 62.5438H550.175C547.222 62.5438 544.828 60.1497 544.828 57.1961L544.82 57.1796Z" fill="#FFD549"/>
<path d="M549.501 49.1417L552.134 46.5089C552.759 45.8837 552.759 44.8717 552.134 44.2464L545.099 37.2121C544.803 36.9159 544.63 36.5128 544.63 36.085V33.0162H552.603V29.2892C552.603 28.4089 551.887 27.6931 551.006 27.6931H544.63H539.307H531.302V31.4201C531.302 32.3004 532.018 33.0162 532.898 33.0162H539.307V36.085C539.307 36.5045 539.143 36.9077 538.838 37.2121L530.644 45.4065L533.277 48.0392C533.902 48.6645 534.914 48.6645 535.539 48.0392L541.965 41.6137L549.493 49.1417H549.501Z" fill="#FFD549"/>
<path d="M501.511 57.1796V53.9875C501.511 53.1071 500.795 52.3914 499.915 52.3914H496.188V57.1879C496.188 63.0868 500.968 67.8669 506.859 67.8669H521.215V64.1399C521.215 63.2596 520.5 62.5438 519.619 62.5438H506.867C503.913 62.5438 501.519 60.1497 501.519 57.1961L501.511 57.1796Z" fill="#FFD549"/>
<path d="M519.619 23.7275H515.892V47.3234C515.892 48.2037 516.608 48.9195 517.488 48.9195H521.215V25.3236C521.215 24.4433 520.5 23.7275 519.619 23.7275Z" fill="#FFD549"/>
<path d="M509.673 37.3849C509.673 32.2346 505.501 28.0634 500.351 28.0634C495.201 28.0634 491.03 32.2346 491.03 37.3849C491.03 42.5352 495.201 46.7064 500.351 46.7064C505.501 46.7064 509.673 42.5352 509.673 37.3849ZM496.353 37.3849C496.353 35.18 498.146 33.3864 500.351 33.3864C502.556 33.3864 504.349 35.18 504.349 37.3849C504.349 39.5898 502.556 41.3833 500.351 41.3833C498.146 41.3833 496.353 39.5898 496.353 37.3849Z" fill="#FFD549"/>
<path d="M450.576 47.1671H437.799V44.049C441.649 42.9054 444.455 39.343 444.455 35.1141C444.455 29.9638 440.284 25.7926 435.133 25.7926C429.983 25.7926 425.812 29.9638 425.812 35.1141C425.812 39.3347 428.617 42.8971 432.468 44.049V47.1671H418.095V50.8941C418.095 51.7744 418.81 52.4902 419.691 52.4902H452.172V48.7632C452.172 47.8829 451.456 47.1671 450.568 47.1671H450.576ZM431.143 35.1141C431.143 32.9092 432.937 31.1157 435.142 31.1157C437.346 31.1157 439.14 32.9092 439.14 35.1141C439.14 37.319 437.346 39.1126 435.142 39.1126C432.937 39.1126 431.143 37.319 431.143 35.1141Z" fill="#FFD549"/>
<path d="M446.067 62.5275H432.953C430.18 62.5275 427.943 60.2814 427.943 57.5171V56.6779C427.943 55.7976 427.227 55.0818 426.347 55.0818H422.62V57.5006C422.62 63.2186 427.26 67.8588 432.978 67.8588H447.672V64.1318C447.672 63.2515 446.956 62.5357 446.076 62.5357L446.067 62.5275Z" fill="#FFD549"/>
<path d="M467.039 30.2765H455.907V34.0199C455.907 34.9085 456.623 35.6242 457.512 35.6242H467.03C467.623 35.6242 468.108 36.1096 468.108 36.702V37.7386C468.108 38.3475 467.615 38.8329 467.014 38.8329H461.798C458.252 38.8329 455.372 41.7042 455.372 45.2584V48.467C455.372 52.013 458.244 54.8925 461.798 54.8925H473.464V51.1491C473.464 50.2606 472.748 49.5448 471.86 49.5448H461.806C461.214 49.5448 460.728 49.0594 460.728 48.467V45.2748C460.728 44.6825 461.214 44.1971 461.806 44.1971H467.03C470.585 44.1971 473.464 41.3175 473.464 37.7633V36.702C473.464 33.156 470.593 30.2765 467.039 30.2765Z" fill="#FFD549"/>
<path d="M488.709 42.8477H484.982V27.4627C484.982 26.5824 484.267 25.8666 483.386 25.8666H479.659V58.3479C479.659 59.2282 480.375 59.944 481.255 59.944H484.982V48.179H490.306V44.452C490.306 43.5717 489.59 42.8559 488.709 42.8559V42.8477Z" fill="#FFD549"/>
</g>
<defs>
<clipPath id="clip0_2_16030">
<rect width="600" height="67.8587" fill="white"/>
</clipPath>
</defs>
</svg>
