<svg width="220" height="27" viewBox="0 0 220 27" fill="none" xmlns="http://www.w3.org/2000/svg">
<path d="M38.87 0.519961L38.83 0.459961C35.94 1.91996 32.99 3.40996 30.33 5.39996C28.45 6.80996 26.62 8.43996 25.62 11.09V11.07C24.33 14.09 23.56 17.05 22.75 17.68C22.75 17.68 24.85 15.81 25.24 15.48C27.71 13.38 30.33 11.41 33.1 9.57996C35.86 7.73996 38.7 6.09996 41.6 4.63996L38.87 0.519961Z" fill="url(#paint0_linear_7_15)"/>
<path d="M42.6 6.15009L42.56 6.09009C39.67 7.55009 36.83 9.20009 34.07 11.0301C31.3 12.8701 28.69 14.8401 26.22 16.9401L28.99 21.1201C31.46 19.0301 34.08 17.0501 36.85 15.2201C39.61 13.3801 42.45 11.7401 45.34 10.2801L42.61 6.16009" fill="#14AD85"/>
<path d="M46.13 11.4699L46.09 11.4099C43.2 12.8699 40.36 14.5199 37.6 16.3499C34.83 18.1799 32.22 20.1599 29.74 22.2599L32.51 26.4399C34.98 24.3399 37.6 22.3699 40.37 20.5299C43.13 18.6899 45.97 17.0499 48.86 15.5899L46.13 11.4699Z" fill="#057DC1"/>
<path d="M2.74 15.2901L2.78 15.3501C5.67 13.8901 8.51 12.2401 11.27 10.4101C14.04 8.58008 16.65 6.60008 19.13 4.51008L16.36 0.330078C13.89 2.42008 11.27 4.40008 8.5 6.23008C5.73 8.07008 2.9 9.71008 0 11.1701L2.73 15.2901" fill="#E83F44"/>
<path d="M6.39998 20.8001L6.43999 20.8501C9.32999 19.3901 12.17 17.7401 14.94 15.9101C17.7 14.0801 20.32 12.1001 22.79 10.0101L20.02 5.83008C17.55 7.92008 14.93 9.90008 12.17 11.7301C9.39998 13.5701 6.56998 15.2101 3.66998 16.6701L6.39998 20.7901" fill="#F08029"/>
<path d="M26.1 9.07007C26.1 9.07007 24 10.9401 23.61 11.2701C21.14 13.3701 18.52 15.3401 15.76 17.1801C12.99 19.0201 10.16 20.6601 7.26001 22.1201L9.99002 26.2401L10.03 26.2901C12.92 24.8301 15.85 23.3101 18.53 21.3501C20.41 19.9801 22.22 18.3101 23.24 15.6601V15.6801C24.53 12.6601 25.3 9.69007 26.11 9.07007H26.1Z" fill="url(#paint1_linear_7_15)"/>
<path d="M103.3 12.1C103.89 12.07 104.46 12.04 105.01 12C105.55 11.96 106.06 11.92 106.51 11.88V13.85C105.51 13.94 104.12 14.04 102.36 14.12C100.6 14.2 99.19 14.24 98.13 14.24H94.97V12.28H96.96L96.92 6.39996H95.35V4.44996H104.89V6.39996H103.36L103.32 12.11L103.3 12.1ZM99.16 6.38996L99.2 12.27C99.48 12.25 99.77 12.24 100.08 12.24C100.39 12.24 100.7 12.22 101.02 12.21L101.08 6.38996H99.15H99.16ZM108.09 22.16C107.2 23 106.11 23.42 104.81 23.42C103.51 23.42 102.44 23 101.54 22.16C100.65 21.32 100.2 20.3 100.2 19.11C100.2 17.92 100.65 16.89 101.54 16.05C102.44 15.21 103.53 14.79 104.81 14.79C106.09 14.79 107.2 15.21 108.09 16.05C108.98 16.89 109.43 17.91 109.43 19.11C109.43 20.31 108.98 21.31 108.09 22.16ZM106.34 20.74C106.79 20.29 107.02 19.75 107.02 19.11C107.02 18.47 106.8 17.92 106.37 17.47C105.94 17.02 105.41 16.8 104.8 16.8C104.19 16.8 103.67 17.02 103.22 17.47C102.77 17.92 102.55 18.47 102.55 19.11C102.55 19.75 102.77 20.29 103.19 20.74C103.62 21.19 104.14 21.41 104.75 21.41C105.36 21.41 105.89 21.18 106.34 20.74ZM107.44 3.70996H109.84V14.99H107.44V11.31H104.52V9.46996H107.44V8.59996H104.54V6.75996H107.44V3.71996V3.70996Z" fill="#182932"/>
<path d="M111.65 12.76C112.29 12.29 112.85 11.78 113.35 11.22C113.85 10.66 114.22 10.1 114.49 9.53001C114.71 9.05001 114.88 8.48001 115.02 7.82001C115.15 7.16001 115.22 6.52001 115.22 5.89001V4.38001H117.66V5.89001C117.66 6.48001 117.72 7.09001 117.84 7.70001C117.97 8.31001 118.12 8.84001 118.32 9.28001C118.56 9.79001 118.89 10.29 119.33 10.79C119.77 11.29 120.27 11.75 120.84 12.18L119.6 13.77C119.3 13.56 118.95 13.29 118.57 12.95C118.18 12.61 117.86 12.29 117.59 11.99C117.24 11.59 116.99 11.27 116.81 11.04C116.64 10.81 116.54 10.65 116.51 10.58C116.47 10.69 116.34 10.9 116.13 11.2C115.92 11.5 115.66 11.83 115.37 12.17C115.05 12.56 114.72 12.92 114.38 13.24C114.03 13.57 113.62 13.9 113.14 14.21L111.65 12.74V12.76ZM125.71 22.16C124.82 23 123.73 23.42 122.43 23.42C121.13 23.42 120.06 23 119.16 22.16C118.26 21.32 117.82 20.3 117.82 19.11C117.82 17.92 118.27 16.89 119.16 16.05C120.06 15.21 121.15 14.79 122.43 14.79C123.71 14.79 124.82 15.21 125.71 16.05C126.6 16.89 127.05 17.91 127.05 19.11C127.05 20.31 126.6 21.31 125.71 22.16ZM123.99 17.47C123.56 17.02 123.03 16.8 122.43 16.8C121.83 16.8 121.3 17.02 120.85 17.47C120.4 17.92 120.18 18.47 120.18 19.11C120.18 19.75 120.39 20.29 120.82 20.74C121.25 21.19 121.77 21.41 122.37 21.41C122.97 21.41 123.51 21.18 123.97 20.74C124.42 20.29 124.65 19.75 124.65 19.11C124.65 18.47 124.43 17.92 124 17.47H123.99ZM125.2 3.76001H127.56V14.65H125.2V10.06H123.44V14.12H121.16V3.99001H123.44V7.97001H125.2V3.77001V3.76001Z" fill="#182932"/>
<path d="M133.9 10.5499H136.15V15.6799H138.16V10.5499H140.42V15.6799H146.84V17.6899H129.76V15.6799H133.9V10.5499ZM141.43 14.1499C141.6 12.9799 141.72 11.7299 141.82 10.3999C141.92 9.06994 141.95 7.83994 141.93 6.69994H132.78V4.68994H144.35C144.35 6.10994 144.3 7.69994 144.2 9.46994C144.1 11.2399 143.95 12.7899 143.78 14.1499H141.44H141.43Z" fill="#182932"/>
<path d="M148.35 14.4601V12.5201H165.65V14.4601H160.67V16.4301H162.43V22.7201H160.01V18.3901H151.34V16.4201H153.59V14.4501H148.35V14.4601ZM160.32 4.40012C161.24 5.25012 161.7 6.28012 161.7 7.48012C161.7 8.68012 161.24 9.71012 160.31 10.5601C159.38 11.4101 158.27 11.8401 156.96 11.8401C155.65 11.8401 154.53 11.4101 153.6 10.5601C152.68 9.70012 152.22 8.68012 152.22 7.48012C152.22 6.28012 152.68 5.25012 153.6 4.40012C154.52 3.54012 155.64 3.12012 156.97 3.12012C158.3 3.12012 159.41 3.55012 160.33 4.40012H160.32ZM155.27 9.20012C155.75 9.67012 156.31 9.90012 156.96 9.90012C157.61 9.90012 158.17 9.67012 158.64 9.20012C159.12 8.73012 159.35 8.16012 159.35 7.48012C159.35 6.80012 159.11 6.25012 158.64 5.78012C158.17 5.31012 157.61 5.07012 156.96 5.07012C156.31 5.07012 155.75 5.30012 155.27 5.78012C154.79 6.25012 154.56 6.81012 154.56 7.48012C154.56 8.15012 154.8 8.73012 155.27 9.20012ZM156 16.4201H158.23V14.4501H156V16.4201Z" fill="#182932"/>
<path d="M168.24 6.50996V4.53996H177.41V6.50996H174.1V7.22996C174.1 7.81996 174.21 8.40996 174.43 8.98996C174.65 9.56996 174.92 10.06 175.24 10.46C175.58 10.87 176.03 11.29 176.58 11.69C177.13 12.1 177.69 12.46 178.26 12.78L177.02 14.44C176.48 14.19 176.02 13.94 175.63 13.69C175.25 13.43 174.87 13.15 174.51 12.83C174.17 12.51 173.85 12.2 173.56 11.89C173.27 11.58 173.05 11.32 172.92 11.09C172.83 11.29 172.69 11.52 172.48 11.79C172.27 12.07 171.96 12.41 171.55 12.82C171.13 13.26 170.72 13.64 170.33 13.95C169.95 14.26 169.47 14.58 168.9 14.91L167.37 13.32C167.94 12.99 168.5 12.57 169.08 12.08C169.65 11.58 170.12 11.07 170.5 10.55C170.79 10.12 171.04 9.60996 171.25 9.01996C171.45 8.42996 171.56 7.84996 171.56 7.27996V6.51996H168.25L168.24 6.50996ZM174.43 16.4V20.4H182.91V22.41H172V16.41H174.42L174.43 16.4ZM180.08 3.70996H182.48V17.35H180.08V3.71996V3.70996Z" fill="#182932"/>
<path d="M184.98 12.8501H202.33V14.7401H184.98V12.8501ZM199.61 4.55012V6.41012H197.27C197.54 6.67012 197.74 6.97012 197.88 7.31012C198.03 7.65012 198.1 8.01012 198.1 8.40012C198.1 9.44012 197.66 10.3201 196.78 11.0501C195.9 11.7801 194.84 12.1501 193.61 12.1501C192.38 12.1501 191.33 11.7801 190.45 11.0401C189.57 10.3001 189.14 9.42012 189.14 8.40012C189.14 8.01012 189.21 7.65012 189.36 7.31012C189.5 6.97012 189.69 6.67012 189.92 6.41012H187.6V4.55012H192.32V2.87012H194.91V4.55012H199.61ZM197.04 16.7001C197.95 17.4701 198.4 18.4101 198.4 19.5001C198.4 20.5901 197.95 21.5001 197.04 22.2701C196.13 23.0401 195.02 23.4301 193.7 23.4301C192.38 23.4301 191.3 23.0401 190.38 22.2701C189.46 21.5001 189.01 20.5701 189.01 19.5001C189.01 18.4301 189.47 17.4801 190.38 16.7001C191.3 15.9301 192.41 15.5401 193.7 15.5401C194.99 15.5401 196.12 15.9301 197.04 16.7001ZM195.28 20.9901C195.73 20.5901 195.96 20.0901 195.96 19.5001C195.96 18.9101 195.75 18.4301 195.31 18.0201C194.87 17.6201 194.34 17.4101 193.7 17.4101C193.06 17.4101 192.52 17.6101 192.07 18.0101C191.61 18.4101 191.39 18.9001 191.39 19.5001C191.39 20.1001 191.61 20.5901 192.05 20.9901C192.48 21.3901 193.02 21.5901 193.65 21.5901C194.28 21.5901 194.83 21.3901 195.29 20.9901H195.28ZM195.05 7.02012C194.64 6.65012 194.16 6.46012 193.6 6.46012C193.04 6.46012 192.58 6.65012 192.17 7.02012C191.77 7.39012 191.57 7.86012 191.57 8.41012C191.57 8.96012 191.77 9.43012 192.17 9.80012C192.57 10.1701 193.05 10.3601 193.6 10.3601C194.15 10.3601 194.65 10.1801 195.05 9.80012C195.45 9.43012 195.64 8.96012 195.64 8.41012C195.64 7.86012 195.44 7.40012 195.05 7.02012Z" fill="#182932"/>
<path d="M208.51 14.17L204.33 14.19V12.31H207.79C209.18 12.31 210.78 12.25 212.59 12.15C214.39 12.04 215.78 11.93 216.75 11.81V13.66C216.21 13.73 215.46 13.8 214.5 13.88C213.54 13.96 212.54 14.03 211.5 14.1V16.6H209.04V14.18H208.5L208.51 14.17ZM207.09 4.92997C207.99 4.11997 209.07 3.71997 210.34 3.71997C211.61 3.71997 212.69 4.12997 213.59 4.92997C214.49 5.73997 214.93 6.71997 214.93 7.85997C214.93 8.99997 214.46 9.93997 213.52 10.71C212.58 11.48 211.52 11.86 210.34 11.86C209.16 11.86 208.07 11.48 207.14 10.71C206.21 9.93997 205.74 8.98997 205.74 7.85997C205.74 6.72997 206.19 5.73997 207.09 4.92997ZM211.78 6.31997C211.34 5.89997 210.86 5.68997 210.34 5.68997C209.82 5.68997 209.35 5.89997 208.9 6.31997C208.45 6.73997 208.23 7.24997 208.23 7.85997C208.23 8.46997 208.45 8.95997 208.9 9.37997C209.35 9.79997 209.83 10.01 210.34 10.01C210.85 10.01 211.34 9.79997 211.78 9.37997C212.23 8.95997 212.44 8.44997 212.44 7.85997C212.44 7.26997 212.22 6.73997 211.78 6.31997ZM211.49 17.38V20.4H219.95V22.41H209.07V17.38H211.49ZM213.54 16.43V14.63H217.43V3.73997H219.83V17.96H217.43V16.43H213.54Z" fill="#182932"/>
<path d="M67.97 11.6701C68.34 10.3101 68.71 7.6401 68.66 6.4701H60.02V4.3501H71.28C71.32 6.2101 70.93 9.8301 70.48 11.6701H74.75V13.7101H67.11V16.5501H71.44V23.5601H68.91V18.6001H59.84V16.5401H64.45V13.7001H56.74V11.6601H67.98L67.97 11.6701Z" fill="#182932"/>
<path d="M77.21 16.35L75.57 14.75C77.28 14.04 78.99 12.89 80.31 11.57C81.67 10.21 82.56 8.59999 82.73 6.93999H76.88V4.83999H85.56C85.45 7.54999 84.61 9.87999 83.22 11.77C81.77 13.74 79.71 15.26 77.2 16.36L77.21 16.35ZM90.65 9.35999H93.4V11.42H90.65V20.56H88.16V3.73999H90.65V9.34999V9.35999Z" fill="#182932"/>
<defs>
<linearGradient id="paint0_linear_7_15" x1="22.76" y1="9.06996" x2="41.6" y2="9.06996" gradientUnits="userSpaceOnUse">
<stop stop-color="#00853F"/>
<stop offset="0.05" stop-color="#128C40"/>
<stop offset="0.16" stop-color="#329942"/>
<stop offset="0.28" stop-color="#4DA444"/>
<stop offset="0.4" stop-color="#61AD45"/>
<stop offset="0.55" stop-color="#6FB346"/>
<stop offset="0.72" stop-color="#78B646"/>
<stop offset="1" stop-color="#7BB847"/>
</linearGradient>
<linearGradient id="paint1_linear_7_15" x1="7.26001" y1="17.6801" x2="26.1" y2="17.6801" gradientUnits="userSpaceOnUse">
<stop stop-color="#F8B51A"/>
<stop offset="0.27" stop-color="#F5B219"/>
<stop offset="0.46" stop-color="#EFA919"/>
<stop offset="0.62" stop-color="#E39A19"/>
<stop offset="0.76" stop-color="#D38418"/>
<stop offset="0.89" stop-color="#BE6817"/>
<stop offset="1" stop-color="#A94D17"/>
</linearGradient>
</defs>
</svg>
