<svg width="119" height="56" viewBox="0 0 119 56" fill="none" xmlns="http://www.w3.org/2000/svg">
<path fill-rule="evenodd" clip-rule="evenodd" d="M42.0748 13.9916H43.6602C44.0352 13.9916 44.339 14.292 44.339 14.6688V24.7548H42.7536C42.3786 24.7548 42.0748 24.4496 42.0748 24.0728V20.1004H40.4894C40.1144 20.1004 39.8106 19.7952 39.8106 19.4185V17.8257H42.0748V13.9868V13.9916ZM12.1468 13.9916H13.7322C14.1072 13.9916 14.411 14.2968 14.411 14.6735V27.0438H12.8256C12.4506 27.0438 12.1468 26.7386 12.1468 26.3618V21.0208H10.5614C10.1864 21.0208 9.88265 20.7156 9.88265 20.3389V18.7461H12.1468V13.9964V13.9916ZM92.969 18.8319H100.222C100.478 18.8319 100.682 19.0417 100.682 19.2945V24.5306C100.682 24.9074 100.986 25.2126 101.361 25.2126H102.947V19.2993C102.947 17.7828 101.727 16.5524 100.213 16.5524H92.2855V18.1452C92.2855 18.5219 92.5893 18.8271 92.9643 18.8271L92.969 18.8319ZM99.6334 26.9532H104.399C104.774 26.9532 105.078 27.2584 105.078 27.6351V29.2279H91.2602C90.8852 29.2279 90.5767 28.9227 90.5767 28.546V26.9532H93.7428V22.3942H95.3282C95.7031 22.3942 96.0069 22.6994 96.0069 23.0761V26.9532H97.3692V22.3942H98.9546C99.3296 22.3942 99.6334 22.6994 99.6334 23.0761V26.9532ZM64.3369 21.7075H70.8921V17.6206C70.8921 16.1042 69.6722 14.8738 68.158 14.8738H61.6028V18.9607C61.6028 20.4772 62.8274 21.7075 64.3369 21.7075ZM68.1675 17.1533C68.4238 17.1533 68.6279 17.3631 68.6279 17.6159V19.4328H64.3274C64.0711 19.4328 63.867 19.223 63.867 18.9702V17.1533H68.1675ZM58.9968 23.1H72.8145C73.1943 23.1 73.498 23.4052 73.498 23.7819V25.3747H67.8352V27.8449H66.2498C65.8701 27.8449 65.5663 27.5397 65.5663 27.1582V25.3699H59.6756C59.3006 25.3699 58.9968 25.0647 58.9968 24.688V23.0952V23.1ZM63.6439 28.2932V26.9293C63.6439 26.5526 63.3401 26.2474 62.9651 26.2474H61.3797V28.298C61.3797 30.8207 63.4113 32.8617 65.9223 32.8617H72.0313V31.2689C72.0313 30.8922 71.7275 30.587 71.3525 30.587H65.927C64.6692 30.587 63.6534 29.5617 63.6534 28.3027L63.6439 28.2932ZM6.02832 28.2932V26.9293C6.02832 26.5526 5.72453 26.2474 5.34954 26.2474H3.76414V28.298C3.76414 30.8207 5.79573 32.8617 8.30199 32.8617H14.411V31.2689C14.411 30.8922 14.1072 30.587 13.7322 30.587H8.30674C7.04886 30.587 6.03307 29.5617 6.03307 28.3027L6.02832 28.2932ZM9.14216 23.7342L8.02194 24.8597L4.81791 21.6407L2.08381 24.3876C1.81799 24.6546 1.38604 24.6546 1.12022 24.3876L0 23.2621L3.48408 19.7571C3.61225 19.6283 3.68345 19.4566 3.68345 19.2754V17.964H0.958835C0.583845 17.964 0.280056 17.6588 0.280056 17.2821V15.6893H8.66274C9.03773 15.6893 9.34152 15.9945 9.34152 16.3712V17.964H5.94763V19.2754C5.94763 19.4566 6.01883 19.6283 6.14699 19.7571L9.14216 22.7662C9.40798 23.0332 9.40798 23.4672 9.14216 23.7342ZM29.8236 23.553V21.9602C29.8236 21.5835 29.5198 21.2783 29.14 21.2783H26.9898V17.6254C26.9898 16.1089 25.7699 14.8786 24.2557 14.8786H18.1467V16.4714C18.1467 16.8481 18.4505 17.1533 18.8254 17.1533H24.2604C24.5168 17.1533 24.7209 17.3631 24.7209 17.6159V21.2783H15.3129V22.8711C15.3129 23.2478 15.6167 23.553 15.9917 23.553H21.4266V26.0233H17.2306V27.616C17.2306 27.9928 17.5343 28.298 17.9093 28.298H25.1623C25.4186 28.298 25.6227 28.5078 25.6227 28.7606V32.1702C25.6227 32.547 25.9265 32.8522 26.3015 32.8522H27.8869V28.7653C27.8869 27.2488 26.667 26.0185 25.1528 26.0185H23.6908V23.5483H29.8046L29.8188 23.5578L29.8236 23.553ZM114.699 25.3747V27.0581H114.69C115.805 27.4014 116.617 28.4458 116.617 29.6809V32.8522H115.032C114.657 32.8522 114.353 32.547 114.353 32.1702V29.6714C114.353 29.4186 114.149 29.2088 113.893 29.2088H107.551C107.176 29.2088 106.872 28.9036 106.872 28.5269V26.9341H108.799V25.3699H105.178C104.803 25.3699 104.499 25.0647 104.499 24.688V23.0952H118.316C118.696 23.0952 119 23.4004 119 23.7772V25.3699H114.699V25.3747ZM112.435 25.3747H111.068V26.9389H112.435V25.3747ZM111.752 22.8472C113.945 22.8472 115.72 21.0637 115.72 18.8605C115.72 16.6573 113.945 14.8738 111.752 14.8738C109.559 14.8738 107.784 16.6573 107.784 18.8605C107.784 21.0637 109.559 22.8472 111.752 22.8472ZM111.752 17.1533C112.692 17.1533 113.451 17.9211 113.451 18.8605C113.451 19.8 112.687 20.5678 111.752 20.5678C110.817 20.5678 110.052 19.8 110.052 18.8605C110.052 17.9211 110.817 17.1533 111.752 17.1533ZM39.3122 23.2955C39.5781 23.0285 39.5781 22.5945 39.3122 22.3274L36.3171 19.3183C36.1889 19.1896 36.1177 19.0179 36.1177 18.8367V15.9325C36.1177 15.551 35.8139 15.2458 35.4342 15.2458H33.8488V18.8367C33.8488 19.0179 33.7776 19.1896 33.6494 19.3183L30.1606 22.8234L31.2808 23.9488C31.5466 24.2159 31.9786 24.2159 32.2444 23.9488L34.9785 21.202L38.1825 24.4209L39.3028 23.2955H39.3075H39.3122ZM35.7475 28.875C35.7475 26.6718 37.5227 24.8883 39.7157 24.8883C41.9087 24.8883 43.684 26.6718 43.684 28.875C43.684 31.0782 41.9087 32.8617 39.7157 32.8617C37.5227 32.8617 35.7475 31.0782 35.7475 28.875ZM38.0116 28.875C38.0116 29.8192 38.7759 30.5822 39.711 30.5822C40.6461 30.5822 41.4103 29.8145 41.4103 28.875C41.4103 27.9356 40.6461 27.1678 39.711 27.1678C38.7759 27.1678 38.0116 27.9356 38.0116 28.875ZM49.7028 28.298V26.9341C49.7028 26.5574 49.399 26.2522 49.024 26.2522H47.4386V28.3027C47.4386 30.8254 49.4702 32.8665 51.9765 32.8665H58.0855V31.2737C58.0855 30.897 57.7817 30.5918 57.4067 30.5918H51.9812C50.7233 30.5918 49.7075 29.5665 49.7075 28.3075L49.7028 28.298ZM55.8213 13.9964H57.4067C57.7817 13.9964 58.0855 14.3016 58.0855 14.6783V24.7643H56.5001C56.1251 24.7643 55.8213 24.4591 55.8213 24.0824V13.9964ZM53.1726 19.8334C53.1726 17.6302 51.3974 15.8466 49.2044 15.8466C47.0114 15.8466 45.2361 17.6302 45.2361 19.8334C45.2361 22.0365 47.0114 23.8201 49.2044 23.8201C51.3974 23.8201 53.1726 22.0365 53.1726 19.8334ZM47.5051 19.8334C47.5051 18.8891 48.2693 18.1261 49.2044 18.1261C50.1395 18.1261 50.9037 18.8939 50.9037 19.8334C50.9037 20.7728 50.1395 21.5406 49.2044 21.5406C48.2693 21.5406 47.5051 20.7728 47.5051 19.8334ZM87.3394 15.7942H88.9249C89.2998 15.7942 89.6036 16.0994 89.6036 16.4761V29.4473H88.0182C87.6432 29.4473 87.3394 29.1421 87.3394 28.7653V24.6737H85.9819V29.4473H84.3965C84.0215 29.4473 83.7177 29.1421 83.7177 28.7653V15.7942H85.3031C85.6781 15.7942 85.9819 16.0994 85.9819 16.4761V22.3942H87.3394V15.7942ZM81.876 17.4156H79.1609V16.5047C79.1609 16.128 78.8571 15.8228 78.4821 15.8228H76.8967V17.4156H73.4885V19.0084C73.4885 19.3851 73.7923 19.6903 74.1673 19.6903H82.5548V18.0975C82.5548 17.7208 82.251 17.4156 81.876 17.4156ZM74.0582 24.359C74.0582 22.1558 75.8334 20.3722 78.0264 20.3722C80.2194 20.3722 81.9947 22.1558 81.9947 24.359C81.9947 26.5621 80.2194 28.3457 78.0264 28.3457C75.8334 28.3457 74.0582 26.5621 74.0582 24.359ZM76.3223 24.359C76.3223 25.3032 77.0866 26.0662 78.0217 26.0662C78.9568 26.0662 79.721 25.2984 79.721 24.359C79.721 23.4195 78.9568 22.6517 78.0217 22.6517C77.0866 22.6517 76.3223 23.4195 76.3223 24.359Z" fill="#808080"/>
<path d="M3.57422 2.19842V3.16648C3.57422 4.0964 3.74036 4.68296 4.23876 5.29337C4.6185 5.7464 5.01247 6.15175 5.2593 6.41403C5.52037 6.70016 5.4729 7.12935 5.22133 7.3821C4.96026 7.64438 4.55679 7.68253 4.28148 7.40594C4.11535 7.23904 3.79257 6.89091 3.47454 6.53325C2.98563 5.98484 2.8812 5.70825 2.83373 5.46981H2.82424C2.78627 5.7321 2.65811 6.04207 2.16919 6.59048C1.84642 6.94814 1.53788 7.28196 1.18188 7.63962C0.90657 7.91621 0.469872 7.84467 0.232537 7.60146C-0.0285322 7.32487 -0.0997328 6.90999 0.18507 6.60955C0.626514 6.15652 1.02998 5.73686 1.40972 5.28383C1.90813 4.67342 2.07426 4.09163 2.07426 3.15694V2.18888H0.697714C0.327471 2.18888 0.161336 1.88844 0.161336 1.54509C0.161336 1.20174 0.327471 0.886997 0.697714 0.886997H4.8321C5.20234 0.886997 5.36848 1.18743 5.36848 1.54509C5.36848 1.90275 5.20234 2.18888 4.8321 2.18888H3.57422V2.19842ZM5.95232 4.7068H5.09791C4.72767 4.7068 4.56154 4.40637 4.56154 4.04871C4.56154 3.69105 4.72767 3.39062 5.09791 3.39062H5.95232V0.71532C5.95232 0.309972 6.29883 0.11922 6.65483 0.11922C7.01084 0.11922 7.34311 0.309972 7.34311 0.71532V9.33731C7.34311 9.74265 6.9966 9.93341 6.65483 9.93341C6.31307 9.93341 5.95232 9.74265 5.95232 9.33731V4.7068ZM8.11682 0.5961C8.11682 0.190752 8.46333 0 8.81933 0C9.17534 0 9.52185 0.190752 9.52185 0.5961V9.83803C9.52185 10.2434 9.17534 10.4341 8.81933 10.4341C8.46333 10.4341 8.11682 10.2434 8.11682 9.83803V0.5961Z" fill="#808080"/>
<path d="M15.7924 1.39735V8.71746C15.7924 9.17049 15.4364 9.37555 15.0329 9.37555C14.6294 9.37555 14.2734 9.17049 14.2734 8.71746V2.53233L12.7402 3.41455C12.3462 3.64346 11.9665 3.46224 11.7766 3.11412C11.5963 2.78984 11.6437 2.37496 12.014 2.1699L14.0218 1.04923C14.4395 0.820327 14.7101 0.739258 14.9949 0.739258C15.4458 0.739258 15.7924 0.944316 15.7924 1.39735Z" fill="#808080"/>
<path d="M24.1038 2.85182V2.91381C24.1038 3.7865 23.5816 4.63535 22.6893 4.90717C23.5911 5.02639 24.4598 5.59865 24.4598 6.829V6.94822C24.4598 8.27394 23.3918 9.43276 21.3459 9.43276C20.4203 9.43276 19.6466 9.24201 18.9583 8.79851C18.5881 8.56007 18.5549 8.14042 18.7542 7.8066C18.9678 7.44894 19.3144 7.3631 19.6704 7.5777C20.2305 7.93536 20.6577 8.06888 21.2368 8.06888C22.4946 8.06888 22.9266 7.54432 22.9266 6.87668V6.78131C22.9266 5.97061 22.414 5.58911 21.2035 5.58911H20.5722C20.1925 5.58911 20.0264 5.28867 20.0264 4.93101C20.0264 4.57335 20.1925 4.27292 20.5722 4.27292H21.0706C22.1292 4.27292 22.6133 3.86757 22.6133 3.04257V3.00442C22.6133 2.39401 22.1956 2.01251 21.2605 2.01251C20.6909 2.01251 20.3207 2.20326 19.9172 2.57523C19.6181 2.83751 19.2289 2.78982 19.0011 2.5037C18.7637 2.21757 18.797 1.8456 19.0248 1.58332C19.5232 1.0206 20.2827 0.677246 21.27 0.677246C23.2209 0.677246 24.099 1.70254 24.099 2.85182H24.1038Z" fill="#808080"/>
<path d="M26.292 8.8367C25.9218 8.8367 25.7556 8.53626 25.7556 8.19291C25.7556 7.84956 25.9218 7.55866 26.292 7.55866C27.0657 7.55866 27.8347 7.55866 28.6226 7.54435V6.61444C27.4122 6.42369 26.6955 5.76559 26.6955 4.78799C26.6955 3.61963 27.716 2.91385 29.3679 2.91385C31.0197 2.91385 32.0403 3.61963 32.0403 4.78799C32.0403 5.76559 31.314 6.42369 30.1131 6.61444V7.49667C30.8868 7.47282 31.6558 7.42513 32.42 7.3536C32.7902 7.31545 32.9564 7.5825 32.9896 7.92586C33.0228 8.25967 32.8804 8.56964 32.5244 8.60779C30.9438 8.75086 28.5894 8.8367 26.2872 8.8367H26.292ZM28.6084 1.19708V0.682052C28.6084 0.238554 28.9786 0.0382644 29.3679 0.0382644C29.7571 0.0382644 30.1273 0.243323 30.1273 0.682052V1.19708H32.0545C32.4247 1.19708 32.5909 1.49752 32.5909 1.84087C32.5909 2.18422 32.4247 2.47512 32.0545 2.47512H26.5626C26.1923 2.47512 26.0262 2.17469 26.0262 1.84087C26.0262 1.50705 26.1923 1.19708 26.5626 1.19708H28.6084ZM30.678 4.79276C30.678 4.36356 30.2507 4.06313 29.3726 4.06313C28.4945 4.06313 28.0673 4.36356 28.0673 4.79276C28.0673 5.22195 28.4945 5.52238 29.3726 5.52238C30.2507 5.52238 30.678 5.22195 30.678 4.79276ZM33.4358 0.648671C33.4358 0.205172 33.806 0.00488281 34.1953 0.00488281C34.5845 0.00488281 34.9452 0.209941 34.9452 0.648671V9.79523C34.9452 10.2387 34.575 10.439 34.1953 10.439C33.8155 10.439 33.4358 10.234 33.4358 9.79523V0.643902V0.648671Z" fill="#808080"/>
<path fill-rule="evenodd" clip-rule="evenodd" d="M42.9483 37.1348H44.5337C44.9087 37.1348 45.2124 37.44 45.2124 37.8167V50.187H43.627C43.2521 50.187 42.9483 49.8818 42.9483 49.505V44.164H41.3629C40.9879 44.164 40.6841 43.8588 40.6841 43.482V41.8893H42.9483V37.1395V37.1348Z" fill="#808080"/>
<path fill-rule="evenodd" clip-rule="evenodd" d="M11.7102 38.0454H13.2956C13.6706 38.0454 13.9744 38.3506 13.9744 38.7273V52.6141H12.389C12.014 52.6141 11.7102 52.3089 11.7102 51.9322V38.0454Z" fill="#808080"/>
<path fill-rule="evenodd" clip-rule="evenodd" d="M30.0466 41.8797H28.4612V38.7227C28.4612 38.346 28.1574 38.0408 27.7824 38.0408H26.197V49.8769C26.197 50.1297 25.9929 50.3347 25.7413 50.3347H21.6212V49.0042C22.9408 48.5369 23.8854 47.2732 23.8854 45.7853C23.8854 43.9016 22.3617 42.3708 20.4867 42.3708C18.6118 42.3708 17.0881 43.9016 17.0881 45.7853C17.0881 47.2732 18.0374 48.5321 19.3523 49.0042V50.3347H15.9536V51.9275C15.9536 52.3042 16.2574 52.6095 16.6324 52.6095H25.7508C27.246 52.6095 28.4612 51.3934 28.4612 49.8865V44.1544H30.7254V42.5616C30.7254 42.1849 30.4216 41.8797 30.0466 41.8797ZM20.4867 46.925C19.8602 46.925 19.3523 46.4148 19.3523 45.7853C19.3523 45.1558 19.8602 44.6456 20.4867 44.6456C21.1133 44.6456 21.6212 45.1558 21.6212 45.7853C21.6212 46.4148 21.1133 46.925 20.4867 46.925Z" fill="#808080"/>
<path fill-rule="evenodd" clip-rule="evenodd" d="M16.6799 41.9178H25.0626V40.325C25.0626 39.9483 24.7588 39.6431 24.3838 39.6431H21.6687V38.7322C21.6687 38.3555 21.3649 38.0503 20.9899 38.0503H19.4045V39.6431H15.9963V41.2359C15.9963 41.6126 16.3001 41.9178 16.6751 41.9178H16.6799Z" fill="#808080"/>
<path fill-rule="evenodd" clip-rule="evenodd" d="M6.16137 44.6788C6.0332 44.5501 5.962 44.3784 5.962 44.1972V40.3774C5.962 39.9959 5.65821 39.6907 5.27848 39.6907H3.69308V44.1924C3.69308 44.3736 3.62188 44.5453 3.49371 44.6741L0.00488281 48.1791L1.12511 49.3046C1.39092 49.5716 1.82287 49.5716 2.08869 49.3046L4.82279 46.5577L8.02682 49.7767L9.14705 48.6512C9.41286 48.3842 9.41286 47.9502 9.14705 47.6832L6.15187 44.6741H6.15662L6.16137 44.6788Z" fill="#808080"/>
<path fill-rule="evenodd" clip-rule="evenodd" d="M36.8296 51.4316V50.0677C36.8296 49.6909 36.5258 49.3857 36.1508 49.3857H34.5654V51.4363C34.5654 53.959 36.597 56.0001 39.1033 56.0001H45.2123V54.4073C45.2123 54.0306 44.9085 53.7254 44.5335 53.7254H39.108C37.8502 53.7254 36.8344 52.7001 36.8344 51.4411L36.8296 51.4316Z" fill="#808080"/>
<path fill-rule="evenodd" clip-rule="evenodd" d="M39.9434 46.8726L38.8232 47.998L35.6192 44.7791L32.8851 47.5259C32.6193 47.793 32.1873 47.793 31.9215 47.5259L30.8013 46.4005L34.2901 42.8954C34.4183 42.7667 34.4895 42.595 34.4895 42.4138V41.1024H31.7601C31.3851 41.1024 31.0813 40.7972 31.0813 40.4204V38.8276H39.464C39.839 38.8276 40.1428 39.1328 40.1428 39.5096V41.1024H36.7489V42.4138C36.7489 42.595 36.8201 42.7667 36.9483 42.8954L39.9434 45.9045C40.2092 46.1716 40.2092 46.6055 39.9434 46.8726Z" fill="#808080"/>
</svg>
