<svg width="227" height="30" viewBox="0 0 227 30" fill="none" xmlns="http://www.w3.org/2000/svg">
<path d="M0.96 28.2V24.52H12.928V19.048H12.576C6.432 19.048 2.72 15.56 2.72 10.12C2.72 4.68 6.432 1.192 12.576 1.192H17.824C23.936 1.192 27.68 4.68 27.68 10.12C27.68 15.56 23.936 19.048 17.824 19.048H17.472V24.52H29.44V28.2H0.96ZM12.416 15.4H17.984C21.248 15.4 23.328 13.224 23.328 10.12C23.328 7.016 21.248 4.84 17.984 4.84H12.416C9.152 4.84 7.072 7.016 7.072 10.12C7.072 13.224 9.152 15.4 12.416 15.4ZM32.9663 13.352V9.896H37.1263V4.296H33.2863V0.839998H57.9263V4.296H54.0863V9.896H58.2463V13.352H32.9663ZM33.4463 29.16V20.84H37.7983V25.576H58.0863V29.16H33.4463ZM31.3663 19.176V15.752H59.8463V19.176H31.3663ZM41.4783 9.896H49.7343V4.296H41.4783V9.896ZM92.133 29.288V0.711998H96.485V29.288H92.133ZM71.205 19.656V8.968C71.205 3.848 74.597 0.872 79.749 0.872C84.901 0.872 88.293 3.848 88.293 8.968V19.656C88.293 24.776 84.901 27.752 79.749 27.752C74.597 27.752 71.205 24.776 71.205 19.656ZM83.941 19.784V8.84C83.941 6.216 82.309 4.488 79.749 4.488C77.189 4.488 75.557 6.216 75.557 8.84V19.784C75.557 22.408 77.189 24.136 79.749 24.136C82.309 24.136 83.941 22.408 83.941 19.784ZM101.291 17.032V0.967999H105.387V5.48H110.315V0.967999H114.411V7.08H117.419V0.872H121.515V21.32H117.419V10.984H114.411V17.032H101.291ZM103.531 29.16V19.56H107.883V25.576H128.171V29.16H103.531ZM123.435 21.64V0.711998H127.531V21.64H123.435ZM105.387 13.576H110.315V8.936H105.387V13.576ZM130.898 28.2V24.52H159.378V28.2H130.898ZM133.298 20.232V1.32H157.138V4.968H137.65V8.84H156.882V12.424H137.65V16.584H157.618V20.232H133.298ZM171.624 28.36H168.744C165.624 25.36 164.184 21.472 164.184 17.56C164.184 13.672 165.624 9.76 168.744 6.76H171.624C168.912 9.76 167.448 13.672 167.448 17.56C167.448 21.472 168.912 25.36 171.624 28.36ZM179.16 20.44H188.328C191.448 20.44 193.344 21.952 193.344 24.328C193.344 26.704 191.448 28.216 188.328 28.216H179.16C176.04 28.216 174.144 26.704 174.144 24.328C174.144 21.952 176.04 20.44 179.16 20.44ZM174.264 15.28V12.856C178.104 12.592 181.248 11.2 181.848 9.424H174.624V6.88H192.864V9.424H185.64C186.216 11.2 189.384 12.592 193.224 12.856V15.28C189.288 15.016 185.808 13.936 183.744 12.064C181.68 13.936 178.2 15.016 174.264 15.28ZM173.064 19.048V16.48H182.04V14.224H185.448V16.48H194.424V19.048H173.064ZM179.376 25.624H188.112C189.336 25.624 190.08 25.072 190.08 24.328C190.08 23.584 189.336 23.032 188.112 23.032H179.376C178.152 23.032 177.408 23.584 177.408 24.328C177.408 25.072 178.152 25.624 179.376 25.624ZM195.868 27.64V24.88H201.004V21.424H197.668V12.856H212.164V9.976H197.668V7.24H215.428V15.544H200.932V18.688H215.908V21.424H212.572V24.88H217.228V27.64H195.868ZM204.412 24.88H209.164V21.424H204.412V24.88ZM221.553 28.36H218.673C221.385 25.36 222.849 21.472 222.849 17.56C222.849 13.672 221.385 9.76 218.673 6.76H221.553C224.673 9.76 226.113 13.672 226.113 17.56C226.113 21.472 224.673 25.36 221.553 28.36Z" fill="#8F81E9"/>
</svg>
