<svg width="160" height="30" viewBox="0 0 160 30" fill="none" xmlns="http://www.w3.org/2000/svg">
<path d="M2.4 29.16V20.2H6.752V25.576H27.04V29.16H2.4ZM22.048 22.28V0.711998H26.4V8.52H30.24V12.424H26.4V22.28H22.048ZM1.12 4.552V0.967999H18.08V13.352H13.728V4.552H1.12ZM0.32 18.184V14.76H5.568V8.712H10.112V14.76H20.768V18.184H0.32ZM33.1263 29.16V18.28H56.8063V29.16H33.1263ZM31.6863 16.2V6.888H44.1343V4.424H31.6863V1.032H48.4862V10.184H36.0383V12.808H50.5343V16.2H31.6863ZM52.4543 17.16V0.711998H56.8063V6.44H60.6463V10.344H56.8063V17.16H52.4543ZM37.4783 25.704H52.4543V21.736H37.4783V25.704ZM92.133 29.288V0.711998H96.485V29.288H92.133ZM71.205 19.656V8.968C71.205 3.848 74.597 0.872 79.749 0.872C84.901 0.872 88.293 3.848 88.293 8.968V19.656C88.293 24.776 84.901 27.752 79.749 27.752C74.597 27.752 71.205 24.776 71.205 19.656ZM83.941 19.784V8.84C83.941 6.216 82.309 4.488 79.749 4.488C77.189 4.488 75.557 6.216 75.557 8.84V19.784C75.557 22.408 77.189 24.136 79.749 24.136C82.309 24.136 83.941 22.408 83.941 19.784ZM101.291 17.032V0.967999H105.387V5.48H110.315V0.967999H114.411V7.08H117.419V0.872H121.515V21.32H117.419V10.984H114.411V17.032H101.291ZM103.531 29.16V19.56H107.883V25.576H128.171V29.16H103.531ZM123.435 21.64V0.711998H127.531V21.64H123.435ZM105.387 13.576H110.315V8.936H105.387V13.576ZM130.898 28.2V24.52H159.378V28.2H130.898ZM133.298 20.232V1.32H157.138V4.968H137.65V8.84H156.882V12.424H137.65V16.584H157.618V20.232H133.298Z" fill="#8F81E9"/>
</svg>
